<svg width="28" height="28" viewBox="0 0 28 28" fill="none" xmlns="http://www.w3.org/2000/svg">
<path d="M2.54545 2.54541H5.09091V22.909H25.4545V25.4545H2.54545V2.54541ZM7.63636 20.3636V10.1818H12.7273V20.3636H7.63636ZM14 20.3636V5.09086H19.0909V20.3636H14ZM20.3636 20.3636V14H25.4545V20.3636H20.3636Z" fill="url(#paint0_linear_128_12)"/>
<path d="M5.09091 23.409H24.9545V24.9545H3.04545V3.04541H4.59091V22.909V23.409H5.09091ZM8.13636 19.8636V10.6818H12.2273V19.8636H8.13636ZM14.5 19.8636V5.59086H18.5909V19.8636H14.5ZM20.8636 19.8636V14.5H24.9545V19.8636H20.8636Z" stroke="#19C2EF" stroke-opacity="0.55"/>
<defs>
<linearGradient id="paint0_linear_128_12" x1="14" y1="2.54541" x2="14" y2="25.4545" gradientUnits="userSpaceOnUse">
<stop stop-color="#0974F8"/>
<stop offset="1" stop-color="#4FB2FE"/>
</linearGradient>
</defs>
</svg>
