<svg width="28" height="28" viewBox="0 0 28 28" fill="none" xmlns="http://www.w3.org/2000/svg">
<path d="M8.5442 4.16339C8.49194 4.1116 8.42985 4.07051 8.36147 4.04247C8.2931 4.01443 8.2198 4 8.14576 4C8.07173 4 7.99843 4.01443 7.93005 4.04247C7.86168 4.07051 7.79958 4.1116 7.74733 4.16339L4.76232 7.09421L3.69826 6.0702C3.646 6.01842 3.5839 5.97732 3.51553 5.94929C3.44716 5.92125 3.37385 5.90681 3.29982 5.90681C3.22579 5.90681 3.15248 5.92125 3.08411 5.94929C3.01574 5.97732 2.95364 6.01842 2.90138 6.0702L2.16544 6.79793C2.113 6.84954 2.0714 6.91087 2.043 6.97839C2.01461 7.04592 2 7.11831 2 7.19142C2 7.26454 2.01461 7.33693 2.043 7.40446C2.0714 7.47198 2.113 7.53331 2.16544 7.58492L4.39623 9.77921C4.50758 9.88374 4.65533 9.94203 4.80896 9.94203C4.96259 9.94203 5.11035 9.88374 5.2217 9.77921L5.95248 9.05611L9.33686 5.71421C9.44231 5.60999 9.50189 5.46891 9.50268 5.32157C9.50347 5.17424 9.4454 5.03255 9.34108 4.92723L8.5442 4.16339ZM8.5442 11.5328C8.49194 11.481 8.42985 11.4399 8.36147 11.4119C8.2931 11.3838 8.2198 11.3694 8.14576 11.3694C8.07173 11.3694 7.99843 11.3838 7.93005 11.4119C7.86168 11.4399 7.79958 11.481 7.74733 11.5328L4.76232 14.4826L3.69826 13.4595C3.646 13.4077 3.5839 13.3666 3.51553 13.3386C3.44716 13.3106 3.37385 13.2961 3.29982 13.2961C3.22579 13.2961 3.15248 13.3106 3.08411 13.3386C3.01574 13.3666 2.95364 13.4077 2.90138 13.4595L2.16544 14.1859C2.113 14.2375 2.0714 14.2988 2.043 14.3663C2.01461 14.4338 2 14.5062 2 14.5793C2 14.6525 2.01461 14.7249 2.043 14.7924C2.0714 14.8599 2.113 14.9212 2.16544 14.9728L4.3906 17.1718C4.50187 17.2763 4.64955 17.3345 4.8031 17.3345C4.95665 17.3345 5.10433 17.2763 5.2156 17.1718L5.95154 16.4454L9.33592 13.1021C9.44096 12.9986 9.50035 12.8583 9.50114 12.7118C9.50193 12.5653 9.44406 12.4244 9.34014 12.3198L8.5442 11.5328ZM4.99998 19.5559C3.75826 19.5559 2.72232 20.5512 2.72232 21.7779C2.72232 23.0047 3.7592 24 4.99998 24C5.59672 24 6.16901 23.7659 6.59097 23.3492C7.01293 22.9325 7.24998 22.3673 7.24998 21.7779C7.24998 21.1886 7.01293 20.6234 6.59097 20.2067C6.16901 19.79 5.59672 19.5559 4.99998 19.5559ZM25.25 20.2965H11.75C11.5511 20.2965 11.3603 20.3746 11.2197 20.5135C11.079 20.6524 11 20.8408 11 21.0372V22.5186C11 22.7151 11.079 22.9035 11.2197 23.0424C11.3603 23.1813 11.5511 23.2593 11.75 23.2593H25.25C25.4489 23.2593 25.6397 23.1813 25.7803 23.0424C25.921 22.9035 26 22.7151 26 22.5186V21.0372C26 20.8408 25.921 20.6524 25.7803 20.5135C25.6397 20.3746 25.4489 20.2965 25.25 20.2965ZM25.25 5.48274H11.75C11.5511 5.48274 11.3603 5.56078 11.2197 5.69969C11.079 5.83859 11 6.02699 11 6.22343V7.70482C11 7.90126 11.079 8.08966 11.2197 8.22856C11.3603 8.36747 11.5511 8.44551 11.75 8.44551H25.25C25.4489 8.44551 25.6397 8.36747 25.7803 8.22856C25.921 8.08966 26 7.90126 26 7.70482V6.22343C26 6.02699 25.921 5.83859 25.7803 5.69969C25.6397 5.56078 25.4489 5.48274 25.25 5.48274ZM25.25 12.8896H11.75C11.5511 12.8896 11.3603 12.9677 11.2197 13.1066C11.079 13.2455 11 13.4339 11 13.6303V15.1117C11 15.3082 11.079 15.4966 11.2197 15.6355C11.3603 15.7744 11.5511 15.8524 11.75 15.8524H25.25C25.4489 15.8524 25.6397 15.7744 25.7803 15.6355C25.921 15.4966 26 15.3082 26 15.1117V13.6303C26 13.4339 25.921 13.2455 25.7803 13.1066C25.6397 12.9677 25.4489 12.8896 25.25 12.8896Z" fill="url(#paint0_linear_128_14)"/>
<path d="M8.19225 4.51853L8.1922 4.51858L8.19821 4.52435L8.98808 5.28147C8.99811 5.2927 9.00276 5.30611 9.00269 5.31889C9.00261 5.33258 8.99713 5.34696 8.98541 5.35856C8.9854 5.35857 8.98539 5.35858 8.98538 5.3586L5.60117 8.70033L5.6008 8.7007L4.87669 9.41719C4.85889 9.43264 4.8349 9.44203 4.80896 9.44203C4.78287 9.44203 4.75875 9.43253 4.74092 9.41692L2.51616 7.22855C2.51614 7.22853 2.51611 7.2285 2.51609 7.22848C2.51608 7.22847 2.51608 7.22847 2.51607 7.22846C2.51058 7.22303 2.50656 7.21693 2.50392 7.21066C2.50128 7.20438 2.5 7.19786 2.5 7.19142C2.5 7.18499 2.50128 7.17847 2.50392 7.17218C2.50657 7.16588 2.51063 7.15975 2.51616 7.1543L2.51701 7.15346L3.25295 6.42574L3.25334 6.42535C3.25886 6.41987 3.26577 6.4152 3.27382 6.4119C3.28188 6.40859 3.29073 6.40681 3.29982 6.40681C3.30891 6.40681 3.31776 6.40859 3.32582 6.4119C3.33387 6.4152 3.34078 6.41987 3.3463 6.42535L3.34626 6.42539L3.35155 6.43047L4.41562 7.45448L4.76582 7.7915L5.11262 7.45099L8.09763 4.52017L8.09763 4.52017L8.09928 4.51853C8.10481 4.51306 8.11171 4.50839 8.11976 4.50508C8.12782 4.50178 8.13667 4.5 8.14576 4.5C8.15485 4.5 8.16371 4.50178 8.17177 4.50508C8.17982 4.50839 8.18672 4.51306 8.19225 4.51853ZM8.19225 11.8879L8.19265 11.8883L8.98621 12.673C8.99652 12.6837 9.00121 12.6968 9.00115 12.7091C9.00108 12.7217 8.99601 12.7351 8.98501 12.746L8.98453 12.7464L5.60032 16.0896L5.60015 16.0897L4.87068 16.8097C4.85295 16.8251 4.82901 16.8345 4.8031 16.8345C4.77724 16.8345 4.75332 16.8252 4.73559 16.8097L2.5169 14.6172L2.51616 14.6165C2.51063 14.611 2.50657 14.6049 2.50392 14.5986C2.50128 14.5923 2.5 14.5858 2.5 14.5793C2.5 14.5729 2.50128 14.5664 2.50392 14.5601C2.50657 14.5538 2.51063 14.5477 2.51616 14.5422L2.51667 14.5417L3.25261 13.8154L3.25334 13.8147C3.25886 13.8092 3.26577 13.8045 3.27382 13.8012C3.28188 13.7979 3.29073 13.7961 3.29982 13.7961C3.30891 13.7961 3.31776 13.7979 3.32582 13.8012C3.33387 13.8045 3.34078 13.8092 3.3463 13.8147L3.34626 13.8147L3.35171 13.8199L4.41578 14.843L4.76711 15.1808L5.11377 14.8382L8.09878 11.8884L8.09928 11.8879C8.10481 11.8825 8.11171 11.8778 8.11976 11.8745C8.12782 11.8712 8.13667 11.8694 8.14576 11.8694C8.15485 11.8694 8.16371 11.8712 8.17177 11.8745C8.17982 11.8778 8.18672 11.8825 8.19225 11.8879ZM3.22232 21.7779C3.22232 20.8411 4.02041 20.0559 4.99998 20.0559C5.46611 20.0559 5.91191 20.2388 6.23963 20.5624C6.56714 20.8859 6.74998 21.3232 6.74998 21.7779C6.74998 22.2326 6.56714 22.67 6.23963 22.9934C5.91191 23.3171 5.46611 23.5 4.99998 23.5C4.02121 23.5 3.22232 22.7146 3.22232 21.7779ZM11.75 20.7965H25.25C25.3183 20.7965 25.3826 20.8234 25.429 20.8692C25.4752 20.9149 25.5 20.9754 25.5 21.0372V22.5186C25.5 22.5804 25.4752 22.641 25.429 22.6866C25.3826 22.7325 25.3183 22.7593 25.25 22.7593H11.75C11.6817 22.7593 11.6174 22.7325 11.571 22.6866C11.5248 22.641 11.5 22.5804 11.5 22.5186V21.0372C11.5 20.9754 11.5248 20.9149 11.571 20.8692C11.6174 20.8234 11.6817 20.7965 11.75 20.7965ZM11.75 5.98274H25.25C25.3183 5.98274 25.3826 6.0096 25.429 6.05544C25.4752 6.10107 25.5 6.16163 25.5 6.22343V7.70482C25.5 7.76662 25.4752 7.82718 25.429 7.87281C25.3826 7.91865 25.3183 7.94551 25.25 7.94551H11.75C11.6817 7.94551 11.6174 7.91865 11.571 7.87281C11.5248 7.82717 11.5 7.76662 11.5 7.70482V6.22343C11.5 6.16163 11.5248 6.10108 11.571 6.05544C11.6174 6.0096 11.6817 5.98274 11.75 5.98274ZM11.75 13.3896H25.25C25.3183 13.3896 25.3826 13.4165 25.429 13.4623C25.4752 13.508 25.5 13.5685 25.5 13.6303V15.1117C25.5 15.1735 25.4752 15.2341 25.429 15.2797C25.3826 15.3256 25.3183 15.3524 25.25 15.3524H11.75C11.6817 15.3524 11.6174 15.3256 11.571 15.2797C11.5248 15.2341 11.5 15.1735 11.5 15.1117V13.6303C11.5 13.5685 11.5248 13.508 11.571 13.4623C11.6174 13.4165 11.6817 13.3896 11.75 13.3896Z" stroke="#19C2EF" stroke-opacity="0.55"/>
<defs>
<linearGradient id="paint0_linear_128_14" x1="14" y1="4" x2="14" y2="24" gradientUnits="userSpaceOnUse">
<stop stop-color="#0974F8"/>
<stop offset="1" stop-color="#4FB2FE"/>
</linearGradient>
</defs>
</svg>
