<svg width="28" height="28" viewBox="0 0 28 28" fill="none" xmlns="http://www.w3.org/2000/svg">
<path d="M24.5 3.5H4.66666C4.04782 3.5 3.45433 3.74583 3.01675 4.18342C2.57916 4.621 2.33333 5.21449 2.33333 5.83333V22.1667C2.33333 22.7855 2.57916 23.379 3.01675 23.8166C3.45433 24.2542 4.04782 24.5 4.66666 24.5H23.3333C23.9522 24.5 24.5457 24.2542 24.9832 23.8166C25.4208 23.379 25.6667 22.7855 25.6667 22.1667V9.33333C25.6667 9.02391 25.5437 8.72717 25.325 8.50838C25.1062 8.28958 24.8094 8.16667 24.5 8.16667H5.83333C5.52391 8.16667 5.22716 8.04375 5.00837 7.82496C4.78958 7.60616 4.66666 7.30942 4.66666 7C4.66666 6.69058 4.78958 6.39383 5.00837 6.17504C5.22716 5.95625 5.52391 5.83333 5.83333 5.83333H25.6667V4.66667C25.6667 4.35725 25.5437 4.0605 25.325 3.84171C25.1062 3.62292 24.8094 3.5 24.5 3.5ZM21.5833 14.5833C21.9294 14.5833 22.2678 14.686 22.5556 14.8783C22.8434 15.0706 23.0677 15.3439 23.2001 15.6636C23.3326 15.9834 23.3672 16.3353 23.2997 16.6747C23.2322 17.0142 23.0655 17.326 22.8208 17.5708C22.576 17.8155 22.2642 17.9822 21.9247 18.0497C21.5853 18.1172 21.2334 18.0826 20.9136 17.9501C20.5939 17.8177 20.3205 17.5934 20.1283 17.3056C19.936 17.0178 19.8333 16.6795 19.8333 16.3333C19.8333 15.8692 20.0177 15.4241 20.3459 15.0959C20.6741 14.7677 21.1192 14.5833 21.5833 14.5833Z" fill="url(#paint0_linear_125_2498)"/>
<path d="M4.66666 4H24.5C24.6768 4 24.8464 4.07024 24.9714 4.19526C25.0964 4.32029 25.1667 4.48985 25.1667 4.66667V5.33333H5.83333C5.3913 5.33333 4.96738 5.50893 4.65482 5.82149C4.34226 6.13405 4.16666 6.55797 4.16666 7C4.16666 7.44203 4.34226 7.86595 4.65482 8.17851C4.96738 8.49107 5.3913 8.66667 5.83333 8.66667H24.5C24.6768 8.66667 24.8464 8.73691 24.9714 8.86193C25.0964 8.98695 25.1667 9.15652 25.1667 9.33333V22.1667C25.1667 22.6529 24.9735 23.1192 24.6297 23.463C24.2859 23.8068 23.8196 24 23.3333 24H4.66666C4.18043 24 3.71412 23.8068 3.3703 23.463C3.02648 23.1192 2.83333 22.6529 2.83333 22.1667V5.83333C2.83333 5.3471 3.02648 4.88079 3.3703 4.53697C3.71412 4.19315 4.18043 4 4.66666 4ZM22.8334 14.4625C22.4634 14.2153 22.0283 14.0833 21.5833 14.0833C20.9866 14.0833 20.4143 14.3204 19.9923 14.7423C19.5704 15.1643 19.3333 15.7366 19.3333 16.3333C19.3333 16.7783 19.4653 17.2134 19.7125 17.5834C19.9598 17.9534 20.3112 18.2418 20.7223 18.4121C21.1334 18.5824 21.5858 18.6269 22.0223 18.5401C22.4587 18.4533 22.8596 18.239 23.1743 17.9243C23.489 17.6097 23.7033 17.2087 23.7901 16.7723C23.8769 16.3358 23.8324 15.8834 23.6621 15.4723C23.4918 15.0612 23.2034 14.7098 22.8334 14.4625Z" stroke="#19C2EF" stroke-opacity="0.55"/>
<defs>
<linearGradient id="paint0_linear_125_2498" x1="14" y1="3.5" x2="14" y2="24.5" gradientUnits="userSpaceOnUse">
<stop stop-color="#0974F8"/>
<stop offset="1" stop-color="#4FB2FE"/>
</linearGradient>
</defs>
</svg>
