<svg width="18" height="18" viewBox="0 0 18 18" fill="none" xmlns="http://www.w3.org/2000/svg">
<path d="M6.5 4.50006H7.5C7.65 4.50006 7.75 4.40006 7.75 4.25006V3.50006H11.25V4.25006C11.25 4.40006 11.35 4.50006 11.5 4.50006H12.5C12.65 4.50006 12.75 4.40006 12.75 4.25006V3.50006C12.75 2.67506 12.075 2.00006 11.25 2.00006H7.75C6.925 2.00006 6.25 2.67506 6.25 3.50006V4.25006C6.25 4.40006 6.35 4.50006 6.5 4.50006Z" fill="url(#paint0_linear_108_53953)"/>
<path d="M7.75 3.00006H7.25V3.50006V4.00006H6.75V3.50006C6.75 2.9512 7.20114 2.50006 7.75 2.50006H11.25C11.7989 2.50006 12.25 2.9512 12.25 3.50006V4.00006H11.75V3.50006V3.00006H11.25H7.75Z" stroke="#19C2EF" stroke-opacity="0.55"/>
<path d="M15.5 5.99988H3.5C2.675 5.99988 2 6.67488 2 7.49988V15.4999C2 16.3249 2.675 16.9999 3.5 16.9999H15.5C16.325 16.9999 17 16.3249 17 15.4999V7.49988C17 6.67488 16.325 5.99988 15.5 5.99988Z" fill="url(#paint1_linear_108_53953)"/>
<path d="M3.5 6.49988H15.5C16.0489 6.49988 16.5 6.95102 16.5 7.49988V15.4999C16.5 16.0487 16.0489 16.4999 15.5 16.4999H3.5C2.95114 16.4999 2.5 16.0487 2.5 15.4999V7.49988C2.5 6.95102 2.95114 6.49988 3.5 6.49988Z" stroke="#19C2EF" stroke-opacity="0.55"/>
<defs>
<linearGradient id="paint0_linear_108_53953" x1="9.5" y1="2.00006" x2="9.5" y2="4.50006" gradientUnits="userSpaceOnUse">
<stop stop-color="#0974F8"/>
<stop offset="1" stop-color="#4FB2FE"/>
</linearGradient>
<linearGradient id="paint1_linear_108_53953" x1="9.5" y1="5.99988" x2="9.5" y2="16.9999" gradientUnits="userSpaceOnUse">
<stop stop-color="#0974F8"/>
<stop offset="1" stop-color="#4FB2FE"/>
</linearGradient>
</defs>
</svg>
