<svg width="18" height="18" viewBox="0 0 18 18" fill="none" xmlns="http://www.w3.org/2000/svg">
<path fill-rule="evenodd" clip-rule="evenodd" d="M9 1.5C4.85786 1.5 1.5 4.85786 1.5 9C1.5 13.1421 4.85786 16.5 9 16.5C13.1421 16.5 16.5 13.1421 16.5 9C16.5 4.85786 13.1421 1.5 9 1.5ZM11.7803 6.21967C12.0732 6.51256 12.0732 6.98743 11.7803 7.28033L7.28033 11.7803C6.98743 12.0732 6.51256 12.0732 6.21967 11.7803C5.92678 11.4874 5.92678 11.0125 6.21967 10.7197L10.7197 6.21967C11.0125 5.92678 11.4874 5.92678 11.7803 6.21967ZM12 10.875C12 11.4963 11.4963 12 10.875 12C10.2537 12 9.75 11.4963 9.75 10.875C9.75 10.2537 10.2537 9.75 10.875 9.75C11.4963 9.75 12 10.2537 12 10.875ZM7.125 8.25C7.7463 8.25 8.25 7.7463 8.25 7.125C8.25 6.50368 7.7463 6 7.125 6C6.50368 6 6 6.50368 6 7.125C6 7.7463 6.50368 8.25 7.125 8.25Z" fill="url(#paint0_linear_108_53963)"/>
<path d="M7.63389 12.1339L7.63387 12.1339C7.14572 12.622 6.35428 12.622 5.86613 12.1339L6.21967 11.7803L5.86612 12.1339C5.37796 11.6458 5.37796 10.8543 5.86611 10.3661L7.63389 12.1339ZM7.63389 12.1339L9.30196 10.4658C9.26804 10.5965 9.25 10.7337 9.25 10.875C9.25 11.7724 9.97756 12.5 10.875 12.5C11.7724 12.5 12.5 11.7724 12.5 10.875C12.5 9.97756 11.7724 9.25 10.875 9.25C10.7337 9.25 10.5965 9.26804 10.4658 9.30196L12.1339 7.63389L12.1339 7.63387C12.622 7.14572 12.622 6.35428 12.1339 5.86613L11.7803 6.21967L12.1339 5.86612C11.6458 5.37796 10.8543 5.37796 10.3661 5.86611C10.3661 5.86612 10.3661 5.86612 10.3661 5.86612L8.69804 7.53419C8.73195 7.40346 8.75 7.26634 8.75 7.125C8.75 6.22753 8.02244 5.5 7.125 5.5C6.22753 5.5 5.5 6.22753 5.5 7.125C5.5 8.02244 6.22753 8.75 7.125 8.75C7.26634 8.75 7.40346 8.73195 7.53419 8.69804L5.86612 10.3661L7.63389 12.1339ZM2 9C2 5.134 5.134 2 9 2C12.866 2 16 5.13401 16 9C16 12.866 12.866 16 9 16C5.13401 16 2 12.866 2 9Z" stroke="#19C2EF" stroke-opacity="0.55"/>
<defs>
<linearGradient id="paint0_linear_108_53963" x1="9" y1="1.5" x2="9" y2="16.5" gradientUnits="userSpaceOnUse">
<stop stop-color="#0974F8"/>
<stop offset="1" stop-color="#4FB2FE"/>
</linearGradient>
</defs>
</svg>
