<svg width="18" height="18" viewBox="0 0 18 18" fill="none" xmlns="http://www.w3.org/2000/svg">
<path d="M14.2599 7.10466H11.5613V2.69022C11.5613 2.31331 11.2473 2 10.8711 2H8.17245C7.77479 2 7.46081 2.31398 7.46081 2.69022V7.10466H4.76221C4.40672 7.10466 4.28086 7.33495 4.55266 7.60676L9.03004 12.0627C9.1559 12.1886 9.32326 12.2508 9.51138 12.2508C9.6995 12.2508 9.88829 12.1879 10.0135 12.0627L14.4694 7.60676C14.7205 7.33495 14.6368 7.10466 14.2599 7.10466ZM2 10.2639V15.0338C2 15.2433 2.10444 15.3685 2.33473 15.3685H16.6445C16.8748 15.3685 17 15.2427 17 15.0338V10.2639C17 10.0543 16.8326 9.90837 16.6445 9.90837H15.2848C15.0967 9.90837 14.9293 10.0757 14.9293 10.2639V13.2972H4.05057V10.2639C4.05057 10.0543 3.90395 9.90837 3.71583 9.90837H2.33473C2.14661 9.90837 2 10.0757 2 10.2639Z" fill="url(#paint0_linear_108_53969)"/>
<path d="M11.0613 7.10466V7.60466H11.5613H13.7644L9.65992 11.7092C9.64983 11.7192 9.60045 11.7508 9.51138 11.7508C9.43779 11.7508 9.40362 11.7292 9.38359 11.7092L9.38274 11.7083L5.25937 7.60466H7.46081H7.96081V7.10466V2.69022C7.96081 2.60002 8.04093 2.5 8.17245 2.5H10.8711C10.9715 2.5 11.0613 2.58976 11.0613 2.69022V7.10466ZM14.9293 13.7972H15.4293V13.2972V10.4084H16.5V14.8685H2.5V10.4084H3.55057V13.2972V13.7972H4.05057H14.9293Z" stroke="#19C2EF" stroke-opacity="0.55"/>
<defs>
<linearGradient id="paint0_linear_108_53969" x1="9.5" y1="2" x2="9.5" y2="15.3685" gradientUnits="userSpaceOnUse">
<stop stop-color="#0974F8"/>
<stop offset="1" stop-color="#4FB2FE"/>
</linearGradient>
</defs>
</svg>
