<svg width="18" height="18" viewBox="0 0 18 18" fill="none" xmlns="http://www.w3.org/2000/svg">
<path d="M16.3125 3.375H13.5V2.8125C13.5 2.475 13.275 2.25 12.9375 2.25H5.0625C4.725 2.25 4.5 2.475 4.5 2.8125V3.375H1.6875C1.35 3.375 1.125 3.6 1.125 3.9375V5.45625C1.125 7.93125 3.0375 9.95625 5.5125 10.0687C5.9625 10.6875 6.58125 11.1375 7.3125 11.4187V12.9375H6.75C5.79375 12.9375 5.0625 13.6687 5.0625 14.625V16.3125C5.0625 16.65 5.2875 16.875 5.625 16.875H12.375C12.7125 16.875 12.9375 16.65 12.9375 16.3125V14.625C12.9375 13.6687 12.2063 12.9375 11.25 12.9375H10.6875V11.475C11.4187 11.1937 12.0375 10.6875 12.4875 10.125C14.9063 9.95625 16.875 7.9875 16.875 5.5125V3.9375C16.875 3.6 16.65 3.375 16.3125 3.375ZM2.25 5.45625V4.5H4.5V7.3125C4.5 7.875 4.6125 8.38125 4.78125 8.83125C3.31875 8.4375 2.25 7.0875 2.25 5.45625ZM15.75 5.45625C15.75 7.03125 14.6812 8.38125 13.2188 8.83125C13.3875 8.38125 13.5 7.875 13.5 7.3125V4.5H15.75V5.45625Z" fill="url(#paint0_linear_108_53975)"/>
<path d="M13 3.375V3.875H13.5H16.3125C16.3412 3.875 16.3571 3.87973 16.3633 3.8821C16.3647 3.88265 16.3658 3.88312 16.3665 3.88349C16.3669 3.88424 16.3674 3.8853 16.3679 3.88672C16.3703 3.89288 16.375 3.90877 16.375 3.9375V5.5125C16.375 7.70912 14.6255 9.47463 12.4527 9.62621L12.234 9.64147L12.0971 9.81265C11.6921 10.3188 11.1423 10.7644 10.508 11.0083L10.1875 11.1316V11.475V12.9375V13.4375H10.6875H11.25C11.9301 13.4375 12.4375 13.9449 12.4375 14.625V16.3125C12.4375 16.3412 12.4328 16.3571 12.4304 16.3633C12.4299 16.3647 12.4294 16.3658 12.429 16.3665C12.4283 16.3669 12.4272 16.3674 12.4258 16.3679C12.4196 16.3703 12.4037 16.375 12.375 16.375H5.625C5.59627 16.375 5.58038 16.3703 5.57422 16.3679C5.5728 16.3674 5.57174 16.3669 5.57099 16.3665C5.57062 16.3658 5.57015 16.3647 5.5696 16.3633C5.56723 16.3571 5.5625 16.3412 5.5625 16.3125V14.625C5.5625 13.9449 6.06989 13.4375 6.75 13.4375H7.3125H7.8125V12.9375V11.4187V11.0754L7.49199 10.9521C6.84092 10.7017 6.30422 10.3073 5.91687 9.77466L5.77543 9.58018L5.5352 9.56927C3.33034 9.46904 1.625 7.66705 1.625 5.45625V3.9375C1.625 3.90877 1.62973 3.89288 1.6321 3.88672C1.63265 3.8853 1.63312 3.88424 1.63349 3.88349C1.63424 3.88312 1.6353 3.88265 1.63672 3.8821C1.64288 3.87973 1.65877 3.875 1.6875 3.875H4.5H5V3.375V2.8125C5 2.78377 5.00473 2.76788 5.0071 2.76172C5.00765 2.7603 5.00812 2.75924 5.00849 2.75849C5.00924 2.75812 5.0103 2.75765 5.01172 2.7571C5.01788 2.75473 5.03377 2.75 5.0625 2.75H12.9375C12.9662 2.75 12.9821 2.75473 12.9883 2.7571C12.9897 2.75765 12.9908 2.75812 12.9915 2.75849C12.9919 2.75924 12.9924 2.7603 12.9929 2.76172C12.9953 2.76788 13 2.78377 13 2.8125V3.375ZM2.25 4H1.75V4.5V5.45625C1.75 7.3112 2.96817 8.86092 4.65126 9.31406L5.5912 9.56712L5.24941 8.65569C5.0986 8.25351 5 7.80676 5 7.3125V4.5V4H4.5H2.25ZM12.7506 8.65569L12.3933 9.60836L13.3658 9.30914C15.0261 8.79826 16.25 7.263 16.25 5.45625V4.5V4H15.75H13.5H13V4.5V7.3125C13 7.80676 12.9014 8.25351 12.7506 8.65569Z" stroke="#19C2EF" stroke-opacity="0.55"/>
<defs>
<linearGradient id="paint0_linear_108_53975" x1="9" y1="2.25" x2="9" y2="16.875" gradientUnits="userSpaceOnUse">
<stop stop-color="#0974F8"/>
<stop offset="1" stop-color="#4FB2FE"/>
</linearGradient>
</defs>
</svg>
