<svg width="18" height="18" viewBox="0 0 18 18" fill="none" xmlns="http://www.w3.org/2000/svg">
<path d="M1.63635 1.63635H3.27272V14.7273H16.3636V16.3636H1.63635V1.63635ZM4.90908 13.0909V6.54544H8.18181V13.0909H4.90908ZM8.99999 13.0909V3.27272H12.2727V13.0909H8.99999ZM13.0909 13.0909V8.99999H16.3636V13.0909H13.0909Z" fill="url(#paint0_linear_108_53981)"/>
<path d="M3.27272 15.2273H15.8636V15.8636H2.13635V2.13635H2.77272V14.7273V15.2273H3.27272ZM5.40908 12.5909V7.04544H7.68181V12.5909H5.40908ZM9.49999 12.5909V3.77272H11.7727V12.5909H9.49999ZM13.5909 12.5909V9.49999H15.8636V12.5909H13.5909Z" stroke="#19C2EF" stroke-opacity="0.55"/>
<defs>
<linearGradient id="paint0_linear_108_53981" x1="8.99999" y1="1.63635" x2="8.99999" y2="16.3636" gradientUnits="userSpaceOnUse">
<stop stop-color="#0974F8"/>
<stop offset="1" stop-color="#4FB2FE"/>
</linearGradient>
</defs>
</svg>
