<svg width="28" height="28" viewBox="0 0 28 28" fill="none" xmlns="http://www.w3.org/2000/svg">
<path d="M14 1.53125L12.25 8.53125C10.5 7.65625 8.75 5.90625 7 3.28125C7 5.90625 7 8.53125 8.75 10.2812C7 11.2109 5.25 10.2812 3.5 8.53125C3.5 10.2812 3.5 12.9062 6.125 14.6562C4.375 15.5312 2.625 14.6562 1.75 12.9062C1.75 15.5312 2.625 18.1562 4.375 19.9062C3.5 20.7812 1.75 19.9062 0.875 19.0312C0.875 22.5312 3.5 25.1562 7 26.9062H11.2L12.1133 23.1547L11.1727 18.4461L5.81875 18.7195C5.81875 18.7195 6.92891 14.607 7.72734 13.0484C8.00078 12.5234 8.12109 12.0641 8.82109 12.0477C9.43906 12.0477 9.93672 12.5836 9.93672 13.2453C9.93672 13.9016 9.43906 14.4375 8.82109 14.4375C8.69531 14.4375 8.56953 14.4102 8.46016 14.3664L8.18125 16.9258C9.8 16.4391 11.293 15.8977 12.775 15.2359C12.775 15.2305 12.7695 15.225 12.7695 15.2195C12.4305 14.7383 12.2008 14.0438 12.2008 13.2672C12.2008 12.4961 12.425 11.8016 12.7695 11.3148C13.1031 10.8281 13.5406 10.5656 14 10.5656C14.4648 10.5656 14.9023 10.8281 15.2359 11.3148C15.575 11.8016 15.7937 12.4961 15.7937 13.2672C15.7937 14.0438 15.575 14.7383 15.2359 15.2195C15.2305 15.2359 15.2086 15.2578 15.2031 15.2688C16.6961 15.9305 18.2711 16.3953 19.8133 16.9258L19.5398 14.3664C19.4195 14.4102 19.3047 14.4375 19.1734 14.4375C18.5609 14.4375 18.0633 13.9016 18.0633 13.2453C18.0633 12.5836 18.5609 12.0477 19.1734 12.0477C19.8734 12.0641 20.0047 12.5234 20.2672 13.0484C21.0766 14.607 22.1812 18.7195 22.1812 18.7195L16.8273 18.4461L15.8867 23.1547L16.8 26.9062H21C24.5 25.1562 27.125 22.5312 27.125 19.0312C26.25 19.9062 24.5 20.7812 23.625 19.9062C25.375 18.1562 26.25 15.5312 26.25 12.9062C25.375 14.6562 23.625 15.5312 21.875 14.6562C24.5 12.9062 24.5 10.2812 24.5 8.53125C22.75 10.2812 21 11.1562 19.25 10.2812C21 8.53125 21 5.90625 21 3.28125C19.25 5.90625 17.5 7.65625 15.75 8.53125L14 1.53125Z" fill="url(#paint0_linear_546_7337)"/>
<path d="M12.0264 8.97846L12.5839 9.25722L12.7351 8.65252L14 3.5928L15.2649 8.65252L15.4161 9.25722L15.9736 8.97846C17.5104 8.21005 19.0114 6.8279 20.4851 4.87393C20.4639 5.62137 20.4128 6.34067 20.2893 7.01993C20.082 8.16026 19.6767 9.14741 18.8964 9.9277L18.4059 10.4182L19.0264 10.7285C20.0392 11.2349 21.0602 11.2302 22.0506 10.8588C22.7094 10.6117 23.3516 10.2043 23.977 9.68717C23.8916 11.234 23.4894 12.979 21.5977 14.2402L21.3677 14.3936C21.1485 13.7863 20.9233 13.2278 20.7129 12.8218C20.694 12.784 20.6685 12.7309 20.6413 12.6744C20.6023 12.5933 20.5599 12.5051 20.5288 12.4445C20.4622 12.3148 20.3793 12.1694 20.2674 12.036C20.0166 11.7369 19.6702 11.5592 19.1852 11.5478L19.1852 11.5477H19.1734C18.25 11.5477 17.5633 12.3436 17.5633 13.2453C17.5633 14.1184 18.2141 14.8937 19.0978 14.9357L19.2331 16.202C19.0782 16.1504 18.9238 16.0992 18.7698 16.0482C17.7999 15.7268 16.8476 15.4112 15.9199 15.0307C16.1583 14.5229 16.2937 13.9133 16.2937 13.2672C16.2937 12.4082 16.0514 11.6115 15.6473 11.0306C15.2469 10.4473 14.671 10.0656 14 10.0656C13.3341 10.0656 12.7589 10.4476 12.3593 11.029C11.9496 11.6093 11.7008 12.4063 11.7008 13.2672C11.7008 13.9028 11.8376 14.4997 12.0689 14.9988C10.9954 15.4575 9.90797 15.8571 8.7608 16.2229L8.9011 14.9355C9.78648 14.8914 10.4367 14.1187 10.4367 13.2453C10.4367 12.3419 9.74847 11.5477 8.82109 11.5477V11.5475L8.80938 11.5478C8.32302 11.5592 7.97898 11.738 7.72979 12.0377C7.61936 12.1705 7.53727 12.3153 7.47117 12.443C7.43986 12.5034 7.40933 12.5657 7.38085 12.6237L7.37524 12.6352C7.34431 12.6982 7.31495 12.7578 7.28389 12.8175L7.28388 12.8175L7.28234 12.8205C7.07461 13.226 6.8508 13.7852 6.63231 14.3935L6.40235 14.2402C4.51209 12.9801 4.10908 11.2368 4.02322 9.6909C4.64695 10.2111 5.28815 10.6262 5.94624 10.8781C6.93917 11.2582 7.96667 11.2636 8.98458 10.7228L9.58153 10.4057L9.10355 9.9277C8.32327 9.14741 7.91802 8.16026 7.71068 7.01993C7.58718 6.34067 7.53607 5.62138 7.51493 4.87393C8.98862 6.8279 10.4896 8.21005 12.0264 8.97846ZM24.5876 15.2252C24.9652 15.0634 25.3147 14.8356 25.6288 14.5539C25.3419 16.4815 24.5478 18.2763 23.2714 19.5527L22.9179 19.9062L23.2714 20.2598C23.9119 20.9003 24.8138 20.8391 25.5331 20.5993C25.8759 20.4851 26.2151 20.3198 26.5288 20.1269C26.0543 22.785 23.8666 24.8905 20.8812 26.4062H17.1929L16.3987 23.144L17.2331 18.9675L22.1557 19.2189L22.8425 19.254L22.6641 18.5898L22.1812 18.7195L22.6641 18.5897L22.6641 18.5895L22.6639 18.5889L22.6632 18.5865L22.6608 18.5773L22.6511 18.5418L22.6143 18.4071C22.5822 18.2905 22.5355 18.1225 22.477 17.9162C22.3601 17.5038 22.1956 16.9371 22.0055 16.321C21.8829 15.9236 21.748 15.5001 21.607 15.0812L21.6514 15.1035C22.656 15.6058 23.6848 15.6121 24.5876 15.2252ZM6.34861 15.1035L6.39405 15.0807C6.2534 15.4997 6.11857 15.9233 5.99586 16.321C5.8058 16.937 5.64101 17.5035 5.52375 17.9158C5.4651 18.1221 5.41828 18.2901 5.38607 18.4066L5.34906 18.5413L5.33942 18.5767L5.33693 18.5859L5.33628 18.5883L5.3361 18.589L5.33605 18.5891L5.81875 18.7195L5.33603 18.5892L5.15657 19.254L5.84425 19.2189L10.7669 18.9675L11.6013 23.144L10.8071 26.4062H7.11884C4.13341 24.8905 1.94568 22.785 1.47124 20.1269C1.78489 20.3198 2.12408 20.4851 2.46689 20.5993C3.18623 20.8391 4.08809 20.9003 4.72855 20.2598L5.08211 19.9062L4.72855 19.5527C3.45216 18.2763 2.65811 16.4815 2.37119 14.5539C2.68528 14.8356 3.03485 15.0634 3.41242 15.2252C4.31516 15.6121 5.34395 15.6058 6.34861 15.1035ZM1.25 12.9062C1.25 15.3969 2.00771 17.9212 3.56291 19.7609L14.4851 1.40998H13.5149L11.923 7.77783C10.4573 6.88082 8.95138 5.30693 7.41603 3.0039L6.5 1.62986V3.28125V3.30631C6.49999 4.60112 6.49998 5.95123 6.72682 7.19882C6.91456 8.23142 7.26172 9.2204 7.90959 10.0762C7.38126 10.209 6.85156 10.1539 6.30376 9.94418C5.52439 9.64583 4.70828 9.03242 3.85355 8.1777L3 7.32414V8.53125L3 8.56358C2.9999 10.1313 2.99974 12.6105 5.07485 14.4748C4.62701 14.5398 4.19862 14.4742 3.80633 14.3061C3.16781 14.0324 2.59153 13.4713 2.19721 12.6826L1.25 12.9062Z" stroke="#19C2EF" stroke-opacity="0.55"/>
<defs>
<linearGradient id="paint0_linear_546_7337" x1="14" y1="1.53125" x2="14" y2="26.9062" gradientUnits="userSpaceOnUse">
<stop stop-color="#0974F8"/>
<stop offset="1" stop-color="#4FB2FE"/>
</linearGradient>
</defs>
</svg>
