<svg width="28" height="28" viewBox="0 0 28 28" fill="none" xmlns="http://www.w3.org/2000/svg">
<path d="M19.0181 5.6H15.26C14.91 5.6 14.5731 5.73125 14.315 5.9675L10.0144 9.905C10.01 9.90938 10.0056 9.91813 10.0013 9.9225C9.275 10.605 9.28813 11.6944 9.90938 12.3725C10.465 12.9806 11.6331 13.1425 12.3638 12.4906C12.3681 12.4863 12.3769 12.4863 12.3812 12.4819L15.8769 9.27938C16.1612 9.02125 16.6075 9.03875 16.8656 9.32313C17.1281 9.6075 17.1062 10.0494 16.8219 10.3119L15.68 11.3575L22.05 16.5287C22.1769 16.6337 22.2906 16.7475 22.3956 16.8656V8.4L20.0069 6.01125C19.7487 5.74875 19.39 5.6 19.0181 5.6ZM23.8 8.40875V18.2044C23.8 18.9788 24.4256 19.6044 25.2 19.6044H28V8.40875H23.8ZM25.9 18.2044C25.515 18.2044 25.2 17.8894 25.2 17.5044C25.2 17.1194 25.515 16.8044 25.9 16.8044C26.285 16.8044 26.6 17.1194 26.6 17.5044C26.6 17.8894 26.285 18.2044 25.9 18.2044ZM0 19.6H2.8C3.57437 19.6 4.2 18.9744 4.2 18.2V8.40875H0V19.6ZM2.1 16.8044C2.485 16.8044 2.8 17.1194 2.8 17.5044C2.8 17.8894 2.485 18.2044 2.1 18.2044C1.715 18.2044 1.4 17.8894 1.4 17.5044C1.4 17.115 1.715 16.8044 2.1 16.8044ZM21.1706 17.6181L14.6388 12.3156L13.3263 13.5188C12.0269 14.7044 10.0362 14.5906 8.87687 13.3263C7.7 12.04 7.79187 10.0494 9.06938 8.87688L12.6481 5.6H8.98188C8.61 5.6 8.25562 5.74875 7.99312 6.01125L5.6 8.4V18.1956H6.40063L10.36 21.7787C11.5588 22.7544 13.3219 22.5706 14.2975 21.3719L14.3062 21.3631L15.0894 22.0413C15.785 22.61 16.8131 22.5006 17.3775 21.805L18.7512 20.1163L18.9875 20.3088C19.5869 20.7944 20.4706 20.7069 20.9562 20.1031L21.3719 19.5912C21.8619 18.9875 21.77 18.1081 21.1706 17.6181Z" fill="url(#paint0_linear_546_7329)"/>
<path d="M21.8956 8.60711V15.7594L16.4452 11.3347L17.1595 10.6806L17.161 10.6793C17.6437 10.2337 17.6865 9.4769 17.2344 8.98552C16.7869 8.49421 16.0252 8.4695 15.5408 8.90914L15.5391 8.9107L12.0844 12.0757C12.067 12.0875 12.0481 12.102 12.0287 12.1195C11.7815 12.3389 11.449 12.4318 11.1095 12.4056C10.7633 12.3788 10.458 12.2317 10.2785 12.0352L10.2781 12.0347C9.832 11.5479 9.8271 10.7723 10.3437 10.2869L10.3493 10.2815L10.3548 10.276C10.3663 10.2645 10.3759 10.2539 10.3834 10.245L14.6526 6.33634C14.6526 6.33632 14.6526 6.3363 14.6526 6.33628C14.8188 6.18421 15.0353 6.1 15.26 6.1H19.0181C19.2581 6.1 19.4878 6.19647 19.6504 6.36182L19.6504 6.36183L19.6533 6.3648L21.8956 8.60711ZM12.2144 12.0119L12.2126 12.0125L12.2144 12.0119ZM10.4238 10.1911C10.4246 10.1899 10.4238 10.1911 10.4228 10.1927L10.4238 10.1911ZM20.5666 19.7897C20.2569 20.1748 19.6897 20.2339 19.3027 19.9206C19.3025 19.9205 19.3024 19.9204 19.3023 19.9203L19.0671 19.7286L18.6792 19.4125L18.3634 19.8007L16.9896 21.4895L16.9892 21.49C16.5995 21.9703 15.8906 22.046 15.4109 21.6582L14.6336 20.9851L14.2818 20.6805L13.9527 21.0096L13.9439 21.0183L13.9259 21.0364L13.9097 21.0563C13.1104 22.0383 11.669 22.1907 10.6853 21.3988L6.73612 17.8249L6.59328 17.6956H6.40063H6.1V8.60737L8.34635 6.36513L8.34668 6.3648C8.5166 6.19488 8.74428 6.1 8.98188 6.1H11.3617L8.73172 8.50811L8.73128 8.50851C7.25093 9.86719 7.14457 12.1736 8.50799 13.6638L8.50835 13.6642C9.85212 15.1296 12.1582 15.2614 13.6633 13.8881L13.6641 13.8873L14.6586 12.9757L20.8542 18.0052C20.8543 18.0054 20.8545 18.0055 20.8547 18.0057C21.2407 18.3217 21.2996 18.8869 20.9836 19.2762L20.5681 19.788L20.5666 19.7897ZM24.3 18.2044V8.90875H27.5V19.1044H25.2C24.7018 19.1044 24.3 18.7026 24.3 18.2044ZM24.7 17.5044C24.7 18.1655 25.2389 18.7044 25.9 18.7044C26.5611 18.7044 27.1 18.1655 27.1 17.5044C27.1 16.8432 26.5611 16.3044 25.9 16.3044C25.2389 16.3044 24.7 16.8432 24.7 17.5044ZM2.8 19.1H0.5V8.90875H3.7V18.2C3.7 18.6982 3.29823 19.1 2.8 19.1ZM3.3 17.5044C3.3 16.8432 2.76114 16.3044 2.1 16.3044C1.4409 16.3044 0.9 16.8368 0.9 17.5044C0.9 18.1655 1.43886 18.7044 2.1 18.7044C2.76114 18.7044 3.3 18.1655 3.3 17.5044Z" stroke="#19C2EF" stroke-opacity="0.55"/>
<defs>
<linearGradient id="paint0_linear_546_7329" x1="14" y1="5.6" x2="14" y2="22.4061" gradientUnits="userSpaceOnUse">
<stop stop-color="#0974F8"/>
<stop offset="1" stop-color="#4FB2FE"/>
</linearGradient>
</defs>
</svg>
