<svg width="28" height="28" viewBox="0 0 28 28" fill="none" xmlns="http://www.w3.org/2000/svg">
<path d="M25.4204 1.72668L26.1088 2.41501C27.0573 3.36468 26.9138 5.04818 25.7856 6.17518L11.5908 20.37L6.99177 22.0523C6.41427 22.2647 5.85194 21.9893 5.73761 21.4398C5.69897 21.2405 5.71716 21.0343 5.79011 20.8448L7.50511 16.2062L21.6603 2.04984C22.7884 0.922842 24.4719 0.777009 25.4204 1.72668ZM10.9713 3.13834C11.1245 3.13834 11.2762 3.16852 11.4177 3.22715C11.5593 3.28578 11.6879 3.37172 11.7962 3.48005C11.9046 3.58839 11.9905 3.717 12.0491 3.85855C12.1078 4.00009 12.1379 4.1518 12.1379 4.30501C12.1379 4.45822 12.1078 4.60993 12.0491 4.75147C11.9905 4.89302 11.9046 5.02163 11.7962 5.12997C11.6879 5.2383 11.5593 5.32424 11.4177 5.38287C11.2762 5.4415 11.1245 5.47168 10.9713 5.47168H6.30461C5.68577 5.47168 5.09227 5.71751 4.65469 6.15509C4.2171 6.59268 3.97127 7.18617 3.97127 7.80501V21.805C3.97127 22.4238 4.2171 23.0173 4.65469 23.4549C5.09227 23.8925 5.68577 24.1383 6.30461 24.1383H20.3046C20.9234 24.1383 21.5169 23.8925 21.9545 23.4549C22.3921 23.0173 22.6379 22.4238 22.6379 21.805V17.1383C22.6379 16.8289 22.7609 16.5322 22.9796 16.3134C23.1984 16.0946 23.4952 15.9717 23.8046 15.9717C24.114 15.9717 24.4108 16.0946 24.6296 16.3134C24.8484 16.5322 24.9713 16.8289 24.9713 17.1383V21.805C24.9713 23.0427 24.4796 24.2297 23.6044 25.1048C22.7293 25.98 21.5423 26.4717 20.3046 26.4717H6.30461C5.06693 26.4717 3.87994 25.98 3.00477 25.1048C2.1296 24.2297 1.63794 23.0427 1.63794 21.805V7.80501C1.63794 6.56733 2.1296 5.38035 3.00477 4.50518C3.87994 3.63001 5.06693 3.13834 6.30461 3.13834H10.9713Z" fill="url(#paint0_linear_546_7351)"/>
<path d="M25.0667 2.08001L25.0669 2.08023L25.755 2.76835C26.4542 3.46845 26.424 4.83065 25.4322 5.82144L25.432 5.82162L11.3153 19.9384L6.82 21.5828L6.81923 21.5831C6.47915 21.7081 6.27087 21.5395 6.22779 21.3411C6.20789 21.235 6.2179 21.1253 6.25672 21.0245L6.25676 21.0245L6.25908 21.0182L7.9361 16.4823L22.0136 2.40358C23.0066 1.41169 24.3684 1.38089 25.0667 2.08001ZM10.9713 3.63834C11.0588 3.63834 11.1455 3.65559 11.2264 3.68909C11.3073 3.72259 11.3808 3.7717 11.4427 3.83361C11.5046 3.89551 11.5537 3.969 11.5872 4.04989C11.6207 4.13077 11.6379 4.21746 11.6379 4.30501C11.6379 4.39256 11.6207 4.47925 11.5872 4.56013C11.5537 4.64101 11.5046 4.71451 11.4427 4.77641C11.3808 4.83832 11.3073 4.88743 11.2264 4.92093C11.1455 4.95443 11.0588 4.97168 10.9713 4.97168H6.30461C5.55316 4.97168 4.83249 5.27019 4.30114 5.80154C3.76978 6.33289 3.47127 7.05356 3.47127 7.80501V21.805C3.47127 22.5565 3.76978 23.2771 4.30114 23.8085C4.83249 24.3398 5.55316 24.6383 6.30461 24.6383H20.3046C21.056 24.6383 21.7767 24.3398 22.3081 23.8085C22.8394 23.2771 23.1379 22.5565 23.1379 21.805V17.1383C23.1379 16.9615 23.2082 16.792 23.3332 16.6669C23.4582 16.5419 23.6278 16.4717 23.8046 16.4717C23.9814 16.4717 24.151 16.5419 24.276 16.6669C24.401 16.792 24.4713 16.9615 24.4713 17.1383V21.805C24.4713 22.9101 24.0323 23.9699 23.2509 24.7513C22.4695 25.5327 21.4097 25.9717 20.3046 25.9717H6.30461C5.19954 25.9717 4.13973 25.5327 3.35833 24.7513C2.57693 23.9699 2.13794 22.9101 2.13794 21.805V7.80501C2.13794 6.69994 2.57693 5.64013 3.35833 4.85873C4.13973 4.07733 5.19954 3.63834 6.30461 3.63834H10.9713Z" stroke="#19C2EF" stroke-opacity="0.55"/>
<defs>
<linearGradient id="paint0_linear_546_7351" x1="14.1868" y1="1.10028" x2="14.1868" y2="26.4717" gradientUnits="userSpaceOnUse">
<stop stop-color="#0974F8"/>
<stop offset="1" stop-color="#4FB2FE"/>
</linearGradient>
</defs>
</svg>
