<svg width="28" height="28" viewBox="0 0 28 28" fill="none" xmlns="http://www.w3.org/2000/svg">
<path d="M21.9979 2H26.0717L17.1271 12.1845L27.5772 26H19.3765L12.9558 17.6044L5.60529 26H1.53149L11.0075 15.107L1.00012 2H9.40455L15.2053 9.66937L21.9979 2ZM20.5721 23.6089H22.8304L8.21783 4.30258H5.79127L20.5721 23.6089Z" fill="url(#paint0_linear_546_7309)"/>
<path d="M12.5797 17.2751L5.37849 25.5H2.62916L11.3847 15.4352L11.6523 15.1276L11.4049 14.8036L2.01096 2.5H9.15582L14.8065 9.97099L15.1748 10.4579L15.5796 10.0009L22.223 2.5H24.9671L16.7514 11.8546L16.4823 12.1609L16.7283 12.4861L26.5721 25.5H19.6236L13.353 17.3007L12.982 16.8155L12.5797 17.2751ZM20.1751 23.9128L20.3252 24.1089H20.5721H22.8304H23.8359L23.2291 23.3071L8.61651 4.00083L8.46646 3.80258H8.21783H5.79127H4.77876L5.39426 4.60653L20.1751 23.9128Z" stroke="#19C2EF" stroke-opacity="0.55"/>
<defs>
<linearGradient id="paint0_linear_546_7309" x1="14.2887" y1="2" x2="14.2887" y2="26" gradientUnits="userSpaceOnUse">
<stop stop-color="#0974F8"/>
<stop offset="1" stop-color="#4FB2FE"/>
</linearGradient>
</defs>
</svg>
