<svg width="28" height="28" viewBox="0 0 28 28" fill="none" xmlns="http://www.w3.org/2000/svg">
<path d="M23.1766 4.16719H4.82344C4.82344 4.16719 0 4.16719 0 8.99063V18.9984C0 18.9984 8.34465e-07 23.8219 4.82344 23.8219H23.1766C23.1766 23.8219 28 23.8219 28 18.9984V8.99063C28 8.99063 28 4.16719 23.1766 4.16719ZM10.2703 19.3813V8.60781L19.4359 14L10.2703 19.3813Z" fill="url(#paint0_linear_546_7315)"/>
<path d="M27.5 8.99106V8.99063L27.4999 8.98485C27.4998 8.9785 27.4996 8.96782 27.4991 8.95311C27.4981 8.92368 27.4961 8.87821 27.4918 8.81899C27.4834 8.70039 27.4662 8.5277 27.4314 8.31916C27.3615 7.89971 27.2226 7.34809 26.9499 6.80251C26.678 6.2589 26.2782 5.7305 25.6878 5.33688C25.1005 4.94535 24.2949 4.66719 23.1766 4.66719H4.8243H4.82344L27.5 8.99106ZM27.5 8.99106L27.5 8.9911L27.5 8.99139L27.5 8.99172L27.5 18.9984C27.5 20.1168 27.2218 20.9223 26.8303 21.5096C26.4367 22.1001 25.9083 22.4999 25.3647 22.7717C24.8191 23.0445 24.2675 23.1834 23.848 23.2533C23.6395 23.2881 23.4668 23.3053 23.3482 23.3137C23.289 23.318 23.2435 23.32 23.2141 23.321C23.1994 23.3215 23.1887 23.3217 23.1823 23.3218L23.1766 23.3219H23.1761L27.5 8.99106ZM9.77031 19.3813V20.2546L10.5235 19.8124L19.6891 14.4312L20.4227 14.0004L19.6895 13.569L10.5238 8.17686L9.77031 7.73355V8.60781V19.3813Z" stroke="#19C2EF" stroke-opacity="0.55"/>
<defs>
<linearGradient id="paint0_linear_546_7315" x1="14" y1="4.16719" x2="14" y2="23.8219" gradientUnits="userSpaceOnUse">
<stop stop-color="#0974F8"/>
<stop offset="1" stop-color="#4FB2FE"/>
</linearGradient>
</defs>
</svg>
