<svg width="28" height="28" viewBox="0 0 28 28" fill="none" xmlns="http://www.w3.org/2000/svg">
<path fill-rule="evenodd" clip-rule="evenodd" d="M5.79588 2H22.2314C22.8595 2 23.3829 2.1048 24.011 2.41921C24.7438 2.73362 25.1625 3.25764 25.3719 3.67686C25.3719 3.67686 25.3719 3.78166 25.4766 3.78166C25.7906 4.30568 26 4.9345 26 5.66812C26 6.29694 25.8953 6.92576 25.4766 7.55458L15.1128 25.3712C14.9034 25.7904 14.4847 26 13.9613 26C13.5425 26 13.1238 25.7904 12.8097 25.3712L2.65534 7.55458C2.44597 7.13537 2.02723 6.61135 2.02723 5.77293C1.92255 5.0393 2.13192 4.41048 2.44597 3.78166C2.76002 3.15284 3.28345 2.62882 4.01624 2.41921C4.64435 2 5.37714 2 5.79588 2ZM12.7051 4.51528H5.79588C5.37714 4.51528 5.16777 4.51528 5.06308 4.62009C4.85371 4.72489 4.74903 4.82969 4.64435 5.0393C4.53966 5.1441 4.53966 5.35371 4.53966 5.56332C4.53966 5.66812 4.64434 5.77293 4.85371 6.19214L12.7051 19.8166V4.51528ZM15.2175 4.51528V19.9214L23.1735 6.19214C23.2782 5.98253 23.2782 5.77293 23.2782 5.56332C23.2782 5.35371 23.2782 5.1441 23.1735 5.0393C23.0688 4.9345 23.0688 4.82969 22.9641 4.82969L22.8595 4.72489C22.6501 4.62009 22.4407 4.62009 22.1267 4.62009H15.2175V4.51528Z" fill="url(#paint0_linear_340_86686)"/>
<path d="M23.7872 2.86633L23.8003 2.87291L23.8138 2.87871C24.3867 3.12452 24.7209 3.52151 24.8961 3.8455C24.9053 3.87772 24.9185 3.91429 24.9377 3.95266C24.9719 4.02119 25.0294 4.10344 25.1225 4.17011C25.3526 4.59652 25.5 5.09417 25.5 5.66812C25.5 6.23522 25.4071 6.75683 25.0604 7.27745L25.052 7.29007L25.0444 7.30318L14.6806 25.1198L14.6726 25.1335L14.6655 25.1478C14.5618 25.3554 14.3474 25.5 13.9613 25.5C13.7253 25.5 13.4557 25.3867 13.2275 25.0944L3.09631 7.31853C3.03901 7.20478 2.97899 7.09863 2.92032 6.99486C2.71562 6.63282 2.52723 6.29962 2.52723 5.77293V5.73743L2.52222 5.70229C2.43836 5.11459 2.5986 4.5951 2.89328 4.00506C3.15841 3.47421 3.58263 3.06329 4.15374 2.89993L4.22884 2.87845L4.29381 2.83509C4.78111 2.50986 5.3673 2.5 5.79588 2.5H22.2314C22.7876 2.5 23.2336 2.5892 23.7872 2.86633ZM13.2051 4.51528V4.01528H12.7051H5.79588C5.7879 4.01528 5.77993 4.01528 5.77197 4.01528C5.58339 4.01525 5.40229 4.01522 5.25643 4.03145C5.12822 4.04571 4.94466 4.07926 4.78343 4.20197C4.66898 4.26369 4.56003 4.3376 4.4607 4.43704C4.36143 4.53642 4.28766 4.6454 4.22606 4.75986C4.11017 4.91199 4.07332 5.08232 4.05776 5.19138C4.03955 5.31899 4.03961 5.45476 4.03966 5.54996C4.03966 5.5545 4.03966 5.55896 4.03966 5.56332C4.03966 5.75914 4.13425 5.92204 4.1759 5.99378C4.17886 5.99888 4.18156 6.00352 4.18393 6.00768C4.19285 6.0233 4.20214 6.03943 4.21186 6.05629C4.26261 6.14433 4.32502 6.25261 4.4064 6.41554L4.41306 6.42888L4.4205 6.44179L12.2718 20.0662L13.2051 21.6857V19.8166V4.51528ZM14.7175 19.9214V21.7814L15.6501 20.1721L23.6061 6.44283L23.6139 6.42942L23.6208 6.41554C23.779 6.09893 23.7785 5.78617 23.7782 5.58736C23.7782 5.57915 23.7782 5.57113 23.7782 5.56332L23.7782 5.54997C23.7782 5.45477 23.7783 5.31899 23.7601 5.19137C23.742 5.06484 23.6953 4.8558 23.5297 4.68843C23.5292 4.68773 23.5285 4.68668 23.5275 4.6852C23.5246 4.68083 23.5213 4.67556 23.5143 4.66423L23.5128 4.66176C23.5069 4.65226 23.4963 4.63501 23.485 4.61806C23.4621 4.58373 23.4074 4.50423 23.3132 4.43824C23.2869 4.41979 23.2598 4.40389 23.232 4.39039L23.2132 4.37154L23.1559 4.31411L23.0833 4.27778C22.7662 4.11906 22.4481 4.11958 22.1705 4.12004C22.1558 4.12006 22.1412 4.12009 22.1267 4.12009H15.2175V4.51528H14.7175V4.62009V5.12009V19.9214Z" stroke="#19C2EF" stroke-opacity="0.55"/>
<defs>
<linearGradient id="paint0_linear_340_86686" x1="14" y1="2" x2="14" y2="26" gradientUnits="userSpaceOnUse">
<stop stop-color="#0974F8"/>
<stop offset="1" stop-color="#4FB2FE"/>
</linearGradient>
</defs>
</svg>
