<svg width="30" height="14" viewBox="0 0 30 14" fill="none" xmlns="http://www.w3.org/2000/svg">
<path d="M24.7165 7.04905L19.913 2.24555L22.2367 0L29.1489 6.93158L22.0611 14L19.8743 11.8326L24.7165 7.04905Z" fill="url(#paint0_linear_251_70371)"/>
<path d="M16.0751 7.04204L11.9578 2.92476L13.9495 1L19.8742 6.94136L13.799 13L11.9246 11.1422L16.0751 7.04204Z" fill="url(#paint1_linear_251_70371)"/>
<path d="M8.75854 7.03503L5.32747 3.60396L6.98722 2L11.9245 6.95113L6.86182 12L5.2998 10.4518L8.75854 7.03503Z" fill="url(#paint2_linear_251_70371)"/>
<path d="M2.76699 7.02803L0.0221359 4.28317L1.34994 3L5.29977 6.96091L1.24961 11L0 9.76146L2.76699 7.02803Z" fill="url(#paint3_linear_251_70371)"/>
<defs>
<linearGradient id="paint0_linear_251_70371" x1="29" y1="14" x2="0.999999" y2="14" gradientUnits="userSpaceOnUse">
<stop stop-color="#43CA3F"/>
<stop offset="1" stop-color="#43CA3F" stop-opacity="0.2"/>
</linearGradient>
<linearGradient id="paint1_linear_251_70371" x1="29" y1="14" x2="0.999999" y2="14" gradientUnits="userSpaceOnUse">
<stop stop-color="#43CA3F"/>
<stop offset="1" stop-color="#43CA3F" stop-opacity="0.2"/>
</linearGradient>
<linearGradient id="paint2_linear_251_70371" x1="29" y1="14" x2="0.999999" y2="14" gradientUnits="userSpaceOnUse">
<stop stop-color="#43CA3F"/>
<stop offset="1" stop-color="#43CA3F" stop-opacity="0.2"/>
</linearGradient>
<linearGradient id="paint3_linear_251_70371" x1="29" y1="14" x2="0.999999" y2="14" gradientUnits="userSpaceOnUse">
<stop stop-color="#43CA3F"/>
<stop offset="1" stop-color="#43CA3F" stop-opacity="0.2"/>
</linearGradient>
</defs>
</svg>
