<svg width="15" height="15" viewBox="0 0 15 15" fill="none" xmlns="http://www.w3.org/2000/svg">
<g clip-path="url(#clip0_251_70366)">
<path fill-rule="evenodd" clip-rule="evenodd" d="M7.16029 1.64699C7.16029 1.64699 7.16029 1.64699 7.16029 1.64699L3.18494 3.84176L5.34623 5.08273C5.88271 4.47152 6.6488 4.08807 7.49997 4.08807C8.35115 4.08807 9.11724 4.47152 9.65372 5.08273L11.815 3.84176L7.83965 1.64699C7.62679 1.52947 7.37316 1.52947 7.16029 1.64699ZM12.647 5.13688L10.3547 6.4531C10.4112 6.69448 10.4411 6.94668 10.4411 7.20576C10.4411 8.65852 9.50383 9.87916 8.23527 10.2252V12.912L12.262 10.5999C12.4992 10.4637 12.647 10.2007 12.647 9.91457V5.13688ZM12.6122 11.2853L12.9624 11.9706C13.6742 11.5619 14.1176 10.7727 14.1176 9.91457V3.82826C14.1176 3.53768 13.9651 3.27122 13.722 3.13698L8.51897 0.264425L8.17931 0.955706L8.51897 0.264423C7.88036 -0.088141 7.11958 -0.088141 6.48098 0.264423L6.48097 0.264425L1.27796 3.13698C1.03482 3.27122 0.882324 3.53768 0.882324 3.82826V9.91457C0.882324 10.7727 1.32577 11.5619 2.03756 11.9706L2.03758 11.9706L7.14976 14.9059C7.36824 15.0314 7.6317 15.0314 7.85018 14.9059L12.9624 11.9706L12.6122 11.2853ZM6.76468 12.912V10.2252C5.49611 9.87916 4.55879 8.65852 4.55879 7.20576C4.55879 6.94668 4.58875 6.69448 4.64526 6.4531L2.35291 5.13688V9.91457C2.35291 10.2006 2.50072 10.4637 2.73801 10.5999L6.76468 12.912ZM6.20622 6.46372C6.09362 6.68362 6.02938 6.93558 6.02938 7.20576C6.02938 8.06673 6.68775 8.76461 7.49997 8.76461C8.31219 8.76461 8.97056 8.06673 8.97056 7.20576C8.97056 6.93559 8.90632 6.6836 8.79372 6.46367C8.54371 5.97551 8.05747 5.64692 7.49997 5.64692C6.94245 5.64692 6.4562 5.97553 6.20622 6.46372Z" fill="url(#paint0_linear_251_70366)"/>
</g>
<defs>
<linearGradient id="paint0_linear_251_70366" x1="7.49997" y1="2.95455" x2="7.49997" y2="11.3636" gradientUnits="userSpaceOnUse">
<stop stop-color="#E1F0FF"/>
<stop offset="1" stop-color="#C9E9FB"/>
</linearGradient>
<clipPath id="clip0_251_70366">
<rect width="15" height="15" fill="white"/>
</clipPath>
</defs>
</svg>
