<svg width="18" height="18" viewBox="0 0 18 18" fill="none" xmlns="http://www.w3.org/2000/svg">
<path fill-rule="evenodd" clip-rule="evenodd" d="M16.5 9C16.5 13.1421 13.1421 16.5 9 16.5C4.85786 16.5 1.5 13.1421 1.5 9C1.5 4.85786 4.85786 1.5 9 1.5C13.1421 1.5 16.5 4.85786 16.5 9ZM11.25 6.75C11.25 7.99267 10.2427 9 9 9C7.75732 9 6.75 7.99267 6.75 6.75C6.75 5.50736 7.75732 4.5 9 4.5C10.2427 4.5 11.25 5.50736 11.25 6.75ZM9 15.375C10.338 15.375 11.5798 14.9628 12.6052 14.2584C13.0581 13.9473 13.2516 13.3546 12.9883 12.8724C12.4425 11.8727 11.3176 11.25 8.99992 11.25C6.68227 11.25 5.55748 11.8726 5.0116 12.8724C4.74829 13.3546 4.94182 13.9472 5.39472 14.2583C6.42013 14.9627 7.66192 15.375 9 15.375Z" fill="url(#paint0_linear_108_39469)"/>
<path d="M13.4272 12.6328L13.4272 12.6328C12.7532 11.3984 11.3967 10.75 8.99992 10.75C6.60321 10.75 5.24677 11.3984 4.57276 12.6328C4.16604 13.3777 4.48465 14.2398 5.11161 14.6705C6.21767 15.4303 7.55765 15.875 9 15.875C10.4422 15.875 11.7822 15.4303 12.8883 14.6705C13.5153 14.2398 13.8338 13.3777 13.4272 12.6328ZM16 9C16 12.866 12.866 16 9 16C5.13401 16 2 12.866 2 9C2 5.134 5.134 2 9 2C12.866 2 16 5.13401 16 9ZM9 9.5C10.5188 9.5 11.75 8.26882 11.75 6.75C11.75 5.23123 10.5188 4 9 4C7.48118 4 6.25 5.23123 6.25 6.75C6.25 8.26882 7.48118 9.5 9 9.5Z" stroke="#19C2EF" stroke-opacity="0.55"/>
<defs>
<linearGradient id="paint0_linear_108_39469" x1="9" y1="1.5" x2="9" y2="16.5" gradientUnits="userSpaceOnUse">
<stop stop-color="#0974F8"/>
<stop offset="1" stop-color="#4FB2FE"/>
</linearGradient>
</defs>
</svg>
