<svg width="213" height="80" viewBox="0 0 213 80" fill="none" xmlns="http://www.w3.org/2000/svg">
<g opacity="0.8" filter="url(#filter0_bd_93_23638)">
<path d="M67.9925 60H14C11.7909 60 10 58.2091 10 56V4C10 1.79086 11.7909 0 14 0H193.905C195.217 0 196.446 0.643339 197.193 1.72166L201.649 8.15204C203.488 10.8048 201.589 14.4304 198.361 14.4304H163.056C161.997 14.4304 160.982 14.8499 160.232 15.597L150.379 25.4156C149.63 26.1628 148.614 26.5823 147.556 26.5823H104.832C103.774 26.5823 102.758 27.0018 102.009 27.7489L70.8161 58.8333C70.0663 59.5805 69.051 60 67.9925 60Z" fill="url(#paint0_linear_93_23638)" shape-rendering="crispEdges"/>
<path d="M67.9925 59.5H14C12.067 59.5 10.5 57.933 10.5 56V4C10.5 2.067 12.067 0.5 14 0.5H193.905C195.053 0.5 196.128 1.06292 196.782 2.00645L201.238 8.43683C202.847 10.758 201.186 13.9304 198.361 13.9304H163.056C161.865 13.9304 160.723 14.4023 159.879 15.2429L150.026 25.0614C149.37 25.7152 148.482 26.0823 147.556 26.0823H104.832C103.641 26.0823 102.499 26.5542 101.656 27.3948L70.4631 58.4792C69.8071 59.1329 68.9187 59.5 67.9925 59.5Z" stroke="url(#paint1_linear_93_23638)" stroke-opacity="0.9" shape-rendering="crispEdges"/>
</g>
<defs>
<filter id="filter0_bd_93_23638" x="0" y="-5" width="212.368" height="85" filterUnits="userSpaceOnUse" color-interpolation-filters="sRGB">
<feFlood flood-opacity="0" result="BackgroundImageFix"/>
<feGaussianBlur in="BackgroundImageFix" stdDeviation="2.5"/>
<feComposite in2="SourceAlpha" operator="in" result="effect1_backgroundBlur_93_23638"/>
<feColorMatrix in="SourceAlpha" type="matrix" values="0 0 0 0 0 0 0 0 0 0 0 0 0 0 0 0 0 0 127 0" result="hardAlpha"/>
<feOffset dy="10"/>
<feGaussianBlur stdDeviation="5"/>
<feComposite in2="hardAlpha" operator="out"/>
<feColorMatrix type="matrix" values="0 0 0 0 0 0 0 0 0 0 0 0 0 0 0 0 0 0 0.1 0"/>
<feBlend mode="normal" in2="effect1_backgroundBlur_93_23638" result="effect2_dropShadow_93_23638"/>
<feBlend mode="normal" in="SourceGraphic" in2="effect2_dropShadow_93_23638" result="shape"/>
</filter>
<linearGradient id="paint0_linear_93_23638" x1="14.0093" y1="30" x2="246" y2="30" gradientUnits="userSpaceOnUse">
<stop stop-color="#076CE9" stop-opacity="0.6"/>
<stop offset="1" stop-color="#0E0B26" stop-opacity="0.51"/>
</linearGradient>
<linearGradient id="paint1_linear_93_23638" x1="153" y1="0" x2="153" y2="60" gradientUnits="userSpaceOnUse">
<stop stop-opacity="0"/>
<stop offset="0.399712" stop-color="#19C2EF" stop-opacity="0.33"/>
</linearGradient>
</defs>
</svg>
