<svg width="36" height="36" viewBox="0 0 36 36" fill="none" xmlns="http://www.w3.org/2000/svg">
<g clip-path="url(#clip0_547_12318)">
<rect width="32" height="32" transform="matrix(-1 0 0 1 34 2)" fill="#B24EFF" fill-opacity="0.3"/>
<g filter="url(#filter0_d_547_12318)">
<path d="M35 28L28 35M35 28V31L31 35H28M35 28V25M28 35H25M33.5 25L33.5 22" stroke="#C170FF" stroke-opacity="0.8" shape-rendering="crispEdges"/>
</g>
<g filter="url(#filter1_d_547_12318)">
<path d="M1 28L8 35M1 28V31L5 35H8M1 28V25M8 35H11M2.5 25L2.5 22" stroke="#C170FF" stroke-opacity="0.8" shape-rendering="crispEdges"/>
</g>
<g filter="url(#filter2_d_547_12318)">
<path d="M35 8L28 1M35 8V5L31 1H28M35 8V11M28 1H25M33.5 11L33.5 14" stroke="#C170FF" stroke-opacity="0.8" shape-rendering="crispEdges"/>
</g>
<g filter="url(#filter3_d_547_12318)">
<path d="M1 8L8 1M1 8V5L5 1H8M1 8V11M8 1H11M2.5 11L2.5 14" stroke="#C170FF" stroke-opacity="0.8" shape-rendering="crispEdges"/>
</g>
<path d="M30.4303 16.3874L27.6992 15.7433C27.4489 14.6636 27.0244 13.651 26.4546 12.7374L27.93 10.3511C28.1103 10.0585 28.0663 9.68163 27.8235 9.43884L26.5611 8.17642C26.3187 7.93409 25.9414 7.89001 25.6492 8.07039L23.263 9.54578C22.3493 8.97607 21.3373 8.55108 20.2575 8.30078L19.613 5.56977C19.5342 5.23608 19.2357 5 18.8931 5H17.1074C16.7643 5 16.4664 5.23608 16.3875 5.56971L15.7429 8.30078C14.6632 8.55113 13.651 8.97566 12.7379 9.54538L10.3512 8.07003C10.0594 7.89006 9.68122 7.93419 9.43935 8.17606L8.17652 9.43889C7.93373 9.68163 7.89006 10.059 8.07049 10.3507L9.54538 12.7374C8.97561 13.6511 8.55108 14.6631 8.30078 15.7429L5.57017 16.387C5.23649 16.4663 5 16.7648 5 17.1069V18.8926C5 19.2361 5.23608 19.5336 5.57017 19.6125L8.30078 20.2571C8.55113 21.3369 8.97612 22.349 9.54584 23.2626L8.07049 25.6488C7.89052 25.9406 7.93419 26.3192 8.17611 26.5611L9.43894 27.8235C9.68173 28.0667 10.059 28.1099 10.3512 27.9295L12.738 26.4546C13.6511 27.0244 14.6632 27.4489 15.743 27.6992L16.3875 30.4302C16.4664 30.7644 16.7643 31 17.1074 31H18.8931C19.2357 31 19.5342 30.7644 19.613 30.4302L20.2575 27.6992C21.3368 27.4488 22.3493 27.0244 23.2626 26.4546L25.6493 27.93C25.9415 28.1103 26.3188 28.0663 26.5611 27.8235L27.824 26.5611C28.0663 26.3188 28.1104 25.9411 27.93 25.6493L26.4547 23.2626C27.0244 22.3494 27.4489 21.3369 27.6993 20.2575L30.4303 19.613C30.7649 19.5337 31 19.2357 31 18.8927V17.1073C31 16.7643 30.7644 16.4663 30.4303 16.3874ZM18 24.8359C14.2252 24.8359 11.1645 21.7752 11.1645 18C11.1645 14.2248 14.2252 11.1641 18 11.1641C21.776 11.1641 24.8363 14.2248 24.8363 18C24.8363 21.7752 21.776 24.8359 18 24.8359Z" fill="url(#paint0_linear_547_12318)"/>
<path d="M27.2823 16.1587L27.2121 15.8563C26.9744 14.8308 26.5713 13.8694 26.0304 13.002L25.8661 12.7386L26.0293 12.4745L27.5043 10.0888C27.5043 10.0888 27.5043 10.0888 27.5043 10.0887C27.5633 9.99307 27.5487 9.87119 27.47 9.79243L27.4699 9.79239L26.2075 8.52997C26.1292 8.4517 26.007 8.43712 25.9119 8.49585L23.5259 9.97106L23.2619 10.1343L22.9984 9.97006C22.1308 9.42903 21.1699 9.02553 20.1446 8.78787L19.8422 8.71776L19.7709 8.41563L19.1264 5.6847C19.1263 5.68467 19.1263 5.68465 19.1263 5.68462C19.1008 5.5766 19.0038 5.5 18.8931 5.5H17.1074C16.9965 5.5 16.8998 5.57639 16.8741 5.68457L27.2823 16.1587ZM27.2823 16.1587L27.5844 16.23L30.3154 16.8741C30.3154 16.8741 30.3155 16.8741 30.3155 16.8741C30.4237 16.8997 30.5 16.9961 30.5 17.1073C30.5 17.1073 30.5 17.1073 30.5 17.1073V18.8927C30.5 19.004 30.4242 19.1004 30.3155 19.1263C30.3153 19.1264 30.3152 19.1264 30.3151 19.1264L27.5844 19.7709L27.2823 19.8422L27.2122 20.1446C26.9744 21.1696 26.5714 22.1309 26.0305 22.9979L25.8661 23.2613L26.0294 23.5255L27.5047 25.9122L27.93 25.6493L27.5047 25.9122C27.5631 26.0067 27.5488 26.1292 27.4704 26.2076L26.2076 27.4699L26.2073 27.4703C26.129 27.5486 26.007 27.5632 25.9119 27.5045L23.5255 26.0293L23.2613 25.8661L22.9979 26.0304C22.1309 26.5713 21.1696 26.9743 20.1446 27.2121L19.8422 27.2822L19.7709 27.5843L19.1263 30.3154L19.1263 30.3155C19.1008 30.4235 19.0041 30.5 18.8931 30.5H17.1074C16.9961 30.5 16.8997 30.4237 16.8741 30.3154L16.2296 27.5843L16.1583 27.2822L15.8559 27.2121C14.8305 26.9744 13.8696 26.5714 13.0027 26.0304L12.7393 25.8661L12.4752 26.0293L10.0886 27.5041C9.99269 27.5633 9.87086 27.5485 9.79279 27.4703L9.79244 27.4699L8.52963 26.2075C8.52962 26.2075 8.52962 26.2075 8.52961 26.2075C8.45239 26.1303 8.43718 26.0069 8.49598 25.9114C8.496 25.9114 8.49603 25.9113 8.49605 25.9113L9.97112 23.5255L10.1344 23.2614L9.9701 22.998C9.42909 22.1304 9.02558 21.1695 8.78786 20.1441L8.71776 19.8418L8.41566 19.7704L5.68505 19.1258L5.68497 19.1258C5.57614 19.1001 5.5 19.0037 5.5 18.8926V17.1069C5.5 16.9975 5.57632 16.8996 5.68555 16.8735C5.68563 16.8735 5.68572 16.8735 5.68581 16.8734L8.41557 16.2295L8.71775 16.1582L8.78787 15.8558C9.02556 14.8304 9.42864 13.8695 9.96964 13.002L10.1339 12.7386L9.97072 12.4746L8.49583 10.0879L8.49573 10.0877C8.43723 9.99312 8.45142 9.87108 8.53004 9.79248L8.53007 9.79244L9.7929 8.52962C9.87057 8.45194 9.99361 8.4371 10.0884 8.49542C10.0885 8.49547 10.0886 8.49552 10.0887 8.49558L12.475 9.97069L12.7392 10.134L13.0026 9.96958C13.8695 9.4287 14.8304 9.02561 15.8559 8.78786L16.1583 8.71775L16.2296 8.41563L16.8741 5.68473L27.2823 16.1587ZM10.6645 18C10.6645 22.0513 13.9491 25.3359 18 25.3359C22.0522 25.3359 25.3363 22.0513 25.3363 18C25.3363 13.9486 22.0522 10.6641 18 10.6641C13.9491 10.6641 10.6645 13.9487 10.6645 18Z" stroke="#CF91FF" stroke-opacity="0.55"/>
<path d="M18 13.6675C15.6075 13.6675 13.6675 15.6071 13.6675 18C13.6675 20.3929 15.6075 22.3324 18 22.3324C20.393 22.3324 22.3325 20.393 22.3325 18C22.3325 15.607 20.393 13.6675 18 13.6675ZM18 20.1256C16.8262 20.1256 15.8743 19.1737 15.8743 18C15.8743 16.8262 16.8262 15.8743 18 15.8743C19.1738 15.8743 20.1257 16.8262 20.1257 18C20.1257 19.1738 19.1738 20.1256 18 20.1256Z" fill="url(#paint1_linear_547_12318)"/>
<path d="M14.1675 18C14.1675 15.8833 15.8836 14.1675 18 14.1675C20.1168 14.1675 21.8325 15.8832 21.8325 18C21.8325 20.1168 20.1168 21.8324 18 21.8324C15.8836 21.8324 14.1675 20.1167 14.1675 18ZM15.3743 18C15.3743 19.4499 16.5501 20.6256 18 20.6256C19.4499 20.6256 20.6257 19.4499 20.6257 18C20.6257 16.5501 19.4499 15.3743 18 15.3743C16.5501 15.3743 15.3743 16.5501 15.3743 18Z" stroke="#CF91FF" stroke-opacity="0.55"/>
</g>
<defs>
<filter id="filter0_d_547_12318" x="20" y="17" width="20.5" height="23.5" filterUnits="userSpaceOnUse" color-interpolation-filters="sRGB">
<feFlood flood-opacity="0" result="BackgroundImageFix"/>
<feColorMatrix in="SourceAlpha" type="matrix" values="0 0 0 0 0 0 0 0 0 0 0 0 0 0 0 0 0 0 127 0" result="hardAlpha"/>
<feOffset/>
<feGaussianBlur stdDeviation="2.5"/>
<feComposite in2="hardAlpha" operator="out"/>
<feColorMatrix type="matrix" values="0 0 0 0 0.0980392 0 0 0 0 0.760784 0 0 0 0 0.937255 0 0 0 0.55 0"/>
<feBlend mode="normal" in2="BackgroundImageFix" result="effect1_dropShadow_547_12318"/>
<feBlend mode="normal" in="SourceGraphic" in2="effect1_dropShadow_547_12318" result="shape"/>
</filter>
<filter id="filter1_d_547_12318" x="-4.5" y="17" width="20.5" height="23.5" filterUnits="userSpaceOnUse" color-interpolation-filters="sRGB">
<feFlood flood-opacity="0" result="BackgroundImageFix"/>
<feColorMatrix in="SourceAlpha" type="matrix" values="0 0 0 0 0 0 0 0 0 0 0 0 0 0 0 0 0 0 127 0" result="hardAlpha"/>
<feOffset/>
<feGaussianBlur stdDeviation="2.5"/>
<feComposite in2="hardAlpha" operator="out"/>
<feColorMatrix type="matrix" values="0 0 0 0 0.0980392 0 0 0 0 0.760784 0 0 0 0 0.937255 0 0 0 0.55 0"/>
<feBlend mode="normal" in2="BackgroundImageFix" result="effect1_dropShadow_547_12318"/>
<feBlend mode="normal" in="SourceGraphic" in2="effect1_dropShadow_547_12318" result="shape"/>
</filter>
<filter id="filter2_d_547_12318" x="20" y="-4.5" width="20.5" height="23.5" filterUnits="userSpaceOnUse" color-interpolation-filters="sRGB">
<feFlood flood-opacity="0" result="BackgroundImageFix"/>
<feColorMatrix in="SourceAlpha" type="matrix" values="0 0 0 0 0 0 0 0 0 0 0 0 0 0 0 0 0 0 127 0" result="hardAlpha"/>
<feOffset/>
<feGaussianBlur stdDeviation="2.5"/>
<feComposite in2="hardAlpha" operator="out"/>
<feColorMatrix type="matrix" values="0 0 0 0 0.0980392 0 0 0 0 0.760784 0 0 0 0 0.937255 0 0 0 0.55 0"/>
<feBlend mode="normal" in2="BackgroundImageFix" result="effect1_dropShadow_547_12318"/>
<feBlend mode="normal" in="SourceGraphic" in2="effect1_dropShadow_547_12318" result="shape"/>
</filter>
<filter id="filter3_d_547_12318" x="-4.5" y="-4.5" width="20.5" height="23.5" filterUnits="userSpaceOnUse" color-interpolation-filters="sRGB">
<feFlood flood-opacity="0" result="BackgroundImageFix"/>
<feColorMatrix in="SourceAlpha" type="matrix" values="0 0 0 0 0 0 0 0 0 0 0 0 0 0 0 0 0 0 127 0" result="hardAlpha"/>
<feOffset/>
<feGaussianBlur stdDeviation="2.5"/>
<feComposite in2="hardAlpha" operator="out"/>
<feColorMatrix type="matrix" values="0 0 0 0 0.0980392 0 0 0 0 0.760784 0 0 0 0 0.937255 0 0 0 0.55 0"/>
<feBlend mode="normal" in2="BackgroundImageFix" result="effect1_dropShadow_547_12318"/>
<feBlend mode="normal" in="SourceGraphic" in2="effect1_dropShadow_547_12318" result="shape"/>
</filter>
<linearGradient id="paint0_linear_547_12318" x1="18" y1="5" x2="18" y2="31" gradientUnits="userSpaceOnUse">
<stop stop-color="#7E27FF"/>
<stop offset="1" stop-color="#C170FF"/>
</linearGradient>
<linearGradient id="paint1_linear_547_12318" x1="18" y1="13.6675" x2="18" y2="22.3324" gradientUnits="userSpaceOnUse">
<stop stop-color="#7E27FF"/>
<stop offset="1" stop-color="#C170FF"/>
</linearGradient>
<clipPath id="clip0_547_12318">
<rect width="36" height="36" fill="white" transform="matrix(-1 0 0 1 36 0)"/>
</clipPath>
</defs>
</svg>
