<svg width="10" height="10" viewBox="0 0 10 10" fill="none" xmlns="http://www.w3.org/2000/svg">
<g clip-path="url(#clip0_329_3097)">
<path d="M4.99984 0C6.11384 0 7.14541 0.214905 7.91651 0.583669C8.30131 0.767705 8.64297 1.00044 8.89517 1.28557C9.12838 1.54926 9.30208 1.87937 9.32941 2.2626L9.33317 2.36842V7.63158C9.33317 8.06005 9.14958 8.42679 8.89517 8.71442C8.64297 8.99958 8.30131 9.23232 7.91651 9.41632C7.14541 9.78511 6.11384 10 4.99984 10C3.88583 10 2.85426 9.78511 2.08318 9.41632C1.69835 9.23232 1.3567 8.99958 1.10452 8.71442C0.871308 8.45076 0.697596 8.12063 0.670264 7.7374L0.666504 7.63158V2.36842C0.666504 1.93994 0.850107 1.57323 1.10452 1.28557C1.3567 1.00044 1.69835 0.767705 2.08318 0.583669C2.85426 0.214905 3.88583 0 4.99984 0ZM8.37021 6.53005C8.2286 6.62353 8.07626 6.70832 7.91651 6.78474C7.14541 7.15353 6.11384 7.36842 4.99984 7.36842C3.88583 7.36842 2.85426 7.15353 2.08318 6.78474C1.92339 6.70832 1.77105 6.62353 1.62947 6.53005V7.63158C1.62947 7.71179 1.66143 7.82968 1.79684 7.98279C1.9345 8.13842 2.15693 8.30263 2.46915 8.45195C3.09216 8.7499 3.98653 8.94737 4.99984 8.94737C6.01316 8.94737 6.90752 8.7499 7.5305 8.45195C7.84275 8.30263 8.06519 8.13842 8.20284 7.98279C8.33824 7.82968 8.37021 7.71179 8.37021 7.63158V6.53005ZM8.37021 3.89847C8.2286 3.99195 8.07626 4.07674 7.91651 4.15316C7.14541 4.52195 6.11384 4.73684 4.99984 4.73684C3.88583 4.73684 2.85426 4.52195 2.08318 4.15316C1.92339 4.07674 1.77105 3.99195 1.62947 3.89847V5C1.62947 5.08021 1.66143 5.19811 1.79684 5.35121C1.9345 5.50684 2.15693 5.67105 2.46915 5.82037C3.09216 6.11832 3.98653 6.31579 4.99984 6.31579C6.01316 6.31579 6.90752 6.11832 7.5305 5.82037C7.84275 5.67105 8.06519 5.50684 8.20284 5.35121C8.33824 5.19811 8.37021 5.08021 8.37021 5V3.89847ZM4.99984 1.05263C3.98653 1.05263 3.09216 1.25009 2.46915 1.54804C2.15693 1.69736 1.9345 1.86157 1.79684 2.01721C1.66143 2.17033 1.62947 2.28822 1.62947 2.36842C1.62947 2.44862 1.66143 2.56652 1.79684 2.71963C1.9345 2.87527 2.15693 3.03948 2.46915 3.1888C3.09216 3.48675 3.98653 3.68421 4.99984 3.68421C6.01316 3.68421 6.90752 3.48675 7.5305 3.1888C7.84275 3.03948 8.06519 2.87527 8.20284 2.71963C8.33824 2.56652 8.37021 2.44862 8.37021 2.36842C8.37021 2.28822 8.33824 2.17033 8.20284 2.01721C8.06519 1.86157 7.84275 1.69736 7.5305 1.54804C6.90752 1.25009 6.01316 1.05263 4.99984 1.05263Z" fill="white"/>
</g>
<defs>
<clipPath id="clip0_329_3097">
<rect width="10" height="10" fill="white"/>
</clipPath>
</defs>
</svg>
