<svg width="16" height="16" viewBox="0 0 16 16" fill="none" xmlns="http://www.w3.org/2000/svg">
<g clip-path="url(#clip0_262_3142)">
<g filter="url(#filter0_dd_262_3142)">
<path d="M3.69071 1.40913C3.583 1.46571 3.4928 1.55063 3.42982 1.65473C3.36685 1.75882 3.3335 1.87814 3.33337 1.9998L3.33337 13.9998C3.33388 14.1212 3.36747 14.2402 3.43055 14.344C3.49363 14.4478 3.5838 14.5324 3.69137 14.5888C3.79894 14.6451 3.91984 14.6711 4.04106 14.6639C4.16229 14.6566 4.27925 14.6165 4.37937 14.5478L13.046 8.5478C13.1349 8.48664 13.2075 8.4048 13.2577 8.30934C13.3078 8.21387 13.3341 8.10764 13.3341 7.9998C13.3341 7.89195 13.3078 7.78572 13.2577 7.69026C13.2075 7.59479 13.1349 7.51296 13.046 7.4518L4.37937 1.4518C4.27945 1.38241 4.16242 1.34174 4.041 1.33422C3.91958 1.32669 3.79843 1.35261 3.69071 1.40913ZM11.4954 7.9998L4.66671 12.7278L4.66671 3.2718L11.4954 7.9998Z" fill="url(#paint0_linear_262_3142)"/>
</g>
</g>
<defs>
<filter id="filter0_dd_262_3142" x="-6.66663" y="-8.66699" width="30.0007" height="33.332" filterUnits="userSpaceOnUse" color-interpolation-filters="sRGB">
<feFlood flood-opacity="0" result="BackgroundImageFix"/>
<feColorMatrix in="SourceAlpha" type="matrix" values="0 0 0 0 0 0 0 0 0 0 0 0 0 0 0 0 0 0 127 0" result="hardAlpha"/>
<feOffset dx="2" dy="2"/>
<feComposite in2="hardAlpha" operator="out"/>
<feColorMatrix type="matrix" values="0 0 0 0 0.0352941 0 0 0 0 0.454902 0 0 0 0 0.972549 0 0 0 0.3 0"/>
<feBlend mode="normal" in2="BackgroundImageFix" result="effect1_dropShadow_262_3142"/>
<feColorMatrix in="SourceAlpha" type="matrix" values="0 0 0 0 0 0 0 0 0 0 0 0 0 0 0 0 0 0 127 0" result="hardAlpha"/>
<feOffset/>
<feGaussianBlur stdDeviation="5"/>
<feComposite in2="hardAlpha" operator="out"/>
<feColorMatrix type="matrix" values="0 0 0 0 0.0980392 0 0 0 0 0.760784 0 0 0 0 0.937255 0 0 0 0.5 0"/>
<feBlend mode="normal" in2="effect1_dropShadow_262_3142" result="effect2_dropShadow_262_3142"/>
<feBlend mode="normal" in="SourceGraphic" in2="effect2_dropShadow_262_3142" result="shape"/>
</filter>
<linearGradient id="paint0_linear_262_3142" x1="5.30321" y1="7.99899" x2="10.9097" y2="7.99899" gradientUnits="userSpaceOnUse">
<stop stop-color="#E1F0FF"/>
<stop offset="1" stop-color="#C9E9FB"/>
</linearGradient>
<clipPath id="clip0_262_3142">
<rect width="16" height="16" fill="white" transform="translate(0 16) rotate(-90)"/>
</clipPath>
</defs>
</svg>
