<svg width="10" height="10" viewBox="0 0 10 10" fill="none" xmlns="http://www.w3.org/2000/svg">
<g clip-path="url(#clip0_329_3113)">
<path fill-rule="evenodd" clip-rule="evenodd" d="M4.77369 1.09799C4.77369 1.09799 4.77369 1.09799 4.77369 1.09799L2.12345 2.56117L3.56432 3.38849C3.92197 2.98101 4.4327 2.72538 5.00014 2.72538C5.5676 2.72538 6.07832 2.98101 6.43598 3.38849L7.87684 2.56118L5.2266 1.09799C5.08469 1.01964 4.9156 1.01964 4.77369 1.09799ZM8.43152 3.42459L6.90329 4.30207C6.94096 4.46299 6.96093 4.63112 6.96093 4.80384C6.96093 5.77235 6.33605 6.5861 5.49034 6.81683V8.60798L8.17481 7.06662C8.33298 6.9758 8.43152 6.80044 8.43152 6.60972V3.42459ZM8.40828 7.52351L8.64176 7.9804C9.11632 7.70791 9.41191 7.18179 9.41191 6.60972V2.55218C9.41191 2.35845 9.31024 2.18081 9.14815 2.09132L5.67948 0.176283L5.45304 0.637137L5.67947 0.176282C5.25374 -0.0587606 4.74655 -0.0587606 4.32081 0.176282L4.32081 0.176283L0.852136 2.09132C0.690046 2.18081 0.588379 2.35845 0.588379 2.55218V6.60972C0.588379 7.18181 0.884006 7.70792 1.35854 7.9804L1.35855 7.9804L4.76667 9.93728C4.91232 10.0209 5.08797 10.0209 5.23362 9.93728L8.64175 7.9804L8.40828 7.52351ZM4.50995 8.60797V6.81683C3.66424 6.5861 3.03936 5.77235 3.03936 4.80384C3.03936 4.63112 3.05933 4.46299 3.097 4.30206L1.56877 3.42459V6.60972C1.56877 6.80041 1.66731 6.97579 1.8255 7.06662L4.50995 8.60797ZM4.13764 4.30914C4.06257 4.45574 4.01975 4.62372 4.01975 4.80384C4.01975 5.37782 4.45867 5.84307 5.00014 5.84307C5.54162 5.84307 5.98054 5.37782 5.98054 4.80384C5.98054 4.62373 5.93771 4.45574 5.86264 4.30911C5.69597 3.98367 5.37181 3.76461 5.00014 3.76461C4.62846 3.76461 4.3043 3.98369 4.13764 4.30914Z" fill="white"/>
</g>
<defs>
<clipPath id="clip0_329_3113">
<rect width="10" height="10" fill="white"/>
</clipPath>
</defs>
</svg>
