<svg width="9" height="6" viewBox="0 0 9 6" fill="none" xmlns="http://www.w3.org/2000/svg">
<path fill-rule="evenodd" clip-rule="evenodd" d="M4.98093 0.324968C4.81259 0.145515 4.72842 0.0557931 4.63133 0.022179C4.54597 -0.007393 4.45398 -0.007393 4.36862 0.022179C4.27167 0.0557731 4.18754 0.145408 4.01932 0.324648L0.559917 4.0123C0.195719 4.40052 0.0136155 4.59465 0.00131318 4.76131C-0.00936528 4.90591 0.0455488 5.04722 0.149018 5.14143C0.268266 5.25 0.525798 5.25 1.04086 5.25H7.95916C8.47421 5.25 8.73174 5.25 8.85093 5.14143C8.95449 5.04722 9.00932 4.90591 8.9987 4.76131C8.98637 4.59465 8.80426 4.40053 8.44003 4.0123L4.98093 0.324968ZM6.52231 3.89058L4.49997 1.7348L2.47764 3.89058H6.52231Z" fill="#19C2EF"/>
</svg>
