<svg width="10" height="10" viewBox="0 0 10 10" fill="none" xmlns="http://www.w3.org/2000/svg">
<g clip-path="url(#clip0_262_3085)">
<path fill-rule="evenodd" clip-rule="evenodd" d="M1.58162 0H8.42973C8.69144 0 8.90953 0.0436679 9.17125 0.174672C9.47658 0.305677 9.65105 0.524018 9.73829 0.69869C9.73829 0.69869 9.73829 0.742358 9.78191 0.742358C9.91276 0.960699 10 1.22271 10 1.52838C10 1.79039 9.95638 2.0524 9.78191 2.31441L5.46367 9.73799C5.37643 9.91266 5.20196 10 4.98386 10C4.80939 10 4.63492 9.91266 4.50406 9.73799L0.273058 2.31441C0.185821 2.13974 0.0113465 1.9214 0.0113465 1.57205C-0.0322721 1.26638 0.0549649 1.00437 0.185821 0.742358C0.316676 0.48035 0.534769 0.262009 0.840099 0.174672C1.10181 -1.69183e-07 1.40714 0 1.58162 0ZM4.46044 1.04803H1.58162C1.40714 1.04803 1.3199 1.04803 1.27628 1.0917C1.18905 1.13537 1.14543 1.17904 1.10181 1.26638C1.05819 1.31004 1.05819 1.39738 1.05819 1.48472C1.05819 1.52838 1.10181 1.57205 1.18905 1.74672L4.46044 7.42358V1.04803ZM5.50729 1.04803V7.46725L8.8223 1.74672C8.86592 1.65939 8.86592 1.57205 8.86592 1.48472C8.86592 1.39738 8.86592 1.31004 8.8223 1.26638C8.77868 1.22271 8.77868 1.17904 8.73506 1.17904L8.69144 1.13537C8.60421 1.0917 8.51697 1.0917 8.38611 1.0917H5.50729V1.04803Z" fill="white"/>
</g>
<defs>
<clipPath id="clip0_262_3085">
<rect width="10" height="10" fill="white"/>
</clipPath>
</defs>
</svg>
