<svg width="28" height="28" viewBox="0 0 28 28" fill="none" xmlns="http://www.w3.org/2000/svg">
<path d="M10.9927 0.875C10.1728 0.875 9.89893 1.05962 9.89893 1.96875V2.78863H7.43755C5.82143 2.78863 5.52393 3.087 5.52393 4.70225V25.2105C5.52393 26.8266 5.8223 27.1241 7.43755 27.1241H20.5625C22.1787 27.1241 22.4762 26.8258 22.4762 25.2105V4.70225C22.4762 3.08613 22.1778 2.78863 20.5625 2.78863H18.1012V1.96875C18.1012 1.0605 17.8282 0.875 17.0074 0.875H10.9927ZM7.43755 6.61763C7.43755 4.43013 7.16455 4.704 9.35118 4.704C10.4449 4.704 17.8282 4.704 18.6481 4.704C20.8356 4.704 20.5617 4.431 20.5617 6.61763C20.5617 7.71138 20.5617 22.204 20.5617 23.2978C20.5617 25.4853 20.8347 25.2114 18.6481 25.2114C17.5543 25.2114 10.4449 25.2114 9.35118 25.2114C7.16368 25.2114 7.43755 25.4844 7.43755 23.2978C7.43755 22.2031 7.43755 7.71138 7.43755 6.61763ZM8.8043 10.4458H19.1949C19.4968 10.4458 19.7418 10.6908 19.7418 10.9926V14.0009C19.7418 14.3028 19.4968 14.5478 19.1949 14.5478H8.8043C8.50243 14.5478 8.25743 14.3028 8.25743 14.0009V10.9926C8.25743 10.6908 8.50243 10.4458 8.8043 10.4458ZM8.8043 15.3676H19.1949C19.4968 15.3676 19.7418 15.6126 19.7418 15.9145V18.9228C19.7418 19.2246 19.4968 19.4696 19.1949 19.4696H8.8043C8.50243 19.4696 8.25743 19.2246 8.25743 18.9228V15.9145C8.25743 15.6126 8.50243 15.3676 8.8043 15.3676ZM8.8043 20.2895H19.1949C19.4968 20.2895 19.7418 20.5345 19.7418 20.8364V23.8446C19.7418 24.1465 19.4968 24.3915 19.1949 24.3915H8.8043C8.50243 24.3915 8.25743 24.1465 8.25743 23.8446V20.8364C8.25743 20.5345 8.50243 20.2895 8.8043 20.2895Z" fill="url(#paint0_linear_262_84215)"/>
<path d="M8.72896 4.1978C8.91836 4.20074 9.12814 4.204 9.35118 4.204H9.35766H9.36428H9.37105H9.37796H9.38501H9.3922H9.39953H9.407H9.41461H9.42236H9.43025H9.43828H9.44644H9.45474H9.46318H9.47175H9.48045H9.48929H9.49827H9.50737H9.51661H9.52598H9.53549H9.54512H9.55488H9.56478H9.5748H9.58495H9.59523H9.60563H9.61616H9.62682H9.6376H9.64851H9.65955H9.6707H9.68198H9.69339H9.70491H9.71656H9.72833H9.74021H9.75222H9.76435H9.7766H9.78896H9.80144H9.81404H9.82675H9.83958H9.85253H9.86559H9.87876H9.89205H9.90545H9.91897H9.93259H9.94633H9.96018H9.97413H9.9882H10.0024H10.0167H10.031H10.0455H10.0602H10.0749H10.0897H10.1046H10.1196H10.1348H10.15H10.1653H10.1808H10.1963H10.2119H10.2277H10.2435H10.2595H10.2755H10.2916H10.3079H10.3242H10.3406H10.3571H10.3738H10.3905H10.4073H10.4242H10.4412H10.4583H10.4754H10.4927H10.51H10.5275H10.545H10.5627H10.5804H10.5982H10.6161H10.634H10.6521H10.6702H10.6885H10.7068H10.7252H10.7437H10.7622H10.7809H10.7996H10.8184H10.8373H10.8563H10.8753H10.8944H10.9136H10.9329H10.9523H10.9717H10.9912H11.0108H11.0305H11.0502H11.07H11.0899H11.1098H11.1299H11.1499H11.1701H11.1903H11.2106H11.231H11.2515H11.272H11.2925H11.3132H11.3339H11.3546H11.3755H11.3964H11.4173H11.4384H11.4595H11.4806H11.5018H11.5231H11.5444H11.5658H11.5873H11.6088H11.6303H11.652H11.6737H11.6954H11.7172H11.739H11.7609H11.7829H11.8049H11.827H11.8491H11.8712H11.8934H11.9157H11.938H11.9604H11.9828H12.0053H12.0278H12.0503H12.0729H12.0956H12.1183H12.141H12.1638H12.1866H12.2095H12.2324H12.2553H12.2783H12.3014H12.3244H12.3476H12.3707H12.3939H12.4171H12.4404H12.4637H12.487H12.5104H12.5338H12.5572H12.5807H12.6042H12.6278H12.6513H12.6749H12.6986H12.7222H12.7459H12.7696H12.7934H12.8172H12.841H12.8648H12.8887H12.9126H12.9365H12.9604H12.9844H13.0083H13.0324H13.0564H13.0804H13.1045H13.1286H13.1527H13.1768H13.201H13.2251H13.2493H13.2735H13.2977H13.322H13.3462H13.3705H13.3948H13.419H13.4433H13.4677H13.492H13.5163H13.5407H13.565H13.5894H13.6138H13.6382H13.6626H13.687H13.7114H13.7358H13.7602H13.7846H13.8091H13.8335H13.8579H13.8824H13.9068H13.9312H13.9557H13.9801H14.0046H14.029H14.0534H14.0779H14.1023H14.1267H14.1512H14.1756H14.2H14.2244H14.2488H14.2732H14.2976H14.322H14.3464H14.3708H14.3951H14.4195H14.4438H14.4681H14.4925H14.5168H14.5411H14.5653H14.5896H14.6138H14.6381H14.6623H14.6865H14.7107H14.7349H14.759H14.7831H14.8072H14.8313H14.8554H14.8795H14.9035H14.9275H14.9515H14.9754H14.9994H15.0233H15.0472H15.071H15.0949H15.1187H15.1425H15.1662H15.1899H15.2136H15.2373H15.2609H15.2845H15.3081H15.3317H15.3552H15.3786H15.4021H15.4255H15.4489H15.4722H15.4955H15.5188H15.542H15.5652H15.5884H15.6115H15.6346H15.6576H15.6806H15.7035H15.7265H15.7493H15.7722H15.7949H15.8177H15.8404H15.863H15.8856H15.9082H15.9307H15.9532H15.9756H15.998H16.0203H16.0425H16.0648H16.0869H16.1091H16.1311H16.1531H16.1751H16.197H16.2189H16.2406H16.2624H16.2841H16.3057H16.3273H16.3488H16.3702H16.3916H16.413H16.4343H16.4555H16.4766H16.4977H16.5188H16.5397H16.5606H16.5815H16.6023H16.623H16.6436H16.6642H16.6847H16.7051H16.7255H16.7458H16.7661H16.7862H16.8063H16.8264H16.8463H16.8662H16.886H16.9058H16.9254H16.945H16.9645H16.984H17.0033H17.0226H17.0418H17.061H17.08H17.099H17.1179H17.1367H17.1554H17.1741H17.1927H17.2112H17.2296H17.2479H17.2661H17.2843H17.3023H17.3203H17.3382H17.356H17.3738H17.3914H17.4089H17.4264H17.4437H17.461H17.4782H17.4953H17.5123H17.5292H17.546H17.5627H17.5794H17.5959H17.6123H17.6287H17.6449H17.6611H17.6771H17.693H17.7089H17.7246H17.7403H17.7558H17.7713H17.7866H17.8019H17.817H17.832H17.847H17.8618H17.8765H17.8911H17.9056H17.92H17.9343H17.9485H17.9626H17.9766H17.9904H18.0042H18.0178H18.0313H18.0447H18.058H18.0712H18.0843H18.0973H18.1101H18.1228H18.1354H18.1479H18.1603H18.1726H18.1847H18.1967H18.2086H18.2204H18.232H18.2436H18.255H18.2663H18.2775H18.2885H18.2994H18.3102H18.3209H18.3314H18.3418H18.3521H18.3623H18.3723H18.3822H18.392H18.4017H18.4112H18.4205H18.4298H18.4389H18.4479H18.4568H18.4655H18.4741H18.4825H18.4908H18.499H18.507H18.5149H18.5227H18.5303H18.5378H18.5451H18.5524H18.5594H18.5663H18.5731H18.5798H18.5862H18.5926H18.5988H18.6049H18.6108H18.6165H18.6222H18.6276H18.633H18.6381H18.6432H18.6481C18.8707 4.204 19.08 4.20077 19.2691 4.19785C19.5132 4.19408 19.7236 4.19083 19.8851 4.19574C20.1514 4.20384 20.5202 4.22858 20.7788 4.48737C21.0374 4.74611 21.062 5.11483 21.0701 5.38106C21.0749 5.54212 21.0717 5.75193 21.0679 5.99541C21.0649 6.18482 21.0617 6.39459 21.0617 6.61763V6.62419V6.63105V6.63823V6.6457V6.65348V6.66155V6.66993V6.67861V6.68758V6.69685V6.70641V6.71627V6.72641V6.73685V6.74758V6.7586V6.76991V6.7815V6.79338V6.80554V6.81798V6.83071V6.84371V6.857V6.87056V6.8844V6.89851V6.9129V6.92757V6.9425V6.95771V6.97318V6.98892V7.00493V7.02121V7.03775V7.05455V7.07162V7.08895V7.10654V7.12438V7.14249V7.16085V7.17946V7.19833V7.21745V7.23683V7.25645V7.27633V7.29645V7.31682V7.33743V7.35829V7.37939V7.40073V7.42232V7.44414V7.4662V7.4885V7.51104V7.53381V7.55681V7.58005V7.60351V7.62721V7.65114V7.67529V7.69967V7.72428V7.74911V7.77416V7.79943V7.82493V7.85064V7.87657V7.90272V7.92908V7.95566V7.98245V8.00946V8.03667V8.0641V8.09173V8.11957V8.14762V8.17587V8.20432V8.23298V8.26184V8.29089V8.32015V8.34961V8.37926V8.4091V8.43914V8.46938V8.4998V8.53042V8.56122V8.59222V8.6234V8.65476V8.68631V8.71804V8.74996V8.78206V8.81433V8.84679V8.87942V8.91222V8.94521V8.97836V9.01169V9.04519V9.07886V9.1127V9.14671V9.18088V9.21522V9.24972V9.28439V9.31922V9.35421V9.38935V9.42466V9.46012V9.49574V9.53151V9.56744V9.60352V9.63975V9.67612V9.71265V9.74933V9.78615V9.82311V9.86022V9.89748V9.93487V9.9724V10.0101V10.0479V10.0858V10.1239V10.1621V10.2005V10.239V10.2776V10.3163V10.3552V10.3942V10.4333V10.4726V10.5119V10.5514V10.591V10.6308V10.6706V10.7106V10.7507V10.7909V10.8312V10.8716V10.9121V10.9528V10.9936V11.0344V11.0754V11.1165V11.1576V11.1989V11.2403V11.2818V11.3234V11.3651V11.4069V11.4487V11.4907V11.5328V11.5749V11.6172V11.6595V11.7019V11.7445V11.7871V11.8297V11.8725V11.9154V11.9583V12.0013V12.0444V12.0876V12.1308V12.1742V12.2176V12.261V12.3046V12.3482V12.3919V12.4356V12.4794V12.5233V12.5673V12.6113V12.6553V12.6995V12.7437V12.7879V12.8322V12.8766V12.921V12.9655V13.01V13.0546V13.0993V13.1439V13.1887V13.2334V13.2783V13.3231V13.368V13.413V13.458V13.503V13.5481V13.5932V13.6383V13.6835V13.7287V13.774V13.8192V13.8645V13.9099V13.9552V14.0006V14.046V14.0915V14.1369V14.1824V14.2279V14.2734V14.319V14.3645V14.4101V14.4557V14.5013V14.5469V14.5925V14.6381V14.6838V14.7294V14.775V14.8207V14.8664V14.912V14.9577V15.0034V15.049V15.0947V15.1403V15.186V15.2316V15.2773V15.3229V15.3685V15.4141V15.4597V15.5053V15.5509V15.5964V15.642V15.6875V15.733V15.7785V15.8239V15.8694V15.9148V15.9602V16.0055V16.0508V16.0961V16.1414V16.1867V16.2319V16.2771V16.3222V16.3673V16.4124V16.4574V16.5024V16.5473V16.5922V16.6371V16.6819V16.7267V16.7714V16.8161V16.8608V16.9053V16.9499V16.9943V17.0388V17.0831V17.1274V17.1717V17.2159V17.26V17.3041V17.3481V17.3921V17.4359V17.4798V17.5235V17.5672V17.6108V17.6544V17.6978V17.7412V17.7845V17.8278V17.871V17.9141V17.9571V18V18.0429V18.0856V18.1283V18.1709V18.2134V18.2559V18.2982V18.3404V18.3826V18.4247V18.4666V18.5085V18.5503V18.592V18.6336V18.6751V18.7164V18.7577V18.7989V18.84V18.881V18.9218V18.9626V19.0032V19.0438V19.0842V19.1245V19.1647V19.2048V19.2448V19.2846V19.3244V19.364V19.4035V19.4428V19.4821V19.5212V19.5602V19.5991V19.6378V19.6764V19.7149V19.7532V19.7915V19.8295V19.8675V19.9053V19.943V19.9805V20.0179V20.0552V20.0923V20.1292V20.166V20.2027V20.2393V20.2756V20.3119V20.3479V20.3839V20.4196V20.4553V20.4907V20.526V20.5612V20.5962V20.631V20.6657V20.7002V20.7345V20.7687V20.8027V20.8365V20.8702V20.9037V20.937V20.9702V21.0032V21.036V21.0686V21.101V21.1333V21.1654V21.1973V21.2291V21.2606V21.292V21.3232V21.3542V21.385V21.4156V21.446V21.4762V21.5063V21.5361V21.5658V21.5952V21.6245V21.6535V21.6824V21.7111V21.7395V21.7678V21.7958V21.8236V21.8513V21.8787V21.9059V21.9329V21.9597V21.9863V22.0127V22.0388V22.0647V22.0904V22.1159V22.1412V22.1663V22.1911V22.2157V22.2401V22.2642V22.2882V22.3119V22.3353V22.3586V22.3816V22.4043V22.4269V22.4492V22.4712V22.4931V22.5146V22.536V22.5571V22.5779V22.5986V22.6189V22.639V22.6589V22.6785V22.6979V22.717V22.7359V22.7545V22.7729V22.791V22.8088V22.8264V22.8438V22.8608V22.8776V22.8942V22.9104V22.9265V22.9422V22.9577V22.9729V22.9878V23.0025V23.0169V23.031V23.0448V23.0584V23.0717V23.0847V23.0974V23.1098V23.122V23.1339V23.1455V23.1568V23.1678V23.1785V23.189V23.1991V23.209V23.2185V23.2278V23.2368V23.2454V23.2538V23.2619V23.2697V23.2771V23.2843V23.2912V23.2978C21.0617 23.5204 21.0649 23.7297 21.0678 23.9188C21.0716 24.1629 21.0748 24.3733 21.0699 24.5348C21.0618 24.8011 21.0371 25.1699 20.7783 25.4285C20.5196 25.6871 20.1508 25.7117 19.8846 25.7198C19.7236 25.7246 19.5138 25.7214 19.2703 25.7176C19.0809 25.7146 18.8711 25.7114 18.6481 25.7114H18.6416H18.635H18.6282H18.6213H18.6143H18.6071H18.5998H18.5924H18.5849H18.5772H18.5693H18.5614H18.5533H18.5451H18.5367H18.5283H18.5196H18.5109H18.502H18.4931H18.4839H18.4747H18.4653H18.4558H18.4462H18.4365H18.4266H18.4166H18.4065H18.3963H18.3859H18.3754H18.3648H18.3541H18.3433H18.3323H18.3212H18.31H18.2987H18.2873H18.2757H18.2641H18.2523H18.2404H18.2284H18.2163H18.2041H18.1917H18.1793H18.1667H18.154H18.1412H18.1284H18.1153H18.1022H18.089H18.0757H18.0622H18.0487H18.0351H18.0213H18.0074H17.9935H17.9794H17.9652H17.951H17.9366H17.9221H17.9075H17.8929H17.8781H17.8632H17.8482H17.8331H17.818H17.8027H17.7873H17.7719H17.7563H17.7407H17.7249H17.7091H17.6931H17.6771H17.661H17.6448H17.6284H17.612H17.5956H17.579H17.5623H17.5456H17.5287H17.5118H17.4948H17.4777H17.4605H17.4432H17.4258H17.4084H17.3909H17.3732H17.3555H17.3378H17.3199H17.302H17.2839H17.2658H17.2477H17.2294H17.2111H17.1926H17.1741H17.1556H17.1369H17.1182H17.0994H17.0805H17.0616H17.0426H17.0235H17.0043H16.9851H16.9657H16.9464H16.9269H16.9074H16.8878H16.8681H16.8484H16.8286H16.8087H16.7888H16.7688H16.7488H16.7286H16.7084H16.6882H16.6679H16.6475H16.627H16.6065H16.586H16.5653H16.5446H16.5239H16.5031H16.4822H16.4613H16.4403H16.4193H16.3982H16.377H16.3558H16.3345H16.3132H16.2919H16.2704H16.249H16.2274H16.2059H16.1842H16.1625H16.1408H16.119H16.0972H16.0753H16.0534H16.0314H16.0094H15.9873H15.9652H15.9431H15.9209H15.8986H15.8763H15.854H15.8316H15.8092H15.7867H15.7642H15.7417H15.7191H15.6965H15.6738H15.6511H15.6284H15.6056H15.5828H15.56H15.5371H15.5142H15.4913H15.4683H15.4453H15.4222H15.3991H15.376H15.3529H15.3297H15.3065H15.2833H15.26H15.2367H15.2134H15.19H15.1667H15.1433H15.1198H15.0964H15.0729H15.0494H15.0259H15.0023H14.9788H14.9552H14.9316H14.9079H14.8843H14.8606H14.8369H14.8132H14.7895H14.7657H14.742H14.7182H14.6944H14.6706H14.6467H14.6229H14.599H14.5752H14.5513H14.5274H14.5035H14.4795H14.4556H14.4317H14.4077H14.3838H14.3598H14.3358H14.3118H14.2878H14.2639H14.2398H14.2158H14.1918H14.1678H14.1438H14.1198H14.0957H14.0717H14.0477H14.0236H13.9996H13.9756H13.9515H13.9275H13.9035H13.8795H13.8554H13.8314H13.8074H13.7834H13.7594H13.7354H13.7114H13.6874H13.6634H13.6394H13.6155H13.5915H13.5675H13.5436H13.5197H13.4958H13.4719H13.448H13.4241H13.4002H13.3763H13.3525H13.3287H13.3049H13.2811H13.2573H13.2335H13.2098H13.186H13.1623H13.1386H13.1149H13.0913H13.0677H13.044H13.0205H12.9969H12.9733H12.9498H12.9263H12.9028H12.8794H12.856H12.8326H12.8092H12.7858H12.7625H12.7392H12.716H12.6927H12.6695H12.6464H12.6232H12.6001H12.577H12.554H12.531H12.508H12.485H12.4621H12.4392H12.4164H12.3936H12.3708H12.3481H12.3254H12.3027H12.2801H12.2575H12.235H12.2125H12.19H12.1676H12.1452H12.1229H12.1006H12.0784H12.0562H12.034H12.0119H11.9898H11.9678H11.9458H11.9239H11.902H11.8802H11.8584H11.8367H11.815H11.7934H11.7718H11.7503H11.7288H11.7074H11.686H11.6647H11.6434H11.6222H11.6011H11.58H11.5589H11.5379H11.517H11.4961H11.4753H11.4546H11.4339H11.4133H11.3927H11.3722H11.3518H11.3314H11.311H11.2908H11.2706H11.2505H11.2304H11.2104H11.1905H11.1706H11.1508H11.1311H11.1114H11.0918H11.0723H11.0529H11.0335H11.0142H10.9949H10.9758H10.9567H10.9376H10.9187H10.8998H10.881H10.8623H10.8436H10.8251H10.8066H10.7882H10.7698H10.7516H10.7334H10.7153H10.6973H10.6793H10.6615H10.6437H10.626H10.6084H10.5908H10.5734H10.556H10.5388H10.5216H10.5045H10.4874H10.4705H10.4537H10.4369H10.4202H10.4037H10.3872H10.3708H10.3545H10.3383H10.3221H10.3061H10.2902H10.2743H10.2586H10.2429H10.2274H10.2119H10.1965H10.1813H10.1661H10.151H10.136H10.1211H10.1064H10.0917H10.0771H10.0626H10.0483H10.034H10.0198H10.0057H9.99178H9.97793H9.96417H9.95052H9.93698H9.92354H9.91021H9.89699H9.88388H9.87087H9.85798H9.84519H9.83251H9.81995H9.80749H9.79515H9.78292H9.77081H9.7588H9.74691H9.73514H9.72348H9.71194H9.70051H9.6892H9.678H9.66693H9.65597H9.64513H9.63441H9.62381H9.61333H9.60297H9.59274H9.58262H9.57263H9.56276H9.55302H9.5434H9.5339H9.52453H9.51529H9.50617H9.49718H9.48831H9.47958H9.47097H9.46249H9.45414H9.44593H9.43784H9.42988H9.42206H9.41436H9.40681H9.39938H9.39209H9.38493H9.37791H9.37102H9.36427H9.35765H9.35118C9.12854 25.7114 8.91922 25.7146 8.73016 25.7175C8.48599 25.7213 8.27564 25.7245 8.11413 25.7196C7.84779 25.7115 7.47905 25.6868 7.2204 25.428C6.9618 25.1693 6.9372 24.8005 6.92916 24.5343C6.92431 24.3733 6.92757 24.1634 6.93135 23.92C6.93429 23.7306 6.93755 23.5208 6.93755 23.2978L8.72896 4.1978ZM8.72896 4.1978C8.48548 4.19402 8.27566 4.19076 8.11461 4.19561M8.72896 4.1978L8.11461 4.19561M8.11461 4.19561C7.84838 4.20365 7.47966 4.22825 7.22092 4.48685M8.11461 4.19561L7.22092 4.48685M7.22092 4.48685C6.96213 4.7455 6.93739 5.11424 6.92929 5.38057M7.22092 4.48685L6.92929 5.38057M6.92929 5.38057C6.92438 5.54209 6.92763 5.75244 6.9314 5.9966M6.92929 5.38057L6.9314 5.9966M6.9314 5.9966C6.93432 6.18565 6.93755 6.39499 6.93755 6.61763M6.9314 5.9966L6.93755 6.61763M6.93755 6.61763V6.62419M6.93755 6.61763V6.62419M6.93755 6.62419V6.63105M6.93755 6.62419V6.63105M6.93755 6.63105V6.63823M6.93755 6.63105V6.63823M6.93755 6.63823V6.6457M6.93755 6.63823V6.6457M6.93755 6.6457V6.65348M6.93755 6.6457V6.65348M6.93755 6.65348V6.66155M6.93755 6.65348V6.66155M6.93755 6.66155V6.66993M6.93755 6.66155V6.66993M6.93755 6.66993V6.67861M6.93755 6.66993V6.67861M6.93755 6.67861V6.68758M6.93755 6.67861V6.68758M6.93755 6.68758V6.69685M6.93755 6.68758V6.69685M6.93755 6.69685V6.70641M6.93755 6.69685V6.70641M6.93755 6.70641V6.71626M6.93755 6.70641V6.71626M6.93755 6.71626V6.72641M6.93755 6.71626V6.72641M6.93755 6.72641V6.73685M6.93755 6.72641V6.73685M6.93755 6.73685V6.74758M6.93755 6.73685V6.74758M6.93755 6.74758V6.7586M6.93755 6.74758V6.7586M6.93755 6.7586V6.7699M6.93755 6.7586V6.7699M6.93755 6.7699V6.7815M6.93755 6.7699V6.7815M6.93755 6.7815V6.79337M6.93755 6.7815V6.79337M6.93755 6.79337V6.80553M6.93755 6.79337V6.80553M6.93755 6.80553V6.81798M6.93755 6.80553V6.81798M6.93755 6.81798V6.8307M6.93755 6.81798V6.8307M6.93755 6.8307V6.84371M6.93755 6.8307V6.84371M6.93755 6.84371V6.85699M6.93755 6.84371V6.85699M6.93755 6.85699V6.87055M6.93755 6.85699V6.87055M6.93755 6.87055V6.88439M6.93755 6.87055V6.88439M6.93755 6.88439V6.89851M6.93755 6.88439V6.89851M6.93755 6.89851V6.9129M6.93755 6.89851V6.9129M6.93755 6.9129V6.92756M6.93755 6.9129V6.92756M6.93755 6.92756V6.94249M6.93755 6.92756V6.94249M6.93755 6.94249V6.9577M6.93755 6.94249V6.9577M6.93755 6.9577V6.97317M6.93755 6.9577V6.97317M6.93755 6.97317V6.98891M6.93755 6.97317V6.98891M6.93755 6.98891V7.00492M6.93755 6.98891V7.00492M6.93755 7.00492V7.0212M6.93755 7.00492V7.0212M6.93755 7.0212V7.03774M6.93755 7.0212V7.03774M6.93755 7.03774V7.05454M6.93755 7.03774V7.05454M6.93755 7.05454V7.07161M6.93755 7.05454V7.07161M6.93755 7.07161V7.08893M6.93755 7.07161V7.08893M6.93755 7.08893V7.10652M6.93755 7.08893V7.10652M6.93755 7.10652V7.12437M6.93755 7.10652V7.12437M6.93755 7.12437V7.14247M6.93755 7.12437V7.14247M6.93755 7.14247V7.16083M6.93755 7.14247V7.16083M6.93755 7.16083V7.17944M6.93755 7.16083V7.17944M6.93755 7.17944V7.19831M6.93755 7.17944V7.19831M6.93755 7.19831V7.21744M6.93755 7.19831V7.21744M6.93755 7.21744V7.23681M6.93755 7.21744V7.23681M6.93755 7.23681V7.25643M6.93755 7.23681V7.25643M6.93755 7.25643V7.2763M6.93755 7.25643V7.2763M6.93755 7.2763V7.29643M6.93755 7.2763V7.29643M6.93755 7.29643V7.31679M6.93755 7.29643V7.31679M6.93755 7.31679V7.33741M6.93755 7.31679V7.33741M6.93755 7.33741V7.35826M6.93755 7.33741V7.35826M6.93755 7.35826V7.37936M6.93755 7.35826V7.37936M6.93755 7.37936V7.40071M6.93755 7.37936V7.40071M6.93755 7.40071V7.42229M6.93755 7.40071V7.42229M6.93755 7.42229V7.44411M6.93755 7.42229V7.44411M6.93755 7.44411V7.46617M6.93755 7.44411V7.46617M6.93755 7.46617V7.48847M6.93755 7.46617V7.48847M6.93755 7.48847V7.51101M6.93755 7.48847V7.51101M6.93755 7.51101V7.53377M6.93755 7.51101V7.53377M6.93755 7.53377V7.55678M6.93755 7.53377V7.55678M6.93755 7.55678V7.58001M6.93755 7.55678V7.58001M6.93755 7.58001V7.60348M6.93755 7.58001V7.60348M6.93755 7.60348V7.62718M6.93755 7.60348V7.62718M6.93755 7.62718V7.6511M6.93755 7.62718V7.6511M6.93755 7.6511V7.67525M6.93755 7.6511V7.67525M6.93755 7.67525V7.69963M6.93755 7.67525V7.69963M6.93755 7.69963V7.72424M6.93755 7.69963V7.72424M6.93755 7.72424V7.74906M6.93755 7.72424V7.74906M6.93755 7.74906V7.77412M6.93755 7.74906V7.77412M6.93755 7.77412V7.79939M6.93755 7.77412V7.79939M6.93755 7.79939V7.82488M6.93755 7.79939V7.82488M6.93755 7.82488V7.85059M6.93755 7.82488V7.85059M6.93755 7.85059V7.87652M6.93755 7.85059V7.87652M6.93755 7.87652V7.90267M6.93755 7.87652V7.90267M6.93755 7.90267V7.92903M6.93755 7.90267V7.92903M6.93755 7.92903V7.95561M6.93755 7.92903V7.95561M6.93755 7.95561V7.9824M6.93755 7.95561V7.9824M6.93755 7.9824V8.0094M6.93755 7.9824V8.0094M6.93755 8.0094V8.03662M6.93755 8.0094V8.03662M6.93755 8.03662V8.06404M6.93755 8.03662V8.06404M6.93755 8.06404V8.09167M6.93755 8.06404V8.09167M6.93755 8.09167V8.11951M6.93755 8.09167V8.11951M6.93755 8.11951V8.14756M6.93755 8.11951V8.14756M6.93755 8.14756V8.1758M6.93755 8.14756V8.1758M6.93755 8.1758V8.20426M6.93755 8.1758V8.20426M6.93755 8.20426V8.23291M6.93755 8.20426V8.23291M6.93755 8.23291V8.26177M6.93755 8.23291V8.26177M6.93755 8.26177V8.29083M6.93755 8.26177V8.29083M6.93755 8.29083V8.32008M6.93755 8.29083V8.32008M6.93755 8.32008V8.34954M6.93755 8.32008V8.34954M6.93755 8.34954V8.37919M6.93755 8.34954V8.37919M6.93755 8.37919V8.40903M6.93755 8.37919V8.40903M6.93755 8.40903V8.43907M6.93755 8.40903V8.43907M6.93755 8.43907V8.4693M6.93755 8.43907V8.4693M6.93755 8.4693V8.49973M6.93755 8.4693V8.49973M6.93755 8.49973V8.53034M6.93755 8.49973V8.53034M6.93755 8.53034V8.56114M6.93755 8.53034V8.56114M6.93755 8.56114V8.59213M6.93755 8.56114V8.59213M6.93755 8.59213V8.62331M6.93755 8.59213V8.62331M6.93755 8.62331V8.65468M6.93755 8.62331V8.65468M6.93755 8.65468V8.68623M6.93755 8.65468V8.68623M6.93755 8.68623V8.71796M6.93755 8.68623V8.71796M6.93755 8.71796V8.74987M6.93755 8.71796V8.74987M6.93755 8.74987V8.78197M6.93755 8.74987V8.78197M6.93755 8.78197V8.81424M6.93755 8.78197V8.81424M6.93755 8.81424V8.84669M6.93755 8.81424V8.84669M6.93755 8.84669V8.87932M6.93755 8.84669V8.87932M6.93755 8.87932V8.91213M6.93755 8.87932V8.91213M6.93755 8.91213V8.94511M6.93755 8.91213V8.94511M6.93755 8.94511V8.97827M6.93755 8.94511V8.97827M6.93755 8.97827V9.01159M6.93755 8.97827V9.01159M6.93755 9.01159V9.04509M6.93755 9.01159V9.04509M6.93755 9.04509V9.07876M6.93755 9.04509V9.07876M6.93755 9.07876V9.1126M6.93755 9.07876V9.1126M6.93755 9.1126V9.1466M6.93755 9.1126V9.1466M6.93755 9.1466V9.18078M6.93755 9.1466V9.18078M6.93755 9.18078V9.21511M6.93755 9.18078V9.21511M6.93755 9.21511V9.24961M6.93755 9.21511V9.24961M6.93755 9.24961V9.28428M6.93755 9.24961V9.28428M6.93755 9.28428V9.3191M6.93755 9.28428V9.3191M6.93755 9.3191V9.35409M6.93755 9.3191V9.35409M6.93755 9.35409V9.38924M6.93755 9.35409V9.38924M6.93755 9.38924V9.42454M6.93755 9.38924V9.42454M6.93755 9.42454V9.46M6.93755 9.42454V9.46M6.93755 9.46V9.49562M6.93755 9.46V9.49562M6.93755 9.49562V9.53139M6.93755 9.49562V9.53139M6.93755 9.53139V9.56731M6.93755 9.53139V9.56731M6.93755 9.56731V9.60339M6.93755 9.56731V9.60339M6.93755 9.60339V9.63962M6.93755 9.60339V9.63962M6.93755 9.63962V9.67599M6.93755 9.63962V9.67599M6.93755 9.67599V9.71252M6.93755 9.67599V9.71252M6.93755 9.71252V9.74919M6.93755 9.71252V9.74919M6.93755 9.74919V9.78601M6.93755 9.74919V9.78601M6.93755 9.78601V9.82298M6.93755 9.78601V9.82298M6.93755 9.82298V9.86009M6.93755 9.82298V9.86009M6.93755 9.86009V9.89734M6.93755 9.86009V9.89734M6.93755 9.89734V9.93473M6.93755 9.89734V9.93473M6.93755 9.93473V9.97226M6.93755 9.93473V9.97226M6.93755 9.97226V10.0099M6.93755 9.97226V10.0099M6.93755 10.0099V10.0477M6.93755 10.0099V10.0477M6.93755 10.0477V10.0857M6.93755 10.0477V10.0857M6.93755 10.0857V10.1238M6.93755 10.0857V10.1238M6.93755 10.1238V10.162M6.93755 10.1238V10.162M6.93755 10.162V10.2003M6.93755 10.162V10.2003M6.93755 10.2003V10.2388M6.93755 10.2003V10.2388M6.93755 10.2388V10.2774M6.93755 10.2388V10.2774M6.93755 10.2774V10.3162M6.93755 10.2774V10.3162M6.93755 10.3162V10.355M6.93755 10.3162V10.355M6.93755 10.355V10.394M6.93755 10.355V10.394M6.93755 10.394V10.4331M6.93755 10.394V10.4331M6.93755 10.4331V10.4724M6.93755 10.4331V10.4724M6.93755 10.4724V10.5118M6.93755 10.4724V10.5118M6.93755 10.5118V10.5512M6.93755 10.5118V10.5512M6.93755 10.5512V10.5909M6.93755 10.5512V10.5909M6.93755 10.5909V10.6306M6.93755 10.5909V10.6306M6.93755 10.6306V10.6704M6.93755 10.6306V10.6704M6.93755 10.6704V10.7104M6.93755 10.6704V10.7104M6.93755 10.7104V10.7505M6.93755 10.7104V10.7505M6.93755 10.7505V10.7907M6.93755 10.7505V10.7907M6.93755 10.7907V10.831M6.93755 10.7907V10.831M6.93755 10.831V10.8714M6.93755 10.831V10.8714M6.93755 10.8714V10.912M6.93755 10.8714V10.912M6.93755 10.912V10.9526M6.93755 10.912V10.9526M6.93755 10.9526V10.9934M6.93755 10.9526V10.9934M6.93755 10.9934V11.0342M6.93755 10.9934V11.0342M6.93755 11.0342V11.0752M6.93755 11.0342V11.0752M6.93755 11.0752V11.1163M6.93755 11.0752V11.1163M6.93755 11.1163V11.1575M6.93755 11.1163V11.1575M6.93755 11.1575V11.1987M6.93755 11.1575V11.1987M6.93755 11.1987V11.2401M6.93755 11.1987V11.2401M6.93755 11.2401V11.2816M6.93755 11.2401V11.2816M6.93755 11.2816V11.3232M6.93755 11.2816V11.3232M6.93755 11.3232V11.3649M6.93755 11.3232V11.3649M6.93755 11.3649V11.4067M6.93755 11.3649V11.4067M6.93755 11.4067V11.4485M6.93755 11.4067V11.4485M6.93755 11.4485V11.4905M6.93755 11.4485V11.4905M6.93755 11.4905V11.5326M6.93755 11.4905V11.5326M6.93755 11.5326V11.5747M6.93755 11.5326V11.5747M6.93755 11.5747V11.617M6.93755 11.5747V11.617M6.93755 11.617V11.6593M6.93755 11.617V11.6593M6.93755 11.6593V11.7017M6.93755 11.6593V11.7017M6.93755 11.7017V11.7442M6.93755 11.7017V11.7442M6.93755 11.7442V11.7868M6.93755 11.7442V11.7868M6.93755 11.7868V11.8295M6.93755 11.7868V11.8295M6.93755 11.8295V11.8723M6.93755 11.8295V11.8723M6.93755 11.8723V11.9151M6.93755 11.8723V11.9151M6.93755 11.9151V11.9581M6.93755 11.9151V11.9581M6.93755 11.9581V12.0011M6.93755 11.9581V12.0011M6.93755 12.0011V12.0442M6.93755 12.0011V12.0442M6.93755 12.0442V12.0874M6.93755 12.0442V12.0874M6.93755 12.0874V12.1306M6.93755 12.0874V12.1306M6.93755 12.1306V12.1739M6.93755 12.1306V12.1739M6.93755 12.1739V12.2173M6.93755 12.1739V12.2173M6.93755 12.2173V12.2608M6.93755 12.2173V12.2608M6.93755 12.2608V12.3043M6.93755 12.2608V12.3043M6.93755 12.3043V12.3479M6.93755 12.3043V12.3479M6.93755 12.3479V12.3916M6.93755 12.3479V12.3916M6.93755 12.3916V12.4354M6.93755 12.3916V12.4354M6.93755 12.4354V12.4792M6.93755 12.4354V12.4792M6.93755 12.4792V12.5231M6.93755 12.4792V12.5231M6.93755 12.5231V12.567M6.93755 12.5231V12.567M6.93755 12.567V12.611M6.93755 12.567V12.611M6.93755 12.611V12.6551M6.93755 12.611V12.6551M6.93755 12.6551V12.6992M6.93755 12.6551V12.6992M6.93755 12.6992V12.7434M6.93755 12.6992V12.7434M6.93755 12.7434V12.7877M6.93755 12.7434V12.7877M6.93755 12.7877V12.832M6.93755 12.7877V12.832M6.93755 12.832V12.8764M6.93755 12.832V12.8764M6.93755 12.8764V12.9208M6.93755 12.8764V12.9208M6.93755 12.9208V12.9653M6.93755 12.9208V12.9653M6.93755 12.9653V13.0098M6.93755 12.9653V13.0098M6.93755 13.0098V13.0544M6.93755 13.0098V13.0544M6.93755 13.0544V13.099M6.93755 13.0544V13.099M6.93755 13.099V13.1437M6.93755 13.099V13.1437M6.93755 13.1437V13.1884M6.93755 13.1437V13.1884M6.93755 13.1884V13.2332M6.93755 13.1884V13.2332M6.93755 13.2332V13.278M6.93755 13.2332V13.278M6.93755 13.278V13.3229M6.93755 13.278V13.3229M6.93755 13.3229V13.3678M6.93755 13.3229V13.3678M6.93755 13.3678V13.4127M6.93755 13.3678V13.4127M6.93755 13.4127V13.4577M6.93755 13.4127V13.4577M6.93755 13.4577V13.5027M6.93755 13.4577V13.5027M6.93755 13.5027V13.5478M6.93755 13.5027V13.5478M6.93755 13.5478V13.5929M6.93755 13.5478V13.5929M6.93755 13.5929V13.638M6.93755 13.5929V13.638M6.93755 13.638V13.6832M6.93755 13.638V13.6832M6.93755 13.6832V13.7284M6.93755 13.6832V13.7284M6.93755 13.7284V13.7737M6.93755 13.7284V13.7737M6.93755 13.7737V13.8189M6.93755 13.7737V13.8189M6.93755 13.8189V13.8642M6.93755 13.8189V13.8642M6.93755 13.8642V13.9096M6.93755 13.8642V13.9096M6.93755 13.9096V13.9549M6.93755 13.9096V13.9549M6.93755 13.9549V14.0003M6.93755 13.9549V14.0003M6.93755 14.0003V14.0457M6.93755 14.0003V14.0457M6.93755 14.0457V14.0912M6.93755 14.0457V14.0912M6.93755 14.0912V14.1366M6.93755 14.0912V14.1366M6.93755 14.1366V14.1821M6.93755 14.1366V14.1821M6.93755 14.1821V14.2276M6.93755 14.1821V14.2276M6.93755 14.2276V14.2731M6.93755 14.2276V14.2731M6.93755 14.2731V14.3186M6.93755 14.2731V14.3186M6.93755 14.3186V14.3642M6.93755 14.3186V14.3642M6.93755 14.3642V14.4098M6.93755 14.3642V14.4098M6.93755 14.4098V14.4553M6.93755 14.4098V14.4553M6.93755 14.4553V14.5009M6.93755 14.4553V14.5009M6.93755 14.5009V14.5465M6.93755 14.5009V14.5465M6.93755 14.5465V14.5922M6.93755 14.5465V14.5922M6.93755 14.5922V14.6378M6.93755 14.5922V14.6378M6.93755 14.6378V14.6834M6.93755 14.6378V14.6834M6.93755 14.6834V14.7291M6.93755 14.6834V14.7291M6.93755 14.7291V14.7747M6.93755 14.7291V14.7747M6.93755 14.7747V14.8204M6.93755 14.7747V14.8204M6.93755 14.8204V14.866M6.93755 14.8204V14.866M6.93755 14.866V14.9117M6.93755 14.866V14.9117M6.93755 14.9117V14.9574M6.93755 14.9117V14.9574M6.93755 14.9574V15.003M6.93755 14.9574V15.003M6.93755 15.003V15.0487M6.93755 15.003V15.0487M6.93755 15.0487V15.0943M6.93755 15.0487V15.0943M6.93755 15.0943V15.14M6.93755 15.0943V15.14M6.93755 15.14V15.1856M6.93755 15.14V15.1856M6.93755 15.1856V15.2313M6.93755 15.1856V15.2313M6.93755 15.2313V15.2769M6.93755 15.2313V15.2769M6.93755 15.2769V15.3226M6.93755 15.2769V15.3226M6.93755 15.3226V15.3682M6.93755 15.3226V15.3682M6.93755 15.3682V15.4138M6.93755 15.3682V15.4138M6.93755 15.4138V15.4594M6.93755 15.4138V15.4594M6.93755 15.4594V15.505M6.93755 15.4594V15.505M6.93755 15.505V15.5505M6.93755 15.505V15.5505M6.93755 15.5505V15.5961M6.93755 15.5505V15.5961M6.93755 15.5961V15.6416M6.93755 15.5961V15.6416M6.93755 15.6416V15.6871M6.93755 15.6416V15.6871M6.93755 15.6871V15.7326M6.93755 15.6871V15.7326M6.93755 15.7326V15.7781M6.93755 15.7326V15.7781M6.93755 15.7781V15.8236M6.93755 15.7781V15.8236M6.93755 15.8236V15.869M6.93755 15.8236V15.869M6.93755 15.869V15.9144M6.93755 15.869V15.9144M6.93755 15.9144V15.9598M6.93755 15.9144V15.9598M6.93755 15.9598V16.0052M6.93755 15.9598V16.0052M6.93755 16.0052V16.0505M6.93755 16.0052V16.0505M6.93755 16.0505V16.0958M6.93755 16.0505V16.0958M6.93755 16.0958V16.1411M6.93755 16.0958V16.1411M6.93755 16.1411V16.1863M6.93755 16.1411V16.1863M6.93755 16.1863V16.2315M6.93755 16.1863V16.2315M6.93755 16.2315V16.2767M6.93755 16.2315V16.2767M6.93755 16.2767V16.3218M6.93755 16.2767V16.3218M6.93755 16.3218V16.3669M6.93755 16.3218V16.3669M6.93755 16.3669V16.412M6.93755 16.3669V16.412M6.93755 16.412V16.457M6.93755 16.412V16.457M6.93755 16.457V16.502M6.93755 16.457V16.502M6.93755 16.502V16.547M6.93755 16.502V16.547M6.93755 16.547V16.5919M6.93755 16.547V16.5919M6.93755 16.5919V16.6367M6.93755 16.5919V16.6367M6.93755 16.6367V16.6816M6.93755 16.6367V16.6816M6.93755 16.6816V16.7263M6.93755 16.6816V16.7263M6.93755 16.7263V16.7711M6.93755 16.7263V16.7711M6.93755 16.7711V16.8157M6.93755 16.7711V16.8157M6.93755 16.8157V16.8604M6.93755 16.8157V16.8604M6.93755 16.8604V16.905M6.93755 16.8604V16.905M6.93755 16.905V16.9495M6.93755 16.905V16.9495M6.93755 16.9495V16.994M6.93755 16.9495V16.994M6.93755 16.994V17.0384M6.93755 16.994V17.0384M6.93755 17.0384V17.0828M6.93755 17.0384V17.0828M6.93755 17.0828V17.1271M6.93755 17.0828V17.1271M6.93755 17.1271V17.1713M6.93755 17.1271V17.1713M6.93755 17.1713V17.2155M6.93755 17.1713V17.2155M6.93755 17.2155V17.2596M6.93755 17.2155V17.2596M6.93755 17.2596V17.3037M6.93755 17.2596V17.3037M6.93755 17.3037V17.3477M6.93755 17.3037V17.3477M6.93755 17.3477V17.3917M6.93755 17.3477V17.3917M6.93755 17.3917V17.4356M6.93755 17.3917V17.4356M6.93755 17.4356V17.4794M6.93755 17.4356V17.4794M6.93755 17.4794V17.5231M6.93755 17.4794V17.5231M6.93755 17.5231V17.5668M6.93755 17.5231V17.5668M6.93755 17.5668V17.6104M6.93755 17.5668V17.6104M6.93755 17.6104V17.654M6.93755 17.6104V17.654M6.93755 17.654V17.6974M6.93755 17.654V17.6974M6.93755 17.6974V17.7408M6.93755 17.6974V17.7408M6.93755 17.7408V17.7842M6.93755 17.7408V17.7842M6.93755 17.7842V17.8274M6.93755 17.7842V17.8274M6.93755 17.8274V17.8706M6.93755 17.8274V17.8706M6.93755 17.8706V17.9137M6.93755 17.8706V17.9137M6.93755 17.9137V17.9567M6.93755 17.9137V17.9567M6.93755 17.9567V17.9996M6.93755 17.9567V17.9996M6.93755 17.9996V18.0425M6.93755 17.9996V18.0425M6.93755 18.0425V18.0852M6.93755 18.0425V18.0852M6.93755 18.0852V18.1279M6.93755 18.0852V18.1279M6.93755 18.1279V18.1705M6.93755 18.1279V18.1705M6.93755 18.1705V18.213M6.93755 18.1705V18.213M6.93755 18.213V18.2555M6.93755 18.213V18.2555M6.93755 18.2555V18.2978M6.93755 18.2555V18.2978M6.93755 18.2978V18.3401M6.93755 18.2978V18.3401M6.93755 18.3401V18.3822M6.93755 18.3401V18.3822M6.93755 18.3822V18.4243M6.93755 18.3822V18.4243M6.93755 18.4243V18.4663M6.93755 18.4243V18.4663M6.93755 18.4663V18.5081M6.93755 18.4663V18.5081M6.93755 18.5081V18.5499M6.93755 18.5081V18.5499M6.93755 18.5499V18.5916M6.93755 18.5499V18.5916M6.93755 18.5916V18.6332M6.93755 18.5916V18.6332M6.93755 18.6332V18.6747M6.93755 18.6332V18.6747M6.93755 18.6747V18.7161M6.93755 18.6747V18.7161M6.93755 18.7161V18.7573M6.93755 18.7161V18.7573M6.93755 18.7573V18.7985M6.93755 18.7573V18.7985M6.93755 18.7985V18.8396M6.93755 18.7985V18.8396M6.93755 18.8396V18.8806M6.93755 18.8396V18.8806M6.93755 18.8806V18.9214M6.93755 18.8806V18.9214M6.93755 18.9214V18.9622M6.93755 18.9214V18.9622M6.93755 18.9622V19.0028M6.93755 18.9622V19.0028M6.93755 19.0028V19.0434M6.93755 19.0028V19.0434M6.93755 19.0434V19.0838V19.0434ZM9.89893 3.28863H10.3989V2.78863V1.96875C10.3989 1.52487 10.4757 1.45002 10.4798 1.44622C10.4929 1.43395 10.5762 1.375 10.9927 1.375H17.0074C17.4242 1.375 17.5074 1.43413 17.5204 1.44633C17.5246 1.45021 17.6012 1.52516 17.6012 1.96875V2.78863V3.28863H18.1012H20.5625C20.9581 3.28863 21.2378 3.30752 21.441 3.34985C21.6387 3.39104 21.7252 3.44664 21.7716 3.49301C21.818 3.53938 21.8736 3.62582 21.9148 3.82352C21.9572 4.02673 21.9762 4.3065 21.9762 4.70225V25.2105C21.9762 25.6061 21.9573 25.8858 21.9149 26.089C21.8738 26.2867 21.8182 26.3732 21.7718 26.4195C21.7254 26.4659 21.639 26.5216 21.4413 26.5628C21.2381 26.6052 20.9583 26.6241 20.5625 26.6241H7.43755C7.04198 26.6241 6.76229 26.6052 6.55908 26.5629C6.36137 26.5217 6.27489 26.4661 6.2285 26.4197C6.18212 26.3734 6.12648 26.2869 6.08526 26.0892C6.04288 25.886 6.02393 25.6063 6.02393 25.2105V4.70225C6.02393 4.30668 6.04282 4.02699 6.08515 3.82378C6.12634 3.62607 6.18194 3.53959 6.22831 3.4932C6.27468 3.44682 6.36112 3.39118 6.55882 3.34995C6.76203 3.30758 7.0418 3.28863 7.43755 3.28863H9.89893Z" stroke="#19C2EF" stroke-opacity="0.55"/>
<defs>
<linearGradient id="paint0_linear_262_84215" x1="14.0001" y1="0.875" x2="14.0001" y2="27.1241" gradientUnits="userSpaceOnUse">
<stop stop-color="#0974F8"/>
<stop offset="1" stop-color="#4FB2FE"/>
</linearGradient>
</defs>
</svg>
