<svg width="28" height="28" viewBox="0 0 28 28" fill="none" xmlns="http://www.w3.org/2000/svg">
<g clip-path="url(#clip0_451_536)">
<path fill-rule="evenodd" clip-rule="evenodd" d="M27.7113 12.25H26.111C25.2596 6.31575 20.1697 1.75 14.0001 1.75C9.23221 1.75 5.11097 4.48 3.08622 8.456L6.37185 9.71947C7.8716 7.05422 10.7232 5.25 14.0001 5.25C18.2333 5.25 21.764 8.2565 22.5742 12.25H20.4655C20.1942 12.5134 19.9352 12.6753 20.3237 13.1311L23.5875 16.4509C23.8587 16.7134 24.2971 16.7134 24.5666 16.4509L27.8531 13.1311C28.1235 12.8678 27.9817 12.5134 27.7113 12.25ZM14.0001 22.75C10.0818 22.75 6.76647 20.1749 5.65172 16.625H7.56621C7.83746 16.3625 7.97833 16.0073 7.70883 15.7448L4.42232 12.4241C4.15195 12.1616 3.71358 12.1616 3.44321 12.4241L0.178593 15.7448C-0.209032 16.2006 0.0499567 16.3625 0.320332 16.625H1.92421C2.87359 21.8164 7.91096 26.25 14.0001 26.25C18.4565 26.25 22.345 23.8621 24.4887 20.3044L21.1768 18.9971C19.5966 21.2642 16.9725 22.75 14.0001 22.75Z" fill="url(#paint0_linear_451_536)"/>
<path fill-rule="evenodd" clip-rule="evenodd" d="M20.4655 12.25C20.4409 12.2739 20.4164 12.2969 20.3925 12.3194C20.1526 12.5451 19.9704 12.7166 20.3237 13.1311L23.5875 16.4509C23.8587 16.7134 24.2971 16.7134 24.5666 16.4509L27.8531 13.1311C28.1235 12.8678 27.9817 12.5134 27.7113 12.25H26.111C25.2596 6.31575 20.1697 1.75 14.0001 1.75C9.59316 1.75 5.73867 4.0823 3.58148 7.57506C3.4048 7.86114 3.2395 8.155 3.08622 8.456L6.37185 9.71947C7.8716 7.05422 10.7232 5.25 14.0001 5.25C17.8719 5.25 21.156 7.76505 22.3085 11.25C22.416 11.5753 22.505 11.9091 22.5742 12.25H20.4655ZM5.96076 8.49001C7.71598 5.93357 10.6586 4.25 14.0001 4.25C18.7184 4.25 22.6513 7.60079 23.5543 12.0512L23.7975 13.25H21.8429L24.0778 15.5232L26.3283 13.25H25.2442L25.1211 12.392C24.3391 6.94108 19.6632 2.75 14.0001 2.75C10.0231 2.75 6.53327 4.81884 4.53271 7.94085L5.96076 8.49001ZM4.28955 15.625H6.18334L3.93351 13.3518L1.69867 15.625H2.75792L2.9079 16.4451C3.76815 21.1491 8.38123 25.25 14.0001 25.25C17.6618 25.25 20.9086 23.4941 22.963 20.7772L21.5139 20.2053C19.7284 22.3671 17.0268 23.75 14.0001 23.75C9.63243 23.75 5.9395 20.8792 4.69766 16.9246L4.28955 15.625ZM21.1768 18.9971L24.4887 20.3044C24.3125 20.5968 24.1246 20.8813 23.9255 21.1572C21.702 24.2385 18.0902 26.25 14.0001 26.25C7.91096 26.25 2.87359 21.8164 1.92421 16.625H0.320332C0.295827 16.6012 0.271415 16.5782 0.24757 16.5558C0.00832199 16.3307 -0.1739 16.1593 0.178593 15.7448L3.44321 12.4241C3.71358 12.1616 4.15195 12.1616 4.42232 12.4241L7.70883 15.7448C7.97833 16.0073 7.83746 16.3625 7.56621 16.625H5.65172C5.7594 16.9679 5.88762 17.3017 6.03493 17.625C7.41261 20.6483 10.4603 22.75 14.0001 22.75C16.9725 22.75 19.5966 21.2642 21.1768 18.9971Z" fill="#19C2EF" fill-opacity="0.55"/>
</g>
<defs>
<linearGradient id="paint0_linear_451_536" x1="7.45059" y1="3.6817" x2="7.45059" y2="6.99394" gradientUnits="userSpaceOnUse">
<stop stop-color="#0974F8"/>
<stop offset="1" stop-color="#4FB2FE"/>
</linearGradient>
<clipPath id="clip0_451_536">
<rect width="28" height="28" fill="white"/>
</clipPath>
</defs>
</svg>
