<svg width="154" height="28" viewBox="0 0 154 28" fill="none" xmlns="http://www.w3.org/2000/svg">
<path fill-rule="evenodd" clip-rule="evenodd" d="M20.2858 13.9999C20.2858 9.73945 23.7396 6.28564 28.0001 6.28564C32.2605 6.28564 35.7143 9.73945 35.7143 13.9999C35.7143 18.2604 32.2605 21.7142 28.0001 21.7142C23.7396 21.7142 20.2858 18.2604 20.2858 13.9999ZM26.7728 13.2986C26.7728 12.9113 27.0868 12.5973 27.4741 12.5973H28.526C28.9134 12.5973 29.2273 12.9113 29.2273 13.2986V18.2077C29.2273 18.595 28.9134 18.909 28.526 18.909H27.4741C27.0868 18.909 26.7728 18.595 26.7728 18.2077V13.2986ZM29.4026 10.4934C29.4026 9.7188 28.7747 9.09084 28.0001 9.09084C27.2254 9.09084 26.5975 9.7188 26.5975 10.4934C26.5975 11.2681 27.2254 11.896 28.0001 11.896C28.7747 11.896 29.4026 11.2681 29.4026 10.4934Z" fill="url(#paint0_linear_339_20)"/>
<path d="M20.7858 13.9999C20.7858 10.0156 24.0157 6.78564 28.0001 6.78564C31.9844 6.78564 35.2143 10.0156 35.2143 13.9999C35.2143 17.9842 31.9844 21.2142 28.0001 21.2142C24.0157 21.2142 20.7858 17.9842 20.7858 13.9999ZM28.9153 12.1618C29.5038 11.8383 29.9026 11.2124 29.9026 10.4934C29.9026 9.44267 29.0509 8.59084 28.0001 8.59084C26.9493 8.59084 26.0975 9.44267 26.0975 10.4934C26.0975 11.2124 26.4963 11.8383 27.0848 12.1618C26.6124 12.3235 26.2728 12.7714 26.2728 13.2986V18.2077C26.2728 18.8712 26.8106 19.409 27.4741 19.409H28.526C29.1895 19.409 29.7273 18.8712 29.7273 18.2077V13.2986C29.7273 12.7714 29.3877 12.3235 28.9153 12.1618Z" stroke="#19C2EF" stroke-opacity="0.55"/>
<path d="M10.8027 1.39683C11.5626 0.510251 12.672 0 13.8397 0H140.16C141.328 0 142.437 0.510251 143.197 1.39683L151.769 11.3968C153.053 12.8948 153.053 15.1052 151.769 16.6032L143.197 26.6032C142.437 27.4897 141.328 28 140.16 28H13.8397C12.672 28 11.5626 27.4897 10.8027 26.6032L2.23128 16.6032C0.94732 15.1052 0.94732 12.8948 2.23128 11.3968L10.8027 1.39683Z" fill="#0974F8" fill-opacity="0.35"/>
<g filter="url(#filter0_d_339_20)">
<path d="M62.4 14V13H66.4V15C66.4 16.06 65.52 17 64.4 17H61.4C60.33 17 59.4 16.13 59.4 15V12C59.4 10.94 60.28 10 61.4 10H64.4C65.47 10 66.37 10.89 66.4 12H65.4C65.4 11.45 64.95 11 64.4 11H61.4C60.85 11 60.4 11.45 60.4 12V15C60.4 15.55 60.85 16 61.4 16H64.4C64.95 16 65.4 15.55 65.4 15V14H62.4ZM73.2027 15V12C73.2027 11.45 72.7527 11 72.2027 11H69.2027C68.6527 11 68.2027 11.45 68.2027 12V15C68.2027 15.55 68.6527 16 69.2027 16H72.2027C72.7527 16 73.2027 15.55 73.2027 15ZM74.2027 12V15C74.2027 16.1 73.3027 17 72.2027 17H69.2027C68.0927 17 67.2027 16.11 67.2027 15V12C67.2027 10.9 68.1027 10 69.2027 10H72.2027C73.2627 10 74.2027 10.91 74.2027 12ZM84.1094 17H79.1094V10H84.1094C85.1594 10 86.1094 10.89 86.1094 12C86.1094 12.6 85.8794 13.1 85.4294 13.5C85.8794 13.9 86.1094 14.4 86.1094 15C86.1094 16.08 85.2294 16.97 84.1094 17ZM84.1094 14H80.1094V16H84.1094C84.6594 16 85.1094 15.55 85.1094 15C85.1094 14.45 84.6594 14 84.1094 14ZM80.1094 11V13H84.1094C84.6594 13 85.1094 12.55 85.1094 12C85.1094 11.45 84.6594 11 84.1094 11H80.1094ZM92.0098 11H89.0098C88.4598 11 88.0098 11.45 88.0098 12V14H93.0098V12C93.0098 11.45 92.5598 11 92.0098 11ZM94.0098 12V17H93.0098V15H88.0098V17H87.0098V12C87.0098 10.94 87.8898 10 89.0098 10H92.0098C93.0798 10 93.9798 10.89 94.0098 12ZM96.9078 10H99.9078C100.978 10 101.878 10.89 101.908 12H100.908C100.908 11.45 100.458 11 99.9078 11H96.9078C96.3578 11 95.9078 11.45 95.9078 12V15C95.9078 15.55 96.3578 16 96.9078 16H99.9078C100.458 16 100.908 15.55 100.908 15H101.908C101.908 16.06 101.028 17 99.9078 17H96.9078C95.8378 17 94.9078 16.13 94.9078 15V12C94.9078 10.92 95.7878 10.03 96.9078 10ZM109.703 10L106.203 13.5L109.703 17H108.293L105.293 14H103.703V17H102.703V10H103.703V13H105.293L108.293 10H109.703Z" fill="#19C2EF"/>
</g>
<defs>
<filter id="filter0_d_339_20" x="59.4" y="9" width="52.3031" height="8" filterUnits="userSpaceOnUse" color-interpolation-filters="sRGB">
<feFlood flood-opacity="0" result="BackgroundImageFix"/>
<feColorMatrix in="SourceAlpha" type="matrix" values="0 0 0 0 0 0 0 0 0 0 0 0 0 0 0 0 0 0 127 0" result="hardAlpha"/>
<feOffset dx="2" dy="-1"/>
<feComposite in2="hardAlpha" operator="out"/>
<feColorMatrix type="matrix" values="0 0 0 0 0.027451 0 0 0 0 0.423529 0 0 0 0 0.913725 0 0 0 0.2 0"/>
<feBlend mode="normal" in2="BackgroundImageFix" result="effect1_dropShadow_339_20"/>
<feBlend mode="normal" in="SourceGraphic" in2="effect1_dropShadow_339_20" result="shape"/>
</filter>
<linearGradient id="paint0_linear_339_20" x1="28.0001" y1="6.28564" x2="28.0001" y2="21.7142" gradientUnits="userSpaceOnUse">
<stop stop-color="#0974F8"/>
<stop offset="1" stop-color="#4FB2FE"/>
</linearGradient>
</defs>
</svg>
