<svg width="154" height="28" viewBox="0 0 154 28" fill="none" xmlns="http://www.w3.org/2000/svg">
<path d="M10.8027 1.39683C11.5626 0.510251 12.672 0 13.8397 0H140.16C141.328 0 142.437 0.510251 143.197 1.39683L151.769 11.3968C153.053 12.8948 153.053 15.1052 151.769 16.6032L143.197 26.6032C142.437 27.4897 141.328 28 140.16 28H13.8397C12.672 28 11.5626 27.4897 10.8027 26.6032L2.23128 16.6032C0.94732 15.1052 0.94732 12.8948 2.23128 11.3968L10.8027 1.39683Z" fill="#0974F8" fill-opacity="0.35"/>
<g filter="url(#filter0_d_489_3)">
<path d="M24.5 17H19.5V10H24.5C25.55 10 26.5 10.89 26.5 12C26.5 12.6 26.27 13.1 25.82 13.5C26.27 13.9 26.5 14.4 26.5 15C26.5 16.08 25.62 16.97 24.5 17ZM24.5 14H20.5V16H24.5C25.05 16 25.5 15.55 25.5 15C25.5 14.45 25.05 14 24.5 14ZM20.5 11V13H24.5C25.05 13 25.5 12.55 25.5 12C25.5 11.45 25.05 11 24.5 11H20.5ZM28.4004 11V13H33.4004V14H28.4004V16H34.4004V17H27.4004V10H34.4004V11H28.4004ZM41.2031 13V12C41.2031 11.45 40.7531 11 40.2031 11H36.2031V14H40.2031C40.7531 14 41.2031 13.55 41.2031 13ZM42.2031 12V13C42.2031 14.06 41.3231 15 40.2031 15H36.2031V17H35.2031V10H40.2031C41.2731 10 42.1731 10.89 42.2031 12ZM44.0059 10V13H49.0059V10H50.0059V17H49.0059V14H44.0059V17H43.0059V10H44.0059ZM53.1039 16H55.9039C56.4539 16 56.9039 15.55 56.9039 15V14H52.9039C51.8339 14 50.9039 13.13 50.9039 12V10H51.9039V12C51.9039 12.55 52.3539 13 52.9039 13H56.9039V10H57.9039V15C57.9039 16.06 57.0239 17 55.9039 17H53.1039C52.0139 17 51.1339 16.13 51.1039 15H52.1039C52.1039 15.55 52.5539 16 53.1039 16ZM65.4043 11H62.4043V17H61.4043V11H58.4043V10H65.4043V11ZM71.9063 15V14.5C71.9063 13.95 71.4563 13.5 70.9063 13.5H66.9063V16H70.9063C71.4563 16 71.9063 15.55 71.9063 15ZM72.9063 14.5V15C72.9063 16.06 72.0263 17 70.9063 17H65.9063V10H66.9063V12.5H70.9063C71.9763 12.5 72.8763 13.39 72.9063 14.5ZM75.609 10H78.609C79.679 10 80.579 10.89 80.609 12H79.609C79.609 11.45 79.159 11 78.609 11H75.609C75.059 11 74.609 11.45 74.609 12V15C74.609 15.55 75.059 16 75.609 16H78.609C79.159 16 79.609 15.55 79.609 15H80.609C80.609 16.06 79.729 17 78.609 17H75.609C74.539 17 73.609 16.13 73.609 15V12C73.609 10.92 74.489 10.03 75.609 10ZM82.4043 12V13C82.4043 13.55 82.8543 14 83.4043 14H87.4043V11H83.4043C82.8543 11 82.4043 11.45 82.4043 12ZM84.1143 15L82.1143 17H81.4043V16.29L82.7943 14.9C81.9943 14.64 81.4043 13.89 81.4043 13V12C81.4043 10.94 82.2843 10 83.4043 10H88.4043V17H87.4043V15H84.1143ZM94.4063 10V13H99.4063V10H100.406V17H99.4063V14H94.4063V17H93.4063V10H94.4063ZM106.404 11H103.404C102.854 11 102.404 11.45 102.404 12V14H107.404V12C107.404 11.45 106.954 11 106.404 11ZM108.404 12V17H107.404V15H102.404V17H101.404V12C101.404 10.94 102.284 10 103.404 10H106.404C107.474 10 108.374 10.89 108.404 12ZM112.202 14V13H114.202C114.752 13 115.202 12.55 115.202 12C115.202 11.45 114.752 11 114.202 11H111.202C110.652 11 110.202 11.45 110.202 12H109.202C109.202 10.94 110.082 10 111.202 10H114.202C115.252 10 116.202 10.89 116.202 12C116.202 12.6 115.972 13.1 115.522 13.5C115.972 13.9 116.202 14.4 116.202 15C116.202 16.06 115.322 17 114.202 17H111.202C110.112 17 109.232 16.13 109.202 15H110.202C110.202 15.55 110.652 16 111.202 16H114.202C114.752 16 115.202 15.55 115.202 15C115.202 14.45 114.752 14 114.202 14H112.202ZM122.098 11H119.098C118.548 11 118.098 11.45 118.098 12V14H123.098V12C123.098 11.45 122.648 11 122.098 11ZM124.098 12V17H123.098V15H118.098V17H117.098V12C117.098 10.94 117.978 10 119.098 10H122.098C123.168 10 124.068 10.89 124.098 12ZM126.596 12V16H131.596V11H127.596C127.046 11 126.596 11.45 126.596 12ZM124.596 17V16H125.596V12C125.596 10.94 126.476 10 127.596 10H132.596V16H133.596V17H124.596Z" fill="#19C2EF"/>
</g>
<defs>
<filter id="filter0_d_489_3" x="19.5" y="9" width="116.096" height="8" filterUnits="userSpaceOnUse" color-interpolation-filters="sRGB">
<feFlood flood-opacity="0" result="BackgroundImageFix"/>
<feColorMatrix in="SourceAlpha" type="matrix" values="0 0 0 0 0 0 0 0 0 0 0 0 0 0 0 0 0 0 127 0" result="hardAlpha"/>
<feOffset dx="2" dy="-1"/>
<feComposite in2="hardAlpha" operator="out"/>
<feColorMatrix type="matrix" values="0 0 0 0 0.027451 0 0 0 0 0.423529 0 0 0 0 0.913725 0 0 0 0.2 0"/>
<feBlend mode="normal" in2="BackgroundImageFix" result="effect1_dropShadow_489_3"/>
<feBlend mode="normal" in="SourceGraphic" in2="effect1_dropShadow_489_3" result="shape"/>
</filter>
</defs>
</svg>
