<svg width="18" height="18" viewBox="0 0 18 18" fill="none" xmlns="http://www.w3.org/2000/svg">
<path d="M12.6599 6.20717C13.1506 5.71647 13.6378 4.57148 11.5932 5.96182C8.68806 7.96643 5.82471 9.84836 5.82471 9.84836C5.52997 9.98164 5.21133 10.054 4.88792 10.061C4.56452 10.068 4.24304 10.0096 3.94278 9.88925C2.71602 9.52122 1.2839 9.03052 1.2839 9.03052C1.2839 9.03052 0.30604 8.41624 1.97996 7.76197C1.97996 7.76197 9.05698 4.85773 11.5114 3.83453C12.4519 3.42561 15.6424 2.11706 15.6424 2.11706C15.6424 2.11706 17.1154 1.54368 16.9927 2.93491C16.9518 3.5074 16.6247 5.51289 16.2976 7.68018C15.806 10.748 15.2744 14.1029 15.2744 14.1029C15.2744 14.1029 15.1926 15.0435 14.4974 15.207C13.7533 15.1944 13.0342 14.9356 12.4528 14.471C12.2892 14.3483 9.38501 12.5072 8.32092 11.6076C8.21268 11.5343 8.12474 11.4348 8.06529 11.3183C8.00583 11.2019 7.9768 11.0723 7.98088 10.9416C7.98496 10.811 8.02202 10.6834 8.08863 10.5709C8.15523 10.4584 8.24921 10.3646 8.36181 10.2982C9.83749 8.94873 11.5967 7.27126 12.6599 6.20717Z" fill="white"/>
</svg>
