<svg width="18" height="18" viewBox="0 0 18 18" fill="none" xmlns="http://www.w3.org/2000/svg">
<path d="M15.75 2.25H3C2.60218 2.25 2.22064 2.40804 1.93934 2.68934C1.65804 2.97064 1.5 3.35218 1.5 3.75V14.25C1.5 14.6478 1.65804 15.0294 1.93934 15.3107C2.22064 15.592 2.60218 15.75 3 15.75H15C15.3978 15.75 15.7794 15.592 16.0607 15.3107C16.342 15.0294 16.5 14.6478 16.5 14.25V6C16.5 5.80109 16.421 5.61032 16.2803 5.46967C16.1397 5.32902 15.9489 5.25 15.75 5.25H3.75C3.55109 5.25 3.36032 5.17098 3.21967 5.03033C3.07902 4.88968 3 4.69891 3 4.5C3 4.30109 3.07902 4.11032 3.21967 3.96967C3.36032 3.82902 3.55109 3.75 3.75 3.75H16.5V3C16.5 2.80109 16.421 2.61032 16.2803 2.46967C16.1397 2.32902 15.9489 2.25 15.75 2.25ZM13.875 9.375C14.0975 9.375 14.315 9.44098 14.5 9.5646C14.685 9.68821 14.8292 9.86391 14.9144 10.0695C14.9995 10.275 15.0218 10.5012 14.9784 10.7195C14.935 10.9377 14.8278 11.1382 14.6705 11.2955C14.5132 11.4528 14.3127 11.56 14.0945 11.6034C13.8762 11.6468 13.65 11.6245 13.4445 11.5394C13.2389 11.4542 13.0632 11.31 12.9396 11.125C12.816 10.94 12.75 10.7225 12.75 10.5C12.75 10.2016 12.8685 9.91548 13.0795 9.7045C13.2905 9.49353 13.5766 9.375 13.875 9.375Z" fill="white"/>
</svg>
