<svg width="16" height="16" viewBox="0 0 16 16" fill="none" xmlns="http://www.w3.org/2000/svg">
<path d="M14.5906 3.69071C14.534 3.58301 14.4491 3.4928 14.345 3.42983C14.2409 3.36686 14.1216 3.33351 14 3.33338H1.99996C1.87852 3.33388 1.75952 3.36748 1.65574 3.43056C1.55197 3.49363 1.46736 3.5838 1.411 3.69138C1.35465 3.79895 1.32868 3.91984 1.3359 4.04107C1.34311 4.16229 1.38324 4.27925 1.45196 4.37938L7.45196 13.046C7.51312 13.1349 7.59495 13.2075 7.69042 13.2577C7.78588 13.3079 7.89211 13.3341 7.99996 13.3341C8.1078 13.3341 8.21403 13.3079 8.3095 13.2577C8.40496 13.2075 8.4868 13.1349 8.54796 13.046L14.548 4.37938C14.6173 4.27946 14.658 4.16243 14.6655 4.04101C14.6731 3.91959 14.6472 3.79843 14.5906 3.69071ZM7.99996 11.4954L3.27196 4.66671H12.728L7.99996 11.4954Z" fill="url(#paint0_linear_108_51575)"/>
<defs>
<linearGradient id="paint0_linear_108_51575" x1="8.00076" y1="3.33338" x2="8.00076" y2="13.3341" gradientUnits="userSpaceOnUse">
<stop stop-color="#0974F8"/>
<stop offset="1" stop-color="#4FB2FE"/>
</linearGradient>
</defs>
</svg>
