<svg width="15" height="15" viewBox="0 0 15 15" fill="none" xmlns="http://www.w3.org/2000/svg">
<g clip-path="url(#clip0_108_30096)">
<path fill-rule="evenodd" clip-rule="evenodd" d="M2.37242 0H12.6446C13.0372 0 13.3643 0.0655019 13.7569 0.262008C14.2149 0.458515 14.4766 0.786026 14.6074 1.04804C14.6074 1.04804 14.6074 1.11354 14.6729 1.11354C14.8691 1.44105 15 1.83406 15 2.29258C15 2.68559 14.9346 3.0786 14.6729 3.47161L8.1955 14.607C8.06465 14.869 7.80294 15 7.4758 15C7.21408 15 6.95237 14.869 6.75609 14.607L0.409587 3.47161C0.278731 3.20961 0.0170197 2.8821 0.0170197 2.35808C-0.0484081 1.89956 0.0824473 1.50655 0.278731 1.11354C0.475015 0.720524 0.802154 0.393013 1.26015 0.262008C1.65272 -2.53775e-07 2.11071 0 2.37242 0ZM6.69066 1.57205H2.37242C2.11071 1.57205 1.97986 1.57205 1.91443 1.63755C1.78357 1.70306 1.71814 1.76856 1.65272 1.89956C1.58729 1.96507 1.58729 2.09607 1.58729 2.22707C1.58729 2.29258 1.65272 2.35808 1.78357 2.62009L6.69066 11.1354V1.57205ZM8.26093 1.57205V11.2009L13.2334 2.62009C13.2989 2.48908 13.2989 2.35808 13.2989 2.22707C13.2989 2.09607 13.2989 1.96507 13.2334 1.89956C13.168 1.83406 13.168 1.76856 13.1026 1.76856L13.0372 1.70306C12.9063 1.63755 12.7755 1.63755 12.5792 1.63755H8.26093V1.57205Z" fill="url(#paint0_linear_108_30096)"/>
<path d="M13.5331 0.70912L13.5462 0.715702L13.5597 0.7215C13.8634 0.851803 14.0415 1.05824 14.1366 1.22714C14.1445 1.25111 14.1548 1.27713 14.1683 1.30418C14.1953 1.35826 14.2382 1.42216 14.3041 1.47876C14.4244 1.71283 14.5 1.98265 14.5 2.29258C14.5 2.62387 14.4464 2.90967 14.2567 3.19448L14.2483 3.2071L14.2407 3.22021L7.76331 14.3556L7.7553 14.3693L7.74819 14.3836C7.72303 14.434 7.66565 14.5 7.4758 14.5C7.39494 14.5 7.28196 14.4633 7.17299 14.3287L0.85051 3.23548C0.807816 3.15087 0.766342 3.07726 0.727978 3.00917C0.607053 2.79456 0.51702 2.63476 0.51702 2.35808V2.32258L0.512006 2.28745C0.4674 1.97485 0.549135 1.69117 0.726046 1.33694C0.873401 1.0419 1.10134 0.827486 1.39765 0.742729L1.47275 0.721249L1.53772 0.677888C1.78948 0.509858 2.10087 0.5 2.37242 0.5H12.6446C12.9653 0.5 13.215 0.549902 13.5331 0.70912ZM7.19066 1.57205V1.07205H6.69066H2.37242C2.36592 1.07205 2.35937 1.07205 2.35279 1.07205C2.23945 1.07201 2.11647 1.07197 2.01454 1.08331C1.92705 1.09304 1.77693 1.11752 1.63833 1.21792C1.55939 1.26155 1.47964 1.31621 1.40528 1.39064C1.33101 1.465 1.27648 1.54473 1.23295 1.62363C1.13907 1.75306 1.11148 1.89105 1.10048 1.96812C1.08713 2.06167 1.08723 2.15881 1.08728 2.2168C1.08728 2.22038 1.08729 2.22381 1.08729 2.22707C1.08729 2.33181 1.11473 2.41621 1.13866 2.47311C1.15999 2.52382 1.18651 2.5704 1.20212 2.59775C1.20801 2.60808 1.21404 2.61854 1.22025 2.62932C1.25178 2.68402 1.28805 2.74696 1.33626 2.84349L1.34291 2.85682L1.35036 2.86974L6.25745 11.385L7.19066 13.0044V11.1354V1.57205ZM7.76093 11.2009V13.0609L8.69354 11.4516L13.6661 2.87078L13.6738 2.85736L13.6808 2.84349C13.8 2.60484 13.7993 2.36996 13.7989 2.2456C13.7989 2.23912 13.7989 2.23294 13.7989 2.22707C13.7989 2.22381 13.7989 2.22038 13.7989 2.2168C13.7989 2.15881 13.799 2.06167 13.7857 1.96812C13.7731 1.87962 13.7385 1.71081 13.6069 1.56685C13.6026 1.56019 13.5954 1.54923 13.5842 1.53236C13.5662 1.5054 13.5164 1.43204 13.4284 1.37035C13.4134 1.35987 13.3982 1.35027 13.3827 1.34152L13.3336 1.29228L13.261 1.25594C13.0216 1.1361 12.7811 1.13691 12.612 1.13748C12.6008 1.13752 12.5898 1.13755 12.5792 1.13755H8.26093V1.57205H7.76093V1.63755V2.13755V11.2009Z" stroke="#19C2EF" stroke-opacity="0.55"/>
</g>
<defs>
<linearGradient id="paint0_linear_108_30096" x1="7.5" y1="0" x2="7.5" y2="15" gradientUnits="userSpaceOnUse">
<stop stop-color="#0974F8"/>
<stop offset="1" stop-color="#4FB2FE"/>
</linearGradient>
<clipPath id="clip0_108_30096">
<rect width="15" height="15" fill="white"/>
</clipPath>
</defs>
</svg>
