<svg width="28" height="28" viewBox="0 0 28 28" fill="none" xmlns="http://www.w3.org/2000/svg">
<path d="M25.5294 9.47056V7.82348C25.5294 7.14126 24.9763 6.5882 24.2942 6.5882C23.612 6.5882 23.0589 7.14131 23.0589 7.82348C23.0589 7.14126 22.5058 6.5882 21.8236 6.5882C21.1414 6.5882 20.5883 7.14131 20.5883 7.82348C20.5883 7.14126 20.0352 6.5882 19.353 6.5882C18.8155 6.5882 18.3594 6.9323 18.1896 7.41174H4.94118V4.94118H2.47056V7.41174L0 9.47056V11.9412L4.94118 17.2939L2.47056 18.9412V23.0588H7.41174L9.78518 16.5319L11.4295 18.1762L13.1765 16.4293L10.7473 14H18.1894C18.3592 14.4794 18.8153 14.8235 19.3529 14.8235C20.0351 14.8235 20.5882 14.2704 20.5882 13.5883C20.5882 14.2705 21.1413 14.8235 21.8235 14.8235C22.5057 14.8235 23.0588 14.2704 23.0588 13.5883C23.0588 14.2705 23.6118 14.8235 24.294 14.8235C24.9763 14.8235 25.5293 14.2704 25.5293 13.5883V11.9412H28V9.47056H25.5294ZM10.7059 11.9412H4.94118V9.47056H10.7059V11.9412Z" fill="url(#paint0_linear_546_2381)"/>
<path d="M25.0294 9.47056V9.97056H25.5294H27.5V11.4412H25.5293H25.0293V11.9412V13.5883C25.0293 13.9943 24.7001 14.3235 24.294 14.3235C23.888 14.3235 23.5588 13.9943 23.5588 13.5883H23.0588H22.5588C22.5588 13.9943 22.2296 14.3235 21.8235 14.3235C21.4174 14.3235 21.0882 13.9943 21.0882 13.5883H20.5882H20.0882C20.0882 13.9943 19.759 14.3235 19.3529 14.3235C19.0348 14.3235 18.7624 14.1202 18.6608 13.8331L18.5428 13.5H18.1894H10.7473H9.54023L10.3937 14.3535L12.4694 16.4293L11.4295 17.4691L10.1387 16.1783L9.58358 15.6232L9.31528 16.361L7.06153 22.5588H2.97056V19.2088L5.21855 17.7099L5.70579 17.3851L5.30858 16.9548L0.5 11.7457V9.70475L2.79066 7.79585L2.97056 7.64593V7.41174V5.44118H4.44118V7.41174V7.91174H4.94118H18.1896H18.5429L18.6609 7.57866C18.7626 7.29154 19.0349 7.0882 19.353 7.0882C19.7591 7.0882 20.0883 7.41741 20.0883 7.82348H20.5883H21.0883C21.0883 7.41745 21.4176 7.0882 21.8236 7.0882C22.2296 7.0882 22.5589 7.41741 22.5589 7.82348H23.0589H23.5589C23.5589 7.41745 23.8881 7.0882 24.2942 7.0882C24.7002 7.0882 25.0294 7.41741 25.0294 7.82348V9.47056ZM10.7059 12.4412H11.2059V11.9412V9.47056V8.97056H10.7059H4.94118H4.44118V9.47056V11.9412V12.4412H4.94118H10.7059Z" stroke="#19C2EF" stroke-opacity="0.55"/>
<defs>
<linearGradient id="paint0_linear_546_2381" x1="14" y1="4.94118" x2="14" y2="23.0588" gradientUnits="userSpaceOnUse">
<stop stop-color="#0974F8"/>
<stop offset="1" stop-color="#4FB2FE"/>
</linearGradient>
</defs>
</svg>
