<svg width="28" height="28" viewBox="0 0 28 28" fill="none" xmlns="http://www.w3.org/2000/svg">
<path d="M17.5814 15.9049C17.5814 17.8824 15.9775 19.4862 14 19.4862C12.0225 19.4862 10.4186 17.8824 10.4186 15.9049C10.4186 11.1282 17.5814 11.1282 17.5814 15.9049ZM14 2.16387C20.2519 2.21375 27.3621 6.622 28 14.9292H19.5326C19.5326 14.9292 18.4441 10.3399 14 10.3722C9.55587 10.3994 8.46737 14.9292 8.46737 14.9292H0C0.410375 6.76725 7.40163 2.11312 14 2.16387ZM14.0595 25.8361C9.3975 25.8492 5.04 22.3317 3.25413 16.8805H8.46825C8.46825 16.8805 9.58913 21.4191 14.0324 21.3876C18.4809 21.3605 19.5379 16.8805 19.5379 16.8805H24.7467C23.5847 22.645 18.7215 25.8221 14.0595 25.8361Z" fill="url(#paint0_linear_546_2390)"/>
<path d="M0.535588 14.4292H8.09634C8.13443 14.3168 8.18294 14.1834 8.2432 14.034C8.42568 13.5816 8.71897 12.9759 9.16304 12.3665C10.0567 11.14 11.5745 9.88719 13.9965 9.87226M0.535588 14.4292H19.5326H19.9051M0.535588 14.4292C1.19595 6.91603 7.74888 2.61588 13.996 2.66386L0.535588 14.4292ZM13.9965 9.87226C13.9967 9.87226 13.9968 9.87226 13.9969 9.87226L14 10.3722L13.9964 9.87226C13.9964 9.87226 13.9965 9.87226 13.9965 9.87226ZM13.9965 9.87226C16.4233 9.85464 17.944 11.1106 18.8379 12.3454C19.282 12.9589 19.5752 13.5705 19.7575 14.0274C19.8182 14.1794 19.8669 14.3151 19.9051 14.4292M19.9051 14.4292H27.4502M19.9051 14.4292H27.4502M27.4502 14.4292C26.5781 6.78701 19.9147 2.71114 13.9962 2.66386L27.4502 14.4292ZM24.1197 17.3805C22.8041 22.5118 18.3405 25.3233 14.058 25.3361C9.84641 25.3479 5.81676 22.2944 3.96033 17.3805H8.09949C8.13855 17.4936 8.18837 17.6283 8.25029 17.7791C8.43595 18.2312 8.73354 18.8362 9.18198 19.443C10.0845 20.6643 11.6123 21.9046 14.0354 21.8876C14.0356 21.8876 14.0358 21.8876 14.0359 21.8876L14.0324 21.3876L24.1197 17.3805ZM24.1197 17.3805H19.91H24.1197ZM17.0814 15.9049C17.0814 17.6062 15.7014 18.9862 14 18.9862C12.2986 18.9862 10.9186 17.6062 10.9186 15.9049C10.9186 14.8463 11.3105 14.0892 11.87 13.5917C12.4388 13.086 13.2112 12.8224 14 12.8224C14.7888 12.8224 15.5612 13.086 16.13 13.5917C16.6895 14.0892 17.0814 14.8463 17.0814 15.9049Z" stroke="#19C2EF" stroke-opacity="0.55"/>
<defs>
<linearGradient id="paint0_linear_546_2390" x1="14" y1="2.16346" x2="14" y2="25.8362" gradientUnits="userSpaceOnUse">
<stop stop-color="#0974F8"/>
<stop offset="1" stop-color="#4FB2FE"/>
</linearGradient>
</defs>
</svg>
