<svg width="28" height="28" viewBox="0 0 28 28" fill="none" xmlns="http://www.w3.org/2000/svg">
<g clip-path="url(#clip0_546_2425)">
<path d="M10.7188 27.125C9.80962 27.125 9.07812 26.3935 9.07812 25.4844V18.9219H2.51562C1.6065 18.9219 0.875 18.1904 0.875 17.2812V10.7188C0.875 9.80962 1.6065 9.07812 2.51562 9.07812H9.07812V2.51562C9.07812 1.6065 9.80962 0.875 10.7188 0.875H17.2812C18.1904 0.875 18.9219 1.6065 18.9219 2.51562V9.07812H25.4844C26.3935 9.07812 27.125 9.80962 27.125 10.7188V17.2812C27.125 18.1904 26.3935 18.9219 25.4844 18.9219H18.9219V25.4844C18.9219 26.3935 18.1904 27.125 17.2812 27.125H10.7188ZM10.7188 19.7418H17.2812L14 16.4605L10.7188 19.7418ZM10.7188 15.6406H17.2812L14 12.3594L10.7188 15.6406ZM10.7188 11.5386H17.2812L14 8.25738L10.7188 11.5386Z" fill="url(#paint0_linear_546_2425)"/>
<path d="M9.57812 18.9219V18.4219H9.07812H2.51562C1.88264 18.4219 1.375 17.9142 1.375 17.2812V10.7188C1.375 10.0858 1.88264 9.57812 2.51562 9.57812H9.07812H9.57812V9.07812V2.51562C9.57812 1.88264 10.0858 1.375 10.7188 1.375H17.2812C17.9142 1.375 18.4219 1.88264 18.4219 2.51562V9.07812V9.57812H18.9219H25.4844C26.1174 9.57812 26.625 10.0858 26.625 10.7188V17.2812C26.625 17.9142 26.1174 18.4219 25.4844 18.4219H18.9219H18.4219V18.9219V20.1753L17.6348 19.3882L14.3872 16.1406H17.2812H18.4884L17.6348 15.2871L14.3864 12.0386H17.2812H18.4884L17.6348 11.1851L14.3536 7.90382L14 7.55027L13.6464 7.90382L10.3652 11.1851L9.51164 12.0386H10.7188H13.6136L10.3652 15.2871L9.51164 16.1406H10.7188H13.6128L10.3652 19.3882L9.57812 20.1753V18.9219ZM17.2812 20.2418H18.4219V25.4844C18.4219 26.1174 17.9142 26.625 17.2812 26.625H10.7188C10.0858 26.625 9.57812 26.1174 9.57812 25.4844V20.2418H10.7188H17.2812Z" stroke="#19C2EF" stroke-opacity="0.55"/>
</g>
<defs>
<linearGradient id="paint0_linear_546_2425" x1="14" y1="0.875" x2="14" y2="27.125" gradientUnits="userSpaceOnUse">
<stop stop-color="#0974F8"/>
<stop offset="1" stop-color="#4FB2FE"/>
</linearGradient>
<clipPath id="clip0_546_2425">
<rect width="28" height="28" fill="white"/>
</clipPath>
</defs>
</svg>
