<svg width="28" height="28" viewBox="0 0 28 28" fill="none" xmlns="http://www.w3.org/2000/svg">
<path d="M14 1.63055L1.36719 10.0524V15.8694L14 7.44755L26.6328 15.8694V10.0524L14 1.63055ZM14 8.63291L5.74219 14.2069V19.1442L14 13.5702L22.2578 19.1442V14.2069L14 8.63291ZM14 14.7579L9.24219 17.9694V21.6663L14 18.4944L18.7578 21.6663V17.9694L14 14.7579ZM14 19.6774L9.24219 22.8493V26.3694L14 23.1976L18.7578 26.3694V22.8493L14 19.6774Z" fill="url(#paint0_linear_546_2418)"/>
<path d="M26.1328 14.9352L14.2774 7.03153L14 6.84663L13.7226 7.03153L1.86719 14.9352V10.32L14 2.23148L26.1328 10.32V14.9352ZM21.7578 18.2035L14.2797 13.1558L14 12.967L13.7203 13.1558L6.24219 18.2035V14.4726L14 9.23615L21.7578 14.4726V18.2035ZM18.2578 20.732L14.2774 18.0784L14 17.8935L13.7226 18.0784L9.74219 20.732V18.2352L14 15.3612L18.2578 18.2352V20.732ZM13.7226 22.7815L9.74219 25.4352V23.1169L14 20.2784L18.2578 23.1169V25.4352L14.2774 22.7815L14 22.5966L13.7226 22.7815Z" stroke="#19C2EF" stroke-opacity="0.55"/>
<defs>
<linearGradient id="paint0_linear_546_2418" x1="14" y1="1.63055" x2="14" y2="26.3694" gradientUnits="userSpaceOnUse">
<stop stop-color="#0974F8"/>
<stop offset="1" stop-color="#4FB2FE"/>
</linearGradient>
</defs>
</svg>
