<svg width="28" height="28" viewBox="0 0 28 28" fill="none" xmlns="http://www.w3.org/2000/svg">
<path d="M14.6644 0.665039C14.2718 0.665039 13.8819 0.681938 13.4955 0.71568L13.7638 3.80886H13.7646C14.0595 3.78359 14.3597 3.77069 14.6644 3.77069C17.4942 3.77156 20.0416 4.91289 21.898 6.76658C23.7517 8.62344 24.894 11.1708 24.894 14.0006C24.894 16.8304 23.7517 19.3778 21.898 21.2342C20.0417 23.0879 17.4943 24.2293 14.6644 24.2302C11.8345 24.2293 9.2872 23.088 7.43077 21.2342C6.43333 20.2354 5.65168 19.0315 5.13297 17.696L6.83386 17.4567L2.44612 11.0447L1.46557 14.0006H1.32967C1.32967 14.1205 1.34389 14.2369 1.34745 14.3564L0 18.4173L1.99139 18.1375C3.73319 23.4756 8.74448 27.3353 14.6644 27.3358C22.0303 27.3354 27.9991 21.3662 28 14.0006C27.9991 6.63473 22.0303 0.665477 14.6644 0.665039Z" fill="url(#paint0_linear_276_2)"/>
<path d="M0.728293 17.81L1.822 14.5138L1.82639 14.5006H1.8265L1.94014 14.1581L2.60311 12.1595L5.96603 17.0738L5.06331 17.2009L4.43842 17.2888L4.66689 17.877C5.21028 19.276 6.02978 20.5389 7.07698 21.5875L7.07748 21.588C9.02365 23.5314 11.6965 24.7292 14.6642 24.7302H14.6646C17.6323 24.7292 20.3052 23.5313 22.2513 21.588L22.2518 21.5875C24.1951 19.6415 25.394 16.9686 25.394 14.0006C25.394 11.0326 24.1951 8.35983 22.2519 6.41333L22.2513 6.41276C20.3051 4.46946 17.6323 3.27161 14.6646 3.27069H14.6644C14.5152 3.27069 14.3669 3.27365 14.2197 3.27951L14.0377 1.18005C14.2456 1.17005 14.4545 1.16504 14.6644 1.16504L0.728293 17.81ZM0.728293 17.81L1.92183 17.6423L2.33675 17.584L2.46673 17.9824C4.14353 23.1213 8.96764 26.8353 14.6644 26.8358L0.728293 17.81ZM14.6644 1.16504C21.7542 1.16547 27.4992 6.91086 27.5 14.0007C27.4992 21.09 21.7542 26.8353 14.6644 26.8358L14.6644 1.16504Z" stroke="#19C2EF" stroke-opacity="0.55"/>
<path d="M6.18189 8.28112C6.3489 8.03327 6.52833 7.79216 6.7175 7.55722L4.30337 5.60449C4.05914 5.90648 3.82639 6.21863 3.60791 6.54331L6.18107 8.28112H6.18189Z" fill="url(#paint1_linear_276_2)"/>
<path d="M4.38475 6.31341L5.5172 7.22942L4.31001 6.41414C4.33476 6.38044 4.35967 6.34686 4.38475 6.31341Z" stroke="#19C2EF" stroke-opacity="0.55"/>
<path d="M10.5964 4.61093C11.0929 4.39557 11.6098 4.21882 12.1436 4.0833L11.3816 1.07227C10.6834 1.24902 10.0084 1.48089 9.35999 1.76242L10.5964 4.61044V4.61093H10.5964Z" fill="url(#paint2_linear_276_2)"/>
<path d="M11.5391 3.73285C11.3097 3.80256 11.0836 3.87969 10.8609 3.96405L10.0216 2.03087C10.3487 1.90378 10.6823 1.78968 11.0219 1.68927L11.5391 3.73285Z" stroke="#19C2EF" stroke-opacity="0.55"/>
<path d="M9.15206 5.38202L7.47512 2.76758C6.87378 3.15263 6.30623 3.58516 5.77686 4.05902L7.84732 6.37329C8.25409 6.00956 8.69022 5.67734 9.15206 5.38202Z" fill="url(#paint3_linear_276_2)"/>
<path d="M7.32932 3.46636L8.46727 5.24051C8.27123 5.37935 8.08016 5.52465 7.89435 5.67596L6.48922 4.10538C6.76009 3.88117 7.04031 3.66791 7.32932 3.46636Z" stroke="#19C2EF" stroke-opacity="0.55"/>
<defs>
<linearGradient id="paint0_linear_276_2" x1="14" y1="0.665039" x2="14" y2="27.3358" gradientUnits="userSpaceOnUse">
<stop stop-color="#0974F8"/>
<stop offset="1" stop-color="#4FB2FE"/>
</linearGradient>
<linearGradient id="paint1_linear_276_2" x1="5.1627" y1="5.60449" x2="5.1627" y2="8.28112" gradientUnits="userSpaceOnUse">
<stop stop-color="#0974F8"/>
<stop offset="1" stop-color="#4FB2FE"/>
</linearGradient>
<linearGradient id="paint2_linear_276_2" x1="10.7518" y1="1.07227" x2="10.7518" y2="4.61093" gradientUnits="userSpaceOnUse">
<stop stop-color="#0974F8"/>
<stop offset="1" stop-color="#4FB2FE"/>
</linearGradient>
<linearGradient id="paint3_linear_276_2" x1="7.46446" y1="2.76758" x2="7.46446" y2="6.37329" gradientUnits="userSpaceOnUse">
<stop stop-color="#0974F8"/>
<stop offset="1" stop-color="#4FB2FE"/>
</linearGradient>
</defs>
</svg>
