<svg width="28" height="28" viewBox="0 0 28 28" fill="none" xmlns="http://www.w3.org/2000/svg">
<g clip-path="url(#clip0_262_9178)">
<path d="M13.5872 16.9801C13.5527 16.2467 12.921 15.6825 12.1868 15.6825H11.8269C12.2406 15.4265 12.508 14.957 12.4714 14.4268C12.4215 13.7066 11.7972 13.1602 11.0752 13.1602H10.0811C10.1221 13.6445 9.96544 14.3086 9.61707 14.699C9.47711 14.8558 9.31687 14.9749 9.14442 15.06C9.08624 15.0887 9.1056 15.1754 9.17049 15.1754H9.52584C9.67314 15.1754 9.81557 15.2463 9.89184 15.3722C10.057 15.645 9.85164 15.9809 9.54777 15.9809H7.37637C7.29873 15.9809 7.22274 16.0033 7.15758 16.0453L7.15703 16.0457C6.85775 16.2414 6.67246 16.5747 6.67246 16.942C6.67246 17.3092 6.85775 17.6425 7.15703 17.8383L7.15721 17.8384C7.2254 17.8814 7.30433 17.9043 7.385 17.9043H10.0439C10.3142 17.9043 10.5087 18.1705 10.4285 18.425C10.3736 18.5991 10.2017 18.7098 10.0191 18.7098H7.38491C7.30433 18.7098 7.22531 18.7327 7.15712 18.7757L7.15694 18.7758C6.85766 18.9716 6.67236 19.3049 6.67236 19.6721C6.67236 20.0393 6.85766 20.3726 7.15694 20.5684L7.15712 20.5685C7.21852 20.6107 7.2913 20.6332 7.36573 20.6332H9.21683C9.45517 20.6332 9.66332 20.855 9.61165 21.1162C9.57384 21.3072 9.39616 21.4387 9.20142 21.4387H7.38325C7.30625 21.4387 7.2299 21.4592 7.16501 21.5008C6.86096 21.6959 6.67236 22.0318 6.67236 22.4023C6.67236 22.91 7.03579 23.3535 7.53211 23.4539H10.0078C10.7298 23.4539 11.3542 22.9074 11.4039 22.1872C11.4405 21.6571 11.1731 21.1876 10.7597 20.9317H11.1668C11.8888 20.9317 12.5131 20.3852 12.5629 19.6649C12.5995 19.1348 12.3321 18.6654 11.9186 18.4094H12.2253C13.0002 18.4095 13.6241 17.7631 13.5872 16.9801Z" fill="url(#paint0_linear_262_9178)"/>
<path d="M10.113 14.8783C10.1925 14.9416 10.263 15.0199 10.3195 15.1132L10.3195 15.1132C10.5049 15.4192 10.4843 15.7552 10.3352 16.0176L11.5638 15.2573C11.828 15.0939 11.9957 14.7969 11.9726 14.4614L10.113 14.8783ZM10.113 14.8783C10.3668 14.5254 10.513 14.0776 10.5652 13.6602M10.113 14.8783L10.5652 13.6602M10.5652 13.6602H11.0752C11.5524 13.6602 11.942 14.0207 11.9726 14.4613L10.5652 13.6602ZM10.7597 20.9317C10.9206 21.0313 11.0594 21.1633 11.1668 21.3186C11.1917 21.3547 11.2149 21.392 11.2363 21.4304C11.2132 21.4313 11.19 21.4317 11.1668 21.4317H10.7597V20.9317ZM10.7597 20.9317H11.1668C11.2718 20.9317 11.3748 20.9201 11.4743 20.8981C11.3832 20.7892 11.28 20.6909 11.1668 20.6053C11.1204 20.5702 11.0724 20.5372 11.0229 20.5066L10.7597 20.9317ZM13.0877 17.0036L13.0877 17.0037C13.1111 17.5003 12.7161 17.9095 12.2254 17.9094H12.2253H11.9186H10.8536C10.7081 17.6158 10.4061 17.4043 10.0439 17.4043H7.40812C7.26143 17.298 7.17246 17.1287 7.17246 16.942C7.17246 16.7559 7.26085 16.5871 7.40646 16.4809H9.54777C9.8157 16.4809 10.0519 16.3633 10.2158 16.1825H11.8269H12.1868C12.6728 16.1825 13.0666 16.5553 13.0877 17.0036ZM10.9428 18.3934L11.6554 18.8346C11.9195 18.998 12.0872 19.295 12.0641 19.6305L12.0641 19.6305C12.0336 20.071 11.644 20.4317 11.1668 20.4317H10.7597H9.88512C9.71623 20.2473 9.47379 20.1332 9.21683 20.1332H7.40638C7.26071 20.0269 7.17236 19.8581 7.17236 19.6721C7.17236 19.4853 7.2614 19.3159 7.40801 19.2098H10.0191C10.3901 19.2098 10.7763 18.9847 10.9053 18.5754L10.9053 18.5753C10.9245 18.5146 10.9368 18.4537 10.9428 18.3934ZM10.1158 21.1211L10.4965 21.3568C10.7606 21.5203 10.9283 21.8173 10.9051 22.1527C10.8747 22.5933 10.485 22.9539 10.0078 22.9539H7.59031C7.34796 22.8854 7.17236 22.6577 7.17236 22.4023C7.17236 22.2149 7.26203 22.0449 7.4098 21.9387H9.20142C9.6085 21.9387 10.013 21.6634 10.1021 21.2132L10.1021 21.2132C10.1083 21.1822 10.1128 21.1515 10.1158 21.1211Z" stroke="#19C2EF" stroke-opacity="0.55"/>
<mask id="path-3-inside-1_262_9178" fill="white">
<path d="M6.68311 14.3613C6.72633 14.6714 6.90254 14.9448 7.16493 15.1133C7.22963 15.1549 7.30589 15.1754 7.3828 15.1754H7.60976C7.67602 15.1754 7.69447 15.0853 7.63362 15.0591C7.42098 14.9676 7.21935 14.8401 7.04057 14.6806L6.68311 14.3613Z"/>
</mask>
<path d="M6.68311 14.3613C6.72633 14.6714 6.90254 14.9448 7.16493 15.1133C7.22963 15.1549 7.30589 15.1754 7.3828 15.1754H7.60976C7.67602 15.1754 7.69447 15.0853 7.63362 15.0591C7.42098 14.9676 7.21935 14.8401 7.04057 14.6806L6.68311 14.3613Z" fill="url(#paint1_linear_262_9178)"/>
<path d="M6.68311 14.3613L7.34926 13.6155L5.31638 11.7997L5.69268 14.4994L6.68311 14.3613ZM7.16493 15.1133L7.7055 14.272L7.70528 14.2719L7.16493 15.1133ZM7.63362 15.0591L7.23836 15.9777L7.2387 15.9778L7.63362 15.0591ZM7.04057 14.6806L6.37441 15.4264L6.37483 15.4268L7.04057 14.6806ZM5.69268 14.4994C5.77644 15.1003 6.11839 15.6297 6.62457 15.9548L7.70528 14.2719C7.68669 14.26 7.67622 14.2426 7.67353 14.2233L5.69268 14.4994ZM6.62435 15.9546C6.86414 16.1087 7.13135 16.1754 7.3828 16.1754V14.1754C7.48043 14.1754 7.59511 14.2011 7.7055 14.272L6.62435 15.9546ZM7.3828 16.1754H7.60976V14.1754H7.3828V16.1754ZM7.60976 16.1754C8.76823 16.1754 9.08297 14.5936 8.02855 14.1404L7.2387 15.9778C6.30597 15.5769 6.58382 14.1754 7.60976 14.1754V16.1754ZM8.02888 14.1405C7.91451 14.0913 7.80432 14.0219 7.70631 13.9344L6.37483 15.4268C6.63437 15.6584 6.92745 15.8439 7.23836 15.9777L8.02888 14.1405ZM7.70673 13.9348L7.34926 13.6155L6.01695 15.1071L6.37441 15.4264L7.70673 13.9348Z" fill="#19C2EF" fill-opacity="0.55" mask="url(#path-3-inside-1_262_9178)"/>
<path d="M5.86683 14.212C5.86683 14.0337 5.89344 13.8618 5.93997 13.6983L5.6484 13.438C5.5067 13.3114 5.48486 13.0846 5.61977 12.9333C5.75147 12.786 5.97733 12.7733 6.12444 12.9048L7.51667 14.1474C7.98665 14.5668 8.68965 14.509 9.0919 14.0582C9.50168 13.5991 9.46167 12.8924 9.0027 12.4827L6.56074 10.3028C6.1148 9.90463 5.43815 9.92739 5.0202 10.3547L5.00965 10.365C1.82899 13.3656 1.13388 14.1098 0.878932 14.4313C0.211909 15.2722 0 15.8952 0 16.7986V19.5964C0 21.7235 1.73052 23.4541 3.85768 23.4541C4.6363 23.4541 5.41318 23.4541 6.18951 23.4541C5.98687 23.1551 5.86674 22.7852 5.86674 22.4024C5.86674 21.874 6.08516 21.385 6.45373 21.0373C6.08516 20.6896 5.86674 20.2006 5.86674 19.6722C5.86674 19.1437 6.08516 18.6548 6.45373 18.3071C6.08516 17.9595 5.86674 17.4705 5.86674 16.9421C5.86674 16.4136 6.08516 15.9246 6.45373 15.577C6.08516 15.2292 5.86683 14.7404 5.86683 14.212Z" fill="url(#paint2_linear_262_9178)"/>
<path d="M5.43226 22.9541H5.42964H5.42509H5.42054H5.41599H5.41144H5.40689H5.40233H5.39778H5.39323H5.38868H5.38413H5.37957H5.37502H5.37047H5.36592H5.36137H5.35682H5.35226H5.34771H5.34316H5.33861H5.33405H5.3295H5.32495H5.3204H5.31585H5.31129H5.30674H5.30219H5.29764H5.29309H5.28853H5.28398H5.27943H5.27488H5.27032H5.26577H5.26122H5.25667H5.25211H5.24756H5.24301H5.23846H5.2339H5.22935H5.2248H5.22025H5.21569H5.21114H5.20659H5.20203H5.19748H5.19293H5.18838H5.18382H5.17927H5.17472H5.17016H5.16561H5.16106H5.15651H5.15195H5.1474H5.14285H5.13829H5.13374H5.12919H5.12463H5.12008H5.11553H5.11097H5.10642H5.10187H5.09731H5.09276H5.08821H5.08365H5.0791H5.07455H5.06999H5.06544H5.06089H5.05633H5.05178H5.04723H5.04267H5.03812H5.03356H5.02901H5.02446H5.0199H5.01535H5.0108H5.00624H5.00169H4.99713H4.99258H4.98803H4.98347H4.97892H4.97436H4.96981H4.96526H4.9607H4.95615H4.95159H4.94704H4.94248H4.93793H4.93338H4.92882H4.92427H4.91971H4.91516H4.9106H4.90605H4.9015H4.89694H4.89239H4.88783H4.88328H4.87872H4.87417H4.86961H4.86506H4.8605H4.85595H4.85139H4.84684H4.84228H4.83773H4.83317H4.82862H4.82406H4.81951H4.81495H4.8104H4.80584H4.80129H4.79673H4.79218H4.78762H4.78307H4.77851H4.77396H4.7694H4.76485H4.76029H4.75574H4.75118H4.74663H4.74207H4.73751H4.73296H4.7284H4.72385H4.71929H4.71474H4.71018H4.70563H4.70107H4.69651H4.69196H4.6874H4.68285H4.67829H4.67373H4.66918H4.66462H4.66007H4.65551H4.65095H4.6464H4.64184H4.63729H4.63273H4.62817H4.62362H4.61906H4.6145H4.60995H4.60539H4.60084H4.59628H4.59172H4.58717H4.58261H4.57805H4.5735H4.56894H4.56438H4.55983H4.55527H4.55071H4.54616H4.5416H4.53704H4.53249H4.52793H4.52337H4.51881H4.51426H4.5097H4.50514H4.50059H4.49603H4.49147H4.48691H4.48236H4.4778H4.47324H4.46869H4.46413H4.45957H4.45501H4.45046H4.4459H4.44134H4.43678H4.43223H4.42767H4.42311H4.41855H4.41399H4.40944H4.40488H4.40032H4.39576H4.39121H4.38665H4.38209H4.37753H4.37297H4.36842H4.36386H4.3593H4.35474H4.35018H4.34562H4.34107H4.33651H4.33195H4.32739H4.32283H4.31827H4.31372H4.30916H4.3046H4.30004H4.29548H4.29092H4.28636H4.28181H4.27725H4.27269H4.26813H4.26357H4.25901H4.25445H4.24989H4.24533H4.24078H4.23622H4.23166H4.2271H4.22254H4.21798H4.21342H4.20886H4.2043H4.19974H4.19518H4.19062H4.18606H4.1815H4.17694H4.17239H4.16783H4.16327H4.15871H4.15415H4.14959H4.14503H4.14047H4.13591H4.13135H4.12679H4.12223H4.11767H4.11311H4.10855H4.10399H4.09943H4.09487H4.09031H4.08575H4.08119H4.07663H4.07206H4.0675H4.06294H4.05838H4.05382H4.04926H4.0447H4.04014H4.03558H4.03102H4.02646H4.0219H4.01734H4.01278H4.00822H4.00365H3.99909H3.99453H3.98997H3.98541H3.98085H3.97629H3.97173H3.96717H3.9626H3.95804H3.95348H3.94892H3.94436H3.9398H3.93524H3.93067H3.92611H3.92155H3.91699H3.91243H3.90787H3.9033H3.89874H3.89418H3.88962H3.88506H3.88049H3.87593H3.87137H3.86681H3.86225H3.85768C2.00666 22.9541 0.5 21.4474 0.5 19.5964V16.7986C0.5 16.3883 0.547827 16.0678 0.659055 15.7628C0.771293 15.4552 0.9581 15.136 1.27066 14.742L1.27069 14.7419C1.49795 14.4554 2.16128 13.7395 5.35276 10.7287L5.3528 10.7287L5.35851 10.7232L5.36906 10.7129L5.36916 10.713L5.37765 10.7043C5.60859 10.4682 5.9811 10.4555 6.22775 10.6757L6.22777 10.6757L8.66972 12.8557L8.66974 12.8557C8.92262 13.0814 8.94485 13.4721 8.71889 13.7252L8.71883 13.7253C8.49565 13.9754 8.10822 14.0051 7.84962 13.7744C7.84961 13.7744 7.8496 13.7744 7.84959 13.7743L6.45755 12.5319L5.43226 22.9541ZM5.43226 22.9541C5.38948 22.7756 5.36674 22.5904 5.36674 22.4024C5.36674 21.9021 5.52188 21.4287 5.79617 21.0373M5.43226 22.9541L5.79617 21.0373M5.79617 21.0373C5.52189 20.6459 5.36674 20.1725 5.36674 19.6722C5.36674 19.1719 5.52187 18.6985 5.79615 18.3071M5.79617 21.0373L5.79615 18.3071M5.79615 18.3071C5.52187 17.9157 5.36674 17.4423 5.36674 16.9421C5.36674 16.4417 5.52188 15.9683 5.79617 15.577M5.79615 18.3071L5.79617 15.577M5.79617 15.577C5.52192 15.1856 5.36683 14.7122 5.36683 14.212C5.36683 14.0981 5.37532 13.9868 5.39104 13.8785L5.31543 13.811L5.31534 13.8109C4.97639 13.5082 4.9204 12.9662 5.24664 12.6005L5.24703 12.6C5.5625 12.2472 6.1042 12.2164 6.45739 12.5317L5.79617 15.577Z" stroke="#19C2EF" stroke-opacity="0.55"/>
<mask id="path-7-inside-2_262_9178" fill="white">
<path d="M20.8427 15.1083L20.843 15.1081C21.1011 14.9392 21.2742 14.6683 21.3169 14.3613L20.7591 14.8356C20.6826 14.904 20.6038 14.9631 20.5234 15.0134C20.4489 15.0599 20.4843 15.1753 20.5719 15.1753H20.63C20.7061 15.1754 20.7804 15.1519 20.8427 15.1083Z"/>
</mask>
<path d="M20.8427 15.1083L20.843 15.1081C21.1011 14.9392 21.2742 14.6683 21.3169 14.3613L20.7591 14.8356C20.6826 14.904 20.6038 14.9631 20.5234 15.0134C20.4489 15.0599 20.4843 15.1753 20.5719 15.1753H20.63C20.7061 15.1754 20.7804 15.1519 20.8427 15.1083Z" fill="url(#paint3_linear_262_9178)"/>
<path d="M20.8427 15.1083L20.289 14.2756L20.2792 14.2821L20.2695 14.2889L20.8427 15.1083ZM20.843 15.1081L20.2955 14.2713L20.2893 14.2754L20.843 15.1081ZM21.3169 14.3613L22.3073 14.499L22.6688 11.8989L20.669 13.5995L21.3169 14.3613ZM20.7591 14.8356L20.1113 14.0738L20.102 14.0817L20.0929 14.0898L20.7591 14.8356ZM20.5234 15.0134L21.0535 15.8613L21.0537 15.8612L20.5234 15.0134ZM20.63 15.1753L20.6312 14.1753H20.63V15.1753ZM21.3965 15.941L21.3967 15.9408L20.2893 14.2754L20.289 14.2756L21.3965 15.941ZM21.3906 15.9449C21.8885 15.6191 22.2246 15.0942 22.3073 14.499L20.3264 14.2236C20.3238 14.2424 20.3137 14.2594 20.2955 14.2713L21.3906 15.9449ZM20.669 13.5995L20.1113 14.0738L21.407 15.5974L21.9647 15.1231L20.669 13.5995ZM20.0929 14.0898C20.0574 14.1216 20.0238 14.1463 19.993 14.1656L21.0537 15.8612C21.1837 15.7799 21.3078 15.6864 21.4253 15.5814L20.0929 14.0898ZM19.9933 14.1655C19.0079 14.7815 19.5496 16.1753 20.5719 16.1753V14.1753C21.4189 14.1753 21.89 15.3384 21.0535 15.8613L19.9933 14.1655ZM20.5719 16.1753H20.63V14.1753H20.5719V16.1753ZM20.6288 16.1753C20.9114 16.1756 21.1861 16.0885 21.416 15.9277L20.2695 14.2889C20.3747 14.2153 20.5008 14.1751 20.6312 14.1753L20.6288 16.1753Z" fill="#19C2EF" fill-opacity="0.55" mask="url(#path-7-inside-2_262_9178)"/>
<path d="M18.783 20.6333H20.6256C20.7026 20.6333 20.778 20.6109 20.8425 20.5688L20.8431 20.5684C21.1424 20.3726 21.3277 20.0394 21.3277 19.6722C21.3277 19.3051 21.1424 18.9717 20.8431 18.776L20.8425 18.7756C20.7769 18.7328 20.7002 18.7099 20.6217 18.7099H17.9795C17.8324 18.7099 17.6899 18.6397 17.613 18.5143C17.4463 18.2426 17.6509 17.9044 17.9561 17.9044H20.6048C20.6887 17.9044 20.7709 17.8816 20.8429 17.8384L20.8432 17.8383C21.1425 17.6425 21.3277 17.3092 21.3277 16.9421C21.3277 16.5749 21.1424 16.2417 20.8432 16.0458L20.8426 16.0455C20.7766 16.0034 20.6999 15.981 20.6216 15.981H18.4523C18.1501 15.981 17.9438 15.6479 18.107 15.3739C18.1824 15.2472 18.3248 15.1754 18.4722 15.1754H18.9122C19.0032 15.1754 19.0346 15.0553 18.9555 15.0105C18.7486 14.8932 18.5521 14.7326 18.3748 14.534C18.0507 14.1711 17.8733 13.6911 17.9181 13.1602H16.9249C16.2029 13.1602 15.5786 13.7066 15.5287 14.4268C15.492 14.957 15.7596 15.4265 16.1732 15.6825H15.8133C15.0791 15.6825 14.4474 16.2467 14.4129 16.9801C14.376 17.7631 14.9999 18.4094 15.7749 18.4094H16.0816C15.6681 18.6655 15.4006 19.1348 15.4373 19.6649C15.4872 20.3852 16.1114 20.9317 16.8334 20.9317H17.2405C16.8271 21.1876 16.5596 21.6571 16.5963 22.1872C16.6461 22.9074 17.2704 23.4539 17.9924 23.4539H20.4681C20.9637 23.3536 21.3279 22.9108 21.3279 22.4023C21.3279 22.0352 21.1426 21.7019 20.8434 21.5061L20.8433 21.506C20.7775 21.4621 20.7002 21.4387 20.6212 21.4387H18.7989C18.6042 21.4387 18.4265 21.3073 18.3886 21.1164C18.3363 20.8555 18.5444 20.6333 18.783 20.6333Z" fill="url(#paint4_linear_262_9178)"/>
<path d="M20.5691 19.1942L20.5694 19.1944C20.5693 19.1944 20.5692 19.1943 20.5691 19.1942ZM20.5691 19.1942L20.6217 19.1137L20.8057 18.832L20.8425 18.7756M20.5691 19.1942L20.5655 19.1919L20.5656 19.1919L20.565 19.1915L20.6217 19.1065L20.8425 18.7756M20.8425 18.7756L20.8431 18.776L20.8425 18.7756ZM17.8844 21.1211L17.5037 21.3568C17.2396 21.5203 17.0719 21.8172 17.0951 22.1527L17.8844 21.1211ZM17.8844 21.1211C17.8874 21.1519 17.892 21.1829 17.8983 21.2143M17.8844 21.1211L17.0951 22.1527C17.1256 22.5933 17.5152 22.9539 17.9924 22.9539H20.4099C20.652 22.8854 20.8279 22.6581 20.8279 22.4023C20.8279 22.2149 20.7381 22.0448 20.5904 21.9387H18.7989C18.3922 21.9387 17.9878 21.6639 17.8983 21.2143M17.8983 21.2143C17.8983 21.2141 17.8982 21.214 17.8982 21.2138L18.3886 21.1164L17.8984 21.2147C17.8984 21.2146 17.8983 21.2144 17.8983 21.2143ZM17.4356 13.6602C17.4995 14.0988 17.6863 14.4969 17.9636 14.8231C17.8509 14.8951 17.7517 14.9933 17.6774 15.118L17.6774 15.1181C17.4955 15.4235 17.5168 15.7569 17.6648 16.0175L16.4363 15.2573C16.1721 15.0938 16.0043 14.7968 16.0275 14.4614L16.0275 14.4614C16.058 14.0208 16.4477 13.6602 16.9249 13.6602H17.4356ZM17.7842 16.1825C17.9482 16.3634 18.1846 16.481 18.4523 16.481H20.5936C20.7394 16.5873 20.8277 16.7561 20.8277 16.9421C20.8277 17.1288 20.7387 17.2982 20.592 17.4044H17.9561C17.5956 17.4044 17.2931 17.617 17.1463 17.9094H16.0816H15.7749C15.2839 17.9094 14.889 17.5001 14.9124 17.0037L14.9124 17.0036C14.9335 16.5553 15.3273 16.1825 15.8133 16.1825H16.1732H17.7842ZM17.0555 18.3945C17.0685 18.5221 17.1105 18.6515 17.1867 18.7757L17.1868 18.7758C17.3659 19.0678 17.6813 19.2099 17.9795 19.2099H20.5919C20.7386 19.316 20.8277 19.4855 20.8277 19.6722C20.8277 19.8583 20.7393 20.027 20.5935 20.1333H18.783C18.5262 20.1333 18.2837 20.2473 18.1148 20.4317H17.2405H16.8334C16.3563 20.4317 15.9666 20.0711 15.9361 19.6304L15.9361 19.6304C15.9129 19.295 16.0805 18.9982 16.3448 18.8345L17.0555 18.3945Z" stroke="#19C2EF" stroke-opacity="0.55"/>
<path d="M27.1209 14.431C27.058 14.2998 26.9741 14.1761 26.8668 14.0663L26.2001 13.385L22.9796 10.3547C22.5616 9.92735 21.885 9.90469 21.4392 10.3027L18.9972 12.4827C18.5371 12.8934 18.497 13.5979 18.9078 14.0581C19.3171 14.5166 20.0212 14.5596 20.4832 14.1474L21.8754 12.9047C22.0227 12.7732 22.2484 12.7862 22.3801 12.9333C22.4976 13.065 22.499 13.2592 22.3928 13.3929C22.3578 13.4369 22.1065 13.6566 22.0599 13.6982C22.1066 13.8618 22.1332 14.0337 22.1332 14.212C22.1332 14.7404 21.9148 15.2293 21.5462 15.577C21.9148 15.9247 22.1332 16.4137 22.1332 16.9421C22.1332 17.4705 21.9148 17.9595 21.5462 18.3072C21.9148 18.6548 22.1332 19.1438 22.1332 19.6722C22.1332 20.2007 21.9148 20.6897 21.5462 21.0374C21.9148 21.385 22.1332 21.874 22.1332 22.4025C22.1332 22.7857 22.0129 23.1554 21.8104 23.4541C22.5867 23.4541 23.3641 23.4541 24.1423 23.4541C26.2695 23.4541 28 21.7234 28 19.5963V16.7986C28 15.8949 27.6681 15.0679 27.1209 14.431Z" fill="url(#paint5_linear_262_9178)"/>
<path d="M26.67 14.6471L26.6986 14.7067L26.7417 14.7568C27.2145 15.3071 27.5 16.0196 27.5 16.7986V19.5963C27.5 21.4473 25.9933 22.9541 24.1423 22.9541H24.1378H24.1332H24.1286H24.1241H24.1195H24.115H24.1104H24.1058H24.1013H24.0967H24.0922H24.0876H24.083H24.0785H24.0739H24.0694H24.0648H24.0602H24.0557H24.0511H24.0466H24.042H24.0374H24.0329H24.0283H24.0238H24.0192H24.0146H24.0101H24.0055H24.001H23.9964H23.9918H23.9873H23.9827H23.9782H23.9736H23.9691H23.9645H23.9599H23.9554H23.9508H23.9463H23.9417H23.9371H23.9326H23.928H23.9235H23.9189H23.9143H23.9098H23.9052H23.9007H23.8961H23.8915H23.887H23.8824H23.8779H23.8733H23.8688H23.8642H23.8596H23.8551H23.8505H23.846H23.8414H23.8368H23.8323H23.8277H23.8232H23.8186H23.814H23.8095H23.8049H23.8004H23.7958H23.7913H23.7867H23.7821H23.7776H23.773H23.7685H23.7639H23.7593H23.7548H23.7502H23.7457H23.7411H23.7366H23.732H23.7274H23.7229H23.7183H23.7138H23.7092H23.7047H23.7001H23.6955H23.691H23.6864H23.6819H23.6773H23.6727H23.6682H23.6636H23.6591H23.6545H23.65H23.6454H23.6408H23.6363H23.6317H23.6272H23.6226H23.6181H23.6135H23.6089H23.6044H23.5998H23.5953H23.5907H23.5861H23.5816H23.577H23.5725H23.5679H23.5634H23.5588H23.5542H23.5497H23.5451H23.5406H23.536H23.5315H23.5269H23.5223H23.5178H23.5132H23.5087H23.5041H23.4996H23.495H23.4904H23.4859H23.4813H23.4768H23.4722H23.4677H23.4631H23.4585H23.454H23.4494H23.4449H23.4403H23.4358H23.4312H23.4266H23.4221H23.4175H23.413H23.4084H23.4039H23.3993H23.3948H23.3902H23.3856H23.3811H23.3765H23.372H23.3674H23.3629H23.3583H23.3537H23.3492H23.3446H23.3401H23.3355H23.331H23.3264H23.3219H23.3173H23.3127H23.3082H23.3036H23.2991H23.2945H23.29H23.2854H23.2808H23.2763H23.2717H23.2672H23.2626H23.2581H23.2535H23.249H23.2444H23.2398H23.2353H23.2307H23.2262H23.2216H23.2171H23.2125H23.208H23.2034H23.1988H23.1943H23.1897H23.1852H23.1806H23.1761H23.1715H23.167H23.1624H23.1578H23.1533H23.1487H23.1442H23.1396H23.1351H23.1305H23.126H23.1214H23.1168H23.1123H23.1077H23.1032H23.0986H23.0941H23.0895H23.085H23.0804H23.0758H23.0713H23.0667H23.0622H23.0576H23.0531H23.0485H23.044H23.0394H23.0349H23.0303H23.0257H23.0212H23.0166H23.0121H23.0075H23.003H22.9984H22.9939H22.9893H22.9847H22.9802H22.9756H22.9711H22.9665H22.962H22.9574H22.9529H22.9483H22.9438H22.9392H22.9346H22.9301H22.9255H22.921H22.9164H22.9119H22.9073H22.9028H22.8982H22.8937H22.8891H22.8846H22.88H22.8754H22.8709H22.8663H22.8618H22.8572H22.8527H22.8481H22.8436H22.839H22.8345H22.8299H22.8254H22.8208H22.8162H22.8117H22.8071H22.8026H22.798H22.7935H22.7889H22.7844H22.7798H22.7753H22.7707H22.7662H22.7616H22.757H22.7525H22.7479H22.7434H22.7388H22.7343H22.7297H22.7252H22.7206H22.7161H22.7115H22.707H22.7024H22.6979H22.6933H22.6887H22.6842H22.6796H22.6751H22.6705H22.666H22.6614H22.6569H22.6523H22.6478H22.6432H22.6387H22.6341H22.6296H22.625H22.6205H22.6159H22.6113H22.6068H22.6022H22.5977H22.5931H22.5886H22.584H22.5795H22.5749H22.5704H22.5677C22.6104 22.7758 22.6332 22.5906 22.6332 22.4025C22.6332 21.9022 22.4781 21.4288 22.2038 21.0373C22.478 20.6459 22.6332 20.1726 22.6332 19.6722C22.6332 19.172 22.4781 18.6986 22.2038 18.3071C22.478 17.9158 22.6332 17.4424 22.6332 16.9421C22.6332 16.4418 22.478 15.9684 22.2037 15.577C22.478 15.1857 22.6332 14.7123 22.6332 14.212C22.6332 14.0981 22.6247 13.9868 22.609 13.8785C22.632 13.8576 22.6546 13.8368 22.6749 13.8178L22.6772 13.8156C22.6993 13.7949 22.7492 13.748 22.784 13.7042L22.7844 13.7038C23.038 13.3845 23.0368 12.9182 22.7531 12.6003L22.7527 12.5999C22.4375 12.2476 21.896 12.216 21.5424 12.5318L20.1503 13.7743C19.8952 14.002 19.507 13.9785 19.2809 13.7251L19.2808 13.7251C19.054 13.471 19.076 13.0826 19.3302 12.8557C19.3302 12.8556 19.3302 12.8556 19.3302 12.8556L21.7721 10.6757L21.7722 10.6757C22.0187 10.4556 22.3912 10.4682 22.6222 10.7043L22.6294 10.7117L22.637 10.7188L25.85 13.7421L26.5093 14.416C26.576 14.4841 26.6292 14.562 26.67 14.6471Z" stroke="#19C2EF" stroke-opacity="0.55"/>
<path d="M14.6883 11.2853V5.23421C14.6883 4.85399 14.3802 4.5459 14 4.5459C13.6197 4.5459 13.3116 4.85399 13.3116 5.23421V11.2853C13.3116 11.6656 13.6197 11.9736 14 11.9736C14.3801 11.9736 14.6883 11.6655 14.6883 11.2853Z" fill="url(#paint6_linear_262_9178)"/>
<path d="M14.1883 5.23421V11.2853C14.1883 11.3893 14.104 11.4736 14 11.4736C13.8959 11.4736 13.8116 11.3894 13.8116 11.2853V5.23421C13.8116 5.13013 13.8959 5.0459 14 5.0459C14.104 5.0459 14.1883 5.13013 14.1883 5.23421Z" stroke="#19C2EF" stroke-opacity="0.55"/>
<path d="M10.6269 11.5783C10.7889 11.9223 11.1992 12.0696 11.5429 11.9075C11.8868 11.7454 12.0342 11.3354 11.8721 10.9915L9.75576 6.50056C9.59378 6.15668 9.18373 6.00919 8.83975 6.17136C8.49587 6.33344 8.34848 6.74349 8.51055 7.08737L10.6269 11.5783Z" fill="url(#paint7_linear_262_9178)"/>
<path d="M11.0792 11.3653L11.0792 11.3652L8.96285 6.87423L8.96284 6.8742C8.91852 6.78016 8.95877 6.66802 9.05292 6.62364L9.05297 6.62362C9.14705 6.57927 9.25912 6.61956 9.30343 6.71363L9.30347 6.7137L11.4198 11.2046L11.4198 11.2047C11.4641 11.2987 11.4239 11.4108 11.3297 11.4552L11.3296 11.4553C11.2357 11.4996 11.1235 11.4592 11.0792 11.3653Z" stroke="#19C2EF" stroke-opacity="0.55"/>
<path d="M16.4571 11.9076C16.8008 12.0697 17.2111 11.9224 17.3732 11.5784L19.4895 7.08745C19.6516 6.74357 19.5042 6.33342 19.1604 6.17144C18.8166 6.00909 18.4063 6.15676 18.2443 6.50064L16.128 10.9916C15.9659 11.3355 16.1132 11.7455 16.4571 11.9076Z" fill="url(#paint8_linear_262_9178)"/>
<path d="M16.6704 11.4553L16.6703 11.4553C16.5762 11.411 16.5359 11.2989 16.5803 11.2047L16.5803 11.2047L18.6966 6.71378L18.6967 6.71371C18.7411 6.61941 18.8533 6.5794 18.9468 6.62356L18.9473 6.62377C19.0413 6.66803 19.0816 6.78017 19.0373 6.87428L19.0373 6.87431L16.9209 11.3652L16.9209 11.3653C16.8766 11.4594 16.7643 11.4996 16.6704 11.4553Z" stroke="#19C2EF" stroke-opacity="0.55"/>
</g>
<defs>
<linearGradient id="paint0_linear_262_9178" x1="10.1305" y1="13.1602" x2="10.1305" y2="23.4539" gradientUnits="userSpaceOnUse">
<stop stop-color="#0974F8"/>
<stop offset="1" stop-color="#4FB2FE"/>
</linearGradient>
<linearGradient id="paint1_linear_262_9178" x1="7.17688" y1="14.3613" x2="7.17688" y2="15.1754" gradientUnits="userSpaceOnUse">
<stop stop-color="#0974F8"/>
<stop offset="1" stop-color="#4FB2FE"/>
</linearGradient>
<linearGradient id="paint2_linear_262_9178" x1="4.68744" y1="10.0186" x2="4.68744" y2="23.4541" gradientUnits="userSpaceOnUse">
<stop stop-color="#0974F8"/>
<stop offset="1" stop-color="#4FB2FE"/>
</linearGradient>
<linearGradient id="paint3_linear_262_9178" x1="20.8999" y1="14.3613" x2="20.8999" y2="15.1753" gradientUnits="userSpaceOnUse">
<stop stop-color="#0974F8"/>
<stop offset="1" stop-color="#4FB2FE"/>
</linearGradient>
<linearGradient id="paint4_linear_262_9178" x1="17.8697" y1="13.1602" x2="17.8697" y2="23.4539" gradientUnits="userSpaceOnUse">
<stop stop-color="#0974F8"/>
<stop offset="1" stop-color="#4FB2FE"/>
</linearGradient>
<linearGradient id="paint5_linear_262_9178" x1="23.3121" y1="10.0186" x2="23.3121" y2="23.4541" gradientUnits="userSpaceOnUse">
<stop stop-color="#0974F8"/>
<stop offset="1" stop-color="#4FB2FE"/>
</linearGradient>
<linearGradient id="paint6_linear_262_9178" x1="14" y1="4.5459" x2="14" y2="11.9736" gradientUnits="userSpaceOnUse">
<stop stop-color="#0974F8"/>
<stop offset="1" stop-color="#4FB2FE"/>
</linearGradient>
<linearGradient id="paint7_linear_262_9178" x1="10.1913" y1="6.10547" x2="10.1913" y2="11.9734" gradientUnits="userSpaceOnUse">
<stop stop-color="#0974F8"/>
<stop offset="1" stop-color="#4FB2FE"/>
</linearGradient>
<linearGradient id="paint8_linear_262_9178" x1="17.8088" y1="6.10547" x2="17.8088" y2="11.9734" gradientUnits="userSpaceOnUse">
<stop stop-color="#0974F8"/>
<stop offset="1" stop-color="#4FB2FE"/>
</linearGradient>
<clipPath id="clip0_262_9178">
<rect width="28" height="28" fill="white"/>
</clipPath>
</defs>
</svg>
