<svg width="28" height="28" viewBox="0 0 28 28" fill="none" xmlns="http://www.w3.org/2000/svg">
<path fill-rule="evenodd" clip-rule="evenodd" d="M14 2.33301C7.55672 2.33301 2.33337 7.55635 2.33337 13.9997C2.33337 20.4429 7.55672 25.6663 14 25.6663C20.4433 25.6663 25.6667 20.4429 25.6667 13.9997C25.6667 7.55635 20.4433 2.33301 14 2.33301ZM18.325 9.67471C18.7806 10.1303 18.7806 10.869 18.325 11.3246L11.325 18.3246C10.8694 18.7802 10.1307 18.7802 9.67508 18.3246C9.21947 17.869 9.21947 17.1303 9.67508 16.6747L16.6751 9.67471C17.1307 9.21911 17.8694 9.21911 18.325 9.67471ZM18.6667 16.9163C18.6667 17.8828 17.8832 18.6663 16.9167 18.6663C15.9502 18.6663 15.1667 17.8828 15.1667 16.9163C15.1667 15.9499 15.9502 15.1663 16.9167 15.1663C17.8832 15.1663 18.6667 15.9499 18.6667 16.9163ZM11.0834 12.833C12.0498 12.833 12.8334 12.0495 12.8334 11.083C12.8334 10.1165 12.0498 9.33301 11.0834 9.33301C10.1169 9.33301 9.33337 10.1165 9.33337 11.083C9.33337 12.0495 10.1169 12.833 11.0834 12.833Z" fill="url(#paint0_linear_262_9195)"/>
<path d="M18.6786 11.6782L18.6785 11.6782L11.6786 18.6782L11.6785 18.6782C11.0277 19.329 9.97242 19.329 9.32154 18.6782L9.67508 18.3246L9.32153 18.6782C8.67066 18.0273 8.67065 16.972 9.32153 16.3212L18.6786 11.6782ZM18.6786 11.6782C19.3294 11.0273 19.3294 9.97205 18.6786 9.32117L18.325 9.67471L18.6786 9.32117C18.0277 8.67029 16.9724 8.67029 16.3215 9.32116C16.3215 9.32116 16.3215 9.32117 16.3215 9.32117L9.32153 16.3212L18.6786 11.6782ZM2.83337 13.9997C2.83337 7.83249 7.83286 2.83301 14 2.83301C20.1672 2.83301 25.1667 7.83249 25.1667 13.9997C25.1667 20.1668 20.1672 25.1663 14 25.1663C7.83286 25.1663 2.83337 20.1668 2.83337 13.9997ZM16.9167 19.1663C18.1593 19.1663 19.1667 18.1589 19.1667 16.9163C19.1667 15.6737 18.1593 14.6663 16.9167 14.6663C15.6741 14.6663 14.6667 15.6737 14.6667 16.9163C14.6667 18.159 15.6741 19.1663 16.9167 19.1663ZM11.0834 13.333C12.326 13.333 13.3334 12.3256 13.3334 11.083C13.3334 9.84036 12.326 8.83301 11.0834 8.83301C9.84073 8.83301 8.83337 9.84036 8.83337 11.083C8.83337 12.3256 9.84072 13.333 11.0834 13.333Z" stroke="#19C2EF" stroke-opacity="0.55"/>
<defs>
<linearGradient id="paint0_linear_262_9195" x1="14" y1="2.33301" x2="14" y2="25.6663" gradientUnits="userSpaceOnUse">
<stop stop-color="#0974F8"/>
<stop offset="1" stop-color="#4FB2FE"/>
</linearGradient>
</defs>
</svg>
