<svg width="28" height="28" viewBox="0 0 28 28" fill="none" xmlns="http://www.w3.org/2000/svg">
<path d="M27 16.3006C27 10.6453 25.1294 4.08628 20.3538 1L19.0954 2.94667C20.3076 3.69302 20.9446 4.3838 21.5593 5.60463C21.1344 6.19367 20.8155 6.90497 20.5487 7.70775C20.7659 8.19164 20.9232 9.05511 20.924 9.62706L19.009 9.31415L17.3556 11.1292L16.0262 8.40622C14.2779 10.5564 13.7538 11.4592 11.0497 11.2754L10.2853 8.91832L7.55984 9.44666C7.55984 9.44666 7.06313 6.73142 6.22873 6.12357C6.46298 5.14468 7.16059 4.27779 8.43358 3.49809L7.22471 1.25904C2.79962 4.36157 1 10.5264 1 16.3006C5.956 18.7936 7.43503 21.6259 7.15974 24.6319C7.8984 25.0482 8.6627 25.4611 9.55866 25.7014C10.7838 26.0297 12.0978 26.1878 13.4486 26.1878C14.7994 26.1878 16.1835 26.0305 17.4684 25.7014C18.632 25.4039 19.687 24.9388 20.6453 24.372C20.6026 21.4473 22.1962 18.5585 26.9991 16.3006H27ZM10.3845 17.8044C8.87729 18.6747 7.11614 18.4516 6.46468 17.3231C6.09279 16.6785 6.17316 15.88 6.57925 15.1456C7.26404 15.1336 8.07109 14.996 8.94055 14.6643C9.76897 14.348 10.5444 13.9145 11.1642 13.4494C11.484 13.6178 11.7635 13.8709 11.9439 14.183C12.5954 15.3115 11.8918 16.9341 10.3845 17.8044ZM11.8379 23.2657C12.3645 21.3387 12.9972 19.4108 14 17.4838C14.9883 19.4108 15.7731 21.3387 16.1621 23.2657C14.7207 22.8263 13.2793 22.7673 11.8379 23.2657ZM21.5302 17.3231C20.8787 18.4516 19.1176 18.6747 17.6104 17.8044C16.1031 16.9341 15.3995 15.3115 16.0518 14.183C16.2322 13.8709 16.5109 13.6178 16.8315 13.4494C17.4505 13.9145 18.2268 14.348 19.0552 14.6643C19.9246 14.9968 20.7317 15.1336 21.4165 15.1456C21.8226 15.88 21.9021 16.6785 21.5302 17.3231ZM5.99362 6.42878C6.27575 5.68414 6.46725 4.78219 7.37946 4.19571L5.99362 6.42878ZM21.8551 5.87906C21.5447 5.29087 21.0301 4.2624 20.4111 3.80074L21.8551 5.87906Z" fill="url(#paint0_linear_262_9207)"/>
<path d="M7.05897 2.0045L7.7747 3.33017C7.54819 3.48659 7.3396 3.64792 7.14898 3.81443L7.10906 3.77514C6.17526 4.3755 5.86196 5.28541 5.63383 5.94796C5.5964 6.05666 5.56126 6.1587 5.52605 6.25163L5.66727 6.32138L5.66487 6.33142L5.93432 6.5277C6.03872 6.60376 6.18228 6.79263 6.33832 7.11635C6.48655 7.42386 6.6182 7.7931 6.72863 8.15792C6.83839 8.52052 6.92361 8.86668 6.98147 9.123C7.01032 9.25082 7.03219 9.35548 7.04674 9.42765C7.05401 9.46371 7.05945 9.49162 7.06301 9.51018L7.06693 9.53087L7.06783 9.53567L7.06801 9.53664L7.06802 9.53673L7.06803 9.53676L7.15893 10.0337L7.655 9.93753L9.94619 9.49338L10.574 11.4296L10.6783 11.7513L11.0157 11.7742C12.4284 11.8702 13.3635 11.6877 14.1791 11.1284C14.7873 10.7113 15.309 10.0905 15.9216 9.33176L16.9063 11.3485L17.2293 12.0102L17.7252 11.4659L19.196 9.85134L20.8434 10.1205L21.4249 10.2155L21.424 9.62631C21.4232 9.06647 21.2901 8.25892 21.0819 7.69297C21.3266 6.99062 21.6095 6.38967 21.9648 5.89714L22.028 5.80949L22.2973 5.64574C22.2786 5.61029 22.2589 5.57269 22.2382 5.53326C22.092 5.25461 21.8975 4.88386 21.6718 4.5258C21.4186 4.12419 21.0955 3.68741 20.71 3.39994L20.6347 3.47275C20.384 3.23747 20.1049 3.01683 19.7864 2.79874L20.4957 1.70148C24.6744 4.69838 26.4318 10.6447 26.498 15.9862C24.2003 17.1078 22.6148 18.3936 21.6003 19.7927C20.6063 21.1635 20.1779 22.6195 20.1464 24.0826C19.2901 24.5641 18.3593 24.9575 17.3446 25.217L17.3444 25.217C16.1043 25.5347 14.7622 25.6878 13.4486 25.6878C12.1362 25.6878 10.8662 25.5341 9.68815 25.2184C8.96258 25.0239 8.32366 24.7055 7.68106 24.3504C7.75767 22.8556 7.41106 21.3899 6.45425 19.9915C5.4734 18.5581 3.8722 17.2256 1.5017 15.9955C1.56198 10.5883 3.22865 5.01008 7.05897 2.0045ZM6.03159 17.573L6.03166 17.5731C6.45362 18.304 7.21568 18.707 8.04215 18.8095C8.86918 18.9121 9.79483 18.7223 10.6345 18.2374C11.4722 17.7537 12.1033 17.0521 12.4328 16.2886C12.7622 15.5252 12.7999 14.6657 12.3769 13.933L12.3768 13.9327C12.1439 13.5298 11.7904 13.2141 11.3972 13.007L11.1172 12.8596L10.8641 13.0495C10.2825 13.4859 9.54827 13.897 8.76232 14.1971C7.94579 14.5086 7.19602 14.6347 6.57051 14.6457L6.28154 14.6507L6.14169 14.9036C5.68017 15.7383 5.54551 16.7304 6.03159 17.573ZM11.3556 23.1339L11.1058 24.0479L12.0013 23.7382C13.3246 23.2806 14.6559 23.3292 16.0163 23.744L16.8181 23.9884L16.6522 23.1667C16.2507 21.1779 15.4444 19.2046 14.4449 17.2556L14.0032 16.3945L13.5565 17.253C12.5303 19.2249 11.8865 21.1911 11.3556 23.1339ZM21.9632 17.5731L21.9633 17.573C22.4492 16.7308 22.3158 15.7387 21.854 14.9036L21.7142 14.6507L21.4252 14.6457C20.7994 14.6347 20.0498 14.5094 19.2338 14.1973L19.2335 14.1972C18.4474 13.897 17.7124 13.4859 17.1319 13.0497L16.879 12.8597L16.599 13.0068C16.2041 13.2142 15.8516 13.5302 15.6189 13.9327L15.6189 13.9327C15.1954 14.6655 15.2328 15.525 15.5622 16.2886C15.8915 17.0521 16.5226 17.7537 17.3603 18.2374C18.2 18.7223 19.1257 18.9121 19.9527 18.8095C20.7792 18.707 21.5413 18.304 21.9632 17.5731Z" stroke="#19C2EF" stroke-opacity="0.55"/>
<defs>
<linearGradient id="paint0_linear_262_9207" x1="14" y1="1" x2="14" y2="26.1878" gradientUnits="userSpaceOnUse">
<stop stop-color="#0974F8"/>
<stop offset="1" stop-color="#4FB2FE"/>
</linearGradient>
</defs>
</svg>
