<svg width="28" height="28" viewBox="0 0 28 28" fill="none" xmlns="http://www.w3.org/2000/svg">
<path d="M13.7273 0C16.9992 0 20.029 0.601735 22.2937 1.63427C23.4239 2.14957 24.4274 2.80122 25.1681 3.59959C25.8531 4.33793 26.3632 5.26224 26.4435 6.33527L26.4545 6.63158V21.3684C26.4545 22.5681 25.9153 23.595 25.1681 24.4004C24.4274 25.1988 23.4239 25.8505 22.2937 26.3657C20.029 27.3983 16.9992 28 13.7273 28C10.4554 28 7.42559 27.3983 5.16087 26.3657C4.0306 25.8505 3.02714 25.1988 2.28649 24.4004C1.60152 23.6621 1.09132 22.7378 1.01104 21.6647L1 21.3684V6.63158C1 5.43184 1.53925 4.40505 2.28649 3.59959C3.02714 2.80122 4.0306 2.14957 5.16087 1.63427C7.42559 0.601735 10.4554 0 13.7273 0ZM23.6263 18.2841C23.2104 18.5459 22.7629 18.7833 22.2937 18.9973C20.029 20.0299 16.9992 20.6316 13.7273 20.6316C10.4554 20.6316 7.42559 20.0299 5.16087 18.9973C4.69156 18.7833 4.24413 18.5459 3.82828 18.2841V21.3684C3.82828 21.593 3.92215 21.9231 4.31988 22.3518C4.72418 22.7876 5.37749 23.2474 6.29449 23.6655C8.12432 24.4997 10.7511 25.0526 13.7273 25.0526C16.7035 25.0526 19.3302 24.4997 21.16 23.6655C22.0771 23.2474 22.7304 22.7876 23.1347 22.3518C23.5324 21.9231 23.6263 21.593 23.6263 21.3684V18.2841ZM23.6263 10.9157C23.2104 11.1775 22.7629 11.4149 22.2937 11.6288C20.029 12.6615 16.9992 13.2632 13.7273 13.2632C10.4554 13.2632 7.42559 12.6615 5.16087 11.6288C4.69156 11.4149 4.24413 11.1775 3.82828 10.9157V14C3.82828 14.2246 3.92215 14.5547 4.31988 14.9834C4.72418 15.4192 5.37749 15.8789 6.29449 16.297C8.12432 17.1313 10.7511 17.6842 13.7273 17.6842C16.7035 17.6842 19.3302 17.1313 21.16 16.297C22.0771 15.8789 22.7304 15.4192 23.1347 14.9834C23.5324 14.5547 23.6263 14.2246 23.6263 14V10.9157ZM13.7273 2.94737C10.7511 2.94737 8.12432 3.50027 6.29449 4.33452C5.37749 4.7526 4.72418 5.21239 4.31988 5.64819C3.92215 6.07691 3.82828 6.40702 3.82828 6.63158C3.82828 6.85614 3.92215 7.18624 4.31988 7.61497C4.72418 8.05077 5.37749 8.51056 6.29449 8.92864C8.12432 9.76289 10.7511 10.3158 13.7273 10.3158C16.7035 10.3158 19.3302 9.76289 21.16 8.92864C22.0771 8.51056 22.7304 8.05077 23.1347 7.61497C23.5324 7.18624 23.6263 6.85614 23.6263 6.63158C23.6263 6.40702 23.5324 6.07691 23.1347 5.64819C22.7304 5.21239 22.0771 4.7526 21.16 4.33452C19.3302 3.50027 16.7035 2.94737 13.7273 2.94737Z" fill="url(#paint0_linear_329_9308)"/>
<path d="M22.0863 25.9107L22.0863 25.9107C19.9004 26.9074 16.9444 27.5 13.7273 27.5C10.5101 27.5 7.55415 26.9074 5.3683 25.9107L5.36825 25.9107C4.27699 25.4133 3.33529 24.7958 2.65306 24.0603L2.65302 24.0603C2.02545 23.3839 1.58223 22.5646 1.51034 21.6364L1.5 21.3591V6.63158C1.5 5.5907 1.96638 4.67982 2.65304 3.93965C3.33528 3.20425 4.277 2.58675 5.36829 2.08922L5.36829 2.08922C7.55415 1.09264 10.5101 0.5 13.7273 0.5C16.9444 0.5 19.9004 1.09264 22.0863 2.08922C23.1775 2.58675 24.1192 3.20424 24.8015 3.93965C25.4291 4.61614 25.8723 5.43536 25.9442 6.36354L25.9545 6.64089V21.3684C25.9545 22.4093 25.4882 23.3203 24.8016 24.0603L24.8015 24.0603C24.1192 24.7958 23.1775 25.4133 22.0863 25.9107ZM24.1263 18.2841V17.3787L23.36 17.861C22.9653 18.1093 22.5379 18.3364 22.0863 18.5423C19.9004 19.539 16.9444 20.1316 13.7273 20.1316C10.5101 20.1316 7.55415 19.539 5.3683 18.5423L5.16087 18.9973L5.3683 18.5423C4.91662 18.3364 4.48921 18.1093 4.09462 17.861L3.32828 17.3787V18.2841V21.3684C3.32828 21.7497 3.49317 22.1959 3.95334 22.6919L4.29016 22.3794L3.95334 22.6919C4.41605 23.1906 5.13109 23.6845 6.08707 24.1204L6.29449 23.6655L6.08707 24.1204C7.99574 24.9906 10.6963 25.5526 13.7273 25.5526C16.7582 25.5526 19.4588 24.9906 21.3674 24.1204C22.3235 23.6845 23.0385 23.1906 23.5012 22.6919L23.5013 22.6918C23.9613 22.1959 24.1263 21.7497 24.1263 21.3684V18.2841ZM24.1263 10.9157V10.0103L23.36 10.4925C22.9653 10.7409 22.5379 10.968 22.0863 11.1739C19.9004 12.1705 16.9444 12.7632 13.7273 12.7632C10.5101 12.7632 7.55415 12.1705 5.3683 11.1739L5.16087 11.6288L5.3683 11.1739C4.91662 10.968 4.48921 10.7409 4.09462 10.4926L3.32828 10.0102V10.9157V14C3.32828 14.3813 3.49317 14.8275 3.95334 15.3235L3.95334 15.3235C4.41606 15.8222 5.13109 16.3161 6.08707 16.752C7.99574 17.6222 10.6963 18.1842 13.7273 18.1842C16.7582 18.1842 19.4588 17.6222 21.3674 16.752C22.3235 16.3161 23.0385 15.8222 23.5012 15.3235L23.5013 15.3234C23.9613 14.8275 24.1263 14.3813 24.1263 14V10.9157ZM6.08707 3.87957L6.29449 4.33452L6.08707 3.87957C5.13109 4.31542 4.41605 4.80936 3.95333 5.30813L3.95332 5.30814C3.49317 5.80415 3.32828 6.25031 3.32828 6.63158C3.32828 7.01285 3.49317 7.45901 3.95332 7.95502L3.95333 7.95503C4.41605 8.45379 5.13109 8.94773 6.08707 9.38359C7.99574 10.2538 10.6963 10.8158 13.7273 10.8158C16.7582 10.8158 19.4588 10.2538 21.3674 9.38358C22.3235 8.94773 23.0385 8.4538 23.5013 7.95503L23.5013 7.95499C23.9613 7.459 24.1263 7.01286 24.1263 6.63158C24.1263 6.2503 23.9613 5.80415 23.5013 5.30817L23.5013 5.30813C23.0385 4.80936 22.3235 4.31542 21.3674 3.87957C19.4588 3.00937 16.7582 2.44737 13.7273 2.44737C10.6963 2.44737 7.99574 3.00937 6.08707 3.87957Z" stroke="#19C2EF" stroke-opacity="0.55"/>
<defs>
<linearGradient id="paint0_linear_329_9308" x1="13.7273" y1="0" x2="13.7273" y2="28" gradientUnits="userSpaceOnUse">
<stop stop-color="#0974F8"/>
<stop offset="1" stop-color="#4FB2FE"/>
</linearGradient>
</defs>
</svg>
