<svg width="28" height="28" viewBox="0 0 28 28" fill="none" xmlns="http://www.w3.org/2000/svg">
<path d="M18 3C20.5708 3 22.9513 3.47279 24.7308 4.28407C25.6188 4.68895 26.4072 5.20096 26.9892 5.82825C27.5274 6.40837 27.9283 7.13462 27.9913 7.97772L28 8.21053V19.7895C28 20.7321 27.5763 21.5389 26.9892 22.1717C26.4072 22.7991 25.6188 23.3111 24.7308 23.7159C22.9513 24.5272 20.5708 25 18 25C15.4292 25 13.0487 24.5272 11.2693 23.7159C10.3812 23.3111 9.59276 22.7991 9.01081 22.1717C8.47263 21.5917 8.07175 20.8654 8.00868 20.0223L8 19.7895V8.21053C8 7.26787 8.4237 6.46111 9.01081 5.82825C9.59276 5.20096 10.3812 4.68895 11.2693 4.28407C13.0487 3.47279 15.4292 3 18 3ZM25.7778 17.3661C25.451 17.5718 25.0994 17.7583 24.7308 17.9264C22.9513 18.7378 20.5708 19.2105 18 19.2105C15.4292 19.2105 13.0487 18.7378 11.2693 17.9264C10.9005 17.7583 10.549 17.5718 10.2222 17.3661V19.7895C10.2222 19.9659 10.296 20.2253 10.6085 20.5621C10.9261 20.9045 11.4395 21.2658 12.16 21.5943C13.5977 22.2498 15.6616 22.6842 18 22.6842C20.3384 22.6842 22.4023 22.2498 23.84 21.5943C24.5606 21.2658 25.0739 20.9045 25.3916 20.5621C25.704 20.2253 25.7778 19.9659 25.7778 19.7895V17.3661ZM25.7778 11.5766C25.451 11.7823 25.0994 11.9688 24.7308 12.1369C22.9513 12.9483 20.5708 13.4211 18 13.4211C15.4292 13.4211 13.0487 12.9483 11.2693 12.1369C10.9005 11.9688 10.549 11.7823 10.2222 11.5766V14C10.2222 14.1765 10.296 14.4358 10.6085 14.7727C10.9261 15.1151 11.4395 15.4763 12.16 15.8048C13.5977 16.4603 15.6616 16.8947 18 16.8947C20.3384 16.8947 22.4023 16.4603 23.84 15.8048C24.5606 15.4763 25.0739 15.1151 25.3916 14.7727C25.704 14.4358 25.7778 14.1765 25.7778 14V11.5766ZM18 5.31579C15.6616 5.31579 13.5977 5.75021 12.16 6.40569C11.4395 6.73419 10.9261 7.09545 10.6085 7.43786C10.296 7.77472 10.2222 8.03409 10.2222 8.21053C10.2222 8.38697 10.296 8.64633 10.6085 8.98319C10.9261 9.3256 11.4395 9.68686 12.16 10.0154C13.5977 10.6708 15.6616 11.1053 18 11.1053C20.3384 11.1053 22.4023 10.6708 23.84 10.0154C24.5606 9.68686 25.0739 9.3256 25.3916 8.98319C25.704 8.64633 25.7778 8.38697 25.7778 8.21053C25.7778 8.03409 25.704 7.77472 25.3916 7.43786C25.0739 7.09545 24.5606 6.73419 23.84 6.40569C22.4023 5.75021 20.3384 5.31579 18 5.31579Z" fill="url(#paint0_linear_329_9294)"/>
<path d="M26.6227 21.8316L26.6227 21.8317C26.0991 22.396 25.3724 22.8739 24.5234 23.2609L24.5233 23.261C22.8228 24.0363 20.516 24.5 18 24.5C15.484 24.5 13.1772 24.0363 11.4767 23.261L11.4766 23.2609C10.6276 22.8739 9.9009 22.3961 9.37738 21.8317L9.37735 21.8316C8.89657 21.3135 8.56264 20.6922 8.50797 19.9939L8.5 19.7802V8.21053C8.5 7.42673 8.85082 6.73588 9.37736 6.16831C9.90089 5.60399 10.6276 5.12613 11.4767 4.73902L11.4767 4.73902C13.1772 3.96369 15.484 3.5 18 3.5C20.516 3.5 22.8228 3.96369 24.5234 4.73902C25.3724 5.12613 26.0991 5.60399 26.6227 6.16832C27.1035 6.68658 27.4374 7.30776 27.492 8.00608L27.5 8.21983V19.7895C27.5 20.5733 27.1492 21.2642 26.6227 21.8316ZM26.2778 17.3661V16.4607L25.5115 16.9429C25.2059 17.1352 24.8744 17.3114 24.5233 17.4715C22.8227 18.2469 20.516 18.7105 18 18.7105C15.484 18.7105 13.1772 18.2469 11.4767 17.4715L11.2693 17.9264L11.4767 17.4715C11.1256 17.3114 10.794 17.1352 10.4886 16.943L9.72222 16.4606V17.3661V19.7895C9.72222 20.1226 9.86699 20.4981 10.2419 20.9022L10.6085 20.5621L10.2419 20.9022C10.618 21.3076 11.1931 21.703 11.9525 22.0492L12.16 21.5943L11.9525 22.0492C13.4691 22.7407 15.6068 23.1842 18 23.1842C20.3932 23.1842 22.5309 22.7407 24.0474 22.0492C24.8069 21.703 25.382 21.3076 25.7581 20.9022L25.7581 20.9022C26.133 20.4981 26.2778 20.1227 26.2778 19.7895V17.3661ZM26.2778 11.5766V10.6712L25.5115 11.1535C25.2059 11.3457 24.8744 11.5219 24.5233 11.682C22.8227 12.4574 20.516 12.9211 18 12.9211C15.484 12.9211 13.1772 12.4574 11.4767 11.682L11.2728 12.1292L11.4767 11.682C11.1256 11.5219 10.794 11.3457 10.4886 11.1535L9.72222 10.6712V11.5766V14C9.72222 14.3332 9.86699 14.7086 10.2419 15.1127L10.2419 15.1127C10.618 15.5181 11.1931 15.9135 11.9525 16.2598L12.16 15.8048L11.9525 16.2598C13.4691 16.9512 15.6068 17.3947 18 17.3947C20.3932 17.3947 22.5309 16.9512 24.0474 16.2598C24.8069 15.9135 25.382 15.5181 25.7581 15.1127L25.7581 15.1127C26.133 14.7086 26.2778 14.3332 26.2778 14V11.5766ZM11.9525 5.95074L11.9525 5.95075C11.1931 6.29701 10.618 6.69242 10.2419 7.0978L10.2419 7.09781C9.867 7.50195 9.72222 7.87737 9.72222 8.21053C9.72222 8.54368 9.867 8.9191 10.2419 9.32324L10.2419 9.32325C10.618 9.72863 11.1931 10.124 11.9525 10.4703L12.16 10.0154L11.9525 10.4703C13.4691 11.1617 15.6068 11.6053 18 11.6053C20.3932 11.6053 22.5309 11.1617 24.0474 10.4703C24.8069 10.124 25.382 9.72864 25.7581 9.32325L25.7581 9.32321C26.133 8.91909 26.2778 8.54369 26.2778 8.21053C26.2778 7.87737 26.133 7.50196 25.7581 7.09784L25.7581 7.0978C25.382 6.69242 24.807 6.29701 24.0474 5.95075C22.5309 5.25931 20.3932 4.81579 18 4.81579C15.6068 4.81579 13.4691 5.25932 11.9525 5.95074Z" stroke="#19C2EF" stroke-opacity="0.55"/>
<path d="M4.8 28H3.2V24.8H0V23.2H3.2V20H4.8V23.2H8V24.8H4.8V28Z" fill="url(#paint1_linear_329_9294)"/>
<path d="M4.8 23.7H7.5V24.3H4.8H4.3V24.8V27.5H3.7V24.8V24.3H3.2H0.5V23.7H3.2H3.7V23.2V20.5H4.3V23.2V23.7H4.8Z" stroke="#19C2EF" stroke-opacity="0.55"/>
<defs>
<linearGradient id="paint0_linear_329_9294" x1="18" y1="3" x2="18" y2="25" gradientUnits="userSpaceOnUse">
<stop stop-color="#0974F8"/>
<stop offset="1" stop-color="#4FB2FE"/>
</linearGradient>
<linearGradient id="paint1_linear_329_9294" x1="4" y1="20" x2="4" y2="28" gradientUnits="userSpaceOnUse">
<stop stop-color="#0974F8"/>
<stop offset="1" stop-color="#4FB2FE"/>
</linearGradient>
</defs>
</svg>
