<svg width="28" height="28" viewBox="0 0 28 28" fill="none" xmlns="http://www.w3.org/2000/svg">
<g clip-path="url(#clip0_329_9274)">
<path fill-rule="evenodd" clip-rule="evenodd" d="M15.9097 2.85478C15.9097 2.85478 15.9097 2.85478 15.9097 2.85478L9.00143 6.65905L12.7573 8.81007C13.6896 7.75063 15.0209 7.08599 16.5 7.08599C17.9792 7.08599 19.3104 7.75064 20.2427 8.81007L23.9986 6.65906L17.0903 2.85478C16.7204 2.65108 16.2796 2.65108 15.9097 2.85478ZM25.4444 8.90393L21.4609 11.1854C21.559 11.6038 21.6111 12.0409 21.6111 12.49C21.6111 15.0081 19.9823 17.1239 17.7778 17.7238V22.3807L24.7753 18.3732C25.1876 18.1371 25.4444 17.6811 25.4444 17.1853V8.90393ZM25.3839 19.5611L25.9925 20.749C27.2295 20.0406 28 18.6727 28 17.1853V6.63566C28 6.13197 27.735 5.67011 27.3125 5.43744L18.2708 0.458337L17.6805 1.65656L18.2708 0.458333C17.161 -0.152778 15.839 -0.152778 14.7292 0.458333L14.7292 0.458337L5.68753 5.43744C5.26501 5.67011 5 6.13197 5 6.63566V17.1853C5 18.6727 5.7706 20.0406 7.00755 20.749L7.00757 20.7491L15.8914 25.8369C16.2711 26.0544 16.7289 26.0544 17.1086 25.8369L25.9925 20.7491L25.3839 19.5611ZM15.2222 22.3807V17.7238C13.0177 17.1239 11.3889 15.0081 11.3889 12.49C11.3889 12.0409 11.4409 11.6038 11.5391 11.1854L7.55556 8.90392V17.1853C7.55556 17.6811 7.81241 18.137 8.22477 18.3732L15.2222 22.3807ZM14.2517 11.2038C14.0561 11.5849 13.9444 12.0217 13.9444 12.49C13.9444 13.9823 15.0885 15.192 16.5 15.192C17.9115 15.192 19.0556 13.9823 19.0556 12.49C19.0556 12.0217 18.9439 11.5849 18.7482 11.2037C18.3138 10.3575 17.4688 9.78799 16.5 9.78799C15.5311 9.78799 14.6862 10.3576 14.2517 11.2038Z" fill="url(#paint0_linear_329_9274)"/>
<path d="M25.3839 19.5611L25.8289 19.3331L25.3839 19.5611ZM25.3839 19.5611L24.9389 19.7891M25.3839 19.5611L24.9389 19.7891M24.9389 19.7891L25.3299 20.5523L16.8601 25.403C16.6344 25.5323 16.3656 25.5323 16.1399 25.403L7.25606 20.3152M24.9389 19.7891L7.25606 20.3152M7.25123 20.3124C6.18073 19.6969 5.5 18.5011 5.5 17.1853V6.63566C5.5 6.30421 5.67443 6.01545 5.92871 5.87542L5.68753 5.43744L5.92871 5.87542L14.9704 0.896318L14.9704 0.896406L14.9746 0.89399C15.7921 0.445385 16.74 0.379874 17.5956 0.697449L17.2569 1.38508L17.232 1.43561L17.65 1.6415L17.6805 1.65656L18.1291 1.87751L18.1608 1.81302L18.4881 1.14878L27.0713 5.87542C27.3256 6.01545 27.5 6.30421 27.5 6.63566V17.1853C27.5 18.3147 26.9985 19.3557 26.1794 20.0173L7.25123 20.3124ZM7.25123 20.3124L7.25613 20.3151L7.25606 20.3152M7.25123 20.3124L7.25606 20.3152M15.676 2.4127L15.676 2.41268L15.6685 2.41679L15.6685 2.4168L8.76024 6.22107L7.98042 6.6505L8.75294 7.09294L12.5088 9.24395L12.863 9.44681L13.1326 9.14038C13.9776 8.1802 15.1756 7.58599 16.5 7.58599C17.8244 7.58599 19.0224 8.1802 19.8674 9.14038L20.137 9.44681L20.4912 9.24395L24.2471 7.09294L25.0196 6.65051L24.2398 6.22107L17.3315 2.4168L17.0947 2.84676L17.3315 2.4168C16.8139 2.13178 16.1946 2.13041 15.676 2.4127ZM15.6895 2.40587C15.6868 2.40722 15.682 2.40961 15.676 2.41275C15.682 2.40961 15.6868 2.40721 15.6895 2.40587ZM21.2124 10.7515L20.8889 10.9367L20.9741 11.2996C21.0635 11.6808 21.1111 12.0796 21.1111 12.49C21.1111 14.7939 19.6225 16.7036 17.6465 17.2413L17.2778 17.3416V17.7238V22.3807V23.2433L18.0263 22.8146L25.0238 18.8071C25.5998 18.4772 25.9444 17.8508 25.9444 17.1853V8.90393V8.04138L25.196 8.47005L21.2124 10.7515ZM18.0535 -0.232104L18.0393 -0.20321L28.5 17.1853V6.63566C28.5 5.95973 28.1444 5.32477 27.5537 4.99946L18.9304 0.25077L18.512 0.020355L18.512 0.0203499L18.0535 -0.232104ZM15.7222 17.7238V17.3416L15.3535 17.2413C13.3775 16.7036 11.8889 14.7939 11.8889 12.49C11.8889 12.0796 11.9365 11.6808 12.0259 11.2996L12.1111 10.9367L11.7876 10.7515L7.80404 8.47004L7.05556 8.04137V8.90392V17.1853C7.05556 17.8507 7.40022 18.4772 7.97627 18.8071L8.22477 18.3732L7.97628 18.8071L14.9737 22.8146L15.7222 23.2433V22.3807V17.7238ZM19.1931 10.9754L19.193 10.9753C18.6811 9.97823 17.6734 9.28799 16.5 9.28799C15.3265 9.28799 14.3188 9.97828 13.8069 10.9754L14.2517 11.2038L13.8069 10.9754C13.5754 11.4264 13.4444 11.9413 13.4444 12.49C13.4444 14.2319 14.7865 15.692 16.5 15.692C18.2135 15.692 19.5556 14.2319 19.5556 12.49C19.5556 11.9413 19.4246 11.4264 19.1931 10.9754Z" stroke="#19C2EF" stroke-opacity="0.55"/>
<path d="M4.8 28H3.2V24.8H0V23.2H3.2V20H4.8V23.2H8V24.8H4.8V28Z" fill="url(#paint1_linear_329_9274)"/>
<path d="M4.8 23.7H7.5V24.3H4.8H4.3V24.8V27.5H3.7V24.8V24.3H3.2H0.5V23.7H3.2H3.7V23.2V20.5H4.3V23.2V23.7H4.8Z" stroke="#19C2EF" stroke-opacity="0.55"/>
</g>
<defs>
<linearGradient id="paint0_linear_329_9274" x1="16.5" y1="0" x2="16.5" y2="26" gradientUnits="userSpaceOnUse">
<stop stop-color="#0974F8"/>
<stop offset="1" stop-color="#4FB2FE"/>
</linearGradient>
<linearGradient id="paint1_linear_329_9274" x1="4" y1="20" x2="4" y2="28" gradientUnits="userSpaceOnUse">
<stop stop-color="#0974F8"/>
<stop offset="1" stop-color="#4FB2FE"/>
</linearGradient>
<clipPath id="clip0_329_9274">
<rect width="28" height="28" fill="white"/>
</clipPath>
</defs>
</svg>
