<svg width="28" height="28" viewBox="0 0 28 28" fill="none" xmlns="http://www.w3.org/2000/svg">
<g clip-path="url(#clip0_329_9314)">
<path fill-rule="evenodd" clip-rule="evenodd" d="M4.42852 0H23.6032C24.336 0 24.9467 0.12227 25.6795 0.489082C26.5344 0.855895 27.0229 1.46725 27.2672 1.95633C27.2672 1.95633 27.2672 2.0786 27.3893 2.0786C27.7557 2.68996 28 3.42358 28 4.27948C28 5.0131 27.8779 5.74672 27.3893 6.48035L15.2983 27.2664C15.054 27.7555 14.5655 28 13.9548 28C13.4663 28 12.9778 27.7555 12.6114 27.2664L0.764563 6.48035C0.520299 5.99127 0.0317702 5.37991 0.0317702 4.40175C-0.0903618 3.54585 0.153902 2.81223 0.520298 2.0786C0.886694 1.34498 1.49735 0.733624 2.35228 0.489082C3.08507 -4.73714e-07 3.94 0 4.42852 0ZM12.4892 2.9345H4.42852C3.94 2.9345 3.69573 2.9345 3.5736 3.05677C3.32933 3.17904 3.2072 3.30131 3.08507 3.54585C2.96294 3.66812 2.96294 3.91266 2.96294 4.1572C2.96294 4.27948 3.08507 4.40175 3.32933 4.89083L12.4892 20.786V2.9345ZM15.4204 2.9345V20.9083L24.7024 4.89083C24.8246 4.64629 24.8246 4.40175 24.8246 4.1572C24.8246 3.91266 24.8246 3.66812 24.7024 3.54585C24.5803 3.42358 24.5803 3.30131 24.4582 3.30131L24.336 3.17904C24.0918 3.05677 23.8475 3.05677 23.4811 3.05677H15.4204V2.9345Z" fill="url(#paint0_linear_329_9314)"/>
<path d="M25.4557 0.936194L25.4688 0.942776L25.4823 0.948574C26.1756 1.24604 26.5793 1.72855 26.7899 2.12181C26.7995 2.15712 26.8137 2.19793 26.8352 2.24087C26.8723 2.31515 26.9357 2.40463 27.04 2.47462C27.3199 2.98699 27.5 3.58687 27.5 4.27948C27.5 4.95138 27.3896 5.57779 26.9732 6.20322L26.9648 6.21584L26.9571 6.22894L14.8661 27.015L14.8581 27.0287L14.851 27.043C14.7124 27.3204 14.4282 27.5 13.9548 27.5C13.6495 27.5 13.3101 27.3522 13.0293 26.99L1.20555 6.24432C1.14148 6.11705 1.07315 5.99634 1.00551 5.87682C0.764315 5.4507 0.53177 5.03986 0.53177 4.40175V4.36625L0.526756 4.33112C0.425447 3.62114 0.620589 2.99684 0.967613 2.30201C1.28508 1.66635 1.79654 1.1681 2.48978 0.969803L2.56488 0.948323L2.62985 0.904962C3.22183 0.509858 3.93015 0.5 4.42852 0.5H23.6033C24.2641 0.5 24.7974 0.606671 25.4557 0.936194ZM12.9892 2.9345V2.4345H12.4892H4.42852C4.42012 2.4345 4.41174 2.4345 4.40337 2.4345C4.18087 2.43447 3.9738 2.43445 3.80838 2.45285C3.66178 2.46915 3.46373 2.5068 3.29274 2.63917C3.16208 2.70911 3.04014 2.79162 2.92978 2.90211C2.81947 3.01254 2.7371 3.13453 2.66729 3.26523C2.54185 3.42713 2.50084 3.61157 2.48322 3.73504C2.46284 3.87785 2.46289 4.03089 2.46293 4.14289C2.46294 4.14774 2.46294 4.15251 2.46294 4.1572C2.46294 4.36202 2.56214 4.53365 2.61119 4.6185C2.61446 4.62417 2.61751 4.62944 2.62029 4.63432C2.63055 4.6523 2.6413 4.67094 2.65258 4.69051C2.71186 4.79333 2.7859 4.92177 2.88202 5.11423L2.88868 5.12757L2.89612 5.14048L12.056 21.0357L12.9892 22.6551V20.786V2.9345ZM14.9204 20.9083V22.7683L15.853 21.159L25.135 5.14152L25.1428 5.12811L25.1497 5.11423C25.3252 4.76286 25.3249 4.41536 25.3246 4.183C25.3246 4.17423 25.3246 4.16563 25.3246 4.1572L25.3246 4.1429C25.3246 4.0309 25.3247 3.87786 25.3043 3.73504C25.284 3.5926 25.2325 3.36901 25.0562 3.1925C25.0525 3.18884 25.0512 3.1876 25.0502 3.18616C25.0471 3.18191 25.0466 3.17584 24.9965 3.10059C24.9714 3.06299 24.9145 2.98076 24.8176 2.91286C24.7867 2.89122 24.7547 2.87297 24.722 2.85792L24.6898 2.82569L24.6324 2.76826L24.5599 2.73193C24.2081 2.55586 23.8553 2.55631 23.5285 2.55673C23.5126 2.55675 23.4968 2.55677 23.4811 2.55677H15.4204V2.9345H14.9204V3.05677V3.55677V20.9083Z" stroke="#19C2EF" stroke-opacity="0.55"/>
</g>
<defs>
<linearGradient id="paint0_linear_329_9314" x1="14" y1="0" x2="14" y2="28" gradientUnits="userSpaceOnUse">
<stop stop-color="#0974F8"/>
<stop offset="1" stop-color="#4FB2FE"/>
</linearGradient>
<clipPath id="clip0_329_9314">
<rect width="28" height="28" fill="white"/>
</clipPath>
</defs>
</svg>
