<svg width="28" height="28" viewBox="0 0 28 28" fill="none" xmlns="http://www.w3.org/2000/svg">
<path fill-rule="evenodd" clip-rule="evenodd" d="M7.79588 2H24.2314C24.8595 2 25.3829 2.1048 26.011 2.41921C26.7438 2.73362 27.1625 3.25764 27.3719 3.67686C27.3719 3.67686 27.3719 3.78166 27.4766 3.78166C27.7906 4.30568 28 4.9345 28 5.66812C28 6.29694 27.8953 6.92576 27.4766 7.55458L17.1128 25.3712C16.9034 25.7904 16.4847 26 15.9613 26C15.5425 26 15.1238 25.7904 14.8097 25.3712L4.65534 7.55458C4.44597 7.13537 4.02723 6.61135 4.02723 5.77293C3.92255 5.0393 4.13192 4.41048 4.44597 3.78166C4.76002 3.15284 5.28345 2.62882 6.01624 2.41921C6.64435 2 7.37714 2 7.79588 2ZM14.7051 4.51528H7.79588C7.37714 4.51528 7.16777 4.51528 7.06308 4.62009C6.85371 4.72489 6.74903 4.82969 6.64435 5.0393C6.53966 5.1441 6.53966 5.35371 6.53966 5.56332C6.53966 5.66812 6.64434 5.77293 6.85371 6.19214L14.7051 19.8166V4.51528ZM17.2175 4.51528V19.9214L25.1735 6.19214C25.2782 5.98253 25.2782 5.77293 25.2782 5.56332C25.2782 5.35371 25.2782 5.1441 25.1735 5.0393C25.0688 4.9345 25.0688 4.8297 24.9641 4.8297L24.8595 4.72489C24.6501 4.62009 24.4407 4.62009 24.1267 4.62009H17.2175V4.51528Z" fill="url(#paint0_linear_329_9320)"/>
<path d="M25.7872 2.86633L25.8003 2.87291L25.8138 2.87871C26.3868 3.12452 26.7209 3.52152 26.8961 3.84551C26.9053 3.87773 26.9185 3.91429 26.9377 3.95266C26.9719 4.02119 27.0294 4.10344 27.1225 4.17011C27.3526 4.59652 27.5 5.09417 27.5 5.66812C27.5 6.23522 27.4071 6.75683 27.0604 7.27745L27.052 7.29007L27.0444 7.30318L16.6806 25.1198L16.6726 25.1335L16.6655 25.1478C16.5618 25.3554 16.3474 25.5 15.9613 25.5C15.7253 25.5 15.4557 25.3867 15.2275 25.0944L5.09631 7.31852C5.03901 7.20477 4.97899 7.09863 4.92032 6.99486C4.71562 6.63282 4.52723 6.29962 4.52723 5.77293V5.73743L4.52222 5.70229C4.43836 5.11459 4.5986 4.5951 4.89328 4.00506C5.15841 3.47421 5.58263 3.06329 6.15374 2.89993L6.22884 2.87845L6.29381 2.83509C6.78111 2.50986 7.3673 2.5 7.79588 2.5H24.2314C24.7876 2.5 25.2336 2.5892 25.7872 2.86633ZM15.2051 4.51528V4.01528H14.7051H7.79588C7.7879 4.01528 7.77993 4.01528 7.77197 4.01528C7.58339 4.01525 7.40229 4.01522 7.25643 4.03145C7.12822 4.04571 6.94466 4.07926 6.78343 4.20197C6.66898 4.26369 6.56003 4.3376 6.4607 4.43704C6.36143 4.53642 6.28766 4.6454 6.22606 4.75986C6.11017 4.91199 6.07332 5.08232 6.05776 5.19138C6.03955 5.31899 6.03961 5.45476 6.03966 5.54996C6.03966 5.5545 6.03966 5.55896 6.03966 5.56332C6.03966 5.75914 6.13425 5.92204 6.1759 5.99377C6.17886 5.99888 6.18156 6.00352 6.18393 6.00768C6.19285 6.0233 6.20214 6.03942 6.21186 6.05629C6.2626 6.14432 6.32502 6.2526 6.4064 6.41554L6.41306 6.42888L6.4205 6.44179L14.2718 20.0662L15.2051 21.6857V19.8166V4.51528ZM16.7175 19.9214V21.7814L17.6501 20.1721L25.6061 6.44283L25.6139 6.42942L25.6208 6.41554C25.779 6.09893 25.7785 5.78616 25.7782 5.58736C25.7782 5.57915 25.7782 5.57113 25.7782 5.56332L25.7782 5.54997C25.7782 5.45477 25.7783 5.31899 25.7601 5.19137C25.742 5.06484 25.6953 4.8558 25.5297 4.68843C25.5292 4.68773 25.5285 4.68668 25.5275 4.6852C25.5246 4.68084 25.5213 4.67556 25.5143 4.66423C25.5089 4.65549 25.4973 4.63659 25.485 4.61806C25.4621 4.58373 25.4074 4.50423 25.3132 4.43824C25.2869 4.41979 25.2598 4.40389 25.232 4.39039L25.2132 4.37154L25.1559 4.31411L25.0833 4.27778C24.7662 4.11906 24.4481 4.11958 24.1705 4.12004C24.1558 4.12006 24.1412 4.12009 24.1267 4.12009H17.2175V4.51528H16.7175V4.62009V5.12009V19.9214Z" stroke="#19C2EF" stroke-opacity="0.55"/>
<path d="M4.8 28H3.2V24.8H0V23.2H3.2V20H4.8V23.2H8V24.8H4.8V28Z" fill="url(#paint1_linear_329_9320)"/>
<path d="M4.8 23.7H7.5V24.3H4.8H4.3V24.8V27.5H3.7V24.8V24.3H3.2H0.5V23.7H3.2H3.7V23.2V20.5H4.3V23.2V23.7H4.8Z" stroke="#19C2EF" stroke-opacity="0.55"/>
<defs>
<linearGradient id="paint0_linear_329_9320" x1="16" y1="2" x2="16" y2="26" gradientUnits="userSpaceOnUse">
<stop stop-color="#0974F8"/>
<stop offset="1" stop-color="#4FB2FE"/>
</linearGradient>
<linearGradient id="paint1_linear_329_9320" x1="4" y1="20" x2="4" y2="28" gradientUnits="userSpaceOnUse">
<stop stop-color="#0974F8"/>
<stop offset="1" stop-color="#4FB2FE"/>
</linearGradient>
</defs>
</svg>
