<svg width="28" height="28" viewBox="0 0 28 28" fill="none" xmlns="http://www.w3.org/2000/svg">
<path d="M25.375 5.25H21V4.375C21 3.85 20.65 3.5 20.125 3.5H7.875C7.35 3.5 7 3.85 7 4.375V5.25H2.625C2.1 5.25 1.75 5.6 1.75 6.125V8.4875C1.75 12.3375 4.725 15.4875 8.575 15.6625C9.275 16.625 10.2375 17.325 11.375 17.7625V20.125H10.5C9.0125 20.125 7.875 21.2625 7.875 22.75V25.375C7.875 25.9 8.225 26.25 8.75 26.25H19.25C19.775 26.25 20.125 25.9 20.125 25.375V22.75C20.125 21.2625 18.9875 20.125 17.5 20.125H16.625V17.85C17.7625 17.4125 18.725 16.625 19.425 15.75C23.1875 15.4875 26.25 12.425 26.25 8.575V6.125C26.25 5.6 25.9 5.25 25.375 5.25ZM3.5 8.4875V7H7V11.375C7 12.25 7.175 13.0375 7.4375 13.7375C5.1625 13.125 3.5 11.025 3.5 8.4875ZM24.5 8.4875C24.5 10.9375 22.8375 13.0375 20.5625 13.7375C20.825 13.0375 21 12.25 21 11.375V7H24.5V8.4875Z" fill="url(#paint0_linear_340_91452)"/>
<path d="M20.5 5.25V5.75H21H25.375C25.5239 5.75 25.6091 5.79744 25.6558 5.84418C25.7026 5.89091 25.75 5.97612 25.75 6.125V8.575C25.75 12.1466 22.9067 15.0059 19.3902 15.2512L19.1715 15.2665L19.0346 15.4377C18.3796 16.2563 17.4861 16.9831 16.4455 17.3833L16.125 17.5066V17.85V20.125V20.625H16.625H17.5C18.7114 20.625 19.625 21.5386 19.625 22.75V25.375C19.625 25.5239 19.5776 25.6091 19.5308 25.6558C19.4841 25.7026 19.3989 25.75 19.25 25.75H8.75C8.60112 25.75 8.51591 25.7026 8.46918 25.6558C8.42244 25.6091 8.375 25.5239 8.375 25.375V22.75C8.375 21.5386 9.28864 20.625 10.5 20.625H11.375H11.875V20.125V17.7625V17.4191L11.5545 17.2958C10.4972 16.8892 9.61672 16.2448 8.97937 15.3684L8.83793 15.1739L8.5977 15.163C5.01784 15.0003 2.25 12.0733 2.25 8.4875V6.125C2.25 5.97612 2.29744 5.89091 2.34418 5.84418C2.39091 5.79744 2.47612 5.75 2.625 5.75H7H7.5V5.25V4.375C7.5 4.22612 7.54744 4.14091 7.59418 4.09418C7.64091 4.04744 7.72612 4 7.875 4H20.125C20.2739 4 20.3591 4.04744 20.4058 4.09418C20.4526 4.14091 20.5 4.22612 20.5 4.375V5.25ZM3.5 6.5H3V7V8.4875C3 11.2487 4.81192 13.5484 7.30751 14.2203L8.24745 14.4734L7.90566 13.5619C7.6611 12.9098 7.5 12.1818 7.5 11.375V7V6.5H7H3.5ZM20.0943 13.5619L19.7371 14.5146L20.7095 14.2154C23.1824 13.4545 25 11.1692 25 8.4875V7V6.5H24.5H21H20.5V7V11.375C20.5 12.1818 20.3389 12.9098 20.0943 13.5619Z" stroke="#19C2EF" stroke-opacity="0.55"/>
<defs>
<linearGradient id="paint0_linear_340_91452" x1="14" y1="3.5" x2="14" y2="26.25" gradientUnits="userSpaceOnUse">
<stop stop-color="#0974F8"/>
<stop offset="1" stop-color="#4FB2FE"/>
</linearGradient>
</defs>
</svg>
