<svg width="390" height="105" viewBox="0 0 390 105" fill="none" xmlns="http://www.w3.org/2000/svg">
<path opacity="0.42" d="M0 22H390V83H246L237 93H153L144 83H0V22Z" fill="url(#paint0_radial_448_81)"/>
<path fill-rule="evenodd" clip-rule="evenodd" d="M41.6808 15.2129C40.8859 15.2129 40.1234 14.8974 39.561 14.3356L32.7067 7.4906L31.2935 8.90577L38.1477 15.7508C39.0852 16.687 40.3559 17.2129 41.6808 17.2129H126.26C127.76 17.2129 129.18 16.5397 130.13 15.379L139.357 4.10049C139.927 3.40405 140.779 3.00015 141.679 3.00015H246.321C247.221 3.00015 248.073 3.40405 248.643 4.10049L257.87 15.379C258.82 16.5397 260.241 17.2129 261.74 17.2129H346.319C347.644 17.2129 348.915 16.687 349.853 15.7508L356.707 8.90577L355.293 7.4906L348.439 14.3356C347.877 14.8974 347.114 15.2129 346.319 15.2129H261.74C260.84 15.2129 259.988 14.809 259.418 14.1125L250.191 2.83405C249.241 1.67332 247.821 1.00014 246.321 1.00014H141.679C140.179 1.00014 138.759 1.67332 137.809 2.83405L128.582 14.1125C128.012 14.809 127.16 15.2129 126.26 15.2129H41.6808Z" fill="url(#paint1_radial_448_81)"/>
<path fill-rule="evenodd" clip-rule="evenodd" d="M41.6808 90C40.8859 90 40.1234 90.3155 39.561 90.8773L32.7067 97.7223L31.2935 96.3071L38.1477 89.4621C39.0852 88.5259 40.3559 88 41.6808 88H136.26C137.76 88 139.18 88.6732 140.13 89.8339L149.357 101.112C149.927 101.809 150.779 102.213 151.679 102.213H236.321C237.221 102.213 238.073 101.809 238.643 101.112L247.87 89.8339C248.82 88.6732 250.241 88 251.74 88H346.319C347.644 88 348.915 88.5259 349.853 89.4621L356.707 96.3071L355.293 97.7223L348.439 90.8772C347.877 90.3155 347.114 90 346.319 90H251.74C250.84 90 249.988 90.4039 249.418 91.1003L240.191 102.379C239.241 103.54 237.821 104.213 236.321 104.213H151.679C150.179 104.213 148.759 103.54 147.809 102.379L138.582 91.1003C138.012 90.4039 137.16 90 136.26 90H41.6808Z" fill="url(#paint2_radial_448_81)"/>
<g filter="url(#filter0_d_448_81)">
<rect x="144" y="10" width="99" height="4" rx="2" fill="#FFD233"/>
</g>
<g filter="url(#filter1_df_448_81)">
<rect x="144" y="11" width="99" height="2" rx="1" fill="#FFF4CE"/>
</g>
<g filter="url(#filter2_dd_448_81)">
<mask id="path-6-outside-1_448_81" maskUnits="userSpaceOnUse" x="102" y="41" width="187" height="25" fill="black">
<rect fill="white" x="102" y="41" width="187" height="25"/>
<path d="M126.047 42.6V65H122.847V45.8H106.847V65H103.647V42.6H126.047ZM154.521 58.6V49C154.521 47.24 153.081 45.8 151.321 45.8H141.721C139.961 45.8 138.521 47.24 138.521 49V58.6C138.521 60.36 139.961 61.8 141.721 61.8H151.321C153.081 61.8 154.521 60.36 154.521 58.6ZM157.721 49V58.6C157.721 62.12 154.841 65 151.321 65H141.721C138.169 65 135.321 62.152 135.321 58.6V49C135.321 45.48 138.201 42.6 141.721 42.6H151.321C154.713 42.6 157.721 45.512 157.721 49ZM186.209 58.6V57.544C186.209 55.784 184.769 54.344 183.009 54.344H170.209V61.8H183.009C184.769 61.8 186.209 60.36 186.209 58.6ZM189.409 57.544V58.6C189.409 61.992 186.593 65 183.009 65H167.009V42.6H186.209V45.8H170.209V51.144H183.009C186.433 51.144 189.313 53.992 189.409 57.544ZM201.578 45.8V52.2H217.578V55.4H201.578V61.8H220.778V65H198.378V42.6H220.778V45.8H201.578ZM234.547 49V61.8H250.547V45.8H237.747C235.987 45.8 234.547 47.24 234.547 49ZM228.147 65V61.8H231.347V49C231.347 45.608 234.163 42.6 237.747 42.6H253.747V61.8H256.947V65H228.147ZM280.959 45.8H271.359C269.599 45.8 268.159 47.24 268.159 49V55.4H284.159V49C284.159 47.24 282.719 45.8 280.959 45.8ZM287.359 49V65H284.159V58.6H268.159V65H264.959V49C264.959 45.608 267.775 42.6 271.359 42.6H280.959C284.383 42.6 287.263 45.448 287.359 49Z"/>
</mask>
<path d="M126.047 42.6V65H122.847V45.8H106.847V65H103.647V42.6H126.047ZM154.521 58.6V49C154.521 47.24 153.081 45.8 151.321 45.8H141.721C139.961 45.8 138.521 47.24 138.521 49V58.6C138.521 60.36 139.961 61.8 141.721 61.8H151.321C153.081 61.8 154.521 60.36 154.521 58.6ZM157.721 49V58.6C157.721 62.12 154.841 65 151.321 65H141.721C138.169 65 135.321 62.152 135.321 58.6V49C135.321 45.48 138.201 42.6 141.721 42.6H151.321C154.713 42.6 157.721 45.512 157.721 49ZM186.209 58.6V57.544C186.209 55.784 184.769 54.344 183.009 54.344H170.209V61.8H183.009C184.769 61.8 186.209 60.36 186.209 58.6ZM189.409 57.544V58.6C189.409 61.992 186.593 65 183.009 65H167.009V42.6H186.209V45.8H170.209V51.144H183.009C186.433 51.144 189.313 53.992 189.409 57.544ZM201.578 45.8V52.2H217.578V55.4H201.578V61.8H220.778V65H198.378V42.6H220.778V45.8H201.578ZM234.547 49V61.8H250.547V45.8H237.747C235.987 45.8 234.547 47.24 234.547 49ZM228.147 65V61.8H231.347V49C231.347 45.608 234.163 42.6 237.747 42.6H253.747V61.8H256.947V65H228.147ZM280.959 45.8H271.359C269.599 45.8 268.159 47.24 268.159 49V55.4H284.159V49C284.159 47.24 282.719 45.8 280.959 45.8ZM287.359 49V65H284.159V58.6H268.159V65H264.959V49C264.959 45.608 267.775 42.6 271.359 42.6H280.959C284.383 42.6 287.263 45.448 287.359 49Z" fill="url(#paint3_linear_448_81)"/>
<path d="M126.047 42.6H127.047V41.6H126.047V42.6ZM126.047 65V66H127.047V65H126.047ZM122.847 65H121.847V66H122.847V65ZM122.847 45.8H123.847V44.8H122.847V45.8ZM106.847 45.8V44.8H105.847V45.8H106.847ZM106.847 65V66H107.847V65H106.847ZM103.647 65H102.647V66H103.647V65ZM103.647 42.6V41.6H102.647V42.6H103.647ZM125.047 42.6V65H127.047V42.6H125.047ZM126.047 64H122.847V66H126.047V64ZM123.847 65V45.8H121.847V65H123.847ZM122.847 44.8H106.847V46.8H122.847V44.8ZM105.847 45.8V65H107.847V45.8H105.847ZM106.847 64H103.647V66H106.847V64ZM104.647 65V42.6H102.647V65H104.647ZM103.647 43.6H126.047V41.6H103.647V43.6ZM155.521 58.6V49H153.521V58.6H155.521ZM155.521 49C155.521 46.6877 153.633 44.8 151.321 44.8V46.8C152.528 46.8 153.521 47.7923 153.521 49H155.521ZM151.321 44.8H141.721V46.8H151.321V44.8ZM141.721 44.8C139.408 44.8 137.521 46.6877 137.521 49H139.521C139.521 47.7923 140.513 46.8 141.721 46.8V44.8ZM137.521 49V58.6H139.521V49H137.521ZM137.521 58.6C137.521 60.9123 139.408 62.8 141.721 62.8V60.8C140.513 60.8 139.521 59.8077 139.521 58.6H137.521ZM141.721 62.8H151.321V60.8H141.721V62.8ZM151.321 62.8C153.633 62.8 155.521 60.9123 155.521 58.6H153.521C153.521 59.8077 152.528 60.8 151.321 60.8V62.8ZM156.721 49V58.6H158.721V49H156.721ZM156.721 58.6C156.721 61.5677 154.288 64 151.321 64V66C155.393 66 158.721 62.6723 158.721 58.6H156.721ZM151.321 64H141.721V66H151.321V64ZM141.721 64C138.721 64 136.321 61.5997 136.321 58.6H134.321C134.321 62.7043 137.616 66 141.721 66V64ZM136.321 58.6V49H134.321V58.6H136.321ZM136.321 49C136.321 46.0323 138.753 43.6 141.721 43.6V41.6C137.648 41.6 134.321 44.9277 134.321 49H136.321ZM141.721 43.6H151.321V41.6H141.721V43.6ZM151.321 43.6C154.17 43.6 156.721 46.0739 156.721 49H158.721C158.721 44.9501 155.255 41.6 151.321 41.6V43.6ZM170.209 54.344V53.344H169.209V54.344H170.209ZM170.209 61.8H169.209V62.8H170.209V61.8ZM189.409 57.544H190.409V57.5305L190.409 57.517L189.409 57.544ZM167.009 65H166.009V66H167.009V65ZM167.009 42.6V41.6H166.009V42.6H167.009ZM186.209 42.6H187.209V41.6H186.209V42.6ZM186.209 45.8V46.8H187.209V45.8H186.209ZM170.209 45.8V44.8H169.209V45.8H170.209ZM170.209 51.144H169.209V52.144H170.209V51.144ZM187.209 58.6V57.544H185.209V58.6H187.209ZM187.209 57.544C187.209 55.2317 185.322 53.344 183.009 53.344V55.344C184.217 55.344 185.209 56.3363 185.209 57.544H187.209ZM183.009 53.344H170.209V55.344H183.009V53.344ZM169.209 54.344V61.8H171.209V54.344H169.209ZM170.209 62.8H183.009V60.8H170.209V62.8ZM183.009 62.8C185.322 62.8 187.209 60.9123 187.209 58.6H185.209C185.209 59.8077 184.217 60.8 183.009 60.8V62.8ZM188.409 57.544V58.6H190.409V57.544H188.409ZM188.409 58.6C188.409 61.4593 186.022 64 183.009 64V66C187.165 66 190.409 62.5247 190.409 58.6H188.409ZM183.009 64H167.009V66H183.009V64ZM168.009 65V42.6H166.009V65H168.009ZM167.009 43.6H186.209V41.6H167.009V43.6ZM185.209 42.6V45.8H187.209V42.6H185.209ZM186.209 44.8H170.209V46.8H186.209V44.8ZM169.209 45.8V51.144H171.209V45.8H169.209ZM170.209 52.144H183.009V50.144H170.209V52.144ZM183.009 52.144C185.87 52.144 188.328 54.5385 188.41 57.571L190.409 57.517C190.299 53.4455 186.997 50.144 183.009 50.144V52.144ZM201.578 45.8V44.8H200.578V45.8H201.578ZM201.578 52.2H200.578V53.2H201.578V52.2ZM217.578 52.2H218.578V51.2H217.578V52.2ZM217.578 55.4V56.4H218.578V55.4H217.578ZM201.578 55.4V54.4H200.578V55.4H201.578ZM201.578 61.8H200.578V62.8H201.578V61.8ZM220.778 61.8H221.778V60.8H220.778V61.8ZM220.778 65V66H221.778V65H220.778ZM198.378 65H197.378V66H198.378V65ZM198.378 42.6V41.6H197.378V42.6H198.378ZM220.778 42.6H221.778V41.6H220.778V42.6ZM220.778 45.8V46.8H221.778V45.8H220.778ZM200.578 45.8V52.2H202.578V45.8H200.578ZM201.578 53.2H217.578V51.2H201.578V53.2ZM216.578 52.2V55.4H218.578V52.2H216.578ZM217.578 54.4H201.578V56.4H217.578V54.4ZM200.578 55.4V61.8H202.578V55.4H200.578ZM201.578 62.8H220.778V60.8H201.578V62.8ZM219.778 61.8V65H221.778V61.8H219.778ZM220.778 64H198.378V66H220.778V64ZM199.378 65V42.6H197.378V65H199.378ZM198.378 43.6H220.778V41.6H198.378V43.6ZM219.778 42.6V45.8H221.778V42.6H219.778ZM220.778 44.8H201.578V46.8H220.778V44.8ZM234.547 61.8H233.547V62.8H234.547V61.8ZM250.547 61.8V62.8H251.547V61.8H250.547ZM250.547 45.8H251.547V44.8H250.547V45.8ZM228.147 65H227.147V66H228.147V65ZM228.147 61.8V60.8H227.147V61.8H228.147ZM231.347 61.8V62.8H232.347V61.8H231.347ZM253.747 42.6H254.747V41.6H253.747V42.6ZM253.747 61.8H252.747V62.8H253.747V61.8ZM256.947 61.8H257.947V60.8H256.947V61.8ZM256.947 65V66H257.947V65H256.947ZM233.547 49V61.8H235.547V49H233.547ZM234.547 62.8H250.547V60.8H234.547V62.8ZM251.547 61.8V45.8H249.547V61.8H251.547ZM250.547 44.8H237.747V46.8H250.547V44.8ZM237.747 44.8C235.435 44.8 233.547 46.6877 233.547 49H235.547C235.547 47.7923 236.539 46.8 237.747 46.8V44.8ZM229.147 65V61.8H227.147V65H229.147ZM228.147 62.8H231.347V60.8H228.147V62.8ZM232.347 61.8V49H230.347V61.8H232.347ZM232.347 49C232.347 46.1407 234.734 43.6 237.747 43.6V41.6C233.591 41.6 230.347 45.0753 230.347 49H232.347ZM237.747 43.6H253.747V41.6H237.747V43.6ZM252.747 42.6V61.8H254.747V42.6H252.747ZM253.747 62.8H256.947V60.8H253.747V62.8ZM255.947 61.8V65H257.947V61.8H255.947ZM256.947 64H228.147V66H256.947V64ZM268.159 55.4H267.159V56.4H268.159V55.4ZM284.159 55.4V56.4H285.159V55.4H284.159ZM287.359 49H288.359V48.9865L288.359 48.973L287.359 49ZM287.359 65V66H288.359V65H287.359ZM284.159 65H283.159V66H284.159V65ZM284.159 58.6H285.159V57.6H284.159V58.6ZM268.159 58.6V57.6H267.159V58.6H268.159ZM268.159 65V66H269.159V65H268.159ZM264.959 65H263.959V66H264.959V65ZM280.959 44.8H271.359V46.8H280.959V44.8ZM271.359 44.8C269.047 44.8 267.159 46.6877 267.159 49H269.159C269.159 47.7923 270.152 46.8 271.359 46.8V44.8ZM267.159 49V55.4H269.159V49H267.159ZM268.159 56.4H284.159V54.4H268.159V56.4ZM285.159 55.4V49H283.159V55.4H285.159ZM285.159 49C285.159 46.6877 283.272 44.8 280.959 44.8V46.8C282.167 46.8 283.159 47.7923 283.159 49H285.159ZM286.359 49V65H288.359V49H286.359ZM287.359 64H284.159V66H287.359V64ZM285.159 65V58.6H283.159V65H285.159ZM284.159 57.6H268.159V59.6H284.159V57.6ZM267.159 58.6V65H269.159V58.6H267.159ZM268.159 64H264.959V66H268.159V64ZM265.959 65V49H263.959V65H265.959ZM265.959 49C265.959 46.1407 268.347 43.6 271.359 43.6V41.6C267.204 41.6 263.959 45.0753 263.959 49H265.959ZM271.359 43.6H280.959V41.6H271.359V43.6ZM280.959 43.6C283.82 43.6 286.278 45.9945 286.36 49.027L288.359 48.973C288.249 44.9015 284.947 41.6 280.959 41.6V43.6Z" fill="#FFEC8A" mask="url(#path-6-outside-1_448_81)"/>
</g>
<defs>
<filter id="filter0_d_448_81" x="134" y="0" width="119" height="24" filterUnits="userSpaceOnUse" color-interpolation-filters="sRGB">
<feFlood flood-opacity="0" result="BackgroundImageFix"/>
<feColorMatrix in="SourceAlpha" type="matrix" values="0 0 0 0 0 0 0 0 0 0 0 0 0 0 0 0 0 0 127 0" result="hardAlpha"/>
<feOffset/>
<feGaussianBlur stdDeviation="5"/>
<feComposite in2="hardAlpha" operator="out"/>
<feColorMatrix type="matrix" values="0 0 0 0 1 0 0 0 0 0.583588 0 0 0 0 0.00423177 0 0 0 1 0"/>
<feBlend mode="normal" in2="BackgroundImageFix" result="effect1_dropShadow_448_81"/>
<feBlend mode="normal" in="SourceGraphic" in2="effect1_dropShadow_448_81" result="shape"/>
</filter>
<filter id="filter1_df_448_81" x="134" y="1" width="119" height="22" filterUnits="userSpaceOnUse" color-interpolation-filters="sRGB">
<feFlood flood-opacity="0" result="BackgroundImageFix"/>
<feColorMatrix in="SourceAlpha" type="matrix" values="0 0 0 0 0 0 0 0 0 0 0 0 0 0 0 0 0 0 127 0" result="hardAlpha"/>
<feOffset/>
<feGaussianBlur stdDeviation="5"/>
<feComposite in2="hardAlpha" operator="out"/>
<feColorMatrix type="matrix" values="0 0 0 0 1 0 0 0 0 0.583588 0 0 0 0 0.00423177 0 0 0 1 0"/>
<feBlend mode="normal" in2="BackgroundImageFix" result="effect1_dropShadow_448_81"/>
<feBlend mode="normal" in="SourceGraphic" in2="effect1_dropShadow_448_81" result="shape"/>
<feGaussianBlur stdDeviation="1" result="effect2_foregroundBlur_448_81"/>
</filter>
<filter id="filter2_dd_448_81" x="93.647" y="32.5996" width="203.712" height="42.4004" filterUnits="userSpaceOnUse" color-interpolation-filters="sRGB">
<feFlood flood-opacity="0" result="BackgroundImageFix"/>
<feColorMatrix in="SourceAlpha" type="matrix" values="0 0 0 0 0 0 0 0 0 0 0 0 0 0 0 0 0 0 127 0" result="hardAlpha"/>
<feOffset dx="3" dy="3"/>
<feComposite in2="hardAlpha" operator="out"/>
<feColorMatrix type="matrix" values="0 0 0 0 1 0 0 0 0 0.792157 0 0 0 0 0.219608 0 0 0 0.2 0"/>
<feBlend mode="normal" in2="BackgroundImageFix" result="effect1_dropShadow_448_81"/>
<feColorMatrix in="SourceAlpha" type="matrix" values="0 0 0 0 0 0 0 0 0 0 0 0 0 0 0 0 0 0 127 0" result="hardAlpha"/>
<feOffset/>
<feGaussianBlur stdDeviation="5"/>
<feComposite in2="hardAlpha" operator="out"/>
<feColorMatrix type="matrix" values="0 0 0 0 1 0 0 0 0 0.792157 0 0 0 0 0.219608 0 0 0 0.5 0"/>
<feBlend mode="normal" in2="effect1_dropShadow_448_81" result="effect2_dropShadow_448_81"/>
<feBlend mode="normal" in="SourceGraphic" in2="effect2_dropShadow_448_81" result="shape"/>
</filter>
<radialGradient id="paint0_radial_448_81" cx="0" cy="0" r="1" gradientUnits="userSpaceOnUse" gradientTransform="translate(195 52.5) rotate(180) scale(195 268.45)">
<stop offset="0.33031" stop-color="#FFB70D"/>
<stop offset="1" stop-color="#FFEE8F" stop-opacity="0"/>
</radialGradient>
<radialGradient id="paint1_radial_448_81" cx="0" cy="0" r="1" gradientUnits="userSpaceOnUse" gradientTransform="translate(194 9.10652) rotate(180) scale(162.707 71.3494)">
<stop offset="0.33031" stop-color="#FFB70D"/>
<stop offset="1" stop-color="#FFEE8F" stop-opacity="0"/>
</radialGradient>
<radialGradient id="paint2_radial_448_81" cx="0" cy="0" r="1" gradientUnits="userSpaceOnUse" gradientTransform="translate(194 96.1064) rotate(180) scale(162.707 71.3494)">
<stop offset="0.33031" stop-color="#FFB70D"/>
<stop offset="1" stop-color="#FFEE8F" stop-opacity="0"/>
</radialGradient>
<linearGradient id="paint3_linear_448_81" x1="195.5" y1="42.8788" x2="195.5" y2="65.303" gradientUnits="userSpaceOnUse">
<stop stop-color="#FFF093"/>
<stop offset="1" stop-color="#FFB303"/>
</linearGradient>
</defs>
</svg>
