<svg width="32" height="32" viewBox="0 0 32 32" fill="none" xmlns="http://www.w3.org/2000/svg">
<path d="M16 2.66675C8.65332 2.66675 2.66666 8.65341 2.66666 16.0001C2.66666 23.3467 8.65332 29.3334 16 29.3334C23.3467 29.3334 29.3333 23.3467 29.3333 16.0001C29.3333 8.65341 23.3467 2.66675 16 2.66675ZM20.48 19.0667C20.8667 19.4534 20.8667 20.0934 20.48 20.4801C20.28 20.6801 20.0267 20.7734 19.7733 20.7734C19.52 20.7734 19.2667 20.6801 19.0667 20.4801L16 17.4134L12.9333 20.4801C12.7333 20.6801 12.48 20.7734 12.2267 20.7734C11.9733 20.7734 11.72 20.6801 11.52 20.4801C11.1333 20.0934 11.1333 19.4534 11.52 19.0667L14.5867 16.0001L11.52 12.9334C11.1333 12.5467 11.1333 11.9067 11.52 11.5201C11.9067 11.1334 12.5467 11.1334 12.9333 11.5201L16 14.5867L19.0667 11.5201C19.4533 11.1334 20.0933 11.1334 20.48 11.5201C20.8667 11.9067 20.8667 12.5467 20.48 12.9334L17.4133 16.0001L20.48 19.0667Z" fill="white" fill-opacity="0.3"/>
</svg>
