<svg width="64" height="64" viewBox="0 0 64 64" fill="none" xmlns="http://www.w3.org/2000/svg">
<path fill-rule="evenodd" clip-rule="evenodd" d="M19.7777 3.77767C20.1903 3.36509 20.7499 3.1333 21.3333 3.1333H42.6667C43.2501 3.1333 43.8097 3.36509 44.2223 3.77767L60.2223 19.7777C60.6349 20.1902 60.8667 20.7498 60.8667 21.3333V42.6666C60.8667 43.2501 60.6349 43.8097 60.2223 44.2223L44.2223 60.2223C43.8097 60.6348 43.2501 60.8666 42.6667 60.8666H21.3333C20.7499 60.8666 20.1903 60.6348 19.7777 60.2223L3.7777 44.2223C3.36512 43.8097 3.13333 43.2501 3.13333 42.6666V21.3333C3.13333 20.7498 3.36512 20.1902 3.7777 19.7777L19.7777 3.77767ZM22.2446 7.5333L7.53333 22.2446V41.7554L22.2446 56.4666H41.7554L56.4667 41.7554V22.2446L41.7554 7.5333H22.2446ZM22.4444 22.4443C23.3035 21.5852 24.6965 21.5852 25.5556 22.4443L32 28.8887L38.4444 22.4443C39.3035 21.5852 40.6965 21.5852 41.5556 22.4443C42.4148 23.3035 42.4148 24.6964 41.5556 25.5556L35.1113 32L41.5556 38.4443C42.4148 39.3035 42.4148 40.6964 41.5556 41.5556C40.6965 42.4148 39.3035 42.4148 38.4444 41.5556L32 35.1112L25.5556 41.5556C24.6965 42.4148 23.3035 42.4148 22.4444 41.5556C21.5852 40.6964 21.5852 39.3035 22.4444 38.4443L28.8887 32L22.4444 25.5556C21.5852 24.6964 21.5852 23.3035 22.4444 22.4443Z" fill="#FF697B"/>
</svg>
