<svg width="64" height="64" viewBox="0 0 64 64" fill="none" xmlns="http://www.w3.org/2000/svg">
<path fill-rule="evenodd" clip-rule="evenodd" d="M19.7777 3.77773C20.1903 3.36515 20.7499 3.13336 21.3333 3.13336H42.6667C43.2501 3.13336 43.8097 3.36515 44.2223 3.77773L60.2223 19.7777C60.6349 20.1903 60.8667 20.7499 60.8667 21.3334V42.6667C60.8667 43.2502 60.6349 43.8097 60.2223 44.2223L44.2223 60.2223C43.8097 60.6349 43.2501 60.8667 42.6667 60.8667H21.3333C20.7499 60.8667 20.1903 60.6349 19.7777 60.2223L3.7777 44.2223C3.36512 43.8097 3.13333 43.2502 3.13333 42.6667V21.3334C3.13333 20.7499 3.36512 20.1903 3.7777 19.7777L19.7777 3.77773ZM22.2446 7.53336L7.53333 22.2446V41.7554L22.2446 56.4667H41.7554L56.4667 41.7554V22.2446L41.7554 7.53336H22.2446Z" fill="#9FFF9C"/>
<path fill-rule="evenodd" clip-rule="evenodd" d="M46.2678 22.7323C47.2441 23.7086 47.2441 25.2915 46.2678 26.2678L30.2678 42.2678C29.2915 43.2441 27.7085 43.2441 26.7322 42.2678L18.7322 34.2678C17.7559 33.2915 17.7559 31.7086 18.7322 30.7323C19.7085 29.7559 21.2915 29.7559 22.2678 30.7323L28.5 36.9645L42.7322 22.7323C43.7085 21.7559 45.2915 21.7559 46.2678 22.7323Z" fill="#9FFF9C"/>
</svg>
