<svg width="154" height="28" viewBox="0 0 154 28" fill="none" xmlns="http://www.w3.org/2000/svg">
<path d="M10.8027 1.39683C11.5626 0.510251 12.672 0 13.8397 0H140.16C141.328 0 142.437 0.510251 143.197 1.39683L151.769 11.3968C153.053 12.8948 153.053 15.1052 151.769 16.6032L143.197 26.6032C142.437 27.4897 141.328 28 140.16 28H13.8397C12.672 28 11.5626 27.4897 10.8027 26.6032L2.23128 16.6032C0.94732 15.1052 0.94732 12.8948 2.23128 11.3968L10.8027 1.39683Z" fill="#0974F8" fill-opacity="0.35"/>
<path fill-rule="evenodd" clip-rule="evenodd" d="M20.2858 14.0004C20.2858 9.73994 23.7396 6.28613 28.0001 6.28613C32.2605 6.28613 35.7143 9.73994 35.7143 14.0004C35.7143 18.2609 32.2605 21.7147 28.0001 21.7147C23.7396 21.7147 20.2858 18.2609 20.2858 14.0004ZM26.7728 13.2991C26.7728 12.9118 27.0868 12.5978 27.4741 12.5978H28.526C28.9134 12.5978 29.2273 12.9118 29.2273 13.2991V18.2082C29.2273 18.5955 28.9134 18.9095 28.526 18.9095H27.4741C27.0868 18.9095 26.7728 18.5955 26.7728 18.2082V13.2991ZM29.4026 10.4939C29.4026 9.71929 28.7747 9.09133 28.0001 9.09133C27.2254 9.09133 26.5975 9.71929 26.5975 10.4939C26.5975 11.2686 27.2254 11.8965 28.0001 11.8965C28.7747 11.8965 29.4026 11.2686 29.4026 10.4939Z" fill="url(#paint0_linear_262_3171)"/>
<path d="M20.7858 14.0004C20.7858 10.0161 24.0157 6.78613 28.0001 6.78613C31.9844 6.78613 35.2143 10.0161 35.2143 14.0004C35.2143 17.9847 31.9844 21.2147 28.0001 21.2147C24.0157 21.2147 20.7858 17.9847 20.7858 14.0004ZM28.9153 12.1623C29.5038 11.8388 29.9026 11.2129 29.9026 10.4939C29.9026 9.44315 29.0509 8.59133 28.0001 8.59133C26.9492 8.59133 26.0975 9.44315 26.0975 10.4939C26.0975 11.2129 26.4963 11.8388 27.0848 12.1623C26.6124 12.324 26.2728 12.7719 26.2728 13.2991V18.2082C26.2728 18.8717 26.8106 19.4095 27.4741 19.4095H28.526C29.1895 19.4095 29.7273 18.8717 29.7273 18.2082V13.2991C29.7273 12.7719 29.3877 12.324 28.9153 12.1623Z" stroke="#19C2EF" stroke-opacity="0.55"/>
<g filter="url(#filter0_d_262_3171)">
<path d="M49.5 10V17H48.5V11H43.5V17H42.5V10H49.5ZM56.498 13V12C56.498 11.45 56.048 11 55.498 11H51.498V14H55.498C56.048 14 56.498 13.55 56.498 13ZM57.498 12V13C57.498 14.06 56.618 15 55.498 15H51.498V17H50.498V10H55.498C56.568 10 57.468 10.89 57.498 12ZM63.3008 11H60.3008C59.7508 11 59.3008 11.45 59.3008 12V14H64.3008V12C64.3008 11.45 63.8508 11 63.3008 11ZM65.3008 12V17H64.3008V15H59.3008V17H58.3008V12C58.3008 10.94 59.1808 10 60.3008 10H63.3008C64.3708 10 65.2708 10.89 65.3008 12ZM71.2988 17H66.2988V10H71.2988C72.3488 10 73.2988 10.89 73.2988 12C73.2988 12.6 73.0688 13.1 72.6188 13.5C73.0688 13.9 73.2988 14.4 73.2988 15C73.2988 16.08 72.4188 16.97 71.2988 17ZM71.2988 14H67.2988V16H71.2988C71.8488 16 72.2988 15.55 72.2988 15C72.2988 14.45 71.8488 14 71.2988 14ZM67.2988 11V13H71.2988C71.8488 13 72.2988 12.55 72.2988 12C72.2988 11.45 71.8488 11 71.2988 11H67.2988ZM74.1992 17V10H75.1992V15.55L80.1992 10H81.1992V17H80.1992V11.35L75.1992 17H74.1992ZM84.1973 10H89.1973V17H88.1973V11H84.1973C83.6473 11 83.1973 11.45 83.1973 12V17H82.1973V12C82.1973 10.92 83.0773 10.03 84.1973 10ZM95.1953 11H92.1953C91.6453 11 91.1953 11.45 91.1953 12V14H96.1953V12C96.1953 11.45 95.7453 11 95.1953 11ZM97.1953 12V17H96.1953V15H91.1953V17H90.1953V12C90.1953 10.94 91.0753 10 92.1953 10H95.1953C96.2653 10 97.1653 10.89 97.1953 12ZM102.197 17V10H103.197V15.55L108.197 10H109.197V17H108.197V11.35L103.197 17H102.197ZM116.195 11H111.195V17H110.195V10H116.195V11ZM122.699 13V12C122.699 11.45 122.249 11 121.699 11H117.699V14H121.699C122.249 14 122.699 13.55 122.699 13ZM123.699 12V13C123.699 14.06 122.819 15 121.699 15H117.699V17H116.699V10H121.699C122.769 10 123.669 10.89 123.699 12ZM130.502 15V14.5C130.502 13.95 130.052 13.5 129.502 13.5H125.502V16H129.502C130.052 16 130.502 15.55 130.502 15ZM131.502 14.5V15C131.502 16.06 130.622 17 129.502 17H124.502V10H125.502V12.5H129.502C130.572 12.5 131.472 13.39 131.502 14.5ZM132.502 17V10H133.502V17H132.502Z" fill="#19C2EF"/>
</g>
<defs>
<filter id="filter0_d_262_3171" x="42.5" y="9" width="93.002" height="8" filterUnits="userSpaceOnUse" color-interpolation-filters="sRGB">
<feFlood flood-opacity="0" result="BackgroundImageFix"/>
<feColorMatrix in="SourceAlpha" type="matrix" values="0 0 0 0 0 0 0 0 0 0 0 0 0 0 0 0 0 0 127 0" result="hardAlpha"/>
<feOffset dx="2" dy="-1"/>
<feComposite in2="hardAlpha" operator="out"/>
<feColorMatrix type="matrix" values="0 0 0 0 0.027451 0 0 0 0 0.423529 0 0 0 0 0.913725 0 0 0 0.2 0"/>
<feBlend mode="normal" in2="BackgroundImageFix" result="effect1_dropShadow_262_3171"/>
<feBlend mode="normal" in="SourceGraphic" in2="effect1_dropShadow_262_3171" result="shape"/>
</filter>
<linearGradient id="paint0_linear_262_3171" x1="28.0001" y1="6.28613" x2="28.0001" y2="21.7147" gradientUnits="userSpaceOnUse">
<stop stop-color="#0974F8"/>
<stop offset="1" stop-color="#4FB2FE"/>
</linearGradient>
</defs>
</svg>
