<svg width="166" height="61" viewBox="0 0 166 61" fill="none" xmlns="http://www.w3.org/2000/svg">
<g filter="url(#filter0_f_352_112870)">
<path d="M136.166 20H29.0917C27.8415 20 26.6633 20.5845 25.9069 21.5799L20.9677 28.0799C19.8808 29.5102 19.8808 31.4898 20.9677 32.9201L25.9069 39.4201C26.6633 40.4155 27.8416 41 29.0917 41H136.166C137.416 41 138.594 40.4155 139.35 39.4201L144.29 32.9201C145.377 31.4898 145.377 29.5102 144.29 28.0799L139.35 21.5799C138.594 20.5845 137.416 20 136.166 20Z" fill="url(#paint0_linear_352_112870)" fill-opacity="0.4"/>
</g>
<g filter="url(#filter1_di_352_112870)">
<path d="M136.166 20H29.0917C27.8415 20 26.6633 20.5845 25.9069 21.5799L20.9677 28.0799C19.8808 29.5102 19.8808 31.4898 20.9677 32.9201L25.9069 39.4201C26.6633 40.4155 27.8416 41 29.0917 41H136.166C137.416 41 138.594 40.4155 139.35 39.4201L144.29 32.9201C145.377 31.4898 145.377 29.5102 144.29 28.0799L139.35 21.5799C138.594 20.5845 137.416 20 136.166 20Z" fill="#FD9D17" fill-opacity="0.4" shape-rendering="crispEdges"/>
<path d="M29.0917 20.5H136.166C137.259 20.5 138.29 21.0114 138.952 21.8824L143.892 28.3824C144.843 29.634 144.843 31.366 143.892 32.6176L138.952 39.1176C138.29 39.9886 137.26 40.5 136.166 40.5H29.0917C27.9978 40.5 26.9668 39.9886 26.305 39.1176L21.3658 32.6176C20.4147 31.366 20.4147 29.634 21.3658 28.3824L26.305 21.8824C26.9668 21.0114 27.9978 20.5 29.0917 20.5Z" stroke="#FD9D17" stroke-opacity="0.9" shape-rendering="crispEdges"/>
</g>
<mask id="mask0_352_112870" style="mask-type:alpha" maskUnits="userSpaceOnUse" x="20" y="20" width="126" height="21">
<path d="M136.276 20H28.9811C27.7327 20 26.5559 20.5828 25.7994 21.5758L20.847 28.0758C19.756 29.5078 19.756 31.4922 20.847 32.9242L25.7994 39.4242C26.556 40.4172 27.7327 41 28.9811 41H136.276C137.525 41 138.701 40.4172 139.458 39.4242L144.41 32.9242C145.501 31.4922 145.501 29.5078 144.41 28.0758L139.458 21.5758C138.701 20.5828 137.525 20 136.276 20Z" fill="#FD9D17" fill-opacity="0.4"/>
<path d="M28.9811 20.5H136.276C137.369 20.5 138.398 21.01 139.06 21.8788L144.013 28.3788C144.967 29.6318 144.967 31.3682 144.013 32.6212L139.06 39.1212C138.398 39.99 137.369 40.5 136.276 40.5H28.9811C27.8888 40.5 26.8591 39.99 26.1971 39.1212L21.2447 32.6212C20.2901 31.3682 20.2901 29.6318 21.2447 28.3788L26.1971 21.8789C26.8591 21.01 27.8888 20.5 28.9811 20.5Z" stroke="#FD9D17" stroke-opacity="0.9"/>
</mask>
<g mask="url(#mask0_352_112870)">
<path d="M36.1287 53.4082H135.129V52.4537H36.1287V53.4082Z" fill="url(#paint1_linear_352_112870)"/>
<path d="M33.1287 50.5446H132.129V49.59H33.1287V50.5446Z" fill="url(#paint2_linear_352_112870)"/>
<path d="M30.1287 47.6809H129.129V46.7264H30.1287V47.6809Z" fill="url(#paint3_linear_352_112870)"/>
<path d="M27.1287 44.8173H126.129V43.8627H27.1287V44.8173Z" fill="url(#paint4_linear_352_112870)"/>
<path d="M24.1287 41.9537H123.129V40.9991H24.1287V41.9537Z" fill="url(#paint5_linear_352_112870)"/>
<path d="M21.1287 39.09H120.129V38.1355H21.1287V39.09Z" fill="url(#paint6_linear_352_112870)"/>
<path d="M18.1287 36.2264H117.129V35.2718H18.1287V36.2264Z" fill="url(#paint7_linear_352_112870)"/>
<path d="M15.1287 33.3627H114.129V32.4082H15.1287V33.3627Z" fill="url(#paint8_linear_352_112870)"/>
<path d="M12.1287 30.4991H111.129V29.5446H12.1287V30.4991Z" fill="url(#paint9_linear_352_112870)"/>
<path d="M9.12866 27.6355H108.129V26.6809H9.12866V27.6355Z" fill="url(#paint10_linear_352_112870)"/>
<path d="M6.12866 24.7718H105.129V23.8173H6.12866V24.7718Z" fill="url(#paint11_linear_352_112870)"/>
<path d="M3.12866 21.9082H102.129V20.9537H3.12866V21.9082Z" fill="url(#paint12_linear_352_112870)"/>
<path d="M0.128662 19.0446H99.1287V18.09H0.128662V19.0446Z" fill="url(#paint13_linear_352_112870)"/>
<path d="M-2.87134 16.1809H96.1287V15.2264H-2.87134V16.1809Z" fill="url(#paint14_linear_352_112870)"/>
<path d="M-5.87134 13.3173H93.1287V12.3627H-5.87134V13.3173Z" fill="url(#paint15_linear_352_112870)"/>
<path d="M-8.87134 10.4537H90.1287V9.49911H-8.87134V10.4537Z" fill="url(#paint16_linear_352_112870)"/>
<path d="M-11.8713 7.59002H87.1287V6.63548H-11.8713V7.59002Z" fill="url(#paint17_linear_352_112870)"/>
<path d="M-14.8713 4.72639H84.1287V3.77184H-14.8713V4.72639Z" fill="url(#paint18_linear_352_112870)"/>
<path d="M-17.8713 1.86275H81.1287V0.908204H-17.8713V1.86275Z" fill="url(#paint19_linear_352_112870)"/>
<path d="M-20.8713 -1.00089H78.1287V-1.95543H-20.8713V-1.00089Z" fill="url(#paint20_linear_352_112870)"/>
<path d="M138.129 53.4082H39.1287V52.4537H138.129V53.4082Z" fill="url(#paint21_linear_352_112870)"/>
<path d="M141.129 50.5446H42.1287V49.59H141.129V50.5446Z" fill="url(#paint22_linear_352_112870)"/>
<path d="M144.129 47.6809H45.1287V46.7264H144.129V47.6809Z" fill="url(#paint23_linear_352_112870)"/>
<path d="M147.129 44.8173H48.1287V43.8627H147.129V44.8173Z" fill="url(#paint24_linear_352_112870)"/>
<path d="M150.129 41.9537H51.1287V40.9991H150.129V41.9537Z" fill="url(#paint25_linear_352_112870)"/>
<path d="M153.129 39.09H54.1287V38.1355H153.129V39.09Z" fill="url(#paint26_linear_352_112870)"/>
<path d="M156.129 36.2264H57.1287V35.2718H156.129V36.2264Z" fill="url(#paint27_linear_352_112870)"/>
<path d="M159.129 33.3627H60.1287V32.4082H159.129V33.3627Z" fill="url(#paint28_linear_352_112870)"/>
<path d="M162.129 30.4991H63.1287V29.5446H162.129V30.4991Z" fill="url(#paint29_linear_352_112870)"/>
<path d="M165.129 27.6355H66.1287V26.6809H165.129V27.6355Z" fill="url(#paint30_linear_352_112870)"/>
<path d="M168.129 24.7718H69.1287V23.8173H168.129V24.7718Z" fill="url(#paint31_linear_352_112870)"/>
<path d="M171.129 21.9082H72.1287V20.9537H171.129V21.9082Z" fill="url(#paint32_linear_352_112870)"/>
<path d="M174.129 19.0446H75.1287V18.09H174.129V19.0446Z" fill="url(#paint33_linear_352_112870)"/>
<path d="M177.129 16.1809H78.1287V15.2264H177.129V16.1809Z" fill="url(#paint34_linear_352_112870)"/>
<path d="M180.129 13.3173H81.1287V12.3627H180.129V13.3173Z" fill="url(#paint35_linear_352_112870)"/>
<path d="M183.129 10.4537H84.1287V9.49911H183.129V10.4537Z" fill="url(#paint36_linear_352_112870)"/>
<path d="M186.129 7.59002H87.1287V6.63548H186.129V7.59002Z" fill="url(#paint37_linear_352_112870)"/>
<path d="M189.129 4.72639H90.1287V3.77184H189.129V4.72639Z" fill="url(#paint38_linear_352_112870)"/>
<path d="M192.129 1.86275H93.1287V0.908204H192.129V1.86275Z" fill="url(#paint39_linear_352_112870)"/>
<path d="M195.129 -1.00089H96.1287V-1.95543H195.129V-1.00089Z" fill="url(#paint40_linear_352_112870)"/>
</g>
<g filter="url(#filter2_d_352_112870)">
<rect x="34" y="44" width="99" height="3" rx="1.5" fill="#FFD233"/>
</g>
<g filter="url(#filter3_df_352_112870)">
<rect x="34" y="44.75" width="99" height="1.5" rx="0.75" fill="#FFF4CE"/>
</g>
<defs>
<filter id="filter0_f_352_112870" x="10.1526" y="10" width="144.952" height="41" filterUnits="userSpaceOnUse" color-interpolation-filters="sRGB">
<feFlood flood-opacity="0" result="BackgroundImageFix"/>
<feBlend mode="normal" in="SourceGraphic" in2="BackgroundImageFix" result="shape"/>
<feGaussianBlur stdDeviation="5" result="effect1_foregroundBlur_352_112870"/>
</filter>
<filter id="filter1_di_352_112870" x="0.152588" y="0" width="164.952" height="61" filterUnits="userSpaceOnUse" color-interpolation-filters="sRGB">
<feFlood flood-opacity="0" result="BackgroundImageFix"/>
<feColorMatrix in="SourceAlpha" type="matrix" values="0 0 0 0 0 0 0 0 0 0 0 0 0 0 0 0 0 0 127 0" result="hardAlpha"/>
<feOffset/>
<feGaussianBlur stdDeviation="10"/>
<feComposite in2="hardAlpha" operator="out"/>
<feColorMatrix type="matrix" values="0 0 0 0 0.992157 0 0 0 0 0.615686 0 0 0 0 0.0901961 0 0 0 0.5 0"/>
<feBlend mode="normal" in2="BackgroundImageFix" result="effect1_dropShadow_352_112870"/>
<feBlend mode="normal" in="SourceGraphic" in2="effect1_dropShadow_352_112870" result="shape"/>
<feColorMatrix in="SourceAlpha" type="matrix" values="0 0 0 0 0 0 0 0 0 0 0 0 0 0 0 0 0 0 127 0" result="hardAlpha"/>
<feOffset/>
<feGaussianBlur stdDeviation="4"/>
<feComposite in2="hardAlpha" operator="arithmetic" k2="-1" k3="1"/>
<feColorMatrix type="matrix" values="0 0 0 0 0.992157 0 0 0 0 0.615686 0 0 0 0 0.0901961 0 0 0 1 0"/>
<feBlend mode="normal" in2="shape" result="effect2_innerShadow_352_112870"/>
</filter>
<filter id="filter2_d_352_112870" x="24" y="34" width="119" height="23" filterUnits="userSpaceOnUse" color-interpolation-filters="sRGB">
<feFlood flood-opacity="0" result="BackgroundImageFix"/>
<feColorMatrix in="SourceAlpha" type="matrix" values="0 0 0 0 0 0 0 0 0 0 0 0 0 0 0 0 0 0 127 0" result="hardAlpha"/>
<feOffset/>
<feGaussianBlur stdDeviation="5"/>
<feComposite in2="hardAlpha" operator="out"/>
<feColorMatrix type="matrix" values="0 0 0 0 1 0 0 0 0 0.583588 0 0 0 0 0.00423177 0 0 0 1 0"/>
<feBlend mode="normal" in2="BackgroundImageFix" result="effect1_dropShadow_352_112870"/>
<feBlend mode="normal" in="SourceGraphic" in2="effect1_dropShadow_352_112870" result="shape"/>
</filter>
<filter id="filter3_df_352_112870" x="24" y="34.75" width="119" height="21.5" filterUnits="userSpaceOnUse" color-interpolation-filters="sRGB">
<feFlood flood-opacity="0" result="BackgroundImageFix"/>
<feColorMatrix in="SourceAlpha" type="matrix" values="0 0 0 0 0 0 0 0 0 0 0 0 0 0 0 0 0 0 127 0" result="hardAlpha"/>
<feOffset/>
<feGaussianBlur stdDeviation="5"/>
<feComposite in2="hardAlpha" operator="out"/>
<feColorMatrix type="matrix" values="0 0 0 0 1 0 0 0 0 0.583588 0 0 0 0 0.00423177 0 0 0 1 0"/>
<feBlend mode="normal" in2="BackgroundImageFix" result="effect1_dropShadow_352_112870"/>
<feBlend mode="normal" in="SourceGraphic" in2="effect1_dropShadow_352_112870" result="shape"/>
<feGaussianBlur stdDeviation="1" result="effect2_foregroundBlur_352_112870"/>
</filter>
<linearGradient id="paint0_linear_352_112870" x1="87.6287" y1="41" x2="87.6287" y2="20" gradientUnits="userSpaceOnUse">
<stop stop-color="#FD9D17"/>
<stop offset="1" stop-color="#FD9D17" stop-opacity="0"/>
</linearGradient>
<linearGradient id="paint1_linear_352_112870" x1="80.1287" y1="31.9309" x2="27.1287" y2="31.9309" gradientUnits="userSpaceOnUse">
<stop stop-color="#FD9D17" stop-opacity="0"/>
<stop offset="1" stop-color="#FD9D17"/>
</linearGradient>
<linearGradient id="paint2_linear_352_112870" x1="80.1287" y1="31.9309" x2="27.1287" y2="31.9309" gradientUnits="userSpaceOnUse">
<stop stop-color="#FD9D17" stop-opacity="0"/>
<stop offset="1" stop-color="#FD9D17"/>
</linearGradient>
<linearGradient id="paint3_linear_352_112870" x1="80.1287" y1="31.9309" x2="27.1287" y2="31.9309" gradientUnits="userSpaceOnUse">
<stop stop-color="#FD9D17" stop-opacity="0"/>
<stop offset="1" stop-color="#FD9D17"/>
</linearGradient>
<linearGradient id="paint4_linear_352_112870" x1="80.1287" y1="31.9309" x2="27.1287" y2="31.9309" gradientUnits="userSpaceOnUse">
<stop stop-color="#FD9D17" stop-opacity="0"/>
<stop offset="1" stop-color="#FD9D17"/>
</linearGradient>
<linearGradient id="paint5_linear_352_112870" x1="80.1287" y1="31.9309" x2="27.1287" y2="31.9309" gradientUnits="userSpaceOnUse">
<stop stop-color="#FD9D17" stop-opacity="0"/>
<stop offset="1" stop-color="#FD9D17"/>
</linearGradient>
<linearGradient id="paint6_linear_352_112870" x1="80.1287" y1="31.9309" x2="27.1287" y2="31.9309" gradientUnits="userSpaceOnUse">
<stop stop-color="#FD9D17" stop-opacity="0"/>
<stop offset="1" stop-color="#FD9D17"/>
</linearGradient>
<linearGradient id="paint7_linear_352_112870" x1="80.1287" y1="31.9309" x2="27.1287" y2="31.9309" gradientUnits="userSpaceOnUse">
<stop stop-color="#FD9D17" stop-opacity="0"/>
<stop offset="1" stop-color="#FD9D17"/>
</linearGradient>
<linearGradient id="paint8_linear_352_112870" x1="80.1287" y1="31.9309" x2="27.1287" y2="31.9309" gradientUnits="userSpaceOnUse">
<stop stop-color="#FD9D17" stop-opacity="0"/>
<stop offset="1" stop-color="#FD9D17"/>
</linearGradient>
<linearGradient id="paint9_linear_352_112870" x1="80.1287" y1="31.9309" x2="27.1287" y2="31.9309" gradientUnits="userSpaceOnUse">
<stop stop-color="#FD9D17" stop-opacity="0"/>
<stop offset="1" stop-color="#FD9D17"/>
</linearGradient>
<linearGradient id="paint10_linear_352_112870" x1="80.1287" y1="31.9309" x2="27.1287" y2="31.9309" gradientUnits="userSpaceOnUse">
<stop stop-color="#FD9D17" stop-opacity="0"/>
<stop offset="1" stop-color="#FD9D17"/>
</linearGradient>
<linearGradient id="paint11_linear_352_112870" x1="80.1287" y1="31.9309" x2="27.1287" y2="31.9309" gradientUnits="userSpaceOnUse">
<stop stop-color="#FD9D17" stop-opacity="0"/>
<stop offset="1" stop-color="#FD9D17"/>
</linearGradient>
<linearGradient id="paint12_linear_352_112870" x1="80.1287" y1="31.9309" x2="27.1287" y2="31.9309" gradientUnits="userSpaceOnUse">
<stop stop-color="#FD9D17" stop-opacity="0"/>
<stop offset="1" stop-color="#FD9D17"/>
</linearGradient>
<linearGradient id="paint13_linear_352_112870" x1="80.1287" y1="31.9309" x2="27.1287" y2="31.9309" gradientUnits="userSpaceOnUse">
<stop stop-color="#FD9D17" stop-opacity="0"/>
<stop offset="1" stop-color="#FD9D17"/>
</linearGradient>
<linearGradient id="paint14_linear_352_112870" x1="80.1287" y1="31.9309" x2="27.1287" y2="31.9309" gradientUnits="userSpaceOnUse">
<stop stop-color="#FD9D17" stop-opacity="0"/>
<stop offset="1" stop-color="#FD9D17"/>
</linearGradient>
<linearGradient id="paint15_linear_352_112870" x1="80.1287" y1="31.9309" x2="27.1287" y2="31.9309" gradientUnits="userSpaceOnUse">
<stop stop-color="#FD9D17" stop-opacity="0"/>
<stop offset="1" stop-color="#FD9D17"/>
</linearGradient>
<linearGradient id="paint16_linear_352_112870" x1="80.1287" y1="31.9309" x2="27.1287" y2="31.9309" gradientUnits="userSpaceOnUse">
<stop stop-color="#FD9D17" stop-opacity="0"/>
<stop offset="1" stop-color="#FD9D17"/>
</linearGradient>
<linearGradient id="paint17_linear_352_112870" x1="80.1287" y1="31.9309" x2="27.1287" y2="31.9309" gradientUnits="userSpaceOnUse">
<stop stop-color="#FD9D17" stop-opacity="0"/>
<stop offset="1" stop-color="#FD9D17"/>
</linearGradient>
<linearGradient id="paint18_linear_352_112870" x1="80.1287" y1="31.9309" x2="27.1287" y2="31.9309" gradientUnits="userSpaceOnUse">
<stop stop-color="#FD9D17" stop-opacity="0"/>
<stop offset="1" stop-color="#FD9D17"/>
</linearGradient>
<linearGradient id="paint19_linear_352_112870" x1="80.1287" y1="31.9309" x2="27.1287" y2="31.9309" gradientUnits="userSpaceOnUse">
<stop stop-color="#FD9D17" stop-opacity="0"/>
<stop offset="1" stop-color="#FD9D17"/>
</linearGradient>
<linearGradient id="paint20_linear_352_112870" x1="80.1287" y1="31.9309" x2="27.1287" y2="31.9309" gradientUnits="userSpaceOnUse">
<stop stop-color="#FD9D17" stop-opacity="0"/>
<stop offset="1" stop-color="#FD9D17"/>
</linearGradient>
<linearGradient id="paint21_linear_352_112870" x1="94.1287" y1="31.9309" x2="147.129" y2="31.9309" gradientUnits="userSpaceOnUse">
<stop stop-color="#FD9D17" stop-opacity="0"/>
<stop offset="1" stop-color="#FD9D17"/>
</linearGradient>
<linearGradient id="paint22_linear_352_112870" x1="94.1287" y1="31.9309" x2="147.129" y2="31.9309" gradientUnits="userSpaceOnUse">
<stop stop-color="#FD9D17" stop-opacity="0"/>
<stop offset="1" stop-color="#FD9D17"/>
</linearGradient>
<linearGradient id="paint23_linear_352_112870" x1="94.1287" y1="31.9309" x2="147.129" y2="31.9309" gradientUnits="userSpaceOnUse">
<stop stop-color="#FD9D17" stop-opacity="0"/>
<stop offset="1" stop-color="#FD9D17"/>
</linearGradient>
<linearGradient id="paint24_linear_352_112870" x1="94.1287" y1="31.9309" x2="147.129" y2="31.9309" gradientUnits="userSpaceOnUse">
<stop stop-color="#FD9D17" stop-opacity="0"/>
<stop offset="1" stop-color="#FD9D17"/>
</linearGradient>
<linearGradient id="paint25_linear_352_112870" x1="94.1287" y1="31.9309" x2="147.129" y2="31.9309" gradientUnits="userSpaceOnUse">
<stop stop-color="#FD9D17" stop-opacity="0"/>
<stop offset="1" stop-color="#FD9D17"/>
</linearGradient>
<linearGradient id="paint26_linear_352_112870" x1="94.1287" y1="31.9309" x2="147.129" y2="31.9309" gradientUnits="userSpaceOnUse">
<stop stop-color="#FD9D17" stop-opacity="0"/>
<stop offset="1" stop-color="#FD9D17"/>
</linearGradient>
<linearGradient id="paint27_linear_352_112870" x1="94.1287" y1="31.9309" x2="147.129" y2="31.9309" gradientUnits="userSpaceOnUse">
<stop stop-color="#FD9D17" stop-opacity="0"/>
<stop offset="1" stop-color="#FD9D17"/>
</linearGradient>
<linearGradient id="paint28_linear_352_112870" x1="94.1287" y1="31.9309" x2="147.129" y2="31.9309" gradientUnits="userSpaceOnUse">
<stop stop-color="#FD9D17" stop-opacity="0"/>
<stop offset="1" stop-color="#FD9D17"/>
</linearGradient>
<linearGradient id="paint29_linear_352_112870" x1="94.1287" y1="31.9309" x2="147.129" y2="31.9309" gradientUnits="userSpaceOnUse">
<stop stop-color="#FD9D17" stop-opacity="0"/>
<stop offset="1" stop-color="#FD9D17"/>
</linearGradient>
<linearGradient id="paint30_linear_352_112870" x1="94.1287" y1="31.9309" x2="147.129" y2="31.9309" gradientUnits="userSpaceOnUse">
<stop stop-color="#FD9D17" stop-opacity="0"/>
<stop offset="1" stop-color="#FD9D17"/>
</linearGradient>
<linearGradient id="paint31_linear_352_112870" x1="94.1287" y1="31.9309" x2="147.129" y2="31.9309" gradientUnits="userSpaceOnUse">
<stop stop-color="#FD9D17" stop-opacity="0"/>
<stop offset="1" stop-color="#FD9D17"/>
</linearGradient>
<linearGradient id="paint32_linear_352_112870" x1="94.1287" y1="31.9309" x2="147.129" y2="31.9309" gradientUnits="userSpaceOnUse">
<stop stop-color="#FD9D17" stop-opacity="0"/>
<stop offset="1" stop-color="#FD9D17"/>
</linearGradient>
<linearGradient id="paint33_linear_352_112870" x1="94.1287" y1="31.9309" x2="147.129" y2="31.9309" gradientUnits="userSpaceOnUse">
<stop stop-color="#FD9D17" stop-opacity="0"/>
<stop offset="1" stop-color="#FD9D17"/>
</linearGradient>
<linearGradient id="paint34_linear_352_112870" x1="94.1287" y1="31.9309" x2="147.129" y2="31.9309" gradientUnits="userSpaceOnUse">
<stop stop-color="#FD9D17" stop-opacity="0"/>
<stop offset="1" stop-color="#FD9D17"/>
</linearGradient>
<linearGradient id="paint35_linear_352_112870" x1="94.1287" y1="31.9309" x2="147.129" y2="31.9309" gradientUnits="userSpaceOnUse">
<stop stop-color="#FD9D17" stop-opacity="0"/>
<stop offset="1" stop-color="#FD9D17"/>
</linearGradient>
<linearGradient id="paint36_linear_352_112870" x1="94.1287" y1="31.9309" x2="147.129" y2="31.9309" gradientUnits="userSpaceOnUse">
<stop stop-color="#FD9D17" stop-opacity="0"/>
<stop offset="1" stop-color="#FD9D17"/>
</linearGradient>
<linearGradient id="paint37_linear_352_112870" x1="94.1287" y1="31.9309" x2="147.129" y2="31.9309" gradientUnits="userSpaceOnUse">
<stop stop-color="#FD9D17" stop-opacity="0"/>
<stop offset="1" stop-color="#FD9D17"/>
</linearGradient>
<linearGradient id="paint38_linear_352_112870" x1="94.1287" y1="31.9309" x2="147.129" y2="31.9309" gradientUnits="userSpaceOnUse">
<stop stop-color="#FD9D17" stop-opacity="0"/>
<stop offset="1" stop-color="#FD9D17"/>
</linearGradient>
<linearGradient id="paint39_linear_352_112870" x1="94.1287" y1="31.9309" x2="147.129" y2="31.9309" gradientUnits="userSpaceOnUse">
<stop stop-color="#FD9D17" stop-opacity="0"/>
<stop offset="1" stop-color="#FD9D17"/>
</linearGradient>
<linearGradient id="paint40_linear_352_112870" x1="94.1287" y1="31.9309" x2="147.129" y2="31.9309" gradientUnits="userSpaceOnUse">
<stop stop-color="#FD9D17" stop-opacity="0"/>
<stop offset="1" stop-color="#FD9D17"/>
</linearGradient>
</defs>
</svg>
