<svg width="28" height="28" viewBox="0 0 28 28" fill="none" xmlns="http://www.w3.org/2000/svg">
<path d="M14.7998 13.9996C14.7998 12.6741 15.8743 11.5996 17.1998 11.5996C18.5252 11.5996 19.5998 12.6741 19.5998 13.9996C19.5998 15.3251 18.5252 16.3996 17.1998 16.3996C15.8743 16.3996 14.7998 15.3251 14.7998 13.9996Z" fill="url(#paint0_linear_340_93869)"/>
<path d="M15.2998 13.9996C15.2998 12.9503 16.1505 12.0996 17.1998 12.0996C18.2491 12.0996 19.0998 12.9503 19.0998 13.9996C19.0998 15.0489 18.2491 15.8996 17.1998 15.8996C16.1505 15.8996 15.2998 15.049 15.2998 13.9996Z" stroke="#19C2EF" stroke-opacity="0.55"/>
<path fill-rule="evenodd" clip-rule="evenodd" d="M4.4 2C3.07452 2 2 3.07452 2 4.4V22C2 23.3254 3.07452 24.4 4.4 24.4H5.2V26H6.8V24.4H21.2V26H22.8V24.4H23.6C24.9254 24.4 26 23.3254 26 22V4.4C26 3.07452 24.9254 2 23.6 2H4.4ZM5.2 6.8V11.6H6.8V6.8H5.2ZM17.2 10C14.9909 10 13.2 11.7909 13.2 14C13.2 16.2091 14.9909 18 17.2 18C19.4091 18 21.2 16.2091 21.2 14C21.2 11.7909 19.4091 10 17.2 10ZM5.2 19.6V14.8H6.8V19.6H5.2Z" fill="url(#paint1_linear_340_93869)"/>
<path d="M5.7 24.4V23.9H5.2H4.4C3.35066 23.9 2.5 23.0493 2.5 22V4.4C2.5 3.35066 3.35066 2.5 4.4 2.5H23.6C24.6493 2.5 25.5 3.35066 25.5 4.4V22C25.5 23.0493 24.6493 23.9 23.6 23.9H22.8H22.3V24.4V25.5H21.7V24.4V23.9H21.2H6.8H6.3V24.4V25.5H5.7V24.4ZM5.2 6.3H4.7V6.8V11.6V12.1H5.2H6.8H7.3V11.6V6.8V6.3H6.8H5.2ZM4.7 19.6V20.1H5.2H6.8H7.3V19.6V14.8V14.3H6.8H5.2H4.7V14.8V19.6ZM17.2 9.5C14.7147 9.5 12.7 11.5147 12.7 14C12.7 16.4853 14.7147 18.5 17.2 18.5C19.6853 18.5 21.7 16.4853 21.7 14C21.7 11.5147 19.6853 9.5 17.2 9.5Z" stroke="#19C2EF" stroke-opacity="0.55"/>
<defs>
<linearGradient id="paint0_linear_340_93869" x1="17.1998" y1="11.5996" x2="17.1998" y2="16.3996" gradientUnits="userSpaceOnUse">
<stop stop-color="#0974F8"/>
<stop offset="1" stop-color="#4FB2FE"/>
</linearGradient>
<linearGradient id="paint1_linear_340_93869" x1="14" y1="2" x2="14" y2="26" gradientUnits="userSpaceOnUse">
<stop stop-color="#0974F8"/>
<stop offset="1" stop-color="#4FB2FE"/>
</linearGradient>
</defs>
</svg>
