<svg width="48" height="48" viewBox="0 0 48 48" fill="none" xmlns="http://www.w3.org/2000/svg">
<g filter="url(#filter0_d_500_15)">
<path d="M42 14C42 9.58172 38.4183 6 34 6H14C9.58172 6 6 9.58172 6 14V34C6 38.4183 9.58172 42 14 42H34C38.4183 42 42 38.4183 42 34V14Z" stroke="#19C2EF" stroke-opacity="0.8" shape-rendering="crispEdges"/>
</g>
<g filter="url(#filter1_b_500_15)">
<path d="M40 14C40 10.6863 37.3137 8 34 8H14C10.6863 8 8 10.6863 8 14V34C8 37.3137 10.6863 40 14 40H34C37.3137 40 40 37.3137 40 34V14Z" fill="#0974F8" fill-opacity="0.4"/>
</g>
<g clip-path="url(#clip0_500_15)">
<path d="M23.6875 16.3944L14.7862 14.0206C14.7331 14.0066 14.6791 14 14.6253 14C14.4887 14 14.3547 14.0444 14.2441 14.1291C14.0903 14.2475 14 14.4306 14 14.6247V27.5919L23.6875 30.1562V16.3944ZM21.6344 26.5853C21.595 26.7228 21.4697 26.8122 21.3341 26.8122C21.3053 26.8122 21.2766 26.8081 21.2481 26.8003L16.7272 25.5087C16.5613 25.4612 16.465 25.2884 16.5122 25.1225C16.5597 24.9562 16.7338 24.8622 16.8984 24.9075L21.4194 26.1991C21.5853 26.2466 21.6816 26.4194 21.6344 26.5853ZM21.6344 24.3978C21.595 24.5353 21.4697 24.6247 21.3341 24.6247C21.3053 24.6247 21.2766 24.6206 21.2481 24.6128L16.7272 23.3209C16.5613 23.2734 16.465 23.1003 16.5122 22.9347C16.5597 22.7684 16.7338 22.6744 16.8984 22.7197L21.4194 24.0116C21.5853 24.0591 21.6816 24.2322 21.6344 24.3978ZM21.6344 22.2103C21.595 22.3478 21.4697 22.4372 21.3341 22.4372C21.3053 22.4372 21.2766 22.4331 21.2481 22.4253L16.7272 21.1334C16.5613 21.0859 16.465 20.9128 16.5122 20.7472C16.5597 20.5809 16.7338 20.4866 16.8984 20.5322L21.4194 21.8241C21.5853 21.8716 21.6816 22.0447 21.6344 22.2103ZM21.6344 20.0228C21.595 20.1603 21.4697 20.2497 21.3341 20.2497C21.3053 20.2497 21.2766 20.2456 21.2481 20.2378L16.7272 18.9459C16.5613 18.8984 16.465 18.7253 16.5122 18.5597C16.5597 18.3934 16.7338 18.2994 16.8984 18.3447L21.4194 19.6366C21.5853 19.6841 21.6816 19.8572 21.6344 20.0228Z" fill="url(#paint0_linear_500_15)"/>
<path d="M33.7559 14.1291C33.6453 14.0444 33.5109 14 33.3744 14C33.3206 14 33.2666 14.0069 33.2138 14.0206L24.3125 16.3944V30.1562L34 27.5919V14.6247C34 14.4306 33.9097 14.2475 33.7559 14.1291ZM26.32 23.9997L30.8409 22.7078C31.0059 22.6625 31.1797 22.7563 31.2272 22.9228C31.2744 23.0884 31.1784 23.2616 31.0122 23.3091L26.4913 24.6009C26.4625 24.6088 26.4337 24.6128 26.4053 24.6128C26.2694 24.6128 26.1444 24.5234 26.105 24.3859C26.0578 24.2203 26.1541 24.0472 26.32 23.9997ZM31.1069 25.5087L26.5859 26.8003C26.5575 26.8081 26.5288 26.8122 26.5 26.8122C26.3641 26.8122 26.2391 26.7228 26.1997 26.5853C26.1525 26.4194 26.2484 26.2466 26.4147 26.1991L30.9356 24.9075C31.1006 24.8622 31.2744 24.9559 31.3219 25.1225C31.3691 25.2884 31.2728 25.4612 31.1069 25.5087ZM31.1069 21.1334L26.5859 22.4253C26.5575 22.4331 26.5288 22.4372 26.5 22.4372C26.3641 22.4372 26.2391 22.3478 26.1997 22.2103C26.1525 22.0447 26.2484 21.8716 26.4147 21.8241L30.9356 20.5322C31.1006 20.4866 31.2744 20.5806 31.3219 20.7472C31.3691 20.9128 31.2728 21.0859 31.1069 21.1334ZM31.1069 18.9459L26.5859 20.2378C26.5575 20.2456 26.5288 20.2497 26.5 20.2497C26.3641 20.2497 26.2391 20.1603 26.1997 20.0228C26.1525 19.8572 26.2484 19.6841 26.4147 19.6366L30.9356 18.3447C31.1006 18.2994 31.2744 18.3931 31.3219 18.5597C31.3691 18.7253 31.2728 18.8984 31.1069 18.9459Z" fill="url(#paint1_linear_500_15)"/>
<path d="M23.6875 30.8028L14 28.2384V28.8419L23.6875 31.4062V30.8028Z" fill="url(#paint2_linear_500_15)"/>
<path d="M24.3125 31.4062L34 28.8419V28.2384L24.3125 30.8028V31.4062Z" fill="url(#paint3_linear_500_15)"/>
<path d="M24.9375 32.1353C24.9375 32.6531 24.5178 33.0728 24 33.0728C23.4822 33.0728 23.0625 32.6531 23.0625 32.1353C23.0625 32.0522 23.0769 31.9728 23.0969 31.8962L14 29.4884V30.2494C14 30.5325 14.1903 30.7803 14.4638 30.8534L22.5491 33.0094C22.7778 33.5887 23.3397 33.9997 24 33.9997C24.6603 33.9997 25.2222 33.5887 25.4509 33.0094L33.5362 30.8534C33.8097 30.7803 34 30.5325 34 30.2494V29.4884L24.9031 31.8966C24.9231 31.9731 24.9375 32.0525 24.9375 32.1353Z" fill="url(#paint4_linear_500_15)"/>
<path d="M23.1875 16.7785V29.5067L14.5 27.207V14.6247C14.5 14.5864 14.5178 14.5497 14.5486 14.5256C14.5707 14.5089 14.5974 14.5 14.6253 14.5C14.6382 14.5 14.649 14.5015 14.658 14.5039C14.6581 14.5039 14.6582 14.504 14.6583 14.504L23.1875 16.7785ZM14.5 30.2494V30.138L22.5691 32.2738C22.5768 32.3541 22.5911 32.4326 22.6114 32.5085L14.5929 30.3704C14.5382 30.3558 14.5 30.3061 14.5 30.2494ZM33.4071 30.3704L25.3886 32.5085C25.4089 32.4327 25.4232 32.3543 25.4309 32.2741L33.5 30.138V30.2494C33.5 30.3061 33.4618 30.3558 33.4071 30.3704ZM33.5 27.207L24.8125 29.5067V16.7785L33.3397 14.5045C33.34 14.5044 33.3403 14.5043 33.3406 14.5043C33.352 14.5014 33.3635 14.5 33.3744 14.5C33.4025 14.5 33.4295 14.509 33.4514 14.5256C33.4822 14.5497 33.5 14.5864 33.5 14.6247V27.207ZM22.1151 26.723L22.1153 26.7221C22.2381 26.2904 21.9876 25.8416 21.557 25.7184L21.5567 25.7183L17.0358 24.4267L17.0358 24.4267L17.0311 24.4254C16.6092 24.3093 16.1563 24.5481 16.0314 24.9851L16.0313 24.9857C15.9085 25.4174 16.159 25.8662 16.5896 25.9894L16.5898 25.9895L21.1108 27.2811L21.1108 27.2811L21.1157 27.2824C21.1846 27.3014 21.2579 27.3122 21.3341 27.3122C21.687 27.3122 22.0127 27.0805 22.1151 26.723ZM22.1151 24.5355L22.1152 24.5348C22.2382 24.1034 21.9877 23.6542 21.557 23.5309L21.5568 23.5308L17.0358 22.2389L17.0358 22.2389L17.0311 22.2376C16.6092 22.1215 16.1563 22.3603 16.0314 22.7973L16.0313 22.7977C15.9084 23.2291 16.1589 23.6783 16.5896 23.8016L16.5898 23.8017L21.1107 25.0936L21.1107 25.0936L21.1157 25.0949C21.1846 25.1139 21.2579 25.1247 21.3341 25.1247C21.687 25.1247 22.0127 24.893 22.1151 24.5355ZM22.1151 22.348L22.1152 22.3473C22.2382 21.9159 21.9877 21.4667 21.557 21.3434L21.5568 21.3433L17.0358 20.0514L17.0358 20.0514L17.0319 20.0503C16.6087 19.9331 16.1561 20.1736 16.0314 20.6098L16.0313 20.6102C15.9084 21.0416 16.1589 21.4908 16.5896 21.6141L16.5898 21.6142L21.1107 22.9061L21.1107 22.9061L21.1157 22.9074C21.1846 22.9264 21.2579 22.9372 21.3341 22.9372C21.687 22.9372 22.0127 22.7055 22.1151 22.348ZM22.1151 20.1605L22.1152 20.1598C22.2382 19.7284 21.9877 19.2792 21.557 19.1559L21.5568 19.1558L17.0358 17.8639L17.0358 17.8639L17.0311 17.8626C16.6092 17.7465 16.1563 17.9853 16.0314 18.4223L16.0313 18.4227C15.9084 18.8541 16.1589 19.3033 16.5896 19.4266L16.5898 19.4267L21.1107 20.7186L21.1107 20.7186L21.1157 20.7199C21.1846 20.7389 21.2579 20.7497 21.3341 20.7497C21.687 20.7497 22.0127 20.518 22.1151 20.1605ZM26.1826 23.5189L26.1824 23.519C25.7517 23.6423 25.5012 24.0915 25.6241 24.5229L25.6243 24.5236C25.7266 24.8808 26.0518 25.1128 26.4053 25.1128C26.4816 25.1128 26.5545 25.1019 26.6224 25.0834L26.6224 25.0835L26.6286 25.0817L31.1495 23.7898C31.1496 23.7898 31.1496 23.7898 31.1496 23.7898C31.5813 23.6665 31.8308 23.2167 31.7081 22.7858L31.708 22.7857C31.5831 22.3477 31.1301 22.1099 30.7085 22.2257L30.7085 22.2256L30.7036 22.2271L26.1826 23.5189ZM31.2442 25.9895L31.2445 25.9894C31.6751 25.8662 31.9256 25.4174 31.8028 24.9857L31.8027 24.9854C31.6778 24.5474 31.2248 24.3096 30.8032 24.4254L30.8032 24.4253L30.7983 24.4267L26.2773 25.7183L26.2773 25.7183C25.8457 25.8416 25.5961 26.2909 25.7188 26.7221L25.719 26.723C25.8213 27.0802 26.1464 27.3122 26.5 27.3122C26.5762 27.3122 26.6495 27.3014 26.7184 27.2824L26.7184 27.2825L26.7233 27.2811L31.2442 25.9895ZM31.2443 21.6142L31.2445 21.6141C31.6752 21.4908 31.9257 21.0416 31.8027 20.6102L31.8027 20.6101C31.678 20.1729 31.2254 19.9333 30.8024 20.0503L30.8024 20.0503L30.7982 20.0514L26.2773 21.3433C25.8456 21.4667 25.596 21.9164 25.7188 22.3473L25.719 22.348C25.8213 22.7052 26.1464 22.9372 26.5 22.9372C26.5762 22.9372 26.6495 22.9264 26.7184 22.9074L26.7184 22.9075L26.7233 22.9061L31.2443 21.6142ZM31.2443 19.4267L31.2445 19.4266C31.6752 19.3033 31.9257 18.8541 31.8027 18.4227L31.8027 18.4226C31.6778 17.9845 31.2248 17.7468 30.8032 17.8625L30.8032 17.8625L30.7982 17.8639L26.2773 19.1558C25.8456 19.2792 25.596 19.7289 25.7188 20.1598L25.719 20.1605C25.8213 20.5177 26.1464 20.7497 26.5 20.7497C26.5762 20.7497 26.6495 20.7389 26.7184 20.7199L26.7184 20.72L26.7233 20.7186L31.2443 19.4267Z" stroke="#19C2EF" stroke-opacity="0.55"/>
</g>
<defs>
<filter id="filter0_d_500_15" x="0.5" y="0.5" width="47" height="47" filterUnits="userSpaceOnUse" color-interpolation-filters="sRGB">
<feFlood flood-opacity="0" result="BackgroundImageFix"/>
<feColorMatrix in="SourceAlpha" type="matrix" values="0 0 0 0 0 0 0 0 0 0 0 0 0 0 0 0 0 0 127 0" result="hardAlpha"/>
<feOffset/>
<feGaussianBlur stdDeviation="2.5"/>
<feComposite in2="hardAlpha" operator="out"/>
<feColorMatrix type="matrix" values="0 0 0 0 0.0980392 0 0 0 0 0.760784 0 0 0 0 0.937255 0 0 0 0.55 0"/>
<feBlend mode="normal" in2="BackgroundImageFix" result="effect1_dropShadow_500_15"/>
<feBlend mode="normal" in="SourceGraphic" in2="effect1_dropShadow_500_15" result="shape"/>
</filter>
<filter id="filter1_b_500_15" x="-2" y="-2" width="52" height="52" filterUnits="userSpaceOnUse" color-interpolation-filters="sRGB">
<feFlood flood-opacity="0" result="BackgroundImageFix"/>
<feGaussianBlur in="BackgroundImageFix" stdDeviation="5"/>
<feComposite in2="SourceAlpha" operator="in" result="effect1_backgroundBlur_500_15"/>
<feBlend mode="normal" in="SourceGraphic" in2="effect1_backgroundBlur_500_15" result="shape"/>
</filter>
<linearGradient id="paint0_linear_500_15" x1="24" y1="14" x2="24" y2="33.9997" gradientUnits="userSpaceOnUse">
<stop stop-color="#0974F8"/>
<stop offset="1" stop-color="#4FB2FE"/>
</linearGradient>
<linearGradient id="paint1_linear_500_15" x1="24" y1="14" x2="24" y2="33.9997" gradientUnits="userSpaceOnUse">
<stop stop-color="#0974F8"/>
<stop offset="1" stop-color="#4FB2FE"/>
</linearGradient>
<linearGradient id="paint2_linear_500_15" x1="24" y1="14" x2="24" y2="33.9997" gradientUnits="userSpaceOnUse">
<stop stop-color="#0974F8"/>
<stop offset="1" stop-color="#4FB2FE"/>
</linearGradient>
<linearGradient id="paint3_linear_500_15" x1="24" y1="14" x2="24" y2="33.9997" gradientUnits="userSpaceOnUse">
<stop stop-color="#0974F8"/>
<stop offset="1" stop-color="#4FB2FE"/>
</linearGradient>
<linearGradient id="paint4_linear_500_15" x1="24" y1="14" x2="24" y2="33.9997" gradientUnits="userSpaceOnUse">
<stop stop-color="#0974F8"/>
<stop offset="1" stop-color="#4FB2FE"/>
</linearGradient>
<clipPath id="clip0_500_15">
<rect width="20" height="20" fill="white" transform="translate(14 14)"/>
</clipPath>
</defs>
</svg>
