<svg width="18" height="18" viewBox="0 0 18 18" fill="none" xmlns="http://www.w3.org/2000/svg">
<path fill-rule="evenodd" clip-rule="evenodd" d="M1.28564 9.00042C1.28564 4.73994 4.73945 1.28613 8.99993 1.28613C13.2604 1.28613 16.7142 4.73994 16.7142 9.00042C16.7142 13.2609 13.2604 16.7147 8.99993 16.7147C4.73945 16.7147 1.28564 13.2609 1.28564 9.00042ZM7.77266 8.29912C7.77266 7.91179 8.08663 7.59782 8.47396 7.59782H9.5259C9.91323 7.59782 10.2272 7.91179 10.2272 8.29912V13.2082C10.2272 13.5955 9.91323 13.9095 9.5259 13.9095H8.47396C8.08663 13.9095 7.77266 13.5955 7.77266 13.2082V8.29912ZM10.4025 5.49392C10.4025 4.71929 9.77458 4.09133 8.99993 4.09133C8.22528 4.09133 7.59733 4.71929 7.59733 5.49392C7.59733 6.26856 8.22528 6.89652 8.99993 6.89652C9.77458 6.89652 10.4025 6.26856 10.4025 5.49392Z" fill="url(#paint0_linear_262_82146)"/>
<path d="M1.78564 9.00042C1.78564 5.01608 5.01559 1.78613 8.99993 1.78613C12.9842 1.78613 16.2142 5.01608 16.2142 9.00042C16.2142 12.9847 12.9842 16.2147 8.99993 16.2147C5.01559 16.2147 1.78564 12.9847 1.78564 9.00042ZM9.91521 7.1623C10.5037 6.83877 10.9025 6.21292 10.9025 5.49392C10.9025 4.44315 10.0507 3.59133 8.99993 3.59133C7.94913 3.59133 7.09733 4.44315 7.09733 5.49392C7.09733 6.21292 7.49615 6.83877 8.08464 7.16231C7.61226 7.32403 7.27266 7.77191 7.27266 8.29912V13.2082C7.27266 13.8717 7.81049 14.4095 8.47396 14.4095H9.5259C10.1894 14.4095 10.7272 13.8717 10.7272 13.2082V8.29912C10.7272 7.77191 10.3876 7.32403 9.91521 7.1623Z" stroke="#19C2EF" stroke-opacity="0.55"/>
<defs>
<linearGradient id="paint0_linear_262_82146" x1="8.99993" y1="1.28613" x2="8.99993" y2="16.7147" gradientUnits="userSpaceOnUse">
<stop stop-color="#0974F8"/>
<stop offset="1" stop-color="#4FB2FE"/>
</linearGradient>
</defs>
</svg>
