<svg width="28" height="28" viewBox="0 0 28 28" fill="none" xmlns="http://www.w3.org/2000/svg">
<g clip-path="url(#clip0_340_86663)">
<path d="M13.5872 16.9801C13.5527 16.2467 12.921 15.6825 12.1868 15.6825H11.8269C12.2406 15.4265 12.508 14.957 12.4714 14.4268C12.4215 13.7066 11.7972 13.1602 11.0752 13.1602H10.0811C10.1221 13.6445 9.96544 14.3086 9.61707 14.699C9.47711 14.8558 9.31687 14.9749 9.14442 15.06C9.08624 15.0887 9.1056 15.1754 9.17049 15.1754H9.52584C9.67314 15.1754 9.81557 15.2463 9.89184 15.3722C10.057 15.645 9.85164 15.9809 9.54777 15.9809H7.37637C7.29873 15.9809 7.22274 16.0033 7.15758 16.0453L7.15703 16.0457C6.85775 16.2414 6.67246 16.5747 6.67246 16.942C6.67246 17.3092 6.85775 17.6425 7.15703 17.8383L7.15721 17.8384C7.2254 17.8814 7.30433 17.9043 7.385 17.9043H10.0439C10.3142 17.9043 10.5087 18.1705 10.4285 18.425C10.3736 18.5991 10.2017 18.7098 10.0191 18.7098H7.38491C7.30433 18.7098 7.22531 18.7327 7.15712 18.7757L7.15694 18.7758C6.85766 18.9716 6.67236 19.3049 6.67236 19.6721C6.67236 20.0393 6.85766 20.3726 7.15694 20.5684L7.15712 20.5685C7.21852 20.6107 7.2913 20.6332 7.36573 20.6332H9.21683C9.45517 20.6332 9.66332 20.855 9.61165 21.1162C9.57384 21.3072 9.39616 21.4387 9.20142 21.4387H7.38325C7.30625 21.4387 7.2299 21.4592 7.16501 21.5008C6.86096 21.6959 6.67236 22.0318 6.67236 22.4023C6.67236 22.91 7.03579 23.3535 7.53211 23.4539H10.0078C10.7298 23.4539 11.3542 22.9074 11.4039 22.1872C11.4405 21.6571 11.1731 21.1876 10.7597 20.9317H11.1668C11.8888 20.9317 12.5131 20.3852 12.5629 19.6649C12.5995 19.1348 12.3321 18.6654 11.9186 18.4094H12.2253C13.0002 18.4095 13.6241 17.7631 13.5872 16.9801Z" fill="url(#paint0_linear_340_86663)"/>
<path d="M10.113 14.8783C10.1925 14.9416 10.263 15.0199 10.3195 15.1132L10.3195 15.1132C10.5049 15.4192 10.4843 15.7552 10.3352 16.0176L11.5638 15.2573C11.828 15.0939 11.9957 14.7969 11.9726 14.4614L10.113 14.8783ZM10.113 14.8783C10.3668 14.5254 10.513 14.0776 10.5652 13.6602M10.113 14.8783L10.5652 13.6602M10.5652 13.6602H11.0752C11.5524 13.6602 11.942 14.0207 11.9726 14.4613L10.5652 13.6602ZM10.7597 20.9317C10.9206 21.0313 11.0594 21.1633 11.1668 21.3186C11.1917 21.3547 11.2149 21.392 11.2363 21.4304C11.2132 21.4313 11.19 21.4317 11.1668 21.4317H10.7597V20.9317ZM10.7597 20.9317H11.1668C11.2718 20.9317 11.3748 20.9201 11.4743 20.8981C11.3832 20.7892 11.28 20.6909 11.1668 20.6053C11.1204 20.5702 11.0724 20.5372 11.0229 20.5066L10.7597 20.9317ZM13.0877 17.0036L13.0877 17.0037C13.1111 17.5003 12.7161 17.9095 12.2254 17.9094H12.2253H11.9186H10.8536C10.7081 17.6158 10.4061 17.4043 10.0439 17.4043H7.40812C7.26143 17.298 7.17246 17.1287 7.17246 16.942C7.17246 16.7559 7.26085 16.5871 7.40646 16.4809H9.54777C9.8157 16.4809 10.0519 16.3633 10.2158 16.1825H11.8269H12.1868C12.6728 16.1825 13.0666 16.5553 13.0877 17.0036ZM10.9428 18.3934L11.6554 18.8346C11.9195 18.998 12.0872 19.295 12.0641 19.6305L12.0641 19.6305C12.0336 20.071 11.644 20.4317 11.1668 20.4317H10.7597H9.88512C9.71623 20.2473 9.47379 20.1332 9.21683 20.1332H7.40638C7.26071 20.0269 7.17236 19.8581 7.17236 19.6721C7.17236 19.4853 7.2614 19.3159 7.40801 19.2098H10.0191C10.3901 19.2098 10.7763 18.9847 10.9053 18.5754L10.9053 18.5753C10.9245 18.5146 10.9368 18.4537 10.9428 18.3934ZM10.1158 21.1211L10.4965 21.3568C10.7606 21.5203 10.9283 21.8173 10.9051 22.1527C10.8747 22.5933 10.485 22.9539 10.0078 22.9539H7.59031C7.34796 22.8854 7.17236 22.6577 7.17236 22.4023C7.17236 22.2149 7.26203 22.0449 7.4098 21.9387H9.20142C9.6085 21.9387 10.013 21.6634 10.1021 21.2132L10.1021 21.2132C10.1083 21.1822 10.1128 21.1515 10.1158 21.1211Z" stroke="#19C2EF" stroke-opacity="0.55"/>
<mask id="path-3-inside-1_340_86663" fill="white">
<path d="M6.68311 14.3613C6.72633 14.6714 6.90254 14.9448 7.16493 15.1133C7.22963 15.1549 7.30589 15.1754 7.3828 15.1754H7.60976C7.67602 15.1754 7.69447 15.0853 7.63362 15.0591C7.42098 14.9676 7.21935 14.8401 7.04057 14.6806L6.68311 14.3613Z"/>
</mask>
<path d="M6.68311 14.3613C6.72633 14.6714 6.90254 14.9448 7.16493 15.1133C7.22963 15.1549 7.30589 15.1754 7.3828 15.1754H7.60976C7.67602 15.1754 7.69447 15.0853 7.63362 15.0591C7.42098 14.9676 7.21935 14.8401 7.04057 14.6806L6.68311 14.3613Z" fill="url(#paint1_linear_340_86663)"/>
<path d="M6.68311 14.3613L7.34926 13.6155L5.31638 11.7997L5.69268 14.4994L6.68311 14.3613ZM7.16493 15.1133L7.7055 14.272L7.70528 14.2719L7.16493 15.1133ZM7.63362 15.0591L7.23836 15.9777L7.2387 15.9778L7.63362 15.0591ZM7.04057 14.6806L6.37441 15.4264L6.37483 15.4268L7.04057 14.6806ZM5.69268 14.4994C5.77644 15.1003 6.11839 15.6297 6.62457 15.9548L7.70528 14.2719C7.68669 14.26 7.67622 14.2426 7.67353 14.2233L5.69268 14.4994ZM6.62435 15.9546C6.86414 16.1087 7.13135 16.1754 7.3828 16.1754V14.1754C7.48043 14.1754 7.59511 14.2011 7.7055 14.272L6.62435 15.9546ZM7.3828 16.1754H7.60976V14.1754H7.3828V16.1754ZM7.60976 16.1754C8.76823 16.1754 9.08297 14.5936 8.02855 14.1404L7.2387 15.9778C6.30597 15.5769 6.58382 14.1754 7.60976 14.1754V16.1754ZM8.02888 14.1405C7.91451 14.0913 7.80432 14.0219 7.70631 13.9344L6.37483 15.4268C6.63437 15.6584 6.92745 15.8439 7.23836 15.9777L8.02888 14.1405ZM7.70673 13.9348L7.34926 13.6155L6.01695 15.1071L6.37441 15.4264L7.70673 13.9348Z" fill="#19C2EF" fill-opacity="0.55" mask="url(#path-3-inside-1_340_86663)"/>
<path d="M5.86683 14.212C5.86683 14.0337 5.89344 13.8618 5.93997 13.6983L5.6484 13.438C5.5067 13.3114 5.48486 13.0846 5.61977 12.9333C5.75147 12.786 5.97733 12.7733 6.12444 12.9048L7.51667 14.1474C7.98665 14.5668 8.68965 14.509 9.0919 14.0582C9.50168 13.5991 9.46167 12.8924 9.0027 12.4827L6.56074 10.3028C6.1148 9.90463 5.43815 9.92739 5.0202 10.3547L5.00965 10.365C1.82899 13.3656 1.13388 14.1098 0.878932 14.4313C0.211909 15.2722 0 15.8952 0 16.7986V19.5964C0 21.7235 1.73052 23.4541 3.85768 23.4541C4.6363 23.4541 5.41318 23.4541 6.18951 23.4541C5.98687 23.1551 5.86674 22.7852 5.86674 22.4024C5.86674 21.874 6.08516 21.385 6.45373 21.0373C6.08516 20.6896 5.86674 20.2006 5.86674 19.6722C5.86674 19.1437 6.08516 18.6548 6.45373 18.3071C6.08516 17.9595 5.86674 17.4705 5.86674 16.9421C5.86674 16.4136 6.08516 15.9246 6.45373 15.577C6.08516 15.2292 5.86683 14.7404 5.86683 14.212Z" fill="url(#paint2_linear_340_86663)"/>
<path d="M5.43226 22.9541H5.42964H5.42509H5.42054H5.41599H5.41144H5.40689H5.40233H5.39778H5.39323H5.38868H5.38413H5.37957H5.37502H5.37047H5.36592H5.36137H5.35682H5.35226H5.34771H5.34316H5.33861H5.33405H5.3295H5.32495H5.3204H5.31585H5.31129H5.30674H5.30219H5.29764H5.29309H5.28853H5.28398H5.27943H5.27488H5.27032H5.26577H5.26122H5.25667H5.25211H5.24756H5.24301H5.23846H5.2339H5.22935H5.2248H5.22025H5.21569H5.21114H5.20659H5.20203H5.19748H5.19293H5.18838H5.18382H5.17927H5.17472H5.17016H5.16561H5.16106H5.15651H5.15195H5.1474H5.14285H5.13829H5.13374H5.12919H5.12463H5.12008H5.11553H5.11097H5.10642H5.10187H5.09731H5.09276H5.08821H5.08365H5.0791H5.07455H5.06999H5.06544H5.06089H5.05633H5.05178H5.04723H5.04267H5.03812H5.03356H5.02901H5.02446H5.0199H5.01535H5.0108H5.00624H5.00169H4.99713H4.99258H4.98803H4.98347H4.97892H4.97436H4.96981H4.96526H4.9607H4.95615H4.95159H4.94704H4.94248H4.93793H4.93338H4.92882H4.92427H4.91971H4.91516H4.9106H4.90605H4.9015H4.89694H4.89239H4.88783H4.88328H4.87872H4.87417H4.86961H4.86506H4.8605H4.85595H4.85139H4.84684H4.84228H4.83773H4.83317H4.82862H4.82406H4.81951H4.81495H4.8104H4.80584H4.80129H4.79673H4.79218H4.78762H4.78307H4.77851H4.77396H4.7694H4.76485H4.76029H4.75574H4.75118H4.74663H4.74207H4.73751H4.73296H4.7284H4.72385H4.71929H4.71474H4.71018H4.70563H4.70107H4.69651H4.69196H4.6874H4.68285H4.67829H4.67373H4.66918H4.66462H4.66007H4.65551H4.65095H4.6464H4.64184H4.63729H4.63273H4.62817H4.62362H4.61906H4.6145H4.60995H4.60539H4.60084H4.59628H4.59172H4.58717H4.58261H4.57805H4.5735H4.56894H4.56438H4.55983H4.55527H4.55071H4.54616H4.5416H4.53704H4.53249H4.52793H4.52337H4.51881H4.51426H4.5097H4.50514H4.50059H4.49603H4.49147H4.48691H4.48236H4.4778H4.47324H4.46869H4.46413H4.45957H4.45501H4.45046H4.4459H4.44134H4.43678H4.43223H4.42767H4.42311H4.41855H4.41399H4.40944H4.40488H4.40032H4.39576H4.39121H4.38665H4.38209H4.37753H4.37297H4.36842H4.36386H4.3593H4.35474H4.35018H4.34562H4.34107H4.33651H4.33195H4.32739H4.32283H4.31827H4.31372H4.30916H4.3046H4.30004H4.29548H4.29092H4.28636H4.28181H4.27725H4.27269H4.26813H4.26357H4.25901H4.25445H4.24989H4.24533H4.24078H4.23622H4.23166H4.2271H4.22254H4.21798H4.21342H4.20886H4.2043H4.19974H4.19518H4.19062H4.18606H4.1815H4.17694H4.17239H4.16783H4.16327H4.15871H4.15415H4.14959H4.14503H4.14047H4.13591H4.13135H4.12679H4.12223H4.11767H4.11311H4.10855H4.10399H4.09943H4.09487H4.09031H4.08575H4.08119H4.07663H4.07206H4.0675H4.06294H4.05838H4.05382H4.04926H4.0447H4.04014H4.03558H4.03102H4.02646H4.0219H4.01734H4.01278H4.00822H4.00365H3.99909H3.99453H3.98997H3.98541H3.98085H3.97629H3.97173H3.96717H3.9626H3.95804H3.95348H3.94892H3.94436H3.9398H3.93524H3.93067H3.92611H3.92155H3.91699H3.91243H3.90787H3.9033H3.89874H3.89418H3.88962H3.88506H3.88049H3.87593H3.87137H3.86681H3.86225H3.85768C2.00666 22.9541 0.5 21.4474 0.5 19.5964V16.7986C0.5 16.3883 0.547827 16.0678 0.659055 15.7628C0.771293 15.4552 0.9581 15.136 1.27066 14.742L1.27069 14.7419C1.49795 14.4554 2.16128 13.7395 5.35276 10.7287L5.3528 10.7287L5.35851 10.7232L5.36906 10.7129L5.36916 10.713L5.37765 10.7043C5.60859 10.4682 5.9811 10.4555 6.22775 10.6757L6.22777 10.6757L8.66972 12.8557L8.66974 12.8557C8.92262 13.0814 8.94485 13.4721 8.71889 13.7252L8.71883 13.7253C8.49565 13.9754 8.10822 14.0051 7.84962 13.7744C7.84961 13.7744 7.8496 13.7744 7.84959 13.7743L6.45755 12.5319L5.43226 22.9541ZM5.43226 22.9541C5.38948 22.7756 5.36674 22.5904 5.36674 22.4024C5.36674 21.9021 5.52188 21.4287 5.79617 21.0373M5.43226 22.9541L5.79617 21.0373M5.79617 21.0373C5.52189 20.6459 5.36674 20.1725 5.36674 19.6722C5.36674 19.1719 5.52187 18.6985 5.79615 18.3071M5.79617 21.0373L5.79615 18.3071M5.79615 18.3071C5.52187 17.9157 5.36674 17.4423 5.36674 16.9421C5.36674 16.4417 5.52188 15.9683 5.79617 15.577M5.79615 18.3071L5.79617 15.577M5.79617 15.577C5.52192 15.1856 5.36683 14.7122 5.36683 14.212C5.36683 14.0981 5.37532 13.9868 5.39104 13.8785L5.31543 13.811L5.31534 13.8109C4.97639 13.5082 4.9204 12.9662 5.24664 12.6005L5.24703 12.6C5.5625 12.2472 6.1042 12.2164 6.45739 12.5317L5.79617 15.577Z" stroke="#19C2EF" stroke-opacity="0.55"/>
<mask id="path-7-inside-2_340_86663" fill="white">
<path d="M20.8432 15.1083L20.8435 15.1081C21.1016 14.9392 21.2747 14.6683 21.3173 14.3613L20.7596 14.8356C20.6831 14.904 20.6043 14.9631 20.5239 15.0134C20.4494 15.0599 20.4848 15.1753 20.5724 15.1753H20.6305C20.7066 15.1754 20.7809 15.1519 20.8432 15.1083Z"/>
</mask>
<path d="M20.8432 15.1083L20.8435 15.1081C21.1016 14.9392 21.2747 14.6683 21.3173 14.3613L20.7596 14.8356C20.6831 14.904 20.6043 14.9631 20.5239 15.0134C20.4494 15.0599 20.4848 15.1753 20.5724 15.1753H20.6305C20.7066 15.1754 20.7809 15.1519 20.8432 15.1083Z" fill="url(#paint3_linear_340_86663)"/>
<path d="M20.8432 15.1083L20.2895 14.2756L20.2797 14.2821L20.27 14.2889L20.8432 15.1083ZM20.8435 15.1081L20.296 14.2713L20.2898 14.2754L20.8435 15.1081ZM21.3173 14.3613L22.3078 14.499L22.6693 11.8989L20.6695 13.5995L21.3173 14.3613ZM20.7596 14.8356L20.1118 14.0738L20.1025 14.0817L20.0934 14.0898L20.7596 14.8356ZM20.5239 15.0134L21.0539 15.8613L21.0542 15.8612L20.5239 15.0134ZM20.6305 15.1753L20.6317 14.1753H20.6305V15.1753ZM21.397 15.941L21.3972 15.9408L20.2898 14.2754L20.2895 14.2756L21.397 15.941ZM21.391 15.9449C21.889 15.6191 22.2251 15.0942 22.3078 14.499L20.3269 14.2236C20.3243 14.2424 20.3142 14.2594 20.296 14.2713L21.391 15.9449ZM20.6695 13.5995L20.1118 14.0738L21.4075 15.5974L21.9652 15.1231L20.6695 13.5995ZM20.0934 14.0898C20.0579 14.1216 20.0243 14.1463 19.9935 14.1656L21.0542 15.8612C21.1842 15.7799 21.3083 15.6864 21.4258 15.5814L20.0934 14.0898ZM19.9938 14.1655C19.0084 14.7815 19.5501 16.1753 20.5724 16.1753V14.1753C21.4194 14.1753 21.8905 15.3384 21.0539 15.8613L19.9938 14.1655ZM20.5724 16.1753H20.6305V14.1753H20.5724V16.1753ZM20.6293 16.1753C20.9119 16.1756 21.1866 16.0885 21.4165 15.9277L20.27 14.2889C20.3752 14.2153 20.5013 14.1751 20.6317 14.1753L20.6293 16.1753Z" fill="#19C2EF" fill-opacity="0.55" mask="url(#path-7-inside-2_340_86663)"/>
<path d="M18.7832 20.6333H20.6258C20.7028 20.6333 20.7783 20.6109 20.8428 20.5688L20.8433 20.5684C21.1427 20.3726 21.3279 20.0394 21.3279 19.6722C21.3279 19.3051 21.1426 18.9717 20.8433 18.776L20.8428 18.7756C20.7772 18.7328 20.7004 18.7099 20.622 18.7099H17.9797C17.8326 18.7099 17.6901 18.6397 17.6132 18.5143C17.4465 18.2426 17.6511 17.9044 17.9563 17.9044H20.6051C20.689 17.9044 20.7712 17.8816 20.8431 17.8384L20.8434 17.8383C21.1428 17.6425 21.328 17.3092 21.328 16.9421C21.328 16.5749 21.1427 16.2417 20.8434 16.0458L20.8429 16.0455C20.7769 16.0034 20.7002 15.981 20.6219 15.981H18.4526C18.1504 15.981 17.944 15.6479 18.1072 15.3739C18.1827 15.2472 18.325 15.1754 18.4725 15.1754H18.9125C19.0034 15.1754 19.0349 15.0553 18.9558 15.0105C18.7488 14.8932 18.5523 14.7326 18.375 14.534C18.051 14.1711 17.8736 13.6911 17.9184 13.1602H16.9252C16.2032 13.1602 15.5788 13.7066 15.529 14.4268C15.4923 14.957 15.7598 15.4265 16.1734 15.6825H15.8136C15.0794 15.6825 14.4477 16.2467 14.4132 16.9801C14.3763 17.7631 15.0002 18.4094 15.7751 18.4094H16.0818C15.6683 18.6655 15.4009 19.1348 15.4376 19.6649C15.4874 20.3852 16.1117 20.9317 16.8337 20.9317H17.2408C16.8273 21.1876 16.5599 21.6571 16.5965 22.1872C16.6463 22.9074 17.2706 23.4539 17.9926 23.4539H20.4683C20.9639 23.3536 21.3282 22.9108 21.3282 22.4023C21.3282 22.0352 21.1429 21.7019 20.8436 21.5061L20.8435 21.506C20.7777 21.4621 20.7004 21.4387 20.6214 21.4387H18.7991C18.6045 21.4387 18.4268 21.3073 18.3889 21.1164C18.3366 20.8555 18.5446 20.6333 18.7832 20.6333Z" fill="url(#paint4_linear_340_86663)"/>
<path d="M20.5694 19.1942L20.5696 19.1944C20.5695 19.1944 20.5694 19.1943 20.5694 19.1942ZM20.5694 19.1942L20.622 19.1137L20.8059 18.832L20.8428 18.7756M20.5694 19.1942L20.5658 19.1919L20.5658 19.1919L20.5653 19.1915L20.622 19.1065L20.8428 18.7756M20.8428 18.7756L20.8433 18.776L20.8428 18.7756ZM17.8846 21.1211L17.504 21.3568C17.2399 21.5203 17.0722 21.8172 17.0953 22.1527L17.8846 21.1211ZM17.8846 21.1211C17.8877 21.1519 17.8923 21.1829 17.8985 21.2143M17.8846 21.1211L17.0953 22.1527C17.1258 22.5933 17.5155 22.9539 17.9926 22.9539H20.4101C20.6523 22.8854 20.8282 22.6581 20.8282 22.4023C20.8282 22.2149 20.7384 22.0448 20.5906 21.9387H18.7991C18.3924 21.9387 17.9881 21.6639 17.8985 21.2143M17.8985 21.2143C17.8985 21.2141 17.8985 21.214 17.8985 21.2138L18.3889 21.1164L17.8986 21.2147C17.8986 21.2146 17.8986 21.2144 17.8985 21.2143ZM17.4358 13.6602C17.4997 14.0988 17.6866 14.4969 17.9638 14.8231C17.8512 14.8951 17.7519 14.9933 17.6777 15.118L17.6776 15.1181C17.4957 15.4235 17.517 15.7569 17.665 16.0175L16.4365 15.2573C16.1723 15.0938 16.0046 14.7968 16.0278 14.4614L16.0278 14.4614C16.0583 14.0208 16.4479 13.6602 16.9252 13.6602H17.4358ZM17.7845 16.1825C17.9485 16.3634 18.1849 16.481 18.4526 16.481H20.5938C20.7396 16.5873 20.828 16.7561 20.828 16.9421C20.828 17.1288 20.739 17.2982 20.5922 17.4044H17.9563C17.5958 17.4044 17.2933 17.617 17.1466 17.9094H16.0818H15.7751C15.2842 17.9094 14.8892 17.5001 14.9126 17.0037L14.9126 17.0036C14.9337 16.5553 15.3276 16.1825 15.8136 16.1825H16.1734H17.7845ZM17.0558 18.3945C17.0688 18.5221 17.1108 18.6515 17.187 18.7757L17.187 18.7758C17.3662 19.0678 17.6816 19.2099 17.9797 19.2099H20.5921C20.7388 19.316 20.8279 19.4855 20.8279 19.6722C20.8279 19.8583 20.7395 20.027 20.5938 20.1333H18.7832C18.5264 20.1333 18.284 20.2473 18.1151 20.4317H17.2408H16.8337C16.3565 20.4317 15.9669 20.0711 15.9364 19.6304L15.9364 19.6304C15.9132 19.295 16.0808 18.9982 16.3451 18.8345L17.0558 18.3945Z" stroke="#19C2EF" stroke-opacity="0.55"/>
<path d="M27.1208 14.431C27.0579 14.2998 26.974 14.1761 26.8666 14.0663L26.2 13.385L22.9795 10.3547C22.5615 9.92735 21.8849 9.90469 21.439 10.3027L18.9971 12.4827C18.537 12.8934 18.4969 13.5979 18.9077 14.0581C19.3169 14.5166 20.0211 14.5596 20.4831 14.1474L21.8753 12.9047C22.0226 12.7732 22.2483 12.7862 22.3799 12.9333C22.4975 13.065 22.4989 13.2592 22.3927 13.3929C22.3576 13.4369 22.1063 13.6566 22.0598 13.6982C22.1064 13.8618 22.1331 14.0337 22.1331 14.212C22.1331 14.7404 21.9146 15.2293 21.5461 15.577C21.9146 15.9247 22.1331 16.4137 22.1331 16.9421C22.1331 17.4705 21.9146 17.9595 21.5461 18.3072C21.9147 18.6548 22.1331 19.1438 22.1331 19.6722C22.1331 20.2007 21.9146 20.6897 21.5461 21.0374C21.9147 21.385 22.1331 21.874 22.1331 22.4025C22.1331 22.7857 22.0127 23.1554 21.8103 23.4541C22.5866 23.4541 23.3639 23.4541 24.1422 23.4541C26.2694 23.4541 27.9999 21.7234 27.9999 19.5963V16.7986C27.9999 15.8949 27.668 15.0679 27.1208 14.431Z" fill="url(#paint5_linear_340_86663)"/>
<path d="M26.6699 14.6471L26.6985 14.7067L26.7415 14.7568C27.2143 15.3071 27.4999 16.0196 27.4999 16.7986V19.5963C27.4999 21.4473 25.9932 22.9541 24.1422 22.9541H24.1376H24.1331H24.1285H24.124H24.1194H24.1148H24.1103H24.1057H24.1012H24.0966H24.092H24.0875H24.0829H24.0784H24.0738H24.0692H24.0647H24.0601H24.0556H24.051H24.0464H24.0419H24.0373H24.0328H24.0282H24.0236H24.0191H24.0145H24.01H24.0054H24.0008H23.9963H23.9917H23.9872H23.9826H23.978H23.9735H23.9689H23.9644H23.9598H23.9553H23.9507H23.9461H23.9416H23.937H23.9325H23.9279H23.9233H23.9188H23.9142H23.9097H23.9051H23.9005H23.896H23.8914H23.8869H23.8823H23.8777H23.8732H23.8686H23.8641H23.8595H23.855H23.8504H23.8458H23.8413H23.8367H23.8322H23.8276H23.823H23.8185H23.8139H23.8094H23.8048H23.8003H23.7957H23.7911H23.7866H23.782H23.7775H23.7729H23.7683H23.7638H23.7592H23.7547H23.7501H23.7456H23.741H23.7364H23.7319H23.7273H23.7228H23.7182H23.7136H23.7091H23.7045H23.7H23.6954H23.6909H23.6863H23.6817H23.6772H23.6726H23.6681H23.6635H23.6589H23.6544H23.6498H23.6453H23.6407H23.6362H23.6316H23.627H23.6225H23.6179H23.6134H23.6088H23.6043H23.5997H23.5951H23.5906H23.586H23.5815H23.5769H23.5724H23.5678H23.5632H23.5587H23.5541H23.5496H23.545H23.5405H23.5359H23.5313H23.5268H23.5222H23.5177H23.5131H23.5086H23.504H23.4994H23.4949H23.4903H23.4858H23.4812H23.4767H23.4721H23.4675H23.463H23.4584H23.4539H23.4493H23.4448H23.4402H23.4356H23.4311H23.4265H23.422H23.4174H23.4129H23.4083H23.4037H23.3992H23.3946H23.3901H23.3855H23.381H23.3764H23.3718H23.3673H23.3627H23.3582H23.3536H23.3491H23.3445H23.34H23.3354H23.3308H23.3263H23.3217H23.3172H23.3126H23.3081H23.3035H23.2989H23.2944H23.2898H23.2853H23.2807H23.2762H23.2716H23.2671H23.2625H23.2579H23.2534H23.2488H23.2443H23.2397H23.2352H23.2306H23.2261H23.2215H23.2169H23.2124H23.2078H23.2033H23.1987H23.1942H23.1896H23.1851H23.1805H23.1759H23.1714H23.1668H23.1623H23.1577H23.1532H23.1486H23.1441H23.1395H23.1349H23.1304H23.1258H23.1213H23.1167H23.1122H23.1076H23.1031H23.0985H23.0939H23.0894H23.0848H23.0803H23.0757H23.0712H23.0666H23.0621H23.0575H23.0529H23.0484H23.0438H23.0393H23.0347H23.0302H23.0256H23.0211H23.0165H23.012H23.0074H23.0028H22.9983H22.9937H22.9892H22.9846H22.9801H22.9755H22.971H22.9664H22.9619H22.9573H22.9527H22.9482H22.9436H22.9391H22.9345H22.93H22.9254H22.9209H22.9163H22.9118H22.9072H22.9026H22.8981H22.8935H22.889H22.8844H22.8799H22.8753H22.8708H22.8662H22.8617H22.8571H22.8526H22.848H22.8434H22.8389H22.8343H22.8298H22.8252H22.8207H22.8161H22.8116H22.807H22.8025H22.7979H22.7934H22.7888H22.7842H22.7797H22.7751H22.7706H22.766H22.7615H22.7569H22.7524H22.7478H22.7433H22.7387H22.7342H22.7296H22.725H22.7205H22.7159H22.7114H22.7068H22.7023H22.6977H22.6932H22.6886H22.6841H22.6795H22.675H22.6704H22.6659H22.6613H22.6568H22.6522H22.6476H22.6431H22.6385H22.634H22.6294H22.6249H22.6203H22.6158H22.6112H22.6067H22.6021H22.5976H22.593H22.5885H22.5839H22.5794H22.5748H22.5702H22.5675C22.6103 22.7758 22.6331 22.5906 22.6331 22.4025C22.6331 21.9022 22.478 21.4288 22.2036 21.0373C22.4779 20.6459 22.6331 20.1726 22.6331 19.6722C22.6331 19.172 22.478 18.6986 22.2037 18.3071C22.4779 17.9158 22.6331 17.4424 22.6331 16.9421C22.6331 16.4418 22.4779 15.9684 22.2036 15.577C22.4779 15.1857 22.6331 14.7123 22.6331 14.212C22.6331 14.0981 22.6246 13.9868 22.6089 13.8785C22.6319 13.8576 22.6545 13.8368 22.6748 13.8178L22.6771 13.8156C22.6991 13.7949 22.7491 13.748 22.7839 13.7042L22.7842 13.7038C23.0378 13.3845 23.0367 12.9182 22.7529 12.6003L22.7526 12.5999C22.4374 12.2476 21.8959 12.216 21.5423 12.5318L20.1502 13.7743C19.8951 14.002 19.5069 13.9785 19.2807 13.7251L19.2807 13.7251C19.0539 13.471 19.0759 13.0826 19.3301 12.8557C19.3301 12.8556 19.3301 12.8556 19.3301 12.8556L21.772 10.6757L21.772 10.6757C22.0186 10.4556 22.3911 10.4682 22.6221 10.7043L22.6293 10.7117L22.6369 10.7188L25.8498 13.7421L26.5092 14.416C26.5759 14.4841 26.6291 14.562 26.6699 14.6471Z" stroke="#19C2EF" stroke-opacity="0.55"/>
<path d="M14.6882 11.2853V5.23421C14.6882 4.85399 14.3801 4.5459 13.9998 4.5459C13.6196 4.5459 13.3115 4.85399 13.3115 5.23421V11.2853C13.3115 11.6656 13.6196 11.9736 13.9998 11.9736C14.38 11.9736 14.6882 11.6655 14.6882 11.2853Z" fill="url(#paint6_linear_340_86663)"/>
<path d="M14.1882 5.23421V11.2853C14.1882 11.3893 14.1038 11.4736 13.9998 11.4736C13.8958 11.4736 13.8115 11.3894 13.8115 11.2853V5.23421C13.8115 5.13013 13.8958 5.0459 13.9998 5.0459C14.1039 5.0459 14.1882 5.13013 14.1882 5.23421Z" stroke="#19C2EF" stroke-opacity="0.55"/>
<path d="M10.627 11.5783C10.789 11.9223 11.1993 12.0696 11.543 11.9075C11.8869 11.7454 12.0343 11.3354 11.8722 10.9915L9.75588 6.50056C9.5939 6.15668 9.18385 6.00919 8.83987 6.17136C8.49599 6.33344 8.3486 6.74349 8.51068 7.08737L10.627 11.5783Z" fill="url(#paint7_linear_340_86663)"/>
<path d="M11.0794 11.3653L11.0793 11.3652L8.96297 6.87423L8.96296 6.8742C8.91864 6.78016 8.95889 6.66802 9.05304 6.62364L9.05309 6.62362C9.14717 6.57927 9.25924 6.61956 9.30355 6.71363L9.30359 6.7137L11.4199 11.2046L11.4199 11.2047C11.4643 11.2987 11.424 11.4108 11.3299 11.4552L11.3298 11.4553C11.2358 11.4996 11.1236 11.4592 11.0794 11.3653Z" stroke="#19C2EF" stroke-opacity="0.55"/>
<path d="M16.457 11.9076C16.8007 12.0697 17.211 11.9224 17.3731 11.5784L19.4894 7.08745C19.6515 6.74357 19.5041 6.33342 19.1602 6.17144C18.8164 6.00909 18.4062 6.15676 18.2442 6.50064L16.1279 10.9916C15.9658 11.3355 16.1131 11.7455 16.457 11.9076Z" fill="url(#paint8_linear_340_86663)"/>
<path d="M16.6702 11.4553L16.6702 11.4553C16.5761 11.411 16.5358 11.2989 16.5802 11.2047L16.5802 11.2047L18.6965 6.71378L18.6965 6.71371C18.741 6.61941 18.8532 6.5794 18.9467 6.62356L18.9472 6.62377C19.0411 6.66803 19.0815 6.78017 19.0371 6.87428L19.0371 6.87431L16.9208 11.3652L16.9208 11.3653C16.8764 11.4594 16.7642 11.4996 16.6702 11.4553Z" stroke="#19C2EF" stroke-opacity="0.55"/>
</g>
<defs>
<linearGradient id="paint0_linear_340_86663" x1="10.1305" y1="13.1602" x2="10.1305" y2="23.4539" gradientUnits="userSpaceOnUse">
<stop stop-color="#0974F8"/>
<stop offset="1" stop-color="#4FB2FE"/>
</linearGradient>
<linearGradient id="paint1_linear_340_86663" x1="7.17688" y1="14.3613" x2="7.17688" y2="15.1754" gradientUnits="userSpaceOnUse">
<stop stop-color="#0974F8"/>
<stop offset="1" stop-color="#4FB2FE"/>
</linearGradient>
<linearGradient id="paint2_linear_340_86663" x1="4.68744" y1="10.0186" x2="4.68744" y2="23.4541" gradientUnits="userSpaceOnUse">
<stop stop-color="#0974F8"/>
<stop offset="1" stop-color="#4FB2FE"/>
</linearGradient>
<linearGradient id="paint3_linear_340_86663" x1="20.9004" y1="14.3613" x2="20.9004" y2="15.1753" gradientUnits="userSpaceOnUse">
<stop stop-color="#0974F8"/>
<stop offset="1" stop-color="#4FB2FE"/>
</linearGradient>
<linearGradient id="paint4_linear_340_86663" x1="17.8699" y1="13.1602" x2="17.8699" y2="23.4539" gradientUnits="userSpaceOnUse">
<stop stop-color="#0974F8"/>
<stop offset="1" stop-color="#4FB2FE"/>
</linearGradient>
<linearGradient id="paint5_linear_340_86663" x1="23.312" y1="10.0186" x2="23.312" y2="23.4541" gradientUnits="userSpaceOnUse">
<stop stop-color="#0974F8"/>
<stop offset="1" stop-color="#4FB2FE"/>
</linearGradient>
<linearGradient id="paint6_linear_340_86663" x1="13.9998" y1="4.5459" x2="13.9998" y2="11.9736" gradientUnits="userSpaceOnUse">
<stop stop-color="#0974F8"/>
<stop offset="1" stop-color="#4FB2FE"/>
</linearGradient>
<linearGradient id="paint7_linear_340_86663" x1="10.1914" y1="6.10547" x2="10.1914" y2="11.9734" gradientUnits="userSpaceOnUse">
<stop stop-color="#0974F8"/>
<stop offset="1" stop-color="#4FB2FE"/>
</linearGradient>
<linearGradient id="paint8_linear_340_86663" x1="17.8086" y1="6.10547" x2="17.8086" y2="11.9734" gradientUnits="userSpaceOnUse">
<stop stop-color="#0974F8"/>
<stop offset="1" stop-color="#4FB2FE"/>
</linearGradient>
<clipPath id="clip0_340_86663">
<rect width="28" height="28" fill="white"/>
</clipPath>
</defs>
</svg>
