<svg width="28" height="28" viewBox="0 0 28 28" fill="none" xmlns="http://www.w3.org/2000/svg">
<path d="M7.48463 24.2962C5.47198 23.3622 3.80281 22.584 3.77536 22.5668C3.74138 22.5448 3.82026 21.5006 4.02277 19.2892C4.18629 17.5036 4.32101 15.965 4.32217 15.87L4.32417 15.698L4.0509 15.678C3.5698 15.642 3.17859 15.37 2.97556 14.931C2.8778 14.7198 2.87468 14.6512 2.87468 12.717C2.87468 10.7348 2.87544 10.7192 2.98392 10.4838C3.11638 10.1964 3.23864 10.0602 3.50437 9.90398L3.70634 9.78598V6.74898V3.71178H3.19858C2.78099 3.71178 2.65446 3.69178 2.48605 3.61178C1.85997 3.30878 1.86519 2.39978 2.49485 2.09498C2.68079 2.00498 2.78776 2.00098 4.565 2.00098C6.28537 2.00198 6.45467 2.00098 6.62918 2.08898C6.9717 2.24698 7.12818 2.49638 7.12818 2.88378C7.12818 3.12858 7.0512 3.29958 6.85916 3.48138C6.63946 3.68918 6.5162 3.70998 5.50927 3.70998H4.56187V8.88398V14.058L4.8589 14.114C7.29635 14.5776 9.51207 16.4022 10.8205 19.0232C11.6942 20.7732 12.179 22.833 12.247 25.0836L12.2747 25.9984H11.7093L11.144 25.9964L7.48463 24.2962ZM13.1638 19.8214C13.1638 16.423 13.1574 13.6426 13.1496 13.6426C13.1175 13.6426 5.62246 12.3106 5.52241 12.2872C5.41799 12.2632 5.41419 12.2452 5.42737 11.8472L5.44117 11.4326L14.8629 11.4126L24.2845 11.3926V11.8196C24.2845 12.2232 24.2787 12.248 24.1776 12.272C24.1188 12.292 22.4988 12.5756 20.5777 12.9154C18.6565 13.2554 16.9724 13.556 16.8353 13.5834L16.586 13.6334L16.574 19.7964L16.562 25.9592L14.863 25.9792L13.164 25.9992L13.1638 19.8214ZM17.4562 25.1554C17.5536 22.412 18.2027 20.0416 19.3759 18.145C20.5039 16.3214 22.1471 14.9576 23.9396 14.357C24.3867 14.207 25.0837 14.0458 25.1213 14.0834C25.142 14.1034 25.9975 22.546 25.9801 22.558C25.9753 22.558 24.3016 23.3368 22.2606 24.2814L18.5497 25.9988H17.988H17.4263L17.4562 25.1554ZM5.49079 9.54358C5.67707 8.10278 5.88487 7.37618 6.39809 6.37138C7.47958 4.25378 9.53346 2.80478 12.2205 2.26358C13.2067 2.06558 13.6487 2.02538 14.8747 2.02678C16.9685 2.02878 18.3855 2.32818 19.936 3.09458C20.7628 3.50338 21.3612 3.92738 21.9777 4.54158C23.258 5.81718 23.9506 7.33638 24.2147 9.44858L24.2459 9.69798H14.8583H5.47083L5.49079 9.54358ZM19.873 6.97898C20.4085 6.73298 20.7746 6.25718 20.8432 5.71778C20.8606 5.57978 20.8637 5.46838 20.8498 5.46838C20.836 5.46838 20.7172 5.54038 20.5857 5.62838C19.8743 6.10718 18.7404 6.16838 17.9514 5.77038C17.8144 5.70238 17.6435 5.60438 17.5716 5.55278L17.4409 5.46078V5.65278C17.4409 6.22918 17.8949 6.79738 18.5496 7.04058C18.9083 7.17458 19.5073 7.14458 19.873 6.97658L19.873 6.97898Z" fill="url(#paint0_linear_340_86680)"/>
<path d="M7.6951 23.8426L7.69531 23.8427L11.2553 25.4968L11.7093 25.4984H11.71H11.7593L11.7473 25.0987C11.6811 22.9096 11.2099 20.9226 10.3731 19.2465L10.3731 19.2465C9.12022 16.7367 7.02087 15.0341 4.76548 14.6052L4.46924 14.5493L4.06187 14.4725V14.058V10.1573L3.95857 10.2177L3.75774 10.335C3.75757 10.3351 3.7574 10.3352 3.75723 10.3353C3.65076 10.398 3.60043 10.4406 3.56625 10.4787C3.53147 10.5174 3.49258 10.5747 3.43802 10.693L7.6951 23.8426ZM7.6951 23.8426C6.68896 23.3757 5.76879 22.9478 5.09683 22.6345C4.7608 22.4778 4.48709 22.35 4.29583 22.2602C4.28952 22.2573 4.2833 22.2544 4.27718 22.2515C4.28398 22.1327 4.29449 21.9784 4.30897 21.7866C4.34944 21.2506 4.41947 20.44 4.52069 19.3348C4.60249 18.4415 4.67711 17.6098 4.73145 16.9892C4.78407 16.3883 4.82125 15.9484 4.82213 15.876L4.82213 15.8758M7.6951 23.8426L4.82213 15.8758M4.06187 3.21178H3.70634H3.19858C2.99073 3.21178 2.88607 3.20631 2.81966 3.19681C2.77152 3.18993 2.74611 3.18166 2.70245 3.16103C2.46198 3.04322 2.45173 2.67136 2.71269 2.54503L4.06187 3.21178ZM4.06187 3.21178V3.20998H4.56187H5.50927C6.02887 3.20998 6.26273 3.20317 6.39596 3.18062C6.42371 3.17592 6.44013 3.17152 6.44913 3.16865C6.45735 3.16603 6.46039 3.16437 6.46103 3.16403L6.46113 3.16398C6.46261 3.1632 6.47447 3.15699 6.51542 3.11827M4.06187 3.21178L6.51542 3.11827M6.51542 3.11827C6.5788 3.05827 6.60047 3.02159 6.60976 3.00095C6.6181 2.98243 6.62818 2.95125 6.62818 2.88378C6.62818 2.75758 6.60314 2.69723 6.58365 2.66619C6.56488 2.63629 6.52504 2.59157 6.41975 2.543L6.41183 2.53935L6.40404 2.53542C6.40344 2.53512 6.40302 2.53486 6.40262 2.53462C6.40083 2.53351 6.3996 2.53275 6.38508 2.5301C6.35356 2.52434 6.29082 2.51717 6.15733 2.51197C5.89477 2.50175 5.44622 2.50149 4.60599 2.501L4.565 2.50098C4.5649 2.50098 4.56481 2.50098 4.56471 2.50098C3.66964 2.50098 3.21348 2.50212 2.95567 2.51372C2.82713 2.51951 2.77182 2.52713 2.74667 2.53225C2.7461 2.53237 2.74555 2.53248 2.74502 2.53258C2.73561 2.53449 2.73365 2.53488 2.7127 2.54502L6.51542 3.11827ZM4.82213 15.8758L4.82413 15.7038L4.8296 15.2336M4.82213 15.8758L4.8296 15.2336M4.8296 15.2336L4.36066 15.1993M4.8296 15.2336L4.36066 15.1993M4.36066 15.1993L4.08821 15.1794C4.08811 15.1794 4.08801 15.1794 4.08791 15.1793C3.78874 15.1569 3.55656 14.9961 3.42938 14.7211L3.42931 14.7209M4.36066 15.1993L3.42931 14.7209M3.42931 14.7209C3.41158 14.6826 3.4105 14.6776 3.40779 14.6648M3.42931 14.7209L3.40779 14.6648M23.6755 9.19798H14.8583H6.04324C6.21073 8.06793 6.41202 7.44333 6.84337 6.59881L6.84338 6.59879C7.84432 4.63892 9.75584 3.2701 12.319 2.75379L23.6755 9.19798ZM23.6755 9.19798C23.3959 7.34163 22.7505 6.01731 21.6248 4.89578C21.049 4.3221 20.4956 3.92905 19.7144 3.54281C18.2455 2.81675 16.9071 2.52872 14.8742 2.52678L14.8741 2.52678C13.675 2.52541 13.2668 2.5635 12.3193 2.75373L23.6755 9.19798ZM20.8137 5.96712C20.8255 5.96795 20.8375 5.96838 20.8498 5.96838C20.876 5.96838 20.8979 5.9663 20.9141 5.96419C20.9305 5.96203 20.9445 5.95935 20.9553 5.95698C20.9763 5.95238 20.9928 5.94729 21.0029 5.94395C21.0227 5.9374 21.0371 5.93114 21.0426 5.92871C21.0543 5.9235 21.0606 5.92 21.0577 5.92154C21.0536 5.92374 21.0417 5.93044 21.021 5.94301C20.981 5.96725 20.9249 6.00303 20.8639 6.04385L20.8125 5.96703M20.8137 5.96712C20.8133 5.96709 20.8129 5.96706 20.8125 5.96703M20.8137 5.96712L20.7967 5.94188C20.8179 5.86876 20.8335 5.7939 20.8432 5.71778C20.8457 5.69797 20.8479 5.6787 20.8498 5.66024C20.8611 5.55009 20.8617 5.46838 20.8498 5.46838C20.836 5.46838 20.7172 5.54038 20.5857 5.62838C20.5616 5.64461 20.537 5.66036 20.512 5.67562L20.3904 5.66015M20.8137 5.96712L20.3904 5.66015M20.8125 5.96703C20.8048 5.96648 20.7973 5.96576 20.7899 5.96488C20.7921 5.95762 20.7943 5.95033 20.7964 5.94304L20.8125 5.96703ZM20.3904 5.66015C20.3879 5.65408 20.386 5.64888 20.3845 5.6447C20.3655 5.5926 20.361 5.55095 20.3601 5.54337L20.3601 5.54278C20.3586 5.52972 20.3585 5.52142 20.3585 5.52036C20.3585 5.51968 20.3586 5.52199 20.3584 5.52795C20.3578 5.55168 20.3545 5.59679 20.3471 5.65523C20.3419 5.69628 20.3339 5.73715 20.3233 5.77759C19.6173 6.11496 18.6504 6.12236 17.9527 5.77106C17.9526 5.77025 17.9524 5.76943 17.9523 5.76862C17.9523 5.76861 17.9523 5.76861 17.9523 5.7686C17.9447 5.72899 17.9409 5.6902 17.9409 5.65278V5.46078H17.6376H17.6364H17.4409L17.3058 5.65278L17.1531 5.86964L17.2822 5.96054C17.3446 6.00503 17.4398 6.06246 17.5374 6.11691C17.7039 6.51539 18.0738 6.86382 18.5496 7.04058L20.3904 5.66015ZM3.40779 14.6648L3.40772 14.6644M3.40779 14.6648L3.40772 14.6644M3.40772 14.6644C3.40223 14.6384 3.39408 14.582 3.38794 14.4473M3.40772 14.6644L3.38794 14.4473M3.38794 14.4473C3.37561 14.1766 3.37468 13.6913 3.37468 12.717M3.38794 14.4473L3.37468 12.717M3.37468 12.717C3.37468 11.7173 3.37504 11.2351 3.38802 10.9698M3.37468 12.717L3.38802 10.9698M3.38802 10.9698C3.39443 10.8388 3.40297 10.7884 3.40795 10.7671M3.38802 10.9698L3.40795 10.7671M3.40795 10.7671L3.40802 10.7668M3.40795 10.7671L3.40802 10.7668M3.40802 10.7668C3.4108 10.7549 3.41214 10.7492 3.43801 10.6931L3.40802 10.7668ZM13.664 25.4933L13.6638 19.8214C13.6638 18.1219 13.6622 16.5768 13.6596 15.4564C13.6583 14.8963 13.6568 14.442 13.6551 14.1274C13.6542 13.9703 13.6533 13.8473 13.6524 13.7631C13.6519 13.7214 13.6514 13.6875 13.6509 13.6634C13.6506 13.652 13.6503 13.6394 13.6498 13.6282C13.6497 13.6266 13.6496 13.624 13.6494 13.6207C13.6491 13.6153 13.6487 13.6079 13.6479 13.5999L13.6479 13.5996C13.6475 13.595 13.6459 13.577 13.6419 13.5547L13.6418 13.5543C13.6403 13.546 13.6345 13.5133 13.6202 13.4737C13.611 13.45 13.5799 13.3878 13.5557 13.3509C13.5006 13.2865 13.2993 13.1655 13.1496 13.1426C13.1634 13.1428 13.1845 13.1438 13.1916 13.1444L13.206 13.1458L13.2167 13.1471C13.2196 13.1475 13.2211 13.1478 13.22 13.1476L13.2074 13.1456L13.1446 13.1349C13.0886 13.1252 13.007 13.111 12.903 13.0928C12.6952 13.0564 12.3997 13.0043 12.0454 12.9417C11.3368 12.8165 10.394 12.6493 9.44896 12.4814C8.50391 12.3134 7.55682 12.1448 6.8398 12.0166C6.6647 11.9853 6.50336 11.9565 6.35915 11.9306L14.8639 11.9126L23.4773 11.8943C23.3352 11.9198 23.1711 11.949 22.9886 11.9815C22.5984 12.0508 22.1251 12.1343 21.602 12.2267C21.2507 12.2887 20.8768 12.3547 20.4906 12.423L20.4905 12.423C18.5747 12.7621 16.8816 13.0642 16.7373 13.0931L16.737 13.0931L16.4877 13.1431L16.0868 13.2235L16.086 13.6324L16.074 19.7954L16.0629 25.465L14.8571 25.4792L13.664 25.4933ZM4.00197 22.1212C4.00211 22.1212 4.00335 22.1219 4.00541 22.1229C4.00288 22.1217 4.00183 22.1211 4.00197 22.1212ZM24.0984 14.8311L24.0986 14.831C24.2702 14.7734 24.4875 14.7124 24.6847 14.6638C24.7078 14.8787 24.7365 15.1516 24.7693 15.4661C24.8521 16.26 24.9604 17.317 25.0675 18.3741C25.1746 19.4311 25.2805 20.4877 25.3585 21.2805C25.3976 21.6771 25.4295 22.007 25.4512 22.2379C25.4516 22.2422 25.452 22.2464 25.4524 22.2506L24.6735 22.6119C23.9994 22.9247 23.0709 23.3554 22.0506 23.8276L18.4396 25.4988H17.988H17.9443L17.9559 25.1731C18.0509 22.4967 18.6831 20.2154 19.8011 18.408C20.8764 16.6696 22.4315 15.3896 24.0984 14.8311ZM19.3869 7.60945L19.3901 7.75106L20.0817 7.43333C20.7583 7.12251 21.2467 6.50811 21.3392 5.7809L21.3393 5.78033C21.3493 5.70076 21.3563 5.62117 21.358 5.55471C21.3588 5.52483 21.3592 5.47977 21.354 5.43309C21.352 5.41478 21.3459 5.36244 21.324 5.30216C21.3136 5.2737 21.2875 5.20869 21.2304 5.1426C21.1676 5.06994 21.0395 4.96838 20.8498 4.96838C20.7672 4.96838 20.7035 4.98965 20.6903 4.99406L20.6891 4.99446C20.666 5.00211 20.6475 5.01 20.6372 5.01457C20.6158 5.02406 20.597 5.03388 20.5847 5.04046C20.5585 5.05451 20.5299 5.07131 20.5028 5.08774C20.4471 5.1215 20.378 5.16573 20.3075 5.2129L20.3065 5.21358C19.7507 5.58766 18.8102 5.64357 18.1766 5.32395L18.1737 5.32251C18.0465 5.25937 17.9031 5.17525 17.8632 5.1466L17.8632 5.14658L17.8594 5.14391L17.7287 5.05191L16.9409 4.49737V5.46078V5.65278C16.9409 6.48946 17.5777 7.21285 18.3752 7.50919C18.6388 7.60752 18.9514 7.63501 19.2331 7.62123C19.2837 7.61875 19.3352 7.61486 19.3869 7.60945ZM20.5114 5.67594C20.4827 5.69346 20.4533 5.71033 20.4234 5.72658C20.4078 5.70042 20.3973 5.67737 20.3906 5.66071L20.5114 5.67594Z" stroke="#19C2EF" stroke-opacity="0.55"/>
<defs>
<linearGradient id="paint0_linear_340_86680" x1="13.9999" y1="2.00098" x2="13.9999" y2="25.9992" gradientUnits="userSpaceOnUse">
<stop stop-color="#0974F8"/>
<stop offset="1" stop-color="#4FB2FE"/>
</linearGradient>
</defs>
</svg>
