<svg width="15" height="15" viewBox="0 0 15 15" fill="none" xmlns="http://www.w3.org/2000/svg">
<g clip-path="url(#clip0_108_41917)">
<mask id="path-1-inside-1_108_41917" fill="white">
<path fill-rule="evenodd" clip-rule="evenodd" d="M7.16029 1.64699C7.16029 1.64699 7.16029 1.64699 7.16029 1.64699L3.18494 3.84176L5.34623 5.08273C5.88271 4.47152 6.6488 4.08807 7.49997 4.08807C8.35115 4.08807 9.11724 4.47152 9.65372 5.08273L11.815 3.84176L7.83965 1.64699C7.62679 1.52947 7.37316 1.52947 7.16029 1.64699ZM12.647 5.13688L10.3547 6.4531C10.4112 6.69448 10.4411 6.94668 10.4411 7.20576C10.4411 8.65852 9.50383 9.87916 8.23527 10.2252V12.912L12.262 10.5999C12.4992 10.4637 12.647 10.2007 12.647 9.91457V5.13688ZM12.6122 11.2853L12.9624 11.9706C13.6742 11.5619 14.1176 10.7727 14.1176 9.91457V3.82826C14.1176 3.53768 13.9651 3.27122 13.722 3.13698L8.51897 0.264425L8.17931 0.955706L8.51897 0.264423C7.88036 -0.088141 7.11958 -0.088141 6.48098 0.264423L6.48097 0.264425L1.27796 3.13698C1.03482 3.27122 0.882324 3.53768 0.882324 3.82826V9.91457C0.882324 10.7727 1.32577 11.5619 2.03756 11.9706L2.03758 11.9706L7.14976 14.9059C7.36824 15.0314 7.6317 15.0314 7.85018 14.9059L12.9624 11.9706L12.6122 11.2853ZM6.76468 12.912V10.2252C5.49611 9.87916 4.55879 8.65852 4.55879 7.20576C4.55879 6.94668 4.58875 6.69448 4.64526 6.4531L2.35291 5.13688V9.91457C2.35291 10.2006 2.50072 10.4637 2.73801 10.5999L6.76468 12.912ZM6.20622 6.46372C6.09362 6.68362 6.02938 6.93558 6.02938 7.20576C6.02938 8.06673 6.68775 8.76461 7.49997 8.76461C8.31219 8.76461 8.97056 8.06673 8.97056 7.20576C8.97056 6.93559 8.90632 6.6836 8.79372 6.46367C8.54371 5.97551 8.05747 5.64692 7.49997 5.64692C6.94245 5.64692 6.4562 5.97553 6.20622 6.46372Z"/>
</mask>
<path fill-rule="evenodd" clip-rule="evenodd" d="M7.16029 1.64699C7.16029 1.64699 7.16029 1.64699 7.16029 1.64699L3.18494 3.84176L5.34623 5.08273C5.88271 4.47152 6.6488 4.08807 7.49997 4.08807C8.35115 4.08807 9.11724 4.47152 9.65372 5.08273L11.815 3.84176L7.83965 1.64699C7.62679 1.52947 7.37316 1.52947 7.16029 1.64699ZM12.647 5.13688L10.3547 6.4531C10.4112 6.69448 10.4411 6.94668 10.4411 7.20576C10.4411 8.65852 9.50383 9.87916 8.23527 10.2252V12.912L12.262 10.5999C12.4992 10.4637 12.647 10.2007 12.647 9.91457V5.13688ZM12.6122 11.2853L12.9624 11.9706C13.6742 11.5619 14.1176 10.7727 14.1176 9.91457V3.82826C14.1176 3.53768 13.9651 3.27122 13.722 3.13698L8.51897 0.264425L8.17931 0.955706L8.51897 0.264423C7.88036 -0.088141 7.11958 -0.088141 6.48098 0.264423L6.48097 0.264425L1.27796 3.13698C1.03482 3.27122 0.882324 3.53768 0.882324 3.82826V9.91457C0.882324 10.7727 1.32577 11.5619 2.03756 11.9706L2.03758 11.9706L7.14976 14.9059C7.36824 15.0314 7.6317 15.0314 7.85018 14.9059L12.9624 11.9706L12.6122 11.2853ZM6.76468 12.912V10.2252C5.49611 9.87916 4.55879 8.65852 4.55879 7.20576C4.55879 6.94668 4.58875 6.69448 4.64526 6.4531L2.35291 5.13688V9.91457C2.35291 10.2006 2.50072 10.4637 2.73801 10.5999L6.76468 12.912ZM6.20622 6.46372C6.09362 6.68362 6.02938 6.93558 6.02938 7.20576C6.02938 8.06673 6.68775 8.76461 7.49997 8.76461C8.31219 8.76461 8.97056 8.06673 8.97056 7.20576C8.97056 6.93559 8.90632 6.6836 8.79372 6.46367C8.54371 5.97551 8.05747 5.64692 7.49997 5.64692C6.94245 5.64692 6.4562 5.97553 6.20622 6.46372Z" fill="url(#paint0_linear_108_41917)"/>
<path d="M7.16029 1.64699L6.69199 0.763419L6.68444 0.76742L6.67696 0.771549L7.16029 1.64699ZM7.16029 1.64699L7.62859 2.53056L7.63614 2.52656L7.64361 2.52243L7.16029 1.64699ZM3.18494 3.84176L2.70161 2.96632L1.14689 3.82467L2.687 4.70897L3.18494 3.84176ZM5.34623 5.08273L4.84829 5.94994L5.55796 6.35742L6.09779 5.7424L5.34623 5.08273ZM9.65372 5.08273L8.90217 5.7424L9.44199 6.35742L10.1517 5.94995L9.65372 5.08273ZM11.815 3.84176L12.3129 4.70898L13.8531 3.82467L12.2983 2.96632L11.815 3.84176ZM7.83965 1.64699L8.32298 0.771549L8.32298 0.771546L7.83965 1.64699ZM10.3547 6.4531L9.85675 5.58589L9.21139 5.95644L9.38101 6.68103L10.3547 6.4531ZM12.647 5.13688H13.647V3.40958L12.1491 4.26967L12.647 5.13688ZM8.23527 10.2252L7.97207 9.2605L7.23527 9.46151V10.2252H8.23527ZM8.23527 12.912H7.23527V14.6393L8.7332 13.7792L8.23527 12.912ZM12.262 10.5999L12.7599 11.4671L12.7599 11.4671L12.262 10.5999ZM12.6122 11.2853L13.5026 10.8302L11.7217 11.7403L12.6122 11.2853ZM12.9624 11.9706L12.0719 12.4256L12.5497 13.3607L13.4603 12.8378L12.9624 11.9706ZM13.722 3.13698L13.2387 4.01242L13.722 3.13698ZM8.51897 0.264425L9.0023 -0.611015L8.08402 -1.11799L7.62146 -0.176565L8.51897 0.264425ZM8.51897 0.264423L9.41648 0.705408L9.8369 -0.150243L9.00229 -0.61102L8.51897 0.264423ZM6.48098 0.264423L5.99763 -0.611071L5.98831 -0.605794L6.48098 0.264423ZM6.48097 0.264425L6.96433 1.13992L6.97364 1.13464L6.48097 0.264425ZM1.27796 3.13698L1.76128 4.01242H1.76129L1.27796 3.13698ZM2.03756 11.9706L1.53961 12.8378L1.54972 12.8436L1.55997 12.8492L2.03756 11.9706ZM2.03758 11.9706L2.53551 11.1034L2.52541 11.0976L2.51517 11.092L2.03758 11.9706ZM7.14976 14.9059L7.6477 14.0387L7.6477 14.0387L7.14976 14.9059ZM7.85018 14.9059L8.34811 15.7731L8.34811 15.7731L7.85018 14.9059ZM12.9624 11.9706L13.4603 12.8378L14.2862 12.3636L13.8529 11.5156L12.9624 11.9706ZM6.76468 10.2252H7.76468V9.46151L7.02787 9.2605L6.76468 10.2252ZM6.76468 12.912L6.26674 13.7792L7.76468 14.6393V12.912H6.76468ZM4.64526 6.4531L5.61894 6.68103L5.78856 5.95644L5.1432 5.58588L4.64526 6.4531ZM2.35291 5.13688L2.85085 4.26966L1.35291 3.40958V5.13688H2.35291ZM2.73801 10.5999L2.24006 11.4671L2.24007 11.4671L2.73801 10.5999ZM6.20622 6.46372L5.31613 6.00793L5.31612 6.00794L6.20622 6.46372ZM8.79372 6.46367L9.68384 6.00794L9.68378 6.00784L8.79372 6.46367ZM7.62859 2.53056C7.62859 2.53056 7.62859 2.53056 7.62859 2.53056C7.62859 2.53056 7.62859 2.53056 7.62859 2.53056V2.53056C7.62859 2.53056 7.62859 2.53056 7.62859 2.53056C7.62859 2.53056 7.62859 2.53056 7.62859 2.53056C7.62859 2.53056 7.62859 2.53056 7.62859 2.53056V2.53056C7.62859 2.53056 7.62859 2.53056 7.62859 2.53056C7.62859 2.53056 7.62859 2.53056 7.62859 2.53056C7.62859 2.53056 7.62859 2.53056 7.62859 2.53056C7.62859 2.53056 7.62859 2.53056 7.62859 2.53056C7.62859 2.53056 7.62859 2.53056 7.62859 2.53056H7.62859C7.62859 2.53056 7.62859 2.53056 7.62859 2.53056C7.62859 2.53056 7.62859 2.53056 7.62859 2.53056C7.62859 2.53056 7.62859 2.53056 7.62859 2.53056H7.62859C7.62859 2.53056 7.62859 2.53056 7.62859 2.53056C7.62859 2.53056 7.62859 2.53056 7.62859 2.53056C7.62859 2.53056 7.62859 2.53056 7.62859 2.53056C7.62859 2.53056 7.62859 2.53056 7.62859 2.53056C7.62859 2.53056 7.62859 2.53056 7.62859 2.53056H7.62859C7.62859 2.53056 7.62859 2.53056 7.62859 2.53056C7.62859 2.53056 7.62859 2.53056 7.62859 2.53056C7.62859 2.53056 7.62859 2.53056 7.62859 2.53056H7.62859C7.62859 2.53056 7.62859 2.53056 7.62859 2.53056C7.62859 2.53056 7.62859 2.53056 7.62859 2.53056C7.62859 2.53056 7.62859 2.53056 7.62859 2.53056C7.62859 2.53056 7.62859 2.53056 7.62859 2.53056V2.53056C7.62859 2.53056 7.62859 2.53056 7.62859 2.53056C7.62859 2.53056 7.62859 2.53056 7.62859 2.53056C7.62859 2.53056 7.62859 2.53056 7.62859 2.53056V2.53056C7.62859 2.53056 7.62859 2.53056 7.62859 2.53056C7.62859 2.53056 7.62859 2.53056 7.62859 2.53056C7.62859 2.53056 7.62859 2.53056 7.62859 2.53056V2.53056C7.62859 2.53056 7.62859 2.53056 7.62859 2.53056V2.53056C7.62859 2.53056 7.62859 2.53056 7.62859 2.53056C7.62859 2.53056 7.62859 2.53056 7.62859 2.53056C7.62859 2.53056 7.62859 2.53056 7.62859 2.53056V2.53056C7.62859 2.53056 7.62859 2.53056 7.62859 2.53056C7.62859 2.53056 7.62859 2.53056 7.62859 2.53056C7.62859 2.53056 7.62859 2.53056 7.62859 2.53056V2.53056C7.62859 2.53056 7.62859 2.53056 7.62859 2.53056C7.62859 2.53056 7.62859 2.53056 7.62859 2.53056C7.62859 2.53056 7.62859 2.53056 7.62859 2.53056H7.62859C7.62859 2.53056 7.62859 2.53056 7.62859 2.53056C7.62859 2.53056 7.62859 2.53056 7.62859 2.53056C7.62859 2.53056 7.62859 2.53056 7.62859 2.53056H7.62859C7.62859 2.53056 7.62859 2.53056 7.62859 2.53056C7.62859 2.53056 7.62859 2.53056 7.62859 2.53056C7.62859 2.53056 7.62859 2.53056 7.62859 2.53056H7.62859C7.62859 2.53056 7.62859 2.53056 7.62859 2.53056C7.62859 2.53056 7.62859 2.53056 7.62859 2.53056C7.62859 2.53056 7.62859 2.53056 7.62859 2.53056C7.62859 2.53056 7.62859 2.53056 7.62859 2.53056C7.62859 2.53056 7.62859 2.53056 7.62859 2.53056H7.62859C7.62859 2.53056 7.62859 2.53056 7.62859 2.53056C7.62859 2.53056 7.62859 2.53056 7.62859 2.53056C7.62859 2.53056 7.62859 2.53056 7.62859 2.53056H7.62859C7.62859 2.53056 7.62859 2.53056 7.62859 2.53056C7.62859 2.53056 7.62859 2.53056 7.62859 2.53056C7.62859 2.53056 7.62859 2.53056 7.62859 2.53056C7.62859 2.53056 7.62859 2.53056 7.62859 2.53056V2.53056C7.62859 2.53056 7.62859 2.53056 7.62859 2.53056C7.62859 2.53056 7.62859 2.53056 7.62859 2.53056C7.62859 2.53056 7.62859 2.53056 7.62859 2.53056V2.53056C7.62859 2.53056 7.62859 2.53056 7.62859 2.53056C7.62859 2.53056 7.62859 2.53056 7.62859 2.53056C7.62859 2.53056 7.62859 2.53056 7.62859 2.53056V2.53056C7.62859 2.53056 7.62859 2.53056 7.62859 2.53056C7.62859 2.53056 7.62859 2.53056 7.62859 2.53056C7.62859 2.53056 7.62859 2.53056 7.62859 2.53056C7.62859 2.53056 7.62859 2.53056 7.62859 2.53056C7.62859 2.53056 7.62859 2.53056 7.62859 2.53056V2.53056C7.62859 2.53056 7.62859 2.53056 7.62859 2.53056C7.62859 2.53056 7.62859 2.53056 7.62859 2.53056C7.62859 2.53056 7.62859 2.53056 7.62859 2.53056V2.53056C7.62859 2.53056 7.62859 2.53056 7.62859 2.53056C7.62859 2.53056 7.62859 2.53056 7.62859 2.53056C7.62859 2.53056 7.62859 2.53056 7.62859 2.53056C7.62859 2.53056 7.62859 2.53056 7.62859 2.53056H7.62859C7.62859 2.53056 7.62859 2.53056 7.62859 2.53056C7.62859 2.53056 7.62859 2.53056 7.62859 2.53056C7.62859 2.53056 7.62859 2.53056 7.62859 2.53056H7.62859C7.62859 2.53056 7.62859 2.53056 7.62859 2.53056C7.62859 2.53056 7.62859 2.53056 7.62859 2.53056C7.62859 2.53056 7.62859 2.53056 7.62859 2.53056H7.62859C7.62859 2.53056 7.62859 2.53056 7.62859 2.53056C7.62859 2.53056 7.62859 2.53056 7.62859 2.53056C7.62859 2.53056 7.62859 2.53056 7.62859 2.53056C7.62859 2.53056 7.62859 2.53056 7.62859 2.53056C7.62859 2.53056 7.62859 2.53056 7.62859 2.53056H7.62859C7.62859 2.53056 7.62859 2.53056 7.62859 2.53056C7.62859 2.53056 7.62859 2.53056 7.62859 2.53056C7.62859 2.53056 7.62859 2.53056 7.62859 2.53056H7.62859C7.62859 2.53056 7.62859 2.53056 7.62859 2.53056C7.62859 2.53056 7.62859 2.53056 7.62859 2.53056C7.62859 2.53056 7.62859 2.53056 7.62859 2.53056H7.62859C7.62859 2.53056 7.62859 2.53056 7.62859 2.53056C7.62859 2.53056 7.62859 2.53056 7.62859 2.53056C7.62859 2.53056 7.62859 2.53056 7.62859 2.53056C7.62859 2.53056 7.62859 2.53056 7.62859 2.53056C7.62859 2.53056 7.62859 2.53056 7.62859 2.53056V2.53056C7.62859 2.53056 7.62859 2.53056 7.62859 2.53056C7.62859 2.53056 7.62859 2.53056 7.62859 2.53056C7.62859 2.53056 7.62859 2.53056 7.62859 2.53056V2.53056C7.62859 2.53056 7.62859 2.53056 7.62859 2.53056C7.62859 2.53056 7.62859 2.53056 7.62859 2.53056C7.62859 2.53056 7.62859 2.53056 7.62859 2.53056C7.62859 2.53056 7.62859 2.53056 7.62859 2.53056C7.62859 2.53056 7.62859 2.53056 7.62859 2.53056V2.53056C7.62859 2.53056 7.62859 2.53056 7.62859 2.53056C7.62859 2.53056 7.62859 2.53056 7.62859 2.53056C7.62859 2.53056 7.62859 2.53056 7.62859 2.53056V2.53056C7.62859 2.53056 7.62859 2.53056 7.62859 2.53056C7.62859 2.53056 7.62859 2.53056 7.62859 2.53056C7.62859 2.53056 7.62859 2.53056 7.62859 2.53056V2.53056C7.62859 2.53056 7.62859 2.53056 7.62859 2.53056C7.62859 2.53056 7.62859 2.53056 7.62859 2.53056C7.62859 2.53056 7.62859 2.53056 7.62859 2.53056C7.62859 2.53056 7.62859 2.53056 7.62859 2.53056C7.62859 2.53056 7.62859 2.53056 7.62859 2.53056H7.62859C7.62859 2.53056 7.62859 2.53056 7.62859 2.53056C7.62859 2.53056 7.62859 2.53056 7.62859 2.53056C7.62859 2.53056 7.62859 2.53056 7.62859 2.53056H7.62859C7.62859 2.53056 7.62859 2.53056 7.62859 2.53056C7.62859 2.53056 7.62859 2.53056 7.62859 2.53056C7.62859 2.53056 7.62859 2.53056 7.62859 2.53056C7.62859 2.53056 7.62859 2.53056 7.62859 2.53056C7.62859 2.53056 7.62859 2.53056 7.62859 2.53056H7.62859C7.62859 2.53056 7.62859 2.53056 7.62859 2.53056C7.62859 2.53056 7.62859 2.53056 7.62859 2.53056C7.62859 2.53056 7.62859 2.53056 7.62859 2.53056H7.62859C7.62859 2.53056 7.62859 2.53056 7.62859 2.53056C7.62859 2.53056 7.62859 2.53056 7.62859 2.53056C7.62859 2.53056 7.62859 2.53056 7.62859 2.53056H7.62859C7.62859 2.53056 7.62859 2.53056 7.62859 2.53056C7.62859 2.53056 7.62859 2.53056 7.62859 2.53056C7.62859 2.53056 7.62859 2.53056 7.62859 2.53056C7.62859 2.53056 7.62859 2.53056 7.62859 2.53056V2.53056C7.62859 2.53056 7.62859 2.53056 7.62859 2.53056C7.62859 2.53056 7.62859 2.53056 7.62859 2.53056C7.62859 2.53056 7.62859 2.53056 7.62859 2.53056V2.53056C7.62859 2.53056 7.62859 2.53056 7.62859 2.53056C7.62859 2.53056 7.62859 2.53056 7.62859 2.53056C7.62859 2.53056 7.62859 2.53056 7.62859 2.53056V2.53056C7.62859 2.53056 7.62859 2.53056 7.62859 2.53056V2.53056C7.62859 2.53056 7.62859 2.53056 7.62859 2.53056C7.62859 2.53056 7.62859 2.53056 7.62859 2.53056C7.62859 2.53056 7.62859 2.53056 7.62859 2.53056V2.53056C7.62859 2.53056 7.62859 2.53056 7.62859 2.53056C7.62859 2.53056 7.62859 2.53056 7.62859 2.53056C7.62859 2.53056 7.62859 2.53056 7.62859 2.53056V2.53056C7.62859 2.53056 7.62859 2.53056 7.62859 2.53056C7.62859 2.53056 7.62859 2.53056 7.62859 2.53056C7.62859 2.53056 7.62859 2.53056 7.62859 2.53056C7.62859 2.53056 7.62859 2.53056 7.62859 2.53056C7.62859 2.53056 7.62859 2.53056 7.62859 2.53056H7.62859C7.62859 2.53056 7.62859 2.53056 7.62859 2.53056C7.62859 2.53056 7.62859 2.53056 7.62859 2.53056C7.62859 2.53056 7.62859 2.53056 7.62859 2.53056H7.62859C7.62859 2.53056 7.62859 2.53056 7.62859 2.53056C7.62859 2.53056 7.62859 2.53056 7.62859 2.53056C7.62859 2.53056 7.62859 2.53056 7.62859 2.53056H7.62859C7.62859 2.53056 7.62859 2.53056 7.62859 2.53056H7.62859C7.62859 2.53056 7.62859 2.53056 7.62859 2.53056C7.62859 2.53056 7.62859 2.53056 7.62859 2.53056C7.62859 2.53056 7.62859 2.53056 7.62859 2.53056H7.62859C7.62859 2.53056 7.62859 2.53056 7.62859 2.53056C7.62859 2.53056 7.62859 2.53056 7.62859 2.53056C7.62859 2.53056 7.62859 2.53056 7.62859 2.53056H7.62859C7.62859 2.53056 7.62859 2.53056 7.62859 2.53056C7.62859 2.53056 7.62859 2.53056 7.62859 2.53056C7.62859 2.53056 7.62859 2.53056 7.62859 2.53056C7.62859 2.53056 7.62859 2.53056 7.62859 2.53056C7.62859 2.53056 7.62859 2.53056 7.62859 2.53056V2.53056C7.62859 2.53056 7.62859 2.53056 7.62859 2.53056C7.62859 2.53056 7.62859 2.53056 7.62859 2.53056C7.62859 2.53056 7.62859 2.53056 7.62859 2.53056V2.53056C7.62859 2.53056 7.62859 2.53056 7.62859 2.53056V2.53056C7.62859 2.53056 7.62859 2.53056 7.62859 2.53056C7.62859 2.53056 7.62859 2.53056 7.62859 2.53056C7.62859 2.53056 7.62859 2.53056 7.62859 2.53056V2.53056C7.62859 2.53056 7.62859 2.53056 7.62859 2.53056C7.62859 2.53056 7.62859 2.53056 7.62859 2.53056C7.62859 2.53056 7.62859 2.53056 7.62859 2.53056V2.53056C7.62859 2.53056 7.62859 2.53056 7.62859 2.53056C7.62859 2.53056 7.62859 2.53056 7.62859 2.53056C7.62859 2.53056 7.62859 2.53056 7.62859 2.53056C7.62859 2.53056 7.62859 2.53056 7.62859 2.53056C7.62859 2.53056 7.62859 2.53056 7.62859 2.53056C7.62859 2.53056 7.62859 2.53056 7.62859 2.53056H7.62859C7.62859 2.53056 7.62859 2.53056 7.62859 2.53056C7.62859 2.53056 7.62859 2.53056 7.62859 2.53056C7.62859 2.53056 7.62859 2.53056 7.62859 2.53056H7.62859C7.62859 2.53056 7.62859 2.53056 7.62859 2.53056C7.62859 2.53056 7.62859 2.53056 7.62859 2.53056C7.62859 2.53056 7.62859 2.53056 7.62859 2.53056H7.62859C7.62859 2.53056 7.62859 2.53056 7.62859 2.53056H7.62859C7.62859 2.53056 7.62859 2.53056 7.62859 2.53056C7.62859 2.53056 7.62859 2.53056 7.62859 2.53056C7.62859 2.53056 7.62859 2.53056 7.62859 2.53056H7.62859C7.62859 2.53056 7.62859 2.53056 7.62859 2.53056C7.62859 2.53056 7.62859 2.53056 7.62859 2.53056C7.62859 2.53056 7.62859 2.53056 7.62859 2.53056C7.62859 2.53056 7.62859 2.53056 7.62859 2.53056C7.62859 2.53056 7.62859 2.53056 7.62859 2.53056C7.62859 2.53056 7.62859 2.53056 7.62859 2.53056C7.62859 2.53056 7.62859 2.53056 7.62859 2.53056C7.62859 2.53056 7.62859 2.53056 7.62859 2.53056C7.62859 2.53056 7.62859 2.53056 7.62859 2.53056V2.53056C7.62859 2.53056 7.62859 2.53056 7.62859 2.53056C7.62859 2.53056 7.62859 2.53056 7.62859 2.53056C7.62859 2.53056 7.62859 2.53056 7.62859 2.53056C7.62859 2.53056 7.62859 2.53056 7.62859 2.53056C7.62859 2.53056 7.62859 2.53056 7.62859 2.53056V2.53056C7.62859 2.53056 7.62859 2.53056 7.62859 2.53056C7.62859 2.53056 7.62859 2.53056 7.62859 2.53056C7.62859 2.53056 7.62859 2.53056 7.62859 2.53056V2.53056C7.62859 2.53056 7.62859 2.53056 7.62859 2.53056C7.62859 2.53056 7.62859 2.53056 7.62859 2.53056C7.62859 2.53056 7.62859 2.53056 7.62859 2.53056C7.62859 2.53056 7.62859 2.53056 7.62859 2.53056C7.62859 2.53056 7.62859 2.53056 7.62859 2.53056H7.62859C7.62859 2.53056 7.62859 2.53056 7.62859 2.53056C7.62859 2.53056 7.62859 2.53056 7.62859 2.53056C7.62859 2.53056 7.62859 2.53056 7.62859 2.53056H7.62859C7.62859 2.53056 7.62859 2.53056 7.62859 2.53056C7.62859 2.53056 7.62859 2.53056 7.62859 2.53056C7.62859 2.53056 7.62859 2.53056 7.62859 2.53056H7.62859C7.62859 2.53056 7.62859 2.53056 7.62859 2.53056H7.62859C7.62859 2.53056 7.62859 2.53056 7.62859 2.53056C7.62859 2.53056 7.62859 2.53056 7.62859 2.53056C7.62859 2.53056 7.62859 2.53056 7.62859 2.53056C7.62859 2.53056 7.62859 2.53056 7.62859 2.53056C7.62859 2.53056 7.62859 2.53056 7.62859 2.53056C7.62859 2.53056 7.62859 2.53056 7.62859 2.53056C7.62859 2.53056 7.62859 2.53056 7.62859 2.53056C7.62859 2.53056 7.62859 2.53056 7.62859 2.53056C7.62859 2.53056 7.62859 2.53056 7.62859 2.53056C7.62859 2.53056 7.62859 2.53056 7.62859 2.53056C7.62859 2.53056 7.62859 2.53056 7.62859 2.53056C7.62859 2.53056 7.62859 2.53056 7.62859 2.53056C7.62859 2.53056 7.62859 2.53056 7.62859 2.53056V2.53056C7.62859 2.53056 7.62859 2.53056 7.62859 2.53056V2.53056C7.62859 2.53056 7.62859 2.53056 7.62859 2.53056C7.62859 2.53056 7.62859 2.53056 7.62859 2.53056C7.62859 2.53056 7.62859 2.53056 7.62859 2.53056V2.53056C7.62859 2.53056 7.62859 2.53056 7.62859 2.53056C7.62859 2.53056 7.62859 2.53056 7.62859 2.53056C7.62859 2.53056 7.62859 2.53056 7.62859 2.53056V2.53056C7.62859 2.53056 7.62859 2.53056 7.62859 2.53056C7.62859 2.53056 7.62859 2.53056 7.62859 2.53056H7.62859C7.62859 2.53056 7.62859 2.53056 7.62859 2.53056C7.62859 2.53056 7.62859 2.53056 7.62859 2.53056C7.62859 2.53056 7.62859 2.53056 7.62859 2.53056H7.62859C7.62859 2.53056 7.62859 2.53056 7.62859 2.53056C7.62859 2.53056 7.62859 2.53056 7.62859 2.53056C7.62859 2.53056 7.62859 2.53056 7.62859 2.53056H7.62859C7.62859 2.53056 7.62859 2.53056 7.62859 2.53056C7.62859 2.53056 7.62859 2.53056 7.62859 2.53056C7.62859 2.53056 7.62859 2.53056 7.62859 2.53056C7.62859 2.53056 7.62859 2.53056 7.62859 2.53056C7.62859 2.53056 7.62859 2.53056 7.62859 2.53056C7.62859 2.53056 7.62859 2.53056 7.62859 2.53056C7.62859 2.53056 7.62859 2.53056 7.62859 2.53056C7.62859 2.53056 7.62859 2.53056 7.62859 2.53056C7.62859 2.53056 7.62859 2.53056 7.62859 2.53056C7.62859 2.53056 7.62859 2.53056 7.62859 2.53056C7.62859 2.53056 7.62859 2.53056 7.62859 2.53056C7.62859 2.53056 7.62859 2.53056 7.62859 2.53056C7.62859 2.53056 7.62859 2.53056 7.62859 2.53056V2.53056C7.62859 2.53056 7.62859 2.53056 7.62859 2.53056C7.62859 2.53056 7.62859 2.53056 7.62859 2.53056C7.62859 2.53056 7.62859 2.53056 7.62859 2.53056V2.53056C7.62859 2.53056 7.62859 2.53056 7.62859 2.53056C7.62859 2.53056 7.62859 2.53056 7.62859 2.53056C7.62859 2.53056 7.62859 2.53056 7.62859 2.53056V2.53056C7.62859 2.53056 7.62859 2.53056 7.62859 2.53056C7.62859 2.53056 7.62859 2.53056 7.62859 2.53056C7.62859 2.53056 7.62859 2.53056 7.62859 2.53056H7.62859C7.62859 2.53056 7.62859 2.53056 7.62859 2.53056C7.62859 2.53056 7.62859 2.53056 7.62859 2.53056C7.62859 2.53056 7.62859 2.53056 7.62859 2.53056H7.62859C7.62859 2.53056 7.62859 2.53056 7.62859 2.53056C7.62859 2.53056 7.62859 2.53056 7.62859 2.53056C7.62859 2.53056 7.62859 2.53056 7.62859 2.53056L7.62859 2.53056C7.62859 2.53056 7.62859 2.53056 7.62859 2.53056C7.62859 2.53056 7.62859 2.53056 7.62859 2.53056C7.62859 2.53056 7.62859 2.53056 7.62859 2.53056C7.62859 2.53056 7.62859 2.53056 7.62859 2.53056C7.62859 2.53056 7.62859 2.53056 7.62859 2.53056C7.62859 2.53056 7.62859 2.53056 7.62859 2.53056C7.62859 2.53056 7.62859 2.53056 7.62859 2.53056C7.62859 2.53056 7.62859 2.53056 7.62859 2.53056C7.62859 2.53056 7.62859 2.53056 7.62859 2.53056C7.62859 2.53056 7.62859 2.53056 7.62859 2.53056C7.62859 2.53056 7.62859 2.53056 7.62859 2.53056L6.69199 0.763417C6.69199 0.763417 6.69199 0.763417 6.69199 0.763417C6.69199 0.763417 6.69199 0.763417 6.69199 0.763417C6.69199 0.763417 6.69199 0.763417 6.69199 0.763417C6.69199 0.763417 6.69199 0.763417 6.69199 0.763417C6.69199 0.763417 6.69199 0.763417 6.69199 0.763417C6.69199 0.763417 6.69199 0.763417 6.69199 0.763417C6.69199 0.763417 6.69199 0.763417 6.69199 0.763417C6.69199 0.763417 6.69199 0.763417 6.69199 0.763417C6.69199 0.763417 6.69199 0.763417 6.69199 0.763417C6.69199 0.763417 6.69199 0.763417 6.69199 0.763417C6.69199 0.763417 6.69199 0.763417 6.69199 0.763417C6.69199 0.763417 6.69199 0.763417 6.69199 0.763417C6.69199 0.763417 6.69199 0.763417 6.69199 0.763417C6.69199 0.763417 6.69199 0.763417 6.69199 0.763417C6.69199 0.763417 6.69199 0.763417 6.69199 0.763417C6.69199 0.763417 6.69199 0.763417 6.69199 0.763417C6.69199 0.763417 6.69199 0.763417 6.69199 0.763417C6.69199 0.763417 6.69199 0.763417 6.69199 0.763417C6.69199 0.763417 6.69199 0.763417 6.69199 0.763417C6.69199 0.763417 6.69199 0.763417 6.69199 0.763417C6.69199 0.763417 6.69199 0.763417 6.69199 0.763417C6.69199 0.763417 6.69199 0.763417 6.69199 0.763417C6.69199 0.763417 6.69199 0.763417 6.69199 0.763417C6.69199 0.763417 6.69199 0.763417 6.69199 0.763417V0.763417C6.69199 0.763417 6.69199 0.763417 6.69199 0.763417V0.763417C6.69199 0.763417 6.69199 0.763417 6.69199 0.763417C6.69199 0.763417 6.69199 0.763417 6.69199 0.763417C6.69199 0.763417 6.69199 0.763417 6.69199 0.763417C6.69199 0.763417 6.69199 0.763417 6.69199 0.763417C6.69199 0.763417 6.69199 0.763417 6.69199 0.763417C6.69199 0.763417 6.69199 0.763417 6.69199 0.763417C6.69199 0.763417 6.69199 0.763417 6.69199 0.763417C6.69199 0.763417 6.69199 0.763417 6.69199 0.763417C6.69199 0.763417 6.69199 0.763417 6.69199 0.763417C6.69199 0.763417 6.69199 0.763417 6.69199 0.763417C6.69199 0.763417 6.69199 0.763417 6.69199 0.763417C6.69199 0.763417 6.69199 0.763417 6.69199 0.763417C6.69199 0.763417 6.69199 0.763417 6.69199 0.763417C6.69199 0.763417 6.69199 0.763417 6.69199 0.763417C6.69199 0.763417 6.69199 0.763417 6.69199 0.763417C6.69199 0.763417 6.69199 0.763417 6.69199 0.763417C6.69199 0.763417 6.69199 0.763417 6.69199 0.763417C6.69199 0.763417 6.69199 0.763417 6.69199 0.763417C6.69199 0.763417 6.69199 0.763417 6.69199 0.763417C6.69199 0.763417 6.69199 0.763417 6.69199 0.763417C6.69199 0.763417 6.69199 0.763417 6.69199 0.763417C6.69199 0.763417 6.69199 0.763417 6.69199 0.763417C6.69199 0.763417 6.69199 0.763417 6.69199 0.763417C6.69199 0.763417 6.69199 0.763417 6.69199 0.763417C6.69199 0.763417 6.69199 0.763417 6.69199 0.763417L6.69199 0.763417C6.69199 0.763417 6.69199 0.763417 6.69199 0.763417C6.69199 0.763417 6.69199 0.763417 6.69199 0.763417C6.69199 0.763417 6.69199 0.763417 6.69199 0.763417C6.69199 0.763417 6.69199 0.763417 6.69199 0.763417C6.69199 0.763417 6.69199 0.763417 6.69199 0.763417C6.69199 0.763417 6.69199 0.763417 6.69199 0.763417C6.69199 0.763417 6.69199 0.763417 6.69199 0.763417C6.69199 0.763417 6.69199 0.763417 6.69199 0.763417C6.69199 0.763417 6.69199 0.763417 6.69199 0.763417C6.69199 0.763417 6.69199 0.763417 6.69199 0.763417C6.69199 0.763417 6.69199 0.763417 6.69199 0.763417C6.69199 0.763417 6.69199 0.763417 6.69199 0.763417C6.69199 0.763417 6.69199 0.763417 6.69199 0.763417C6.69199 0.763417 6.69199 0.763417 6.69199 0.763417C6.69199 0.763417 6.69199 0.763417 6.69199 0.763417C6.69199 0.763417 6.69199 0.763417 6.69199 0.763417C6.69199 0.763417 6.69199 0.763417 6.69199 0.763417L6.69199 0.763417C6.69199 0.763417 6.69199 0.763417 6.69199 0.763417C6.69199 0.763417 6.69199 0.763417 6.69199 0.763417C6.69199 0.763417 6.69199 0.763417 6.69199 0.763417C6.69199 0.763417 6.69199 0.763417 6.69199 0.763417C6.69199 0.763417 6.69199 0.763417 6.69199 0.763417C6.69199 0.763417 6.69199 0.763417 6.69199 0.763417C6.69199 0.763417 6.69199 0.763417 6.69199 0.763417C6.69199 0.763417 6.69199 0.763417 6.69199 0.763417C6.69199 0.763417 6.69199 0.763417 6.69199 0.763417V0.763417C6.69199 0.763417 6.69199 0.763417 6.69199 0.763417V0.763417C6.69199 0.763417 6.69199 0.763417 6.69199 0.763417C6.69199 0.763417 6.69199 0.763417 6.69199 0.763417C6.69199 0.763417 6.69199 0.763417 6.69199 0.763417C6.69199 0.763417 6.69199 0.763417 6.69199 0.763417C6.69199 0.763417 6.69199 0.763417 6.69199 0.763417C6.69199 0.763417 6.69199 0.763417 6.69199 0.763417C6.69199 0.763417 6.69199 0.763417 6.69199 0.763417C6.69199 0.763417 6.69199 0.763417 6.69199 0.763417C6.69199 0.763417 6.69199 0.763417 6.69199 0.763417C6.69199 0.763417 6.69199 0.763417 6.69199 0.763417C6.69199 0.763417 6.69199 0.763417 6.69199 0.763417C6.69199 0.763417 6.69199 0.763417 6.69199 0.763417C6.69199 0.763417 6.69199 0.763417 6.69199 0.763417C6.69199 0.763417 6.69199 0.763417 6.69199 0.763417C6.69199 0.763417 6.69199 0.763417 6.69199 0.763417V0.763417C6.69199 0.763417 6.69199 0.763417 6.69199 0.763417C6.69199 0.763417 6.69199 0.763417 6.69199 0.763417C6.69199 0.763417 6.69199 0.763417 6.69199 0.763417C6.69199 0.763417 6.69199 0.763417 6.69199 0.763417C6.69199 0.763417 6.69199 0.763417 6.69199 0.763417C6.69199 0.763417 6.69199 0.763417 6.69199 0.763417C6.69199 0.763417 6.69199 0.763417 6.69199 0.763417C6.69199 0.763417 6.69199 0.763417 6.69199 0.763417C6.69199 0.763417 6.69199 0.763417 6.69199 0.763417V0.763417C6.69199 0.763417 6.69199 0.763417 6.69199 0.763417C6.69199 0.763417 6.69199 0.763417 6.69199 0.763417C6.69199 0.763417 6.69199 0.763417 6.69199 0.763417C6.69199 0.763417 6.69199 0.763417 6.69199 0.763417C6.69199 0.763417 6.69199 0.763417 6.69199 0.763417C6.69199 0.763417 6.69199 0.763417 6.69199 0.763417C6.69199 0.763417 6.69199 0.763417 6.69199 0.763417C6.69199 0.763417 6.69199 0.763417 6.69199 0.763417C6.69199 0.763417 6.69199 0.763417 6.69199 0.763417C6.69199 0.763417 6.69199 0.763417 6.69199 0.763417C6.69199 0.763417 6.69199 0.763417 6.69199 0.763417C6.69199 0.763417 6.69199 0.763417 6.69199 0.763417C6.69199 0.763417 6.69199 0.763417 6.69199 0.763417C6.69199 0.763417 6.69199 0.763417 6.69199 0.763417C6.69199 0.763417 6.69199 0.763417 6.69199 0.763417C6.69199 0.763417 6.69199 0.763417 6.69199 0.763417C6.69199 0.763417 6.69199 0.763417 6.69199 0.763417L6.69199 0.763417C6.69199 0.763417 6.69199 0.763417 6.69199 0.763417C6.69199 0.763417 6.69199 0.763417 6.69199 0.763417C6.69199 0.763417 6.69199 0.763417 6.69199 0.763417C6.69199 0.763417 6.69199 0.763417 6.69199 0.763417C6.69199 0.763417 6.69199 0.763417 6.69199 0.763417C6.69199 0.763417 6.69199 0.763417 6.69199 0.763417C6.69199 0.763417 6.69199 0.763417 6.69199 0.763417C6.69199 0.763417 6.69199 0.763417 6.69199 0.763417C6.69199 0.763417 6.69199 0.763417 6.69199 0.763417C6.69199 0.763417 6.69199 0.763417 6.69199 0.763417C6.69199 0.763417 6.69199 0.763417 6.69199 0.763417C6.69199 0.763417 6.69199 0.763417 6.69199 0.763417C6.69199 0.763417 6.69199 0.763417 6.69199 0.763417C6.69199 0.763417 6.69199 0.763417 6.69199 0.763417C6.69199 0.763417 6.69199 0.763417 6.69199 0.763418C6.69199 0.763417 6.69199 0.763417 6.69199 0.763417C6.69199 0.763417 6.69199 0.763418 6.69199 0.763417C6.69199 0.763417 6.69199 0.763418 6.69199 0.763418C6.69199 0.763417 6.69199 0.763417 6.69199 0.763418C6.69199 0.763417 6.69199 0.763417 6.69199 0.763417C6.69199 0.763417 6.69199 0.763418 6.69199 0.763417C6.69199 0.763417 6.69199 0.763418 6.69199 0.763418C6.69199 0.763417 6.69199 0.763417 6.69199 0.763418C6.69199 0.763417 6.69199 0.763417 6.69199 0.763417C6.69199 0.763417 6.69199 0.763418 6.69199 0.763417V0.763418C6.69199 0.763417 6.69199 0.763418 6.69199 0.763418V0.763417C6.69199 0.763418 6.69199 0.763418 6.69199 0.763417C6.69199 0.763418 6.69199 0.763418 6.69199 0.763418C6.69199 0.763417 6.69199 0.763418 6.69199 0.763418C6.69199 0.763418 6.69199 0.763417 6.69199 0.763417C6.69199 0.763418 6.69199 0.763418 6.69199 0.763417C6.69199 0.763418 6.69199 0.763418 6.69199 0.763418C6.69199 0.763417 6.69199 0.763418 6.69199 0.763418C6.69199 0.763418 6.69199 0.763417 6.69199 0.763417C6.69199 0.763418 6.69199 0.763418 6.69199 0.763417C6.69199 0.763418 6.69199 0.763418 6.69199 0.763418C6.69199 0.763418 6.69199 0.763418 6.69199 0.763418C6.69199 0.763418 6.69199 0.763418 6.69199 0.763418C6.69199 0.763418 6.69199 0.763418 6.69199 0.763418C6.69199 0.763418 6.69199 0.763418 6.69199 0.763418C6.69199 0.763418 6.69199 0.763418 6.69199 0.763418V0.763418C6.69199 0.763418 6.69199 0.763418 6.69199 0.763418C6.69199 0.763418 6.69199 0.763418 6.69199 0.763418C6.69199 0.763418 6.69199 0.763418 6.69199 0.763418C6.69199 0.763418 6.69199 0.763418 6.69199 0.763418C6.69199 0.763418 6.69199 0.763418 6.69199 0.763418C6.69199 0.763418 6.69199 0.763418 6.69199 0.763418C6.69199 0.763418 6.69199 0.763418 6.69199 0.763418C6.69199 0.763418 6.69199 0.763418 6.69199 0.763418C6.69199 0.763418 6.69199 0.763418 6.69199 0.763418L6.69199 0.763418C6.69199 0.763418 6.69199 0.763418 6.69199 0.763418L6.69199 0.763418C6.69199 0.763418 6.69199 0.763418 6.69199 0.763418C6.69199 0.763418 6.69199 0.763418 6.69199 0.763418C6.69199 0.763418 6.69199 0.763418 6.69199 0.763418C6.69199 0.763418 6.69199 0.763418 6.69199 0.763418C6.69199 0.763418 6.69199 0.763418 6.69199 0.763418C6.69199 0.763418 6.69199 0.763418 6.69199 0.763418C6.69199 0.763418 6.69199 0.763418 6.69199 0.763418C6.69199 0.763418 6.69199 0.763418 6.69199 0.763418C6.69199 0.763418 6.69199 0.763418 6.69199 0.763418C6.69199 0.763418 6.69199 0.763418 6.69199 0.763418C6.69199 0.763418 6.69199 0.763418 6.69199 0.763418C6.69199 0.763418 6.69199 0.763418 6.69199 0.763418C6.69199 0.763418 6.69199 0.763418 6.69199 0.763418C6.69199 0.763418 6.69199 0.763418 6.69199 0.763418C6.69199 0.763418 6.69199 0.763418 6.69199 0.763418V0.763418C6.69199 0.763418 6.69199 0.763418 6.69199 0.763418C6.69199 0.763418 6.69199 0.763418 6.69199 0.763418C6.69199 0.763418 6.69199 0.763418 6.69199 0.763418C6.69199 0.763418 6.69199 0.763418 6.69199 0.763418C6.69199 0.763418 6.69199 0.763418 6.69199 0.763418C6.69199 0.763418 6.69199 0.763418 6.69199 0.763418C6.69199 0.763418 6.69199 0.763418 6.69199 0.763418C6.69199 0.763418 6.69199 0.763418 6.69199 0.763418C6.69199 0.763418 6.69199 0.763418 6.69199 0.763418V0.763418C6.69199 0.763418 6.69199 0.763418 6.69199 0.763418V0.763418C6.69199 0.763418 6.69199 0.763418 6.69199 0.763418C6.69199 0.763418 6.69199 0.763418 6.69199 0.763418C6.69199 0.763418 6.69199 0.763418 6.69199 0.763418C6.69199 0.763418 6.69199 0.763418 6.69199 0.763418C6.69199 0.763418 6.69199 0.763418 6.69199 0.763418C6.69199 0.763418 6.69199 0.763418 6.69199 0.763418C6.69199 0.763418 6.69199 0.763418 6.69199 0.763418C6.69199 0.763418 6.69199 0.763418 6.69199 0.763418C6.69199 0.763418 6.69199 0.763418 6.69199 0.763418C6.69199 0.763418 6.69199 0.763418 6.69199 0.763418C6.69199 0.763418 6.69199 0.763418 6.69199 0.763418C6.69199 0.763418 6.69199 0.763418 6.69199 0.763418C6.69199 0.763418 6.69199 0.763418 6.69199 0.763418V0.763418C6.69199 0.763418 6.69199 0.763418 6.69199 0.763418V0.763418C6.69199 0.763418 6.69199 0.763418 6.69199 0.763418C6.69199 0.763418 6.69199 0.763418 6.69199 0.763418C6.69199 0.763418 6.69199 0.763418 6.69199 0.763418C6.69199 0.763418 6.69199 0.763418 6.69199 0.763418C6.69199 0.763418 6.69199 0.763418 6.69199 0.763418C6.69199 0.763418 6.69199 0.763418 6.69199 0.763418C6.69199 0.763418 6.69199 0.763418 6.69199 0.763418C6.69199 0.763418 6.69199 0.763418 6.69199 0.763418C6.69199 0.763418 6.69199 0.763418 6.69199 0.763418C6.69199 0.763418 6.69199 0.763418 6.69199 0.763418C6.69199 0.763418 6.69199 0.763418 6.69199 0.763418C6.69199 0.763418 6.69199 0.763418 6.69199 0.763418C6.69199 0.763418 6.69199 0.763418 6.69199 0.763418C6.69199 0.763418 6.69199 0.763418 6.69199 0.763418C6.69199 0.763418 6.69199 0.763418 6.69199 0.763418C6.69199 0.763418 6.69199 0.763418 6.69199 0.763418C6.69199 0.763418 6.69199 0.763418 6.69199 0.763418C6.69199 0.763418 6.69199 0.763418 6.69199 0.763418C6.69199 0.763418 6.69199 0.763418 6.69199 0.763418C6.69199 0.763418 6.69199 0.763418 6.69199 0.763418C6.69199 0.763418 6.69199 0.763418 6.69199 0.763418C6.69199 0.763418 6.69199 0.763418 6.69199 0.763418C6.69199 0.763418 6.69199 0.763418 6.69199 0.763418C6.69199 0.763418 6.69199 0.763418 6.69199 0.763418C6.69199 0.763418 6.69199 0.763418 6.69199 0.763418C6.69199 0.763418 6.69199 0.763418 6.69199 0.763418C6.69199 0.763418 6.69199 0.763418 6.69199 0.763418V0.763418C6.69199 0.763418 6.69199 0.763418 6.69199 0.763418C6.69199 0.763418 6.69199 0.763418 6.69199 0.763418C6.69199 0.763418 6.69199 0.763418 6.69199 0.763418C6.69199 0.763418 6.69199 0.763418 6.69199 0.763418C6.69199 0.763418 6.69199 0.763418 6.69199 0.763418C6.69199 0.763418 6.69199 0.763418 6.69199 0.763418C6.69199 0.763418 6.69199 0.763418 6.69199 0.763418C6.69199 0.763418 6.69199 0.763418 6.69199 0.763418C6.69199 0.763418 6.69199 0.763418 6.69199 0.763418C6.69199 0.763418 6.69199 0.763418 6.69199 0.763418C6.69199 0.763418 6.69199 0.763418 6.69199 0.763418C6.69199 0.763418 6.69199 0.763418 6.69199 0.763418C6.69199 0.763418 6.69199 0.763418 6.69199 0.763418C6.69199 0.763418 6.69199 0.763418 6.69199 0.763418C6.69199 0.763418 6.69199 0.763418 6.69199 0.763418C6.69199 0.763418 6.69199 0.763418 6.69199 0.763418C6.69199 0.763418 6.69199 0.763418 6.69199 0.763418C6.69199 0.763418 6.69199 0.763418 6.69199 0.763418C6.69199 0.763418 6.69199 0.763418 6.69199 0.763418C6.69199 0.763418 6.69199 0.763418 6.69199 0.763418C6.69199 0.763418 6.69199 0.763418 6.69199 0.763418C6.69199 0.763418 6.69199 0.763418 6.69199 0.763418C6.69199 0.763418 6.69199 0.763418 6.69199 0.763418C6.69199 0.763418 6.69199 0.763418 6.69199 0.763418C6.69199 0.763418 6.69199 0.763418 6.69199 0.763418V0.763418C6.69199 0.763418 6.69199 0.763418 6.69199 0.763418V0.763418C6.69199 0.763418 6.69199 0.763418 6.69199 0.763418C6.69199 0.763418 6.69199 0.763418 6.69199 0.763418C6.69199 0.763418 6.69199 0.763418 6.69199 0.763418C6.69199 0.763418 6.69199 0.763418 6.69199 0.763418C6.69199 0.763418 6.69199 0.763418 6.69199 0.763418C6.69199 0.763418 6.69199 0.763418 6.69199 0.763418C6.69199 0.763418 6.69199 0.763418 6.69199 0.763418C6.69199 0.763418 6.69199 0.763418 6.69199 0.763418C6.69199 0.763418 6.69199 0.763418 6.69199 0.763418C6.69199 0.763418 6.69199 0.763418 6.69199 0.763418C6.69199 0.763418 6.69199 0.763418 6.69199 0.763418C6.69199 0.763418 6.69199 0.763418 6.69199 0.763418C6.69199 0.763418 6.69199 0.763418 6.69199 0.763418C6.69199 0.763418 6.69199 0.763418 6.69199 0.763418C6.69199 0.763418 6.69199 0.763418 6.69199 0.763418C6.69199 0.763418 6.69199 0.763418 6.69199 0.763418C6.69199 0.763418 6.69199 0.763418 6.69199 0.763418C6.69199 0.763418 6.69199 0.763418 6.69199 0.763418C6.69199 0.763418 6.69199 0.763418 6.69199 0.763418C6.69199 0.763418 6.69199 0.763418 6.69199 0.763418C6.69199 0.763418 6.69199 0.763418 6.69199 0.763418C6.69199 0.763418 6.69199 0.763418 6.69199 0.763418C6.69199 0.763418 6.69199 0.763418 6.69199 0.763418C6.69199 0.763418 6.69199 0.763418 6.69199 0.763418C6.69199 0.763418 6.69199 0.763418 6.69199 0.763418C6.69199 0.763418 6.69199 0.763418 6.69199 0.763418C6.69199 0.763418 6.69199 0.763418 6.69199 0.763418L6.69199 0.763418C6.69199 0.763418 6.69199 0.763418 6.69199 0.763418C6.69199 0.763418 6.69199 0.763418 6.69199 0.763418C6.69199 0.763418 6.69199 0.763418 6.69199 0.763418C6.69199 0.763418 6.69199 0.763418 6.69199 0.763418C6.69199 0.763418 6.69199 0.763418 6.69199 0.763418C6.69199 0.763418 6.69199 0.763418 6.69199 0.763418C6.69199 0.763418 6.69199 0.763418 6.69199 0.763418C6.69199 0.763418 6.69199 0.763418 6.69199 0.763418C6.69199 0.763418 6.69199 0.763418 6.69199 0.763418C6.69199 0.763418 6.69199 0.763418 6.69199 0.763418C6.69199 0.763418 6.69199 0.763418 6.69199 0.763418C6.69199 0.763418 6.69199 0.763418 6.69199 0.763418C6.69199 0.763418 6.69199 0.763418 6.69199 0.763418C6.69199 0.763418 6.69199 0.763418 6.69199 0.763418C6.69199 0.763418 6.69199 0.763418 6.69199 0.763418V0.763418C6.69199 0.763418 6.69199 0.763418 6.69199 0.763418C6.69199 0.763418 6.69199 0.763418 6.69199 0.763418C6.69199 0.763418 6.69199 0.763418 6.69199 0.763418C6.69199 0.763418 6.69199 0.763418 6.69199 0.763418C6.69199 0.763418 6.69199 0.763418 6.69199 0.763418C6.69199 0.763418 6.69199 0.763418 6.69199 0.763418C6.69199 0.763418 6.69199 0.763418 6.69199 0.763418C6.69199 0.763418 6.69199 0.763418 6.69199 0.763418C6.69199 0.763418 6.69199 0.763418 6.69199 0.763418V0.763418C6.69199 0.763418 6.69199 0.763418 6.69199 0.763418C6.69199 0.763418 6.69199 0.763418 6.69199 0.763418C6.69199 0.763418 6.69199 0.763418 6.69199 0.763418C6.69199 0.763418 6.69199 0.763418 6.69199 0.763418C6.69199 0.763418 6.69199 0.763418 6.69199 0.763418C6.69199 0.763418 6.69199 0.763418 6.69199 0.763418C6.69199 0.763418 6.69199 0.763418 6.69199 0.763418C6.69199 0.763418 6.69199 0.763418 6.69199 0.763418C6.69199 0.763418 6.69199 0.763418 6.69199 0.763418C6.69199 0.763418 6.69199 0.763418 6.69199 0.763418C6.69199 0.763418 6.69199 0.763418 6.69199 0.763418C6.69199 0.763418 6.69199 0.763418 6.69199 0.763418C6.69199 0.763418 6.69199 0.763418 6.69199 0.763418C6.69199 0.763418 6.69199 0.763418 6.69199 0.763418C6.69199 0.763418 6.69199 0.763418 6.69199 0.763418L6.69199 0.763418C6.69199 0.763418 6.69199 0.763418 6.69199 0.763418C6.69199 0.763418 6.69199 0.763418 6.69199 0.763418C6.69199 0.763418 6.69199 0.763418 6.69199 0.763418C6.69199 0.763418 6.69199 0.763418 6.69199 0.763418C6.69199 0.763418 6.69199 0.763418 6.69199 0.763418C6.69199 0.763418 6.69199 0.763418 6.69199 0.763418C6.69199 0.763418 6.69199 0.763418 6.69199 0.763418C6.69199 0.763418 6.69199 0.763418 6.69199 0.763418C6.69199 0.763418 6.69199 0.763418 6.69199 0.763418C6.69199 0.763418 6.69199 0.763418 6.69199 0.763418C6.69199 0.763418 6.69199 0.763418 6.69199 0.763418C6.69199 0.763418 6.69199 0.763418 6.69199 0.763418C6.69199 0.763418 6.69199 0.763418 6.69199 0.763418C6.69199 0.763418 6.69199 0.763418 6.69199 0.763418C6.69199 0.763418 6.69199 0.763418 6.69199 0.763418C6.69199 0.763418 6.69199 0.763418 6.69199 0.763418C6.69199 0.763418 6.69199 0.763418 6.69199 0.763418C6.69199 0.763418 6.69199 0.763418 6.69199 0.763418C6.69199 0.763418 6.69199 0.763418 6.69199 0.763418C6.69199 0.763418 6.69199 0.763418 6.69199 0.763418C6.69199 0.763418 6.69199 0.763418 6.69199 0.763418C6.69199 0.763418 6.69199 0.763418 6.69199 0.763418C6.69199 0.763418 6.69199 0.763418 6.69199 0.763418C6.69199 0.763418 6.69199 0.763418 6.69199 0.763418C6.69199 0.763418 6.69199 0.763418 6.69199 0.763418C6.69199 0.763418 6.69199 0.763418 6.69199 0.763418C6.69199 0.763418 6.69199 0.763418 6.69199 0.763418V0.763418C6.69199 0.763418 6.69199 0.763418 6.69199 0.763418V0.763418C6.69199 0.763418 6.69199 0.763418 6.69199 0.763418C6.69199 0.763418 6.69199 0.763419 6.69199 0.763419C6.69199 0.763418 6.69199 0.763418 6.69199 0.763419C6.69199 0.763418 6.69199 0.763418 6.69199 0.763418C6.69199 0.763418 6.69199 0.763419 6.69199 0.763418C6.69199 0.763418 6.69199 0.763419 6.69199 0.763419C6.69199 0.763418 6.69199 0.763418 6.69199 0.763419C6.69199 0.763418 6.69199 0.763418 6.69199 0.763418C6.69199 0.763418 6.69199 0.763419 6.69199 0.763418C6.69199 0.763418 6.69199 0.763419 6.69199 0.763419C6.69199 0.763418 6.69199 0.763418 6.69199 0.763419C6.69199 0.763418 6.69199 0.763418 6.69199 0.763418C6.69199 0.763419 6.69199 0.763419 6.69199 0.763418C6.69199 0.763419 6.69199 0.763419 6.69199 0.763419C6.69199 0.763418 6.69199 0.763419 6.69199 0.763419V0.763418C6.69199 0.763419 6.69199 0.763419 6.69199 0.763418C6.69199 0.763419 6.69199 0.763419 6.69199 0.763419C6.69199 0.763418 6.69199 0.763419 6.69199 0.763419C6.69199 0.763419 6.69199 0.763418 6.69199 0.763418C6.69199 0.763419 6.69199 0.763419 6.69199 0.763418C6.69199 0.763419 6.69199 0.763419 6.69199 0.763419C6.69199 0.763418 6.69199 0.763419 6.69199 0.763419C6.69199 0.763419 6.69199 0.763418 6.69199 0.763418C6.69199 0.763419 6.69199 0.763419 6.69199 0.763419V0.763419C6.69199 0.763419 6.69199 0.763419 6.69199 0.763419V0.763419C6.69199 0.763419 6.69199 0.763419 6.69199 0.763419C6.69199 0.763419 6.69199 0.763419 6.69199 0.763419C6.69199 0.763419 6.69199 0.763419 6.69199 0.763419C6.69199 0.763419 6.69199 0.763419 6.69199 0.763419C6.69199 0.763419 6.69199 0.763419 6.69199 0.763419C6.69199 0.763419 6.69199 0.763419 6.69199 0.763419C6.69199 0.763419 6.69199 0.763419 6.69199 0.763419C6.69199 0.763419 6.69199 0.763419 6.69199 0.763419C6.69199 0.763419 6.69199 0.763419 6.69199 0.763419C6.69199 0.763419 6.69199 0.763419 6.69199 0.763419C6.69199 0.763419 6.69199 0.763419 6.69199 0.763419C6.69199 0.763419 6.69199 0.763419 6.69199 0.763419C6.69199 0.763419 6.69199 0.763419 6.69199 0.763419C6.69199 0.763419 6.69199 0.763419 6.69199 0.763419C6.69199 0.763419 6.69199 0.763419 6.69199 0.763419L6.69199 0.763419C6.69199 0.763419 6.69199 0.763419 6.69199 0.763419C6.69199 0.763419 6.69199 0.763419 6.69199 0.763419C6.69199 0.763419 6.69199 0.763419 6.69199 0.763419C6.69199 0.763419 6.69199 0.763419 6.69199 0.763419C6.69199 0.763419 6.69199 0.763419 6.69199 0.763419C6.69199 0.763419 6.69199 0.763419 6.69199 0.763419C6.69199 0.763419 6.69199 0.763419 6.69199 0.763419C6.69199 0.763419 6.69199 0.763419 6.69199 0.763419C6.69199 0.763419 6.69199 0.763419 6.69199 0.763419V0.763419C6.69199 0.763419 6.69199 0.763419 6.69199 0.763419V0.763419C6.69199 0.763419 6.69199 0.763419 6.69199 0.763419C6.69199 0.763419 6.69199 0.763419 6.69199 0.763419C6.69199 0.763419 6.69199 0.763419 6.69199 0.763419C6.69199 0.763419 6.69199 0.763419 6.69199 0.763419C6.69199 0.763419 6.69199 0.763419 6.69199 0.763419C6.69199 0.763419 6.69199 0.763419 6.69199 0.763419C6.69199 0.763419 6.69199 0.763419 6.69199 0.763419C6.69199 0.763419 6.69199 0.763419 6.69199 0.763419C6.69199 0.763419 6.69199 0.763419 6.69199 0.763419C6.69199 0.763419 6.69199 0.763419 6.69199 0.763419C6.69199 0.763419 6.69199 0.763419 6.69199 0.763419C6.69199 0.763419 6.69199 0.763419 6.69199 0.763419C6.69199 0.763419 6.69199 0.763419 6.69199 0.763419V0.763419C6.69199 0.763419 6.69199 0.763419 6.69199 0.763419V0.763419C6.69199 0.763419 6.69199 0.763419 6.69199 0.763419C6.69199 0.763419 6.69199 0.763419 6.69199 0.763419C6.69199 0.763419 6.69199 0.763419 6.69199 0.763419C6.69199 0.763419 6.69199 0.763419 6.69199 0.763419C6.69199 0.763419 6.69199 0.763419 6.69199 0.763419C6.69199 0.763419 6.69199 0.763419 6.69199 0.763419C6.69199 0.763419 6.69199 0.763419 6.69199 0.763419C6.69199 0.763419 6.69199 0.763419 6.69199 0.763419C6.69199 0.763419 6.69199 0.763419 6.69199 0.763419C6.69199 0.763419 6.69199 0.763419 6.69199 0.763419C6.69199 0.763419 6.69199 0.763419 6.69199 0.763419C6.69199 0.763419 6.69199 0.763419 6.69199 0.763419C6.69199 0.763419 6.69199 0.763419 6.69199 0.763419C6.69199 0.763419 6.69199 0.763419 6.69199 0.763419C6.69199 0.763419 6.69199 0.763419 6.69199 0.763419C6.69199 0.763419 6.69199 0.763419 6.69199 0.763419C6.69199 0.763419 6.69199 0.763419 6.69199 0.763419C6.69199 0.763419 6.69199 0.763419 6.69199 0.763419C6.69199 0.763419 6.69199 0.763419 6.69199 0.763419C6.69199 0.763419 6.69199 0.763419 6.69199 0.763419C6.69199 0.763419 6.69199 0.763419 6.69199 0.763419C6.69199 0.763419 6.69199 0.763419 6.69199 0.763419C6.69199 0.763419 6.69199 0.763419 6.69199 0.763419C6.69199 0.763419 6.69199 0.763419 6.69199 0.763419C6.69199 0.763419 6.69199 0.763419 6.69199 0.763419L6.69199 0.763419C6.69199 0.763419 6.69199 0.763419 6.69199 0.763419C6.69199 0.763419 6.69199 0.763419 6.69199 0.763419C6.69199 0.763419 6.69199 0.763419 6.69199 0.763419C6.69199 0.763419 6.69199 0.763419 6.69199 0.763419C6.69199 0.763419 6.69199 0.763419 6.69199 0.763419C6.69199 0.763419 6.69199 0.763419 6.69199 0.763419C6.69199 0.763419 6.69199 0.763419 6.69199 0.763419C6.69199 0.763419 6.69199 0.763419 6.69199 0.763419C6.69199 0.763419 6.69199 0.763419 6.69199 0.763419C6.69199 0.763419 6.69199 0.763419 6.69199 0.763419C6.69199 0.763419 6.69199 0.763419 6.69199 0.763419C6.69199 0.763419 6.69199 0.763419 6.69199 0.763419C6.69199 0.763419 6.69199 0.763419 6.69199 0.763419C6.69199 0.763419 6.69199 0.763419 6.69199 0.763419C6.69199 0.763419 6.69199 0.763419 6.69199 0.763419C6.69199 0.763419 6.69199 0.763419 6.69199 0.763419C6.69199 0.763419 6.69199 0.763419 6.69199 0.763419V0.763419C6.69199 0.763419 6.69199 0.763419 6.69199 0.763419C6.69199 0.763419 6.69199 0.763419 6.69199 0.763419C6.69199 0.763419 6.69199 0.763419 6.69199 0.763419C6.69199 0.763419 6.69199 0.763419 6.69199 0.763419C6.69199 0.763419 6.69199 0.763419 6.69199 0.763419C6.69199 0.763419 6.69199 0.763419 6.69199 0.763419C6.69199 0.763419 6.69199 0.763419 6.69199 0.763419C6.69199 0.763419 6.69199 0.763419 6.69199 0.763419C6.69199 0.763419 6.69199 0.763419 6.69199 0.763419V0.763419C6.69199 0.763419 6.69199 0.763419 6.69199 0.763419V0.763419C6.69199 0.763419 6.69199 0.763419 6.69199 0.763419L7.62859 2.53056ZM3.66826 4.7172L7.64362 2.52243L6.67696 0.771549L2.70161 2.96632L3.66826 4.7172ZM5.84417 4.21552L3.68287 2.97455L2.687 4.70897L4.84829 5.94994L5.84417 4.21552ZM7.49997 3.08807C6.33829 3.08807 5.30553 3.61319 4.59467 4.42306L6.09779 5.7424C6.4599 5.32985 6.95931 5.08807 7.49997 5.08807V3.08807ZM10.4053 4.42306C9.69442 3.61319 8.66166 3.08807 7.49997 3.08807V5.08807C8.04064 5.08807 8.54005 5.32985 8.90217 5.7424L10.4053 4.42306ZM11.3171 2.97455L9.15579 4.21552L10.1517 5.94995L12.3129 4.70898L11.3171 2.97455ZM7.35633 2.52243L11.3317 4.7172L12.2983 2.96632L8.32298 0.771549L7.35633 2.52243ZM7.64361 2.52243C7.55566 2.57099 7.44428 2.57099 7.35633 2.52243L8.32298 0.771546C7.8093 0.48795 7.19066 0.487948 6.67698 0.771541L7.64361 2.52243ZM10.8526 7.32032L13.145 6.00409L12.1491 4.26967L9.85675 5.58589L10.8526 7.32032ZM11.4411 7.20576C11.4411 6.86945 11.4022 6.54078 11.3284 6.22517L9.38101 6.68103C9.42014 6.84818 9.44115 7.02391 9.44115 7.20576H11.4411ZM8.49846 11.19C10.225 10.719 11.4411 9.08519 11.4411 7.20576H9.44115C9.44115 8.23185 8.78265 9.03936 7.97207 9.2605L8.49846 11.19ZM9.23527 12.912V10.2252H7.23527V12.912H9.23527ZM11.764 9.73271L7.73733 12.0447L8.7332 13.7792L12.7599 11.4671L11.764 9.73271ZM11.647 9.91457C11.647 9.86261 11.6737 9.78458 11.764 9.73272L12.7599 11.4671C13.3248 11.1428 13.647 10.5387 13.647 9.91457H11.647ZM11.647 5.13688V9.91457H13.647V5.13688H11.647ZM11.7217 11.7403L12.0719 12.4256L13.8529 11.5156L13.5026 10.8302L11.7217 11.7403ZM13.4603 12.8378C14.4998 12.241 15.1176 11.1107 15.1176 9.91457H13.1176C13.1176 10.4346 12.8487 10.8828 12.4644 11.1034L13.4603 12.8378ZM15.1176 9.91457V3.82826H13.1176V9.91457H15.1176ZM15.1176 3.82826C15.1176 3.19447 14.7851 2.58164 14.2053 2.26154L13.2387 4.01242C13.1451 3.96079 13.1176 3.88088 13.1176 3.82826H15.1176ZM14.2053 2.26154L9.0023 -0.611015L8.03564 1.13987L13.2387 4.01242L14.2053 2.26154ZM7.62146 -0.176565L7.2818 0.514716L9.07682 1.3967L9.41648 0.705415L7.62146 -0.176565ZM9.07682 1.39669L9.41648 0.705408L7.62145 -0.176562L7.2818 0.514721L9.07682 1.39669ZM9.00229 -0.61102C8.06287 -1.12966 6.93707 -1.12966 5.99766 -0.61102L6.9643 1.13987C7.30209 0.953378 7.69786 0.953378 8.03564 1.13987L9.00229 -0.61102ZM5.98831 -0.605794L5.98831 -0.605792L6.97364 1.13464L6.97365 1.13464L5.98831 -0.605794ZM5.99765 -0.611015L0.794633 2.26154L1.76129 4.01242L6.9643 1.13987L5.99765 -0.611015ZM0.794634 2.26154C0.214842 2.58164 -0.117676 3.19447 -0.117676 3.82826H1.88232C1.88232 3.88088 1.85481 3.96079 1.76128 4.01242L0.794634 2.26154ZM-0.117676 3.82826V9.91457H1.88232V3.82826H-0.117676ZM-0.117676 9.91457C-0.117676 11.1108 0.500276 12.241 1.53961 12.8378L2.53552 11.1034C2.15125 10.8827 1.88232 10.4346 1.88232 9.91457H-0.117676ZM1.55997 12.8492L1.55998 12.8492L2.51517 11.092L2.51516 11.092L1.55997 12.8492ZM1.53964 12.8378L6.65183 15.7731L7.6477 14.0387L2.53551 11.1034L1.53964 12.8378ZM6.65182 15.7731C7.17865 16.0756 7.82129 16.0756 8.34811 15.7731L7.35225 14.0387C7.44212 13.9871 7.55783 13.9871 7.6477 14.0387L6.65182 15.7731ZM8.34811 15.7731L13.4603 12.8378L12.4645 11.1034L7.35225 14.0387L8.34811 15.7731ZM13.8529 11.5156L13.5027 10.8302L11.7217 11.7403L12.0719 12.4256L13.8529 11.5156ZM5.76468 10.2252V12.912H7.76468V10.2252H5.76468ZM3.55879 7.20576C3.55879 9.08519 4.77493 10.719 6.50148 11.19L7.02787 9.2605C6.21729 9.03936 5.55879 8.23185 5.55879 7.20576H3.55879ZM3.67158 6.22516C3.5977 6.54078 3.55879 6.86946 3.55879 7.20576H5.55879C5.55879 7.02391 5.57981 6.84818 5.61894 6.68103L3.67158 6.22516ZM1.85498 6.00409L4.14732 7.32031L5.1432 5.58588L2.85085 4.26966L1.85498 6.00409ZM3.35291 9.91457V5.13688H1.35291V9.91457H3.35291ZM3.23597 9.73273C3.32621 9.78455 3.35291 9.86254 3.35291 9.91457H1.35291C1.35291 10.5387 1.67523 11.1428 2.24006 11.4671L3.23597 9.73273ZM7.26261 12.0447L3.23595 9.73272L2.24007 11.4671L6.26674 13.7792L7.26261 12.0447ZM7.02938 7.20576C7.02938 7.09586 7.05513 6.99992 7.09631 6.91949L5.31612 6.00794C5.13211 6.36731 5.02938 6.77531 5.02938 7.20576H7.02938ZM7.49997 7.76461C7.29415 7.76461 7.02938 7.57015 7.02938 7.20576H5.02938C5.02938 8.5633 6.08136 9.76461 7.49997 9.76461V7.76461ZM7.97056 7.20576C7.97056 7.57015 7.70579 7.76461 7.49997 7.76461V9.76461C8.91859 9.76461 9.97056 8.5633 9.97056 7.20576H7.97056ZM7.9036 6.9194C7.94482 6.9999 7.97056 7.09588 7.97056 7.20576H9.97056C9.97056 6.7753 9.86783 6.36731 9.68384 6.00794L7.9036 6.9194ZM7.49997 6.64692C7.64689 6.64692 7.80801 6.73276 7.90365 6.91951L9.68378 6.00784C9.27941 5.21825 8.46806 4.64692 7.49997 4.64692V6.64692ZM7.09631 6.9195C7.19193 6.73277 7.35305 6.64692 7.49997 6.64692V4.64692C6.53185 4.64692 5.72047 5.2183 5.31613 6.00793L7.09631 6.9195Z" fill="#19C2EF" fill-opacity="0.55" mask="url(#path-1-inside-1_108_41917)"/>
</g>
<defs>
<linearGradient id="paint0_linear_108_41917" x1="7.49997" y1="0" x2="7.49997" y2="15" gradientUnits="userSpaceOnUse">
<stop stop-color="#0974F8"/>
<stop offset="1" stop-color="#4FB2FE"/>
</linearGradient>
<clipPath id="clip0_108_41917">
<rect width="15" height="15" fill="white"/>
</clipPath>
</defs>
</svg>
