<svg width="28" height="28" viewBox="0 0 28 28" fill="none" xmlns="http://www.w3.org/2000/svg">
<mask id="path-1-inside-1_329_9288" fill="white">
<path fill-rule="evenodd" clip-rule="evenodd" d="M13.3658 3.07438C13.3658 3.07438 13.3658 3.07438 13.3658 3.07438L5.94518 7.17129L9.9796 9.48777C10.981 8.34683 12.4111 7.63106 13.9999 7.63106C15.5888 7.63106 17.0188 8.34684 18.0203 9.48777L22.0547 7.17129L14.634 3.07438C14.2366 2.85501 13.7632 2.855 13.3658 3.07438ZM23.6078 9.58884L19.3287 12.0458C19.4342 12.4964 19.4901 12.9671 19.4901 13.4508C19.4901 16.1626 17.7405 18.4411 15.3725 19.0871V24.1023L22.889 19.7865C23.3319 19.5322 23.6078 19.0412 23.6078 18.5072V9.58884ZM23.5427 21.0658L24.1964 22.3451C25.5252 21.5822 26.3529 20.109 26.3529 18.5072V7.14609C26.3529 6.60366 26.0682 6.10627 25.6143 5.8557L15.902 0.493593L15.268 1.78398L15.902 0.493589C14.71 -0.16453 13.2898 -0.16453 12.0978 0.493589L12.0978 0.493593L2.38549 5.8557C1.93164 6.10627 1.64697 6.60366 1.64697 7.14609V18.5072C1.64697 20.1091 2.47473 21.5822 3.80342 22.3451L3.80345 22.3451L13.3462 27.8244C13.754 28.0585 14.2458 28.0585 14.6536 27.8244L24.1964 22.3451L23.5427 21.0658ZM12.6274 24.1023V19.0871C10.2594 18.4411 8.50972 16.1626 8.50972 13.4508C8.50972 12.9671 8.56564 12.4964 8.67112 12.0458L4.39207 9.58884V18.5072C4.39207 19.0412 4.66798 19.5322 5.11092 19.7865L12.6274 24.1023ZM11.5849 12.0656C11.3747 12.4761 11.2548 12.9464 11.2548 13.4508C11.2548 15.0579 12.4838 16.3606 13.9999 16.3606C15.5161 16.3606 16.745 15.0579 16.745 13.4508C16.745 12.9464 16.6251 12.4761 16.4149 12.0655C15.9482 11.1543 15.0406 10.5409 13.9999 10.5409C12.9592 10.5409 12.0515 11.1543 11.5849 12.0656Z"/>
</mask>
<path fill-rule="evenodd" clip-rule="evenodd" d="M13.3658 3.07438C13.3658 3.07438 13.3658 3.07438 13.3658 3.07438L5.94518 7.17129L9.9796 9.48777C10.981 8.34683 12.4111 7.63106 13.9999 7.63106C15.5888 7.63106 17.0188 8.34684 18.0203 9.48777L22.0547 7.17129L14.634 3.07438C14.2366 2.85501 13.7632 2.855 13.3658 3.07438ZM23.6078 9.58884L19.3287 12.0458C19.4342 12.4964 19.4901 12.9671 19.4901 13.4508C19.4901 16.1626 17.7405 18.4411 15.3725 19.0871V24.1023L22.889 19.7865C23.3319 19.5322 23.6078 19.0412 23.6078 18.5072V9.58884ZM23.5427 21.0658L24.1964 22.3451C25.5252 21.5822 26.3529 20.109 26.3529 18.5072V7.14609C26.3529 6.60366 26.0682 6.10627 25.6143 5.8557L15.902 0.493593L15.268 1.78398L15.902 0.493589C14.71 -0.16453 13.2898 -0.16453 12.0978 0.493589L12.0978 0.493593L2.38549 5.8557C1.93164 6.10627 1.64697 6.60366 1.64697 7.14609V18.5072C1.64697 20.1091 2.47473 21.5822 3.80342 22.3451L3.80345 22.3451L13.3462 27.8244C13.754 28.0585 14.2458 28.0585 14.6536 27.8244L24.1964 22.3451L23.5427 21.0658ZM12.6274 24.1023V19.0871C10.2594 18.4411 8.50972 16.1626 8.50972 13.4508C8.50972 12.9671 8.56564 12.4964 8.67112 12.0458L4.39207 9.58884V18.5072C4.39207 19.0412 4.66798 19.5322 5.11092 19.7865L12.6274 24.1023ZM11.5849 12.0656C11.3747 12.4761 11.2548 12.9464 11.2548 13.4508C11.2548 15.0579 12.4838 16.3606 13.9999 16.3606C15.5161 16.3606 16.745 15.0579 16.745 13.4508C16.745 12.9464 16.6251 12.4761 16.4149 12.0655C15.9482 11.1543 15.0406 10.5409 13.9999 10.5409C12.9592 10.5409 12.0515 11.1543 11.5849 12.0656Z" fill="url(#paint0_linear_329_9288)"/>
<path d="M13.3658 3.07438L12.8975 2.19081L12.89 2.19481L12.8825 2.19894L13.3658 3.07438ZM13.3658 3.07438L13.8341 3.95795L13.8417 3.95395L13.8492 3.94982L13.3658 3.07438ZM5.94518 7.17129L5.46185 6.29585L3.90713 7.1542L5.44724 8.0385L5.94518 7.17129ZM9.9796 9.48777L9.48166 10.355L10.1913 10.7625L10.7312 10.1474L9.9796 9.48777ZM18.0203 9.48777L17.2687 10.1474L17.8085 10.7625L18.5182 10.355L18.0203 9.48777ZM22.0547 7.17129L22.5526 8.0385L24.0927 7.1542L22.538 6.29585L22.0547 7.17129ZM14.634 3.07438L15.1173 2.19894L15.1173 2.19894L14.634 3.07438ZM19.3287 12.0458L18.8308 11.1786L18.1854 11.5491L18.355 12.2737L19.3287 12.0458ZM23.6078 9.58884H24.6078V7.86154L23.1098 8.72163L23.6078 9.58884ZM15.3725 19.0871L15.1093 18.1224L14.3725 18.3234V19.0871H15.3725ZM15.3725 24.1023H14.3725V25.8296L15.8704 24.9695L15.3725 24.1023ZM22.889 19.7865L23.3869 20.6537L23.3869 20.6537L22.889 19.7865ZM23.5427 21.0658L24.4332 20.6108L22.6522 21.5209L23.5427 21.0658ZM24.1964 22.3451L23.306 22.8002L23.7838 23.7352L24.6944 23.2123L24.1964 22.3451ZM25.6143 5.8557L25.131 6.73114L25.131 6.73114L25.6143 5.8557ZM15.902 0.493593L16.3854 -0.381847L15.4671 -0.88882L15.0045 0.0526028L15.902 0.493593ZM15.902 0.493589L16.7996 0.934574L17.22 0.0789231L16.3854 -0.381854L15.902 0.493589ZM12.0978 0.493589L11.6144 -0.381904L11.6051 -0.376628L12.0978 0.493589ZM12.0978 0.493593L12.5811 1.36908L12.5905 1.36381L12.0978 0.493593ZM2.38549 5.8557L2.86882 6.73114L2.86882 6.73114L2.38549 5.8557ZM3.80342 22.3451L3.30547 23.2123L3.31558 23.2181L3.32583 23.2237L3.80342 22.3451ZM3.80345 22.3451L4.30138 21.4779L4.29128 21.4721L4.28104 21.4666L3.80345 22.3451ZM13.3462 27.8244L13.8441 26.9572L13.8441 26.9572L13.3462 27.8244ZM14.6536 27.8244L15.1516 28.6916L15.1516 28.6916L14.6536 27.8244ZM24.1964 22.3451L24.6944 23.2123L25.5202 22.7381L25.0869 21.8901L24.1964 22.3451ZM12.6274 19.0871H13.6274V18.3234L12.8906 18.1224L12.6274 19.0871ZM12.6274 24.1023L12.1294 24.9695L13.6274 25.8296V24.1023H12.6274ZM8.67112 12.0458L9.6448 12.2737L9.81442 11.5491L9.16906 11.1786L8.67112 12.0458ZM4.39207 9.58884L4.89001 8.72162L3.39207 7.86154V9.58884H4.39207ZM5.11092 19.7865L4.61297 20.6537L4.61298 20.6538L5.11092 19.7865ZM11.5849 12.0656L10.6948 11.6098L10.6948 11.6098L11.5849 12.0656ZM16.4149 12.0655L17.305 11.6098L17.305 11.6097L16.4149 12.0655ZM13.8341 3.95795C13.8341 3.95795 13.8341 3.95795 13.8341 3.95795C13.8341 3.95795 13.8341 3.95795 13.8341 3.95795C13.8341 3.95795 13.8341 3.95795 13.8341 3.95795C13.8341 3.95795 13.8341 3.95795 13.8341 3.95795C13.8341 3.95795 13.8341 3.95795 13.8341 3.95795C13.8341 3.95795 13.8341 3.95795 13.8341 3.95795C13.8341 3.95795 13.8341 3.95795 13.8341 3.95795C13.8341 3.95795 13.8341 3.95795 13.8341 3.95795C13.8341 3.95795 13.8341 3.95795 13.8341 3.95795C13.8341 3.95795 13.8341 3.95795 13.8341 3.95795C13.8341 3.95795 13.8341 3.95795 13.8341 3.95795C13.8341 3.95795 13.8341 3.95795 13.8341 3.95795C13.8341 3.95795 13.8341 3.95795 13.8341 3.95795C13.8341 3.95795 13.8341 3.95795 13.8341 3.95795C13.8341 3.95795 13.8341 3.95795 13.8341 3.95795C13.8341 3.95795 13.8341 3.95795 13.8341 3.95795C13.8341 3.95795 13.8341 3.95795 13.8341 3.95795C13.8341 3.95795 13.8341 3.95795 13.8341 3.95795C13.8341 3.95795 13.8341 3.95795 13.8341 3.95795C13.8341 3.95795 13.8341 3.95795 13.8341 3.95795C13.8341 3.95795 13.8341 3.95795 13.8341 3.95795C13.8341 3.95795 13.8341 3.95795 13.8341 3.95795C13.8341 3.95795 13.8341 3.95795 13.8341 3.95795C13.8341 3.95795 13.8341 3.95795 13.8341 3.95795C13.8341 3.95795 13.8341 3.95795 13.8341 3.95795C13.8341 3.95795 13.8341 3.95795 13.8341 3.95795C13.8341 3.95795 13.8341 3.95795 13.8341 3.95795C13.8341 3.95795 13.8341 3.95795 13.8341 3.95795C13.8341 3.95795 13.8341 3.95795 13.8341 3.95795C13.8341 3.95795 13.8341 3.95795 13.8341 3.95795C13.8341 3.95795 13.8341 3.95795 13.8341 3.95795C13.8341 3.95795 13.8341 3.95795 13.8341 3.95795C13.8341 3.95795 13.8341 3.95795 13.8341 3.95795C13.8341 3.95795 13.8341 3.95795 13.8341 3.95795C13.8341 3.95795 13.8341 3.95795 13.8341 3.95795C13.8341 3.95795 13.8341 3.95795 13.8341 3.95795C13.8341 3.95795 13.8341 3.95795 13.8341 3.95795C13.8341 3.95795 13.8341 3.95795 13.8341 3.95795C13.8341 3.95795 13.8341 3.95795 13.8341 3.95795C13.8341 3.95795 13.8341 3.95795 13.8341 3.95795C13.8341 3.95795 13.8341 3.95795 13.8341 3.95795C13.8341 3.95795 13.8341 3.95795 13.8341 3.95795C13.8341 3.95795 13.8341 3.95795 13.8341 3.95795C13.8341 3.95795 13.8341 3.95795 13.8341 3.95795C13.8341 3.95795 13.8341 3.95795 13.8341 3.95795C13.8341 3.95795 13.8341 3.95795 13.8341 3.95795C13.8341 3.95795 13.8341 3.95795 13.8341 3.95795C13.8341 3.95795 13.8341 3.95795 13.8341 3.95795C13.8341 3.95795 13.8341 3.95795 13.8341 3.95795C13.8341 3.95795 13.8341 3.95795 13.8341 3.95795C13.8341 3.95795 13.8341 3.95795 13.8341 3.95795C13.8341 3.95795 13.8341 3.95795 13.8341 3.95795C13.8341 3.95795 13.8341 3.95795 13.8341 3.95795C13.8341 3.95795 13.8341 3.95795 13.8341 3.95795C13.8341 3.95795 13.8341 3.95795 13.8341 3.95795C13.8341 3.95795 13.8341 3.95795 13.8341 3.95795C13.8341 3.95795 13.8341 3.95795 13.8341 3.95795C13.8341 3.95795 13.8341 3.95795 13.8341 3.95795C13.8341 3.95795 13.8341 3.95795 13.8341 3.95795C13.8341 3.95795 13.8341 3.95795 13.8341 3.95795C13.8341 3.95795 13.8341 3.95795 13.8341 3.95795C13.8341 3.95795 13.8341 3.95795 13.8341 3.95795C13.8341 3.95795 13.8341 3.95795 13.8341 3.95795C13.8341 3.95795 13.8341 3.95795 13.8341 3.95795C13.8341 3.95795 13.8341 3.95795 13.8341 3.95795C13.8341 3.95795 13.8341 3.95795 13.8341 3.95795C13.8341 3.95795 13.8341 3.95795 13.8341 3.95795C13.8341 3.95795 13.8341 3.95795 13.8341 3.95795C13.8341 3.95795 13.8341 3.95795 13.8341 3.95795C13.8341 3.95795 13.8341 3.95795 13.8341 3.95795C13.8341 3.95795 13.8341 3.95795 13.8341 3.95795C13.8341 3.95795 13.8341 3.95795 13.8341 3.95795C13.8341 3.95795 13.8341 3.95795 13.8341 3.95795C13.8341 3.95795 13.8341 3.95795 13.8341 3.95795C13.8341 3.95795 13.8341 3.95795 13.8341 3.95795C13.8341 3.95795 13.8341 3.95795 13.8341 3.95795C13.8341 3.95795 13.8341 3.95795 13.8341 3.95795C13.8341 3.95795 13.8341 3.95795 13.8341 3.95795C13.8341 3.95795 13.8341 3.95795 13.8341 3.95795C13.8341 3.95795 13.8341 3.95795 13.8341 3.95795C13.8341 3.95795 13.8341 3.95795 13.8341 3.95795C13.8341 3.95795 13.8341 3.95795 13.8341 3.95795C13.8341 3.95795 13.8341 3.95795 13.8341 3.95795C13.8341 3.95795 13.8341 3.95795 13.8341 3.95795C13.8341 3.95795 13.8341 3.95795 13.8341 3.95795C13.8341 3.95795 13.8341 3.95795 13.8341 3.95795C13.8341 3.95795 13.8341 3.95795 13.8341 3.95795C13.8341 3.95795 13.8341 3.95795 13.8341 3.95795C13.8341 3.95795 13.8341 3.95795 13.8341 3.95795C13.8341 3.95795 13.8341 3.95795 13.8341 3.95795C13.8341 3.95795 13.8341 3.95795 13.8341 3.95795C13.8341 3.95795 13.8341 3.95795 13.8341 3.95795C13.8341 3.95795 13.8341 3.95795 13.8341 3.95795C13.8341 3.95795 13.8341 3.95795 13.8341 3.95795C13.8341 3.95795 13.8341 3.95795 13.8341 3.95795C13.8341 3.95795 13.8341 3.95795 13.8341 3.95795C13.8341 3.95795 13.8341 3.95795 13.8341 3.95795C13.8341 3.95795 13.8341 3.95795 13.8341 3.95795C13.8341 3.95795 13.8341 3.95795 13.8341 3.95795C13.8341 3.95795 13.8341 3.95795 13.8341 3.95795C13.8341 3.95795 13.8341 3.95795 13.8341 3.95795C13.8341 3.95795 13.8341 3.95795 13.8341 3.95795C13.8341 3.95795 13.8341 3.95795 13.8341 3.95795C13.8341 3.95795 13.8341 3.95795 13.8341 3.95795C13.8341 3.95795 13.8341 3.95795 13.8341 3.95795C13.8341 3.95795 13.8341 3.95795 13.8341 3.95795C13.8341 3.95795 13.8341 3.95795 13.8341 3.95795C13.8341 3.95795 13.8341 3.95795 13.8341 3.95795C13.8341 3.95795 13.8341 3.95795 13.8341 3.95795C13.8341 3.95795 13.8341 3.95795 13.8341 3.95795C13.8341 3.95795 13.8341 3.95795 13.8341 3.95795C13.8341 3.95795 13.8341 3.95795 13.8341 3.95795C13.8341 3.95795 13.8341 3.95795 13.8341 3.95795C13.8341 3.95795 13.8341 3.95795 13.8341 3.95795C13.8341 3.95795 13.8341 3.95795 13.8341 3.95795C13.8341 3.95795 13.8341 3.95795 13.8341 3.95795C13.8341 3.95795 13.8341 3.95795 13.8341 3.95795C13.8341 3.95795 13.8341 3.95795 13.8341 3.95795C13.8341 3.95795 13.8341 3.95795 13.8341 3.95795C13.8341 3.95795 13.8341 3.95795 13.8341 3.95795C13.8341 3.95795 13.8341 3.95795 13.8341 3.95795C13.8341 3.95795 13.8341 3.95795 13.8341 3.95795C13.8341 3.95795 13.8341 3.95795 13.8341 3.95795C13.8341 3.95795 13.8341 3.95795 13.8341 3.95795C13.8341 3.95795 13.8341 3.95795 13.8341 3.95795C13.8341 3.95795 13.8341 3.95795 13.8341 3.95795C13.8341 3.95795 13.8341 3.95795 13.8341 3.95795C13.8341 3.95795 13.8341 3.95795 13.8341 3.95795C13.8341 3.95795 13.8341 3.95795 13.8341 3.95795C13.8341 3.95795 13.8341 3.95795 13.8341 3.95795C13.8341 3.95795 13.8341 3.95795 13.8341 3.95795C13.8341 3.95795 13.8341 3.95795 13.8341 3.95795C13.8341 3.95795 13.8341 3.95795 13.8341 3.95795C13.8341 3.95795 13.8341 3.95795 13.8341 3.95795C13.8341 3.95795 13.8341 3.95795 13.8341 3.95795C13.8341 3.95795 13.8341 3.95795 13.8341 3.95795C13.8341 3.95795 13.8341 3.95795 13.8341 3.95795C13.8341 3.95795 13.8341 3.95795 13.8341 3.95795C13.8341 3.95795 13.8341 3.95795 13.8341 3.95795C13.8341 3.95795 13.8341 3.95795 13.8341 3.95795C13.8341 3.95795 13.8341 3.95795 13.8341 3.95795C13.8341 3.95795 13.8341 3.95795 13.8341 3.95795C13.8341 3.95795 13.8341 3.95795 13.8341 3.95795C13.8341 3.95795 13.8341 3.95795 13.8341 3.95795C13.8341 3.95795 13.8341 3.95795 13.8341 3.95795C13.8341 3.95795 13.8341 3.95795 13.8341 3.95795C13.8341 3.95795 13.8341 3.95795 13.8341 3.95795C13.8341 3.95795 13.8341 3.95795 13.8341 3.95795C13.8341 3.95795 13.8341 3.95795 13.8341 3.95795C13.8341 3.95795 13.8341 3.95795 13.8341 3.95795C13.8341 3.95795 13.8341 3.95795 13.8341 3.95795C13.8341 3.95795 13.8341 3.95795 13.8341 3.95795C13.8341 3.95795 13.8341 3.95795 13.8341 3.95795C13.8341 3.95795 13.8341 3.95795 13.8341 3.95795C13.8341 3.95795 13.8341 3.95795 13.8341 3.95795C13.8341 3.95795 13.8341 3.95795 13.8341 3.95795C13.8341 3.95795 13.8341 3.95795 13.8341 3.95795C13.8341 3.95795 13.8341 3.95795 13.8341 3.95795C13.8341 3.95795 13.8341 3.95795 13.8341 3.95795C13.8341 3.95795 13.8341 3.95795 13.8341 3.95795C13.8341 3.95795 13.8341 3.95795 13.8341 3.95795C13.8341 3.95795 13.8341 3.95795 13.8341 3.95795C13.8341 3.95795 13.8341 3.95795 13.8341 3.95795C13.8341 3.95795 13.8341 3.95795 13.8341 3.95795C13.8341 3.95795 13.8341 3.95795 13.8341 3.95795C13.8341 3.95795 13.8341 3.95795 13.8341 3.95795C13.8341 3.95795 13.8341 3.95795 13.8341 3.95795C13.8341 3.95795 13.8341 3.95795 13.8341 3.95795C13.8341 3.95795 13.8341 3.95795 13.8341 3.95795C13.8341 3.95795 13.8341 3.95795 13.8341 3.95795C13.8341 3.95795 13.8341 3.95795 13.8341 3.95795C13.8341 3.95795 13.8341 3.95795 13.8341 3.95795C13.8341 3.95795 13.8341 3.95795 13.8341 3.95795C13.8341 3.95795 13.8341 3.95795 13.8341 3.95795C13.8341 3.95795 13.8341 3.95795 13.8341 3.95795C13.8341 3.95795 13.8341 3.95795 13.8341 3.95795C13.8341 3.95795 13.8341 3.95795 13.8341 3.95795C13.8341 3.95795 13.8341 3.95795 13.8341 3.95795C13.8341 3.95795 13.8341 3.95795 13.8341 3.95795C13.8341 3.95795 13.8341 3.95795 13.8341 3.95795C13.8341 3.95795 13.8341 3.95795 13.8341 3.95795C13.8341 3.95795 13.8341 3.95795 13.8341 3.95795C13.8341 3.95795 13.8341 3.95795 13.8341 3.95795C13.8341 3.95795 13.8341 3.95795 13.8341 3.95795C13.8341 3.95795 13.8341 3.95795 13.8341 3.95795C13.8341 3.95795 13.8341 3.95795 13.8341 3.95795C13.8341 3.95795 13.8341 3.95795 13.8341 3.95795C13.8341 3.95795 13.8341 3.95795 13.8341 3.95795C13.8341 3.95795 13.8341 3.95795 13.8341 3.95795C13.8341 3.95795 13.8341 3.95795 13.8341 3.95795C13.8341 3.95795 13.8341 3.95795 13.8341 3.95795C13.8341 3.95795 13.8341 3.95795 13.8341 3.95795C13.8341 3.95795 13.8341 3.95795 13.8341 3.95795C13.8341 3.95795 13.8341 3.95795 13.8341 3.95795C13.8341 3.95795 13.8341 3.95795 13.8341 3.95795C13.8341 3.95795 13.8341 3.95795 13.8341 3.95795C13.8341 3.95795 13.8341 3.95795 13.8341 3.95795C13.8341 3.95795 13.8341 3.95795 13.8341 3.95795C13.8341 3.95795 13.8341 3.95795 13.8341 3.95795C13.8341 3.95795 13.8341 3.95795 13.8341 3.95795C13.8341 3.95795 13.8341 3.95795 13.8341 3.95795C13.8341 3.95795 13.8341 3.95795 13.8341 3.95795C13.8341 3.95795 13.8341 3.95795 13.8341 3.95795C13.8341 3.95795 13.8341 3.95795 13.8341 3.95795C13.8341 3.95795 13.8341 3.95795 13.8341 3.95795C13.8341 3.95795 13.8341 3.95795 13.8341 3.95795C13.8341 3.95795 13.8341 3.95795 13.8341 3.95795C13.8341 3.95795 13.8341 3.95795 13.8341 3.95795C13.8341 3.95795 13.8341 3.95795 13.8341 3.95795C13.8341 3.95795 13.8341 3.95795 13.8341 3.95795C13.8341 3.95795 13.8341 3.95795 13.8341 3.95795C13.8341 3.95795 13.8341 3.95795 13.8341 3.95795C13.8341 3.95795 13.8341 3.95795 13.8341 3.95795C13.8341 3.95795 13.8341 3.95795 13.8341 3.95795C13.8341 3.95795 13.8341 3.95795 13.8341 3.95795C13.8341 3.95795 13.8341 3.95795 13.8341 3.95795C13.8341 3.95795 13.8341 3.95795 13.8341 3.95795C13.8341 3.95795 13.8341 3.95795 13.8341 3.95795C13.8341 3.95795 13.8341 3.95795 13.8341 3.95795C13.8341 3.95795 13.8341 3.95795 13.8341 3.95795C13.8341 3.95795 13.8341 3.95795 13.8341 3.95795C13.8341 3.95795 13.8341 3.95795 13.8341 3.95795C13.8341 3.95795 13.8341 3.95795 13.8341 3.95795C13.8341 3.95795 13.8341 3.95795 13.8341 3.95795C13.8341 3.95795 13.8341 3.95795 13.8341 3.95795C13.8341 3.95795 13.8341 3.95795 13.8341 3.95795C13.8341 3.95795 13.8341 3.95795 13.8341 3.95795C13.8341 3.95795 13.8341 3.95795 13.8341 3.95795C13.8341 3.95795 13.8341 3.95795 13.8341 3.95795C13.8341 3.95795 13.8341 3.95795 13.8341 3.95795C13.8341 3.95795 13.8341 3.95795 13.8341 3.95795C13.8341 3.95795 13.8341 3.95795 13.8341 3.95795C13.8341 3.95795 13.8341 3.95795 13.8341 3.95795C13.8341 3.95795 13.8341 3.95795 13.8341 3.95795C13.8341 3.95795 13.8341 3.95795 13.8341 3.95795C13.8341 3.95795 13.8341 3.95795 13.8341 3.95795C13.8341 3.95795 13.8341 3.95795 13.8341 3.95795C13.8341 3.95795 13.8341 3.95795 13.8341 3.95795C13.8341 3.95795 13.8341 3.95795 13.8341 3.95795C13.8341 3.95795 13.8341 3.95795 13.8341 3.95795C13.8341 3.95795 13.8341 3.95795 13.8341 3.95795C13.8341 3.95795 13.8341 3.95795 13.8341 3.95795C13.8341 3.95795 13.8341 3.95795 13.8341 3.95795C13.8341 3.95795 13.8341 3.95795 13.8341 3.95795C13.8341 3.95795 13.8341 3.95795 13.8341 3.95795C13.8341 3.95795 13.8341 3.95795 13.8341 3.95795C13.8341 3.95795 13.8341 3.95795 13.8341 3.95795C13.8341 3.95795 13.8341 3.95795 13.8341 3.95795C13.8341 3.95795 13.8341 3.95795 13.8341 3.95795C13.8341 3.95795 13.8341 3.95795 13.8341 3.95795C13.8341 3.95795 13.8341 3.95795 13.8341 3.95795C13.8341 3.95795 13.8341 3.95795 13.8341 3.95795C13.8341 3.95795 13.8341 3.95795 13.8341 3.95795C13.8341 3.95795 13.8341 3.95795 13.8341 3.95795C13.8341 3.95795 13.8341 3.95795 13.8341 3.95795C13.8341 3.95795 13.8341 3.95795 13.8341 3.95795C13.8341 3.95795 13.8341 3.95795 13.8341 3.95795C13.8341 3.95795 13.8341 3.95795 13.8341 3.95795C13.8341 3.95795 13.8341 3.95795 13.8341 3.95795C13.8341 3.95795 13.8341 3.95795 13.8341 3.95795C13.8341 3.95795 13.8341 3.95795 13.8341 3.95795C13.8341 3.95795 13.8341 3.95795 13.8341 3.95795C13.8341 3.95795 13.8341 3.95795 13.8341 3.95795C13.8341 3.95795 13.8341 3.95795 13.8341 3.95795C13.8341 3.95795 13.8341 3.95795 13.8341 3.95795C13.8341 3.95795 13.8341 3.95795 13.8341 3.95795C13.8341 3.95795 13.8341 3.95795 13.8341 3.95795C13.8341 3.95795 13.8341 3.95795 13.8341 3.95795C13.8341 3.95795 13.8341 3.95795 13.8341 3.95795C13.8341 3.95795 13.8341 3.95795 13.8341 3.95795C13.8341 3.95795 13.8341 3.95795 13.8341 3.95795C13.8341 3.95795 13.8341 3.95795 13.8341 3.95795C13.8341 3.95795 13.8341 3.95795 13.8341 3.95795C13.8341 3.95795 13.8341 3.95795 13.8341 3.95795C13.8341 3.95795 13.8341 3.95795 13.8341 3.95795C13.8341 3.95795 13.8341 3.95795 13.8341 3.95795C13.8341 3.95795 13.8341 3.95795 13.8341 3.95795C13.8341 3.95795 13.8341 3.95795 13.8341 3.95795C13.8341 3.95795 13.8341 3.95795 13.8341 3.95795C13.8341 3.95795 13.8341 3.95795 13.8341 3.95795C13.8341 3.95795 13.8341 3.95795 13.8341 3.95795C13.8341 3.95795 13.8341 3.95795 13.8341 3.95795C13.8341 3.95795 13.8341 3.95795 13.8341 3.95795C13.8341 3.95795 13.8341 3.95795 13.8341 3.95795C13.8341 3.95795 13.8341 3.95795 13.8341 3.95795C13.8341 3.95795 13.8341 3.95795 13.8341 3.95795C13.8341 3.95795 13.8341 3.95795 13.8341 3.95795C13.8341 3.95795 13.8341 3.95795 13.8341 3.95795C13.8341 3.95795 13.8341 3.95795 13.8341 3.95795C13.8341 3.95795 13.8341 3.95795 13.8341 3.95795C13.8341 3.95795 13.8341 3.95795 13.8341 3.95795C13.8341 3.95795 13.8341 3.95795 13.8341 3.95795C13.8341 3.95795 13.8341 3.95795 13.8341 3.95795C13.8341 3.95795 13.8341 3.95795 13.8341 3.95795C13.8341 3.95795 13.8341 3.95795 13.8341 3.95795C13.8341 3.95795 13.8341 3.95795 13.8341 3.95795C13.8341 3.95795 13.8341 3.95795 13.8341 3.95795C13.8341 3.95795 13.8341 3.95795 13.8341 3.95795C13.8341 3.95795 13.8341 3.95795 13.8341 3.95795C13.8341 3.95795 13.8341 3.95795 13.8341 3.95795C13.8341 3.95795 13.8341 3.95795 13.8341 3.95795C13.8341 3.95795 13.8341 3.95795 13.8341 3.95795C13.8341 3.95795 13.8341 3.95795 13.8341 3.95795C13.8341 3.95795 13.8341 3.95795 13.8341 3.95795C13.8341 3.95795 13.8341 3.95795 13.8341 3.95795C13.8341 3.95795 13.8341 3.95795 13.8341 3.95795C13.8341 3.95795 13.8341 3.95795 13.8341 3.95795C13.8341 3.95795 13.8341 3.95795 13.8341 3.95795C13.8341 3.95795 13.8341 3.95795 13.8341 3.95795C13.8341 3.95795 13.8341 3.95795 13.8341 3.95795C13.8341 3.95795 13.8341 3.95795 13.8341 3.95795C13.8341 3.95795 13.8341 3.95795 13.8341 3.95795C13.8341 3.95795 13.8341 3.95795 13.8341 3.95795C13.8341 3.95795 13.8341 3.95795 13.8341 3.95795C13.8341 3.95795 13.8341 3.95795 13.8341 3.95795C13.8341 3.95795 13.8341 3.95795 13.8341 3.95795C13.8341 3.95795 13.8341 3.95795 13.8341 3.95795C13.8341 3.95795 13.8341 3.95795 13.8341 3.95795C13.8341 3.95795 13.8341 3.95795 13.8341 3.95795C13.8341 3.95795 13.8341 3.95795 13.8341 3.95795C13.8341 3.95795 13.8341 3.95795 13.8341 3.95795C13.8341 3.95795 13.8341 3.95795 13.8341 3.95795C13.8341 3.95795 13.8341 3.95795 13.8341 3.95795C13.8341 3.95795 13.8341 3.95795 13.8341 3.95795C13.8341 3.95795 13.8341 3.95795 13.8341 3.95795C13.8341 3.95795 13.8341 3.95795 13.8341 3.95795C13.8341 3.95795 13.8341 3.95795 13.8341 3.95795C13.8341 3.95795 13.8341 3.95795 13.8341 3.95795C13.8341 3.95795 13.8341 3.95795 13.8341 3.95795C13.8341 3.95795 13.8341 3.95795 13.8341 3.95795C13.8341 3.95795 13.8341 3.95795 13.8341 3.95795C13.8341 3.95795 13.8341 3.95795 13.8341 3.95795C13.8341 3.95795 13.8341 3.95795 13.8341 3.95795C13.8341 3.95795 13.8341 3.95795 13.8341 3.95795C13.8341 3.95795 13.8341 3.95795 13.8341 3.95795C13.8341 3.95795 13.8341 3.95795 13.8341 3.95795C13.8341 3.95795 13.8341 3.95795 13.8341 3.95795C13.8341 3.95795 13.8341 3.95795 13.8341 3.95795C13.8341 3.95795 13.8341 3.95795 13.8341 3.95795C13.8341 3.95795 13.8341 3.95795 13.8341 3.95795C13.8341 3.95795 13.8341 3.95795 13.8341 3.95795C13.8341 3.95795 13.8341 3.95795 13.8341 3.95795C13.8341 3.95795 13.8341 3.95795 13.8341 3.95795C13.8341 3.95795 13.8341 3.95795 13.8341 3.95795C13.8341 3.95795 13.8341 3.95795 13.8341 3.95795C13.8341 3.95795 13.8341 3.95795 13.8341 3.95795C13.8341 3.95795 13.8341 3.95795 13.8341 3.95795C13.8341 3.95795 13.8341 3.95795 13.8341 3.95795C13.8341 3.95795 13.8341 3.95795 13.8341 3.95795C13.8341 3.95795 13.8341 3.95795 13.8341 3.95795C13.8341 3.95795 13.8341 3.95795 13.8341 3.95795C13.8341 3.95795 13.8341 3.95795 13.8341 3.95795C13.8341 3.95795 13.8341 3.95795 13.8341 3.95795C13.8341 3.95795 13.8341 3.95795 13.8341 3.95795C13.8341 3.95795 13.8341 3.95795 13.8341 3.95795C13.8341 3.95795 13.8341 3.95795 13.8341 3.95795C13.8341 3.95795 13.8341 3.95795 13.8341 3.95795C13.8341 3.95795 13.8341 3.95795 13.8341 3.95795C13.8341 3.95795 13.8341 3.95795 13.8341 3.95795C13.8341 3.95795 13.8341 3.95795 13.8341 3.95795C13.8341 3.95795 13.8341 3.95795 13.8341 3.95795C13.8341 3.95795 13.8341 3.95795 13.8341 3.95795C13.8341 3.95795 13.8341 3.95795 13.8341 3.95795C13.8341 3.95795 13.8341 3.95795 13.8341 3.95795C13.8341 3.95795 13.8341 3.95795 13.8341 3.95795C13.8341 3.95795 13.8341 3.95795 13.8341 3.95795C13.8341 3.95795 13.8341 3.95795 13.8341 3.95795C13.8341 3.95795 13.8341 3.95795 13.8341 3.95795C13.8341 3.95795 13.8341 3.95795 13.8341 3.95795C13.8341 3.95795 13.8341 3.95795 13.8341 3.95795C13.8341 3.95795 13.8341 3.95795 13.8341 3.95795C13.8341 3.95795 13.8341 3.95795 13.8341 3.95795C13.8341 3.95795 13.8341 3.95795 13.8341 3.95795C13.8341 3.95795 13.8341 3.95795 13.8341 3.95795C13.8341 3.95795 13.8341 3.95795 13.8341 3.95795C13.8341 3.95795 13.8341 3.95795 13.8341 3.95795C13.8341 3.95795 13.8341 3.95795 13.8341 3.95795C13.8341 3.95795 13.8341 3.95795 13.8341 3.95795C13.8341 3.95795 13.8341 3.95795 13.8341 3.95795C13.8341 3.95795 13.8341 3.95795 13.8341 3.95795C13.8341 3.95795 13.8341 3.95795 13.8341 3.95795C13.8341 3.95795 13.8341 3.95795 13.8341 3.95795C13.8341 3.95795 13.8341 3.95795 13.8341 3.95795C13.8341 3.95795 13.8341 3.95795 13.8341 3.95795C13.8341 3.95795 13.8341 3.95795 13.8341 3.95795C13.8341 3.95795 13.8341 3.95795 13.8341 3.95795C13.8341 3.95795 13.8341 3.95795 13.8341 3.95795C13.8341 3.95795 13.8341 3.95795 13.8341 3.95795C13.8341 3.95795 13.8341 3.95795 13.8341 3.95795C13.8341 3.95795 13.8341 3.95795 13.8341 3.95795C13.8341 3.95795 13.8341 3.95795 13.8341 3.95795C13.8341 3.95795 13.8341 3.95795 13.8341 3.95795C13.8341 3.95795 13.8341 3.95795 13.8341 3.95795C13.8341 3.95795 13.8341 3.95795 13.8341 3.95795C13.8341 3.95795 13.8341 3.95795 13.8341 3.95795C13.8341 3.95795 13.8341 3.95795 13.8341 3.95795C13.8341 3.95795 13.8341 3.95795 13.8341 3.95795C13.8341 3.95795 13.8341 3.95795 13.8341 3.95795C13.8341 3.95795 13.8341 3.95795 13.8341 3.95795C13.8341 3.95795 13.8341 3.95795 13.8341 3.95795C13.8341 3.95795 13.8341 3.95795 13.8341 3.95795C13.8341 3.95795 13.8341 3.95795 13.8341 3.95795C13.8341 3.95795 13.8341 3.95795 13.8341 3.95795C13.8341 3.95795 13.8341 3.95795 13.8341 3.95795C13.8341 3.95795 13.8341 3.95795 13.8341 3.95795C13.8341 3.95795 13.8341 3.95795 13.8341 3.95795C13.8341 3.95795 13.8341 3.95795 13.8341 3.95795C13.8341 3.95795 13.8341 3.95795 13.8341 3.95795C13.8341 3.95795 13.8341 3.95795 13.8341 3.95795C13.8341 3.95795 13.8341 3.95795 13.8341 3.95795C13.8341 3.95795 13.8341 3.95795 13.8341 3.95795C13.8341 3.95795 13.8341 3.95795 13.8341 3.95795C13.8341 3.95795 13.8341 3.95795 13.8341 3.95795C13.8341 3.95795 13.8341 3.95795 13.8341 3.95795C13.8341 3.95795 13.8341 3.95795 13.8341 3.95795C13.8341 3.95795 13.8341 3.95795 13.8341 3.95795C13.8341 3.95795 13.8341 3.95795 13.8341 3.95795C13.8341 3.95795 13.8341 3.95795 13.8341 3.95795C13.8341 3.95795 13.8341 3.95795 13.8341 3.95795C13.8341 3.95795 13.8341 3.95795 13.8341 3.95795C13.8341 3.95795 13.8341 3.95795 13.8341 3.95795C13.8341 3.95795 13.8341 3.95795 13.8341 3.95795C13.8341 3.95795 13.8341 3.95795 13.8341 3.95795C13.8341 3.95795 13.8341 3.95795 13.8341 3.95795C13.8341 3.95795 13.8341 3.95795 13.8341 3.95795C13.8341 3.95795 13.8341 3.95795 13.8341 3.95795C13.8341 3.95795 13.8341 3.95795 13.8341 3.95795C13.8341 3.95795 13.8341 3.95795 13.8341 3.95795C13.8341 3.95795 13.8341 3.95795 13.8341 3.95795C13.8341 3.95795 13.8341 3.95795 13.8341 3.95795C13.8341 3.95795 13.8341 3.95795 13.8341 3.95795C13.8341 3.95795 13.8341 3.95795 13.8341 3.95795C13.8341 3.95795 13.8341 3.95795 13.8341 3.95795C13.8341 3.95795 13.8341 3.95795 13.8341 3.95795C13.8341 3.95795 13.8341 3.95795 13.8341 3.95795C13.8341 3.95795 13.8341 3.95795 13.8341 3.95795C13.8341 3.95795 13.8341 3.95795 13.8341 3.95795C13.8341 3.95795 13.8341 3.95795 13.8341 3.95795C13.8341 3.95795 13.8341 3.95795 13.8341 3.95795C13.8341 3.95795 13.8341 3.95795 13.8341 3.95795C13.8341 3.95795 13.8341 3.95795 13.8341 3.95795C13.8341 3.95795 13.8341 3.95795 13.8341 3.95795C13.8341 3.95795 13.8341 3.95795 13.8341 3.95795C13.8341 3.95795 13.8341 3.95795 13.8341 3.95795C13.8341 3.95795 13.8341 3.95795 13.8341 3.95795C13.8341 3.95795 13.8341 3.95795 13.8341 3.95795C13.8341 3.95795 13.8341 3.95795 13.8341 3.95795C13.8341 3.95795 13.8341 3.95795 13.8341 3.95795C13.8341 3.95795 13.8341 3.95795 13.8341 3.95795C13.8341 3.95795 13.8341 3.95795 13.8341 3.95795C13.8341 3.95795 13.8341 3.95795 13.8341 3.95795C13.8341 3.95795 13.8341 3.95795 13.8341 3.95795C13.8341 3.95795 13.8341 3.95795 13.8341 3.95795C13.8341 3.95795 13.8341 3.95795 13.8341 3.95795C13.8341 3.95795 13.8341 3.95795 13.8341 3.95795C13.8341 3.95795 13.8341 3.95795 13.8341 3.95795C13.8341 3.95795 13.8341 3.95795 13.8341 3.95795C13.8341 3.95795 13.8341 3.95795 13.8341 3.95795C13.8341 3.95795 13.8341 3.95795 13.8341 3.95795C13.8341 3.95795 13.8341 3.95795 13.8341 3.95795C13.8341 3.95795 13.8341 3.95795 13.8341 3.95795C13.8341 3.95795 13.8341 3.95795 13.8341 3.95795C13.8341 3.95795 13.8341 3.95795 13.8341 3.95795C13.8341 3.95795 13.8341 3.95795 13.8341 3.95795C13.8341 3.95795 13.8341 3.95795 13.8341 3.95795C13.8341 3.95795 13.8341 3.95795 13.8341 3.95795C13.8341 3.95795 13.8341 3.95795 13.8341 3.95795C13.8341 3.95795 13.8341 3.95795 13.8341 3.95795C13.8341 3.95795 13.8341 3.95795 13.8341 3.95795C13.8341 3.95795 13.8341 3.95795 13.8341 3.95795C13.8341 3.95795 13.8341 3.95795 13.8341 3.95795C13.8341 3.95795 13.8341 3.95795 13.8341 3.95795C13.8341 3.95795 13.8341 3.95795 13.8341 3.95795C13.8341 3.95795 13.8341 3.95795 13.8341 3.95795C13.8341 3.95795 13.8341 3.95795 13.8341 3.95795C13.8341 3.95795 13.8341 3.95795 13.8341 3.95795C13.8341 3.95795 13.8341 3.95795 13.8341 3.95795C13.8341 3.95795 13.8341 3.95795 13.8341 3.95795C13.8341 3.95795 13.8341 3.95795 13.8341 3.95795C13.8341 3.95795 13.8341 3.95795 13.8341 3.95795C13.8341 3.95795 13.8341 3.95795 13.8341 3.95795C13.8341 3.95795 13.8341 3.95795 13.8341 3.95795C13.8341 3.95795 13.8341 3.95795 13.8341 3.95795C13.8341 3.95795 13.8341 3.95795 13.8341 3.95795C13.8341 3.95795 13.8341 3.95795 13.8341 3.95795C13.8341 3.95795 13.8341 3.95795 13.8341 3.95795C13.8341 3.95795 13.8341 3.95795 13.8341 3.95795C13.8341 3.95795 13.8341 3.95795 13.8341 3.95795C13.8341 3.95795 13.8341 3.95795 13.8341 3.95795C13.8341 3.95795 13.8341 3.95795 13.8341 3.95795C13.8341 3.95795 13.8341 3.95795 13.8341 3.95795C13.8341 3.95795 13.8341 3.95795 13.8341 3.95795C13.8341 3.95795 13.8341 3.95795 13.8341 3.95795C13.8341 3.95795 13.8341 3.95795 13.8341 3.95795C13.8341 3.95795 13.8341 3.95795 13.8341 3.95795C13.8341 3.95795 13.8341 3.95795 13.8341 3.95795C13.8341 3.95795 13.8341 3.95795 13.8341 3.95795C13.8341 3.95795 13.8341 3.95795 13.8341 3.95795C13.8341 3.95795 13.8341 3.95795 13.8341 3.95795C13.8341 3.95795 13.8341 3.95795 13.8341 3.95795C13.8341 3.95795 13.8341 3.95795 13.8341 3.95795C13.8341 3.95795 13.8341 3.95795 13.8341 3.95795C13.8341 3.95795 13.8341 3.95795 13.8341 3.95795C13.8341 3.95795 13.8341 3.95795 13.8341 3.95795C13.8341 3.95795 13.8341 3.95795 13.8341 3.95795C13.8341 3.95795 13.8341 3.95795 13.8341 3.95795C13.8341 3.95795 13.8341 3.95795 13.8341 3.95795C13.8341 3.95795 13.8341 3.95795 13.8341 3.95795C13.8341 3.95795 13.8341 3.95795 13.8341 3.95795C13.8341 3.95795 13.8341 3.95795 13.8341 3.95795C13.8341 3.95795 13.8341 3.95795 13.8341 3.95795C13.8341 3.95795 13.8341 3.95795 13.8341 3.95795L12.8975 2.19081C12.8975 2.19081 12.8975 2.19081 12.8975 2.19081C12.8975 2.19081 12.8975 2.19081 12.8975 2.19081C12.8975 2.19081 12.8975 2.19081 12.8975 2.19081C12.8975 2.19081 12.8975 2.19081 12.8975 2.19081C12.8975 2.19081 12.8975 2.19081 12.8975 2.19081C12.8975 2.19081 12.8975 2.19081 12.8975 2.19081C12.8975 2.19081 12.8975 2.19081 12.8975 2.19081C12.8975 2.19081 12.8975 2.19081 12.8975 2.19081C12.8975 2.19081 12.8975 2.19081 12.8975 2.19081C12.8975 2.19081 12.8975 2.19081 12.8975 2.19081C12.8975 2.19081 12.8975 2.19081 12.8975 2.19081C12.8975 2.19081 12.8975 2.19081 12.8975 2.19081C12.8975 2.19081 12.8975 2.19081 12.8975 2.19081C12.8975 2.19081 12.8975 2.19081 12.8975 2.19081C12.8975 2.19081 12.8975 2.19081 12.8975 2.19081C12.8975 2.19081 12.8975 2.19081 12.8975 2.19081C12.8975 2.19081 12.8975 2.19081 12.8975 2.19081C12.8975 2.19081 12.8975 2.19081 12.8975 2.19081C12.8975 2.19081 12.8975 2.19081 12.8975 2.19081C12.8975 2.19081 12.8975 2.19081 12.8975 2.19081C12.8975 2.19081 12.8975 2.19081 12.8975 2.19081C12.8975 2.19081 12.8975 2.19081 12.8975 2.19081C12.8975 2.19081 12.8975 2.19081 12.8975 2.19081C12.8975 2.19081 12.8975 2.19081 12.8975 2.19081C12.8975 2.19081 12.8975 2.19081 12.8975 2.19081C12.8975 2.19081 12.8975 2.19081 12.8975 2.19081C12.8975 2.19081 12.8975 2.19081 12.8975 2.19081C12.8975 2.19081 12.8975 2.19081 12.8975 2.19081C12.8975 2.19081 12.8975 2.19081 12.8975 2.19081C12.8975 2.19081 12.8975 2.19081 12.8975 2.19081C12.8975 2.19081 12.8975 2.19081 12.8975 2.19081C12.8975 2.19081 12.8975 2.19081 12.8975 2.19081C12.8975 2.19081 12.8975 2.19081 12.8975 2.19081C12.8975 2.19081 12.8975 2.19081 12.8975 2.19081C12.8975 2.19081 12.8975 2.19081 12.8975 2.19081C12.8975 2.19081 12.8975 2.19081 12.8975 2.19081C12.8975 2.19081 12.8975 2.19081 12.8975 2.19081C12.8975 2.19081 12.8975 2.19081 12.8975 2.19081C12.8975 2.19081 12.8975 2.19081 12.8975 2.19081C12.8975 2.19081 12.8975 2.19081 12.8975 2.19081C12.8975 2.19081 12.8975 2.19081 12.8975 2.19081C12.8975 2.19081 12.8975 2.19081 12.8975 2.19081C12.8975 2.19081 12.8975 2.19081 12.8975 2.19081C12.8975 2.19081 12.8975 2.19081 12.8975 2.19081C12.8975 2.19081 12.8975 2.19081 12.8975 2.19081C12.8975 2.19081 12.8975 2.19081 12.8975 2.19081C12.8975 2.19081 12.8975 2.19081 12.8975 2.19081C12.8975 2.19081 12.8975 2.19081 12.8975 2.19081C12.8975 2.19081 12.8975 2.19081 12.8975 2.19081C12.8975 2.19081 12.8975 2.19081 12.8975 2.19081C12.8975 2.19081 12.8975 2.19081 12.8975 2.19081C12.8975 2.19081 12.8975 2.19081 12.8975 2.19081C12.8975 2.19081 12.8975 2.19081 12.8975 2.19081C12.8975 2.19081 12.8975 2.19081 12.8975 2.19081C12.8975 2.19081 12.8975 2.19081 12.8975 2.19081C12.8975 2.19081 12.8975 2.19081 12.8975 2.19081C12.8975 2.19081 12.8975 2.19081 12.8975 2.19081C12.8975 2.19081 12.8975 2.19081 12.8975 2.19081C12.8975 2.19081 12.8975 2.19081 12.8975 2.19081C12.8975 2.19081 12.8975 2.19081 12.8975 2.19081C12.8975 2.19081 12.8975 2.19081 12.8975 2.19081C12.8975 2.19081 12.8975 2.19081 12.8975 2.19081C12.8975 2.19081 12.8975 2.19081 12.8975 2.19081C12.8975 2.19081 12.8975 2.19081 12.8975 2.19081C12.8975 2.19081 12.8975 2.19081 12.8975 2.19081C12.8975 2.19081 12.8975 2.19081 12.8975 2.19081C12.8975 2.19081 12.8975 2.19081 12.8975 2.19081C12.8975 2.19081 12.8975 2.19081 12.8975 2.19081C12.8975 2.19081 12.8975 2.19081 12.8975 2.19081C12.8975 2.19081 12.8975 2.19081 12.8975 2.19081C12.8975 2.19081 12.8975 2.19081 12.8975 2.19081C12.8975 2.19081 12.8975 2.19081 12.8975 2.19081C12.8975 2.19081 12.8975 2.19081 12.8975 2.19081C12.8975 2.19081 12.8975 2.19081 12.8975 2.19081C12.8975 2.19081 12.8975 2.19081 12.8975 2.19081C12.8975 2.19081 12.8975 2.19081 12.8975 2.19081C12.8975 2.19081 12.8975 2.19081 12.8975 2.19081C12.8975 2.19081 12.8975 2.19081 12.8975 2.19081C12.8975 2.19081 12.8975 2.19081 12.8975 2.19081C12.8975 2.19081 12.8975 2.19081 12.8975 2.19081C12.8975 2.19081 12.8975 2.19081 12.8975 2.19081C12.8975 2.19081 12.8975 2.19081 12.8975 2.19081C12.8975 2.19081 12.8975 2.19081 12.8975 2.19081C12.8975 2.19081 12.8975 2.19081 12.8975 2.19081C12.8975 2.19081 12.8975 2.19081 12.8975 2.19081C12.8975 2.19081 12.8975 2.19081 12.8975 2.19081C12.8975 2.19081 12.8975 2.19081 12.8975 2.19081C12.8975 2.19081 12.8975 2.19081 12.8975 2.19081C12.8975 2.19081 12.8975 2.19081 12.8975 2.19081C12.8975 2.19081 12.8975 2.19081 12.8975 2.19081C12.8975 2.19081 12.8975 2.19081 12.8975 2.19081C12.8975 2.19081 12.8975 2.19081 12.8975 2.19081C12.8975 2.19081 12.8975 2.19081 12.8975 2.19081C12.8975 2.19081 12.8975 2.19081 12.8975 2.19081C12.8975 2.19081 12.8975 2.19081 12.8975 2.19081C12.8975 2.19081 12.8975 2.19081 12.8975 2.19081C12.8975 2.19081 12.8975 2.19081 12.8975 2.19081C12.8975 2.19081 12.8975 2.19081 12.8975 2.19081C12.8975 2.19081 12.8975 2.19081 12.8975 2.19081C12.8975 2.19081 12.8975 2.19081 12.8975 2.19081C12.8975 2.19081 12.8975 2.19081 12.8975 2.19081C12.8975 2.19081 12.8975 2.19081 12.8975 2.19081C12.8975 2.19081 12.8975 2.19081 12.8975 2.19081C12.8975 2.19081 12.8975 2.19081 12.8975 2.19081C12.8975 2.19081 12.8975 2.19081 12.8975 2.19081C12.8975 2.19081 12.8975 2.19081 12.8975 2.19081C12.8975 2.19081 12.8975 2.19081 12.8975 2.19081C12.8975 2.19081 12.8975 2.19081 12.8975 2.19081C12.8975 2.19081 12.8975 2.19081 12.8975 2.19081C12.8975 2.19081 12.8975 2.19081 12.8975 2.19081C12.8975 2.19081 12.8975 2.19081 12.8975 2.19081C12.8975 2.19081 12.8975 2.19081 12.8975 2.19081C12.8975 2.19081 12.8975 2.19081 12.8975 2.19081C12.8975 2.19081 12.8975 2.19081 12.8975 2.19081C12.8975 2.19081 12.8975 2.19081 12.8975 2.19081C12.8975 2.19081 12.8975 2.19081 12.8975 2.19081C12.8975 2.19081 12.8975 2.19081 12.8975 2.19081C12.8975 2.19081 12.8975 2.19081 12.8975 2.19081C12.8975 2.19081 12.8975 2.19081 12.8975 2.19081C12.8975 2.19081 12.8975 2.19081 12.8975 2.19081C12.8975 2.19081 12.8975 2.19081 12.8975 2.19081C12.8975 2.19081 12.8975 2.19081 12.8975 2.19081C12.8975 2.19081 12.8975 2.19081 12.8975 2.19081C12.8975 2.19081 12.8975 2.19081 12.8975 2.19081C12.8975 2.19081 12.8975 2.19081 12.8975 2.19081C12.8975 2.19081 12.8975 2.19081 12.8975 2.19081C12.8975 2.19081 12.8975 2.19081 12.8975 2.19081C12.8975 2.19081 12.8975 2.19081 12.8975 2.19081C12.8975 2.19081 12.8975 2.19081 12.8975 2.19081C12.8975 2.19081 12.8975 2.19081 12.8975 2.19081C12.8975 2.19081 12.8975 2.19081 12.8975 2.19081C12.8975 2.19081 12.8975 2.19081 12.8975 2.19081C12.8975 2.19081 12.8975 2.19081 12.8975 2.19081C12.8975 2.19081 12.8975 2.19081 12.8975 2.19081C12.8975 2.19081 12.8975 2.19081 12.8975 2.19081C12.8975 2.19081 12.8975 2.19081 12.8975 2.19081C12.8975 2.19081 12.8975 2.19081 12.8975 2.19081C12.8975 2.19081 12.8975 2.19081 12.8975 2.19081C12.8975 2.19081 12.8975 2.19081 12.8975 2.19081C12.8975 2.19081 12.8975 2.19081 12.8975 2.19081C12.8975 2.19081 12.8975 2.19081 12.8975 2.19081C12.8975 2.19081 12.8975 2.19081 12.8975 2.19081C12.8975 2.19081 12.8975 2.19081 12.8975 2.19081C12.8975 2.19081 12.8975 2.19081 12.8975 2.19081C12.8975 2.19081 12.8975 2.19081 12.8975 2.19081C12.8975 2.19081 12.8975 2.19081 12.8975 2.19081C12.8975 2.19081 12.8975 2.19081 12.8975 2.19081C12.8975 2.19081 12.8975 2.19081 12.8975 2.19081C12.8975 2.19081 12.8975 2.19081 12.8975 2.19081C12.8975 2.19081 12.8975 2.19081 12.8975 2.19081C12.8975 2.19081 12.8975 2.19081 12.8975 2.19081C12.8975 2.19081 12.8975 2.19081 12.8975 2.19081C12.8975 2.19081 12.8975 2.19081 12.8975 2.19081C12.8975 2.19081 12.8975 2.19081 12.8975 2.19081C12.8975 2.19081 12.8975 2.19081 12.8975 2.19081C12.8975 2.19081 12.8975 2.19081 12.8975 2.19081C12.8975 2.19081 12.8975 2.19081 12.8975 2.19081C12.8975 2.19081 12.8975 2.19081 12.8975 2.19081C12.8975 2.19081 12.8975 2.19081 12.8975 2.19081C12.8975 2.19081 12.8975 2.19081 12.8975 2.19081C12.8975 2.19081 12.8975 2.19081 12.8975 2.19081C12.8975 2.19081 12.8975 2.19081 12.8975 2.19081C12.8975 2.19081 12.8975 2.19081 12.8975 2.19081C12.8975 2.19081 12.8975 2.19081 12.8975 2.19081C12.8975 2.19081 12.8975 2.19081 12.8975 2.19081C12.8975 2.19081 12.8975 2.19081 12.8975 2.19081C12.8975 2.19081 12.8975 2.19081 12.8975 2.19081C12.8975 2.19081 12.8975 2.19081 12.8975 2.19081C12.8975 2.19081 12.8975 2.19081 12.8975 2.19081C12.8975 2.19081 12.8975 2.19081 12.8975 2.19081C12.8975 2.19081 12.8975 2.19081 12.8975 2.19081C12.8975 2.19081 12.8975 2.19081 12.8975 2.19081C12.8975 2.19081 12.8975 2.19081 12.8975 2.19081C12.8975 2.19081 12.8975 2.19081 12.8975 2.19081C12.8975 2.19081 12.8975 2.19081 12.8975 2.19081C12.8975 2.19081 12.8975 2.19081 12.8975 2.19081C12.8975 2.19081 12.8975 2.19081 12.8975 2.19081C12.8975 2.19081 12.8975 2.19081 12.8975 2.19081C12.8975 2.19081 12.8975 2.19081 12.8975 2.19081C12.8975 2.19081 12.8975 2.19081 12.8975 2.19081C12.8975 2.19081 12.8975 2.19081 12.8975 2.19081C12.8975 2.19081 12.8975 2.19081 12.8975 2.19081C12.8975 2.19081 12.8975 2.19081 12.8975 2.19081C12.8975 2.19081 12.8975 2.19081 12.8975 2.19081C12.8975 2.19081 12.8975 2.19081 12.8975 2.19081C12.8975 2.19081 12.8975 2.19081 12.8975 2.19081C12.8975 2.19081 12.8975 2.19081 12.8975 2.19081C12.8975 2.19081 12.8975 2.19081 12.8975 2.19081C12.8975 2.19081 12.8975 2.19081 12.8975 2.19081C12.8975 2.19081 12.8975 2.19081 12.8975 2.19081C12.8975 2.19081 12.8975 2.19081 12.8975 2.19081C12.8975 2.19081 12.8975 2.19081 12.8975 2.19081C12.8975 2.19081 12.8975 2.19081 12.8975 2.19081C12.8975 2.19081 12.8975 2.19081 12.8975 2.19081C12.8975 2.19081 12.8975 2.19081 12.8975 2.19081C12.8975 2.19081 12.8975 2.19081 12.8975 2.19081C12.8975 2.19081 12.8975 2.19081 12.8975 2.19081C12.8975 2.19081 12.8975 2.19081 12.8975 2.19081C12.8975 2.19081 12.8975 2.19081 12.8975 2.19081C12.8975 2.19081 12.8975 2.19081 12.8975 2.19081C12.8975 2.19081 12.8975 2.19081 12.8975 2.19081C12.8975 2.19081 12.8975 2.19081 12.8975 2.19081C12.8975 2.19081 12.8975 2.19081 12.8975 2.19081C12.8975 2.19081 12.8975 2.19081 12.8975 2.19081C12.8975 2.19081 12.8975 2.19081 12.8975 2.19081C12.8975 2.19081 12.8975 2.19081 12.8975 2.19081C12.8975 2.19081 12.8975 2.19081 12.8975 2.19081C12.8975 2.19081 12.8975 2.19081 12.8975 2.19081C12.8975 2.19081 12.8975 2.19081 12.8975 2.19081C12.8975 2.19081 12.8975 2.19081 12.8975 2.19081C12.8975 2.19081 12.8975 2.19081 12.8975 2.19081C12.8975 2.19081 12.8975 2.19081 12.8975 2.19081C12.8975 2.19081 12.8975 2.19081 12.8975 2.19081C12.8975 2.19081 12.8975 2.19081 12.8975 2.19081C12.8975 2.19081 12.8975 2.19081 12.8975 2.19081C12.8975 2.19081 12.8975 2.19081 12.8975 2.19081C12.8975 2.19081 12.8975 2.19081 12.8975 2.19081C12.8975 2.19081 12.8975 2.19081 12.8975 2.19081C12.8975 2.19081 12.8975 2.19081 12.8975 2.19081C12.8975 2.19081 12.8975 2.19081 12.8975 2.19081C12.8975 2.19081 12.8975 2.19081 12.8975 2.19081C12.8975 2.19081 12.8975 2.19081 12.8975 2.19081C12.8975 2.19081 12.8975 2.19081 12.8975 2.19081C12.8975 2.19081 12.8975 2.19081 12.8975 2.19081C12.8975 2.19081 12.8975 2.19081 12.8975 2.19081C12.8975 2.19081 12.8975 2.19081 12.8975 2.19081C12.8975 2.19081 12.8975 2.19081 12.8975 2.19081C12.8975 2.19081 12.8975 2.19081 12.8975 2.19081C12.8975 2.19081 12.8975 2.19081 12.8975 2.19081C12.8975 2.19081 12.8975 2.19081 12.8975 2.19081C12.8975 2.19081 12.8975 2.19081 12.8975 2.19081C12.8975 2.19081 12.8975 2.19081 12.8975 2.19081C12.8975 2.19081 12.8975 2.19081 12.8975 2.19081C12.8975 2.19081 12.8975 2.19081 12.8975 2.19081C12.8975 2.19081 12.8975 2.19081 12.8975 2.19081C12.8975 2.19081 12.8975 2.19081 12.8975 2.19081C12.8975 2.19081 12.8975 2.19081 12.8975 2.19081C12.8975 2.19081 12.8975 2.19081 12.8975 2.19081C12.8975 2.19081 12.8975 2.19081 12.8975 2.19081C12.8975 2.19081 12.8975 2.19081 12.8975 2.19081C12.8975 2.19081 12.8975 2.19081 12.8975 2.19081C12.8975 2.19081 12.8975 2.19081 12.8975 2.19081C12.8975 2.19081 12.8975 2.19081 12.8975 2.19081C12.8975 2.19081 12.8975 2.19081 12.8975 2.19081C12.8975 2.19081 12.8975 2.19081 12.8975 2.19081C12.8975 2.19081 12.8975 2.19081 12.8975 2.19081C12.8975 2.19081 12.8975 2.19081 12.8975 2.19081C12.8975 2.19081 12.8975 2.19081 12.8975 2.19081C12.8975 2.19081 12.8975 2.19081 12.8975 2.19081C12.8975 2.19081 12.8975 2.19081 12.8975 2.19081C12.8975 2.19081 12.8975 2.19081 12.8975 2.19081C12.8975 2.19081 12.8975 2.19081 12.8975 2.19081C12.8975 2.19081 12.8975 2.19081 12.8975 2.19081C12.8975 2.19081 12.8975 2.19081 12.8975 2.19081C12.8975 2.19081 12.8975 2.19081 12.8975 2.19081C12.8975 2.19081 12.8975 2.19081 12.8975 2.19081C12.8975 2.19081 12.8975 2.19081 12.8975 2.19081C12.8975 2.19081 12.8975 2.19081 12.8975 2.19081C12.8975 2.19081 12.8975 2.19081 12.8975 2.19081C12.8975 2.19081 12.8975 2.19081 12.8975 2.19081C12.8975 2.19081 12.8975 2.19081 12.8975 2.19081C12.8975 2.19081 12.8975 2.19081 12.8975 2.19081C12.8975 2.19081 12.8975 2.19081 12.8975 2.19081C12.8975 2.19081 12.8975 2.19081 12.8975 2.19081C12.8975 2.19081 12.8975 2.19081 12.8975 2.19081C12.8975 2.19081 12.8975 2.19081 12.8975 2.19081C12.8975 2.19081 12.8975 2.19081 12.8975 2.19081C12.8975 2.19081 12.8975 2.19081 12.8975 2.19081C12.8975 2.19081 12.8975 2.19081 12.8975 2.19081C12.8975 2.19081 12.8975 2.19081 12.8975 2.19081C12.8975 2.19081 12.8975 2.19081 12.8975 2.19081C12.8975 2.19081 12.8975 2.19081 12.8975 2.19081C12.8975 2.19081 12.8975 2.19081 12.8975 2.19081C12.8975 2.19081 12.8975 2.19081 12.8975 2.19081C12.8975 2.19081 12.8975 2.19081 12.8975 2.19081C12.8975 2.19081 12.8975 2.19081 12.8975 2.19081C12.8975 2.19081 12.8975 2.19081 12.8975 2.19081C12.8975 2.19081 12.8975 2.19081 12.8975 2.19081C12.8975 2.19081 12.8975 2.19081 12.8975 2.19081C12.8975 2.19081 12.8975 2.19081 12.8975 2.19081C12.8975 2.19081 12.8975 2.19081 12.8975 2.19081C12.8975 2.19081 12.8975 2.19081 12.8975 2.19081C12.8975 2.19081 12.8975 2.19081 12.8975 2.19081C12.8975 2.19081 12.8975 2.19081 12.8975 2.19081C12.8975 2.19081 12.8975 2.19081 12.8975 2.19081C12.8975 2.19081 12.8975 2.19081 12.8975 2.19081C12.8975 2.19081 12.8975 2.19081 12.8975 2.19081C12.8975 2.19081 12.8975 2.19081 12.8975 2.19081C12.8975 2.19081 12.8975 2.19081 12.8975 2.19081C12.8975 2.19081 12.8975 2.19081 12.8975 2.19081C12.8975 2.19081 12.8975 2.19081 12.8975 2.19081C12.8975 2.19081 12.8975 2.19081 12.8975 2.19081C12.8975 2.19081 12.8975 2.19081 12.8975 2.19081C12.8975 2.19081 12.8975 2.19081 12.8975 2.19081C12.8975 2.19081 12.8975 2.19081 12.8975 2.19081C12.8975 2.19081 12.8975 2.19081 12.8975 2.19081C12.8975 2.19081 12.8975 2.19081 12.8975 2.19081C12.8975 2.19081 12.8975 2.19081 12.8975 2.19081C12.8975 2.19081 12.8975 2.19081 12.8975 2.19081C12.8975 2.19081 12.8975 2.19081 12.8975 2.19081C12.8975 2.19081 12.8975 2.19081 12.8975 2.19081C12.8975 2.19081 12.8975 2.19081 12.8975 2.19081C12.8975 2.19081 12.8975 2.19081 12.8975 2.19081C12.8975 2.19081 12.8975 2.19081 12.8975 2.19081C12.8975 2.19081 12.8975 2.19081 12.8975 2.19081C12.8975 2.19081 12.8975 2.19081 12.8975 2.19081C12.8975 2.19081 12.8975 2.19081 12.8975 2.19081C12.8975 2.19081 12.8975 2.19081 12.8975 2.19081C12.8975 2.19081 12.8975 2.19081 12.8975 2.19081C12.8975 2.19081 12.8975 2.19081 12.8975 2.19081C12.8975 2.19081 12.8975 2.19081 12.8975 2.19081C12.8975 2.19081 12.8975 2.19081 12.8975 2.19081C12.8975 2.19081 12.8975 2.19081 12.8975 2.19081C12.8975 2.19081 12.8975 2.19081 12.8975 2.19081C12.8975 2.19081 12.8975 2.19081 12.8975 2.19081C12.8975 2.19081 12.8975 2.19081 12.8975 2.19081C12.8975 2.19081 12.8975 2.19081 12.8975 2.19081C12.8975 2.19081 12.8975 2.19081 12.8975 2.19081C12.8975 2.19081 12.8975 2.19081 12.8975 2.19081C12.8975 2.19081 12.8975 2.19081 12.8975 2.19081C12.8975 2.19081 12.8975 2.19081 12.8975 2.19081C12.8975 2.19081 12.8975 2.19081 12.8975 2.19081C12.8975 2.19081 12.8975 2.19081 12.8975 2.19081C12.8975 2.19081 12.8975 2.19081 12.8975 2.19081C12.8975 2.19081 12.8975 2.19081 12.8975 2.19081C12.8975 2.19081 12.8975 2.19081 12.8975 2.19081C12.8975 2.19081 12.8975 2.19081 12.8975 2.19081C12.8975 2.19081 12.8975 2.19081 12.8975 2.19081C12.8975 2.19081 12.8975 2.19081 12.8975 2.19081C12.8975 2.19081 12.8975 2.19081 12.8975 2.19081C12.8975 2.19081 12.8975 2.19081 12.8975 2.19081C12.8975 2.19081 12.8975 2.19081 12.8975 2.19081C12.8975 2.19081 12.8975 2.19081 12.8975 2.19081C12.8975 2.19081 12.8975 2.19081 12.8975 2.19081C12.8975 2.19081 12.8975 2.19081 12.8975 2.19081C12.8975 2.19081 12.8975 2.19081 12.8975 2.19081C12.8975 2.19081 12.8975 2.19081 12.8975 2.19081C12.8975 2.19081 12.8975 2.19081 12.8975 2.19081C12.8975 2.19081 12.8975 2.19081 12.8975 2.19081C12.8975 2.19081 12.8975 2.19081 12.8975 2.19081C12.8975 2.19081 12.8975 2.19081 12.8975 2.19081C12.8975 2.19081 12.8975 2.19081 12.8975 2.19081C12.8975 2.19081 12.8975 2.19081 12.8975 2.19081C12.8975 2.19081 12.8975 2.19081 12.8975 2.19081C12.8975 2.19081 12.8975 2.19081 12.8975 2.19081C12.8975 2.19081 12.8975 2.19081 12.8975 2.19081C12.8975 2.19081 12.8975 2.19081 12.8975 2.19081C12.8975 2.19081 12.8975 2.19081 12.8975 2.19081C12.8975 2.19081 12.8975 2.19081 12.8975 2.19081C12.8975 2.19081 12.8975 2.19081 12.8975 2.19081C12.8975 2.19081 12.8975 2.19081 12.8975 2.19081C12.8975 2.19081 12.8975 2.19081 12.8975 2.19081C12.8975 2.19081 12.8975 2.19081 12.8975 2.19081C12.8975 2.19081 12.8975 2.19081 12.8975 2.19081C12.8975 2.19081 12.8975 2.19081 12.8975 2.19081C12.8975 2.19081 12.8975 2.19081 12.8975 2.19081C12.8975 2.19081 12.8975 2.19081 12.8975 2.19081C12.8975 2.19081 12.8975 2.19081 12.8975 2.19081C12.8975 2.19081 12.8975 2.19081 12.8975 2.19081C12.8975 2.19081 12.8975 2.19081 12.8975 2.19081C12.8975 2.19081 12.8975 2.19081 12.8975 2.19081C12.8975 2.19081 12.8975 2.19081 12.8975 2.19081C12.8975 2.19081 12.8975 2.19081 12.8975 2.19081C12.8975 2.19081 12.8975 2.19081 12.8975 2.19081C12.8975 2.19081 12.8975 2.19081 12.8975 2.19081C12.8975 2.19081 12.8975 2.19081 12.8975 2.19081C12.8975 2.19081 12.8975 2.19081 12.8975 2.19081C12.8975 2.19081 12.8975 2.19081 12.8975 2.19081C12.8975 2.19081 12.8975 2.19081 12.8975 2.19081C12.8975 2.19081 12.8975 2.19081 12.8975 2.19081C12.8975 2.19081 12.8975 2.19081 12.8975 2.19081C12.8975 2.19081 12.8975 2.19081 12.8975 2.19081C12.8975 2.19081 12.8975 2.19081 12.8975 2.19081C12.8975 2.19081 12.8975 2.19081 12.8975 2.19081C12.8975 2.19081 12.8975 2.19081 12.8975 2.19081C12.8975 2.19081 12.8975 2.19081 12.8975 2.19081C12.8975 2.19081 12.8975 2.19081 12.8975 2.19081C12.8975 2.19081 12.8975 2.19081 12.8975 2.19081C12.8975 2.19081 12.8975 2.19081 12.8975 2.19081C12.8975 2.19081 12.8975 2.19081 12.8975 2.19081C12.8975 2.19081 12.8975 2.19081 12.8975 2.19081C12.8975 2.19081 12.8975 2.19081 12.8975 2.19081C12.8975 2.19081 12.8975 2.19081 12.8975 2.19081C12.8975 2.19081 12.8975 2.19081 12.8975 2.19081C12.8975 2.19081 12.8975 2.19081 12.8975 2.19081C12.8975 2.19081 12.8975 2.19081 12.8975 2.19081C12.8975 2.19081 12.8975 2.19081 12.8975 2.19081C12.8975 2.19081 12.8975 2.19081 12.8975 2.19081C12.8975 2.19081 12.8975 2.19081 12.8975 2.19081C12.8975 2.19081 12.8975 2.19081 12.8975 2.19081C12.8975 2.19081 12.8975 2.19081 12.8975 2.19081C12.8975 2.19081 12.8975 2.19081 12.8975 2.19081C12.8975 2.19081 12.8975 2.19081 12.8975 2.19081C12.8975 2.19081 12.8975 2.19081 12.8975 2.19081C12.8975 2.19081 12.8975 2.19081 12.8975 2.19081C12.8975 2.19081 12.8975 2.19081 12.8975 2.19081C12.8975 2.19081 12.8975 2.19081 12.8975 2.19081C12.8975 2.19081 12.8975 2.19081 12.8975 2.19081C12.8975 2.19081 12.8975 2.19081 12.8975 2.19081C12.8975 2.19081 12.8975 2.19081 12.8975 2.19081C12.8975 2.19081 12.8975 2.19081 12.8975 2.19081C12.8975 2.19081 12.8975 2.19081 12.8975 2.19081C12.8975 2.19081 12.8975 2.19081 12.8975 2.19081C12.8975 2.19081 12.8975 2.19081 12.8975 2.19081C12.8975 2.19081 12.8975 2.19081 12.8975 2.19081C12.8975 2.19081 12.8975 2.19081 12.8975 2.19081C12.8975 2.19081 12.8975 2.19081 12.8975 2.19081C12.8975 2.19081 12.8975 2.19081 12.8975 2.19081C12.8975 2.19081 12.8975 2.19081 12.8975 2.19081C12.8975 2.19081 12.8975 2.19081 12.8975 2.19081C12.8975 2.19081 12.8975 2.19081 12.8975 2.19081C12.8975 2.19081 12.8975 2.19081 12.8975 2.19081C12.8975 2.19081 12.8975 2.19081 12.8975 2.19081C12.8975 2.19081 12.8975 2.19081 12.8975 2.19081C12.8975 2.19081 12.8975 2.19081 12.8975 2.19081C12.8975 2.19081 12.8975 2.19081 12.8975 2.19081C12.8975 2.19081 12.8975 2.19081 12.8975 2.19081C12.8975 2.19081 12.8975 2.19081 12.8975 2.19081C12.8975 2.19081 12.8975 2.19081 12.8975 2.19081C12.8975 2.19081 12.8975 2.19081 12.8975 2.19081C12.8975 2.19081 12.8975 2.19081 12.8975 2.19081C12.8975 2.19081 12.8975 2.19081 12.8975 2.19081C12.8975 2.19081 12.8975 2.19081 12.8975 2.19081C12.8975 2.19081 12.8975 2.19081 12.8975 2.19081C12.8975 2.19081 12.8975 2.19081 12.8975 2.19081C12.8975 2.19081 12.8975 2.19081 12.8975 2.19081C12.8975 2.19081 12.8975 2.19081 12.8975 2.19081C12.8975 2.19081 12.8975 2.19081 12.8975 2.19081C12.8975 2.19081 12.8975 2.19081 12.8975 2.19081C12.8975 2.19081 12.8975 2.19081 12.8975 2.19081C12.8975 2.19081 12.8975 2.19081 12.8975 2.19081C12.8975 2.19081 12.8975 2.19081 12.8975 2.19081C12.8975 2.19081 12.8975 2.19081 12.8975 2.19081C12.8975 2.19081 12.8975 2.19081 12.8975 2.19081C12.8975 2.19081 12.8975 2.19081 12.8975 2.19081C12.8975 2.19081 12.8975 2.19081 12.8975 2.19081C12.8975 2.19081 12.8975 2.19081 12.8975 2.19081C12.8975 2.19081 12.8975 2.19081 12.8975 2.19081C12.8975 2.19081 12.8975 2.19081 12.8975 2.19081C12.8975 2.19081 12.8975 2.19081 12.8975 2.19081C12.8975 2.19081 12.8975 2.19081 12.8975 2.19081C12.8975 2.19081 12.8975 2.19081 12.8975 2.19081C12.8975 2.19081 12.8975 2.19081 12.8975 2.19081C12.8975 2.19081 12.8975 2.19081 12.8975 2.19081C12.8975 2.19081 12.8975 2.19081 12.8975 2.19081C12.8975 2.19081 12.8975 2.19081 12.8975 2.19081C12.8975 2.19081 12.8975 2.19081 12.8975 2.19081C12.8975 2.19081 12.8975 2.19081 12.8975 2.19081C12.8975 2.19081 12.8975 2.19081 12.8975 2.19081C12.8975 2.19081 12.8975 2.19081 12.8975 2.19081C12.8975 2.19081 12.8975 2.19081 12.8975 2.19081C12.8975 2.19081 12.8975 2.19081 12.8975 2.19081C12.8975 2.19081 12.8975 2.19081 12.8975 2.19081C12.8975 2.19081 12.8975 2.19081 12.8975 2.19081C12.8975 2.19081 12.8975 2.19081 12.8975 2.19081C12.8975 2.19081 12.8975 2.19081 12.8975 2.19081C12.8975 2.19081 12.8975 2.19081 12.8975 2.19081C12.8975 2.19081 12.8975 2.19081 12.8975 2.19081C12.8975 2.19081 12.8975 2.19081 12.8975 2.19081C12.8975 2.19081 12.8975 2.19081 12.8975 2.19081C12.8975 2.19081 12.8975 2.19081 12.8975 2.19081C12.8975 2.19081 12.8975 2.19081 12.8975 2.19081C12.8975 2.19081 12.8975 2.19081 12.8975 2.19081C12.8975 2.19081 12.8975 2.19081 12.8975 2.19081C12.8975 2.19081 12.8975 2.19081 12.8975 2.19081C12.8975 2.19081 12.8975 2.19081 12.8975 2.19081C12.8975 2.19081 12.8975 2.19081 12.8975 2.19081C12.8975 2.19081 12.8975 2.19081 12.8975 2.19081C12.8975 2.19081 12.8975 2.19081 12.8975 2.19081C12.8975 2.19081 12.8975 2.19081 12.8975 2.19081C12.8975 2.19081 12.8975 2.19081 12.8975 2.19081C12.8975 2.19081 12.8975 2.19081 12.8975 2.19081C12.8975 2.19081 12.8975 2.19081 12.8975 2.19081C12.8975 2.19081 12.8975 2.19081 12.8975 2.19081C12.8975 2.19081 12.8975 2.19081 12.8975 2.19081C12.8975 2.19081 12.8975 2.19081 12.8975 2.19081C12.8975 2.19081 12.8975 2.19081 12.8975 2.19081C12.8975 2.19081 12.8975 2.19081 12.8975 2.19081C12.8975 2.19081 12.8975 2.19081 12.8975 2.19081C12.8975 2.19081 12.8975 2.19081 12.8975 2.19081C12.8975 2.19081 12.8975 2.19081 12.8975 2.19081C12.8975 2.19081 12.8975 2.19081 12.8975 2.19081C12.8975 2.19081 12.8975 2.19081 12.8975 2.19081C12.8975 2.19081 12.8975 2.19081 12.8975 2.19081C12.8975 2.19081 12.8975 2.19081 12.8975 2.19081C12.8975 2.19081 12.8975 2.19081 12.8975 2.19081C12.8975 2.19081 12.8975 2.19081 12.8975 2.19081C12.8975 2.19081 12.8975 2.19081 12.8975 2.19081C12.8975 2.19081 12.8975 2.19081 12.8975 2.19081C12.8975 2.19081 12.8975 2.19081 12.8975 2.19081C12.8975 2.19081 12.8975 2.19081 12.8975 2.19081C12.8975 2.19081 12.8975 2.19081 12.8975 2.19081C12.8975 2.19081 12.8975 2.19081 12.8975 2.19081C12.8975 2.19081 12.8975 2.19081 12.8975 2.19081C12.8975 2.19081 12.8975 2.19081 12.8975 2.19081C12.8975 2.19081 12.8975 2.19081 12.8975 2.19081C12.8975 2.19081 12.8975 2.19081 12.8975 2.19081C12.8975 2.19081 12.8975 2.19081 12.8975 2.19081C12.8975 2.19081 12.8975 2.19081 12.8975 2.19081C12.8975 2.19081 12.8975 2.19081 12.8975 2.19081C12.8975 2.19081 12.8975 2.19081 12.8975 2.19081C12.8975 2.19081 12.8975 2.19081 12.8975 2.19081C12.8975 2.19081 12.8975 2.19081 12.8975 2.19081C12.8975 2.19081 12.8975 2.19081 12.8975 2.19081C12.8975 2.19081 12.8975 2.19081 12.8975 2.19081C12.8975 2.19081 12.8975 2.19081 12.8975 2.19081C12.8975 2.19081 12.8975 2.19081 12.8975 2.19081C12.8975 2.19081 12.8975 2.19081 12.8975 2.19081C12.8975 2.19081 12.8975 2.19081 12.8975 2.19081C12.8975 2.19081 12.8975 2.19081 12.8975 2.19081C12.8975 2.19081 12.8975 2.19081 12.8975 2.19081C12.8975 2.19081 12.8975 2.19081 12.8975 2.19081L13.8341 3.95795ZM6.42851 8.04673L13.8492 3.94982L12.8825 2.19894L5.46185 6.29585L6.42851 8.04673ZM10.4775 8.62055L6.44312 6.30407L5.44724 8.0385L9.48166 10.355L10.4775 8.62055ZM13.9999 6.63106C12.1006 6.63106 10.4038 7.4885 9.22804 8.8281L10.7312 10.1474C11.5582 9.20516 12.7216 8.63106 13.9999 8.63106V6.63106ZM18.7718 8.8281C17.596 7.48851 15.8993 6.63106 13.9999 6.63106V8.63106C15.2783 8.63106 16.4416 9.20517 17.2687 10.1474L18.7718 8.8281ZM21.5567 6.30408L17.5223 8.62056L18.5182 10.355L22.5526 8.0385L21.5567 6.30408ZM14.1507 3.94982L21.5713 8.04673L22.538 6.29585L15.1173 2.19894L14.1507 3.94982ZM13.8492 3.94982C13.9457 3.89652 14.0541 3.89652 14.1507 3.94982L15.1173 2.19894C14.4191 1.81349 13.5807 1.81349 12.8825 2.19893L13.8492 3.94982ZM19.8266 12.913L24.1057 10.4561L23.1098 8.72163L18.8308 11.1786L19.8266 12.913ZM20.4901 13.4508C20.4901 12.8899 20.4252 12.3427 20.3024 11.8179L18.355 12.2737C18.4431 12.6501 18.4901 13.0444 18.4901 13.4508H20.4901ZM15.6357 20.0519C18.4616 19.2809 20.4901 16.5892 20.4901 13.4508H18.4901C18.4901 15.7359 17.0193 17.6013 15.1093 18.1224L15.6357 20.0519ZM16.3725 24.1023V19.0871H14.3725V24.1023H16.3725ZM22.391 18.9193L14.8745 23.2351L15.8704 24.9695L23.3869 20.6537L22.391 18.9193ZM22.6078 18.5072C22.6078 18.7032 22.5063 18.8531 22.391 18.9193L23.3869 20.6537C24.1574 20.2113 24.6078 19.3793 24.6078 18.5072H22.6078ZM22.6078 9.58884V18.5072H24.6078V9.58884H22.6078ZM22.6522 21.5209L23.306 22.8002L25.0869 21.8901L24.4332 20.6108L22.6522 21.5209ZM24.6944 23.2123C26.3507 22.2613 27.3529 20.4471 27.3529 18.5072H25.3529C25.3529 19.771 24.6997 20.903 23.6985 21.4779L24.6944 23.2123ZM27.3529 18.5072V7.14609H25.3529V18.5072H27.3529ZM27.3529 7.14609C27.3529 6.26046 26.8882 5.4167 26.0977 4.98026L25.131 6.73114C25.2482 6.79584 25.3529 6.94687 25.3529 7.14609H27.3529ZM26.0977 4.98026L16.3854 -0.381847L15.4187 1.36903L25.131 6.73114L26.0977 4.98026ZM15.0045 0.0526028L14.3705 1.34299L16.1655 2.22497L16.7996 0.934584L15.0045 0.0526028ZM16.1655 2.22497L16.7996 0.934574L15.0045 0.0526042L14.3705 1.343L16.1655 2.22497ZM16.3854 -0.381854C14.8925 -1.20605 13.1073 -1.20605 11.6145 -0.381854L12.5811 1.36903C13.4724 0.876989 14.5275 0.876989 15.4187 1.36903L16.3854 -0.381854ZM11.6051 -0.376628L11.6051 -0.376624L12.5905 1.36381L12.5905 1.36381L11.6051 -0.376628ZM11.6145 -0.381847L1.90217 4.98026L2.86882 6.73114L12.5811 1.36903L11.6145 -0.381847ZM1.90217 4.98026C1.11166 5.4167 0.646973 6.26045 0.646973 7.14609H2.64697C2.64697 6.94687 2.75162 6.79584 2.86882 6.73114L1.90217 4.98026ZM0.646973 7.14609V18.5072H2.64697V7.14609H0.646973ZM0.646973 18.5072C0.646973 20.4472 1.64924 22.2613 3.30547 23.2123L4.30138 21.4779C3.30022 20.903 2.64697 19.771 2.64697 18.5072H0.646973ZM3.32583 23.2237L3.32585 23.2237L4.28104 21.4666L4.28102 21.4665L3.32583 23.2237ZM3.30551 23.2123L12.8483 28.6916L13.8441 26.9572L4.30138 21.4779L3.30551 23.2123ZM12.8483 28.6916C13.5644 29.1028 14.4354 29.1028 15.1516 28.6916L14.1557 26.9572C14.0562 27.0143 13.9436 27.0143 13.8441 26.9572L12.8483 28.6916ZM15.1516 28.6916L24.6944 23.2123L23.6985 21.4779L14.1557 26.9572L15.1516 28.6916ZM25.0869 21.8901L24.4332 20.6108L22.6522 21.5209L23.3059 22.8002L25.0869 21.8901ZM11.6274 19.0871V24.1023H13.6274V19.0871H11.6274ZM7.50972 13.4508C7.50972 16.5892 9.53819 19.2809 12.3642 20.0519L12.8906 18.1224C10.9806 17.6013 9.50972 15.7359 9.50972 13.4508H7.50972ZM7.69744 11.8178C7.57458 12.3427 7.50972 12.8899 7.50972 13.4508H9.50972C9.50972 13.0444 9.55669 12.6501 9.6448 12.2737L7.69744 11.8178ZM3.89413 10.4561L8.17318 12.913L9.16906 11.1786L4.89001 8.72162L3.89413 10.4561ZM5.39207 18.5072V9.58884H3.39207V18.5072H5.39207ZM5.60887 18.9193C5.49347 18.8531 5.39207 18.7031 5.39207 18.5072H3.39207C3.39207 19.3792 3.84249 20.2113 4.61297 20.6537L5.60887 18.9193ZM13.1253 23.2351L5.60886 18.9193L4.61298 20.6538L12.1294 24.9695L13.1253 23.2351ZM12.2548 13.4508C12.2548 13.1067 12.3362 12.7924 12.475 12.5214L10.6948 11.6098C10.4132 12.1598 10.2548 12.7861 10.2548 13.4508H12.2548ZM13.9999 15.3606C13.0902 15.3606 12.2548 14.5613 12.2548 13.4508H10.2548C10.2548 15.5545 11.8774 17.3606 13.9999 17.3606V15.3606ZM15.745 13.4508C15.745 14.5613 14.9097 15.3606 13.9999 15.3606V17.3606C16.1225 17.3606 17.745 15.5545 17.745 13.4508H15.745ZM15.5248 12.5213C15.6636 12.7924 15.745 13.1067 15.745 13.4508H17.745C17.745 12.7861 17.5866 12.1598 17.305 11.6098L15.5248 12.5213ZM13.9999 11.5409C14.63 11.5409 15.2125 11.9115 15.5248 12.5214L17.305 11.6097C16.6839 10.397 15.4512 9.54091 13.9999 9.54091V11.5409ZM12.475 12.5214C12.7873 11.9116 13.3698 11.5409 13.9999 11.5409V9.54091C12.5486 9.54091 11.3158 10.3971 10.6948 11.6098L12.475 12.5214Z" fill="#19C2EF" fill-opacity="0.55" mask="url(#path-1-inside-1_329_9288)"/>
<defs>
<linearGradient id="paint0_linear_329_9288" x1="13.9999" y1="0" x2="13.9999" y2="28" gradientUnits="userSpaceOnUse">
<stop stop-color="#0974F8"/>
<stop offset="1" stop-color="#4FB2FE"/>
</linearGradient>
</defs>
</svg>
