<svg width="28" height="28" viewBox="0 0 28 28" fill="none" xmlns="http://www.w3.org/2000/svg">
<path fill-rule="evenodd" clip-rule="evenodd" d="M13.3659 3.07438C13.3659 3.07438 13.3659 3.07438 13.3659 3.07438L5.94524 7.17129L9.97966 9.48777C10.9811 8.34683 12.4111 7.63106 14 7.63106C15.5888 7.63106 17.0189 8.34684 18.0203 9.48777L22.0547 7.17129L14.634 3.07438C14.2367 2.85501 13.7633 2.855 13.3659 3.07438ZM23.6078 9.58884L19.3288 12.0458C19.4342 12.4964 19.4902 12.9671 19.4902 13.4508C19.4902 16.1626 17.7405 18.4411 15.3725 19.0871V24.1023L22.889 19.7865C23.3319 19.5322 23.6078 19.0412 23.6078 18.5072V9.58884ZM23.5428 21.0658L24.1965 22.3451C25.5253 21.5822 26.3529 20.109 26.3529 18.5072V7.14609C26.3529 6.60366 26.0683 6.10627 25.6144 5.8557L15.9021 0.493593L15.2681 1.78398L15.9021 0.493589C14.71 -0.16453 13.2899 -0.16453 12.0979 0.493589L12.0978 0.493593L2.38555 5.8557C1.9317 6.10627 1.64703 6.60366 1.64703 7.14609V18.5072C1.64703 20.1091 2.47479 21.5822 3.80348 22.3451L3.80351 22.3451L13.3463 27.8244C13.7541 28.0585 14.2459 28.0585 14.6537 27.8244L24.1965 22.3451L23.5428 21.0658ZM12.6274 24.1023V19.0871C10.2594 18.4411 8.50978 16.1626 8.50978 13.4508C8.50978 12.9671 8.5657 12.4964 8.67118 12.0458L4.39213 9.58884V18.5072C4.39213 19.0412 4.66804 19.5322 5.11098 19.7865L12.6274 24.1023ZM11.585 12.0656C11.3748 12.4761 11.2549 12.9464 11.2549 13.4508C11.2549 15.0579 12.4838 16.3606 14 16.3606C15.5161 16.3606 16.7451 15.0579 16.7451 13.4508C16.7451 12.9464 16.6252 12.4761 16.415 12.0655C15.9483 11.1543 15.0406 10.5409 14 10.5409C12.9593 10.5409 12.0516 11.1543 11.585 12.0656Z" fill="url(#paint0_linear_546_4791)"/>
<path d="M23.5428 21.0658L23.988 20.8383L23.5428 21.0658ZM23.5428 21.0658L23.0975 21.2933M23.5428 21.0658L23.0975 21.2933M23.0975 21.2933L23.5346 22.1486L14.4047 27.3908C14.1511 27.5364 13.8489 27.5364 13.5952 27.3908L13.3463 27.8244L13.5952 27.3908L4.05247 21.9115M23.0975 21.2933L4.05247 21.9115M4.04758 21.9087C2.88545 21.239 2.14703 19.938 2.14703 18.5072V7.14609C2.14703 6.77526 2.34169 6.45106 2.62722 6.29342L12.3395 0.931313L12.3396 0.931447L12.3448 0.928419C13.2446 0.433589 14.2901 0.367411 15.2289 0.729881L14.8416 1.51808L14.8193 1.56349L15.2681 1.78398L15.7168 2.00448L16.1196 1.1848L25.3727 6.29342C25.6583 6.45106 25.8529 6.77526 25.8529 7.14609V18.5072C25.8529 19.7513 25.2947 20.8972 24.3851 21.6153L4.04758 21.9087ZM4.04758 21.9087L4.05254 21.9114L4.05247 21.9115M4.04758 21.9087L4.05247 21.9115M5.70358 6.73357L4.92622 7.16274L5.69627 7.60489L9.73069 9.92137L10.0855 10.1251L10.3554 9.8176C11.2697 8.776 12.5664 8.13106 14 8.13106C15.4336 8.13106 16.7303 8.776 17.6445 9.81761L17.9144 10.1251L18.2693 9.92138L22.3037 7.6049L23.0737 7.16275L22.2964 6.73357L14.8757 2.63666L14.634 3.07438L14.8757 2.63666C14.328 2.33425 13.672 2.33424 13.1243 2.63665L13.1243 2.63666C13.1243 2.63667 13.1242 2.63667 13.1242 2.63667L13.1242 2.63666L5.70358 6.73357ZM24.1078 9.58884V8.72519L23.3589 9.15524L19.0798 11.6122L18.7571 11.7975L18.8419 12.1598C18.9387 12.5732 18.9902 13.0058 18.9902 13.4508C18.9902 15.9492 17.3799 18.0212 15.2409 18.6047L14.8725 18.7053V19.0871V24.1023V24.966L15.6215 24.5359L23.138 20.2201C23.7447 19.8718 24.1078 19.2102 24.1078 18.5072V9.58884ZM15.6846 -0.197614L15.6712 -0.170359L26.8529 18.5072V7.14609C26.8529 6.43206 26.4782 5.76148 25.8561 5.41798L16.5611 0.286256L16.1438 0.0558731L16.1438 0.0558677L15.6846 -0.197614ZM12.3785 24.5359L13.1274 24.966V24.1023V19.0871V18.7053L12.759 18.6047C10.62 18.0212 9.00978 15.9492 9.00978 13.4508C9.00978 13.0058 9.06123 12.5732 9.15802 12.1597L9.24283 11.7975L8.92015 11.6122L4.6411 9.15523L3.89213 8.72519V9.58884V18.5072C3.89213 19.2102 4.2553 19.8718 4.862 20.2201L5.11098 19.7865L4.86201 20.2202L12.3785 24.5359ZM11.1399 11.8377L11.1399 11.8377C10.894 12.3179 10.7549 12.8663 10.7549 13.4508C10.7549 15.3062 12.1806 16.8606 14 16.8606C15.8193 16.8606 17.2451 15.3062 17.2451 13.4508C17.2451 12.8663 17.1059 12.3179 16.86 11.8377L16.86 11.8376C16.3161 10.7757 15.2459 10.0409 14 10.0409C12.754 10.0409 11.6837 10.7757 11.1399 11.8377Z" stroke="#19C2EF" stroke-opacity="0.55"/>
<defs>
<linearGradient id="paint0_linear_546_4791" x1="14" y1="0" x2="14" y2="28" gradientUnits="userSpaceOnUse">
<stop stop-color="#0974F8"/>
<stop offset="1" stop-color="#4FB2FE"/>
</linearGradient>
</defs>
</svg>
