<svg width="28" height="28" viewBox="0 0 28 28" fill="none" xmlns="http://www.w3.org/2000/svg">
<path d="M0 14C0.0373333 14.112 0.0933333 14.2613 0.168 14.448C0.242667 14.6347 0.410667 14.9987 0.672 15.54C0.933333 16.0813 1.22267 16.632 1.54 17.192C1.85733 17.752 2.24933 18.3867 2.716 19.096C3.18267 19.8053 3.70533 20.496 4.284 21.168C4.86267 21.84 5.488 22.4747 6.16 23.072C6.832 23.6693 7.588 24.22 8.428 24.724C9.268 25.228 10.136 25.592 11.032 25.816C11.928 26.04 12.9173 26.1893 14 26.264C15.288 26.264 16.5387 26.04 17.752 25.592C18.9653 25.144 20.02 24.556 20.916 23.828C21.812 23.1 22.6613 22.3067 23.464 21.448C24.2667 20.5893 24.9387 19.712 25.48 18.816C26.0213 17.92 26.488 17.1267 26.88 16.436C27.272 15.7453 27.552 15.1667 27.72 14.7L28 14C27.9627 13.9067 27.9067 13.7667 27.832 13.58C27.7573 13.3933 27.5893 13.02 27.328 12.46C27.0667 11.9 26.7773 11.3587 26.46 10.836C26.1427 10.3133 25.7507 9.66933 25.284 8.904C24.8173 8.13866 24.2947 7.45733 23.716 6.86C23.1373 6.26266 22.512 5.628 21.84 4.956C21.168 4.284 20.4213 3.73333 19.6 3.304C18.7787 2.87466 17.9013 2.50133 16.968 2.184C16.0347 1.86666 15.0453 1.72666 14 1.764C12.712 1.764 11.4613 1.988 10.248 2.436C9.03467 2.884 7.98 3.472 7.084 4.2C6.188 4.928 5.33867 5.72133 4.536 6.58C3.73333 7.43866 3.06133 8.30666 2.52 9.184C1.97867 10.0613 1.512 10.8547 1.12 11.564C0.728 12.2733 0.448 12.8613 0.28 13.328L0 14ZM5.264 14C5.264 12.4133 5.656 10.948 6.44 9.604C7.224 8.26 8.27867 7.20533 9.604 6.44C10.9293 5.67466 12.3947 5.28266 14 5.264C15.1947 5.264 16.324 5.49733 17.388 5.964C18.452 6.43066 19.3853 7.04666 20.188 7.812C20.9907 8.57733 21.616 9.51066 22.064 10.612C22.512 11.7133 22.7453 12.8427 22.764 14C22.764 15.5867 22.372 17.052 21.588 18.396C20.804 19.74 19.74 20.804 18.396 21.588C17.052 22.372 15.5867 22.764 14 22.764C12.824 22.764 11.6947 22.5307 10.612 22.064C9.52933 21.5973 8.596 20.972 7.812 20.188C7.028 19.404 6.40267 18.48 5.936 17.416C5.46933 16.352 5.24533 15.2133 5.264 14ZM8.764 14C8.764 15.456 9.268 16.6973 10.276 17.724C11.284 18.7507 12.5253 19.264 14 19.264C15.4747 19.264 16.716 18.7507 17.724 17.724C18.732 16.6973 19.2453 15.456 19.264 14C19.2827 12.544 18.7693 11.312 17.724 10.304C16.6787 9.296 15.4373 8.78266 14 8.764C13.44 8.764 12.8613 8.86666 12.264 9.072V12.264H9.072C8.86667 12.8427 8.764 13.4213 8.764 14Z" fill="url(#paint0_linear_546_7322)"/>
<path d="M0.632239 14.2623L0.168 14.448L0.632238 14.2623C0.594544 14.1681 0.562496 14.0855 0.535791 14.0141L0.741538 13.5203L0.746274 13.5089L0.750444 13.4974C0.905618 13.0663 1.17151 12.5045 1.55762 11.8058C1.94488 11.1051 2.40732 10.3188 2.94552 9.44655C3.46721 8.60105 4.11816 7.75918 4.90126 6.92144C5.68864 6.07913 6.52131 5.30142 7.3993 4.58805C8.2479 3.89857 9.25321 3.3363 10.4212 2.90505C11.5793 2.47743 12.7714 2.264 14 2.264H14.0089L14.0178 2.26368C15.0062 2.22838 15.9347 2.36077 16.807 2.65738C17.7176 2.96697 18.5712 3.33039 19.3684 3.74711C20.1436 4.15235 20.8494 4.67249 21.4864 5.30955C22.1568 5.97994 22.7803 6.61271 23.3569 7.20789C23.9079 7.77666 24.4082 8.42815 24.8571 9.1643C25.3237 9.92947 25.7155 10.5732 26.0326 11.0955C26.3404 11.6025 26.6212 12.1277 26.8749 12.6714C27.1373 13.2338 27.2992 13.5943 27.3678 13.7657L27.4615 14L27.2558 14.5143L27.2525 14.5224L27.2496 14.5306C27.0952 14.9595 26.8304 15.5104 26.4452 16.1892C26.056 16.8749 25.5917 17.6642 25.052 18.5574C24.5307 19.4203 23.8805 20.2702 23.0987 21.1066C22.3114 21.9489 21.4787 22.7266 20.6007 23.4399C19.7521 24.1294 18.7468 24.6917 17.5788 25.1229C16.4261 25.5486 15.2397 25.762 14.0171 25.764C12.9657 25.6906 12.0116 25.5455 11.1533 25.3309C10.3079 25.1196 9.48552 24.7754 8.68525 24.2952C7.86953 23.8058 7.13901 23.2732 6.49218 22.6983C5.83656 22.1155 5.22686 21.4967 4.66288 20.8417C4.09763 20.1853 3.58804 19.5118 3.13371 18.8212C2.67133 18.1184 2.28549 17.4934 1.97501 16.9455C1.66271 16.3944 1.37852 15.8534 1.12228 15.3226C0.859702 14.7787 0.699406 14.4302 0.632239 14.2623ZM14 4.764V4.76396L13.9942 4.76403C12.3074 4.78364 10.7573 5.19663 9.35396 6.00701C7.95199 6.8166 6.83518 7.93423 6.00811 9.35206C5.17922 10.773 4.76464 12.3243 4.764 13.9962C4.74481 15.2765 4.98184 16.4853 5.47811 17.6168C5.96854 18.735 6.62839 19.7115 7.45845 20.5415C8.28996 21.3731 9.27705 22.0331 10.4141 22.5232C11.5591 23.0167 12.7558 23.264 14 23.264C15.6734 23.264 17.2259 22.8494 18.6479 22.0199C20.0664 21.1924 21.1924 20.0664 22.0199 18.6479C22.8494 17.2259 23.264 15.6734 23.264 14H23.2641L23.2639 13.9919C23.2442 12.771 22.9978 11.5807 22.5271 10.4236C22.0544 9.26153 21.3905 8.26773 20.533 7.45013C19.6863 6.64275 18.7036 5.99502 17.5888 5.5061C16.4597 5.01087 15.2618 4.764 14 4.764ZM12.264 12.764H12.764V12.264V9.44009C13.1917 9.32182 13.6023 9.26431 13.9968 9.264C15.3041 9.28172 16.4229 9.74398 17.3769 10.6639C18.3226 11.5758 18.7809 12.6751 18.764 13.9936C18.747 15.3225 18.2838 16.4402 17.3672 17.3737C16.4558 18.302 15.3442 18.764 14 18.764C12.6558 18.764 11.5442 18.302 10.6328 17.3737C9.7178 16.4418 9.264 15.3267 9.264 14C9.264 13.5908 9.3212 13.1791 9.43753 12.764H12.264Z" stroke="#19C2EF" stroke-opacity="0.55"/>
<defs>
<linearGradient id="paint0_linear_546_7322" x1="14" y1="1.7581" x2="14" y2="26.264" gradientUnits="userSpaceOnUse">
<stop stop-color="#0974F8"/>
<stop offset="1" stop-color="#4FB2FE"/>
</linearGradient>
</defs>
</svg>
