<svg width="36" height="36" viewBox="0 0 36 36" fill="none" xmlns="http://www.w3.org/2000/svg">
<g clip-path="url(#clip0_262_3126)">
<path d="M17.4692 21.8313C17.4248 20.8884 16.6127 20.1629 15.6687 20.1629H15.206C15.7378 19.8339 16.0817 19.2302 16.0346 18.5485C15.9705 17.6225 15.1678 16.9199 14.2395 16.9199H12.9614C13.0141 17.5426 12.8127 18.3965 12.3648 18.8984C12.1848 19.1 11.9788 19.2532 11.7571 19.3626C11.6823 19.3995 11.7072 19.5109 11.7906 19.5109H12.2475C12.4369 19.5109 12.62 19.6021 12.7181 19.764C12.9305 20.1147 12.6664 20.5466 12.2757 20.5466H9.48389C9.38406 20.5466 9.28636 20.5753 9.20258 20.6294L9.20188 20.6299C8.81709 20.8815 8.57885 21.3101 8.57885 21.7823C8.57885 22.2544 8.81709 22.6829 9.20188 22.9347L9.20211 22.9348C9.28978 22.9901 9.39126 23.0195 9.49498 23.0195H12.9136C13.2611 23.0195 13.5111 23.3618 13.408 23.689C13.3374 23.9129 13.1164 24.0552 12.8817 24.0552H9.49486C9.39126 24.0552 9.28967 24.0846 9.20199 24.1399L9.20176 24.14C8.81697 24.3917 8.57874 24.8203 8.57874 25.2924C8.57874 25.7645 8.81697 26.1931 9.20176 26.4449L9.20199 26.445C9.28093 26.4991 9.37451 26.5282 9.4702 26.5282H11.8502C12.1566 26.5282 12.4243 26.8132 12.3578 27.1491C12.3092 27.3947 12.0808 27.5638 11.8304 27.5638H9.49274C9.39374 27.5638 9.29557 27.5901 9.21214 27.6436C8.82122 27.8945 8.57874 28.3263 8.57874 28.8027C8.57874 29.4554 9.046 30.0256 9.68413 30.1548H12.8672C13.7955 30.1548 14.5982 29.4521 14.6622 28.5261C14.7093 27.8445 14.3654 27.241 13.8338 26.9119H14.3573C15.2856 26.9119 16.0883 26.2092 16.1522 25.2832C16.1993 24.6016 15.8555 23.9981 15.3239 23.669H15.7183C16.7145 23.6691 17.5166 22.8381 17.4692 21.8313Z" fill="url(#paint0_linear_262_3126)"/>
<path d="M16.9698 21.8548L16.9698 21.8548C16.9388 21.197 16.3645 20.6629 15.6687 20.6629H15.206H13.4478L14.9429 19.7378C15.3253 19.5012 15.5694 19.0701 15.5358 18.583L16.9698 21.8548ZM16.9698 21.8548C17.0037 22.5752 16.4304 23.1691 15.7183 23.169H15.7183H15.3239H13.8618C13.7154 22.7972 13.3541 22.5195 12.9136 22.5195H9.49498C9.48638 22.5195 9.47796 22.5173 9.47046 22.5129C9.22787 22.3517 9.07885 22.0812 9.07885 21.7823C9.07885 21.4817 9.22952 21.2099 9.47423 21.0492C9.47708 21.0475 9.48044 21.0466 9.48389 21.0466H12.2757C13.0372 21.0466 13.5696 20.2048 13.1457 19.505L13.1457 19.505C13.0562 19.3571 12.9351 19.2425 12.7979 19.1611C13.1898 18.6824 13.4018 18.0174 13.4556 17.4199M16.9698 21.8548L13.4556 17.4199M13.4556 17.4199H14.2395C14.923 17.4199 15.491 17.9366 15.5358 18.583L13.4556 17.4199ZM13.8849 23.8393C13.9329 23.6871 13.9427 23.5338 13.9208 23.3884L15.0607 24.0941C15.4429 24.3307 15.6871 24.7618 15.6534 25.2487C15.6088 25.8951 15.0408 26.4119 14.3573 26.4119H13.8338H12.644C12.4532 26.1764 12.1612 26.0282 11.8502 26.0282H9.47828L9.456 26.0129L9.45379 26.0118C9.22102 25.8495 9.07874 25.5844 9.07874 25.2924C9.07874 24.9934 9.22783 24.7229 9.47034 24.5618C9.47781 24.5575 9.48632 24.5552 9.49486 24.5552H12.8817C13.3048 24.5552 13.7401 24.2985 13.8849 23.8394L13.8849 23.8393ZM12.8483 27.2461C12.8723 27.1247 12.8743 27.007 12.8579 26.8958L13.5707 27.337C13.9529 27.5736 14.197 28.0047 14.1634 28.4916C14.1187 29.138 13.5507 29.6548 12.8672 29.6548H9.74004C9.35707 29.5564 9.07874 29.2025 9.07874 28.8027C9.07874 28.4996 9.23194 28.2257 9.48067 28.0654C9.48086 28.0653 9.48112 28.0652 9.48144 28.0651C9.48349 28.0646 9.48734 28.0638 9.49274 28.0638H11.8304C12.2931 28.0638 12.7484 27.7509 12.8483 27.2461L12.8483 27.2461Z" stroke="#19C2EF" stroke-opacity="0.55"/>
<mask id="path-3-inside-1_262_3126" fill="white">
<path d="M8.59253 18.4648C8.64811 18.8636 8.87466 19.2151 9.21201 19.4317C9.2952 19.4852 9.39326 19.5115 9.49214 19.5115H9.78394C9.86914 19.5115 9.89285 19.3956 9.81462 19.362C9.54122 19.2443 9.28198 19.0804 9.05213 18.8754L8.59253 18.4648Z"/>
</mask>
<path d="M8.59253 18.4648C8.64811 18.8636 8.87466 19.2151 9.21201 19.4317C9.2952 19.4852 9.39326 19.5115 9.49214 19.5115H9.78394C9.86914 19.5115 9.89285 19.3956 9.81462 19.362C9.54122 19.2443 9.28198 19.0804 9.05213 18.8754L8.59253 18.4648Z" fill="url(#paint1_linear_262_3126)"/>
<path d="M8.59253 18.4648L9.25869 17.719L7.2258 15.9033L7.6021 18.6029L8.59253 18.4648ZM9.21201 19.4317L9.75259 18.5904L9.75237 18.5903L9.21201 19.4317ZM9.81462 19.362L9.41936 20.2805L9.4197 20.2807L9.81462 19.362ZM9.05213 18.8754L8.38597 19.6212L8.38638 19.6215L9.05213 18.8754ZM7.6021 18.6029C7.69821 19.2924 8.09051 19.8999 8.67166 20.2731L9.75237 18.5903C9.65881 18.5302 9.598 18.4347 9.58295 18.3268L7.6021 18.6029ZM8.67144 20.273C8.92972 20.439 9.21871 20.5115 9.49214 20.5115V18.5115C9.5678 18.5115 9.66068 18.5314 9.75259 18.5904L8.67144 20.273ZM9.49214 20.5115H9.78394V18.5115H9.49214V20.5115ZM9.78394 20.5115C10.9613 20.5115 11.2814 18.904 10.2095 18.4433L9.4197 20.2807C8.50435 19.8872 8.77693 18.5115 9.78394 18.5115V20.5115ZM10.2099 18.4434C10.0348 18.368 9.86696 18.2622 9.71787 18.1292L8.38638 19.6215C8.69701 19.8987 9.04769 20.1206 9.41936 20.2805L10.2099 18.4434ZM9.71828 18.1295L9.25869 17.719L7.92637 19.2107L8.38597 19.6212L9.71828 18.1295Z" fill="#19C2EF" fill-opacity="0.55" mask="url(#path-3-inside-1_262_3126)"/>
<path d="M7.54306 18.2724C7.54306 18.0432 7.57728 17.8222 7.63711 17.6119L7.26223 17.2773C7.08005 17.1145 7.05196 16.8229 7.22542 16.6284C7.39474 16.439 7.68513 16.4227 7.87428 16.5917L9.66429 18.1894C10.2686 18.7286 11.1724 18.6543 11.6896 18.0747C12.2164 17.4845 12.165 16.5758 11.5749 16.049L8.43524 13.2463C7.86189 12.7344 6.9919 12.7636 6.45454 13.313L6.44097 13.3263C2.35156 17.1842 1.45785 18.141 1.13006 18.5543C0.272455 19.6355 0 20.4365 0 21.5981V25.1952C0 27.9301 2.22495 30.1551 4.95988 30.1551C5.96096 30.1551 6.95981 30.1551 7.95794 30.1551C7.6974 29.7706 7.54295 29.2951 7.54295 28.803C7.54295 28.1235 7.82378 27.4948 8.29765 27.0479C7.82378 26.6008 7.54295 25.9721 7.54295 25.2927C7.54295 24.6132 7.82378 23.9846 8.29765 23.5376C7.82378 23.0906 7.54295 22.4619 7.54295 21.7825C7.54295 21.1031 7.82378 20.4744 8.29765 20.0274C7.82378 19.5803 7.54306 18.9518 7.54306 18.2724Z" fill="url(#paint2_linear_262_3126)"/>
<path d="M7.17134 29.6551H7.16823H7.16237H7.15652H7.15067H7.14482H7.13897H7.13312H7.12727H7.12141H7.11556H7.10971H7.10386H7.09801H7.09216H7.08631H7.08045H7.0746H7.06875H7.0629H7.05705H7.05119H7.04534H7.03949H7.03364H7.02779H7.02194H7.01608H7.01023H7.00438H6.99853H6.99268H6.98682H6.98097H6.97512H6.96927H6.96342H6.95756H6.95171H6.94586H6.94001H6.93415H6.9283H6.92245H6.9166H6.91074H6.90489H6.89904H6.89319H6.88733H6.88148H6.87563H6.86978H6.86392H6.85807H6.85222H6.84637H6.84051H6.83466H6.82881H6.82295H6.8171H6.81125H6.8054H6.79954H6.79369H6.78784H6.78198H6.77613H6.77028H6.76442H6.75857H6.75272H6.74686H6.74101H6.73516H6.7293H6.72345H6.7176H6.71174H6.70589H6.70004H6.69418H6.68833H6.68248H6.67662H6.67077H6.66492H6.65906H6.65321H6.64735H6.6415H6.63565H6.62979H6.62394H6.61808H6.61223H6.60638H6.60052H6.59467H6.58881H6.58296H6.57711H6.57125H6.5654H6.55954H6.55369H6.54783H6.54198H6.53613H6.53027H6.52442H6.51856H6.51271H6.50685H6.501H6.49514H6.48929H6.48344H6.47758H6.47173H6.46587H6.46002H6.45416H6.44831H6.44245H6.4366H6.43074H6.42489H6.41903H6.41318H6.40732H6.40147H6.39561H6.38976H6.3839H6.37805H6.37219H6.36633H6.36048H6.35462H6.34877H6.34291H6.33706H6.3312H6.32535H6.31949H6.31363H6.30778H6.30192H6.29607H6.29021H6.28436H6.2785H6.27264H6.26679H6.26093H6.25508H6.24922H6.24336H6.23751H6.23165H6.22579H6.21994H6.21408H6.20823H6.20237H6.19651H6.19066H6.1848H6.17894H6.17309H6.16723H6.16137H6.15552H6.14966H6.1438H6.13795H6.13209H6.12623H6.12038H6.11452H6.10866H6.10281H6.09695H6.09109H6.08523H6.07938H6.07352H6.06766H6.06181H6.05595H6.05009H6.04423H6.03838H6.03252H6.02666H6.0208H6.01495H6.00909H6.00323H5.99737H5.99151H5.98566H5.9798H5.97394H5.96808H5.96223H5.95637H5.95051H5.94465H5.93879H5.93294H5.92708H5.92122H5.91536H5.9095H5.90364H5.89779H5.89193H5.88607H5.88021H5.87435H5.86849H5.86263H5.85678H5.85092H5.84506H5.8392H5.83334H5.82748H5.82162H5.81576H5.80991H5.80405H5.79819H5.79233H5.78647H5.78061H5.77475H5.76889H5.76303H5.75717H5.75131H5.74545H5.73959H5.73373H5.72787H5.72201H5.71616H5.7103H5.70444H5.69858H5.69272H5.68686H5.681H5.67514H5.66928H5.66342H5.65756H5.6517H5.64584H5.63998H5.63412H5.62826H5.6224H5.61653H5.61067H5.60481H5.59895H5.59309H5.58723H5.58137H5.57551H5.56965H5.56379H5.55793H5.55207H5.54621H5.54035H5.53448H5.52862H5.52276H5.5169H5.51104H5.50518H5.49932H5.49346H5.48759H5.48173H5.47587H5.47001H5.46415H5.45829H5.45243H5.44656H5.4407H5.43484H5.42898H5.42312H5.41725H5.41139H5.40553H5.39967H5.39381H5.38794H5.38208H5.37622H5.37036H5.3645H5.35863H5.35277H5.34691H5.34105H5.33518H5.32932H5.32346H5.3176H5.31173H5.30587H5.30001H5.29414H5.28828H5.28242H5.27656H5.27069H5.26483H5.25897H5.2531H5.24724H5.24138H5.23551H5.22965H5.22379H5.21792H5.21206H5.20619H5.20033H5.19447H5.1886H5.18274H5.17688H5.17101H5.16515H5.15928H5.15342H5.14756H5.14169H5.13583H5.12996H5.1241H5.11823H5.11237H5.10651H5.10064H5.09478H5.08891H5.08305H5.07718H5.07132H5.06545H5.05959H5.05372H5.04786H5.04199H5.03613H5.03026H5.0244H5.01853H5.01267H5.0068H5.00094H4.99507H4.98921H4.98334H4.97748H4.97161H4.96574H4.95988C2.50109 29.6551 0.5 27.654 0.5 25.1952V21.5981C0.5 21.0587 0.562963 20.6291 0.71315 20.2174C0.864346 19.8029 1.11393 19.3793 1.52179 18.8651L1.52182 18.865C1.82191 18.4866 2.68385 17.5581 6.78408 13.69L6.78413 13.69L6.78983 13.6844L6.8034 13.6712L6.80351 13.6713L6.81199 13.6627C7.16235 13.3045 7.72819 13.2853 8.10225 13.6192L8.10226 13.6193L11.2419 16.422L11.2419 16.422C11.626 16.7648 11.6596 17.3574 11.3166 17.7417L11.3165 17.7418C10.9784 18.1207 10.3901 18.1669 9.99721 17.8163L8.20739 16.2188C7.81217 15.8658 7.20583 15.9001 6.85267 16.2951L6.85229 16.2956C6.4875 16.7045 6.54973 17.3113 6.92917 17.6502L6.92926 17.6503L7.08462 17.7889C7.05776 17.9452 7.04306 18.1067 7.04306 18.2724C7.04306 18.9211 7.25571 19.5326 7.62882 20.0274C7.25567 20.5221 7.04295 21.1337 7.04295 21.7825C7.04295 22.4313 7.25566 23.0429 7.6288 23.5376C7.25566 24.0323 7.04295 24.6439 7.04295 25.2927C7.04295 25.9415 7.25568 26.5531 7.62882 27.0478C7.25567 27.5426 7.04295 28.1542 7.04295 28.803C7.04295 29.0958 7.08802 29.3833 7.17134 29.6551Z" stroke="#19C2EF" stroke-opacity="0.55"/>
<mask id="path-7-inside-2_262_3126" fill="white">
<path d="M26.7979 19.4252L26.7983 19.425C27.1301 19.2079 27.3526 18.8595 27.4075 18.4648L26.6904 19.0747C26.592 19.1626 26.4906 19.2386 26.3873 19.3032C26.2916 19.363 26.337 19.5114 26.4497 19.5114H26.5244C26.6222 19.5115 26.7178 19.4813 26.7979 19.4252Z"/>
</mask>
<path d="M26.7979 19.4252L26.7983 19.425C27.1301 19.2079 27.3526 18.8595 27.4075 18.4648L26.6904 19.0747C26.592 19.1626 26.4906 19.2386 26.3873 19.3032C26.2916 19.363 26.337 19.5114 26.4497 19.5114H26.5244C26.6222 19.5115 26.7178 19.4813 26.7979 19.4252Z" fill="url(#paint3_linear_262_3126)"/>
<path d="M26.7979 19.4252L26.2442 18.5925L26.2344 18.5991L26.2247 18.6058L26.7979 19.4252ZM26.7983 19.425L26.2507 18.5882L26.2445 18.5923L26.7983 19.425ZM27.4075 18.4648L28.398 18.6025L28.7594 16.0024L26.7596 17.7031L27.4075 18.4648ZM26.6904 19.0747L26.0426 18.3129L26.0333 18.3208L26.0242 18.3289L26.6904 19.0747ZM26.3873 19.3032L26.9174 20.1512L26.9176 20.151L26.3873 19.3032ZM26.5244 19.5114L26.5256 18.5114H26.5244V19.5114ZM27.3516 20.2579L27.352 20.2577L26.2445 18.5923L26.2442 18.5925L27.3516 20.2579ZM27.3458 20.2618C27.9175 19.8877 28.303 19.2854 28.398 18.6025L26.417 18.3272C26.4022 18.4336 26.3427 18.528 26.2507 18.5882L27.3458 20.2618ZM26.7596 17.7031L26.0426 18.3129L27.3383 19.8364L28.0553 19.2266L26.7596 17.7031ZM26.0242 18.3289C25.9668 18.3802 25.9107 18.4218 25.8569 18.4554L26.9176 20.151C27.0706 20.0553 27.2172 19.9449 27.3566 19.8204L26.0242 18.3289ZM25.8572 18.4553C24.8505 19.0846 25.4024 20.5114 26.4497 20.5114V18.5114C27.2717 18.5114 27.7326 19.6415 26.9174 20.1512L25.8572 18.4553ZM26.4497 20.5114H26.5244V18.5114H26.4497V20.5114ZM26.5232 20.5114C26.8275 20.5117 27.1235 20.4179 27.3711 20.2446L26.2247 18.6058C26.3121 18.5447 26.4169 18.5112 26.5256 18.5114L26.5232 20.5114Z" fill="#19C2EF" fill-opacity="0.55" mask="url(#path-7-inside-2_262_3126)"/>
<path d="M24.1496 26.5283H26.5186C26.6176 26.5283 26.7146 26.4995 26.7976 26.4453L26.7983 26.4449C27.1832 26.1931 27.4213 25.7646 27.4213 25.2925C27.4213 24.8205 27.183 24.392 26.7983 24.1403L26.7976 24.1398C26.7132 24.0847 26.6145 24.0553 26.5137 24.0553H23.1165C22.9274 24.0553 22.7441 23.965 22.6452 23.8039C22.431 23.4545 22.694 23.0196 23.0864 23.0196H26.4919C26.5998 23.0196 26.7055 22.9904 26.798 22.9348L26.7984 22.9347C27.1833 22.6829 27.4214 22.2544 27.4214 21.7825C27.4214 21.3103 27.1832 20.8819 26.7984 20.6301L26.7977 20.6296C26.7128 20.5755 26.6142 20.5467 26.5135 20.5467H23.7244C23.3359 20.5467 23.0706 20.1185 23.2804 19.7661C23.3774 19.6033 23.5604 19.5109 23.75 19.5109H24.3157C24.4327 19.5109 24.4731 19.3566 24.3714 19.299C24.1053 19.1482 23.8527 18.9417 23.6247 18.6863C23.2081 18.2197 22.98 17.6025 23.0376 16.9199H21.7606C20.8323 16.9199 20.0296 17.6225 19.9655 18.5485C19.9183 19.2302 20.2623 19.8339 20.7941 20.1629H20.3314C19.3875 20.1629 18.5753 20.8884 18.5309 21.8313C18.4835 22.8379 19.2856 23.669 20.282 23.669H20.6763C20.1447 23.9982 19.8008 24.6016 19.848 25.2832C19.9121 26.2092 20.7147 26.9119 21.643 26.9119H22.1664C21.6348 27.241 21.291 27.8445 21.3381 28.5261C21.4021 29.4521 22.2048 30.1548 23.133 30.1548H26.3161C26.9533 30.0258 27.4216 29.4565 27.4216 28.8027C27.4216 28.3307 27.1834 27.9021 26.7986 27.6504L26.7985 27.6503C26.7139 27.5939 26.6145 27.5638 26.5129 27.5638H24.17C23.9197 27.5638 23.6913 27.3949 23.6426 27.1494C23.5753 26.814 23.8428 26.5283 24.1496 26.5283Z" fill="url(#paint4_linear_262_3126)"/>
<path d="M20.7941 20.1629L20.531 20.5881C20.462 20.5454 20.3953 20.499 20.3314 20.4493C20.2291 20.3696 20.1337 20.2812 20.0464 20.1852C20.1396 20.1705 20.2348 20.1629 20.3314 20.1629H20.7941ZM20.7941 20.1629V19.6629H20.3314C20.3107 19.6629 20.29 19.6632 20.2693 19.6638C20.2892 19.6926 20.3099 19.7208 20.3314 19.7483C20.4596 19.9123 20.6164 20.053 20.7941 20.1629ZM26.5245 26.0264L26.5245 26.0264C26.7702 25.8657 26.9213 25.5936 26.9213 25.2925C26.9213 24.9916 26.7701 24.7193 26.5246 24.5587L26.5241 24.5584L26.5245 26.0264ZM26.5245 26.0264L26.5237 26.027M26.5245 26.0264L26.5237 26.027M26.5237 26.027C26.5223 26.0278 26.5205 26.0283 26.5186 26.0283H24.1496C23.8387 26.0283 23.5468 26.1765 23.3559 26.4119L26.5237 26.027ZM23.1421 26.8959L22.4296 27.337C22.0474 27.5736 21.8033 28.0047 21.8369 28.4916L23.1421 26.8959ZM23.1421 26.8959C23.1257 27.0075 23.1279 27.1255 23.1522 27.2473C23.2526 27.7514 23.7077 28.0638 24.17 28.0638H26.5129C26.5153 28.0638 26.5177 28.0644 26.5199 28.0656M23.1421 26.8959L26.5199 28.0656M26.5199 28.0656L26.5249 28.0689C26.7705 28.2295 26.9216 28.5017 26.9216 28.8027C26.9216 29.203 26.6428 29.5565 26.2602 29.6548H23.133C22.4496 29.6548 21.8816 29.138 21.8369 28.4916L26.5199 28.0656ZM23.9443 19.5109C23.9013 19.3641 23.9496 19.1971 24.0675 19.098C24.0308 19.0701 23.9944 19.041 23.9585 19.0109H23.75C23.6062 19.0109 23.4601 19.0401 23.3243 19.0984C23.4584 19.2405 23.6007 19.3698 23.75 19.4847C23.7615 19.4935 23.773 19.5022 23.7846 19.5109H23.9443ZM22.5435 17.4199H23.0376V17.3335C23.026 17.1989 23.0257 17.0608 23.0376 16.9199L22.5361 16.9199C22.5241 17.0901 22.527 17.2571 22.5435 17.4199ZM22.4337 23.169H22.1378C22.1096 23.2396 22.0892 23.3135 22.0776 23.3895L22.4337 23.169ZM26.5405 22.5062C26.539 22.5072 26.5374 22.5081 26.5357 22.5089C26.5321 22.5114 26.5284 22.5138 26.5246 22.5163L26.7932 22.9268L26.7976 22.9335L26.7984 22.9347L26.6412 22.46L26.6409 22.4601L26.5881 22.4776L26.5405 22.5062ZM26.5246 21.0485C26.5256 21.0491 26.5265 21.0498 26.5275 21.0504C26.5279 21.0506 26.5283 21.0508 26.5286 21.0511L26.7571 20.6931L26.7571 20.6931L26.7744 20.6661L26.7977 20.6296L26.5204 21.0457L26.5211 21.0462L26.5211 21.0462L26.5246 21.0485Z" stroke="#19C2EF" stroke-opacity="0.55"/>
<path d="M34.8697 18.5539C34.7889 18.3853 34.681 18.2263 34.543 18.0851L33.6858 17.2091L29.5452 13.313C29.0077 12.7636 28.1379 12.7345 27.5646 13.2462L24.425 16.049C23.8335 16.5771 23.7819 17.4829 24.31 18.0745C24.8362 18.664 25.7416 18.7194 26.3356 18.1893L28.1255 16.5917C28.3149 16.4226 28.6051 16.4392 28.7743 16.6284C28.9255 16.7977 28.9273 17.0474 28.7907 17.2193C28.7457 17.2759 28.4226 17.5584 28.3628 17.6119C28.4227 17.8221 28.4569 18.0431 28.4569 18.2724C28.4569 18.9518 28.1761 19.5804 27.7022 20.0275C28.1761 20.4745 28.4569 21.1031 28.4569 21.7826C28.4569 22.462 28.1761 23.0907 27.7022 23.5377C28.1762 23.9846 28.4569 24.6133 28.4569 25.2927C28.4569 25.9722 28.1761 26.6009 27.7022 27.0479C28.1762 27.4949 28.4569 28.1236 28.4569 28.803C28.4569 29.2958 28.3022 29.7711 28.0419 30.1551C29.0401 30.1551 30.0395 30.1551 31.0401 30.1551C33.775 30.1551 36 27.93 36 25.1952V21.598C36 20.4361 35.5733 19.3728 34.8697 18.5539Z" fill="url(#paint5_linear_262_3126)"/>
<path d="M34.4474 18.8297L34.4188 18.7701C34.3601 18.6475 34.2829 18.5343 34.1855 18.4348L33.3357 17.5662L29.2026 13.6771L29.195 13.67L29.1878 13.6627C28.8373 13.3044 28.2716 13.2854 27.8976 13.6192L27.8976 13.6192L24.758 16.422C24.758 16.422 24.758 16.422 24.7579 16.422C24.3723 16.7663 24.3389 17.356 24.683 17.7415L24.6831 17.7416C25.0261 18.1259 25.6155 18.1617 26.0026 17.8163L34.4474 18.8297ZM34.4474 18.8297L34.4905 18.8798C35.1196 19.612 35.5 20.5609 35.5 21.598V25.1952C35.5 27.6538 33.4989 29.6551 31.0401 29.6551H31.0342H31.0284H31.0225H31.0167H31.0108H31.0049H30.9991H30.9932H30.9873H30.9815H30.9756H30.9698H30.9639H30.958H30.9522H30.9463H30.9404H30.9346H30.9287H30.9229H30.917H30.9111H30.9053H30.8994H30.8935H30.8877H30.8818H30.876H30.8701H30.8642H30.8584H30.8525H30.8466H30.8408H30.8349H30.8291H30.8232H30.8173H30.8115H30.8056H30.7998H30.7939H30.788H30.7822H30.7763H30.7704H30.7646H30.7587H30.7529H30.747H30.7411H30.7353H30.7294H30.7235H30.7177H30.7118H30.706H30.7001H30.6942H30.6884H30.6825H30.6767H30.6708H30.6649H30.6591H30.6532H30.6474H30.6415H30.6356H30.6298H30.6239H30.618H30.6122H30.6063H30.6005H30.5946H30.5887H30.5829H30.577H30.5712H30.5653H30.5594H30.5536H30.5477H30.5419H30.536H30.5301H30.5243H30.5184H30.5126H30.5067H30.5008H30.495H30.4891H30.4833H30.4774H30.4715H30.4657H30.4598H30.4539H30.4481H30.4422H30.4364H30.4305H30.4246H30.4188H30.4129H30.4071H30.4012H30.3953H30.3895H30.3836H30.3778H30.3719H30.366H30.3602H30.3543H30.3485H30.3426H30.3368H30.3309H30.325H30.3192H30.3133H30.3075H30.3016H30.2957H30.2899H30.284H30.2782H30.2723H30.2664H30.2606H30.2547H30.2489H30.243H30.2371H30.2313H30.2254H30.2196H30.2137H30.2078H30.202H30.1961H30.1903H30.1844H30.1785H30.1727H30.1668H30.161H30.1551H30.1493H30.1434H30.1375H30.1317H30.1258H30.12H30.1141H30.1082H30.1024H30.0965H30.0907H30.0848H30.079H30.0731H30.0672H30.0614H30.0555H30.0497H30.0438H30.0379H30.0321H30.0262H30.0204H30.0145H30.0087H30.0028H29.9969H29.9911H29.9852H29.9794H29.9735H29.9676H29.9618H29.9559H29.9501H29.9442H29.9384H29.9325H29.9266H29.9208H29.9149H29.9091H29.9032H29.8974H29.8915H29.8856H29.8798H29.8739H29.8681H29.8622H29.8563H29.8505H29.8446H29.8388H29.8329H29.8271H29.8212H29.8153H29.8095H29.8036H29.7978H29.7919H29.7861H29.7802H29.7743H29.7685H29.7626H29.7568H29.7509H29.7451H29.7392H29.7333H29.7275H29.7216H29.7158H29.7099H29.7041H29.6982H29.6924H29.6865H29.6806H29.6748H29.6689H29.6631H29.6572H29.6514H29.6455H29.6396H29.6338H29.6279H29.6221H29.6162H29.6104H29.6045H29.5987H29.5928H29.5869H29.5811H29.5752H29.5694H29.5635H29.5577H29.5518H29.5459H29.5401H29.5342H29.5284H29.5225H29.5167H29.5108H29.505H29.4991H29.4932H29.4874H29.4815H29.4757H29.4698H29.464H29.4581H29.4523H29.4464H29.4405H29.4347H29.4288H29.423H29.4171H29.4113H29.4054H29.3996H29.3937H29.3878H29.382H29.3761H29.3703H29.3644H29.3586H29.3527H29.3469H29.341H29.3352H29.3293H29.3234H29.3176H29.3117H29.3059H29.3H29.2942H29.2883H29.2825H29.2766H29.2708H29.2649H29.259H29.2532H29.2473H29.2415H29.2356H29.2298H29.2239H29.2181H29.2122H29.2064H29.2005H29.1946H29.1888H29.1829H29.1771H29.1712H29.1654H29.1595H29.1537H29.1478H29.142H29.1361H29.1302H29.1244H29.1185H29.1127H29.1068H29.101H29.0951H29.0893H29.0834H29.0776H29.0717H29.0659H29.06H29.0542H29.0483H29.0424H29.0366H29.0307H29.0249H29.019H29.0132H29.0073H29.0015H28.9956H28.9898H28.9839H28.9781H28.9722H28.9664H28.9605H28.9546H28.9488H28.9429H28.9371H28.9312H28.9254H28.9195H28.9137H28.9078H28.902H28.8961H28.8903H28.8844H28.8786H28.8727H28.8669H28.861H28.8551H28.8493H28.8434H28.8376H28.8317H28.8286C28.9118 29.3835 28.9569 29.0961 28.9569 28.803C28.9569 28.1543 28.7443 27.5427 28.3711 27.0479C28.7442 26.5531 28.9569 25.9415 28.9569 25.2927C28.9569 24.644 28.7443 24.0324 28.3711 23.5376C28.7442 23.0429 28.9569 22.4313 28.9569 21.7826C28.9569 21.1338 28.7442 20.5222 28.3711 20.0275C28.7442 19.5327 28.9569 18.9212 28.9569 18.2724C28.9569 18.1069 28.9423 17.9457 28.9155 17.7896C28.9158 17.7893 28.9162 17.7889 28.9165 17.7886C28.9644 17.7456 29.0141 17.7004 29.0556 17.6614L29.0567 17.6604C29.0861 17.6328 29.1438 17.5785 29.182 17.5306L29.1823 17.5302C29.4662 17.1727 29.4647 16.6509 29.1473 16.2954L29.147 16.295C28.7942 15.9006 28.1882 15.8654 27.7925 16.2186C27.7925 16.2187 27.7925 16.2187 27.7925 16.2187L26.0027 17.8163L34.4474 18.8297Z" stroke="#19C2EF" stroke-opacity="0.55"/>
<path d="M18.8849 14.5097V6.7297C18.8849 6.24084 18.4888 5.84473 18 5.84473C17.5111 5.84473 17.115 6.24084 17.115 6.7297V14.5097C17.115 14.9986 17.5111 15.3947 18 15.3947C18.4887 15.3947 18.8849 14.9984 18.8849 14.5097Z" fill="url(#paint6_linear_262_3126)"/>
<path d="M18.3849 6.7297V14.5097C18.3849 14.7223 18.2126 14.8947 18 14.8947C17.7872 14.8947 17.615 14.7224 17.615 14.5097V6.7297C17.615 6.51698 17.7872 6.34473 18 6.34473C18.2127 6.34473 18.3849 6.51698 18.3849 6.7297Z" stroke="#19C2EF" stroke-opacity="0.55"/>
<path d="M13.6631 14.8871C13.8714 15.3293 14.3989 15.5187 14.8408 15.3103C15.283 15.102 15.4725 14.5747 15.2641 14.1326L12.5431 8.35856C12.3348 7.91642 11.8076 7.7268 11.3653 7.9353C10.9232 8.14369 10.7337 8.6709 10.9421 9.11303L13.6631 14.8871Z" fill="url(#paint7_linear_262_3126)"/>
<path d="M14.1154 14.6741L14.1154 14.6739L11.3944 8.89989L11.3944 8.89986C11.3037 8.70757 11.3861 8.47827 11.5785 8.38759L11.5786 8.38756C11.7709 8.29688 12.0001 8.3793 12.0907 8.57163L12.0908 8.5717L14.8118 14.3458L14.8118 14.3458C14.9024 14.5381 14.8201 14.7674 14.6277 14.8581L14.6276 14.8581C14.4354 14.9487 14.206 14.8663 14.1154 14.6741Z" stroke="#19C2EF" stroke-opacity="0.55"/>
<path d="M21.1591 15.3104C21.601 15.5188 22.1285 15.3294 22.3369 14.8872L25.0579 9.11313C25.2663 8.671 25.0768 8.14367 24.6347 7.93541C24.1927 7.72667 23.6652 7.91653 23.4569 8.35866L20.7359 14.1327C20.5276 14.5749 20.7169 15.1021 21.1591 15.3104Z" fill="url(#paint8_linear_262_3126)"/>
<path d="M21.3723 14.8582L21.3722 14.8582C21.1799 14.7675 21.0975 14.5383 21.1882 14.3459L21.1882 14.3459L23.9092 8.5718L23.9093 8.57173C24 8.37918 24.2294 8.29698 24.4212 8.38753L24.4216 8.38774C24.6138 8.47828 24.6963 8.7076 24.6056 8.89997L24.6056 8.89999L21.8846 14.674L21.8846 14.6741C21.794 14.8664 21.5644 14.9488 21.3723 14.8582Z" stroke="#19C2EF" stroke-opacity="0.55"/>
</g>
<defs>
<linearGradient id="paint0_linear_262_3126" x1="13.025" y1="16.9199" x2="13.025" y2="30.1548" gradientUnits="userSpaceOnUse">
<stop stop-color="#0974F8"/>
<stop offset="1" stop-color="#4FB2FE"/>
</linearGradient>
<linearGradient id="paint1_linear_262_3126" x1="9.22739" y1="18.4648" x2="9.22739" y2="19.5115" gradientUnits="userSpaceOnUse">
<stop stop-color="#0974F8"/>
<stop offset="1" stop-color="#4FB2FE"/>
</linearGradient>
<linearGradient id="paint2_linear_262_3126" x1="6.02671" y1="12.8809" x2="6.02671" y2="30.1551" gradientUnits="userSpaceOnUse">
<stop stop-color="#0974F8"/>
<stop offset="1" stop-color="#4FB2FE"/>
</linearGradient>
<linearGradient id="paint3_linear_262_3126" x1="26.8714" y1="18.4648" x2="26.8714" y2="19.5114" gradientUnits="userSpaceOnUse">
<stop stop-color="#0974F8"/>
<stop offset="1" stop-color="#4FB2FE"/>
</linearGradient>
<linearGradient id="paint4_linear_262_3126" x1="22.9753" y1="16.9199" x2="22.9753" y2="30.1548" gradientUnits="userSpaceOnUse">
<stop stop-color="#0974F8"/>
<stop offset="1" stop-color="#4FB2FE"/>
</linearGradient>
<linearGradient id="paint5_linear_262_3126" x1="29.9727" y1="12.8809" x2="29.9727" y2="30.1551" gradientUnits="userSpaceOnUse">
<stop stop-color="#0974F8"/>
<stop offset="1" stop-color="#4FB2FE"/>
</linearGradient>
<linearGradient id="paint6_linear_262_3126" x1="18" y1="5.84473" x2="18" y2="15.3947" gradientUnits="userSpaceOnUse">
<stop stop-color="#0974F8"/>
<stop offset="1" stop-color="#4FB2FE"/>
</linearGradient>
<linearGradient id="paint7_linear_262_3126" x1="13.1031" y1="7.85059" x2="13.1031" y2="15.395" gradientUnits="userSpaceOnUse">
<stop stop-color="#0974F8"/>
<stop offset="1" stop-color="#4FB2FE"/>
</linearGradient>
<linearGradient id="paint8_linear_262_3126" x1="22.8969" y1="7.85059" x2="22.8969" y2="15.3951" gradientUnits="userSpaceOnUse">
<stop stop-color="#0974F8"/>
<stop offset="1" stop-color="#4FB2FE"/>
</linearGradient>
<clipPath id="clip0_262_3126">
<rect width="36" height="36" fill="white"/>
</clipPath>
</defs>
</svg>
