<svg width="58" height="58" viewBox="0 0 58 58" fill="none" xmlns="http://www.w3.org/2000/svg">
<g filter="url(#filter0_dd_196_31786)">
<path d="M28.1212 10C27.1686 10 26.3939 10.741 26.3939 11.6522V11.6893C21.8521 12.0552 18.0168 15.2697 17.11 19.5662C17.0461 19.8024 16.9961 20.0676 16.9615 20.3567C16.9399 20.427 16.9087 20.5334 16.8974 20.6698C16.843 21.2877 16.6923 22.1182 16.4488 23.1367C16.4194 23.2606 16.3879 23.3823 16.3577 23.5062C18.0789 22.5446 20.1163 22.3913 21.2122 22.3913C24.1442 22.3913 26.7736 23.0546 27.3807 23.219H30.5872C31.1926 23.053 33.784 22.3929 36.7574 22.3929C37.628 22.3929 39.7993 22.5156 41.6423 23.5788L41.5327 23.1867C41.2822 22.1492 41.1275 21.3026 41.0722 20.6681C41.061 20.5434 41.034 20.4434 41.0081 20.3584C40.9736 20.0717 40.9251 19.8104 40.8698 19.6113C39.9543 15.2727 36.1184 12.0552 31.5757 11.6893V11.6522C31.5757 10.741 30.801 10 29.8484 10H28.1212ZM28.1212 11.6522H29.8484V23.2174H28.1212V11.6522ZM24.7409 14.9581C25.0767 14.9856 25.3774 15.2014 25.4881 15.5261C25.6358 15.9589 25.3891 16.4238 24.9383 16.5667C24.8441 16.5973 22.8293 17.2743 22.0235 19.3725C21.8948 19.7071 21.5637 19.913 21.2122 19.913C21.1129 19.913 21.0121 19.8961 20.9136 19.8614C20.4663 19.7045 20.2376 19.2301 20.4025 18.8014C21.5054 15.9282 24.281 15.0332 24.3985 14.9969C24.5125 14.9613 24.629 14.949 24.7409 14.9581ZM21.2274 24.0435C19.8076 24.0435 16.403 24.334 15.4401 27.0155C15.4401 27.0155 13.5115 31.0878 13.0314 32.1204C11.4725 35.471 10.0002 38.6342 10.0002 40.5491C9.99507 40.8233 10.0609 41.7982 11.1456 42.8531C12.1094 43.7899 14.3723 44.6773 17.363 45.3233C18.1463 44.5459 19.1852 43.3217 19.5254 42.0173C19.642 41.5745 20.1109 41.3065 20.5729 41.4155C21.0358 41.5262 21.3152 41.9747 21.2004 42.4175C20.842 43.7871 19.937 45.0325 19.1105 45.9428C20.2522 47.3241 23.5099 48 29 48C34.7759 48 38.0032 47.2929 39.0059 45.7944C38.5102 45.1154 37.9438 44.2029 37.6683 43.2661C37.5396 42.8275 37.8068 42.372 38.2654 42.248C38.7231 42.125 39.2002 42.3806 39.3298 42.8192C39.5914 43.7081 40.2653 44.678 40.7601 45.2926C43.6878 44.6491 45.9028 43.7767 46.8527 42.8531C47.9383 41.799 48.0049 40.8213 47.9998 40.5636C47.9998 38.6339 46.5283 35.471 44.9703 32.122C44.4893 31.0894 42.5684 27.0364 42.5684 27.0364C41.4819 24.26 37.8565 24.0451 36.7726 24.0451C33.699 24.0451 31.0087 24.8258 30.982 24.8341L30.7272 24.8712L27.0231 24.8696C26.9955 24.8613 24.238 24.0435 21.2274 24.0435ZM23.2633 25.6957C25.7462 25.6957 28.1364 27.3478 28.1364 27.3478V30.8732C28.3886 30.7361 28.6748 30.6522 28.9848 30.6522C29.307 30.6522 29.6054 30.7423 29.8636 30.8894V27.3478C29.8636 27.3478 32.2538 25.6957 34.7367 25.6957C37.3664 25.6957 38.4999 28.0707 38.4999 29.8261C38.4999 29.898 38.4849 29.9617 38.4746 30.0278C38.3683 31.8642 36.8729 35.4923 36.6967 35.9153C36.5611 36.2374 36.2358 36.4348 35.8938 36.4348C35.7867 36.4348 35.6787 36.4163 35.5733 36.3767C35.1303 36.2073 34.9147 35.7259 35.0909 35.3021C35.413 34.5314 36.0931 32.7778 36.4774 31.3685C35.7226 31.4982 35.0454 31.4783 35.0454 31.4783H30.4725C30.622 31.722 30.7121 32.002 30.7121 32.3043V39.7391H29.8484V34.7826H28.1212V39.7391H27.2576V32.3043C27.2576 32.002 27.3494 31.722 27.4971 31.4783H22.9546C22.9546 31.4783 22.2574 31.4976 21.4905 31.3621C21.874 32.7722 22.5557 34.5297 22.8787 35.3021C23.0558 35.7259 22.8402 36.2073 22.3963 36.3767C22.2918 36.4163 22.1829 36.4348 22.0758 36.4348C21.733 36.4348 21.4085 36.2374 21.2729 35.9153C21.0898 35.4766 19.4849 31.5865 19.4849 29.8261C19.4849 29.7947 19.4992 29.7679 19.5035 29.7373C19.5398 27.9918 20.6767 25.6957 23.2633 25.6957ZM25.5303 35.7733V39.7391H22.9394L25.5303 35.7733ZM32.4393 35.7733L35.0302 39.7391H32.4393V35.7733ZM33.2692 38.9147C33.2804 38.9312 33.2917 38.9465 33.3029 38.9631V38.9147H33.2692Z" fill="url(#paint0_linear_196_31786)"/>
</g>
<defs>
<filter id="filter0_dd_196_31786" x="0" y="0" width="58" height="58" filterUnits="userSpaceOnUse" color-interpolation-filters="sRGB">
<feFlood flood-opacity="0" result="BackgroundImageFix"/>
<feColorMatrix in="SourceAlpha" type="matrix" values="0 0 0 0 0 0 0 0 0 0 0 0 0 0 0 0 0 0 127 0" result="hardAlpha"/>
<feOffset dx="2" dy="2"/>
<feComposite in2="hardAlpha" operator="out"/>
<feColorMatrix type="matrix" values="0 0 0 0 0.0352941 0 0 0 0 0.454902 0 0 0 0 0.972549 0 0 0 0.2 0"/>
<feBlend mode="normal" in2="BackgroundImageFix" result="effect1_dropShadow_196_31786"/>
<feColorMatrix in="SourceAlpha" type="matrix" values="0 0 0 0 0 0 0 0 0 0 0 0 0 0 0 0 0 0 127 0" result="hardAlpha"/>
<feOffset/>
<feGaussianBlur stdDeviation="5"/>
<feComposite in2="hardAlpha" operator="out"/>
<feColorMatrix type="matrix" values="0 0 0 0 0.0980392 0 0 0 0 0.760784 0 0 0 0 0.937255 0 0 0 0.5 0"/>
<feBlend mode="normal" in2="effect1_dropShadow_196_31786" result="effect2_dropShadow_196_31786"/>
<feBlend mode="normal" in="SourceGraphic" in2="effect2_dropShadow_196_31786" result="shape"/>
</filter>
<linearGradient id="paint0_linear_196_31786" x1="29" y1="17.4848" x2="29" y2="38.7879" gradientUnits="userSpaceOnUse">
<stop stop-color="#E1F0FF"/>
<stop offset="1" stop-color="#C9E9FB"/>
</linearGradient>
</defs>
</svg>
