<svg width="28" height="28" viewBox="0 0 28 28" fill="none" xmlns="http://www.w3.org/2000/svg">
<path d="M7.48469 24.2961C5.47204 23.3621 3.80287 22.5839 3.77543 22.5667C3.74145 22.5447 3.82033 21.5005 4.02283 19.2891C4.18635 17.5035 4.32108 15.9649 4.32223 15.8699L4.32423 15.6979L4.05097 15.6779C3.56986 15.6419 3.17866 15.3699 2.97562 14.9309C2.87786 14.7197 2.87474 14.6511 2.87474 12.7169C2.87474 10.7347 2.8755 10.7191 2.98398 10.4837C3.11644 10.1963 3.2387 10.0601 3.50443 9.9039L3.70641 9.7859V6.7489V3.7117H3.19864C2.78105 3.7117 2.65452 3.6917 2.48611 3.6117C1.86003 3.3087 1.86525 2.3997 2.49491 2.0949C2.68085 2.0049 2.78782 2.0009 4.56506 2.0009C6.28543 2.0019 6.45474 2.0009 6.62924 2.0889C6.97176 2.2469 7.12825 2.4963 7.12825 2.8837C7.12825 3.1285 7.05127 3.2995 6.85922 3.4813C6.63952 3.6891 6.51626 3.7099 5.50933 3.7099H4.56194V8.8839V14.0579L4.85896 14.1139C7.29641 14.5775 9.51213 16.4021 10.8205 19.0231C11.6942 20.7731 12.1791 22.8329 12.2471 25.0835L12.2748 25.9983H11.7094L11.144 25.9963L7.48469 24.2961ZM13.1638 19.8213C13.1638 16.4229 13.1574 13.6425 13.1496 13.6425C13.1175 13.6425 5.62252 12.3105 5.52247 12.2871C5.41805 12.2631 5.41425 12.2451 5.42743 11.8471L5.44123 11.4325L14.8629 11.4125L24.2846 11.3925V11.8195C24.2846 12.2231 24.2788 12.2479 24.1777 12.2719C24.1189 12.2919 22.4989 12.5755 20.5777 12.9153C18.6565 13.2553 16.9725 13.5559 16.8354 13.5833L16.586 13.6333L16.574 19.7963L16.562 25.9591L14.863 25.9791L13.164 25.9991L13.1638 19.8213ZM17.4563 25.1553C17.5537 22.4119 18.2028 20.0415 19.3759 18.1449C20.504 16.3213 22.1472 14.9575 23.9396 14.3569C24.3867 14.2069 25.0838 14.0457 25.1213 14.0833C25.142 14.1033 25.9975 22.5459 25.9801 22.5579C25.9753 22.5579 24.3017 23.3367 22.2607 24.2813L18.5497 25.9987H17.988H17.4263L17.4563 25.1553ZM5.49085 9.5435C5.67713 8.1027 5.88494 7.3761 6.39815 6.3713C7.47964 4.2537 9.53352 2.8047 12.2206 2.2635C13.2067 2.0655 13.6488 2.0253 14.8747 2.0267C16.9686 2.0287 18.3855 2.3281 19.936 3.0945C20.7629 3.5033 21.3613 3.9273 21.9778 4.5415C23.2581 5.8171 23.9506 7.3363 24.2147 9.4485L24.2459 9.6979H14.8584H5.47089L5.49085 9.5435ZM19.8731 6.9789C20.4086 6.7329 20.7746 6.2571 20.8433 5.7177C20.8607 5.5797 20.8637 5.4683 20.8499 5.4683C20.8361 5.4683 20.7172 5.5403 20.5858 5.6283C19.8744 6.1071 18.7404 6.1683 17.9514 5.7703C17.8144 5.7023 17.6435 5.6043 17.5717 5.5527L17.441 5.4607V5.6527C17.441 6.2291 17.8949 6.7973 18.5497 7.0405C18.9083 7.1745 19.5074 7.1445 19.873 6.9765L19.8731 6.9789Z" fill="url(#paint0_linear_546_2374)"/>
<path d="M7.69516 23.8426L7.69537 23.8427L11.2554 25.4967L11.7094 25.4983H11.7101H11.7594L11.7473 25.0986C11.6811 22.9095 11.21 20.9225 10.3732 19.2464L10.3732 19.2464C9.12029 16.7366 7.02094 15.0341 4.76554 14.6051L4.4693 14.5492L4.06194 14.4724V14.0579V10.1573L3.95863 10.2176L3.7578 10.3349C3.75763 10.335 3.75746 10.3351 3.7573 10.3352C3.65082 10.3979 3.60049 10.4405 3.56631 10.4786C3.53153 10.5173 3.49264 10.5746 3.43808 10.693L7.69516 23.8426ZM7.69516 23.8426C6.68902 23.3756 5.76885 22.9477 5.09689 22.6344C4.76086 22.4778 4.48716 22.3499 4.29589 22.2602C4.28958 22.2572 4.28336 22.2543 4.27724 22.2514C4.28404 22.1326 4.29455 21.9784 4.30903 21.7866C4.3495 21.2505 4.41954 20.4399 4.52075 19.3347C4.60255 18.4414 4.67717 17.6097 4.73151 16.9891C4.78413 16.3882 4.82131 15.9483 4.82219 15.876L4.8222 15.8757M7.69516 23.8426L4.8222 15.8757M4.06194 3.2117H3.70641H3.19864C2.99079 3.2117 2.88613 3.20623 2.81972 3.19674C2.77158 3.18985 2.74617 3.18158 2.70251 3.16095C2.46204 3.04314 2.4518 2.67129 2.71275 2.54495L4.06194 3.2117ZM4.06194 3.2117V3.2099H4.56194H5.50933C6.02893 3.2099 6.26279 3.2031 6.39602 3.18054C6.42377 3.17584 6.44019 3.17144 6.44919 3.16857C6.45741 3.16595 6.46045 3.16429 6.46109 3.16395L6.46119 3.1639C6.46267 3.16312 6.47454 3.15691 6.51548 3.1182M4.06194 3.2117L6.51548 3.1182M6.51548 3.1182C6.57887 3.0582 6.60053 3.02151 6.60982 3.00088C6.61816 2.98235 6.62825 2.95117 6.62825 2.8837C6.62825 2.75751 6.6032 2.69715 6.58371 2.66611C6.56494 2.63621 6.5251 2.5915 6.41981 2.54292L6.41189 2.53927L6.4041 2.53535C6.4035 2.53504 6.40308 2.53478 6.40269 2.53454C6.40089 2.53343 6.39966 2.53268 6.38514 2.53002C6.35362 2.52426 6.29088 2.5171 6.15739 2.5119C5.89483 2.50167 5.44628 2.50141 4.60605 2.50092L4.56506 2.5009C4.56496 2.5009 4.56487 2.5009 4.56477 2.5009C3.6697 2.5009 3.21354 2.50204 2.95573 2.51364C2.82719 2.51943 2.77188 2.52705 2.74673 2.53217C2.74616 2.53229 2.74561 2.5324 2.74508 2.53251C2.73567 2.53441 2.73371 2.53481 2.71276 2.54495L6.51548 3.1182ZM4.8222 15.8757L4.8242 15.7037L4.82966 15.2336M4.8222 15.8757L4.82966 15.2336M4.82966 15.2336L4.36073 15.1992M4.82966 15.2336L4.36073 15.1992M4.36073 15.1992L4.08828 15.1793C4.08817 15.1793 4.08807 15.1793 4.08797 15.1793C3.7888 15.1568 3.55662 14.996 3.42944 14.721L3.42937 14.7209M4.36073 15.1992L3.42937 14.7209M3.42937 14.7209C3.41164 14.6826 3.41057 14.6775 3.40785 14.6647M3.42937 14.7209L3.40785 14.6647M23.6756 9.1979H14.8584H6.0433C6.21079 8.06785 6.41208 7.44325 6.84343 6.59873L6.84344 6.59872C7.84438 4.63885 9.7559 3.27003 12.319 2.75372L23.6756 9.1979ZM23.6756 9.1979C23.3959 7.34156 22.7506 6.01723 21.6249 4.8957C21.0491 4.32203 20.4957 3.92898 19.7145 3.54273C18.2456 2.81668 16.9072 2.52864 14.8742 2.5267L14.8741 2.5267C13.6751 2.52533 13.2669 2.56342 12.3193 2.75366L23.6756 9.1979ZM20.8138 5.96705C20.8255 5.96787 20.8376 5.9683 20.8499 5.9683C20.876 5.9683 20.898 5.96623 20.9141 5.96411C20.9306 5.96195 20.9446 5.95927 20.9553 5.95691C20.9763 5.95231 20.9929 5.94721 21.003 5.94387C21.0228 5.93732 21.0372 5.93106 21.0426 5.92863C21.0544 5.92343 21.0606 5.91992 21.0577 5.92146C21.0536 5.92367 21.0418 5.93036 21.021 5.94293C20.981 5.96718 20.9249 6.00295 20.864 6.04378L20.8125 5.96696M20.8138 5.96705C20.8134 5.96702 20.8129 5.96699 20.8125 5.96696M20.8138 5.96705L20.7968 5.94181C20.818 5.86868 20.8336 5.79382 20.8433 5.7177C20.8458 5.69789 20.848 5.67863 20.8499 5.66017C20.8612 5.55001 20.8617 5.4683 20.8499 5.4683C20.8361 5.4683 20.7172 5.5403 20.5858 5.6283C20.5617 5.64453 20.5371 5.66028 20.512 5.67555L20.3904 5.66008M20.8138 5.96705L20.3904 5.66008M20.8125 5.96696C20.8049 5.9664 20.7973 5.96568 20.7899 5.9648C20.7922 5.95754 20.7943 5.95026 20.7964 5.94296L20.8125 5.96696ZM20.3904 5.66008C20.388 5.65401 20.386 5.6488 20.3845 5.64463C20.3655 5.59253 20.361 5.55088 20.3602 5.54329L20.3601 5.54271C20.3587 5.52964 20.3585 5.52134 20.3585 5.52028C20.3585 5.5196 20.3586 5.52191 20.3585 5.52787C20.3578 5.5516 20.3546 5.59672 20.3472 5.65515C20.3419 5.69621 20.334 5.73707 20.3234 5.77751C19.6173 6.11489 18.6505 6.12229 17.9528 5.77098C17.9526 5.77017 17.9525 5.76936 17.9523 5.76854C17.9523 5.76854 17.9523 5.76853 17.9523 5.76852C17.9448 5.72891 17.941 5.69013 17.941 5.6527V5.4607H17.6377H17.6364H17.441L17.3058 5.6527L17.1532 5.86956L17.2823 5.96046C17.3446 6.00496 17.4398 6.06238 17.5375 6.11683C17.704 6.51532 18.0738 6.86374 18.5497 7.0405L20.3904 5.66008ZM3.40785 14.6647L3.40779 14.6644M3.40785 14.6647L3.40779 14.6644M3.40779 14.6644C3.40229 14.6384 3.39414 14.5819 3.388 14.4473M3.40779 14.6644L3.388 14.4473M3.388 14.4473C3.37567 14.1765 3.37474 13.6912 3.37474 12.7169M3.388 14.4473L3.37474 12.7169M3.37474 12.7169C3.37474 11.7173 3.3751 11.235 3.38808 10.9697M3.37474 12.7169L3.38808 10.9697M3.38808 10.9697C3.39449 10.8387 3.40303 10.7884 3.40801 10.7671M3.38808 10.9697L3.40801 10.7671M3.40801 10.7671L3.40809 10.7667M3.40801 10.7671L3.40809 10.7667M3.40809 10.7667C3.41086 10.7549 3.4122 10.7491 3.43807 10.693L3.40809 10.7667ZM13.664 25.4932L13.6638 19.8213C13.6638 18.1218 13.6622 16.5767 13.6597 15.4564C13.6584 14.8962 13.6568 14.4419 13.6551 14.1273C13.6543 13.9702 13.6534 13.8472 13.6525 13.763C13.652 13.7213 13.6515 13.6875 13.651 13.6633C13.6507 13.6519 13.6504 13.6393 13.6499 13.6282C13.6498 13.6265 13.6497 13.6239 13.6495 13.6207C13.6492 13.6152 13.6487 13.6079 13.648 13.5998L13.648 13.5995C13.6476 13.5949 13.6459 13.5769 13.6419 13.5546L13.6419 13.5542C13.6404 13.5459 13.6345 13.5132 13.6203 13.4736C13.6111 13.4499 13.5799 13.3878 13.5558 13.3509C13.5006 13.2864 13.2994 13.1655 13.1496 13.1425C13.1635 13.1427 13.1845 13.1437 13.1916 13.1443L13.206 13.1457L13.2167 13.1471C13.2196 13.1475 13.2212 13.1477 13.2201 13.1476L13.2074 13.1455L13.1446 13.1348C13.0887 13.1252 13.007 13.1109 12.9031 13.0927C12.6952 13.0563 12.3997 13.0042 12.0454 12.9416C11.3369 12.8164 10.3941 12.6492 9.44902 12.4813C8.50397 12.3133 7.55688 12.1447 6.83986 12.0166C6.66476 11.9853 6.50342 11.9564 6.35921 11.9306L14.864 11.9125L23.4774 11.8942C23.3352 11.9197 23.1712 11.949 22.9886 11.9814C22.5984 12.0507 22.1252 12.1342 21.6021 12.2266C21.2507 12.2886 20.8769 12.3546 20.4906 12.4229L20.4906 12.423C18.5748 12.762 16.8817 13.0642 16.7374 13.093L16.737 13.0931L16.4877 13.1431L16.0868 13.2235L16.086 13.6323L16.074 19.7953L16.063 25.4649L14.8572 25.4791L13.664 25.4932ZM4.00203 22.1211C4.00217 22.1212 4.00341 22.1218 4.00548 22.1229C4.00294 22.1216 4.00189 22.1211 4.00203 22.1211ZM24.0985 14.831L24.0986 14.8309C24.2703 14.7734 24.4876 14.7123 24.6848 14.6637C24.7078 14.8787 24.7366 15.1515 24.7694 15.4661C24.8522 16.2599 24.9604 17.317 25.0676 18.374C25.1747 19.4311 25.2806 20.4876 25.3586 21.2805C25.3976 21.677 25.4296 22.0069 25.4513 22.2378C25.4517 22.2421 25.4521 22.2464 25.4525 22.2506L24.6736 22.6118C23.9994 22.9246 23.0709 23.3554 22.0507 23.8275L18.4396 25.4987H17.988H17.9444L17.956 25.173C18.051 22.4966 18.6831 20.2154 19.8011 18.4079C20.8765 16.6695 22.4315 15.3895 24.0985 14.831ZM19.387 7.60938L19.3901 7.75098L20.0818 7.43325C20.7584 7.12244 21.2467 6.50804 21.3393 5.78082L21.3393 5.78025C21.3494 5.70068 21.3563 5.6211 21.3581 5.55463C21.3589 5.52476 21.3593 5.47969 21.3541 5.43302C21.3521 5.4147 21.346 5.36236 21.324 5.30209C21.3136 5.27362 21.2876 5.20861 21.2305 5.14252C21.1676 5.06986 21.0396 4.9683 20.8499 4.9683C20.7673 4.9683 20.7036 4.98958 20.6904 4.99399L20.6891 4.99439C20.666 5.00204 20.6475 5.00993 20.6372 5.0145C20.6158 5.02399 20.597 5.0338 20.5848 5.04039C20.5586 5.05443 20.53 5.07124 20.5028 5.08767C20.4471 5.12142 20.3781 5.16565 20.3076 5.21282L20.3066 5.2135C19.7508 5.58758 18.8102 5.64349 18.1766 5.32387L18.1737 5.32243C18.0465 5.25929 17.9032 5.17518 17.8632 5.14652L17.8633 5.1465L17.8595 5.14384L17.7288 5.05184L16.941 4.4973V5.4607V5.6527C16.941 6.48939 17.5778 7.21278 18.3753 7.50912C18.6389 7.60745 18.9514 7.63493 19.2331 7.62115C19.2838 7.61868 19.3352 7.61478 19.387 7.60938ZM20.5115 5.67587C20.4827 5.69338 20.4534 5.71026 20.4235 5.7265C20.4079 5.70034 20.3974 5.67729 20.3907 5.66063L20.5115 5.67587Z" stroke="#19C2EF" stroke-opacity="0.55"/>
<defs>
<linearGradient id="paint0_linear_546_2374" x1="14" y1="2.0009" x2="14" y2="25.9991" gradientUnits="userSpaceOnUse">
<stop stop-color="#0974F8"/>
<stop offset="1" stop-color="#4FB2FE"/>
</linearGradient>
</defs>
</svg>
