<svg width="28" height="28" viewBox="0 0 28 28" fill="none" xmlns="http://www.w3.org/2000/svg">
<path d="M7.4847 24.2962C5.47205 23.3622 3.80288 22.584 3.77543 22.5668C3.74145 22.5448 3.82033 21.5006 4.02284 19.2892C4.18636 17.5036 4.32108 15.965 4.32224 15.87L4.32424 15.698L4.05097 15.678C3.56987 15.642 3.17866 15.37 2.97563 14.931C2.87787 14.7198 2.87475 14.6512 2.87475 12.717C2.87475 10.7348 2.87551 10.7192 2.98399 10.4838C3.11645 10.1964 3.23871 10.0602 3.50444 9.90398L3.70641 9.78598V6.74898V3.71178H3.19865C2.78106 3.71178 2.65453 3.69178 2.48612 3.61178C1.86004 3.30878 1.86526 2.39978 2.49492 2.09498C2.68086 2.00498 2.78783 2.00098 4.56507 2.00098C6.28543 2.00198 6.45474 2.00098 6.62925 2.08898C6.97177 2.24698 7.12825 2.49638 7.12825 2.88378C7.12825 3.12858 7.05127 3.29958 6.85923 3.48138C6.63952 3.68918 6.51627 3.70998 5.50934 3.70998H4.56194V8.88398V14.058L4.85897 14.114C7.29642 14.5776 9.51213 16.4022 10.8206 19.0232C11.6942 20.7732 12.1791 22.833 12.2471 25.0836L12.2748 25.9984H11.7094L11.1441 25.9964L7.4847 24.2962ZM13.1638 19.8214C13.1638 16.423 13.1574 13.6426 13.1496 13.6426C13.1175 13.6426 5.62253 12.3106 5.52248 12.2872C5.41806 12.2632 5.41426 12.2452 5.42744 11.8472L5.44124 11.4326L14.8629 11.4126L24.2846 11.3926V11.8196C24.2846 12.2232 24.2788 12.248 24.1777 12.272C24.1189 12.292 22.4989 12.5756 20.5777 12.9154C18.6566 13.2554 16.9725 13.556 16.8354 13.5834L16.586 13.6334L16.574 19.7964L16.562 25.9592L14.863 25.9792L13.1641 25.9992L13.1638 19.8214ZM17.4563 25.1554C17.5537 22.412 18.2028 20.0416 19.3759 18.145C20.504 16.3214 22.1472 14.9576 23.9396 14.357C24.3867 14.207 25.0838 14.0458 25.1213 14.0834C25.142 14.1034 25.9975 22.546 25.9801 22.558C25.9753 22.558 24.3017 23.3368 22.2607 24.2814L18.5497 25.9988H17.988H17.4263L17.4563 25.1554ZM5.49086 9.54358C5.67714 8.10278 5.88494 7.37618 6.39816 6.37138C7.47965 4.25378 9.53353 2.80478 12.2206 2.26358C13.2067 2.06558 13.6488 2.02538 14.8747 2.02678C16.9686 2.02878 18.3855 2.32818 19.9361 3.09458C20.7629 3.50338 21.3613 3.92738 21.9778 4.54158C23.2581 5.81718 23.9507 7.33638 24.2147 9.44858L24.2459 9.69798H14.8584H5.4709L5.49086 9.54358ZM19.8731 6.97898C20.4086 6.73298 20.7746 6.25718 20.8433 5.71778C20.8607 5.57978 20.8637 5.46838 20.8499 5.46838C20.8361 5.46838 20.7172 5.54038 20.5858 5.62838C19.8744 6.10718 18.7405 6.16838 17.9514 5.77038C17.8144 5.70238 17.6436 5.60438 17.5717 5.55278L17.441 5.46078V5.65278C17.441 6.22918 17.895 6.79738 18.5497 7.04058C18.9083 7.17458 19.5074 7.14458 19.873 6.97658L19.8731 6.97898Z" fill="url(#paint0_linear_128_10)"/>
<path d="M7.69517 23.8426L7.69538 23.8427L11.2554 25.4968L11.7094 25.4984H11.7101H11.7594L11.7473 25.0987C11.6812 22.9096 11.21 20.9226 10.3732 19.2465L10.3732 19.2465C9.12029 16.7367 7.02094 15.0341 4.76554 14.6052L4.46931 14.5493L4.06194 14.4725V14.058V10.1573L3.95864 10.2177L3.75781 10.335C3.75762 10.3351 3.75742 10.3352 3.75723 10.3354C3.6508 10.398 3.60049 10.4406 3.56632 10.4787C3.53154 10.5174 3.49265 10.5747 3.43809 10.693L7.69517 23.8426ZM7.69517 23.8426C6.68903 23.3757 5.76886 22.9478 5.09689 22.6345C4.76086 22.4778 4.48716 22.35 4.2959 22.2602C4.28959 22.2573 4.28337 22.2544 4.27725 22.2515C4.28405 22.1327 4.29455 21.9784 4.30904 21.7866C4.3495 21.2506 4.41954 20.44 4.52075 19.3348C4.60256 18.4415 4.67718 17.6098 4.73152 16.9892C4.78414 16.3883 4.82132 15.9484 4.8222 15.876L4.8222 15.8758M7.69517 23.8426L4.8222 15.8758M4.06194 3.21178H3.70641H3.19865C2.9908 3.21178 2.88614 3.20631 2.81973 3.19681C2.77159 3.18993 2.74618 3.18166 2.70252 3.16103C2.46205 3.04322 2.4518 2.67136 2.71276 2.54503L4.06194 3.21178ZM4.06194 3.21178V3.20998H4.56194H5.50934C6.02894 3.20998 6.2628 3.20317 6.39603 3.18062C6.42378 3.17592 6.4402 3.17152 6.4492 3.16865C6.45742 3.16603 6.46046 3.16437 6.4611 3.16403L6.4612 3.16398C6.46268 3.1632 6.47455 3.15699 6.51549 3.11827L4.06194 3.21178ZM4.8222 15.8758L4.8242 15.7038L4.82967 15.2336M4.8222 15.8758L4.82967 15.2336M4.82967 15.2336L4.36073 15.1993M4.82967 15.2336L4.36073 15.1993M4.36073 15.1993L4.08828 15.1794C4.08818 15.1794 4.08808 15.1794 4.08797 15.1793C3.7888 15.1569 3.55663 14.9961 3.42944 14.7211L3.42938 14.7209M4.36073 15.1993L3.42938 14.7209M3.42938 14.7209C3.41165 14.6826 3.41057 14.6776 3.40786 14.6648M3.42938 14.7209L3.40786 14.6648M23.6756 9.19798H14.8584H6.04331C6.2108 8.06793 6.41209 7.44333 6.84344 6.59881L6.84345 6.59879C7.84438 4.63892 9.75591 3.2701 12.319 2.75379L23.6756 9.19798ZM23.6756 9.19798C23.3959 7.34163 22.7506 6.01731 21.6249 4.89578C21.0491 4.3221 20.4957 3.92905 19.7145 3.54281C18.2456 2.81675 16.9072 2.52872 14.8742 2.52678L14.8741 2.52678C13.6751 2.52541 13.2669 2.5635 12.3193 2.75373L23.6756 9.19798ZM19.387 7.60945L19.3902 7.75106L20.0818 7.43333C20.7584 7.12251 21.2467 6.50811 21.3393 5.7809L21.3393 5.78032C21.3494 5.70076 21.3563 5.62117 21.3581 5.55471C21.3589 5.52483 21.3593 5.47977 21.3541 5.4331C21.3521 5.41478 21.346 5.36244 21.324 5.30217C21.3137 5.27371 21.2876 5.2087 21.2305 5.14261C21.1676 5.06995 21.0396 4.96838 20.8499 4.96838C20.7673 4.96838 20.7036 4.98966 20.6904 4.99406L20.6892 4.99446C20.666 5.00211 20.6476 5.01 20.6372 5.01457C20.6158 5.02406 20.597 5.03388 20.5848 5.04046C20.5586 5.05451 20.53 5.07131 20.5028 5.08774C20.4471 5.1215 20.3781 5.16573 20.3076 5.2129L20.3066 5.21358C19.7508 5.58766 18.8102 5.64357 18.1766 5.32395L18.1737 5.32251C18.0465 5.25937 17.9032 5.17525 17.8633 5.1466L17.8633 5.14658L17.8595 5.14391L17.7288 5.05191L16.941 4.49737V5.46078V5.65278C16.941 6.4894 17.5777 7.21274 18.3751 7.50912C18.375 7.50907 18.3748 7.50901 18.3747 7.50896L19.387 7.60945ZM19.387 7.60945C19.3352 7.61486 19.2838 7.61875 19.2331 7.62123C18.9515 7.635 18.6391 7.60754 18.3756 7.50928L19.387 7.60945ZM20.8647 6.04337C20.8644 6.04353 20.8642 6.04369 20.864 6.04385L20.8125 5.96703M20.8647 6.04337C20.8648 6.0433 20.8649 6.04324 20.865 6.04318L20.8138 5.96712M20.8647 6.04337C20.9254 6.00274 20.9812 5.96716 21.021 5.94301C21.0418 5.93044 21.0536 5.92374 21.0578 5.92154C21.0606 5.92 21.0544 5.9235 21.0426 5.92871C21.0372 5.93114 21.0228 5.9374 21.003 5.94395C20.9929 5.94729 20.9763 5.95238 20.9553 5.95698C20.9446 5.95935 20.9306 5.96203 20.9141 5.96419C20.898 5.9663 20.876 5.96838 20.8499 5.96838C20.8376 5.96838 20.8255 5.96795 20.8138 5.96712M20.8647 6.04337L20.7968 5.94188M20.8125 5.96703C20.8129 5.96706 20.8134 5.96709 20.8138 5.96712M20.8125 5.96703C20.8049 5.96648 20.7973 5.96576 20.7899 5.96488L20.7968 5.94188M20.8125 5.96703L20.7965 5.94304C20.7966 5.94265 20.7967 5.94227 20.7968 5.94188M20.8138 5.96712L20.7968 5.94188M20.7968 5.94188C20.818 5.86876 20.8336 5.7939 20.8433 5.71778C20.8458 5.69797 20.848 5.6787 20.8499 5.66024C20.8612 5.55009 20.8617 5.46838 20.8499 5.46838C20.8361 5.46838 20.7172 5.54038 20.5858 5.62838C20.5617 5.64461 20.5371 5.66036 20.512 5.67562L20.3904 5.66015C20.388 5.65408 20.386 5.64887 20.3845 5.64469C20.3655 5.59264 20.361 5.55102 20.3602 5.54338L20.3601 5.54278C20.3587 5.52929 20.3585 5.52088 20.3586 5.52028C20.3586 5.51992 20.3586 5.52229 20.3585 5.52795C20.3578 5.55165 20.3546 5.59668 20.3472 5.65502C20.342 5.69615 20.334 5.73708 20.3234 5.77759L20.7968 5.94188ZM3.40786 14.6648L3.40779 14.6644M3.40786 14.6648L3.40779 14.6644M3.40779 14.6644C3.4023 14.6384 3.39415 14.582 3.38801 14.4473M3.40779 14.6644L3.38801 14.4473M3.38801 14.4473C3.37567 14.1766 3.37475 13.6913 3.37475 12.717M3.38801 14.4473L3.37475 12.717M3.37475 12.717C3.37475 11.7173 3.37511 11.2351 3.38809 10.9698M3.37475 12.717L3.38809 10.9698M3.38809 10.9698C3.3945 10.8388 3.40304 10.7884 3.40802 10.7671M3.38809 10.9698L3.40802 10.7671M3.40802 10.7671L3.40809 10.7668M3.40802 10.7671L3.40809 10.7668M3.40809 10.7668C3.41087 10.7549 3.41221 10.7492 3.43808 10.6931L3.40809 10.7668ZM6.60983 3.00095C6.60055 3.02157 6.57891 3.05821 6.51566 3.11812L2.71277 2.54502C2.73372 2.53488 2.73568 2.53449 2.74509 2.53258C2.74562 2.53248 2.74616 2.53237 2.74674 2.53225C2.77189 2.52713 2.8272 2.51951 2.95574 2.51372C3.21355 2.50212 3.66971 2.50098 4.56478 2.50098C4.56487 2.50098 4.56497 2.50098 4.56507 2.50098L4.60606 2.501C5.44629 2.50149 5.89484 2.50175 6.15739 2.51197C6.29089 2.51717 6.35362 2.52434 6.38515 2.5301C6.39967 2.53275 6.4009 2.53351 6.40269 2.53462C6.40309 2.53486 6.40351 2.53512 6.40411 2.53542L6.4119 2.53935L6.41981 2.543C6.52511 2.59157 6.56495 2.63629 6.58372 2.66619C6.60321 2.69723 6.62825 2.75758 6.62825 2.88378C6.62825 2.95125 6.61817 2.98243 6.60983 3.00095ZM13.664 25.4933L13.6638 19.8214C13.6638 18.1219 13.6622 16.5768 13.6597 15.4564C13.6584 14.8963 13.6568 14.442 13.6551 14.1274C13.6543 13.9703 13.6534 13.8473 13.6525 13.7631C13.652 13.7214 13.6515 13.6875 13.651 13.6634C13.6507 13.652 13.6504 13.6394 13.6499 13.6282C13.6497 13.6239 13.6492 13.6128 13.648 13.5999L13.648 13.5996C13.6476 13.595 13.646 13.577 13.642 13.5547L13.6419 13.5543C13.6404 13.546 13.6345 13.5133 13.6203 13.4737C13.6111 13.45 13.5799 13.3878 13.5558 13.3509C13.5007 13.2865 13.2994 13.1655 13.1496 13.1426C13.1635 13.1428 13.1845 13.1438 13.1917 13.1444L13.206 13.1458L13.2167 13.1471C13.2196 13.1475 13.2212 13.1478 13.2201 13.1476L13.2074 13.1456L13.1447 13.1349C13.0887 13.1252 13.0071 13.111 12.9031 13.0928C12.6952 13.0564 12.3997 13.0043 12.0454 12.9417C11.3369 12.8165 10.3941 12.6493 9.44903 12.4814C8.50398 12.3134 7.55689 12.1448 6.83987 12.0166C6.66477 11.9853 6.50343 11.9565 6.35922 11.9306L14.864 11.9126L23.4774 11.8943C23.3352 11.9198 23.1712 11.949 22.9887 11.9815C22.5983 12.0508 22.1248 12.1344 21.6014 12.2268C21.2503 12.2888 20.8766 12.3547 20.4906 12.423L20.4906 12.423C18.5748 12.7621 16.8817 13.0642 16.7374 13.0931L16.7371 13.0931L16.4877 13.1431L16.0868 13.2235L16.086 13.6324L16.074 19.7954L16.063 25.465L14.8572 25.4792L13.664 25.4933ZM4.00204 22.1212C4.00218 22.1212 4.00342 22.1219 4.00548 22.1229C4.00294 22.1217 4.0019 22.1211 4.00204 22.1212ZM24.0985 14.8311L24.0987 14.831C24.2703 14.7734 24.4876 14.7124 24.6848 14.6638C24.7078 14.8787 24.7366 15.1516 24.7694 15.4661C24.8522 16.26 24.9605 17.317 25.0676 18.3741C25.1747 19.4311 25.2806 20.4877 25.3586 21.2805C25.3976 21.6771 25.4296 22.007 25.4513 22.2379C25.4517 22.2422 25.4521 22.2464 25.4525 22.2506L24.6736 22.6119C23.9994 22.9247 23.071 23.3554 22.0507 23.8276L18.4397 25.4988H17.988H17.9444L17.956 25.1731C18.051 22.4967 18.6831 20.2154 19.8012 18.408C20.8765 16.6696 22.4315 15.3896 24.0985 14.8311ZM20.3907 5.66071L20.5115 5.67594L20.3907 5.66071Z" stroke="#19C2EF" stroke-opacity="0.55"/>
<defs>
<linearGradient id="paint0_linear_128_10" x1="14" y1="2.00098" x2="14" y2="25.9992" gradientUnits="userSpaceOnUse">
<stop stop-color="#0974F8"/>
<stop offset="1" stop-color="#4FB2FE"/>
</linearGradient>
</defs>
</svg>
