<svg width="180" height="110" viewBox="0 0 180 110" fill="none" xmlns="http://www.w3.org/2000/svg">
<g clip-path="url(#clip0_767_41)">
<g filter="url(#filter0_f_767_41)">
<rect y="16" width="170" height="94" fill="url(#paint0_linear_767_41)"/>
</g>
<rect opacity="0.2" y="16" width="181" height="94" fill="url(#paint1_linear_767_41)"/>
<path d="M0 17H180V18H0V17Z" fill="url(#paint2_linear_767_41)"/>
<path d="M0 20H180V21H0V20Z" fill="url(#paint3_linear_767_41)"/>
<path d="M0 23H180V24H0V23Z" fill="url(#paint4_linear_767_41)"/>
<path d="M0 26H180V27H0V26Z" fill="url(#paint5_linear_767_41)"/>
<path d="M0 29H180V30H0V29Z" fill="url(#paint6_linear_767_41)"/>
<path d="M0 32H180V33H0V32Z" fill="url(#paint7_linear_767_41)"/>
<path d="M0 35H180V36H0V35Z" fill="url(#paint8_linear_767_41)"/>
<path d="M0 38H180V39H0V38Z" fill="url(#paint9_linear_767_41)"/>
<path d="M0 41H180V42H0V41Z" fill="url(#paint10_linear_767_41)"/>
<path d="M0 44H180V45H0V44Z" fill="url(#paint11_linear_767_41)"/>
<path d="M0 47H180V48H0V47Z" fill="url(#paint12_linear_767_41)"/>
<path d="M0 50H180V51H0V50Z" fill="url(#paint13_linear_767_41)"/>
<path d="M0 53H180V54H0V53Z" fill="url(#paint14_linear_767_41)"/>
<path d="M0 56H180V57H0V56Z" fill="url(#paint15_linear_767_41)"/>
<path d="M0 59H180V60H0V59Z" fill="url(#paint16_linear_767_41)"/>
<path d="M0 62H180V63H0V62Z" fill="url(#paint17_linear_767_41)"/>
<path d="M0 65H180V66H0V65Z" fill="url(#paint18_linear_767_41)"/>
<path d="M0 68H180V69H0V68Z" fill="url(#paint19_linear_767_41)"/>
<path d="M0 71H180V72H0V71Z" fill="url(#paint20_linear_767_41)"/>
<path d="M0 74H180V75H0V74Z" fill="url(#paint21_linear_767_41)"/>
<path d="M0 77H180V78H0V77Z" fill="url(#paint22_linear_767_41)"/>
<path d="M0 80H180V81H0V80Z" fill="url(#paint23_linear_767_41)"/>
<path d="M0 83H180V84H0V83Z" fill="url(#paint24_linear_767_41)"/>
<path d="M0 86H180V87H0V86Z" fill="url(#paint25_linear_767_41)"/>
<path d="M0 89H180V90H0V89Z" fill="url(#paint26_linear_767_41)"/>
<path d="M0 92H180V93H0V92Z" fill="url(#paint27_linear_767_41)"/>
<path d="M0 95H180V96H0V95Z" fill="url(#paint28_linear_767_41)"/>
</g>
<defs>
<filter id="filter0_f_767_41" x="-20" y="-4" width="210" height="134" filterUnits="userSpaceOnUse" color-interpolation-filters="sRGB">
<feFlood flood-opacity="0" result="BackgroundImageFix"/>
<feBlend mode="normal" in="SourceGraphic" in2="BackgroundImageFix" result="shape"/>
<feGaussianBlur stdDeviation="10" result="effect1_foregroundBlur_767_41"/>
</filter>
<linearGradient id="paint0_linear_767_41" x1="0.0843885" y1="110" x2="169.916" y2="16" gradientUnits="userSpaceOnUse">
<stop offset="0.204384" stop-color="#43CA3F"/>
<stop offset="0.898723" stop-color="#0974F8" stop-opacity="0"/>
</linearGradient>
<linearGradient id="paint1_linear_767_41" x1="6.64107" y1="110" x2="167.827" y2="5.88726" gradientUnits="userSpaceOnUse">
<stop offset="0.284668" stop-color="#43CA3F"/>
<stop offset="0.753954" stop-color="#0974F8" stop-opacity="0"/>
</linearGradient>
<linearGradient id="paint2_linear_767_41" x1="14.4193" y1="144.363" x2="165.581" y2="46.6374" gradientUnits="userSpaceOnUse">
<stop offset="0.480379" stop-color="#43CA3F"/>
<stop offset="0.915194" stop-color="#0974F8" stop-opacity="0"/>
</linearGradient>
<linearGradient id="paint3_linear_767_41" x1="14.4193" y1="144.363" x2="165.581" y2="46.6374" gradientUnits="userSpaceOnUse">
<stop offset="0.480379" stop-color="#43CA3F"/>
<stop offset="0.915194" stop-color="#0974F8" stop-opacity="0"/>
</linearGradient>
<linearGradient id="paint4_linear_767_41" x1="14.4193" y1="144.363" x2="165.581" y2="46.6374" gradientUnits="userSpaceOnUse">
<stop offset="0.480379" stop-color="#43CA3F"/>
<stop offset="0.915194" stop-color="#0974F8" stop-opacity="0"/>
</linearGradient>
<linearGradient id="paint5_linear_767_41" x1="14.4193" y1="144.363" x2="165.581" y2="46.6374" gradientUnits="userSpaceOnUse">
<stop offset="0.480379" stop-color="#43CA3F"/>
<stop offset="0.915194" stop-color="#0974F8" stop-opacity="0"/>
</linearGradient>
<linearGradient id="paint6_linear_767_41" x1="14.4193" y1="144.363" x2="165.581" y2="46.6374" gradientUnits="userSpaceOnUse">
<stop offset="0.480379" stop-color="#43CA3F"/>
<stop offset="0.915194" stop-color="#0974F8" stop-opacity="0"/>
</linearGradient>
<linearGradient id="paint7_linear_767_41" x1="14.4193" y1="144.363" x2="165.581" y2="46.6374" gradientUnits="userSpaceOnUse">
<stop offset="0.480379" stop-color="#43CA3F"/>
<stop offset="0.915194" stop-color="#0974F8" stop-opacity="0"/>
</linearGradient>
<linearGradient id="paint8_linear_767_41" x1="14.4193" y1="144.363" x2="165.581" y2="46.6374" gradientUnits="userSpaceOnUse">
<stop offset="0.480379" stop-color="#43CA3F"/>
<stop offset="0.915194" stop-color="#0974F8" stop-opacity="0"/>
</linearGradient>
<linearGradient id="paint9_linear_767_41" x1="14.4193" y1="144.363" x2="165.581" y2="46.6374" gradientUnits="userSpaceOnUse">
<stop offset="0.480379" stop-color="#43CA3F"/>
<stop offset="0.915194" stop-color="#0974F8" stop-opacity="0"/>
</linearGradient>
<linearGradient id="paint10_linear_767_41" x1="14.4193" y1="144.363" x2="165.581" y2="46.6374" gradientUnits="userSpaceOnUse">
<stop offset="0.480379" stop-color="#43CA3F"/>
<stop offset="0.915194" stop-color="#0974F8" stop-opacity="0"/>
</linearGradient>
<linearGradient id="paint11_linear_767_41" x1="14.4193" y1="144.363" x2="165.581" y2="46.6374" gradientUnits="userSpaceOnUse">
<stop offset="0.480379" stop-color="#43CA3F"/>
<stop offset="0.915194" stop-color="#0974F8" stop-opacity="0"/>
</linearGradient>
<linearGradient id="paint12_linear_767_41" x1="14.4193" y1="144.363" x2="165.581" y2="46.6374" gradientUnits="userSpaceOnUse">
<stop offset="0.480379" stop-color="#43CA3F"/>
<stop offset="0.915194" stop-color="#0974F8" stop-opacity="0"/>
</linearGradient>
<linearGradient id="paint13_linear_767_41" x1="14.4193" y1="144.363" x2="165.581" y2="46.6374" gradientUnits="userSpaceOnUse">
<stop offset="0.480379" stop-color="#43CA3F"/>
<stop offset="0.915194" stop-color="#0974F8" stop-opacity="0"/>
</linearGradient>
<linearGradient id="paint14_linear_767_41" x1="14.4193" y1="144.363" x2="165.581" y2="46.6374" gradientUnits="userSpaceOnUse">
<stop offset="0.480379" stop-color="#43CA3F"/>
<stop offset="0.915194" stop-color="#0974F8" stop-opacity="0"/>
</linearGradient>
<linearGradient id="paint15_linear_767_41" x1="14.4193" y1="144.363" x2="165.581" y2="46.6374" gradientUnits="userSpaceOnUse">
<stop offset="0.480379" stop-color="#43CA3F"/>
<stop offset="0.915194" stop-color="#0974F8" stop-opacity="0"/>
</linearGradient>
<linearGradient id="paint16_linear_767_41" x1="14.4193" y1="144.363" x2="165.581" y2="46.6374" gradientUnits="userSpaceOnUse">
<stop offset="0.480379" stop-color="#43CA3F"/>
<stop offset="0.915194" stop-color="#0974F8" stop-opacity="0"/>
</linearGradient>
<linearGradient id="paint17_linear_767_41" x1="14.4193" y1="144.363" x2="165.581" y2="46.6374" gradientUnits="userSpaceOnUse">
<stop offset="0.480379" stop-color="#43CA3F"/>
<stop offset="0.915194" stop-color="#0974F8" stop-opacity="0"/>
</linearGradient>
<linearGradient id="paint18_linear_767_41" x1="14.4193" y1="144.363" x2="165.581" y2="46.6374" gradientUnits="userSpaceOnUse">
<stop offset="0.480379" stop-color="#43CA3F"/>
<stop offset="0.915194" stop-color="#0974F8" stop-opacity="0"/>
</linearGradient>
<linearGradient id="paint19_linear_767_41" x1="14.4193" y1="144.363" x2="165.581" y2="46.6374" gradientUnits="userSpaceOnUse">
<stop offset="0.480379" stop-color="#43CA3F"/>
<stop offset="0.915194" stop-color="#0974F8" stop-opacity="0"/>
</linearGradient>
<linearGradient id="paint20_linear_767_41" x1="14.4193" y1="144.363" x2="165.581" y2="46.6374" gradientUnits="userSpaceOnUse">
<stop offset="0.480379" stop-color="#43CA3F"/>
<stop offset="0.915194" stop-color="#0974F8" stop-opacity="0"/>
</linearGradient>
<linearGradient id="paint21_linear_767_41" x1="14.4193" y1="144.363" x2="165.581" y2="46.6374" gradientUnits="userSpaceOnUse">
<stop offset="0.480379" stop-color="#43CA3F"/>
<stop offset="0.915194" stop-color="#0974F8" stop-opacity="0"/>
</linearGradient>
<linearGradient id="paint22_linear_767_41" x1="14.4193" y1="144.363" x2="165.581" y2="46.6374" gradientUnits="userSpaceOnUse">
<stop offset="0.480379" stop-color="#43CA3F"/>
<stop offset="0.915194" stop-color="#0974F8" stop-opacity="0"/>
</linearGradient>
<linearGradient id="paint23_linear_767_41" x1="14.4193" y1="144.363" x2="165.581" y2="46.6374" gradientUnits="userSpaceOnUse">
<stop offset="0.480379" stop-color="#43CA3F"/>
<stop offset="0.915194" stop-color="#0974F8" stop-opacity="0"/>
</linearGradient>
<linearGradient id="paint24_linear_767_41" x1="14.4193" y1="144.363" x2="165.581" y2="46.6374" gradientUnits="userSpaceOnUse">
<stop offset="0.480379" stop-color="#43CA3F"/>
<stop offset="0.915194" stop-color="#0974F8" stop-opacity="0"/>
</linearGradient>
<linearGradient id="paint25_linear_767_41" x1="14.4193" y1="144.363" x2="165.581" y2="46.6374" gradientUnits="userSpaceOnUse">
<stop offset="0.480379" stop-color="#43CA3F"/>
<stop offset="0.915194" stop-color="#0974F8" stop-opacity="0"/>
</linearGradient>
<linearGradient id="paint26_linear_767_41" x1="14.4193" y1="144.363" x2="165.581" y2="46.6374" gradientUnits="userSpaceOnUse">
<stop offset="0.480379" stop-color="#43CA3F"/>
<stop offset="0.915194" stop-color="#0974F8" stop-opacity="0"/>
</linearGradient>
<linearGradient id="paint27_linear_767_41" x1="14.4193" y1="144.363" x2="165.581" y2="46.6374" gradientUnits="userSpaceOnUse">
<stop offset="0.480379" stop-color="#43CA3F"/>
<stop offset="0.915194" stop-color="#0974F8" stop-opacity="0"/>
</linearGradient>
<linearGradient id="paint28_linear_767_41" x1="14.4193" y1="144.363" x2="165.581" y2="46.6374" gradientUnits="userSpaceOnUse">
<stop offset="0.480379" stop-color="#43CA3F"/>
<stop offset="0.915194" stop-color="#0974F8" stop-opacity="0"/>
</linearGradient>
<clipPath id="clip0_767_41">
<rect width="180" height="110" fill="white"/>
</clipPath>
</defs>
</svg>
