<svg width="28" height="28" viewBox="0 0 28 28" fill="none" xmlns="http://www.w3.org/2000/svg">
<path d="M13.9997 11.833C15.5468 11.833 17.0305 12.4476 18.1245 13.5416C19.2184 14.6355 19.833 16.1192 19.833 17.6663V24.6663H8.16634V17.6663C8.16634 16.1192 8.78092 14.6355 9.87488 13.5416C10.9688 12.4476 12.4526 11.833 13.9997 11.833ZM6.16901 15.34C5.98334 15.9663 5.87367 16.6126 5.84234 17.265L5.83301 17.6663V24.6663H2.33301V19.4163C2.33278 18.4102 2.70404 17.4394 3.37558 16.6901C4.04712 15.9408 4.97166 15.4659 5.97184 15.3563L6.16901 15.34ZM21.8303 15.34C22.8686 15.4033 23.8435 15.8603 24.5564 16.6178C25.2692 17.3753 25.6662 18.3762 25.6663 19.4163V24.6663H22.1663V17.6663C22.1663 16.8578 22.0497 16.0773 21.8303 15.34ZM6.41634 8.33301C7.18989 8.33301 7.93175 8.6403 8.47874 9.18728C9.02572 9.73426 9.33301 10.4761 9.33301 11.2497C9.33301 12.0232 9.02572 12.7651 8.47874 13.3121C7.93175 13.859 7.18989 14.1663 6.41634 14.1663C5.64279 14.1663 4.90093 13.859 4.35395 13.3121C3.80697 12.7651 3.49967 12.0232 3.49967 11.2497C3.49967 10.4761 3.80697 9.73426 4.35395 9.18728C4.90093 8.6403 5.64279 8.33301 6.41634 8.33301ZM21.583 8.33301C22.3566 8.33301 23.0984 8.6403 23.6454 9.18728C24.1924 9.73426 24.4997 10.4761 24.4997 11.2497C24.4997 12.0232 24.1924 12.7651 23.6454 13.3121C23.0984 13.859 22.3566 14.1663 21.583 14.1663C20.8095 14.1663 20.0676 13.859 19.5206 13.3121C18.9736 12.7651 18.6663 12.0232 18.6663 11.2497C18.6663 10.4761 18.9736 9.73426 19.5206 9.18728C20.0676 8.6403 20.8095 8.33301 21.583 8.33301ZM13.9997 1.33301C15.2374 1.33301 16.4243 1.82467 17.2995 2.69984C18.1747 3.57501 18.6663 4.762 18.6663 5.99967C18.6663 7.23735 18.1747 8.42434 17.2995 9.29951C16.4243 10.1747 15.2374 10.6663 13.9997 10.6663C12.762 10.6663 11.575 10.1747 10.6998 9.29951C9.82467 8.42434 9.33301 7.23735 9.33301 5.99967C9.33301 4.762 9.82467 3.57501 10.6998 2.69984C11.575 1.82467 12.762 1.33301 13.9997 1.33301Z" fill="url(#paint0_linear_340_91448)"/>
<path d="M5.50277 15.9505C5.41724 16.3757 5.36375 16.8071 5.34292 17.241L5.34276 17.241L5.34248 17.2534L5.33314 17.6547L5.33301 17.6547V17.6663V24.1663H2.83301V19.4163V19.4162C2.83281 18.5333 3.15861 17.6813 3.74792 17.0238C4.21796 16.4994 4.82923 16.1281 5.50277 15.9505ZM13.9997 12.333C15.4142 12.333 16.7707 12.8949 17.7709 13.8951C18.7711 14.8953 19.333 16.2519 19.333 17.6663V24.1663H8.66634V17.6663C8.66634 16.2519 9.22824 14.8953 10.2284 13.8951C11.2286 12.8949 12.5852 12.333 13.9997 12.333ZM25.1663 19.4164V24.1663H22.6663V17.6663C22.6663 17.0796 22.6083 16.5061 22.4969 15.9512C23.1408 16.1212 23.7295 16.4687 24.1922 16.9604C24.8178 17.6252 25.1662 18.5035 25.1663 19.4163C25.1663 19.4164 25.1663 19.4164 25.1663 19.4164ZM6.41634 8.83301C7.05728 8.83301 7.67197 9.08762 8.12518 9.54083C8.5784 9.99405 8.83301 10.6087 8.83301 11.2497C8.83301 11.8906 8.57839 12.5053 8.12518 12.9585C7.67197 13.4117 7.05728 13.6663 6.41634 13.6663C5.7754 13.6663 5.16071 13.4117 4.7075 12.9585C4.25429 12.5053 3.99967 11.8906 3.99967 11.2497C3.99967 10.6087 4.25429 9.99405 4.7075 9.54083C5.16071 9.08762 5.7754 8.83301 6.41634 8.83301ZM21.583 8.83301C22.2239 8.83301 22.8386 9.08762 23.2918 9.54083C23.7451 9.99405 23.9997 10.6087 23.9997 11.2497C23.9997 11.8906 23.7451 12.5053 23.2918 12.9585C22.8386 13.4117 22.2239 13.6663 21.583 13.6663C20.9421 13.6663 20.3274 13.4117 19.8742 12.9585C19.421 12.5053 19.1663 11.8906 19.1663 11.2497C19.1663 10.6087 19.421 9.99405 19.8742 9.54083C20.3274 9.08762 20.9421 8.83301 21.583 8.83301ZM13.9997 1.83301C15.1047 1.83301 16.1646 2.27199 16.946 3.0534C17.7274 3.8348 18.1663 4.89461 18.1663 5.99967C18.1663 7.10474 17.7274 8.16455 16.946 8.94595C16.1646 9.72735 15.1047 10.1663 13.9997 10.1663C12.8946 10.1663 11.8348 9.72735 11.0534 8.94595C10.272 8.16455 9.83301 7.10474 9.83301 5.99967C9.83301 4.89461 10.272 3.8348 11.0534 3.0534C11.8348 2.27199 12.8946 1.83301 13.9997 1.83301Z" stroke="#19C2EF" stroke-opacity="0.55"/>
<defs>
<linearGradient id="paint0_linear_340_91448" x1="13.9997" y1="1.33301" x2="13.9997" y2="24.6663" gradientUnits="userSpaceOnUse">
<stop stop-color="#0974F8"/>
<stop offset="1" stop-color="#4FB2FE"/>
</linearGradient>
</defs>
</svg>
