<svg width="28" height="28" viewBox="0 0 28 28" fill="none" xmlns="http://www.w3.org/2000/svg">
<g clip-path="url(#clip0_546_2411)">
<path d="M9.46913 24.1755L4.66206 24.9093C4.27984 24.9672 3.89955 24.7915 3.69689 24.4621L1.90441 21.548C1.80443 21.3854 1.75874 21.2003 1.764 21.0162C1.76323 21.0008 1.76169 20.9858 1.76169 20.9702V14.8058C1.76169 14.274 2.19267 13.8432 2.72428 13.8432C3.25589 13.8432 3.68688 14.274 3.68688 14.8058V17.3633L7.53521 10.5099L9.46913 13.8103V24.1755ZM25.2757 13.843C24.744 13.843 24.3131 14.2739 24.3131 14.8056V17.3632L20.4649 10.5099L18.531 13.8104V24.1757L23.3381 24.9094C23.7201 24.9674 24.1006 24.7916 24.3034 24.4621L26.0957 21.548C26.1957 21.3855 26.2413 21.2005 26.236 21.0163C26.2368 21.0009 26.2383 20.9859 26.2383 20.9704V14.8059C26.2383 14.274 25.8073 13.843 25.2757 13.843ZM16.6058 24.2162L14.9626 25.4415V27.0374C14.9626 27.5691 14.5317 28 14 28C13.4684 28 13.0374 27.5691 13.0374 27.0374V25.4415L11.3942 24.2162V13.5491C11.3942 13.378 11.3486 13.21 11.2621 13.0624L8.62705 8.56518L13.1606 0.491309C13.3311 0.187899 13.6521 0 14 0C14.3481 0 14.669 0.187899 14.8394 0.491309L19.373 8.56518L16.7379 13.0624C16.6514 13.21 16.6058 13.378 16.6058 13.5491V24.2162ZM16.6013 8.80622C17.0113 8.46789 17.0694 7.8612 16.7312 7.45101C16.6198 7.31586 15.5968 6.1311 14.0244 6.1311C12.4685 6.1311 11.4034 7.29686 11.2872 7.42983C10.937 7.82989 10.975 8.44081 11.3752 8.79081C11.5586 8.95125 11.785 9.03018 12.0104 9.03018C12.2767 9.03018 12.5415 8.91993 12.7311 8.70315C12.8938 8.52321 13.4434 8.05616 14.0245 8.05616C14.7068 8.05616 15.2463 8.6762 15.2463 8.6762C15.5846 9.08639 16.1913 9.14454 16.6013 8.80622Z" fill="url(#paint0_linear_546_2411)"/>
<path d="M7.54445 11.5146L4.12285 17.6081L3.18688 19.275V17.3633V14.8058C3.18688 14.5502 2.9798 14.3432 2.72428 14.3432C2.46877 14.3432 2.26169 14.5502 2.26169 14.8058V20.9637L2.26181 20.9655L2.26222 20.9716L2.26337 20.9912L2.26436 21.0108L2.26379 21.0305C2.26116 21.1225 2.28397 21.2107 2.33029 21.2861L7.54445 11.5146ZM7.54445 11.5146L8.96913 13.946V23.7461L4.58719 24.4149C4.40271 24.4429 4.21992 24.358 4.12277 24.2002C4.12276 24.2001 4.12274 24.2001 4.12273 24.2001L2.33034 21.2862L7.54445 11.5146ZM23.8772 17.608L24.8131 19.2749V17.3632V14.8056C24.8131 14.55 25.0201 14.343 25.2757 14.343C25.5311 14.343 25.7383 14.5501 25.7383 14.8059V20.9638L25.7382 20.9656L25.7378 20.9718L25.7366 20.9913L25.7357 21.0109L25.7362 21.0306C25.7389 21.1229 25.716 21.211 25.6699 21.286L25.6698 21.2861L23.8776 24.2001C23.7802 24.3582 23.5971 24.443 23.4132 24.4151L19.031 23.7462V13.9461L20.4557 11.5147L23.8772 17.608ZM14.6637 25.0407L14.4626 25.1907V25.4415V27.0374C14.4626 27.293 14.2556 27.5 14 27.5C13.7445 27.5 13.5374 27.293 13.5374 27.0374V25.4415V25.1907L13.3363 25.0407L11.8942 23.9654V13.5491C11.8942 13.2893 11.825 13.034 11.6935 12.8097C11.6935 12.8096 11.6935 12.8096 11.6935 12.8096L9.20346 8.55989L13.5966 0.736195C13.5966 0.736168 13.5966 0.73614 13.5966 0.736112C13.6786 0.590271 13.8329 0.5 14 0.5C14.1672 0.5 14.3214 0.59024 14.4034 0.736112C14.4034 0.73614 14.4035 0.736167 14.4035 0.736194L18.7966 8.55989L16.3065 12.8096C16.3065 12.8096 16.3065 12.8096 16.3065 12.8097C16.175 13.034 16.1058 13.2893 16.1058 13.5491V23.9654L14.6637 25.0407ZM16.9195 9.19189L16.9196 9.19185C17.5425 8.67775 17.6307 7.75607 17.117 7.13298C16.9923 6.98162 15.839 5.6311 14.0244 5.6311C12.2334 5.6311 11.0387 6.95439 10.9108 7.10068C10.3806 7.7066 10.436 8.63365 11.046 9.16718C11.3235 9.40985 11.6679 9.53018 12.0104 9.53018C12.413 9.53018 12.8156 9.36364 13.1039 9.03629C13.1551 8.98034 13.2944 8.85201 13.4795 8.74008C13.6703 8.62477 13.8615 8.55616 14.0245 8.55616C14.2186 8.55616 14.4224 8.64759 14.6034 8.775C14.6893 8.83551 14.7592 8.89656 14.8071 8.94195C14.8307 8.9644 14.8483 8.98238 14.859 8.99367L14.8681 9.00351C15.3837 9.61847 16.2995 9.70342 16.9195 9.19189Z" stroke="#19C2EF" stroke-opacity="0.55"/>
</g>
<defs>
<linearGradient id="paint0_linear_546_2411" x1="14" y1="0" x2="14" y2="28" gradientUnits="userSpaceOnUse">
<stop stop-color="#0974F8"/>
<stop offset="1" stop-color="#4FB2FE"/>
</linearGradient>
<clipPath id="clip0_546_2411">
<rect width="28" height="28" fill="white"/>
</clipPath>
</defs>
</svg>
