<svg width="28" height="28" viewBox="0 0 28 28" fill="none" xmlns="http://www.w3.org/2000/svg">
<path d="M13.9999 11.8333C15.547 11.8333 17.0307 12.4478 18.1247 13.5418C19.2187 14.6358 19.8333 16.1195 19.8333 17.6666V24.6666H8.16659V17.6666C8.16659 16.1195 8.78117 14.6358 9.87513 13.5418C10.9691 12.4478 12.4528 11.8333 13.9999 11.8333ZM6.16925 15.3403C5.98359 15.9665 5.87391 16.6128 5.84259 17.2653L5.83325 17.6666V24.6666H2.33325V19.4166C2.33302 18.4104 2.70428 17.4396 3.37583 16.6903C4.04737 15.9411 4.9719 15.4661 5.97209 15.3566L6.16925 15.3403ZM21.8306 15.3403C22.8688 15.4035 23.8438 15.8605 24.5566 16.618C25.2694 17.3755 25.6664 18.3764 25.6666 19.4166V24.6666H22.1666V17.6666C22.1666 16.8581 22.0499 16.0776 21.8306 15.3403ZM6.41659 8.33325C7.19013 8.33325 7.932 8.64054 8.47898 9.18752C9.02596 9.7345 9.33325 10.4764 9.33325 11.2499C9.33325 12.0235 9.02596 12.7653 8.47898 13.3123C7.932 13.8593 7.19013 14.1666 6.41659 14.1666C5.64304 14.1666 4.90117 13.8593 4.35419 13.3123C3.80721 12.7653 3.49992 12.0235 3.49992 11.2499C3.49992 10.4764 3.80721 9.7345 4.35419 9.18752C4.90117 8.64054 5.64304 8.33325 6.41659 8.33325ZM21.5833 8.33325C22.3568 8.33325 23.0987 8.64054 23.6456 9.18752C24.1926 9.7345 24.4999 10.4764 24.4999 11.2499C24.4999 12.0235 24.1926 12.7653 23.6456 13.3123C23.0987 13.8593 22.3568 14.1666 21.5833 14.1666C20.8097 14.1666 20.0678 13.8593 19.5209 13.3123C18.9739 12.7653 18.6666 12.0235 18.6666 11.2499C18.6666 10.4764 18.9739 9.7345 19.5209 9.18752C20.0678 8.64054 20.8097 8.33325 21.5833 8.33325ZM13.9999 1.33325C15.2376 1.33325 16.4246 1.82492 17.2997 2.70009C18.1749 3.57526 18.6666 4.76224 18.6666 5.99992C18.6666 7.2376 18.1749 8.42458 17.2997 9.29975C16.4246 10.1749 15.2376 10.6666 13.9999 10.6666C12.7622 10.6666 11.5753 10.1749 10.7001 9.29975C9.82492 8.42458 9.33325 7.2376 9.33325 5.99992C9.33325 4.76224 9.82492 3.57526 10.7001 2.70009C11.5753 1.82492 12.7622 1.33325 13.9999 1.33325Z" fill="url(#paint0_linear_128_16)"/>
<path d="M5.50302 15.9507C5.41749 16.3759 5.36399 16.8073 5.34316 17.2413L5.34301 17.2413L5.34272 17.2536L5.33339 17.655L5.33325 17.655V17.6666V24.1666H2.83325V19.4166V19.4165C2.83305 18.5335 3.15885 17.6816 3.74816 17.024C4.2182 16.4996 4.82947 16.1283 5.50302 15.9507ZM13.9999 12.3333C15.4144 12.3333 16.771 12.8952 17.7712 13.8953C18.7713 14.8955 19.3333 16.2521 19.3333 17.6666V24.1666H8.66658V17.6666C8.66658 16.2521 9.22849 14.8955 10.2287 13.8953C11.2289 12.8952 12.5854 12.3333 13.9999 12.3333ZM25.1666 19.4167V24.1666H22.6666V17.6666C22.6666 17.0798 22.6086 16.5063 22.4972 15.9514C23.1411 16.1215 23.7297 16.4689 24.1925 16.9607C24.818 17.6254 25.1664 18.5038 25.1666 19.4166C25.1666 19.4166 25.1666 19.4166 25.1666 19.4167ZM6.41658 8.83325C7.05753 8.83325 7.67221 9.08786 8.12543 9.54108C8.57864 9.99429 8.83325 10.609 8.83325 11.2499C8.83325 11.8909 8.57864 12.5055 8.12543 12.9588C7.67221 13.412 7.05753 13.6666 6.41658 13.6666C5.77565 13.6666 5.16096 13.412 4.70774 12.9588C4.25453 12.5055 3.99992 11.8909 3.99992 11.2499C3.99992 10.609 4.25453 9.99429 4.70774 9.54108C5.16096 9.08786 5.77565 8.83325 6.41658 8.83325ZM21.5833 8.83325C22.2242 8.83325 22.8389 9.08786 23.2921 9.54108C23.7453 9.99429 23.9999 10.609 23.9999 11.2499C23.9999 11.8909 23.7453 12.5055 23.2921 12.9588C22.8389 13.412 22.2242 13.6666 21.5833 13.6666C20.9423 13.6666 20.3276 13.412 19.8744 12.9588C19.4212 12.5055 19.1666 11.8909 19.1666 11.2499C19.1666 10.609 19.4212 9.99429 19.8744 9.54108C20.3276 9.08786 20.9423 8.83325 21.5833 8.83325ZM13.9999 1.83325C15.105 1.83325 16.1648 2.27224 16.9462 3.05364C17.7276 3.83504 18.1666 4.89485 18.1666 5.99992C18.1666 7.10499 17.7276 8.1648 16.9462 8.9462C16.1648 9.7276 15.105 10.1666 13.9999 10.1666C12.8948 10.1666 11.835 9.7276 11.0536 8.9462C10.2722 8.1648 9.83325 7.10499 9.83325 5.99992C9.83325 4.89485 10.2722 3.83504 11.0536 3.05364C11.835 2.27224 12.8948 1.83325 13.9999 1.83325Z" stroke="#19C2EF" stroke-opacity="0.55"/>
<defs>
<linearGradient id="paint0_linear_128_16" x1="13.9999" y1="1.33325" x2="13.9999" y2="24.6666" gradientUnits="userSpaceOnUse">
<stop stop-color="#0974F8"/>
<stop offset="1" stop-color="#4FB2FE"/>
</linearGradient>
</defs>
</svg>
