<svg width="390" height="105" viewBox="0 0 390 105" fill="none" xmlns="http://www.w3.org/2000/svg">
<path opacity="0.6" d="M0 22H390V83H246L237 93H153L144 83H0V22Z" fill="url(#paint0_radial_448_52)"/>
<path fill-rule="evenodd" clip-rule="evenodd" d="M41.6808 15.2129C40.8859 15.2129 40.1234 14.8974 39.561 14.3356L32.7067 7.4906L31.2935 8.90577L38.1477 15.7508C39.0852 16.687 40.3559 17.2129 41.6808 17.2129H126.26C127.76 17.2129 129.18 16.5397 130.13 15.379L139.357 4.10049C139.927 3.40405 140.779 3.00015 141.679 3.00015H246.321C247.221 3.00015 248.073 3.40405 248.643 4.10049L257.87 15.379C258.82 16.5397 260.241 17.2129 261.74 17.2129H346.319C347.644 17.2129 348.915 16.687 349.853 15.7508L356.707 8.90577L355.293 7.4906L348.439 14.3356C347.877 14.8974 347.114 15.2129 346.319 15.2129H261.74C260.84 15.2129 259.988 14.809 259.418 14.1125L250.191 2.83405C249.241 1.67332 247.821 1.00014 246.321 1.00014H141.679C140.179 1.00014 138.759 1.67332 137.809 2.83405L128.582 14.1125C128.012 14.809 127.16 15.2129 126.26 15.2129H41.6808Z" fill="url(#paint1_radial_448_52)"/>
<path fill-rule="evenodd" clip-rule="evenodd" d="M41.6808 90C40.8859 90 40.1234 90.3155 39.561 90.8773L32.7067 97.7223L31.2935 96.3071L38.1477 89.4621C39.0852 88.5259 40.3559 88 41.6808 88H136.26C137.76 88 139.18 88.6732 140.13 89.8339L149.357 101.112C149.927 101.809 150.779 102.213 151.679 102.213H236.321C237.221 102.213 238.073 101.809 238.643 101.112L247.87 89.8339C248.82 88.6732 250.241 88 251.74 88H346.319C347.644 88 348.915 88.5259 349.853 89.4621L356.707 96.3071L355.293 97.7223L348.439 90.8772C347.877 90.3155 347.114 90 346.319 90H251.74C250.84 90 249.988 90.4039 249.418 91.1003L240.191 102.379C239.241 103.54 237.821 104.213 236.321 104.213H151.679C150.179 104.213 148.759 103.54 147.809 102.379L138.582 91.1003C138.012 90.4039 137.16 90 136.26 90H41.6808Z" fill="url(#paint2_radial_448_52)"/>
<g filter="url(#filter0_d_448_52)">
<rect x="144" y="10" width="99" height="4" rx="2" fill="#E91F38"/>
</g>
<g filter="url(#filter1_df_448_52)">
<rect x="144" y="11" width="99" height="2" rx="1" fill="#FFDDE1"/>
</g>
<g filter="url(#filter2_dd_448_52)">
<mask id="path-6-outside-1_448_52" maskUnits="userSpaceOnUse" x="53" y="41" width="284" height="25" fill="black">
<rect fill="white" x="53" y="41" width="284" height="25"/>
<path d="M77.2281 42.6V65H74.0281V45.8H58.0281V65H54.8281V42.6H77.2281ZM105.702 58.6V49C105.702 47.24 104.262 45.8 102.502 45.8H92.9019C91.1419 45.8 89.7019 47.24 89.7019 49V58.6C89.7019 60.36 91.1419 61.8 92.9019 61.8H102.502C104.262 61.8 105.702 60.36 105.702 58.6ZM108.902 49V58.6C108.902 62.12 106.022 65 102.502 65H92.9019C89.3499 65 86.5019 62.152 86.5019 58.6V49C86.5019 45.48 89.3819 42.6 92.9019 42.6H102.502C105.894 42.6 108.902 45.512 108.902 49ZM137.391 52.2V49C137.391 47.24 135.951 45.8 134.191 45.8H121.391V55.4H134.191C135.951 55.4 137.391 53.96 137.391 52.2ZM140.591 49V52.2C140.591 55.592 137.775 58.6 134.191 58.6H121.391V65H118.191V42.6H134.191C137.615 42.6 140.495 45.448 140.591 49ZM165.559 45.8H155.959C154.199 45.8 152.759 47.24 152.759 49V55.4H168.759V49C168.759 47.24 167.319 45.8 165.559 45.8ZM171.959 49V65H168.759V58.6H152.759V65H149.559V49C149.559 45.608 152.375 42.6 155.959 42.6H165.559C168.983 42.6 171.863 45.448 171.959 49ZM193.393 51.112V42.6H196.593V51.112L206.193 45.8V42.6H209.393V47.688L198.289 53.832L209.393 59.976V65H206.193V61.864L196.593 56.552V65H193.393V56.552L183.793 61.864V65H180.593V59.976L191.697 53.832L180.593 47.688V42.6H183.793V45.8L193.393 51.112ZM221.247 45.8V52.2H237.247V55.4H221.247V61.8H240.447V65H218.047V42.6H240.447V45.8H221.247ZM252.616 42.6V52.2H268.616V42.6H271.816V65H268.616V55.4H252.616V65H249.416V42.6H252.616ZM281.409 65V42.6H284.609V60.36L300.609 42.6H303.809V65H300.609V46.92L284.609 65H281.409ZM316.603 45.8V52.2H332.603V55.4H316.603V61.8H335.803V65H313.403V42.6H335.803V45.8H316.603Z"/>
</mask>
<path d="M77.2281 42.6V65H74.0281V45.8H58.0281V65H54.8281V42.6H77.2281ZM105.702 58.6V49C105.702 47.24 104.262 45.8 102.502 45.8H92.9019C91.1419 45.8 89.7019 47.24 89.7019 49V58.6C89.7019 60.36 91.1419 61.8 92.9019 61.8H102.502C104.262 61.8 105.702 60.36 105.702 58.6ZM108.902 49V58.6C108.902 62.12 106.022 65 102.502 65H92.9019C89.3499 65 86.5019 62.152 86.5019 58.6V49C86.5019 45.48 89.3819 42.6 92.9019 42.6H102.502C105.894 42.6 108.902 45.512 108.902 49ZM137.391 52.2V49C137.391 47.24 135.951 45.8 134.191 45.8H121.391V55.4H134.191C135.951 55.4 137.391 53.96 137.391 52.2ZM140.591 49V52.2C140.591 55.592 137.775 58.6 134.191 58.6H121.391V65H118.191V42.6H134.191C137.615 42.6 140.495 45.448 140.591 49ZM165.559 45.8H155.959C154.199 45.8 152.759 47.24 152.759 49V55.4H168.759V49C168.759 47.24 167.319 45.8 165.559 45.8ZM171.959 49V65H168.759V58.6H152.759V65H149.559V49C149.559 45.608 152.375 42.6 155.959 42.6H165.559C168.983 42.6 171.863 45.448 171.959 49ZM193.393 51.112V42.6H196.593V51.112L206.193 45.8V42.6H209.393V47.688L198.289 53.832L209.393 59.976V65H206.193V61.864L196.593 56.552V65H193.393V56.552L183.793 61.864V65H180.593V59.976L191.697 53.832L180.593 47.688V42.6H183.793V45.8L193.393 51.112ZM221.247 45.8V52.2H237.247V55.4H221.247V61.8H240.447V65H218.047V42.6H240.447V45.8H221.247ZM252.616 42.6V52.2H268.616V42.6H271.816V65H268.616V55.4H252.616V65H249.416V42.6H252.616ZM281.409 65V42.6H284.609V60.36L300.609 42.6H303.809V65H300.609V46.92L284.609 65H281.409ZM316.603 45.8V52.2H332.603V55.4H316.603V61.8H335.803V65H313.403V42.6H335.803V45.8H316.603Z" fill="url(#paint3_linear_448_52)"/>
<path d="M77.2281 42.6H78.2281V41.6H77.2281V42.6ZM77.2281 65V66H78.2281V65H77.2281ZM74.0281 65H73.0281V66H74.0281V65ZM74.0281 45.8H75.0281V44.8H74.0281V45.8ZM58.0281 45.8V44.8H57.0281V45.8H58.0281ZM58.0281 65V66H59.0281V65H58.0281ZM54.8281 65H53.8281V66H54.8281V65ZM54.8281 42.6V41.6H53.8281V42.6H54.8281ZM76.2281 42.6V65H78.2281V42.6H76.2281ZM77.2281 64H74.0281V66H77.2281V64ZM75.0281 65V45.8H73.0281V65H75.0281ZM74.0281 44.8H58.0281V46.8H74.0281V44.8ZM57.0281 45.8V65H59.0281V45.8H57.0281ZM58.0281 64H54.8281V66H58.0281V64ZM55.8281 65V42.6H53.8281V65H55.8281ZM54.8281 43.6H77.2281V41.6H54.8281V43.6ZM106.702 58.6V49H104.702V58.6H106.702ZM106.702 49C106.702 46.6877 104.814 44.8 102.502 44.8V46.8C103.71 46.8 104.702 47.7923 104.702 49H106.702ZM102.502 44.8H92.9019V46.8H102.502V44.8ZM92.9019 44.8C90.5896 44.8 88.7019 46.6877 88.7019 49H90.7019C90.7019 47.7923 91.6942 46.8 92.9019 46.8V44.8ZM88.7019 49V58.6H90.7019V49H88.7019ZM88.7019 58.6C88.7019 60.9123 90.5896 62.8 92.9019 62.8V60.8C91.6942 60.8 90.7019 59.8077 90.7019 58.6H88.7019ZM92.9019 62.8H102.502V60.8H92.9019V62.8ZM102.502 62.8C104.814 62.8 106.702 60.9123 106.702 58.6H104.702C104.702 59.8077 103.71 60.8 102.502 60.8V62.8ZM107.902 49V58.6H109.902V49H107.902ZM107.902 58.6C107.902 61.5677 105.47 64 102.502 64V66C106.574 66 109.902 62.6723 109.902 58.6H107.902ZM102.502 64H92.9019V66H102.502V64ZM92.9019 64C89.9022 64 87.5019 61.5997 87.5019 58.6H85.5019C85.5019 62.7043 88.7976 66 92.9019 66V64ZM87.5019 58.6V49H85.5019V58.6H87.5019ZM87.5019 49C87.5019 46.0323 89.9342 43.6 92.9019 43.6V41.6C88.8296 41.6 85.5019 44.9277 85.5019 49H87.5019ZM92.9019 43.6H102.502V41.6H92.9019V43.6ZM102.502 43.6C105.351 43.6 107.902 46.0739 107.902 49H109.902C109.902 44.9501 106.436 41.6 102.502 41.6V43.6ZM121.391 45.8V44.8H120.391V45.8H121.391ZM121.391 55.4H120.391V56.4H121.391V55.4ZM140.591 49H141.591V48.9865L141.59 48.973L140.591 49ZM121.391 58.6V57.6H120.391V58.6H121.391ZM121.391 65V66H122.391V65H121.391ZM118.191 65H117.191V66H118.191V65ZM118.191 42.6V41.6H117.191V42.6H118.191ZM138.391 52.2V49H136.391V52.2H138.391ZM138.391 49C138.391 46.6877 136.503 44.8 134.191 44.8V46.8C135.398 46.8 136.391 47.7923 136.391 49H138.391ZM134.191 44.8H121.391V46.8H134.191V44.8ZM120.391 45.8V55.4H122.391V45.8H120.391ZM121.391 56.4H134.191V54.4H121.391V56.4ZM134.191 56.4C136.503 56.4 138.391 54.5123 138.391 52.2H136.391C136.391 53.4077 135.398 54.4 134.191 54.4V56.4ZM139.591 49V52.2H141.591V49H139.591ZM139.591 52.2C139.591 55.0593 137.203 57.6 134.191 57.6V59.6C138.346 59.6 141.591 56.1247 141.591 52.2H139.591ZM134.191 57.6H121.391V59.6H134.191V57.6ZM120.391 58.6V65H122.391V58.6H120.391ZM121.391 64H118.191V66H121.391V64ZM119.191 65V42.6H117.191V65H119.191ZM118.191 43.6H134.191V41.6H118.191V43.6ZM134.191 43.6C137.051 43.6 139.509 45.9945 139.591 49.027L141.59 48.973C141.48 44.9015 138.178 41.6 134.191 41.6V43.6ZM152.759 55.4H151.759V56.4H152.759V55.4ZM168.759 55.4V56.4H169.759V55.4H168.759ZM171.959 49H172.959V48.9865L172.959 48.973L171.959 49ZM171.959 65V66H172.959V65H171.959ZM168.759 65H167.759V66H168.759V65ZM168.759 58.6H169.759V57.6H168.759V58.6ZM152.759 58.6V57.6H151.759V58.6H152.759ZM152.759 65V66H153.759V65H152.759ZM149.559 65H148.559V66H149.559V65ZM165.559 44.8H155.959V46.8H165.559V44.8ZM155.959 44.8C153.647 44.8 151.759 46.6877 151.759 49H153.759C153.759 47.7923 154.752 46.8 155.959 46.8V44.8ZM151.759 49V55.4H153.759V49H151.759ZM152.759 56.4H168.759V54.4H152.759V56.4ZM169.759 55.4V49H167.759V55.4H169.759ZM169.759 49C169.759 46.6877 167.872 44.8 165.559 44.8V46.8C166.767 46.8 167.759 47.7923 167.759 49H169.759ZM170.959 49V65H172.959V49H170.959ZM171.959 64H168.759V66H171.959V64ZM169.759 65V58.6H167.759V65H169.759ZM168.759 57.6H152.759V59.6H168.759V57.6ZM151.759 58.6V65H153.759V58.6H151.759ZM152.759 64H149.559V66H152.759V64ZM150.559 65V49H148.559V65H150.559ZM150.559 49C150.559 46.1407 152.947 43.6 155.959 43.6V41.6C151.804 41.6 148.559 45.0753 148.559 49H150.559ZM155.959 43.6H165.559V41.6H155.959V43.6ZM165.559 43.6C168.42 43.6 170.878 45.9945 170.96 49.027L172.959 48.973C172.849 44.9015 169.547 41.6 165.559 41.6V43.6ZM193.393 51.112L192.909 51.987L194.393 52.8082V51.112H193.393ZM193.393 42.6V41.6H192.393V42.6H193.393ZM196.593 42.6H197.593V41.6H196.593V42.6ZM196.593 51.112H195.593V52.8082L197.077 51.987L196.593 51.112ZM206.193 45.8L206.677 46.675L207.193 46.3895V45.8H206.193ZM206.193 42.6V41.6H205.193V42.6H206.193ZM209.393 42.6H210.393V41.6H209.393V42.6ZM209.393 47.688L209.877 48.563L210.393 48.2776V47.688H209.393ZM198.289 53.832L197.805 52.957L196.224 53.832L197.805 54.707L198.289 53.832ZM209.393 59.976H210.393V59.3864L209.877 59.101L209.393 59.976ZM209.393 65V66H210.393V65H209.393ZM206.193 65H205.193V66H206.193V65ZM206.193 61.864H207.193V61.2745L206.677 60.989L206.193 61.864ZM196.593 56.552L197.077 55.677L195.593 54.8558V56.552H196.593ZM196.593 65V66H197.593V65H196.593ZM193.393 65H192.393V66H193.393V65ZM193.393 56.552H194.393V54.8558L192.909 55.677L193.393 56.552ZM183.793 61.864L183.309 60.989L182.793 61.2745V61.864H183.793ZM183.793 65V66H184.793V65H183.793ZM180.593 65H179.593V66H180.593V65ZM180.593 59.976L180.109 59.101L179.593 59.3864V59.976H180.593ZM191.697 53.832L192.181 54.707L193.763 53.832L192.181 52.957L191.697 53.832ZM180.593 47.688H179.593V48.2776L180.109 48.563L180.593 47.688ZM180.593 42.6V41.6H179.593V42.6H180.593ZM183.793 42.6H184.793V41.6H183.793V42.6ZM183.793 45.8H182.793V46.3895L183.309 46.675L183.793 45.8ZM194.393 51.112V42.6H192.393V51.112H194.393ZM193.393 43.6H196.593V41.6H193.393V43.6ZM195.593 42.6V51.112H197.593V42.6H195.593ZM197.077 51.987L206.677 46.675L205.709 44.925L196.109 50.237L197.077 51.987ZM207.193 45.8V42.6H205.193V45.8H207.193ZM206.193 43.6H209.393V41.6H206.193V43.6ZM208.393 42.6V47.688H210.393V42.6H208.393ZM208.909 46.813L197.805 52.957L198.773 54.707L209.877 48.563L208.909 46.813ZM197.805 54.707L208.909 60.851L209.877 59.101L198.773 52.957L197.805 54.707ZM208.393 59.976V65H210.393V59.976H208.393ZM209.393 64H206.193V66H209.393V64ZM207.193 65V61.864H205.193V65H207.193ZM206.677 60.989L197.077 55.677L196.109 57.427L205.709 62.739L206.677 60.989ZM195.593 56.552V65H197.593V56.552H195.593ZM196.593 64H193.393V66H196.593V64ZM194.393 65V56.552H192.393V65H194.393ZM192.909 55.677L183.309 60.989L184.277 62.739L193.877 57.427L192.909 55.677ZM182.793 61.864V65H184.793V61.864H182.793ZM183.793 64H180.593V66H183.793V64ZM181.593 65V59.976H179.593V65H181.593ZM181.077 60.851L192.181 54.707L191.213 52.957L180.109 59.101L181.077 60.851ZM192.181 52.957L181.077 46.813L180.109 48.563L191.213 54.707L192.181 52.957ZM181.593 47.688V42.6H179.593V47.688H181.593ZM180.593 43.6H183.793V41.6H180.593V43.6ZM182.793 42.6V45.8H184.793V42.6H182.793ZM183.309 46.675L192.909 51.987L193.877 50.237L184.277 44.925L183.309 46.675ZM221.247 45.8V44.8H220.247V45.8H221.247ZM221.247 52.2H220.247V53.2H221.247V52.2ZM237.247 52.2H238.247V51.2H237.247V52.2ZM237.247 55.4V56.4H238.247V55.4H237.247ZM221.247 55.4V54.4H220.247V55.4H221.247ZM221.247 61.8H220.247V62.8H221.247V61.8ZM240.447 61.8H241.447V60.8H240.447V61.8ZM240.447 65V66H241.447V65H240.447ZM218.047 65H217.047V66H218.047V65ZM218.047 42.6V41.6H217.047V42.6H218.047ZM240.447 42.6H241.447V41.6H240.447V42.6ZM240.447 45.8V46.8H241.447V45.8H240.447ZM220.247 45.8V52.2H222.247V45.8H220.247ZM221.247 53.2H237.247V51.2H221.247V53.2ZM236.247 52.2V55.4H238.247V52.2H236.247ZM237.247 54.4H221.247V56.4H237.247V54.4ZM220.247 55.4V61.8H222.247V55.4H220.247ZM221.247 62.8H240.447V60.8H221.247V62.8ZM239.447 61.8V65H241.447V61.8H239.447ZM240.447 64H218.047V66H240.447V64ZM219.047 65V42.6H217.047V65H219.047ZM218.047 43.6H240.447V41.6H218.047V43.6ZM239.447 42.6V45.8H241.447V42.6H239.447ZM240.447 44.8H221.247V46.8H240.447V44.8ZM252.616 42.6H253.616V41.6H252.616V42.6ZM252.616 52.2H251.616V53.2H252.616V52.2ZM268.616 52.2V53.2H269.616V52.2H268.616ZM268.616 42.6V41.6H267.616V42.6H268.616ZM271.816 42.6H272.816V41.6H271.816V42.6ZM271.816 65V66H272.816V65H271.816ZM268.616 65H267.616V66H268.616V65ZM268.616 55.4H269.616V54.4H268.616V55.4ZM252.616 55.4V54.4H251.616V55.4H252.616ZM252.616 65V66H253.616V65H252.616ZM249.416 65H248.416V66H249.416V65ZM249.416 42.6V41.6H248.416V42.6H249.416ZM251.616 42.6V52.2H253.616V42.6H251.616ZM252.616 53.2H268.616V51.2H252.616V53.2ZM269.616 52.2V42.6H267.616V52.2H269.616ZM268.616 43.6H271.816V41.6H268.616V43.6ZM270.816 42.6V65H272.816V42.6H270.816ZM271.816 64H268.616V66H271.816V64ZM269.616 65V55.4H267.616V65H269.616ZM268.616 54.4H252.616V56.4H268.616V54.4ZM251.616 55.4V65H253.616V55.4H251.616ZM252.616 64H249.416V66H252.616V64ZM250.416 65V42.6H248.416V65H250.416ZM249.416 43.6H252.616V41.6H249.416V43.6ZM281.409 65H280.409V66H281.409V65ZM281.409 42.6V41.6H280.409V42.6H281.409ZM284.609 42.6H285.609V41.6H284.609V42.6ZM284.609 60.36H283.609V62.964L285.352 61.0293L284.609 60.36ZM300.609 42.6V41.6H300.164L299.866 41.9307L300.609 42.6ZM303.809 42.6H304.809V41.6H303.809V42.6ZM303.809 65V66H304.809V65H303.809ZM300.609 65H299.609V66H300.609V65ZM300.609 46.92H301.609V44.2811L299.861 46.2573L300.609 46.92ZM284.609 65V66H285.06L285.358 65.6627L284.609 65ZM282.409 65V42.6H280.409V65H282.409ZM281.409 43.6H284.609V41.6H281.409V43.6ZM283.609 42.6V60.36H285.609V42.6H283.609ZM285.352 61.0293L301.352 43.2693L299.866 41.9307L283.866 59.6907L285.352 61.0293ZM300.609 43.6H303.809V41.6H300.609V43.6ZM302.809 42.6V65H304.809V42.6H302.809ZM303.809 64H300.609V66H303.809V64ZM301.609 65V46.92H299.609V65H301.609ZM299.861 46.2573L283.861 64.3373L285.358 65.6627L301.358 47.5827L299.861 46.2573ZM284.609 64H281.409V66H284.609V64ZM316.603 45.8V44.8H315.603V45.8H316.603ZM316.603 52.2H315.603V53.2H316.603V52.2ZM332.603 52.2H333.603V51.2H332.603V52.2ZM332.603 55.4V56.4H333.603V55.4H332.603ZM316.603 55.4V54.4H315.603V55.4H316.603ZM316.603 61.8H315.603V62.8H316.603V61.8ZM335.803 61.8H336.803V60.8H335.803V61.8ZM335.803 65V66H336.803V65H335.803ZM313.403 65H312.403V66H313.403V65ZM313.403 42.6V41.6H312.403V42.6H313.403ZM335.803 42.6H336.803V41.6H335.803V42.6ZM335.803 45.8V46.8H336.803V45.8H335.803ZM315.603 45.8V52.2H317.603V45.8H315.603ZM316.603 53.2H332.603V51.2H316.603V53.2ZM331.603 52.2V55.4H333.603V52.2H331.603ZM332.603 54.4H316.603V56.4H332.603V54.4ZM315.603 55.4V61.8H317.603V55.4H315.603ZM316.603 62.8H335.803V60.8H316.603V62.8ZM334.803 61.8V65H336.803V61.8H334.803ZM335.803 64H313.403V66H335.803V64ZM314.403 65V42.6H312.403V65H314.403ZM313.403 43.6H335.803V41.6H313.403V43.6ZM334.803 42.6V45.8H336.803V42.6H334.803ZM335.803 44.8H316.603V46.8H335.803V44.8Z" fill="#FF697B" mask="url(#path-6-outside-1_448_52)"/>
</g>
<defs>
<filter id="filter0_d_448_52" x="134" y="0" width="119" height="24" filterUnits="userSpaceOnUse" color-interpolation-filters="sRGB">
<feFlood flood-opacity="0" result="BackgroundImageFix"/>
<feColorMatrix in="SourceAlpha" type="matrix" values="0 0 0 0 0 0 0 0 0 0 0 0 0 0 0 0 0 0 127 0" result="hardAlpha"/>
<feOffset/>
<feGaussianBlur stdDeviation="5"/>
<feComposite in2="hardAlpha" operator="out"/>
<feColorMatrix type="matrix" values="0 0 0 0 0.913725 0 0 0 0 0.121569 0 0 0 0 0.219608 0 0 0 1 0"/>
<feBlend mode="normal" in2="BackgroundImageFix" result="effect1_dropShadow_448_52"/>
<feBlend mode="normal" in="SourceGraphic" in2="effect1_dropShadow_448_52" result="shape"/>
</filter>
<filter id="filter1_df_448_52" x="134" y="1" width="119" height="22" filterUnits="userSpaceOnUse" color-interpolation-filters="sRGB">
<feFlood flood-opacity="0" result="BackgroundImageFix"/>
<feColorMatrix in="SourceAlpha" type="matrix" values="0 0 0 0 0 0 0 0 0 0 0 0 0 0 0 0 0 0 127 0" result="hardAlpha"/>
<feOffset/>
<feGaussianBlur stdDeviation="5"/>
<feComposite in2="hardAlpha" operator="out"/>
<feColorMatrix type="matrix" values="0 0 0 0 0.913725 0 0 0 0 0.121569 0 0 0 0 0.219608 0 0 0 1 0"/>
<feBlend mode="normal" in2="BackgroundImageFix" result="effect1_dropShadow_448_52"/>
<feBlend mode="normal" in="SourceGraphic" in2="effect1_dropShadow_448_52" result="shape"/>
<feGaussianBlur stdDeviation="1" result="effect2_foregroundBlur_448_52"/>
</filter>
<filter id="filter2_dd_448_52" x="44.8281" y="32.5996" width="300.975" height="42.4004" filterUnits="userSpaceOnUse" color-interpolation-filters="sRGB">
<feFlood flood-opacity="0" result="BackgroundImageFix"/>
<feColorMatrix in="SourceAlpha" type="matrix" values="0 0 0 0 0 0 0 0 0 0 0 0 0 0 0 0 0 0 127 0" result="hardAlpha"/>
<feOffset dx="3" dy="3"/>
<feComposite in2="hardAlpha" operator="out"/>
<feColorMatrix type="matrix" values="0 0 0 0 0.913725 0 0 0 0 0.121569 0 0 0 0 0.219608 0 0 0 0.2 0"/>
<feBlend mode="normal" in2="BackgroundImageFix" result="effect1_dropShadow_448_52"/>
<feColorMatrix in="SourceAlpha" type="matrix" values="0 0 0 0 0 0 0 0 0 0 0 0 0 0 0 0 0 0 127 0" result="hardAlpha"/>
<feOffset/>
<feGaussianBlur stdDeviation="5"/>
<feComposite in2="hardAlpha" operator="out"/>
<feColorMatrix type="matrix" values="0 0 0 0 0.913725 0 0 0 0 0.121569 0 0 0 0 0.219608 0 0 0 0.5 0"/>
<feBlend mode="normal" in2="effect1_dropShadow_448_52" result="effect2_dropShadow_448_52"/>
<feBlend mode="normal" in="SourceGraphic" in2="effect2_dropShadow_448_52" result="shape"/>
</filter>
<radialGradient id="paint0_radial_448_52" cx="0" cy="0" r="1" gradientUnits="userSpaceOnUse" gradientTransform="translate(195 52.5) rotate(180) scale(195 268.45)">
<stop offset="0.33031" stop-color="#E91F38"/>
<stop offset="1" stop-color="#FF5C71" stop-opacity="0"/>
</radialGradient>
<radialGradient id="paint1_radial_448_52" cx="0" cy="0" r="1" gradientUnits="userSpaceOnUse" gradientTransform="translate(194 10.2483) rotate(180) scale(162.707 61.3002)">
<stop offset="0.33031" stop-color="#E91F38"/>
<stop offset="1" stop-color="#FF5C71" stop-opacity="0"/>
</radialGradient>
<radialGradient id="paint2_radial_448_52" cx="0" cy="0" r="1" gradientUnits="userSpaceOnUse" gradientTransform="translate(194 94.9646) rotate(180) scale(162.707 61.3002)">
<stop offset="0.33031" stop-color="#E91F38"/>
<stop offset="1" stop-color="#FF5C71" stop-opacity="0"/>
</radialGradient>
<linearGradient id="paint3_linear_448_52" x1="195" y1="42.8788" x2="195" y2="65.303" gradientUnits="userSpaceOnUse">
<stop stop-color="#FFD5DA"/>
<stop offset="1" stop-color="#FF697B"/>
</linearGradient>
</defs>
</svg>
