<svg width="390" height="104" viewBox="0 0 390 104" fill="none" xmlns="http://www.w3.org/2000/svg">
<path opacity="0.42" d="M0 21H390V82H246L237 92H153L144 82H0V21Z" fill="url(#paint0_radial_338_15)"/>
<path fill-rule="evenodd" clip-rule="evenodd" d="M41.6807 14.2129C40.8858 14.2129 40.1233 13.8974 39.5608 13.3356L32.7066 6.4906L31.2933 7.90577L38.1476 14.7508C39.0851 15.687 40.3558 16.2129 41.6807 16.2129H126.26C127.76 16.2129 129.18 15.5397 130.13 14.379L139.357 3.10049C139.927 2.40405 140.779 2.00015 141.679 2.00015H246.321C247.221 2.00015 248.073 2.40405 248.643 3.10049L257.87 14.379C258.82 15.5397 260.24 16.2129 261.74 16.2129H346.319C347.644 16.2129 348.915 15.687 349.852 14.7508L356.707 7.90577L355.293 6.4906L348.439 13.3356C347.877 13.8974 347.114 14.2129 346.319 14.2129H261.74C260.84 14.2129 259.988 13.809 259.418 13.1125L250.191 1.83405C249.241 0.673324 247.821 0.000144958 246.321 0.000144958H141.679C140.179 0.000144958 138.759 0.67332 137.809 1.83405L128.582 13.1125C128.012 13.809 127.16 14.2129 126.26 14.2129H41.6807Z" fill="url(#paint1_radial_338_15)"/>
<path fill-rule="evenodd" clip-rule="evenodd" d="M41.6807 89C40.8858 89 40.1233 89.3155 39.5608 89.8773L32.7066 96.7223L31.2933 95.3071L38.1476 88.4621C39.0851 87.5259 40.3558 87 41.6807 87H136.26C137.76 87 139.18 87.6732 140.13 88.8339L149.357 100.112C149.927 100.809 150.779 101.213 151.679 101.213H236.321C237.221 101.213 238.073 100.809 238.643 100.112L247.87 88.8339C248.82 87.6732 250.24 87 251.74 87H346.319C347.644 87 348.915 87.5259 349.852 88.4621L356.707 95.3071L355.293 96.7223L348.439 89.8772C347.877 89.3155 347.114 89 346.319 89H251.74C250.84 89 249.988 89.4039 249.418 90.1003L240.191 101.379C239.241 102.54 237.821 103.213 236.321 103.213H151.679C150.179 103.213 148.759 102.54 147.809 101.379L138.582 90.1003C138.012 89.4039 137.16 89 136.26 89H41.6807Z" fill="url(#paint2_radial_338_15)"/>
<g filter="url(#filter0_df_338_15)">
<rect x="144" y="10" width="99" height="2" rx="1" fill="#FFF4CE"/>
</g>
<g filter="url(#filter1_dd_338_15)">
<mask id="path-5-outside-1_338_15" maskUnits="userSpaceOnUse" x="100" y="40" width="190" height="25" fill="black">
<rect fill="white" x="100" y="40" width="190" height="25"/>
<path d="M110.006 64L101.846 48V41.6H105.046V47.232L111.958 60.8H114.134L121.046 47.232V41.6H124.246V48L116.086 64H110.006ZM132.894 64V41.6H136.094V64H132.894ZM151.78 41.6H161.38C164.804 41.6 167.684 44.448 167.78 48H164.58C164.58 46.24 163.14 44.8 161.38 44.8H151.78C150.02 44.8 148.58 46.24 148.58 48V57.6C148.58 59.36 150.02 60.8 151.78 60.8H161.38C163.14 60.8 164.58 59.36 164.58 57.6H167.78C167.78 60.992 164.964 64 161.38 64H151.78C148.356 64 145.38 61.216 145.38 57.6V48C145.38 44.544 148.196 41.696 151.78 41.6ZM196.9 44.8H187.3V64H184.1V44.8H174.5V41.6H196.9V44.8ZM223.161 57.6V48C223.161 46.24 221.721 44.8 219.961 44.8H210.361C208.601 44.8 207.161 46.24 207.161 48V57.6C207.161 59.36 208.601 60.8 210.361 60.8H219.961C221.721 60.8 223.161 59.36 223.161 57.6ZM226.361 48V57.6C226.361 61.12 223.481 64 219.961 64H210.361C206.809 64 203.961 61.152 203.961 57.6V48C203.961 44.48 206.841 41.6 210.361 41.6H219.961C223.353 41.6 226.361 44.512 226.361 48ZM254.85 51.2V48C254.85 46.24 253.41 44.8 251.65 44.8H238.85V54.4H251.65C253.41 54.4 254.85 52.96 254.85 51.2ZM258.05 64H255.778L249.378 57.6H238.85V64H235.65V41.6H251.65C255.01 41.6 258.05 44.448 258.05 48V51.2C258.05 53.92 256.258 56.384 253.602 57.28L258.05 61.728V64ZM288.146 46.4L278.546 56.96V64H275.346V56.96L265.746 46.4V41.6H268.946V45.088L276.946 53.888L284.946 45.088V41.6H288.146V46.4Z"/>
</mask>
<path d="M110.006 64L101.846 48V41.6H105.046V47.232L111.958 60.8H114.134L121.046 47.232V41.6H124.246V48L116.086 64H110.006ZM132.894 64V41.6H136.094V64H132.894ZM151.78 41.6H161.38C164.804 41.6 167.684 44.448 167.78 48H164.58C164.58 46.24 163.14 44.8 161.38 44.8H151.78C150.02 44.8 148.58 46.24 148.58 48V57.6C148.58 59.36 150.02 60.8 151.78 60.8H161.38C163.14 60.8 164.58 59.36 164.58 57.6H167.78C167.78 60.992 164.964 64 161.38 64H151.78C148.356 64 145.38 61.216 145.38 57.6V48C145.38 44.544 148.196 41.696 151.78 41.6ZM196.9 44.8H187.3V64H184.1V44.8H174.5V41.6H196.9V44.8ZM223.161 57.6V48C223.161 46.24 221.721 44.8 219.961 44.8H210.361C208.601 44.8 207.161 46.24 207.161 48V57.6C207.161 59.36 208.601 60.8 210.361 60.8H219.961C221.721 60.8 223.161 59.36 223.161 57.6ZM226.361 48V57.6C226.361 61.12 223.481 64 219.961 64H210.361C206.809 64 203.961 61.152 203.961 57.6V48C203.961 44.48 206.841 41.6 210.361 41.6H219.961C223.353 41.6 226.361 44.512 226.361 48ZM254.85 51.2V48C254.85 46.24 253.41 44.8 251.65 44.8H238.85V54.4H251.65C253.41 54.4 254.85 52.96 254.85 51.2ZM258.05 64H255.778L249.378 57.6H238.85V64H235.65V41.6H251.65C255.01 41.6 258.05 44.448 258.05 48V51.2C258.05 53.92 256.258 56.384 253.602 57.28L258.05 61.728V64ZM288.146 46.4L278.546 56.96V64H275.346V56.96L265.746 46.4V41.6H268.946V45.088L276.946 53.888L284.946 45.088V41.6H288.146V46.4Z" fill="url(#paint3_linear_338_15)"/>
<path d="M110.006 64L109.115 64.4543L109.394 65H110.006V64ZM101.846 48H100.846V48.2403L100.955 48.4543L101.846 48ZM101.846 41.6V40.6H100.846V41.6H101.846ZM105.046 41.6H106.046V40.6H105.046V41.6ZM105.046 47.232H104.046V47.472L104.155 47.6859L105.046 47.232ZM111.958 60.8L111.067 61.2539L111.345 61.8H111.958V60.8ZM114.134 60.8V61.8H114.747L115.025 61.2539L114.134 60.8ZM121.046 47.232L121.937 47.6859L122.046 47.472V47.232H121.046ZM121.046 41.6V40.6H120.046V41.6H121.046ZM124.246 41.6H125.246V40.6H124.246V41.6ZM124.246 48L125.137 48.4543L125.246 48.2403V48H124.246ZM116.086 64V65H116.699L116.977 64.4543L116.086 64ZM110.897 63.5457L102.737 47.5457L100.955 48.4543L109.115 64.4543L110.897 63.5457ZM102.846 48V41.6H100.846V48H102.846ZM101.846 42.6H105.046V40.6H101.846V42.6ZM104.046 41.6V47.232H106.046V41.6H104.046ZM104.155 47.6859L111.067 61.2539L112.849 60.3461L105.937 46.7781L104.155 47.6859ZM111.958 61.8H114.134V59.8H111.958V61.8ZM115.025 61.2539L121.937 47.6859L120.155 46.7781L113.243 60.3461L115.025 61.2539ZM122.046 47.232V41.6H120.046V47.232H122.046ZM121.046 42.6H124.246V40.6H121.046V42.6ZM123.246 41.6V48H125.246V41.6H123.246ZM123.355 47.5457L115.195 63.5457L116.977 64.4543L125.137 48.4543L123.355 47.5457ZM116.086 63H110.006V65H116.086V63ZM132.894 64H131.894V65H132.894V64ZM132.894 41.6V40.6H131.894V41.6H132.894ZM136.094 41.6H137.094V40.6H136.094V41.6ZM136.094 64V65H137.094V64H136.094ZM133.894 64V41.6H131.894V64H133.894ZM132.894 42.6H136.094V40.6H132.894V42.6ZM135.094 41.6V64H137.094V41.6H135.094ZM136.094 63H132.894V65H136.094V63ZM151.78 41.6V40.6H151.767L151.753 40.6004L151.78 41.6ZM167.78 48V49H168.807L168.78 47.973L167.78 48ZM164.58 48H163.58V49H164.58V48ZM164.58 57.6V56.6H163.58V57.6H164.58ZM167.78 57.6H168.78V56.6H167.78V57.6ZM151.78 42.6H161.38V40.6H151.78V42.6ZM161.38 42.6C164.24 42.6 166.698 44.9945 166.78 48.027L168.78 47.973C168.67 43.9015 165.368 40.6 161.38 40.6V42.6ZM167.78 47H164.58V49H167.78V47ZM165.58 48C165.58 45.6877 163.692 43.8 161.38 43.8V45.8C162.588 45.8 163.58 46.7923 163.58 48H165.58ZM161.38 43.8H151.78V45.8H161.38V43.8ZM151.78 43.8C149.468 43.8 147.58 45.6877 147.58 48H149.58C149.58 46.7923 150.572 45.8 151.78 45.8V43.8ZM147.58 48V57.6H149.58V48H147.58ZM147.58 57.6C147.58 59.9123 149.468 61.8 151.78 61.8V59.8C150.572 59.8 149.58 58.8077 149.58 57.6H147.58ZM151.78 61.8H161.38V59.8H151.78V61.8ZM161.38 61.8C163.692 61.8 165.58 59.9123 165.58 57.6H163.58C163.58 58.8077 162.588 59.8 161.38 59.8V61.8ZM164.58 58.6H167.78V56.6H164.58V58.6ZM166.78 57.6C166.78 60.4593 164.392 63 161.38 63V65C165.536 65 168.78 61.5247 168.78 57.6H166.78ZM161.38 63H151.78V65H161.38V63ZM151.78 63C148.889 63 146.38 60.6443 146.38 57.6H144.38C144.38 61.7877 147.823 65 151.78 65V63ZM146.38 57.6V48H144.38V57.6H146.38ZM146.38 48C146.38 45.1074 148.743 42.6817 151.807 42.5996L151.753 40.6004C147.649 40.7103 144.38 43.9806 144.38 48H146.38ZM196.9 44.8V45.8H197.9V44.8H196.9ZM187.3 44.8V43.8H186.3V44.8H187.3ZM187.3 64V65H188.3V64H187.3ZM184.1 64H183.1V65H184.1V64ZM184.1 44.8H185.1V43.8H184.1V44.8ZM174.5 44.8H173.5V45.8H174.5V44.8ZM174.5 41.6V40.6H173.5V41.6H174.5ZM196.9 41.6H197.9V40.6H196.9V41.6ZM196.9 43.8H187.3V45.8H196.9V43.8ZM186.3 44.8V64H188.3V44.8H186.3ZM187.3 63H184.1V65H187.3V63ZM185.1 64V44.8H183.1V64H185.1ZM184.1 43.8H174.5V45.8H184.1V43.8ZM175.5 44.8V41.6H173.5V44.8H175.5ZM174.5 42.6H196.9V40.6H174.5V42.6ZM195.9 41.6V44.8H197.9V41.6H195.9ZM224.161 57.6V48H222.161V57.6H224.161ZM224.161 48C224.161 45.6877 222.274 43.8 219.961 43.8V45.8C221.169 45.8 222.161 46.7923 222.161 48H224.161ZM219.961 43.8H210.361V45.8H219.961V43.8ZM210.361 43.8C208.049 43.8 206.161 45.6877 206.161 48H208.161C208.161 46.7923 209.154 45.8 210.361 45.8V43.8ZM206.161 48V57.6H208.161V48H206.161ZM206.161 57.6C206.161 59.9123 208.049 61.8 210.361 61.8V59.8C209.154 59.8 208.161 58.8077 208.161 57.6H206.161ZM210.361 61.8H219.961V59.8H210.361V61.8ZM219.961 61.8C222.274 61.8 224.161 59.9123 224.161 57.6H222.161C222.161 58.8077 221.169 59.8 219.961 59.8V61.8ZM225.361 48V57.6H227.361V48H225.361ZM225.361 57.6C225.361 60.5677 222.929 63 219.961 63V65C224.034 65 227.361 61.6723 227.361 57.6H225.361ZM219.961 63H210.361V65H219.961V63ZM210.361 63C207.362 63 204.961 60.5997 204.961 57.6H202.961C202.961 61.7043 206.257 65 210.361 65V63ZM204.961 57.6V48H202.961V57.6H204.961ZM204.961 48C204.961 45.0323 207.394 42.6 210.361 42.6V40.6C206.289 40.6 202.961 43.9277 202.961 48H204.961ZM210.361 42.6H219.961V40.6H210.361V42.6ZM219.961 42.6C222.811 42.6 225.361 45.0739 225.361 48H227.361C227.361 43.9501 223.896 40.6 219.961 40.6V42.6ZM238.85 44.8V43.8H237.85V44.8H238.85ZM238.85 54.4H237.85V55.4H238.85V54.4ZM258.05 64V65H259.05V64H258.05ZM255.778 64L255.071 64.7071L255.364 65H255.778V64ZM249.378 57.6L250.085 56.8929L249.792 56.6H249.378V57.6ZM238.85 57.6V56.6H237.85V57.6H238.85ZM238.85 64V65H239.85V64H238.85ZM235.65 64H234.65V65H235.65V64ZM235.65 41.6V40.6H234.65V41.6H235.65ZM253.602 57.28L253.282 56.3325L251.755 56.8476L252.895 57.9871L253.602 57.28ZM258.05 61.728H259.05V61.3138L258.757 61.0209L258.05 61.728ZM255.85 51.2V48H253.85V51.2H255.85ZM255.85 48C255.85 45.6877 253.962 43.8 251.65 43.8V45.8C252.858 45.8 253.85 46.7923 253.85 48H255.85ZM251.65 43.8H238.85V45.8H251.65V43.8ZM237.85 44.8V54.4H239.85V44.8H237.85ZM238.85 55.4H251.65V53.4H238.85V55.4ZM251.65 55.4C253.962 55.4 255.85 53.5123 255.85 51.2H253.85C253.85 52.4077 252.858 53.4 251.65 53.4V55.4ZM258.05 63H255.778V65H258.05V63ZM256.485 63.2929L250.085 56.8929L248.671 58.3071L255.071 64.7071L256.485 63.2929ZM249.378 56.6H238.85V58.6H249.378V56.6ZM237.85 57.6V64H239.85V57.6H237.85ZM238.85 63H235.65V65H238.85V63ZM236.65 64V41.6H234.65V64H236.65ZM235.65 42.6H251.65V40.6H235.65V42.6ZM251.65 42.6C254.477 42.6 257.05 45.0196 257.05 48H259.05C259.05 43.8764 255.543 40.6 251.65 40.6V42.6ZM257.05 48V51.2H259.05V48H257.05ZM257.05 51.2C257.05 53.4777 255.544 55.5694 253.282 56.3325L253.922 58.2275C256.972 57.1986 259.05 54.3623 259.05 51.2H257.05ZM252.895 57.9871L257.343 62.4351L258.757 61.0209L254.309 56.5729L252.895 57.9871ZM257.05 61.728V64H259.05V61.728H257.05ZM288.146 46.4L288.886 47.0727L289.146 46.7866V46.4H288.146ZM278.546 56.96L277.806 56.2873L277.546 56.5734V56.96H278.546ZM278.546 64V65H279.546V64H278.546ZM275.346 64H274.346V65H275.346V64ZM275.346 56.96H276.346V56.5734L276.086 56.2873L275.346 56.96ZM265.746 46.4H264.746V46.7866L265.006 47.0727L265.746 46.4ZM265.746 41.6V40.6H264.746V41.6H265.746ZM268.946 41.6H269.946V40.6H268.946V41.6ZM268.946 45.088H267.946V45.4746L268.206 45.7607L268.946 45.088ZM276.946 53.888L276.206 54.5607L276.946 55.3746L277.686 54.5607L276.946 53.888ZM284.946 45.088L285.686 45.7607L285.946 45.4746V45.088H284.946ZM284.946 41.6V40.6H283.946V41.6H284.946ZM288.146 41.6H289.146V40.6H288.146V41.6ZM287.406 45.7273L277.806 56.2873L279.286 57.6327L288.886 47.0727L287.406 45.7273ZM277.546 56.96V64H279.546V56.96H277.546ZM278.546 63H275.346V65H278.546V63ZM276.346 64V56.96H274.346V64H276.346ZM276.086 56.2873L266.486 45.7273L265.006 47.0727L274.606 57.6327L276.086 56.2873ZM266.746 46.4V41.6H264.746V46.4H266.746ZM265.746 42.6H268.946V40.6H265.746V42.6ZM267.946 41.6V45.088H269.946V41.6H267.946ZM268.206 45.7607L276.206 54.5607L277.686 53.2153L269.686 44.4153L268.206 45.7607ZM277.686 54.5607L285.686 45.7607L284.206 44.4153L276.206 53.2153L277.686 54.5607ZM285.946 45.088V41.6H283.946V45.088H285.946ZM284.946 42.6H288.146V40.6H284.946V42.6ZM287.146 41.6V46.4H289.146V41.6H287.146Z" fill="#FFEC8A" mask="url(#path-5-outside-1_338_15)"/>
</g>
<defs>
<filter id="filter0_df_338_15" x="134" y="0" width="119" height="22" filterUnits="userSpaceOnUse" color-interpolation-filters="sRGB">
<feFlood flood-opacity="0" result="BackgroundImageFix"/>
<feColorMatrix in="SourceAlpha" type="matrix" values="0 0 0 0 0 0 0 0 0 0 0 0 0 0 0 0 0 0 127 0" result="hardAlpha"/>
<feOffset/>
<feGaussianBlur stdDeviation="5"/>
<feComposite in2="hardAlpha" operator="out"/>
<feColorMatrix type="matrix" values="0 0 0 0 1 0 0 0 0 0.583588 0 0 0 0 0.00423177 0 0 0 1 0"/>
<feBlend mode="normal" in2="BackgroundImageFix" result="effect1_dropShadow_338_15"/>
<feBlend mode="normal" in="SourceGraphic" in2="effect1_dropShadow_338_15" result="shape"/>
<feGaussianBlur stdDeviation="1" result="effect2_foregroundBlur_338_15"/>
</filter>
<filter id="filter1_dd_338_15" x="91.8463" y="31.6001" width="206.3" height="42.3999" filterUnits="userSpaceOnUse" color-interpolation-filters="sRGB">
<feFlood flood-opacity="0" result="BackgroundImageFix"/>
<feColorMatrix in="SourceAlpha" type="matrix" values="0 0 0 0 0 0 0 0 0 0 0 0 0 0 0 0 0 0 127 0" result="hardAlpha"/>
<feOffset dx="3" dy="3"/>
<feComposite in2="hardAlpha" operator="out"/>
<feColorMatrix type="matrix" values="0 0 0 0 1 0 0 0 0 0.792157 0 0 0 0 0.219608 0 0 0 0.2 0"/>
<feBlend mode="normal" in2="BackgroundImageFix" result="effect1_dropShadow_338_15"/>
<feColorMatrix in="SourceAlpha" type="matrix" values="0 0 0 0 0 0 0 0 0 0 0 0 0 0 0 0 0 0 127 0" result="hardAlpha"/>
<feOffset/>
<feGaussianBlur stdDeviation="5"/>
<feComposite in2="hardAlpha" operator="out"/>
<feColorMatrix type="matrix" values="0 0 0 0 1 0 0 0 0 0.792157 0 0 0 0 0.219608 0 0 0 0.5 0"/>
<feBlend mode="normal" in2="effect1_dropShadow_338_15" result="effect2_dropShadow_338_15"/>
<feBlend mode="normal" in="SourceGraphic" in2="effect2_dropShadow_338_15" result="shape"/>
</filter>
<radialGradient id="paint0_radial_338_15" cx="0" cy="0" r="1" gradientUnits="userSpaceOnUse" gradientTransform="translate(195 51.5) rotate(180) scale(195 268.45)">
<stop offset="0.33031" stop-color="#FFB70D"/>
<stop offset="1" stop-color="#FFEE8F" stop-opacity="0"/>
</radialGradient>
<radialGradient id="paint1_radial_338_15" cx="0" cy="0" r="1" gradientUnits="userSpaceOnUse" gradientTransform="translate(194 8.10652) rotate(180) scale(162.707 71.3494)">
<stop offset="0.33031" stop-color="#FFB70D"/>
<stop offset="1" stop-color="#FFEE8F" stop-opacity="0"/>
</radialGradient>
<radialGradient id="paint2_radial_338_15" cx="0" cy="0" r="1" gradientUnits="userSpaceOnUse" gradientTransform="translate(194 95.1064) rotate(180) scale(162.707 71.3494)">
<stop offset="0.33031" stop-color="#FFB70D"/>
<stop offset="1" stop-color="#FFEE8F" stop-opacity="0"/>
</radialGradient>
<linearGradient id="paint3_linear_338_15" x1="195" y1="41.8788" x2="195" y2="64.303" gradientUnits="userSpaceOnUse">
<stop stop-color="#FFF093"/>
<stop offset="1" stop-color="#FFB303"/>
</linearGradient>
</defs>
</svg>
