<svg width="390" height="105" viewBox="0 0 390 105" fill="none" xmlns="http://www.w3.org/2000/svg">
<path opacity="0.6" d="M0 22H390V83H246L237 93H153L144 83H0V22Z" fill="url(#paint0_radial_338_9)"/>
<path fill-rule="evenodd" clip-rule="evenodd" d="M41.6807 15.2128C40.8858 15.2128 40.1233 14.8973 39.5608 14.3355L32.7066 7.49048L31.2933 8.90564L38.1476 15.7507C39.0851 16.6869 40.3558 17.2128 41.6807 17.2128H126.26C127.76 17.2128 129.18 16.5396 130.13 15.3789L139.357 4.10037C139.927 3.40393 140.779 3.00002 141.679 3.00002H246.321C247.221 3.00002 248.073 3.40393 248.643 4.10037L257.87 15.3789C258.82 16.5396 260.24 17.2128 261.74 17.2128H346.319C347.644 17.2128 348.915 16.6869 349.852 15.7507L356.707 8.90564L355.293 7.49048L348.439 14.3355C347.877 14.8972 347.114 15.2128 346.319 15.2128H261.74C260.84 15.2128 259.988 14.8089 259.418 14.1124L250.191 2.83393C249.241 1.6732 247.821 1.00002 246.321 1.00002H141.679C140.179 1.00002 138.759 1.6732 137.809 2.83393L128.582 14.1124C128.012 14.8089 127.16 15.2128 126.26 15.2128H41.6807Z" fill="url(#paint1_radial_338_9)"/>
<path fill-rule="evenodd" clip-rule="evenodd" d="M41.6807 90C40.8858 90 40.1233 90.3155 39.5608 90.8773L32.7066 97.7223L31.2933 96.3071L38.1476 89.4621C39.0851 88.5259 40.3558 88 41.6807 88H136.26C137.76 88 139.18 88.6732 140.13 89.8339L149.357 101.112C149.927 101.809 150.779 102.213 151.679 102.213H236.321C237.221 102.213 238.073 101.809 238.643 101.112L247.87 89.8339C248.82 88.6732 250.24 88 251.74 88H346.319C347.644 88 348.915 88.5259 349.852 89.4621L356.707 96.3071L355.293 97.7223L348.439 90.8772C347.877 90.3155 347.114 90 346.319 90H251.74C250.84 90 249.988 90.4039 249.418 91.1003L240.191 102.379C239.241 103.54 237.821 104.213 236.321 104.213H151.679C150.179 104.213 148.759 103.54 147.809 102.379L138.582 91.1003C138.012 90.4039 137.16 90 136.26 90H41.6807Z" fill="url(#paint2_radial_338_9)"/>
<g filter="url(#filter0_d_338_9)">
<rect x="144" y="10" width="99" height="4" rx="2" fill="#E91F38"/>
</g>
<g filter="url(#filter1_df_338_9)">
<rect x="144" y="11" width="99" height="2" rx="1" fill="#FFDDE1"/>
</g>
<g filter="url(#filter2_dd_338_9)">
<mask id="path-6-outside-1_338_9" maskUnits="userSpaceOnUse" x="106" y="41" width="180" height="25" fill="black">
<rect fill="white" x="106" y="41" width="180" height="25"/>
<path d="M126.863 58.6V49C126.863 47.24 125.423 45.8 123.663 45.8H110.863V61.8H123.663C125.423 61.8 126.863 60.36 126.863 58.6ZM130.063 49V58.6C130.063 61.992 127.247 65 123.663 65H107.663V42.6H123.663C127.087 42.6 129.967 45.448 130.063 49ZM142.544 45.8V52.2H158.544V55.4H142.544V61.8H161.744V65H139.344V42.6H161.744V45.8H142.544ZM173.912 45.8V52.2H189.913V55.4H173.912V65H170.712V42.6H193.113V45.8H173.912ZM204.937 45.8V52.2H220.937V55.4H204.937V61.8H224.137V65H201.737V42.6H224.137V45.8H204.937ZM249.106 45.8H239.506C237.746 45.8 236.306 47.24 236.306 49V55.4H252.306V49C252.306 47.24 250.866 45.8 249.106 45.8ZM255.506 49V65H252.306V58.6H236.306V65H233.106V49C233.106 45.608 235.922 42.6 239.506 42.6H249.106C252.53 42.6 255.41 45.448 255.506 49ZM284.931 45.8H275.331V65H272.131V45.8H262.531V42.6H284.931V45.8Z"/>
</mask>
<path d="M126.863 58.6V49C126.863 47.24 125.423 45.8 123.663 45.8H110.863V61.8H123.663C125.423 61.8 126.863 60.36 126.863 58.6ZM130.063 49V58.6C130.063 61.992 127.247 65 123.663 65H107.663V42.6H123.663C127.087 42.6 129.967 45.448 130.063 49ZM142.544 45.8V52.2H158.544V55.4H142.544V61.8H161.744V65H139.344V42.6H161.744V45.8H142.544ZM173.912 45.8V52.2H189.913V55.4H173.912V65H170.712V42.6H193.113V45.8H173.912ZM204.937 45.8V52.2H220.937V55.4H204.937V61.8H224.137V65H201.737V42.6H224.137V45.8H204.937ZM249.106 45.8H239.506C237.746 45.8 236.306 47.24 236.306 49V55.4H252.306V49C252.306 47.24 250.866 45.8 249.106 45.8ZM255.506 49V65H252.306V58.6H236.306V65H233.106V49C233.106 45.608 235.922 42.6 239.506 42.6H249.106C252.53 42.6 255.41 45.448 255.506 49ZM284.931 45.8H275.331V65H272.131V45.8H262.531V42.6H284.931V45.8Z" fill="url(#paint3_linear_338_9)"/>
<path d="M110.863 45.8V44.8H109.863V45.8H110.863ZM110.863 61.8H109.863V62.8H110.863V61.8ZM130.063 49H131.063V48.9865L131.062 48.973L130.063 49ZM107.663 65H106.663V66H107.663V65ZM107.663 42.6V41.6H106.663V42.6H107.663ZM127.863 58.6V49H125.863V58.6H127.863ZM127.863 49C127.863 46.6877 125.975 44.8 123.663 44.8V46.8C124.87 46.8 125.863 47.7923 125.863 49H127.863ZM123.663 44.8H110.863V46.8H123.663V44.8ZM109.863 45.8V61.8H111.863V45.8H109.863ZM110.863 62.8H123.663V60.8H110.863V62.8ZM123.663 62.8C125.975 62.8 127.863 60.9123 127.863 58.6H125.863C125.863 59.8077 124.87 60.8 123.663 60.8V62.8ZM129.063 49V58.6H131.063V49H129.063ZM129.063 58.6C129.063 61.4593 126.675 64 123.663 64V66C127.818 66 131.063 62.5247 131.063 58.6H129.063ZM123.663 64H107.663V66H123.663V64ZM108.663 65V42.6H106.663V65H108.663ZM107.663 43.6H123.663V41.6H107.663V43.6ZM123.663 43.6C126.523 43.6 128.981 45.9945 129.063 49.027L131.062 48.973C130.952 44.9015 127.65 41.6 123.663 41.6V43.6ZM142.544 45.8V44.8H141.544V45.8H142.544ZM142.544 52.2H141.544V53.2H142.544V52.2ZM158.544 52.2H159.544V51.2H158.544V52.2ZM158.544 55.4V56.4H159.544V55.4H158.544ZM142.544 55.4V54.4H141.544V55.4H142.544ZM142.544 61.8H141.544V62.8H142.544V61.8ZM161.744 61.8H162.744V60.8H161.744V61.8ZM161.744 65V66H162.744V65H161.744ZM139.344 65H138.344V66H139.344V65ZM139.344 42.6V41.6H138.344V42.6H139.344ZM161.744 42.6H162.744V41.6H161.744V42.6ZM161.744 45.8V46.8H162.744V45.8H161.744ZM141.544 45.8V52.2H143.544V45.8H141.544ZM142.544 53.2H158.544V51.2H142.544V53.2ZM157.544 52.2V55.4H159.544V52.2H157.544ZM158.544 54.4H142.544V56.4H158.544V54.4ZM141.544 55.4V61.8H143.544V55.4H141.544ZM142.544 62.8H161.744V60.8H142.544V62.8ZM160.744 61.8V65H162.744V61.8H160.744ZM161.744 64H139.344V66H161.744V64ZM140.344 65V42.6H138.344V65H140.344ZM139.344 43.6H161.744V41.6H139.344V43.6ZM160.744 42.6V45.8H162.744V42.6H160.744ZM161.744 44.8H142.544V46.8H161.744V44.8ZM173.912 45.8V44.8H172.912V45.8H173.912ZM173.912 52.2H172.912V53.2H173.912V52.2ZM189.913 52.2H190.913V51.2H189.913V52.2ZM189.913 55.4V56.4H190.913V55.4H189.913ZM173.912 55.4V54.4H172.912V55.4H173.912ZM173.912 65V66H174.912V65H173.912ZM170.712 65H169.712V66H170.712V65ZM170.712 42.6V41.6H169.712V42.6H170.712ZM193.113 42.6H194.113V41.6H193.113V42.6ZM193.113 45.8V46.8H194.113V45.8H193.113ZM172.912 45.8V52.2H174.912V45.8H172.912ZM173.912 53.2H189.913V51.2H173.912V53.2ZM188.913 52.2V55.4H190.913V52.2H188.913ZM189.913 54.4H173.912V56.4H189.913V54.4ZM172.912 55.4V65H174.912V55.4H172.912ZM173.912 64H170.712V66H173.912V64ZM171.712 65V42.6H169.712V65H171.712ZM170.712 43.6H193.113V41.6H170.712V43.6ZM192.113 42.6V45.8H194.113V42.6H192.113ZM193.113 44.8H173.912V46.8H193.113V44.8ZM204.937 45.8V44.8H203.937V45.8H204.937ZM204.937 52.2H203.937V53.2H204.937V52.2ZM220.937 52.2H221.937V51.2H220.937V52.2ZM220.937 55.4V56.4H221.937V55.4H220.937ZM204.937 55.4V54.4H203.937V55.4H204.937ZM204.937 61.8H203.937V62.8H204.937V61.8ZM224.137 61.8H225.137V60.8H224.137V61.8ZM224.137 65V66H225.137V65H224.137ZM201.737 65H200.737V66H201.737V65ZM201.737 42.6V41.6H200.737V42.6H201.737ZM224.137 42.6H225.137V41.6H224.137V42.6ZM224.137 45.8V46.8H225.137V45.8H224.137ZM203.937 45.8V52.2H205.937V45.8H203.937ZM204.937 53.2H220.937V51.2H204.937V53.2ZM219.937 52.2V55.4H221.937V52.2H219.937ZM220.937 54.4H204.937V56.4H220.937V54.4ZM203.937 55.4V61.8H205.937V55.4H203.937ZM204.937 62.8H224.137V60.8H204.937V62.8ZM223.137 61.8V65H225.137V61.8H223.137ZM224.137 64H201.737V66H224.137V64ZM202.737 65V42.6H200.737V65H202.737ZM201.737 43.6H224.137V41.6H201.737V43.6ZM223.137 42.6V45.8H225.137V42.6H223.137ZM224.137 44.8H204.937V46.8H224.137V44.8ZM236.306 55.4H235.306V56.4H236.306V55.4ZM252.306 55.4V56.4H253.306V55.4H252.306ZM255.506 49H256.506V48.9865L256.506 48.973L255.506 49ZM255.506 65V66H256.506V65H255.506ZM252.306 65H251.306V66H252.306V65ZM252.306 58.6H253.306V57.6H252.306V58.6ZM236.306 58.6V57.6H235.306V58.6H236.306ZM236.306 65V66H237.306V65H236.306ZM233.106 65H232.106V66H233.106V65ZM249.106 44.8H239.506V46.8H249.106V44.8ZM239.506 44.8C237.194 44.8 235.306 46.6877 235.306 49H237.306C237.306 47.7923 238.299 46.8 239.506 46.8V44.8ZM235.306 49V55.4H237.306V49H235.306ZM236.306 56.4H252.306V54.4H236.306V56.4ZM253.306 55.4V49H251.306V55.4H253.306ZM253.306 49C253.306 46.6877 251.419 44.8 249.106 44.8V46.8C250.314 46.8 251.306 47.7923 251.306 49H253.306ZM254.506 49V65H256.506V49H254.506ZM255.506 64H252.306V66H255.506V64ZM253.306 65V58.6H251.306V65H253.306ZM252.306 57.6H236.306V59.6H252.306V57.6ZM235.306 58.6V65H237.306V58.6H235.306ZM236.306 64H233.106V66H236.306V64ZM234.106 65V49H232.106V65H234.106ZM234.106 49C234.106 46.1407 236.494 43.6 239.506 43.6V41.6C235.351 41.6 232.106 45.0753 232.106 49H234.106ZM239.506 43.6H249.106V41.6H239.506V43.6ZM249.106 43.6C251.967 43.6 254.425 45.9945 254.507 49.027L256.506 48.973C256.396 44.9015 253.094 41.6 249.106 41.6V43.6ZM284.931 45.8V46.8H285.931V45.8H284.931ZM275.331 45.8V44.8H274.331V45.8H275.331ZM275.331 65V66H276.331V65H275.331ZM272.131 65H271.131V66H272.131V65ZM272.131 45.8H273.131V44.8H272.131V45.8ZM262.531 45.8H261.531V46.8H262.531V45.8ZM262.531 42.6V41.6H261.531V42.6H262.531ZM284.931 42.6H285.931V41.6H284.931V42.6ZM284.931 44.8H275.331V46.8H284.931V44.8ZM274.331 45.8V65H276.331V45.8H274.331ZM275.331 64H272.131V66H275.331V64ZM273.131 65V45.8H271.131V65H273.131ZM272.131 44.8H262.531V46.8H272.131V44.8ZM263.531 45.8V42.6H261.531V45.8H263.531ZM262.531 43.6H284.931V41.6H262.531V43.6ZM283.931 42.6V45.8H285.931V42.6H283.931Z" fill="#FF697B" mask="url(#path-6-outside-1_338_9)"/>
</g>
<defs>
<filter id="filter0_d_338_9" x="134" y="0" width="119" height="24" filterUnits="userSpaceOnUse" color-interpolation-filters="sRGB">
<feFlood flood-opacity="0" result="BackgroundImageFix"/>
<feColorMatrix in="SourceAlpha" type="matrix" values="0 0 0 0 0 0 0 0 0 0 0 0 0 0 0 0 0 0 127 0" result="hardAlpha"/>
<feOffset/>
<feGaussianBlur stdDeviation="5"/>
<feComposite in2="hardAlpha" operator="out"/>
<feColorMatrix type="matrix" values="0 0 0 0 0.913725 0 0 0 0 0.121569 0 0 0 0 0.219608 0 0 0 1 0"/>
<feBlend mode="normal" in2="BackgroundImageFix" result="effect1_dropShadow_338_9"/>
<feBlend mode="normal" in="SourceGraphic" in2="effect1_dropShadow_338_9" result="shape"/>
</filter>
<filter id="filter1_df_338_9" x="134" y="1" width="119" height="22" filterUnits="userSpaceOnUse" color-interpolation-filters="sRGB">
<feFlood flood-opacity="0" result="BackgroundImageFix"/>
<feColorMatrix in="SourceAlpha" type="matrix" values="0 0 0 0 0 0 0 0 0 0 0 0 0 0 0 0 0 0 127 0" result="hardAlpha"/>
<feOffset/>
<feGaussianBlur stdDeviation="5"/>
<feComposite in2="hardAlpha" operator="out"/>
<feColorMatrix type="matrix" values="0 0 0 0 0.913725 0 0 0 0 0.121569 0 0 0 0 0.219608 0 0 0 1 0"/>
<feBlend mode="normal" in2="BackgroundImageFix" result="effect1_dropShadow_338_9"/>
<feBlend mode="normal" in="SourceGraphic" in2="effect1_dropShadow_338_9" result="shape"/>
<feGaussianBlur stdDeviation="1" result="effect2_foregroundBlur_338_9"/>
</filter>
<filter id="filter2_dd_338_9" x="97.6625" y="32.6" width="197.269" height="42.4" filterUnits="userSpaceOnUse" color-interpolation-filters="sRGB">
<feFlood flood-opacity="0" result="BackgroundImageFix"/>
<feColorMatrix in="SourceAlpha" type="matrix" values="0 0 0 0 0 0 0 0 0 0 0 0 0 0 0 0 0 0 127 0" result="hardAlpha"/>
<feOffset dx="3" dy="3"/>
<feComposite in2="hardAlpha" operator="out"/>
<feColorMatrix type="matrix" values="0 0 0 0 0.913725 0 0 0 0 0.121569 0 0 0 0 0.219608 0 0 0 0.2 0"/>
<feBlend mode="normal" in2="BackgroundImageFix" result="effect1_dropShadow_338_9"/>
<feColorMatrix in="SourceAlpha" type="matrix" values="0 0 0 0 0 0 0 0 0 0 0 0 0 0 0 0 0 0 127 0" result="hardAlpha"/>
<feOffset/>
<feGaussianBlur stdDeviation="5"/>
<feComposite in2="hardAlpha" operator="out"/>
<feColorMatrix type="matrix" values="0 0 0 0 0.913725 0 0 0 0 0.121569 0 0 0 0 0.219608 0 0 0 0.5 0"/>
<feBlend mode="normal" in2="effect1_dropShadow_338_9" result="effect2_dropShadow_338_9"/>
<feBlend mode="normal" in="SourceGraphic" in2="effect2_dropShadow_338_9" result="shape"/>
</filter>
<radialGradient id="paint0_radial_338_9" cx="0" cy="0" r="1" gradientUnits="userSpaceOnUse" gradientTransform="translate(195 52.5) rotate(180) scale(195 268.45)">
<stop offset="0.33031" stop-color="#E91F38"/>
<stop offset="1" stop-color="#FF5C71" stop-opacity="0"/>
</radialGradient>
<radialGradient id="paint1_radial_338_9" cx="0" cy="0" r="1" gradientUnits="userSpaceOnUse" gradientTransform="translate(194 10.2481) rotate(180) scale(162.707 61.3002)">
<stop offset="0.33031" stop-color="#E91F38"/>
<stop offset="1" stop-color="#FF5C71" stop-opacity="0"/>
</radialGradient>
<radialGradient id="paint2_radial_338_9" cx="0" cy="0" r="1" gradientUnits="userSpaceOnUse" gradientTransform="translate(194 94.9646) rotate(180) scale(162.707 61.3002)">
<stop offset="0.33031" stop-color="#E91F38"/>
<stop offset="1" stop-color="#FF5C71" stop-opacity="0"/>
</radialGradient>
<linearGradient id="paint3_linear_338_9" x1="195.5" y1="42.8788" x2="195.5" y2="65.303" gradientUnits="userSpaceOnUse">
<stop stop-color="#FFD5DA"/>
<stop offset="1" stop-color="#FF697B"/>
</linearGradient>
</defs>
</svg>
