<svg width="69" height="37" viewBox="0 0 69 37" fill="none" xmlns="http://www.w3.org/2000/svg">
<circle opacity="0.55" cx="34.5" cy="18.5" r="18.5" fill="url(#paint0_radial_117_2300)"/>
<path d="M48 18.5C48.0016 19.9749 47.7611 21.4401 47.2881 22.8371L46.1998 22.4682C45.5882 24.2575 44.5758 25.8835 43.24 27.2219C41.9042 28.5604 40.2803 29.576 38.4922 30.1913L38.8635 31.2791C36.034 32.2403 32.9661 32.2403 30.1366 31.2791L30.5078 30.1912C28.7198 29.576 27.0958 28.5604 25.7601 27.222C24.4243 25.8836 23.412 24.2576 22.8004 22.4683L21.712 22.8373C20.7627 20.0237 20.7627 16.9763 21.712 14.1627L22.8004 14.5317C23.4133 12.7383 24.4288 11.109 25.769 9.76883C27.1092 8.42866 28.7384 7.41317 30.5318 6.8002L30.1629 5.71191C32.9765 4.76268 36.0237 4.7627 38.8373 5.71197L38.4684 6.80031C40.2618 7.4133 41.891 8.4288 43.2312 9.76898C44.5714 11.1092 45.5869 12.7384 46.1998 14.5318L47.2881 14.1629C47.7611 15.5599 48.0016 17.0251 48 18.5ZM34.5 6.58546C32.1435 6.58546 29.84 7.28424 27.8807 8.59343C25.9213 9.90261 24.3942 11.7634 23.4924 13.9405C22.5907 16.1176 22.3547 18.5132 22.8144 20.8244C23.2742 23.1356 24.4089 25.2585 26.0752 26.9248C27.7415 28.5911 29.8644 29.7258 32.1756 30.1855C34.4868 30.6453 36.8824 30.4093 39.0595 29.5076C41.2366 28.6058 43.0974 27.0787 44.4066 25.1193C45.7157 23.16 46.4145 20.8565 46.4145 18.5C46.411 15.3412 45.1546 12.3127 42.9209 10.0791C40.6873 7.84544 37.6588 6.58902 34.5 6.58546Z" fill="url(#paint1_linear_117_2300)"/>
<path d="M15.8004 23.4682C16.412 25.2575 17.4243 26.8835 18.7601 28.2219L19.0752 27.9247C17.4089 26.2585 16.2742 24.1355 15.8144 21.8243C15.3547 19.5131 15.5907 17.1175 16.4924 14.9404C17.3942 12.7633 18.9213 10.9025 20.8807 9.59335L20 9.49992L18.769 10.7688C17.4288 12.1089 16.4133 13.7382 15.8004 15.5316L14.712 15.1626C13.7627 17.9762 13.7627 21.0236 14.712 23.8372L15.8004 23.4682Z" fill="#19C2EF" fill-opacity="0.3"/>
<path d="M8.30828 22.6992C8.75272 23.9416 9.48836 25.0706 10.459 26L10.688 25.7936C9.47718 24.6366 8.65258 23.1625 8.31851 21.5577C7.98444 19.9529 8.1559 18.2894 8.8112 16.7777C9.4665 15.266 10.5762 13.9739 12 13.0649L11.36 13L10.4655 13.881C9.49164 14.8116 8.75371 15.9429 8.30828 17.1882L7.51741 16.932C6.82753 18.8857 6.82753 21.0017 7.51741 22.9554L8.30828 22.6992Z" fill="#19C2EF" fill-opacity="0.15"/>
<path d="M0.471824 34H14.4132L19.8622 29.6436C19.9505 29.5729 20.0001 29.477 20 29.377C19.9999 29.277 19.9503 29.1812 19.8619 29.1105C19.7735 29.0398 19.6536 29.0001 19.5285 29C19.4035 28.9999 19.2835 29.0396 19.195 29.1101L14.0222 33.2456H0.471824C0.346689 33.2456 0.226675 33.2853 0.138191 33.3561C0.0497063 33.4268 -2.31022e-07 33.5228 -2.31022e-07 33.6228C-2.31022e-07 33.7228 0.0497063 33.8188 0.138191 33.8895C0.226675 33.9603 0.346689 34 0.471824 34Z" fill="#19C2EF" fill-opacity="0.4"/>
<path d="M53.0803 23.4682C52.4686 25.2575 51.4563 26.8835 50.1205 28.2219L49.8054 27.9247C51.4717 26.2585 52.6064 24.1355 53.0662 21.8243C53.5259 19.5131 53.2899 17.1175 52.3882 14.9404C51.4864 12.7633 49.9593 10.9025 48 9.59335L48.8806 9.49992L50.1116 10.7688C51.4518 12.1089 52.4673 13.7382 53.0803 15.5316L54.1686 15.1626C55.118 17.9762 55.118 21.0236 54.1686 23.8372L53.0803 23.4682Z" fill="#19C2EF" fill-opacity="0.3"/>
<path d="M60.5723 22.6992C60.1279 23.9416 59.3923 25.0706 58.4216 26L58.1926 25.7936C59.4034 24.6366 60.228 23.1625 60.5621 21.5577C60.8962 19.9529 60.7247 18.2894 60.0694 16.7777C59.4141 15.266 58.3044 13.9739 56.8806 13.0649L57.5206 13L58.4151 13.881C59.389 14.8116 60.1269 15.9429 60.5723 17.1882L61.3632 16.932C62.0531 18.8857 62.0531 21.0017 61.3632 22.9554L60.5723 22.6992Z" fill="#19C2EF" fill-opacity="0.15"/>
<path d="M68.4088 34H54.4675L49.0185 29.6436C48.9301 29.5729 48.8806 29.477 48.8806 29.377C48.8807 29.277 48.9304 29.1812 49.0188 29.1105C49.1072 29.0398 49.2271 29.0001 49.3521 29C49.4771 28.9999 49.5971 29.0396 49.6856 29.1101L54.8584 33.2456H68.4088C68.5339 33.2456 68.6539 33.2853 68.7424 33.3561C68.8309 33.4268 68.8806 33.5228 68.8806 33.6228C68.8806 33.7228 68.8309 33.8188 68.7424 33.8895C68.6539 33.9603 68.5339 34 68.4088 34Z" fill="#19C2EF" fill-opacity="0.4"/>
<defs>
<radialGradient id="paint0_radial_117_2300" cx="0" cy="0" r="1" gradientUnits="userSpaceOnUse" gradientTransform="translate(34.5 18.5) rotate(90) scale(18.5)">
<stop stop-color="#19C2EF"/>
<stop offset="1" stop-color="#056CE9" stop-opacity="0"/>
</radialGradient>
<linearGradient id="paint1_linear_117_2300" x1="34.5" y1="32" x2="34.5" y2="5" gradientUnits="userSpaceOnUse">
<stop stop-color="#0974F8"/>
<stop offset="1" stop-color="#4FB2FE"/>
</linearGradient>
</defs>
</svg>
