<svg width="28" height="28" viewBox="0 0 28 28" fill="none" xmlns="http://www.w3.org/2000/svg">
<path d="M2.20383 11.5405C2.47556 12.5794 2.99504 13.4825 3.76227 14.2498L14 24.8472L24.2378 14.2498C25.005 13.4825 25.5245 12.5794 25.7962 11.5405C26.068 10.5015 26.068 9.47053 25.7962 8.44755C25.5245 7.42458 25.005 6.52947 24.2378 5.76224C23.4706 4.99501 22.5755 4.47552 21.5525 4.2038C20.5295 3.93207 19.4905 3.93207 18.4356 4.2038C17.3807 4.47552 16.4855 4.99501 15.7503 5.76224L14 7.87213L12.2498 5.76224C11.4825 4.99501 10.5874 4.47552 9.56447 4.2038C8.54149 3.93207 7.51052 3.93207 6.47156 4.2038C5.4326 4.47552 4.5295 4.99501 3.76227 5.76224C2.99504 6.52947 2.47556 7.42458 2.20383 8.44755C1.9321 9.47053 1.9321 10.5015 2.20383 11.5405Z" fill="url(#paint0_linear_262_79848)"/>
<path d="M4.12187 13.9024L4.12192 13.9023L4.11582 13.8962C3.41068 13.1911 2.93658 12.3661 2.68756 11.4139C2.43735 10.4573 2.43785 9.51413 2.68707 8.57591C2.93558 7.64033 3.40927 6.82234 4.11582 6.11579C4.82096 5.41065 5.64594 4.93655 6.59807 4.68753C7.55474 4.43732 8.49789 4.43782 9.43611 4.68704C10.3646 4.93366 11.1772 5.40205 11.8801 6.09971L13.6152 8.19136L14 8.65526L14.3849 8.19136L16.1234 6.09556C16.7903 5.40418 17.5989 4.93563 18.5603 4.68799C19.5347 4.437 20.4865 4.43799 21.4241 4.68704C22.3597 4.93555 23.1777 5.40924 23.8842 6.11579C24.5908 6.82234 25.0645 7.64033 25.313 8.57591C25.5622 9.51413 25.5627 10.4573 25.3125 11.4139C25.0635 12.3661 24.5894 13.1911 23.8842 13.8962L23.8842 13.8961L23.8782 13.9024L14 24.1275L4.12187 13.9024Z" stroke="#19C2EF" stroke-opacity="0.55"/>
<defs>
<linearGradient id="paint0_linear_262_79848" x1="14" y1="4" x2="14" y2="24.8472" gradientUnits="userSpaceOnUse">
<stop stop-color="#0974F8"/>
<stop offset="1" stop-color="#4FB2FE"/>
</linearGradient>
</defs>
</svg>
