<svg width="36" height="37" viewBox="0 0 36 37" fill="none" xmlns="http://www.w3.org/2000/svg">
<g clip-path="url(#clip0_262_17892)">
<rect x="2" y="2.2373" width="32" height="32" fill="#0974F8" fill-opacity="0.3"/>
<g filter="url(#filter0_d_262_17892)">
<path d="M1 28.2373L8 35.2373M1 28.2373V31.2373L5 35.2373H8M1 28.2373V25.2373M8 35.2373H11M2.5 25.2373L2.5 22.2373" stroke="#19C2EF" stroke-opacity="0.8" shape-rendering="crispEdges"/>
</g>
<g filter="url(#filter1_d_262_17892)">
<path d="M35 28.2373L28 35.2373M35 28.2373V31.2373L31 35.2373H28M35 28.2373V25.2373M28 35.2373H25M33.5 25.2373L33.5 22.2373" stroke="#19C2EF" stroke-opacity="0.8" shape-rendering="crispEdges"/>
</g>
<g filter="url(#filter2_d_262_17892)">
<path d="M1 8.2373L8 1.2373M1 8.2373V5.2373L5 1.2373H8M1 8.2373V11.2373M8 1.2373H11M2.5 11.2373L2.5 14.2373" stroke="#19C2EF" stroke-opacity="0.8" shape-rendering="crispEdges"/>
</g>
<g filter="url(#filter3_d_262_17892)">
<path d="M35 8.2373L28 1.2373M35 8.2373V5.2373L31 1.2373H28M35 8.2373V11.2373M28 1.2373H25M33.5 11.2373L33.5 14.2373" stroke="#19C2EF" stroke-opacity="0.8" shape-rendering="crispEdges"/>
</g>
<path fill-rule="evenodd" clip-rule="evenodd" d="M6.00003 18C6.00003 11.3726 11.3726 6 18 6C24.6274 6 30 11.3726 30 18C30 24.6274 24.6274 30 18 30C11.3726 30 6.00003 24.6274 6.00003 18ZM16.0909 16.9091C16.0909 16.3066 16.5793 15.8182 17.1818 15.8182H18.8182C19.4207 15.8182 19.9091 16.3066 19.9091 16.9091V24.5455C19.9091 25.148 19.4207 25.6364 18.8182 25.6364H17.1818C16.5793 25.6364 16.0909 25.148 16.0909 24.5455V16.9091ZM20.1818 12.5455C20.1818 11.3405 19.205 10.3636 18 10.3636C16.795 10.3636 15.8182 11.3405 15.8182 12.5455C15.8182 13.7504 16.795 14.7273 18 14.7273C19.205 14.7273 20.1818 13.7504 20.1818 12.5455Z" fill="url(#paint0_linear_262_17892)"/>
<path d="M6.50003 18C6.50003 11.6487 11.6488 6.5 18 6.5C24.3513 6.5 29.5 11.6487 29.5 18C29.5 24.3512 24.3513 29.5 18 29.5C11.6488 29.5 6.50003 24.3512 6.50003 18ZM17.1818 15.3182C16.3032 15.3182 15.5909 16.0304 15.5909 16.9091V24.5455C15.5909 25.4241 16.3032 26.1364 17.1818 26.1364H18.8182C19.6969 26.1364 20.4091 25.4241 20.4091 24.5455V16.9091C20.4091 16.0304 19.6969 15.3182 18.8182 15.3182H17.1818ZM20.6818 12.5455C20.6818 11.0643 19.4812 9.86364 18 9.86364C16.5189 9.86364 15.3182 11.0643 15.3182 12.5455C15.3182 14.0266 16.5189 15.2273 18 15.2273C19.4812 15.2273 20.6818 14.0266 20.6818 12.5455Z" stroke="#19C2EF" stroke-opacity="0.55"/>
</g>
<defs>
<filter id="filter0_d_262_17892" x="-4.5" y="17.2373" width="20.5" height="23.5" filterUnits="userSpaceOnUse" color-interpolation-filters="sRGB">
<feFlood flood-opacity="0" result="BackgroundImageFix"/>
<feColorMatrix in="SourceAlpha" type="matrix" values="0 0 0 0 0 0 0 0 0 0 0 0 0 0 0 0 0 0 127 0" result="hardAlpha"/>
<feOffset/>
<feGaussianBlur stdDeviation="2.5"/>
<feComposite in2="hardAlpha" operator="out"/>
<feColorMatrix type="matrix" values="0 0 0 0 0.0980392 0 0 0 0 0.760784 0 0 0 0 0.937255 0 0 0 0.55 0"/>
<feBlend mode="normal" in2="BackgroundImageFix" result="effect1_dropShadow_262_17892"/>
<feBlend mode="normal" in="SourceGraphic" in2="effect1_dropShadow_262_17892" result="shape"/>
</filter>
<filter id="filter1_d_262_17892" x="20" y="17.2373" width="20.5" height="23.5" filterUnits="userSpaceOnUse" color-interpolation-filters="sRGB">
<feFlood flood-opacity="0" result="BackgroundImageFix"/>
<feColorMatrix in="SourceAlpha" type="matrix" values="0 0 0 0 0 0 0 0 0 0 0 0 0 0 0 0 0 0 127 0" result="hardAlpha"/>
<feOffset/>
<feGaussianBlur stdDeviation="2.5"/>
<feComposite in2="hardAlpha" operator="out"/>
<feColorMatrix type="matrix" values="0 0 0 0 0.0980392 0 0 0 0 0.760784 0 0 0 0 0.937255 0 0 0 0.55 0"/>
<feBlend mode="normal" in2="BackgroundImageFix" result="effect1_dropShadow_262_17892"/>
<feBlend mode="normal" in="SourceGraphic" in2="effect1_dropShadow_262_17892" result="shape"/>
</filter>
<filter id="filter2_d_262_17892" x="-4.5" y="-4.2627" width="20.5" height="23.5" filterUnits="userSpaceOnUse" color-interpolation-filters="sRGB">
<feFlood flood-opacity="0" result="BackgroundImageFix"/>
<feColorMatrix in="SourceAlpha" type="matrix" values="0 0 0 0 0 0 0 0 0 0 0 0 0 0 0 0 0 0 127 0" result="hardAlpha"/>
<feOffset/>
<feGaussianBlur stdDeviation="2.5"/>
<feComposite in2="hardAlpha" operator="out"/>
<feColorMatrix type="matrix" values="0 0 0 0 0.0980392 0 0 0 0 0.760784 0 0 0 0 0.937255 0 0 0 0.55 0"/>
<feBlend mode="normal" in2="BackgroundImageFix" result="effect1_dropShadow_262_17892"/>
<feBlend mode="normal" in="SourceGraphic" in2="effect1_dropShadow_262_17892" result="shape"/>
</filter>
<filter id="filter3_d_262_17892" x="20" y="-4.2627" width="20.5" height="23.5" filterUnits="userSpaceOnUse" color-interpolation-filters="sRGB">
<feFlood flood-opacity="0" result="BackgroundImageFix"/>
<feColorMatrix in="SourceAlpha" type="matrix" values="0 0 0 0 0 0 0 0 0 0 0 0 0 0 0 0 0 0 127 0" result="hardAlpha"/>
<feOffset/>
<feGaussianBlur stdDeviation="2.5"/>
<feComposite in2="hardAlpha" operator="out"/>
<feColorMatrix type="matrix" values="0 0 0 0 0.0980392 0 0 0 0 0.760784 0 0 0 0 0.937255 0 0 0 0.55 0"/>
<feBlend mode="normal" in2="BackgroundImageFix" result="effect1_dropShadow_262_17892"/>
<feBlend mode="normal" in="SourceGraphic" in2="effect1_dropShadow_262_17892" result="shape"/>
</filter>
<linearGradient id="paint0_linear_262_17892" x1="18" y1="6" x2="18" y2="30" gradientUnits="userSpaceOnUse">
<stop stop-color="#0974F8"/>
<stop offset="1" stop-color="#4FB2FE"/>
</linearGradient>
<clipPath id="clip0_262_17892">
<rect width="36" height="35.8182" fill="white" transform="translate(0 0.237305)"/>
</clipPath>
</defs>
</svg>
