<svg width="154" height="28" viewBox="0 0 154 28" fill="none" xmlns="http://www.w3.org/2000/svg">
<path d="M10.8027 1.39683C11.5626 0.510251 12.672 0 13.8397 0H140.16C141.328 0 142.437 0.510251 143.197 1.39683L151.769 11.3968C153.053 12.8948 153.053 15.1052 151.769 16.6032L143.197 26.6032C142.437 27.4897 141.328 28 140.16 28H13.8397C12.672 28 11.5626 27.4897 10.8027 26.6032L2.23128 16.6032C0.94732 15.1052 0.94732 12.8948 2.23128 11.3968L10.8027 1.39683Z" fill="#0974F8" fill-opacity="0.35"/>
<path fill-rule="evenodd" clip-rule="evenodd" d="M20.2858 13.9999C20.2858 9.73945 23.7396 6.28564 28.0001 6.28564C32.2605 6.28564 35.7143 9.73945 35.7143 13.9999C35.7143 18.2604 32.2605 21.7142 28.0001 21.7142C23.7396 21.7142 20.2858 18.2604 20.2858 13.9999ZM26.7728 13.2986C26.7728 12.9113 27.0868 12.5973 27.4741 12.5973H28.526C28.9134 12.5973 29.2273 12.9113 29.2273 13.2986V18.2077C29.2273 18.595 28.9134 18.909 28.526 18.909H27.4741C27.0868 18.909 26.7728 18.595 26.7728 18.2077V13.2986ZM29.4026 10.4934C29.4026 9.7188 28.7747 9.09084 28.0001 9.09084C27.2254 9.09084 26.5975 9.7188 26.5975 10.4934C26.5975 11.2681 27.2254 11.896 28.0001 11.896C28.7747 11.896 29.4026 11.2681 29.4026 10.4934Z" fill="url(#paint0_linear_308_7)"/>
<path d="M20.7858 13.9999C20.7858 10.0156 24.0157 6.78564 28.0001 6.78564C31.9844 6.78564 35.2143 10.0156 35.2143 13.9999C35.2143 17.9842 31.9844 21.2142 28.0001 21.2142C24.0157 21.2142 20.7858 17.9842 20.7858 13.9999ZM28.9153 12.1618C29.5038 11.8383 29.9026 11.2124 29.9026 10.4934C29.9026 9.44267 29.0509 8.59084 28.0001 8.59084C26.9493 8.59084 26.0975 9.44267 26.0975 10.4934C26.0975 11.2124 26.4963 11.8383 27.0848 12.1618C26.6124 12.3235 26.2728 12.7714 26.2728 13.2986V18.2077C26.2728 18.8712 26.8106 19.409 27.4741 19.409H28.526C29.1895 19.409 29.7273 18.8712 29.7273 18.2077V13.2986C29.7273 12.7714 29.3877 12.3235 28.9153 12.1618Z" stroke="#19C2EF" stroke-opacity="0.55"/>
<g filter="url(#filter0_d_308_7)">
<path d="M50.4 14V13H54.4V15C54.4 16.06 53.52 17 52.4 17H49.4C48.33 17 47.4 16.13 47.4 15V12C47.4 10.94 48.28 10 49.4 10H52.4C53.47 10 54.37 10.89 54.4 12H53.4C53.4 11.45 52.95 11 52.4 11H49.4C48.85 11 48.4 11.45 48.4 12V15C48.4 15.55 48.85 16 49.4 16H52.4C52.95 16 53.4 15.55 53.4 15V14H50.4ZM60.3027 11H57.3027C56.7527 11 56.3027 11.45 56.3027 12V14H61.3027V12C61.3027 11.45 60.8527 11 60.3027 11ZM62.3027 12V17H61.3027V15H56.3027V17H55.3027V12C55.3027 10.94 56.1827 10 57.3027 10H60.3027C61.3727 10 62.2727 10.89 62.3027 12ZM67.3008 16.12L64.3008 11.79V17H63.3008V10H64.3008L67.3008 14.33L70.3008 10H71.3008V17H70.3008V11.79L67.3008 16.12ZM73.3047 11V13H78.3047V14H73.3047V16H79.3047V17H72.3047V10H79.3047V11H73.3047ZM90.1113 13V12C90.1113 11.45 89.6613 11 89.1113 11H85.1113V14H89.1113C89.6613 14 90.1113 13.55 90.1113 13ZM91.1113 17H90.4013L88.4013 15H85.1113V17H84.1113V10H89.1113C90.1613 10 91.1113 10.89 91.1113 12V13C91.1113 13.85 90.5513 14.62 89.7213 14.9L91.1113 16.29V17ZM98.0117 15V10H99.0117V15C99.0117 16.06 98.1317 17 97.0117 17H94.0117C92.9417 17 92.0117 16.13 92.0117 15V10H93.0117V15C93.0117 15.55 93.4617 16 94.0117 16H97.0117C97.5617 16 98.0117 15.55 98.0117 15ZM101.01 10V16H107.01V17H100.01V10H101.01ZM108.51 11V13H113.51V14H108.51V16H114.51V17H107.51V10H114.51V11H108.51ZM122.213 15C122.213 16.06 121.333 17 120.213 17H117.213C116.123 17 115.243 16.13 115.213 15H116.213C116.213 15.55 116.663 16 117.213 16H120.213C120.763 16 121.213 15.55 121.213 15C121.213 14.45 120.763 14 120.213 14H117.213C116.143 14 115.213 13.13 115.213 12C115.213 10.94 116.093 10 117.213 10H120.213C121.283 10 122.183 10.89 122.213 12H121.213C121.213 11.45 120.763 11 120.213 11H117.213C116.663 11 116.213 11.45 116.213 12C116.213 12.55 116.663 13 117.213 13H120.213C121.263 13 122.213 13.89 122.213 15Z" fill="#19C2EF"/>
</g>
<defs>
<filter id="filter0_d_308_7" x="47.4" y="9" width="76.8125" height="8" filterUnits="userSpaceOnUse" color-interpolation-filters="sRGB">
<feFlood flood-opacity="0" result="BackgroundImageFix"/>
<feColorMatrix in="SourceAlpha" type="matrix" values="0 0 0 0 0 0 0 0 0 0 0 0 0 0 0 0 0 0 127 0" result="hardAlpha"/>
<feOffset dx="2" dy="-1"/>
<feComposite in2="hardAlpha" operator="out"/>
<feColorMatrix type="matrix" values="0 0 0 0 0.027451 0 0 0 0 0.423529 0 0 0 0 0.913725 0 0 0 0.2 0"/>
<feBlend mode="normal" in2="BackgroundImageFix" result="effect1_dropShadow_308_7"/>
<feBlend mode="normal" in="SourceGraphic" in2="effect1_dropShadow_308_7" result="shape"/>
</filter>
<linearGradient id="paint0_linear_308_7" x1="28.0001" y1="6.28564" x2="28.0001" y2="21.7142" gradientUnits="userSpaceOnUse">
<stop stop-color="#0974F8"/>
<stop offset="1" stop-color="#4FB2FE"/>
</linearGradient>
</defs>
</svg>
