<svg width="28" height="28" viewBox="0 0 28 28" fill="none" xmlns="http://www.w3.org/2000/svg">
<path d="M9.19999 6H10.8C11.04 6 11.2 5.84 11.2 5.6V4.4H16.8V5.6C16.8 5.84 16.96 6 17.2 6H18.8C19.04 6 19.2 5.84 19.2 5.6V4.4C19.2 3.08 18.12 2 16.8 2H11.2C9.87999 2 8.79999 3.08 8.79999 4.4V5.6C8.79999 5.84 8.95999 6 9.19999 6Z" fill="url(#paint0_linear_262_77438)"/>
<path d="M11.2 3.9H10.7V4.4V5.5H9.29999V4.4C9.29999 3.35614 10.1561 2.5 11.2 2.5H16.8C17.8438 2.5 18.7 3.35614 18.7 4.4V5.5H17.3V4.4V3.9H16.8H11.2Z" stroke="#19C2EF" stroke-opacity="0.55"/>
<path d="M23.6 8.39941H4.4C3.08 8.39941 2 9.47941 2 10.7994V23.5994C2 24.9194 3.08 25.9994 4.4 25.9994H23.6C24.92 25.9994 26 24.9194 26 23.5994V10.7994C26 9.47941 24.92 8.39941 23.6 8.39941Z" fill="url(#paint1_linear_262_77438)"/>
<path d="M4.4 8.89941H23.6C24.6439 8.89941 25.5 9.75556 25.5 10.7994V23.5994C25.5 24.6433 24.6439 25.4994 23.6 25.4994H4.4C3.35614 25.4994 2.5 24.6433 2.5 23.5994V10.7994C2.5 9.75556 3.35614 8.89941 4.4 8.89941Z" stroke="#19C2EF" stroke-opacity="0.55"/>
<defs>
<linearGradient id="paint0_linear_262_77438" x1="14" y1="2" x2="14" y2="6" gradientUnits="userSpaceOnUse">
<stop stop-color="#0974F8"/>
<stop offset="1" stop-color="#4FB2FE"/>
</linearGradient>
<linearGradient id="paint1_linear_262_77438" x1="14" y1="8.39941" x2="14" y2="25.9994" gradientUnits="userSpaceOnUse">
<stop stop-color="#0974F8"/>
<stop offset="1" stop-color="#4FB2FE"/>
</linearGradient>
</defs>
</svg>
