<svg width="28" height="28" viewBox="0 0 28 28" fill="none" xmlns="http://www.w3.org/2000/svg">
<path d="M22.182 11.0519H17.9842V4.185C17.9842 3.5987 17.4958 3.11133 16.9105 3.11133H12.7127C12.0941 3.11133 11.6057 3.59974 11.6057 4.185V11.0519H7.40785C6.85487 11.0519 6.65909 11.4101 7.0819 11.8329L14.0467 18.7644C14.2425 18.9602 14.5028 19.0571 14.7955 19.0571C15.0881 19.0571 15.3818 18.9592 15.5765 18.7644L22.508 11.8329C22.8985 11.4101 22.7683 11.0519 22.182 11.0519ZM3.11108 15.9662V23.3861C3.11108 23.7121 3.27354 23.9068 3.63178 23.9068H25.8914C26.2497 23.9068 26.4444 23.711 26.4444 23.3861V15.9662C26.4444 15.6403 26.1841 15.4132 25.8914 15.4132H23.7764C23.4838 15.4132 23.2234 15.6736 23.2234 15.9662V20.6847H6.30085V15.9662C6.30085 15.6403 6.07279 15.4132 5.78016 15.4132H3.63178C3.33915 15.4132 3.11108 15.6736 3.11108 15.9662Z" fill="url(#paint0_linear_262_77448)"/>
<path d="M17.4842 11.0519V11.5519H17.9842H22.0819L15.2229 18.4109C15.1433 18.4905 14.989 18.5571 14.7955 18.5571C14.6173 18.5571 14.4902 18.5008 14.4003 18.4109L14.3994 18.41L7.50831 11.5519H11.6057H12.1057V11.0519V4.185C12.1057 3.88578 12.3602 3.61133 12.7127 3.61133H16.9105C17.2199 3.61133 17.4842 3.87515 17.4842 4.185V11.0519ZM23.2234 21.1847H23.7234V20.6847V15.9662C23.7234 15.9667 23.7234 15.9666 23.7235 15.9662C23.7239 15.9641 23.7267 15.9506 23.7437 15.9335C23.764 15.9133 23.7792 15.9132 23.7764 15.9132H25.8914C25.9086 15.9132 25.9229 15.92 25.9316 15.9284C25.9356 15.9322 25.9383 15.9362 25.9401 15.9405C25.9418 15.9444 25.9444 15.9522 25.9444 15.9662V23.3861C25.9444 23.3926 25.9442 23.3983 25.9439 23.4033C25.9314 23.4052 25.9142 23.4068 25.8914 23.4068H3.63178C3.62433 23.4068 3.6176 23.4066 3.61155 23.4063C3.61126 23.4003 3.61108 23.3936 3.61108 23.3861V15.9662C3.61108 15.9489 3.61854 15.9306 3.62955 15.9186C3.63207 15.9159 3.63414 15.9142 3.63549 15.9132H5.78016C5.78435 15.9132 5.78708 15.9136 5.78855 15.9139L5.78999 15.9143C5.79021 15.9146 5.79051 15.915 5.79087 15.9156C5.79166 15.9168 5.79292 15.9191 5.7943 15.9226C5.79694 15.9295 5.80085 15.9434 5.80085 15.9662V20.6847V21.1847H6.30085H23.2234Z" stroke="#19C2EF" stroke-opacity="0.55"/>
<defs>
<linearGradient id="paint0_linear_262_77448" x1="14.7778" y1="3.11133" x2="14.7778" y2="23.9068" gradientUnits="userSpaceOnUse">
<stop stop-color="#0974F8"/>
<stop offset="1" stop-color="#4FB2FE"/>
</linearGradient>
</defs>
</svg>
