<svg width="36" height="36" viewBox="0 0 36 36" fill="none" xmlns="http://www.w3.org/2000/svg">
<path d="M10.9854 5.35277C10.9182 5.28619 10.8384 5.23335 10.7504 5.19731C10.6625 5.16126 10.5683 5.1427 10.4731 5.1427C10.3779 5.1427 10.2837 5.16126 10.1958 5.19731C10.1079 5.23335 10.028 5.28619 9.96083 5.35277L6.12297 9.12097L4.75489 7.80439C4.6877 7.73781 4.60786 7.68497 4.51995 7.64892C4.43204 7.61288 4.33779 7.59432 4.24261 7.59432C4.14742 7.59432 4.05317 7.61288 3.96527 7.64892C3.87736 7.68497 3.79752 7.73781 3.73033 7.80439L2.78412 8.74004C2.7167 8.8064 2.66321 8.88524 2.6267 8.97206C2.5902 9.05888 2.57141 9.15196 2.57141 9.24596C2.57141 9.33996 2.5902 9.43304 2.6267 9.51986C2.66321 9.60668 2.7167 9.68552 2.78412 9.75188L5.65227 12.5731C5.79544 12.7075 5.98541 12.7825 6.18293 12.7825C6.38046 12.7825 6.57043 12.7075 6.71359 12.5731L7.65317 11.6434L12.0045 7.34668C12.1401 7.21268 12.2167 7.03129 12.2177 6.84187C12.2187 6.65244 12.1441 6.47026 12.0099 6.33485L10.9854 5.35277ZM10.9854 14.8277C10.9182 14.7611 10.8384 14.7083 10.7504 14.6723C10.6625 14.6362 10.5683 14.6176 10.4731 14.6176C10.3779 14.6176 10.2837 14.6362 10.1958 14.6723C10.1079 14.7083 10.028 14.7611 9.96083 14.8277L6.12297 18.6203L4.75489 17.3049C4.6877 17.2383 4.60786 17.1855 4.51995 17.1495C4.43204 17.1134 4.33779 17.0949 4.24261 17.0949C4.14742 17.0949 4.05317 17.1134 3.96527 17.1495C3.87736 17.1855 3.79752 17.2383 3.73033 17.3049L2.78412 18.2388C2.7167 18.3052 2.66321 18.384 2.6267 18.4708C2.5902 18.5576 2.57141 18.6507 2.57141 18.7447C2.57141 18.8387 2.5902 18.9318 2.6267 19.0186C2.66321 19.1054 2.7167 19.1843 2.78412 19.2506L5.64504 22.0778C5.78811 22.2122 5.97798 22.2871 6.1754 22.2871C6.37282 22.2871 6.5627 22.2122 6.70576 22.0778L7.65196 21.144L12.0033 16.8454C12.1384 16.7124 12.2147 16.532 12.2157 16.3436C12.2167 16.1552 12.1423 15.974 12.0087 15.8396L10.9854 14.8277ZM6.42853 25.1431C4.83203 25.1431 3.50011 26.4228 3.50011 28C3.50011 29.5773 4.83323 30.857 6.42853 30.857C7.19576 30.857 7.93157 30.556 8.47409 30.0202C9.0166 29.4844 9.32139 28.7577 9.32139 28C9.32139 27.2423 9.0166 26.5157 8.47409 25.9799C7.93157 25.4441 7.19576 25.1431 6.42853 25.1431ZM32.4643 26.0954H15.1071C14.8514 26.0954 14.6061 26.1957 14.4253 26.3743C14.2444 26.5529 14.1428 26.7952 14.1428 27.0477V28.9524C14.1428 29.2049 14.2444 29.4471 14.4253 29.6257C14.6061 29.8043 14.8514 29.9047 15.1071 29.9047H32.4643C32.72 29.9047 32.9653 29.8043 33.1461 29.6257C33.327 29.4471 33.4286 29.2049 33.4286 28.9524V27.0477C33.4286 26.7952 33.327 26.5529 33.1461 26.3743C32.9653 26.1957 32.72 26.0954 32.4643 26.0954ZM32.4643 7.04909H15.1071C14.8514 7.04909 14.6061 7.14942 14.4253 7.32801C14.2444 7.50661 14.1428 7.74883 14.1428 8.0014V9.90603C14.1428 10.1586 14.2444 10.4008 14.4253 10.5794C14.6061 10.758 14.8514 10.8583 15.1071 10.8583H32.4643C32.72 10.8583 32.9653 10.758 33.1461 10.5794C33.327 10.4008 33.4286 10.1586 33.4286 9.90603V8.0014C33.4286 7.74883 33.327 7.50661 33.1461 7.32801C32.9653 7.14942 32.72 7.04909 32.4643 7.04909ZM32.4643 16.5722H15.1071C14.8514 16.5722 14.6061 16.6726 14.4253 16.8512C14.2444 17.0298 14.1428 17.272 14.1428 17.5246V19.4292C14.1428 19.6818 14.2444 19.924 14.4253 20.1026C14.6061 20.2812 14.8514 20.3815 15.1071 20.3815H32.4643C32.72 20.3815 32.9653 20.2812 33.1461 20.1026C33.327 19.924 33.4286 19.6818 33.4286 19.4292V17.5246C33.4286 17.272 33.327 17.0298 33.1461 16.8512C32.9653 16.6726 32.72 16.5722 32.4643 16.5722Z" fill="url(#paint0_linear_174_4)"/>
<path d="M10.6334 5.70797L10.6334 5.70792C10.613 5.68764 10.5883 5.67123 10.5607 5.65992C10.5331 5.6486 10.5033 5.6427 10.4731 5.6427C10.4429 5.6427 10.4131 5.6486 10.3855 5.65992C10.3579 5.67123 10.3332 5.68764 10.3128 5.70792L10.3111 5.70955L10.3111 5.70955L6.47327 9.47775L6.12646 9.81826L5.77626 9.48124L4.40818 8.16466L4.40289 8.15957L4.40293 8.15954C4.38247 8.13926 4.35783 8.12285 4.33024 8.11154C4.30265 8.10022 4.27285 8.09432 4.24261 8.09432C4.21237 8.09432 4.18257 8.10022 4.15497 8.11154C4.12739 8.12285 4.10274 8.13926 4.08229 8.15954L4.0819 8.15992L3.13569 9.09557L3.13485 9.09641C3.11432 9.1166 3.09838 9.14026 3.08762 9.16585C3.07686 9.19143 3.07141 9.21864 3.07141 9.24596C3.07141 9.27328 3.07686 9.30049 3.08762 9.32607C3.09837 9.35162 3.11428 9.37525 3.13475 9.39542C3.13478 9.39545 3.13481 9.39548 3.13484 9.39551L5.99767 12.2115C6.04719 12.2565 6.11322 12.2825 6.18293 12.2825C6.25246 12.2825 6.31832 12.2566 6.36779 12.2119L7.30149 11.288L7.30186 11.2876L11.653 6.99107L10.6334 5.70797ZM10.6334 5.70797L10.6394 5.71373M10.6334 5.70797L10.6394 5.71373M10.6394 5.71373L11.6579 6.69005C11.6972 6.73139 11.718 6.78486 11.7177 6.83919C11.7174 6.89491 11.695 6.94954 11.6532 6.99091L10.6394 5.71373ZM10.6334 15.1829L10.6338 15.1833L11.6552 16.1931C11.695 16.2338 11.716 16.2869 11.7157 16.3409C11.7154 16.3954 11.6934 16.4489 11.6524 16.4893L11.6519 16.4897L7.30074 20.7881L7.30058 20.7883L6.36008 21.7165C6.31069 21.7613 6.24488 21.7871 6.1754 21.7871C6.10596 21.7871 6.04018 21.7613 5.9908 21.7166L3.13558 18.895L3.13484 18.8943C3.11432 18.8741 3.09838 18.8504 3.08762 18.8248C3.07686 18.7992 3.07141 18.772 3.07141 18.7447C3.07141 18.7174 3.07686 18.6902 3.08762 18.6646C3.09838 18.639 3.11432 18.6154 3.13485 18.5952L3.13535 18.5947L4.08156 17.6608L4.08229 17.6601C4.10274 17.6398 4.12739 17.6234 4.15497 17.6121C4.18257 17.6008 4.21237 17.5949 4.24261 17.5949C4.27285 17.5949 4.30265 17.6008 4.33024 17.6121C4.35783 17.6234 4.38247 17.6398 4.40293 17.6601L4.40289 17.6601L4.40834 17.6654L5.77642 18.9807L6.12775 19.3185L6.47442 18.976L10.3123 15.1834L10.3128 15.1829C10.3332 15.1626 10.3579 15.1462 10.3855 15.1349C10.4131 15.1236 10.4429 15.1176 10.4731 15.1176C10.5033 15.1176 10.5331 15.1236 10.5607 15.1349C10.5883 15.1462 10.613 15.1626 10.6334 15.1829ZM4.00011 28C4.00011 26.7127 5.09418 25.6431 6.42853 25.6431C7.06515 25.6431 7.67447 25.8929 8.12275 26.3356C8.57082 26.7781 8.82139 27.377 8.82139 28C8.82139 28.6231 8.57082 29.2219 8.12275 29.6644C7.67447 30.1072 7.06515 30.357 6.42853 30.357C5.09525 30.357 4.00011 29.2872 4.00011 28ZM15.1071 26.5954H32.4643C32.5894 26.5954 32.7082 26.6446 32.7948 26.7301C32.8812 26.8154 32.9286 26.9298 32.9286 27.0477V28.9524C32.9286 29.0703 32.8812 29.1847 32.7948 29.27C32.7082 29.3555 32.5894 29.4047 32.4643 29.4047H15.1071C14.982 29.4047 14.8632 29.3555 14.7766 29.27C14.6902 29.1847 14.6428 29.0703 14.6428 28.9524V27.0477C14.6428 26.9298 14.6902 26.8154 14.7766 26.7301C14.8632 26.6446 14.982 26.5954 15.1071 26.5954ZM15.1071 7.54909H32.4643C32.5894 7.54909 32.7082 7.59824 32.7948 7.68377C32.8812 7.76909 32.9286 7.88347 32.9286 8.0014V9.90603C32.9286 10.024 32.8812 10.1383 32.7948 10.2237C32.7082 10.3092 32.5894 10.3583 32.4643 10.3583H15.1071C14.982 10.3583 14.8632 10.3092 14.7766 10.2237C14.6902 10.1383 14.6428 10.024 14.6428 9.90603V8.0014C14.6428 7.88347 14.6902 7.76909 14.7766 7.68377C14.8632 7.59824 14.982 7.54909 15.1071 7.54909ZM15.1071 17.0722H32.4643C32.5894 17.0722 32.7082 17.1214 32.7948 17.2069C32.8812 17.2922 32.9286 17.4066 32.9286 17.5246V19.4292C32.9286 19.5471 32.8812 19.6615 32.7948 19.7468C32.7082 19.8324 32.5894 19.8815 32.4643 19.8815H15.1071C14.982 19.8815 14.8632 19.8324 14.7766 19.7468C14.6902 19.6615 14.6428 19.5471 14.6428 19.4292V17.5246C14.6428 17.4066 14.6902 17.2922 14.7766 17.2069C14.8632 17.1214 14.982 17.0722 15.1071 17.0722Z" stroke="#19C2EF" stroke-opacity="0.55"/>
<defs>
<linearGradient id="paint0_linear_174_4" x1="18" y1="5.1427" x2="18" y2="30.857" gradientUnits="userSpaceOnUse">
<stop stop-color="#0974F8"/>
<stop offset="1" stop-color="#4FB2FE"/>
</linearGradient>
</defs>
</svg>
