<svg width="18" height="18" viewBox="0 0 18 18" fill="none" xmlns="http://www.w3.org/2000/svg">
<path d="M15.75 2.25H3C2.60218 2.25 2.22064 2.40804 1.93934 2.68934C1.65804 2.97064 1.5 3.35218 1.5 3.75V14.25C1.5 14.6478 1.65804 15.0294 1.93934 15.3107C2.22064 15.592 2.60218 15.75 3 15.75H15C15.3978 15.75 15.7794 15.592 16.0607 15.3107C16.342 15.0294 16.5 14.6478 16.5 14.25V6C16.5 5.80109 16.421 5.61032 16.2803 5.46967C16.1397 5.32902 15.9489 5.25 15.75 5.25H3.75C3.55109 5.25 3.36032 5.17098 3.21967 5.03033C3.07902 4.88968 3 4.69891 3 4.5C3 4.30109 3.07902 4.11032 3.21967 3.96967C3.36032 3.82902 3.55109 3.75 3.75 3.75H16.5V3C16.5 2.80109 16.421 2.61032 16.2803 2.46967C16.1397 2.32902 15.9489 2.25 15.75 2.25ZM13.875 9.375C14.0975 9.375 14.315 9.44098 14.5 9.5646C14.685 9.68821 14.8292 9.86391 14.9144 10.0695C14.9995 10.275 15.0218 10.5012 14.9784 10.7195C14.935 10.9377 14.8278 11.1382 14.6705 11.2955C14.5132 11.4528 14.3127 11.56 14.0945 11.6034C13.8762 11.6468 13.65 11.6245 13.4445 11.5394C13.2389 11.4542 13.0632 11.31 12.9396 11.125C12.816 10.94 12.75 10.7225 12.75 10.5C12.75 10.2016 12.8685 9.91548 13.0795 9.7045C13.2905 9.49353 13.5766 9.375 13.875 9.375Z" fill="url(#paint0_linear_529_4359)"/>
<path d="M3 2.75H15.75C15.8163 2.75 15.8799 2.77634 15.9268 2.82322C15.9737 2.87011 16 2.93369 16 3V3.25H3.75C3.41848 3.25 3.10054 3.3817 2.86612 3.61612C2.6317 3.85054 2.5 4.16848 2.5 4.5C2.5 4.83152 2.6317 5.14946 2.86612 5.38388C3.10054 5.6183 3.41848 5.75 3.75 5.75H15.75C15.8163 5.75 15.8799 5.77634 15.9268 5.82322C15.9737 5.87011 16 5.9337 16 6V14.25C16 14.5152 15.8946 14.7696 15.7071 14.9571C15.5196 15.1446 15.2652 15.25 15 15.25H3C2.73478 15.25 2.48043 15.1446 2.29289 14.9571C2.10536 14.7696 2 14.5152 2 14.25V3.75C2 3.48478 2.10536 3.23043 2.29289 3.04289C2.48043 2.85536 2.73478 2.75 3 2.75ZM14.7778 9.14886C14.5106 8.9703 14.1964 8.875 13.875 8.875C13.444 8.875 13.0307 9.04621 12.726 9.35095C12.4212 9.6557 12.25 10.069 12.25 10.5C12.25 10.8214 12.3453 11.1356 12.5239 11.4028C12.7024 11.67 12.9562 11.8783 13.2531 12.0013C13.5501 12.1243 13.8768 12.1565 14.192 12.0938C14.5072 12.0311 14.7968 11.8763 15.024 11.649C15.2513 11.4218 15.4061 11.1322 15.4688 10.817C15.5315 10.5018 15.4993 10.1751 15.3763 9.87814C15.2533 9.58121 15.045 9.32742 14.7778 9.14886Z" stroke="#19C2EF" stroke-opacity="0.55"/>
<defs>
<linearGradient id="paint0_linear_529_4359" x1="9" y1="2.25" x2="9" y2="15.75" gradientUnits="userSpaceOnUse">
<stop stop-color="#0974F8"/>
<stop offset="1" stop-color="#4FB2FE"/>
</linearGradient>
</defs>
</svg>
