<svg width="358" height="533" viewBox="0 0 358 533" fill="none" xmlns="http://www.w3.org/2000/svg">
<g filter="url(#filter0_i_154_206)">
<path d="M13.8542 6.6936L8.17347 12.3667C7.42217 13.117 7 14.1353 7 15.1971V517.851C7 518.913 7.42217 519.931 8.17347 520.681L13.8542 526.354C14.6042 527.103 15.6208 527.524 16.6808 527.524H124.377C125.437 527.524 126.453 527.103 127.203 526.354L129.676 523.885C130.426 523.136 131.442 522.715 132.502 522.715H225.498C226.558 522.715 227.574 523.136 228.324 523.885L230.797 526.354C231.547 527.103 232.564 527.524 233.623 527.524H341.319C342.379 527.524 343.396 527.103 344.146 526.354L349.827 520.681C350.578 519.931 351 518.913 351 517.851V15.1971C351 14.1353 350.578 13.117 349.827 12.3667L344.146 6.6936C343.396 5.94462 342.379 5.52393 341.319 5.52393H248.74C247.54 5.52393 246.404 6.06246 245.644 6.99105L236.417 18.2695C235.657 19.1981 234.521 19.7367 233.321 19.7367H124.679C123.479 19.7367 122.343 19.1981 121.583 18.2695L112.356 6.99105C111.596 6.06246 110.46 5.52393 109.26 5.52393H16.6808C15.6208 5.52393 14.6042 5.94462 13.8542 6.6936Z" fill="url(#paint0_linear_154_206)"/>
</g>
<path d="M343.792 7.04739L344.146 6.6936L343.792 7.0474L349.473 12.7205C350.131 13.377 350.5 14.268 350.5 15.1971V517.851C350.5 518.78 350.131 519.671 349.473 520.327L343.792 526C343.136 526.656 342.247 527.024 341.319 527.024H233.623C232.696 527.024 231.806 526.656 231.15 526L228.677 523.531C227.834 522.688 226.69 522.215 225.498 522.215H132.502C131.31 522.215 130.166 522.688 129.323 523.531L126.85 526C126.194 526.656 125.304 527.024 124.377 527.024H16.6808C15.7533 527.024 14.8638 526.656 14.2075 526L8.52679 520.327C7.86939 519.671 7.5 518.78 7.5 517.851V15.1971C7.5 14.268 7.86939 13.377 8.52679 12.7205L14.2075 7.04739C14.8638 6.39203 15.7533 6.02393 16.6808 6.02393H109.26C110.31 6.02393 111.304 6.49515 111.969 7.30766L121.196 18.5862C122.051 19.6308 123.329 20.2367 124.679 20.2367H233.321C234.671 20.2367 235.949 19.6308 236.804 18.5862L246.031 7.30766C246.696 6.49515 247.69 6.02393 248.74 6.02393H341.319C342.247 6.02393 343.136 6.39203 343.792 7.04739Z" stroke="#19C2EF" stroke-opacity="0.5"/>
<g opacity="0.8" filter="url(#filter1_i_154_206)">
<path fill-rule="evenodd" clip-rule="evenodd" d="M10.5609 3.40118L4.8801 9.07432C4.31662 9.63704 4 10.4007 4 11.1971V521.851C4 522.647 4.31662 523.411 4.8801 523.974L10.5609 529.647C11.1234 530.208 11.8858 530.524 12.6808 530.524H124.377C125.172 530.524 125.934 530.208 126.496 529.647L128.969 527.177C129.907 526.241 131.178 525.715 132.502 525.715H225.498C226.822 525.715 228.093 526.241 229.031 527.177L231.504 529.647C232.066 530.208 232.828 530.524 233.623 530.524H345.319C346.114 530.524 346.877 530.208 347.439 529.647L353.12 523.974C353.683 523.411 354 522.647 354 521.851V11.197C354 10.4007 353.683 9.63704 353.12 9.07432L347.439 3.40118C346.877 2.83945 346.114 2.52393 345.319 2.52393H246.74C245.84 2.52393 244.988 2.92783 244.418 3.62427L235.191 14.9028C234.241 16.0635 232.821 16.7367 231.321 16.7367H126.679C125.179 16.7367 123.759 16.0635 122.809 14.9028L113.582 3.62427C113.012 2.92783 112.16 2.52393 111.26 2.52393H12.6808C11.8858 2.52393 11.1234 2.83944 10.5609 3.40118ZM4.17347 8.36673L9.85423 2.6936C10.6042 1.94462 11.6208 1.52393 12.6808 1.52393H111.26C112.46 1.52393 113.596 2.06246 114.356 2.99105L123.583 14.2695C124.343 15.1981 125.479 15.7367 126.679 15.7367H231.321C232.521 15.7367 233.657 15.1981 234.417 14.2695L243.644 2.99105C244.404 2.06246 245.54 1.52393 246.74 1.52393H345.319C346.379 1.52393 347.396 1.94462 348.146 2.6936L353.827 8.36673C354.578 9.11703 355 10.1353 355 11.197V521.851C355 522.913 354.578 523.931 353.827 524.681L348.146 530.354C347.396 531.103 346.379 531.524 345.319 531.524H233.623C232.564 531.524 231.547 531.103 230.797 530.354L228.324 527.885C227.574 527.136 226.558 526.715 225.498 526.715H132.502C131.442 526.715 130.426 527.136 129.676 527.885L127.203 530.354C126.453 531.103 125.437 531.524 124.377 531.524H12.6808C11.6208 531.524 10.6042 531.103 9.85423 530.354L4.17347 524.681C3.42217 523.931 3 522.913 3 521.851V11.1971C3 10.1353 3.42217 9.11703 4.17347 8.36673Z" fill="#19C2EF"/>
</g>
<path fill-rule="evenodd" clip-rule="evenodd" d="M355.619 13V10.1111H356.571L356.571 13H355.619ZM357.048 7.42166V10.1111H358V4.1339L353.912 -2.98023e-07H348V0.962963H350.66L357.048 7.42166ZM352.007 0.962963L357.048 6.05982V4.53277L353.517 0.962963H352.007Z" fill="#19C2EF"/>
<path fill-rule="evenodd" clip-rule="evenodd" d="M355.619 520V522.889H356.571L356.571 520H355.619ZM357.048 525.578V522.889H358V528.866L353.912 533H348V532.037H350.66L357.048 525.578ZM352.007 532.037L357.048 526.94V528.467L353.517 532.037H352.007Z" fill="#19C2EF"/>
<path fill-rule="evenodd" clip-rule="evenodd" d="M2.38095 520V522.889H1.42857L1.42857 520H2.38095ZM0.952381 525.578V522.889H0V528.866L4.08847 533H10V532.037H7.3401L0.952381 525.578ZM5.99323 532.037L0.952381 526.94V528.467L4.48296 532.037H5.99323Z" fill="#19C2EF"/>
<path fill-rule="evenodd" clip-rule="evenodd" d="M2.38095 13V10.1111H1.42857L1.42857 13H2.38095ZM0.952381 7.42166V10.1111H0V4.1339L4.08847 -2.98023e-07H10V0.962963H7.3401L0.952381 7.42166ZM5.99323 0.962963L0.952381 6.05982V4.53277L4.48296 0.962963H5.99323Z" fill="#19C2EF"/>
<defs>
<filter id="filter0_i_154_206" x="7" y="5.52393" width="344" height="522" filterUnits="userSpaceOnUse" color-interpolation-filters="sRGB">
<feFlood flood-opacity="0" result="BackgroundImageFix"/>
<feBlend mode="normal" in="SourceGraphic" in2="BackgroundImageFix" result="shape"/>
<feColorMatrix in="SourceAlpha" type="matrix" values="0 0 0 0 0 0 0 0 0 0 0 0 0 0 0 0 0 0 127 0" result="hardAlpha"/>
<feOffset/>
<feGaussianBlur stdDeviation="7.5"/>
<feComposite in2="hardAlpha" operator="arithmetic" k2="-1" k3="1"/>
<feColorMatrix type="matrix" values="0 0 0 0 0.0980392 0 0 0 0 0.760784 0 0 0 0 0.937255 0 0 0 0.3 0"/>
<feBlend mode="normal" in2="shape" result="effect1_innerShadow_154_206"/>
</filter>
<filter id="filter1_i_154_206" x="3" y="1.52393" width="352" height="530" filterUnits="userSpaceOnUse" color-interpolation-filters="sRGB">
<feFlood flood-opacity="0" result="BackgroundImageFix"/>
<feBlend mode="normal" in="SourceGraphic" in2="BackgroundImageFix" result="shape"/>
<feColorMatrix in="SourceAlpha" type="matrix" values="0 0 0 0 0 0 0 0 0 0 0 0 0 0 0 0 0 0 127 0" result="hardAlpha"/>
<feOffset/>
<feGaussianBlur stdDeviation="7.5"/>
<feComposite in2="hardAlpha" operator="arithmetic" k2="-1" k3="1"/>
<feColorMatrix type="matrix" values="0 0 0 0 0.0980392 0 0 0 0 0.760784 0 0 0 0 0.937255 0 0 0 0.3 0"/>
<feBlend mode="normal" in2="shape" result="effect1_innerShadow_154_206"/>
</filter>
<linearGradient id="paint0_linear_154_206" x1="181.353" y1="5.52393" x2="181.353" y2="330.524" gradientUnits="userSpaceOnUse">
<stop stop-color="#1848B9" stop-opacity="0.9"/>
<stop offset="1" stop-color="#181D5B" stop-opacity="0.95"/>
</linearGradient>
</defs>
</svg>
