<svg width="16" height="16" viewBox="0 0 16 16" fill="none" xmlns="http://www.w3.org/2000/svg">
<g clip-path="url(#clip0_546_9730)">
<path fill-rule="evenodd" clip-rule="evenodd" d="M9.35993 4.01913H2.32941C1.77942 4.01913 1.33309 4.46545 1.33309 5.01544V13.6699C1.33309 14.2199 1.77942 14.6662 2.32941 14.6662H11.0039C11.5539 14.6662 12.0002 14.2199 12.0002 13.6699V6.68574H13.3332V14.0016C13.3332 15.1042 12.4379 15.9995 11.3349 15.9999H1.99841C0.895437 15.9999 0.00012207 15.1042 0.00012207 14.0016V4.68378C0.00012207 3.5808 0.895437 2.68549 1.99841 2.68549H9.35993V4.01913Z" fill="#19C2EF"/>
<path fill-rule="evenodd" clip-rule="evenodd" d="M15.9928 5.77321H14.6578V2.27962L5.36 11.5771L4.41602 10.6331L13.7142 1.33497H10.2196V0H15.9921L15.9928 0.000333461V5.77321Z" fill="#19C2EF"/>
</g>
<defs>
<clipPath id="clip0_546_9730">
<rect width="16" height="16" fill="white"/>
</clipPath>
</defs>
</svg>
