<svg width="193" height="193" viewBox="0 0 193 193" fill="none" xmlns="http://www.w3.org/2000/svg">
<path d="M98.0538 0.0142065L97.9886 6.69968L96.4928 6.68438L96.558 0L98.0538 0.0142065Z" fill="#1BDD15"/>
<path d="M92.7367 0.0688477L93.0403 6.74728L91.5456 6.81613L91.2421 0.13648L92.7367 0.0688477Z" fill="#1BDD15"/>
<path d="M87.4202 0.418457L88.0931 7.06957L86.6056 7.22026L85.932 0.569021L87.4202 0.418457Z" fill="#1BDD15"/>
<path d="M82.1516 1.05859L83.1934 7.66356L81.7154 7.89598L80.6741 1.29222L82.1516 1.05859Z" fill="#1BDD15"/>
<path d="M76.9246 1.99072L78.3305 8.52685L76.8678 8.84231L75.462 2.30619L76.9246 1.99072Z" fill="#1BDD15"/>
<path d="M71.7498 3.21338L73.5154 9.66171L72.0735 10.0566L70.3073 3.60826L71.7498 3.21338Z" fill="#1BDD15"/>
<path d="M66.6562 4.71973L68.7764 11.0602L67.3571 11.5345L65.2374 5.19401L66.6562 4.71973Z" fill="#1BDD15"/>
<path d="M61.6563 6.50293L64.1222 12.7178L62.7325 13.2692L60.2659 7.05432L61.6563 6.50293Z" fill="#1BDD15"/>
<path d="M56.7607 8.56055L59.5652 14.6294L58.2068 15.2567L55.4017 9.18784L56.7607 8.56055Z" fill="#1BDD15"/>
<path d="M51.963 10.895L55.0982 16.8003L53.7778 17.5012L50.6432 11.5959L51.963 10.895Z" fill="#1BDD15"/>
<path d="M47.3413 13.4673L50.7937 19.1923L49.5137 19.9643L46.0607 14.2404L47.3413 13.4673Z" fill="#1BDD15"/>
<path d="M42.8412 16.3037L46.602 21.832L45.3657 22.6726L41.6049 17.1457L42.8412 16.3037Z" fill="#1BDD15"/>
<path d="M38.5059 19.3818L42.5649 24.6942L41.375 25.6025L37.3177 20.2901L38.5059 19.3818Z" fill="#1BDD15"/>
<path d="M34.3473 22.6914L38.6908 27.7749L37.5531 28.7473L33.2101 23.6638L34.3473 22.6914Z" fill="#1BDD15"/>
<path d="M30.3862 26.2158L35.0001 31.0539L33.9181 32.0868L29.3029 27.2487L30.3862 26.2158Z" fill="#1BDD15"/>
<path d="M26.6177 29.9546L31.4907 34.533L30.4655 35.6228L25.5931 31.0444L26.6177 29.9546Z" fill="#1BDD15"/>
<path d="M23.0543 33.9023L28.1717 38.2056L27.2082 39.3499L22.0914 35.0479L23.0543 33.9023Z" fill="#1BDD15"/>
<path d="M19.7169 38.0356L25.0625 42.0496L24.1643 43.246L18.8186 39.2321L19.7169 38.0356Z" fill="#1BDD15"/>
<path d="M16.613 42.3462L22.1726 46.0589L21.342 47.3028L15.7823 43.5901L16.613 42.3462Z" fill="#1BDD15"/>
<path d="M13.7505 46.8228L19.5064 50.2224L18.7458 51.5103L12.9886 48.1094L13.7505 46.8228Z" fill="#1BDD15"/>
<path d="M11.137 51.4565L17.0743 54.5325L16.386 55.8607L10.4492 52.7847L11.137 51.4565Z" fill="#1BDD15"/>
<path d="M8.78916 56.2236L14.8871 58.964L14.2729 60.3289L8.17487 57.5874L8.78916 56.2236Z" fill="#1BDD15"/>
<path d="M6.7087 61.1108L12.9483 63.5109L12.4123 64.9066L6.17212 62.5077L6.7087 61.1108Z" fill="#1BDD15"/>
<path d="M4.90089 66.1084L11.2651 68.1587L10.8056 69.5817L4.44263 67.5326L4.90089 66.1084Z" fill="#1BDD15"/>
<path d="M3.37591 71.1895L9.84331 72.8852L9.46385 74.3331L2.99597 72.6349L3.37591 71.1895Z" fill="#1BDD15"/>
<path d="M2.12847 76.3594L8.6782 77.6982L8.37827 79.1638L1.82843 77.8239L2.12847 76.3594Z" fill="#1BDD15"/>
<path d="M1.17396 81.564L7.78185 82.5814L7.55357 84.0589L0.946289 83.0427L1.17396 81.564Z" fill="#1BDD15"/>
<path d="M0.489132 86.8506L7.1468 87.4742L7.00631 88.9624L0.350342 88.3399L0.489132 86.8506Z" fill="#1BDD15"/>
<path d="M0.0993668 92.1392L6.78071 92.3989L6.72206 93.8941L0.0418091 93.6345L0.0993668 92.1392Z" fill="#1BDD15"/>
<path d="M0 97.4638L6.68547 97.3535L6.70927 98.8512L0.0248926 98.959L0 97.4638Z" fill="#1BDD15"/>
<path d="M0.192688 102.775L6.86165 102.297L6.96826 103.787L0.299906 104.266L0.192688 102.775Z" fill="#1BDD15"/>
<path d="M0.679932 108.063L7.31101 107.215L7.50007 108.697L0.869113 109.546L0.679932 108.063Z" fill="#1BDD15"/>
<path d="M1.45795 113.313L8.03135 112.099L8.30358 113.57L1.72885 114.784L1.45795 113.313Z" fill="#1BDD15"/>
<path d="M2.52747 118.517L9.02449 116.941L9.37723 118.395L2.87912 119.971L2.52747 118.517Z" fill="#1BDD15"/>
<path d="M3.88647 123.665L10.2862 121.731L10.719 123.163L4.31924 125.096L3.88647 123.665Z" fill="#1BDD15"/>
<path d="M5.52051 128.708L11.8035 126.424L12.3156 127.829L6.03207 130.113L5.52051 128.708Z" fill="#1BDD15"/>
<path d="M7.43738 133.67L13.5857 131.042L14.1732 132.416L8.02544 135.044L7.43738 133.67Z" fill="#1BDD15"/>
<path d="M9.61865 138.504L15.6135 135.543L16.2757 136.884L10.2809 139.845L9.61865 138.504Z" fill="#1BDD15"/>
<path d="M12.0737 143.235L17.8961 139.949L18.6318 141.252L12.8096 144.538L12.0737 143.235Z" fill="#1BDD15"/>
<path d="M14.7727 147.802L20.4064 144.202L21.2122 145.461L15.5779 149.062L14.7727 147.802Z" fill="#1BDD15"/>
<path d="M17.7135 152.208L23.1421 148.307L24.0154 149.521L18.5868 153.425L17.7135 152.208Z" fill="#1BDD15"/>
<path d="M20.9026 156.463L26.1101 152.27L27.0475 153.435L21.8407 157.629L20.9026 156.463Z" fill="#1BDD15"/>
<path d="M24.3202 160.538L29.2893 156.065L30.2895 157.177L25.321 161.649L24.3202 160.538Z" fill="#1BDD15"/>
<path d="M27.9457 164.41L32.6629 159.672L33.7229 160.727L29.0059 165.466L27.9457 164.41Z" fill="#1BDD15"/>
<path d="M31.7842 168.083L36.2345 163.094L37.3503 164.09L32.9 169.079L31.7842 168.083Z" fill="#1BDD15"/>
<path d="M35.8129 171.535L39.9828 166.309L41.1508 167.241L36.9827 172.467L35.8129 171.535Z" fill="#1BDD15"/>
<path d="M40.0362 174.769L43.9108 169.32L45.1304 170.187L41.2546 175.635L40.0362 174.769Z" fill="#1BDD15"/>
<path d="M44.433 177.764L48.0005 172.111L49.2652 172.908L45.6977 178.563L44.433 177.764Z" fill="#1BDD15"/>
<path d="M48.9764 180.507L52.2256 174.663L53.5336 175.389L50.2844 181.234L48.9764 180.507Z" fill="#1BDD15"/>
<path d="M53.6735 182.994L56.5935 176.98L57.9394 177.632L55.0193 183.648L53.6735 182.994Z" fill="#1BDD15"/>
<path d="M58.4974 185.217L61.0794 179.05L62.4591 179.628L59.8776 185.795L58.4974 185.217Z" fill="#1BDD15"/>
<path d="M63.4552 187.175L65.6898 180.874L67.0997 181.374L64.8645 187.676L63.4552 187.175Z" fill="#1BDD15"/>
<path d="M68.4824 188.846L70.3667 182.432L71.8014 182.854L69.9177 189.267L68.4824 188.846Z" fill="#1BDD15"/>
<path d="M73.624 190.245L75.1519 183.736L76.6087 184.079L75.0802 190.588L73.624 190.245Z" fill="#1BDD15"/>
<path d="M78.8137 191.355L79.9847 184.774L81.458 185.036L80.287 191.618L78.8137 191.355Z" fill="#1BDD15"/>
<path d="M84.0395 192.182L84.8411 185.545L86.3263 185.724L85.5236 192.361L84.0395 192.182Z" fill="#1BDD15"/>
<path d="M89.3038 192.722L89.7586 186.052L91.2515 186.154L90.7968 192.823L89.3038 192.722Z" fill="#1BDD15"/>
<path d="M94.6132 192.978L94.701 186.293L96.1969 186.313L96.1086 193L94.6132 192.978Z" fill="#1BDD15"/>
<path d="M99.9138 192.944L99.6333 186.264L101.128 186.201L101.408 192.881L99.9138 192.944Z" fill="#1BDD15"/>
</svg>
