<svg width="112" height="112" viewBox="0 0 112 112" fill="none" xmlns="http://www.w3.org/2000/svg">
<path d="M107.733 56C107.718 42.2842 102.262 29.1346 92.5639 19.4361C82.8654 9.7376 69.7158 4.28216 56 4.26667V0C41.153 0.0167853 26.919 5.92216 16.4206 16.4206C5.92216 26.919 0.0167853 41.153 0 56H4.26667C4.28215 69.7158 9.73759 82.8654 19.4361 92.5639C29.1346 102.262 42.2842 107.718 56 107.733V112C70.847 111.983 85.0811 106.078 95.5795 95.5795C106.078 85.0811 111.983 70.847 112 56H107.733ZM6.4 56C6.4 46.19 9.30899 36.6004 14.7591 28.4437C20.2092 20.287 27.9557 13.9297 37.0189 10.1756C46.0821 6.42147 56.055 5.43922 65.6765 7.35305C75.2979 9.26688 84.1358 13.9908 91.0725 20.9275C98.0092 27.8642 102.733 36.7021 104.647 46.3235C106.561 55.945 105.579 65.9179 101.824 74.9811C98.0703 84.0443 91.713 91.7908 83.5563 97.2409C75.3996 102.691 65.81 105.6 56 105.6C42.8498 105.585 30.2425 100.355 20.9439 91.0561C11.6454 81.7575 6.41488 69.1502 6.4 56Z" fill="#BDE5FF"/>
</svg>
