<svg width="155" height="154" viewBox="0 0 155 154" fill="none" xmlns="http://www.w3.org/2000/svg">
<path d="M155 77C155.009 68.5875 153.628 60.2305 150.913 52.2623L144.666 54.3668C141.154 44.1609 135.343 34.8869 127.674 27.2526C120.006 19.6183 110.683 13.8255 100.418 10.3164L102.55 4.11193C86.306 -1.37064 68.6945 -1.37064 52.4506 4.11193L54.582 10.3167C44.3171 13.8256 34.9947 19.6182 27.3264 27.2523C19.6581 34.8864 13.8465 44.1602 10.3354 54.3659L4.08753 52.2613C-1.36251 68.3093 -1.36251 85.6907 4.08753 101.739L10.3354 99.6341C13.8543 109.863 19.684 119.156 27.3776 126.8C35.0711 134.444 44.4242 140.236 54.7198 143.732L52.6019 149.939C68.7538 155.354 86.2474 155.354 102.399 149.939L100.281 143.732C110.577 140.235 119.93 134.443 127.624 126.799C135.317 119.155 141.147 109.862 144.666 99.6332L150.913 101.738C153.629 93.7695 155.009 85.4125 155 77ZM77.5 144.957C63.9721 144.957 50.7481 140.971 39.5001 133.504C28.2521 126.037 19.4854 115.424 14.3085 103.006C9.13162 90.5886 7.77712 76.9247 10.4163 63.7424C13.0554 50.5601 19.5697 38.4513 29.1354 28.9474C38.701 19.4435 50.8884 12.9712 64.1563 10.3491C77.4242 7.72695 91.1768 9.07271 103.675 14.2162C116.173 19.3597 126.855 28.0698 134.371 39.2453C141.887 50.4207 145.898 63.5594 145.898 77C145.878 95.0171 138.665 112.29 125.842 125.03C113.02 137.77 95.6341 144.937 77.5 144.957Z" fill="url(#paint0_linear_196_29357)"/>
<defs>
<linearGradient id="paint0_linear_196_29357" x1="77.5" y1="0" x2="77.5" y2="154" gradientUnits="userSpaceOnUse">
<stop stop-color="#0974F8"/>
<stop offset="1" stop-color="#4FB2FE"/>
</linearGradient>
</defs>
</svg>
