<svg width="58" height="58" viewBox="0 0 58 58" fill="none" xmlns="http://www.w3.org/2000/svg">
<g filter="url(#filter0_dd_108_27713)">
<path fill-rule="evenodd" clip-rule="evenodd" d="M10.5565 10.5565C11.2985 9.8145 12.5015 9.8145 13.2435 10.5565L18.55 15.863L23.8565 10.5565C24.5985 9.8145 25.8015 9.8145 26.5435 10.5565C27.2854 11.2985 27.2854 12.5015 26.5435 13.2435L21.237 18.55L26.5435 23.8565C27.2854 24.5985 27.2854 25.8015 26.5435 26.5435C25.8015 27.2854 24.5985 27.2854 23.8565 26.5435L18.55 21.237L13.2435 26.5435C12.5015 27.2854 11.2985 27.2854 10.5565 26.5435C9.8145 25.8015 9.8145 24.5985 10.5565 23.8565L15.863 18.55L10.5565 13.2435C9.8145 12.5015 9.8145 11.2985 10.5565 10.5565ZM39.45 13.8C36.8267 13.8 34.7 15.9267 34.7 18.55C34.7 21.1733 36.8267 23.3 39.45 23.3C42.0733 23.3 44.2 21.1733 44.2 18.55C44.2 15.9267 42.0733 13.8 39.45 13.8ZM30.9 18.55C30.9 13.828 34.7279 10 39.45 10C44.1721 10 48 13.828 48 18.55C48 23.272 44.1721 27.1 39.45 27.1C34.7279 27.1 30.9 23.272 30.9 18.55ZM18.55 34.7C15.9267 34.7 13.8 36.8267 13.8 39.45C13.8 42.0733 15.9267 44.2 18.55 44.2C21.1733 44.2 23.3 42.0733 23.3 39.45C23.3 36.8267 21.1733 34.7 18.55 34.7ZM10 39.45C10 34.7279 13.828 30.9 18.55 30.9C23.272 30.9 27.1 34.7279 27.1 39.45C27.1 44.1721 23.272 48 18.55 48C13.828 48 10 44.1721 10 39.45ZM31.4565 31.4565C32.1985 30.7146 33.4015 30.7146 34.1435 31.4565L39.45 36.763L44.7565 31.4565C45.4985 30.7146 46.7015 30.7146 47.4435 31.4565C48.1854 32.1985 48.1854 33.4015 47.4435 34.1435L42.137 39.45L47.4435 44.7565C48.1854 45.4985 48.1854 46.7015 47.4435 47.4435C46.7015 48.1854 45.4985 48.1854 44.7565 47.4435L39.45 42.137L34.1435 47.4435C33.4015 48.1854 32.1985 48.1854 31.4565 47.4435C30.7146 46.7015 30.7146 45.4985 31.4565 44.7565L36.763 39.45L31.4565 34.1435C30.7146 33.4015 30.7146 32.1985 31.4565 31.4565Z" fill="url(#paint0_linear_108_27713)"/>
</g>
<defs>
<filter id="filter0_dd_108_27713" x="0" y="0" width="58" height="58" filterUnits="userSpaceOnUse" color-interpolation-filters="sRGB">
<feFlood flood-opacity="0" result="BackgroundImageFix"/>
<feColorMatrix in="SourceAlpha" type="matrix" values="0 0 0 0 0 0 0 0 0 0 0 0 0 0 0 0 0 0 127 0" result="hardAlpha"/>
<feOffset dx="2" dy="2"/>
<feComposite in2="hardAlpha" operator="out"/>
<feColorMatrix type="matrix" values="0 0 0 0 0.0352941 0 0 0 0 0.454902 0 0 0 0 0.972549 0 0 0 0.2 0"/>
<feBlend mode="normal" in2="BackgroundImageFix" result="effect1_dropShadow_108_27713"/>
<feColorMatrix in="SourceAlpha" type="matrix" values="0 0 0 0 0 0 0 0 0 0 0 0 0 0 0 0 0 0 127 0" result="hardAlpha"/>
<feOffset/>
<feGaussianBlur stdDeviation="5"/>
<feComposite in2="hardAlpha" operator="out"/>
<feColorMatrix type="matrix" values="0 0 0 0 0.0980392 0 0 0 0 0.760784 0 0 0 0 0.937255 0 0 0 0.5 0"/>
<feBlend mode="normal" in2="effect1_dropShadow_108_27713" result="effect2_dropShadow_108_27713"/>
<feBlend mode="normal" in="SourceGraphic" in2="effect2_dropShadow_108_27713" result="shape"/>
</filter>
<linearGradient id="paint0_linear_108_27713" x1="29" y1="17.4848" x2="29" y2="38.7879" gradientUnits="userSpaceOnUse">
<stop stop-color="#E1F0FF"/>
<stop offset="1" stop-color="#C9E9FB"/>
</linearGradient>
</defs>
</svg>
