<svg width="14" height="14" viewBox="0 0 14 14" fill="none" xmlns="http://www.w3.org/2000/svg">
<path opacity="0.7" fill-rule="evenodd" clip-rule="evenodd" d="M7.84162 8.75161C7.84162 8.9263 7.91127 9.09378 8.03515 9.21696L11.2984 12.4618C11.3406 12.5037 11.3403 12.5721 11.2977 12.6138V12.6138C11.256 12.6545 11.1892 12.6543 11.1479 12.6131L7.82021 9.30422C7.69634 9.18105 7.62669 9.01356 7.62669 8.83887L7.62669 4.94201C7.62669 4.76732 7.69634 4.59984 7.82021 4.47666L11.1479 1.16776C11.1893 1.12662 11.256 1.12634 11.2977 1.16713V1.16713C11.3403 1.20875 11.3406 1.27714 11.2984 1.31911L8.03515 4.56393C7.91127 4.6871 7.84162 4.85458 7.84162 5.02927L7.84162 8.75161ZM6.18 4.47666C6.30388 4.59984 6.37353 4.76732 6.37353 4.94201L6.37353 8.83887C6.37353 9.01357 6.30388 9.18105 6.18 9.30422L2.85234 12.6131C2.81096 12.6543 2.74421 12.6545 2.70249 12.6138V12.6138C2.65993 12.5721 2.65964 12.5037 2.70185 12.4618L5.96507 9.21696C6.08894 9.09378 6.15859 8.9263 6.15859 8.75161L6.15859 5.02927C6.15859 4.85458 6.08894 4.6871 5.96507 4.56393L2.70185 1.31911C2.65964 1.27714 2.65993 1.20875 2.70249 1.16713V1.16713C2.74421 1.12634 2.81097 1.12662 2.85234 1.16776L6.18 4.47666Z" fill="#FF96A2"/>
<path fill-rule="evenodd" clip-rule="evenodd" d="M8.15316 5.70891C8.27012 5.70891 8.38221 5.66208 8.4644 5.57887L12.6681 1.32337C12.793 1.1969 12.9972 1.1969 13.1222 1.32337V1.32337C13.2449 1.44767 13.2449 1.64761 13.1222 1.77191L8.72717 6.22106C8.64497 6.30427 8.53288 6.3511 8.41592 6.3511H5.58397C5.46701 6.3511 5.35492 6.30427 5.27272 6.22106L0.877736 1.77191C0.754948 1.64761 0.754948 1.44767 0.877736 1.32337V1.32337C1.00267 1.1969 1.20687 1.1969 1.3318 1.32337L5.53549 5.57887C5.61769 5.66208 5.72978 5.70891 5.84674 5.70891H8.15316ZM5.27272 7.77852C5.35492 7.69531 5.46701 7.64848 5.58397 7.64848H8.41592C8.53288 7.64848 8.64497 7.69531 8.72717 7.77852L13.1222 12.2277C13.2449 12.352 13.2449 12.5519 13.1222 12.6762V12.6762C12.9972 12.8027 12.793 12.8027 12.6681 12.6762L8.4644 8.42071C8.38221 8.3375 8.27012 8.29067 8.15315 8.29067H5.84674C5.72978 8.29067 5.61769 8.3375 5.53549 8.42071L1.3318 12.6762C1.20687 12.8027 1.00267 12.8027 0.877736 12.6762V12.6762C0.754948 12.5519 0.754947 12.352 0.877736 12.2277L5.27272 7.77852Z" fill="#FF1E3A"/>
<path fill-rule="evenodd" clip-rule="evenodd" d="M8.30878 5.42514L12.5125 1.16964C12.723 0.956474 13.0672 0.956474 13.2778 1.16964C13.4847 1.37915 13.4847 1.71613 13.2778 1.92564L8.88279 6.37479C8.7595 6.4996 8.59136 6.56985 8.41592 6.56985H5.58397C5.40853 6.56985 5.24039 6.49961 5.1171 6.37479L0.722112 1.92564C0.515155 1.71613 0.515156 1.37915 0.722112 1.16964C0.932685 0.956474 1.27685 0.956473 1.48743 1.16964L5.69112 5.42514C5.73221 5.46674 5.78826 5.49016 5.84674 5.49016H8.15316C8.21164 5.49016 8.26768 5.46674 8.30878 5.42514ZM12.5125 12.8299L8.30878 8.57444C8.26768 8.53284 8.21163 8.50942 8.15315 8.50942H5.84674C5.78826 8.50942 5.73221 8.53284 5.69112 8.57444L1.48743 12.8299C1.27685 13.0431 0.932685 13.0431 0.722112 12.8299C0.515156 12.6204 0.515155 12.2835 0.722112 12.0739L5.1171 7.62479C5.24039 7.49998 5.40853 7.42973 5.58397 7.42973H8.41592C8.59136 7.42973 8.7595 7.49998 8.88279 7.62479L13.2778 12.0739C13.4847 12.2835 13.4847 12.6204 13.2778 12.8299C13.0672 13.0431 12.723 13.0431 12.5125 12.8299ZM8.4644 5.57887C8.38221 5.66208 8.27012 5.70891 8.15316 5.70891H5.84674C5.72978 5.70891 5.61769 5.66208 5.53549 5.57887L1.3318 1.32337C1.20687 1.1969 1.00267 1.1969 0.877736 1.32337C0.754948 1.44767 0.754947 1.64761 0.877736 1.77191L5.27272 6.22106C5.35492 6.30427 5.46701 6.3511 5.58397 6.3511H8.41592C8.53288 6.3511 8.64497 6.30427 8.72717 6.22106L13.1222 1.77191C13.2449 1.64761 13.2449 1.44767 13.1222 1.32337C12.9972 1.1969 12.793 1.1969 12.6681 1.32337L8.4644 5.57887ZM5.58397 7.64848C5.46701 7.64848 5.35492 7.69531 5.27272 7.77852L0.877736 12.2277C0.754947 12.352 0.754948 12.5519 0.877736 12.6762C1.00267 12.8027 1.20687 12.8027 1.3318 12.6762L5.53549 8.42071C5.61769 8.3375 5.72978 8.29067 5.84674 8.29067H8.15315C8.27012 8.29067 8.38221 8.3375 8.4644 8.42071L12.6681 12.6762C12.793 12.8027 12.9972 12.8027 13.1222 12.6762C13.2449 12.5519 13.2449 12.352 13.1222 12.2277L8.72717 7.77852C8.64497 7.69531 8.53288 7.64848 8.41592 7.64848H5.58397Z" fill="#FF3535"/>
</svg>
