<svg width="15" height="15" viewBox="0 0 15 15" fill="none" xmlns="http://www.w3.org/2000/svg">
<path d="M7.5 0C9.17101 0 10.7184 0.322358 11.875 0.875503C12.4522 1.15156 12.9647 1.50066 13.343 1.92835C13.6928 2.32389 13.9534 2.81906 13.9944 3.3939L14 3.55263V11.4474C14 12.0901 13.7246 12.6402 13.343 13.0716C12.9647 13.4994 12.4522 13.8485 11.875 14.1245C10.7184 14.6777 9.17101 15 7.5 15C5.82899 15 4.28164 14.6777 3.12502 14.1245C2.54777 13.8485 2.03529 13.4994 1.65703 13.0716C1.30721 12.6761 1.04664 12.1809 1.00564 11.6061L1 11.4474V3.55263C1 2.90991 1.2754 2.35985 1.65703 1.92835C2.03529 1.50066 2.54777 1.15156 3.12502 0.875503C4.28164 0.322358 5.82899 0 7.5 0ZM12.5556 9.79508C12.3431 9.93529 12.1146 10.0625 11.875 10.1771C10.7184 10.7303 9.17101 11.0526 7.5 11.0526C5.82899 11.0526 4.28164 10.7303 3.12502 10.1771C2.88533 10.0625 2.65682 9.93529 2.44444 9.79508V11.4474C2.44444 11.5677 2.49239 11.7445 2.69551 11.9742C2.90199 12.2076 3.23565 12.4539 3.70397 12.6779C4.63849 13.1248 5.98003 13.4211 7.5 13.4211C9.01999 13.4211 10.3615 13.1248 11.296 12.6779C11.7644 12.4539 12.098 12.2076 12.3045 11.9742C12.5076 11.7445 12.5556 11.5677 12.5556 11.4474V9.79508ZM12.5556 5.84771C12.3431 5.98792 12.1146 6.11511 11.875 6.22974C10.7184 6.78292 9.17101 7.10526 7.5 7.10526C5.82899 7.10526 4.28164 6.78292 3.12502 6.22974C2.88533 6.11511 2.65682 5.98792 2.44444 5.84771V7.5C2.44444 7.62032 2.49239 7.79716 2.69551 8.02682C2.90199 8.26026 3.23565 8.50658 3.70397 8.73055C4.63849 9.17747 5.98003 9.47368 7.5 9.47368C9.01999 9.47368 10.3615 9.17747 11.296 8.73055C11.7644 8.50658 12.098 8.26026 12.3045 8.02682C12.5076 7.79716 12.5556 7.62032 12.5556 7.5V5.84771ZM7.5 1.57895C5.98003 1.57895 4.63849 1.87514 3.70397 2.32206C3.23565 2.54604 2.90199 2.79235 2.69551 3.02582C2.49239 3.25549 2.44444 3.43233 2.44444 3.55263C2.44444 3.67293 2.49239 3.84977 2.69551 4.07945C2.90199 4.31291 3.23565 4.55923 3.70397 4.7832C4.63849 5.23012 5.98003 5.52632 7.5 5.52632C9.01999 5.52632 10.3615 5.23012 11.296 4.7832C11.7644 4.55923 12.098 4.31291 12.3045 4.07945C12.5076 3.84977 12.5556 3.67293 12.5556 3.55263C12.5556 3.43233 12.5076 3.25549 12.3045 3.02582C12.098 2.79235 11.7644 2.54604 11.296 2.32206C10.3615 1.87514 9.01999 1.57895 7.5 1.57895Z" fill="url(#paint0_linear_340_110553)"/>
<path d="M11.5117 5.23428C12.0205 4.99098 12.4155 4.70866 12.679 4.4107L12.6791 4.41066C12.9432 4.11194 13.0556 3.82181 13.0556 3.55263C13.0556 3.28346 12.9432 2.99332 12.6791 2.69461L12.679 2.69457C12.4155 2.39661 12.0205 2.11428 11.5117 1.87099C10.4962 1.3853 9.07779 1.07895 7.5 1.07895C5.92223 1.07895 4.50383 1.38531 3.48825 1.87099L3.48825 1.87099C2.97952 2.11429 2.5845 2.39661 2.32098 2.69457L2.32097 2.69457C2.05676 2.99332 1.94444 3.28347 1.94444 3.55263C1.94444 3.8218 2.05676 4.11194 2.32097 4.41069L2.32098 4.4107C2.5845 4.70865 2.97952 4.99097 3.48825 5.23427L3.70397 4.7832L3.48825 5.23427C4.50383 5.71996 5.92223 6.02632 7.5 6.02632C9.07779 6.02632 10.4962 5.71997 11.5117 5.23428ZM11.5117 5.23428L11.2972 4.78563L11.5117 5.23428ZM11.6593 13.6734L11.6593 13.6734C10.5837 14.1878 9.11323 14.5 7.5 14.5C5.88677 14.5 4.41628 14.1878 3.34075 13.6734L3.3407 13.6734C2.80389 13.4167 2.3528 13.1036 2.03158 12.7404L2.03154 12.7404C1.73781 12.4083 1.53831 12.0159 1.50499 11.5789L1.5 11.4385V3.55263C1.5 3.06087 1.7093 2.62397 2.03156 2.2596C2.35279 1.89639 2.80389 1.58331 3.34073 1.32658L3.34074 1.32657C4.41628 0.812204 5.88678 0.5 7.5 0.5C9.11322 0.5 10.5837 0.812204 11.6593 1.32657C12.1961 1.5833 12.6472 1.89639 12.9685 2.2596C13.2622 2.59174 13.4617 2.98414 13.495 3.42115L13.5 3.56153V11.4474C13.5 11.9391 13.2907 12.3761 12.9685 12.7404L12.9685 12.7404C12.6472 13.1036 12.1961 13.4167 11.6593 13.6734ZM13.0556 9.79508V8.86591L12.2801 9.3778C12.0891 9.50389 11.8808 9.62005 11.6592 9.72606C10.5837 10.2404 9.11321 10.5526 7.5 10.5526C5.88677 10.5526 4.41628 10.2404 3.34075 9.72604L3.13541 10.1554L3.34074 9.72604C3.11911 9.62004 2.9109 9.5039 2.71992 9.37781L1.94444 8.86584V9.79508V11.4474C1.94444 11.7165 2.05676 12.0067 2.32098 12.3054L2.32099 12.3054C2.5845 12.6034 2.97952 12.8857 3.48825 13.129C4.50383 13.6147 5.92222 13.9211 7.5 13.9211C9.07779 13.9211 10.4962 13.6147 11.5117 13.129C12.0205 12.8857 12.4155 12.6034 12.679 12.3054L12.6791 12.3054C12.9432 12.0067 13.0556 11.7166 13.0556 11.4474V9.79508ZM13.0556 5.84771V4.91854L12.2801 5.43043C12.0891 5.55652 11.8808 5.67268 11.6592 5.77869C10.5837 6.29308 9.11321 6.60526 7.5 6.60526C5.88677 6.60526 4.41628 6.29307 3.34075 5.77867L3.34074 5.77867C3.11911 5.67267 2.9109 5.55653 2.71992 5.43044L1.94444 4.91847V5.84771V7.5C1.94444 7.76918 2.05676 8.05933 2.32098 8.35807L2.32099 8.35808C2.5845 8.656 2.97952 8.93833 3.48825 9.18162L3.70397 8.73055L3.48825 9.18162C4.50383 9.66731 5.92222 9.97368 7.5 9.97368C9.07779 9.97368 10.4962 9.66731 11.5117 9.18163C12.0205 8.93834 12.4155 8.65601 12.679 8.35808L12.6791 8.35804C12.9432 8.05932 13.0556 7.76919 13.0556 7.5V5.84771Z" stroke="#19C2EF" stroke-opacity="0.55"/>
<defs>
<linearGradient id="paint0_linear_340_110553" x1="7.5" y1="0" x2="7.5" y2="15" gradientUnits="userSpaceOnUse">
<stop stop-color="#0974F8"/>
<stop offset="1" stop-color="#4FB2FE"/>
</linearGradient>
</defs>
</svg>
