<svg width="15" height="15" viewBox="0 0 15 15" fill="none" xmlns="http://www.w3.org/2000/svg">
<g clip-path="url(#clip0_340_110547)">
<mask id="path-1-inside-1_340_110547" fill="white">
<path fill-rule="evenodd" clip-rule="evenodd" d="M7.16032 1.64699C7.16032 1.64699 7.16032 1.64699 7.16032 1.64699L3.18497 3.84176L5.34626 5.08273C5.88274 4.47152 6.64883 4.08807 7.5 4.08807C8.35118 4.08807 9.11727 4.47152 9.65375 5.08273L11.815 3.84176L7.83968 1.64699C7.62682 1.52947 7.37319 1.52947 7.16032 1.64699ZM12.6471 5.13688L10.3547 6.4531C10.4112 6.69448 10.4412 6.94668 10.4412 7.20576C10.4412 8.65852 9.50387 9.87916 8.2353 10.2252V12.912L12.262 10.5999C12.4993 10.4637 12.6471 10.2007 12.6471 9.91457V5.13688ZM12.6122 11.2853L12.9624 11.9706C13.6743 11.5619 14.1176 10.7727 14.1176 9.91457V3.82826C14.1176 3.53768 13.9651 3.27122 13.722 3.13698L8.519 0.264425L8.17934 0.955706L8.519 0.264423C7.88039 -0.088141 7.11961 -0.088141 6.48101 0.264423L6.481 0.264425L1.27799 3.13698C1.03486 3.27122 0.882355 3.53768 0.882355 3.82826V9.91457C0.882355 10.7727 1.3258 11.5619 2.0376 11.9706L2.03761 11.9706L7.14979 14.9059C7.36827 15.0314 7.63173 15.0314 7.85021 14.9059L12.9624 11.9706L12.6122 11.2853ZM6.76471 12.912V10.2252C5.49614 9.87916 4.55883 8.65852 4.55883 7.20576C4.55883 6.94668 4.58878 6.69448 4.64529 6.4531L2.35294 5.13688V9.91457C2.35294 10.2006 2.50075 10.4637 2.73804 10.5999L6.76471 12.912ZM6.20625 6.46372C6.09365 6.68362 6.02941 6.93558 6.02941 7.20576C6.02941 8.06673 6.68779 8.76461 7.5 8.76461C8.31222 8.76461 8.97059 8.06673 8.97059 7.20576C8.97059 6.93559 8.90635 6.6836 8.79375 6.46367C8.54374 5.97551 8.0575 5.64692 7.5 5.64692C6.94248 5.64692 6.45623 5.97553 6.20625 6.46372Z"/>
</mask>
<path fill-rule="evenodd" clip-rule="evenodd" d="M7.16032 1.64699C7.16032 1.64699 7.16032 1.64699 7.16032 1.64699L3.18497 3.84176L5.34626 5.08273C5.88274 4.47152 6.64883 4.08807 7.5 4.08807C8.35118 4.08807 9.11727 4.47152 9.65375 5.08273L11.815 3.84176L7.83968 1.64699C7.62682 1.52947 7.37319 1.52947 7.16032 1.64699ZM12.6471 5.13688L10.3547 6.4531C10.4112 6.69448 10.4412 6.94668 10.4412 7.20576C10.4412 8.65852 9.50387 9.87916 8.2353 10.2252V12.912L12.262 10.5999C12.4993 10.4637 12.6471 10.2007 12.6471 9.91457V5.13688ZM12.6122 11.2853L12.9624 11.9706C13.6743 11.5619 14.1176 10.7727 14.1176 9.91457V3.82826C14.1176 3.53768 13.9651 3.27122 13.722 3.13698L8.519 0.264425L8.17934 0.955706L8.519 0.264423C7.88039 -0.088141 7.11961 -0.088141 6.48101 0.264423L6.481 0.264425L1.27799 3.13698C1.03486 3.27122 0.882355 3.53768 0.882355 3.82826V9.91457C0.882355 10.7727 1.3258 11.5619 2.0376 11.9706L2.03761 11.9706L7.14979 14.9059C7.36827 15.0314 7.63173 15.0314 7.85021 14.9059L12.9624 11.9706L12.6122 11.2853ZM6.76471 12.912V10.2252C5.49614 9.87916 4.55883 8.65852 4.55883 7.20576C4.55883 6.94668 4.58878 6.69448 4.64529 6.4531L2.35294 5.13688V9.91457C2.35294 10.2006 2.50075 10.4637 2.73804 10.5999L6.76471 12.912ZM6.20625 6.46372C6.09365 6.68362 6.02941 6.93558 6.02941 7.20576C6.02941 8.06673 6.68779 8.76461 7.5 8.76461C8.31222 8.76461 8.97059 8.06673 8.97059 7.20576C8.97059 6.93559 8.90635 6.6836 8.79375 6.46367C8.54374 5.97551 8.0575 5.64692 7.5 5.64692C6.94248 5.64692 6.45623 5.97553 6.20625 6.46372Z" fill="url(#paint0_linear_340_110547)"/>
<path d="M7.16032 1.64699L6.69202 0.763419L6.68447 0.76742L6.67699 0.771549L7.16032 1.64699ZM7.16032 1.64699L7.62862 2.53056L7.63617 2.52656L7.64364 2.52243L7.16032 1.64699ZM3.18497 3.84176L2.70164 2.96632L1.14692 3.82467L2.68703 4.70897L3.18497 3.84176ZM5.34626 5.08273L4.84832 5.94995L5.55799 6.35742L6.09782 5.7424L5.34626 5.08273ZM9.65375 5.08273L8.9022 5.7424L9.44203 6.35742L10.1517 5.94995L9.65375 5.08273ZM11.815 3.84176L12.313 4.70898L13.8531 3.82467L12.2984 2.96632L11.815 3.84176ZM7.83968 1.64699L8.32301 0.771549L8.32301 0.771546L7.83968 1.64699ZM10.3547 6.4531L9.85678 5.58589L9.21142 5.95644L9.38104 6.68103L10.3547 6.4531ZM12.6471 5.13688H13.6471V3.40958L12.1491 4.26967L12.6471 5.13688ZM8.2353 10.2252L7.9721 9.2605L7.2353 9.46151V10.2252H8.2353ZM8.2353 12.912H7.2353V14.6393L8.73323 13.7792L8.2353 12.912ZM12.262 10.5999L12.7599 11.4671L12.7599 11.4671L12.262 10.5999ZM12.6122 11.2853L13.5027 10.8302L11.7217 11.7403L12.6122 11.2853ZM12.9624 11.9706L12.072 12.4256L12.5498 13.3607L13.4604 12.8378L12.9624 11.9706ZM13.722 3.13698L13.2387 4.01242L13.2387 4.01242L13.722 3.13698ZM8.519 0.264425L9.00233 -0.611015L8.08405 -1.11799L7.62149 -0.176565L8.519 0.264425ZM8.519 0.264423L9.41651 0.705408L9.83693 -0.150243L9.00232 -0.61102L8.519 0.264423ZM6.48101 0.264423L5.99766 -0.611071L5.98834 -0.605794L6.48101 0.264423ZM6.481 0.264425L6.96436 1.13992L6.97367 1.13464L6.481 0.264425ZM1.27799 3.13698L1.76132 4.01242L1.76132 4.01242L1.27799 3.13698ZM2.0376 11.9706L1.53964 12.8378L1.54975 12.8436L1.56 12.8492L2.0376 11.9706ZM2.03761 11.9706L2.53554 11.1034L2.52544 11.0976L2.5152 11.092L2.03761 11.9706ZM7.14979 14.9059L7.64773 14.0387L7.64773 14.0387L7.14979 14.9059ZM7.85021 14.9059L8.34814 15.7731L8.34815 15.7731L7.85021 14.9059ZM12.9624 11.9706L13.4604 12.8378L14.2862 12.3636L13.8529 11.5156L12.9624 11.9706ZM6.76471 10.2252H7.76471V9.46151L7.02791 9.2605L6.76471 10.2252ZM6.76471 12.912L6.26677 13.7792L7.76471 14.6393V12.912H6.76471ZM4.64529 6.4531L5.61897 6.68103L5.78859 5.95644L5.14323 5.58588L4.64529 6.4531ZM2.35294 5.13688L2.85088 4.26966L1.35294 3.40958V5.13688H2.35294ZM2.73804 10.5999L2.24009 11.4671L2.24011 11.4671L2.73804 10.5999ZM6.20625 6.46372L5.31616 6.00793L5.31615 6.00794L6.20625 6.46372ZM8.79375 6.46367L9.68387 6.00794L9.68381 6.00784L8.79375 6.46367ZM7.62862 2.53056C7.62862 2.53056 7.62862 2.53056 7.62862 2.53056C7.62862 2.53056 7.62862 2.53056 7.62862 2.53056C7.62862 2.53056 7.62862 2.53056 7.62862 2.53056C7.62862 2.53056 7.62862 2.53056 7.62862 2.53056C7.62862 2.53056 7.62862 2.53056 7.62862 2.53056C7.62862 2.53056 7.62862 2.53056 7.62862 2.53056C7.62862 2.53056 7.62862 2.53056 7.62862 2.53056C7.62862 2.53056 7.62862 2.53056 7.62862 2.53056C7.62862 2.53056 7.62862 2.53056 7.62862 2.53056C7.62862 2.53056 7.62862 2.53056 7.62862 2.53056C7.62862 2.53056 7.62862 2.53056 7.62862 2.53056C7.62862 2.53056 7.62862 2.53056 7.62862 2.53056C7.62862 2.53056 7.62862 2.53056 7.62862 2.53056C7.62862 2.53056 7.62862 2.53056 7.62862 2.53056C7.62862 2.53056 7.62862 2.53056 7.62862 2.53056C7.62862 2.53056 7.62862 2.53056 7.62862 2.53056C7.62862 2.53056 7.62862 2.53056 7.62862 2.53056C7.62862 2.53056 7.62862 2.53056 7.62862 2.53056C7.62862 2.53056 7.62862 2.53056 7.62862 2.53056C7.62862 2.53056 7.62862 2.53056 7.62862 2.53056C7.62862 2.53056 7.62862 2.53056 7.62862 2.53056C7.62862 2.53056 7.62862 2.53056 7.62862 2.53056C7.62862 2.53056 7.62862 2.53056 7.62862 2.53056C7.62862 2.53056 7.62862 2.53056 7.62862 2.53056C7.62862 2.53056 7.62862 2.53056 7.62862 2.53056C7.62862 2.53056 7.62862 2.53056 7.62862 2.53056C7.62862 2.53056 7.62862 2.53056 7.62862 2.53056C7.62862 2.53056 7.62862 2.53056 7.62862 2.53056C7.62862 2.53056 7.62862 2.53056 7.62862 2.53056C7.62862 2.53056 7.62862 2.53056 7.62862 2.53056C7.62862 2.53056 7.62862 2.53056 7.62862 2.53056C7.62862 2.53056 7.62862 2.53056 7.62862 2.53056C7.62862 2.53056 7.62862 2.53056 7.62862 2.53056C7.62862 2.53056 7.62862 2.53056 7.62862 2.53056C7.62862 2.53056 7.62862 2.53056 7.62862 2.53056C7.62862 2.53056 7.62862 2.53056 7.62862 2.53056C7.62862 2.53056 7.62862 2.53056 7.62862 2.53056C7.62862 2.53056 7.62862 2.53056 7.62862 2.53056C7.62862 2.53056 7.62862 2.53056 7.62862 2.53056C7.62862 2.53056 7.62862 2.53056 7.62862 2.53056C7.62862 2.53056 7.62862 2.53056 7.62862 2.53056C7.62862 2.53056 7.62862 2.53056 7.62862 2.53056C7.62862 2.53056 7.62862 2.53056 7.62862 2.53056C7.62862 2.53056 7.62862 2.53056 7.62862 2.53056C7.62862 2.53056 7.62862 2.53056 7.62862 2.53056C7.62862 2.53056 7.62862 2.53056 7.62862 2.53056C7.62862 2.53056 7.62862 2.53056 7.62862 2.53056C7.62862 2.53056 7.62862 2.53056 7.62862 2.53056C7.62862 2.53056 7.62862 2.53056 7.62862 2.53056C7.62862 2.53056 7.62862 2.53056 7.62862 2.53056C7.62862 2.53056 7.62862 2.53056 7.62862 2.53056C7.62862 2.53056 7.62862 2.53056 7.62862 2.53056C7.62862 2.53056 7.62862 2.53056 7.62862 2.53056C7.62862 2.53056 7.62862 2.53056 7.62862 2.53056C7.62862 2.53056 7.62862 2.53056 7.62862 2.53056C7.62862 2.53056 7.62862 2.53056 7.62862 2.53056C7.62862 2.53056 7.62862 2.53056 7.62862 2.53056C7.62862 2.53056 7.62862 2.53056 7.62862 2.53056C7.62862 2.53056 7.62862 2.53056 7.62862 2.53056C7.62862 2.53056 7.62862 2.53056 7.62862 2.53056C7.62862 2.53056 7.62862 2.53056 7.62862 2.53056C7.62862 2.53056 7.62862 2.53056 7.62862 2.53056C7.62862 2.53056 7.62862 2.53056 7.62862 2.53056C7.62862 2.53056 7.62862 2.53056 7.62862 2.53056C7.62862 2.53056 7.62862 2.53056 7.62862 2.53056C7.62862 2.53056 7.62862 2.53056 7.62862 2.53056C7.62862 2.53056 7.62862 2.53056 7.62862 2.53056C7.62862 2.53056 7.62862 2.53056 7.62862 2.53056C7.62862 2.53056 7.62862 2.53056 7.62862 2.53056C7.62862 2.53056 7.62862 2.53056 7.62862 2.53056C7.62862 2.53056 7.62862 2.53056 7.62862 2.53056C7.62862 2.53056 7.62862 2.53056 7.62862 2.53056C7.62862 2.53056 7.62862 2.53056 7.62862 2.53056C7.62862 2.53056 7.62862 2.53056 7.62862 2.53056C7.62862 2.53056 7.62862 2.53056 7.62862 2.53056C7.62862 2.53056 7.62862 2.53056 7.62862 2.53056C7.62862 2.53056 7.62862 2.53056 7.62862 2.53056C7.62862 2.53056 7.62862 2.53056 7.62862 2.53056C7.62862 2.53056 7.62862 2.53056 7.62862 2.53056C7.62862 2.53056 7.62862 2.53056 7.62862 2.53056C7.62862 2.53056 7.62862 2.53056 7.62862 2.53056C7.62862 2.53056 7.62862 2.53056 7.62862 2.53056C7.62862 2.53056 7.62862 2.53056 7.62862 2.53056C7.62862 2.53056 7.62862 2.53056 7.62862 2.53056C7.62862 2.53056 7.62862 2.53056 7.62862 2.53056C7.62862 2.53056 7.62862 2.53056 7.62862 2.53056C7.62862 2.53056 7.62862 2.53056 7.62862 2.53056C7.62862 2.53056 7.62862 2.53056 7.62862 2.53056C7.62862 2.53056 7.62862 2.53056 7.62862 2.53056C7.62862 2.53056 7.62862 2.53056 7.62862 2.53056C7.62862 2.53056 7.62862 2.53056 7.62862 2.53056C7.62862 2.53056 7.62862 2.53056 7.62862 2.53056C7.62862 2.53056 7.62862 2.53056 7.62862 2.53056C7.62862 2.53056 7.62862 2.53056 7.62862 2.53056C7.62862 2.53056 7.62862 2.53056 7.62862 2.53056C7.62862 2.53056 7.62862 2.53056 7.62862 2.53056C7.62862 2.53056 7.62862 2.53056 7.62862 2.53056C7.62862 2.53056 7.62862 2.53056 7.62862 2.53056C7.62862 2.53056 7.62862 2.53056 7.62862 2.53056C7.62862 2.53056 7.62862 2.53056 7.62862 2.53056C7.62862 2.53056 7.62862 2.53056 7.62862 2.53056C7.62862 2.53056 7.62862 2.53056 7.62862 2.53056C7.62862 2.53056 7.62862 2.53056 7.62862 2.53056C7.62862 2.53056 7.62862 2.53056 7.62862 2.53056C7.62862 2.53056 7.62862 2.53056 7.62862 2.53056C7.62862 2.53056 7.62862 2.53056 7.62862 2.53056C7.62862 2.53056 7.62862 2.53056 7.62862 2.53056C7.62862 2.53056 7.62862 2.53056 7.62862 2.53056C7.62862 2.53056 7.62862 2.53056 7.62862 2.53056C7.62862 2.53056 7.62862 2.53056 7.62862 2.53056C7.62862 2.53056 7.62862 2.53056 7.62862 2.53056C7.62862 2.53056 7.62862 2.53056 7.62862 2.53056C7.62862 2.53056 7.62862 2.53056 7.62862 2.53056C7.62862 2.53056 7.62862 2.53056 7.62862 2.53056C7.62862 2.53056 7.62862 2.53056 7.62862 2.53056C7.62862 2.53056 7.62862 2.53056 7.62862 2.53056C7.62862 2.53056 7.62862 2.53056 7.62862 2.53056C7.62862 2.53056 7.62862 2.53056 7.62862 2.53056C7.62862 2.53056 7.62862 2.53056 7.62862 2.53056C7.62862 2.53056 7.62862 2.53056 7.62862 2.53056C7.62862 2.53056 7.62862 2.53056 7.62862 2.53056C7.62862 2.53056 7.62862 2.53056 7.62862 2.53056C7.62862 2.53056 7.62862 2.53056 7.62862 2.53056C7.62862 2.53056 7.62862 2.53056 7.62862 2.53056C7.62862 2.53056 7.62862 2.53056 7.62862 2.53056C7.62862 2.53056 7.62862 2.53056 7.62862 2.53056C7.62862 2.53056 7.62862 2.53056 7.62862 2.53056C7.62862 2.53056 7.62862 2.53056 7.62862 2.53056C7.62862 2.53056 7.62862 2.53056 7.62862 2.53056C7.62862 2.53056 7.62862 2.53056 7.62862 2.53056C7.62862 2.53056 7.62862 2.53056 7.62862 2.53056C7.62862 2.53056 7.62862 2.53056 7.62862 2.53056C7.62862 2.53056 7.62862 2.53056 7.62862 2.53056C7.62862 2.53056 7.62862 2.53056 7.62862 2.53056C7.62862 2.53056 7.62862 2.53056 7.62862 2.53056C7.62862 2.53056 7.62862 2.53056 7.62862 2.53056C7.62862 2.53056 7.62862 2.53056 7.62862 2.53056C7.62862 2.53056 7.62862 2.53056 7.62862 2.53056C7.62862 2.53056 7.62862 2.53056 7.62862 2.53056C7.62862 2.53056 7.62862 2.53056 7.62862 2.53056C7.62862 2.53056 7.62862 2.53056 7.62862 2.53056C7.62862 2.53056 7.62862 2.53056 7.62862 2.53056C7.62862 2.53056 7.62862 2.53056 7.62862 2.53056C7.62862 2.53056 7.62862 2.53056 7.62862 2.53056C7.62862 2.53056 7.62862 2.53056 7.62862 2.53056C7.62862 2.53056 7.62862 2.53056 7.62862 2.53056C7.62862 2.53056 7.62862 2.53056 7.62862 2.53056C7.62862 2.53056 7.62862 2.53056 7.62862 2.53056C7.62862 2.53056 7.62862 2.53056 7.62862 2.53056C7.62862 2.53056 7.62862 2.53056 7.62862 2.53056C7.62862 2.53056 7.62862 2.53056 7.62862 2.53056C7.62862 2.53056 7.62862 2.53056 7.62862 2.53056C7.62862 2.53056 7.62862 2.53056 7.62862 2.53056C7.62862 2.53056 7.62862 2.53056 7.62862 2.53056C7.62862 2.53056 7.62862 2.53056 7.62862 2.53056C7.62862 2.53056 7.62862 2.53056 7.62862 2.53056C7.62862 2.53056 7.62862 2.53056 7.62862 2.53056C7.62862 2.53056 7.62862 2.53056 7.62862 2.53056C7.62862 2.53056 7.62862 2.53056 7.62862 2.53056C7.62862 2.53056 7.62862 2.53056 7.62862 2.53056C7.62862 2.53056 7.62862 2.53056 7.62862 2.53056C7.62862 2.53056 7.62862 2.53056 7.62862 2.53056C7.62862 2.53056 7.62862 2.53056 7.62862 2.53056C7.62862 2.53056 7.62862 2.53056 7.62862 2.53056C7.62862 2.53056 7.62862 2.53056 7.62862 2.53056C7.62862 2.53056 7.62862 2.53056 7.62862 2.53056C7.62862 2.53056 7.62862 2.53056 7.62862 2.53056C7.62862 2.53056 7.62862 2.53056 7.62862 2.53056C7.62862 2.53056 7.62862 2.53056 7.62862 2.53056C7.62862 2.53056 7.62862 2.53056 7.62862 2.53056C7.62862 2.53056 7.62862 2.53056 7.62862 2.53056C7.62862 2.53056 7.62862 2.53056 7.62862 2.53056C7.62862 2.53056 7.62862 2.53056 7.62862 2.53056C7.62862 2.53056 7.62862 2.53056 7.62862 2.53056C7.62862 2.53056 7.62862 2.53056 7.62862 2.53056C7.62862 2.53056 7.62862 2.53056 7.62862 2.53056C7.62862 2.53056 7.62862 2.53056 7.62862 2.53056C7.62862 2.53056 7.62862 2.53056 7.62862 2.53056C7.62862 2.53056 7.62862 2.53056 7.62862 2.53056C7.62862 2.53056 7.62862 2.53056 7.62862 2.53056C7.62862 2.53056 7.62862 2.53056 7.62862 2.53056C7.62862 2.53056 7.62862 2.53056 7.62862 2.53056C7.62862 2.53056 7.62862 2.53056 7.62862 2.53056C7.62862 2.53056 7.62862 2.53056 7.62862 2.53056C7.62862 2.53056 7.62862 2.53056 7.62862 2.53056C7.62862 2.53056 7.62862 2.53056 7.62862 2.53056C7.62862 2.53056 7.62862 2.53056 7.62862 2.53056C7.62862 2.53056 7.62862 2.53056 7.62862 2.53056C7.62862 2.53056 7.62862 2.53056 7.62862 2.53056C7.62862 2.53056 7.62862 2.53056 7.62862 2.53056C7.62862 2.53056 7.62862 2.53056 7.62862 2.53056C7.62862 2.53056 7.62862 2.53056 7.62862 2.53056C7.62862 2.53056 7.62862 2.53056 7.62862 2.53056C7.62862 2.53056 7.62862 2.53056 7.62862 2.53056C7.62862 2.53056 7.62862 2.53056 7.62862 2.53056C7.62862 2.53056 7.62862 2.53056 7.62862 2.53056C7.62862 2.53056 7.62862 2.53056 7.62862 2.53056C7.62862 2.53056 7.62862 2.53056 7.62862 2.53056C7.62862 2.53056 7.62862 2.53056 7.62862 2.53056C7.62862 2.53056 7.62862 2.53056 7.62862 2.53056C7.62862 2.53056 7.62862 2.53056 7.62862 2.53056C7.62862 2.53056 7.62862 2.53056 7.62862 2.53056C7.62862 2.53056 7.62862 2.53056 7.62862 2.53056C7.62862 2.53056 7.62862 2.53056 7.62862 2.53056C7.62862 2.53056 7.62862 2.53056 7.62862 2.53056C7.62862 2.53056 7.62862 2.53056 7.62862 2.53056C7.62862 2.53056 7.62862 2.53056 7.62862 2.53056C7.62862 2.53056 7.62862 2.53056 7.62862 2.53056C7.62862 2.53056 7.62862 2.53056 7.62862 2.53056C7.62862 2.53056 7.62862 2.53056 7.62862 2.53056C7.62862 2.53056 7.62862 2.53056 7.62862 2.53056C7.62862 2.53056 7.62862 2.53056 7.62862 2.53056C7.62862 2.53056 7.62862 2.53056 7.62862 2.53056C7.62862 2.53056 7.62862 2.53056 7.62862 2.53056C7.62862 2.53056 7.62862 2.53056 7.62862 2.53056C7.62862 2.53056 7.62862 2.53056 7.62862 2.53056C7.62862 2.53056 7.62862 2.53056 7.62862 2.53056C7.62862 2.53056 7.62862 2.53056 7.62862 2.53056C7.62862 2.53056 7.62862 2.53056 7.62862 2.53056C7.62862 2.53056 7.62862 2.53056 7.62862 2.53056C7.62862 2.53056 7.62862 2.53056 7.62862 2.53056C7.62862 2.53056 7.62862 2.53056 7.62862 2.53056C7.62862 2.53056 7.62862 2.53056 7.62862 2.53056C7.62862 2.53056 7.62862 2.53056 7.62862 2.53056C7.62862 2.53056 7.62862 2.53056 7.62862 2.53056C7.62862 2.53056 7.62862 2.53056 7.62862 2.53056C7.62862 2.53056 7.62862 2.53056 7.62862 2.53056C7.62862 2.53056 7.62862 2.53056 7.62862 2.53056C7.62862 2.53056 7.62862 2.53056 7.62862 2.53056C7.62862 2.53056 7.62862 2.53056 7.62862 2.53056C7.62862 2.53056 7.62862 2.53056 7.62862 2.53056C7.62862 2.53056 7.62862 2.53056 7.62862 2.53056C7.62862 2.53056 7.62862 2.53056 7.62862 2.53056C7.62862 2.53056 7.62862 2.53056 7.62862 2.53056C7.62862 2.53056 7.62862 2.53056 7.62862 2.53056C7.62862 2.53056 7.62862 2.53056 7.62862 2.53056C7.62862 2.53056 7.62862 2.53056 7.62862 2.53056C7.62862 2.53056 7.62862 2.53056 7.62862 2.53056C7.62862 2.53056 7.62862 2.53056 7.62862 2.53056C7.62862 2.53056 7.62862 2.53056 7.62862 2.53056C7.62862 2.53056 7.62862 2.53056 7.62862 2.53056C7.62862 2.53056 7.62862 2.53056 7.62862 2.53056C7.62862 2.53056 7.62862 2.53056 7.62862 2.53056C7.62862 2.53056 7.62862 2.53056 7.62862 2.53056C7.62862 2.53056 7.62862 2.53056 7.62862 2.53056C7.62862 2.53056 7.62862 2.53056 7.62862 2.53056C7.62862 2.53056 7.62862 2.53056 7.62862 2.53056C7.62862 2.53056 7.62862 2.53056 7.62862 2.53056C7.62862 2.53056 7.62862 2.53056 7.62862 2.53056C7.62862 2.53056 7.62862 2.53056 7.62862 2.53056C7.62862 2.53056 7.62862 2.53056 7.62862 2.53056C7.62862 2.53056 7.62862 2.53056 7.62862 2.53056C7.62862 2.53056 7.62862 2.53056 7.62862 2.53056C7.62862 2.53056 7.62862 2.53056 7.62862 2.53056C7.62862 2.53056 7.62862 2.53056 7.62862 2.53056C7.62862 2.53056 7.62862 2.53056 7.62862 2.53056C7.62862 2.53056 7.62862 2.53056 7.62862 2.53056C7.62862 2.53056 7.62862 2.53056 7.62862 2.53056C7.62862 2.53056 7.62862 2.53056 7.62862 2.53056C7.62862 2.53056 7.62862 2.53056 7.62862 2.53056C7.62862 2.53056 7.62862 2.53056 7.62862 2.53056C7.62862 2.53056 7.62862 2.53056 7.62862 2.53056C7.62862 2.53056 7.62862 2.53056 7.62862 2.53056C7.62862 2.53056 7.62862 2.53056 7.62862 2.53056C7.62862 2.53056 7.62862 2.53056 7.62862 2.53056C7.62862 2.53056 7.62862 2.53056 7.62862 2.53056C7.62862 2.53056 7.62862 2.53056 7.62862 2.53056C7.62862 2.53056 7.62862 2.53056 7.62862 2.53056C7.62862 2.53056 7.62862 2.53056 7.62862 2.53056C7.62862 2.53056 7.62862 2.53056 7.62862 2.53056C7.62862 2.53056 7.62862 2.53056 7.62862 2.53056C7.62862 2.53056 7.62862 2.53056 7.62862 2.53056C7.62862 2.53056 7.62862 2.53056 7.62862 2.53056C7.62862 2.53056 7.62862 2.53056 7.62862 2.53056C7.62862 2.53056 7.62862 2.53056 7.62862 2.53056C7.62862 2.53056 7.62862 2.53056 7.62862 2.53056C7.62862 2.53056 7.62862 2.53056 7.62862 2.53056C7.62862 2.53056 7.62862 2.53056 7.62862 2.53056C7.62862 2.53056 7.62862 2.53056 7.62862 2.53056C7.62862 2.53056 7.62862 2.53056 7.62862 2.53056C7.62862 2.53056 7.62862 2.53056 7.62862 2.53056C7.62862 2.53056 7.62862 2.53056 7.62862 2.53056C7.62862 2.53056 7.62862 2.53056 7.62862 2.53056C7.62862 2.53056 7.62862 2.53056 7.62862 2.53056C7.62862 2.53056 7.62862 2.53056 7.62862 2.53056C7.62862 2.53056 7.62862 2.53056 7.62862 2.53056C7.62862 2.53056 7.62862 2.53056 7.62862 2.53056C7.62862 2.53056 7.62862 2.53056 7.62862 2.53056C7.62862 2.53056 7.62862 2.53056 7.62862 2.53056C7.62862 2.53056 7.62862 2.53056 7.62862 2.53056C7.62862 2.53056 7.62862 2.53056 7.62862 2.53056C7.62862 2.53056 7.62862 2.53056 7.62862 2.53056C7.62862 2.53056 7.62862 2.53056 7.62862 2.53056C7.62862 2.53056 7.62862 2.53056 7.62862 2.53056C7.62862 2.53056 7.62862 2.53056 7.62862 2.53056C7.62862 2.53056 7.62862 2.53056 7.62862 2.53056C7.62862 2.53056 7.62862 2.53056 7.62862 2.53056C7.62862 2.53056 7.62862 2.53056 7.62862 2.53056C7.62862 2.53056 7.62862 2.53056 7.62862 2.53056C7.62862 2.53056 7.62862 2.53056 7.62862 2.53056C7.62862 2.53056 7.62862 2.53056 7.62862 2.53056C7.62862 2.53056 7.62862 2.53056 7.62862 2.53056C7.62862 2.53056 7.62862 2.53056 7.62862 2.53056C7.62862 2.53056 7.62862 2.53056 7.62862 2.53056C7.62862 2.53056 7.62862 2.53056 7.62862 2.53056C7.62862 2.53056 7.62862 2.53056 7.62862 2.53056C7.62862 2.53056 7.62862 2.53056 7.62862 2.53056C7.62862 2.53056 7.62862 2.53056 7.62862 2.53056C7.62862 2.53056 7.62862 2.53056 7.62862 2.53056C7.62862 2.53056 7.62862 2.53056 7.62862 2.53056C7.62862 2.53056 7.62862 2.53056 7.62862 2.53056C7.62862 2.53056 7.62862 2.53056 7.62862 2.53056C7.62862 2.53056 7.62862 2.53056 7.62862 2.53056C7.62862 2.53056 7.62862 2.53056 7.62862 2.53056C7.62862 2.53056 7.62862 2.53056 7.62862 2.53056C7.62862 2.53056 7.62862 2.53056 7.62862 2.53056C7.62862 2.53056 7.62862 2.53056 7.62862 2.53056C7.62862 2.53056 7.62862 2.53056 7.62862 2.53056C7.62862 2.53056 7.62862 2.53056 7.62862 2.53056C7.62862 2.53056 7.62862 2.53056 7.62862 2.53056C7.62862 2.53056 7.62862 2.53056 7.62862 2.53056C7.62862 2.53056 7.62862 2.53056 7.62862 2.53056C7.62862 2.53056 7.62862 2.53056 7.62862 2.53056C7.62862 2.53056 7.62862 2.53056 7.62862 2.53056C7.62862 2.53056 7.62862 2.53056 7.62862 2.53056C7.62862 2.53056 7.62862 2.53056 7.62862 2.53056C7.62862 2.53056 7.62862 2.53056 7.62862 2.53056C7.62862 2.53056 7.62862 2.53056 7.62862 2.53056C7.62862 2.53056 7.62862 2.53056 7.62862 2.53056C7.62862 2.53056 7.62862 2.53056 7.62862 2.53056C7.62862 2.53056 7.62862 2.53056 7.62862 2.53056C7.62862 2.53056 7.62862 2.53056 7.62862 2.53056C7.62862 2.53056 7.62862 2.53056 7.62862 2.53056C7.62862 2.53056 7.62862 2.53056 7.62862 2.53056C7.62862 2.53056 7.62862 2.53056 7.62862 2.53056C7.62862 2.53056 7.62862 2.53056 7.62862 2.53056C7.62862 2.53056 7.62862 2.53056 7.62862 2.53056C7.62862 2.53056 7.62862 2.53056 7.62862 2.53056C7.62862 2.53056 7.62862 2.53056 7.62862 2.53056C7.62862 2.53056 7.62862 2.53056 7.62862 2.53056C7.62862 2.53056 7.62862 2.53056 7.62862 2.53056C7.62862 2.53056 7.62862 2.53056 7.62862 2.53056C7.62862 2.53056 7.62862 2.53056 7.62862 2.53056C7.62862 2.53056 7.62862 2.53056 7.62862 2.53056C7.62862 2.53056 7.62862 2.53056 7.62862 2.53056C7.62862 2.53056 7.62862 2.53056 7.62862 2.53056C7.62862 2.53056 7.62862 2.53056 7.62862 2.53056C7.62862 2.53056 7.62862 2.53056 7.62862 2.53056C7.62862 2.53056 7.62862 2.53056 7.62862 2.53056C7.62862 2.53056 7.62862 2.53056 7.62862 2.53056C7.62862 2.53056 7.62862 2.53056 7.62862 2.53056C7.62862 2.53056 7.62862 2.53056 7.62862 2.53056C7.62862 2.53056 7.62862 2.53056 7.62862 2.53056C7.62862 2.53056 7.62862 2.53056 7.62862 2.53056C7.62862 2.53056 7.62862 2.53056 7.62862 2.53056C7.62862 2.53056 7.62862 2.53056 7.62862 2.53056C7.62862 2.53056 7.62862 2.53056 7.62862 2.53056C7.62862 2.53056 7.62862 2.53056 7.62862 2.53056C7.62862 2.53056 7.62862 2.53056 7.62862 2.53056C7.62862 2.53056 7.62862 2.53056 7.62862 2.53056C7.62862 2.53056 7.62862 2.53056 7.62862 2.53056C7.62862 2.53056 7.62862 2.53056 7.62862 2.53056C7.62862 2.53056 7.62862 2.53056 7.62862 2.53056C7.62862 2.53056 7.62862 2.53056 7.62862 2.53056C7.62862 2.53056 7.62862 2.53056 7.62862 2.53056C7.62862 2.53056 7.62862 2.53056 7.62862 2.53056C7.62862 2.53056 7.62862 2.53056 7.62862 2.53056C7.62862 2.53056 7.62862 2.53056 7.62862 2.53056C7.62862 2.53056 7.62862 2.53056 7.62862 2.53056C7.62862 2.53056 7.62862 2.53056 7.62862 2.53056C7.62862 2.53056 7.62862 2.53056 7.62862 2.53056C7.62862 2.53056 7.62862 2.53056 7.62862 2.53056C7.62862 2.53056 7.62862 2.53056 7.62862 2.53056C7.62862 2.53056 7.62862 2.53056 7.62862 2.53056C7.62862 2.53056 7.62862 2.53056 7.62862 2.53056C7.62862 2.53056 7.62862 2.53056 7.62862 2.53056C7.62862 2.53056 7.62862 2.53056 7.62862 2.53056C7.62862 2.53056 7.62862 2.53056 7.62862 2.53056C7.62862 2.53056 7.62862 2.53056 7.62862 2.53056C7.62862 2.53056 7.62862 2.53056 7.62862 2.53056C7.62862 2.53056 7.62862 2.53056 7.62862 2.53056C7.62862 2.53056 7.62862 2.53056 7.62862 2.53056C7.62862 2.53056 7.62862 2.53056 7.62862 2.53056C7.62862 2.53056 7.62862 2.53056 7.62862 2.53056C7.62862 2.53056 7.62862 2.53056 7.62862 2.53056C7.62862 2.53056 7.62862 2.53056 7.62862 2.53056C7.62862 2.53056 7.62862 2.53056 7.62862 2.53056C7.62862 2.53056 7.62862 2.53056 7.62862 2.53056C7.62862 2.53056 7.62862 2.53056 7.62862 2.53056C7.62862 2.53056 7.62862 2.53056 7.62862 2.53056C7.62862 2.53056 7.62862 2.53056 7.62862 2.53056C7.62862 2.53056 7.62862 2.53056 7.62862 2.53056C7.62862 2.53056 7.62862 2.53056 7.62862 2.53056C7.62862 2.53056 7.62862 2.53056 7.62862 2.53056C7.62862 2.53056 7.62862 2.53056 7.62862 2.53056C7.62862 2.53056 7.62862 2.53056 7.62862 2.53056C7.62862 2.53056 7.62862 2.53056 7.62862 2.53056C7.62862 2.53056 7.62862 2.53056 7.62862 2.53056C7.62862 2.53056 7.62862 2.53056 7.62862 2.53056C7.62862 2.53056 7.62862 2.53056 7.62862 2.53056C7.62862 2.53056 7.62862 2.53056 7.62862 2.53056C7.62862 2.53056 7.62862 2.53056 7.62862 2.53056C7.62862 2.53056 7.62862 2.53056 7.62862 2.53056C7.62862 2.53056 7.62862 2.53056 7.62862 2.53056C7.62862 2.53056 7.62862 2.53056 7.62862 2.53056C7.62862 2.53056 7.62862 2.53056 7.62862 2.53056C7.62862 2.53056 7.62862 2.53056 7.62862 2.53056C7.62862 2.53056 7.62862 2.53056 7.62862 2.53056C7.62862 2.53056 7.62862 2.53056 7.62862 2.53056C7.62862 2.53056 7.62862 2.53056 7.62862 2.53056C7.62862 2.53056 7.62862 2.53056 7.62862 2.53056C7.62862 2.53056 7.62862 2.53056 7.62862 2.53056C7.62862 2.53056 7.62862 2.53056 7.62862 2.53056C7.62862 2.53056 7.62862 2.53056 7.62862 2.53056C7.62862 2.53056 7.62862 2.53056 7.62862 2.53056C7.62862 2.53056 7.62862 2.53056 7.62862 2.53056C7.62862 2.53056 7.62862 2.53056 7.62862 2.53056C7.62862 2.53056 7.62862 2.53056 7.62862 2.53056C7.62862 2.53056 7.62862 2.53056 7.62862 2.53056C7.62862 2.53056 7.62862 2.53056 7.62862 2.53056C7.62862 2.53056 7.62862 2.53056 7.62862 2.53056C7.62862 2.53056 7.62862 2.53056 7.62862 2.53056C7.62862 2.53056 7.62862 2.53056 7.62862 2.53056C7.62862 2.53056 7.62862 2.53056 7.62862 2.53056C7.62862 2.53056 7.62862 2.53056 7.62862 2.53056C7.62862 2.53056 7.62862 2.53056 7.62862 2.53056C7.62862 2.53056 7.62862 2.53056 7.62862 2.53056C7.62862 2.53056 7.62862 2.53056 7.62862 2.53056C7.62862 2.53056 7.62862 2.53056 7.62862 2.53056C7.62862 2.53056 7.62862 2.53056 7.62862 2.53056C7.62862 2.53056 7.62862 2.53056 7.62862 2.53056C7.62862 2.53056 7.62862 2.53056 7.62862 2.53056C7.62862 2.53056 7.62862 2.53056 7.62862 2.53056C7.62862 2.53056 7.62862 2.53056 7.62862 2.53056C7.62862 2.53056 7.62862 2.53056 7.62862 2.53056C7.62862 2.53056 7.62862 2.53056 7.62862 2.53056C7.62862 2.53056 7.62862 2.53056 7.62862 2.53056C7.62862 2.53056 7.62862 2.53056 7.62862 2.53056C7.62862 2.53056 7.62862 2.53056 7.62862 2.53056C7.62862 2.53056 7.62862 2.53056 7.62862 2.53056C7.62862 2.53056 7.62862 2.53056 7.62862 2.53056C7.62862 2.53056 7.62862 2.53056 7.62862 2.53056C7.62862 2.53056 7.62862 2.53056 7.62862 2.53056C7.62862 2.53056 7.62862 2.53056 7.62862 2.53056C7.62862 2.53056 7.62862 2.53056 7.62862 2.53056C7.62862 2.53056 7.62862 2.53056 7.62862 2.53056C7.62862 2.53056 7.62862 2.53056 7.62862 2.53056C7.62862 2.53056 7.62862 2.53056 7.62862 2.53056C7.62862 2.53056 7.62862 2.53056 7.62862 2.53056C7.62862 2.53056 7.62862 2.53056 7.62862 2.53056C7.62862 2.53056 7.62862 2.53056 7.62862 2.53056C7.62862 2.53056 7.62862 2.53056 7.62862 2.53056C7.62862 2.53056 7.62862 2.53056 7.62862 2.53056C7.62862 2.53056 7.62862 2.53056 7.62862 2.53056C7.62862 2.53056 7.62862 2.53056 7.62862 2.53056C7.62862 2.53056 7.62862 2.53056 7.62862 2.53056C7.62862 2.53056 7.62862 2.53056 7.62862 2.53056C7.62862 2.53056 7.62862 2.53056 7.62862 2.53056C7.62862 2.53056 7.62862 2.53056 7.62862 2.53056C7.62862 2.53056 7.62862 2.53056 7.62862 2.53056C7.62862 2.53056 7.62862 2.53056 7.62862 2.53056C7.62862 2.53056 7.62862 2.53056 7.62862 2.53056C7.62862 2.53056 7.62862 2.53056 7.62862 2.53056C7.62862 2.53056 7.62862 2.53056 7.62862 2.53056C7.62862 2.53056 7.62862 2.53056 7.62862 2.53056C7.62862 2.53056 7.62862 2.53056 7.62862 2.53056C7.62862 2.53056 7.62862 2.53056 7.62862 2.53056C7.62862 2.53056 7.62862 2.53056 7.62862 2.53056C7.62862 2.53056 7.62862 2.53056 7.62862 2.53056C7.62862 2.53056 7.62862 2.53056 7.62862 2.53056C7.62862 2.53056 7.62862 2.53056 7.62862 2.53056C7.62862 2.53056 7.62862 2.53056 7.62862 2.53056C7.62862 2.53056 7.62862 2.53056 7.62862 2.53056C7.62862 2.53056 7.62862 2.53056 7.62862 2.53056C7.62862 2.53056 7.62862 2.53056 7.62862 2.53056C7.62862 2.53056 7.62862 2.53056 7.62862 2.53056C7.62862 2.53056 7.62862 2.53056 7.62862 2.53056C7.62862 2.53056 7.62862 2.53056 7.62862 2.53056C7.62862 2.53056 7.62862 2.53056 7.62862 2.53056C7.62862 2.53056 7.62862 2.53056 7.62862 2.53056C7.62862 2.53056 7.62862 2.53056 7.62862 2.53056C7.62862 2.53056 7.62862 2.53056 7.62862 2.53056C7.62862 2.53056 7.62862 2.53056 7.62862 2.53056C7.62862 2.53056 7.62862 2.53056 7.62862 2.53056C7.62862 2.53056 7.62862 2.53056 7.62862 2.53056C7.62862 2.53056 7.62862 2.53056 7.62862 2.53056C7.62862 2.53056 7.62862 2.53056 7.62862 2.53056C7.62862 2.53056 7.62862 2.53056 7.62862 2.53056C7.62862 2.53056 7.62862 2.53056 7.62862 2.53056C7.62862 2.53056 7.62862 2.53056 7.62862 2.53056C7.62862 2.53056 7.62862 2.53056 7.62862 2.53056C7.62862 2.53056 7.62862 2.53056 7.62862 2.53056C7.62862 2.53056 7.62862 2.53056 7.62862 2.53056C7.62862 2.53056 7.62862 2.53056 7.62862 2.53056C7.62862 2.53056 7.62862 2.53056 7.62862 2.53056C7.62862 2.53056 7.62862 2.53056 7.62862 2.53056C7.62862 2.53056 7.62862 2.53056 7.62862 2.53056C7.62862 2.53056 7.62862 2.53056 7.62862 2.53056C7.62862 2.53056 7.62862 2.53056 7.62862 2.53056C7.62862 2.53056 7.62862 2.53056 7.62862 2.53056C7.62862 2.53056 7.62862 2.53056 7.62862 2.53056C7.62862 2.53056 7.62862 2.53056 7.62862 2.53056C7.62862 2.53056 7.62862 2.53056 7.62862 2.53056C7.62862 2.53056 7.62862 2.53056 7.62862 2.53056C7.62862 2.53056 7.62862 2.53056 7.62862 2.53056C7.62862 2.53056 7.62862 2.53056 7.62862 2.53056C7.62862 2.53056 7.62862 2.53056 7.62862 2.53056C7.62862 2.53056 7.62862 2.53056 7.62862 2.53056C7.62862 2.53056 7.62862 2.53056 7.62862 2.53056C7.62862 2.53056 7.62862 2.53056 7.62862 2.53056C7.62862 2.53056 7.62862 2.53056 7.62862 2.53056C7.62862 2.53056 7.62862 2.53056 7.62862 2.53056L6.69202 0.763417C6.69202 0.763417 6.69202 0.763417 6.69202 0.763417C6.69202 0.763417 6.69202 0.763417 6.69202 0.763417C6.69202 0.763417 6.69202 0.763417 6.69202 0.763417C6.69202 0.763417 6.69202 0.763417 6.69202 0.763417C6.69202 0.763417 6.69202 0.763417 6.69202 0.763417C6.69202 0.763417 6.69202 0.763417 6.69202 0.763417C6.69202 0.763417 6.69202 0.763417 6.69202 0.763417C6.69202 0.763417 6.69202 0.763417 6.69202 0.763417C6.69202 0.763417 6.69202 0.763417 6.69202 0.763417C6.69202 0.763417 6.69202 0.763417 6.69202 0.763417C6.69202 0.763417 6.69202 0.763417 6.69202 0.763417C6.69202 0.763417 6.69202 0.763417 6.69202 0.763417C6.69202 0.763417 6.69202 0.763417 6.69202 0.763417C6.69202 0.763417 6.69202 0.763417 6.69202 0.763417C6.69202 0.763417 6.69202 0.763417 6.69202 0.763417C6.69202 0.763417 6.69202 0.763417 6.69202 0.763417C6.69202 0.763417 6.69202 0.763417 6.69202 0.763417C6.69202 0.763417 6.69202 0.763417 6.69202 0.763417C6.69202 0.763417 6.69202 0.763417 6.69202 0.763417C6.69202 0.763417 6.69202 0.763417 6.69202 0.763417C6.69202 0.763417 6.69202 0.763417 6.69202 0.763417C6.69202 0.763417 6.69202 0.763417 6.69202 0.763417C6.69202 0.763417 6.69202 0.763417 6.69202 0.763417C6.69202 0.763417 6.69202 0.763417 6.69202 0.763417C6.69202 0.763417 6.69202 0.763417 6.69202 0.763417C6.69202 0.763417 6.69202 0.763417 6.69202 0.763417C6.69202 0.763417 6.69202 0.763417 6.69202 0.763417C6.69202 0.763417 6.69202 0.763417 6.69202 0.763417C6.69202 0.763417 6.69202 0.763417 6.69202 0.763417C6.69202 0.763417 6.69202 0.763417 6.69202 0.763417C6.69202 0.763417 6.69202 0.763417 6.69202 0.763417C6.69202 0.763417 6.69202 0.763417 6.69202 0.763417C6.69202 0.763417 6.69202 0.763417 6.69202 0.763417C6.69202 0.763417 6.69202 0.763417 6.69202 0.763417C6.69202 0.763417 6.69202 0.763417 6.69202 0.763417C6.69202 0.763417 6.69202 0.763417 6.69202 0.763417C6.69202 0.763417 6.69202 0.763417 6.69202 0.763417C6.69202 0.763417 6.69202 0.763417 6.69202 0.763417C6.69202 0.763417 6.69202 0.763417 6.69202 0.763417C6.69202 0.763417 6.69202 0.763417 6.69202 0.763417C6.69202 0.763417 6.69202 0.763417 6.69202 0.763417C6.69202 0.763417 6.69202 0.763417 6.69202 0.763417C6.69202 0.763417 6.69202 0.763417 6.69202 0.763417C6.69202 0.763417 6.69202 0.763417 6.69202 0.763417C6.69202 0.763417 6.69202 0.763417 6.69202 0.763417C6.69202 0.763417 6.69202 0.763417 6.69202 0.763417C6.69202 0.763417 6.69202 0.763417 6.69202 0.763417C6.69202 0.763417 6.69202 0.763417 6.69202 0.763417C6.69202 0.763417 6.69202 0.763417 6.69202 0.763417C6.69202 0.763417 6.69202 0.763417 6.69202 0.763417C6.69202 0.763417 6.69202 0.763417 6.69202 0.763417C6.69202 0.763417 6.69202 0.763417 6.69202 0.763417C6.69202 0.763417 6.69202 0.763417 6.69202 0.763417C6.69202 0.763417 6.69202 0.763417 6.69202 0.763417C6.69202 0.763417 6.69202 0.763417 6.69202 0.763417C6.69202 0.763417 6.69202 0.763417 6.69202 0.763417C6.69202 0.763417 6.69202 0.763417 6.69202 0.763417C6.69202 0.763417 6.69202 0.763417 6.69202 0.763417C6.69202 0.763417 6.69202 0.763417 6.69202 0.763417C6.69202 0.763417 6.69202 0.763417 6.69202 0.763417C6.69202 0.763417 6.69202 0.763417 6.69202 0.763417C6.69202 0.763417 6.69202 0.763417 6.69202 0.763417C6.69202 0.763417 6.69202 0.763417 6.69202 0.763417C6.69202 0.763417 6.69202 0.763417 6.69202 0.763417C6.69202 0.763417 6.69202 0.763417 6.69202 0.763417C6.69202 0.763417 6.69202 0.763417 6.69202 0.763417C6.69202 0.763417 6.69202 0.763417 6.69202 0.763417C6.69202 0.763417 6.69202 0.763417 6.69202 0.763417C6.69202 0.763417 6.69202 0.763417 6.69202 0.763417C6.69202 0.763417 6.69202 0.763417 6.69202 0.763417C6.69202 0.763417 6.69202 0.763417 6.69202 0.763417C6.69202 0.763417 6.69202 0.763417 6.69202 0.763417C6.69202 0.763417 6.69202 0.763417 6.69202 0.763417C6.69202 0.763417 6.69202 0.763417 6.69202 0.763417C6.69202 0.763417 6.69202 0.763417 6.69202 0.763417C6.69202 0.763417 6.69202 0.763417 6.69202 0.763417C6.69202 0.763417 6.69202 0.763417 6.69202 0.763417C6.69202 0.763417 6.69202 0.763417 6.69202 0.763417C6.69202 0.763417 6.69202 0.763417 6.69202 0.763417C6.69202 0.763417 6.69202 0.763417 6.69202 0.763417C6.69202 0.763417 6.69202 0.763417 6.69202 0.763417C6.69202 0.763417 6.69202 0.763417 6.69202 0.763417C6.69202 0.763417 6.69202 0.763417 6.69202 0.763417C6.69202 0.763417 6.69202 0.763417 6.69202 0.763417C6.69202 0.763417 6.69202 0.763417 6.69202 0.763417C6.69202 0.763417 6.69202 0.763417 6.69202 0.763417C6.69202 0.763417 6.69202 0.763417 6.69202 0.763417C6.69202 0.763417 6.69202 0.763417 6.69202 0.763417C6.69202 0.763417 6.69202 0.763417 6.69202 0.763417C6.69202 0.763417 6.69202 0.763417 6.69202 0.763417C6.69202 0.763417 6.69202 0.763417 6.69202 0.763417C6.69202 0.763417 6.69202 0.763417 6.69202 0.763417C6.69202 0.763417 6.69202 0.763417 6.69202 0.763417C6.69202 0.763417 6.69202 0.763417 6.69202 0.763417C6.69202 0.763417 6.69202 0.763417 6.69202 0.763417C6.69202 0.763417 6.69202 0.763417 6.69202 0.763417C6.69202 0.763417 6.69202 0.763417 6.69202 0.763417C6.69202 0.763417 6.69202 0.763417 6.69202 0.763417C6.69202 0.763417 6.69202 0.763417 6.69202 0.763417C6.69202 0.763417 6.69202 0.763417 6.69202 0.763417C6.69202 0.763417 6.69202 0.763417 6.69202 0.763417C6.69202 0.763417 6.69202 0.763417 6.69202 0.763417C6.69202 0.763417 6.69202 0.763417 6.69202 0.763417C6.69202 0.763417 6.69202 0.763417 6.69202 0.763417C6.69202 0.763417 6.69202 0.763417 6.69202 0.763417C6.69202 0.763417 6.69202 0.763417 6.69202 0.763417C6.69202 0.763417 6.69202 0.763417 6.69202 0.763417C6.69202 0.763417 6.69202 0.763417 6.69202 0.763417C6.69202 0.763417 6.69202 0.763417 6.69202 0.763417C6.69202 0.763417 6.69202 0.763417 6.69202 0.763417C6.69202 0.763417 6.69202 0.763417 6.69202 0.763417C6.69202 0.763417 6.69202 0.763417 6.69202 0.763417C6.69202 0.763417 6.69202 0.763417 6.69202 0.763417C6.69202 0.763417 6.69202 0.763417 6.69202 0.763417C6.69202 0.763417 6.69202 0.763417 6.69202 0.763417C6.69202 0.763417 6.69202 0.763417 6.69202 0.763417C6.69202 0.763417 6.69202 0.763417 6.69202 0.763417C6.69202 0.763417 6.69202 0.763417 6.69202 0.763417C6.69202 0.763417 6.69202 0.763417 6.69202 0.763417C6.69202 0.763417 6.69202 0.763417 6.69202 0.763417C6.69202 0.763417 6.69202 0.763417 6.69202 0.763417C6.69202 0.763417 6.69202 0.763417 6.69202 0.763417C6.69202 0.763417 6.69202 0.763417 6.69202 0.763417C6.69202 0.763417 6.69202 0.763417 6.69202 0.763417C6.69202 0.763417 6.69202 0.763417 6.69202 0.763417C6.69202 0.763417 6.69202 0.763417 6.69202 0.763417C6.69202 0.763417 6.69202 0.763417 6.69202 0.763417C6.69202 0.763417 6.69202 0.763417 6.69202 0.763417C6.69202 0.763417 6.69202 0.763417 6.69202 0.763417C6.69202 0.763417 6.69202 0.763417 6.69202 0.763417C6.69202 0.763417 6.69202 0.763417 6.69202 0.763417C6.69202 0.763417 6.69202 0.763417 6.69202 0.763417C6.69202 0.763417 6.69202 0.763417 6.69202 0.763417C6.69202 0.763417 6.69202 0.763417 6.69202 0.763417C6.69202 0.763417 6.69202 0.763417 6.69202 0.763417C6.69202 0.763417 6.69202 0.763417 6.69202 0.763417C6.69202 0.763417 6.69202 0.763417 6.69202 0.763417C6.69202 0.763417 6.69202 0.763417 6.69202 0.763417C6.69202 0.763417 6.69202 0.763417 6.69202 0.763417C6.69202 0.763418 6.69202 0.763417 6.69202 0.763417C6.69202 0.763417 6.69202 0.763418 6.69202 0.763418C6.69202 0.763417 6.69202 0.763417 6.69202 0.763418C6.69202 0.763417 6.69202 0.763417 6.69202 0.763417C6.69202 0.763418 6.69202 0.763417 6.69202 0.763417C6.69202 0.763417 6.69202 0.763418 6.69202 0.763418C6.69202 0.763417 6.69202 0.763417 6.69202 0.763418C6.69202 0.763417 6.69202 0.763417 6.69202 0.763417C6.69202 0.763418 6.69202 0.763417 6.69202 0.763417C6.69202 0.763417 6.69202 0.763418 6.69202 0.763418C6.69202 0.763417 6.69202 0.763417 6.69202 0.763418C6.69202 0.763418 6.69202 0.763417 6.69202 0.763417C6.69202 0.763418 6.69202 0.763418 6.69202 0.763417C6.69202 0.763418 6.69202 0.763418 6.69202 0.763418C6.69202 0.763417 6.69202 0.763418 6.69202 0.763418C6.69202 0.763418 6.69202 0.763417 6.69202 0.763417C6.69202 0.763418 6.69202 0.763418 6.69202 0.763417C6.69202 0.763418 6.69202 0.763418 6.69202 0.763418C6.69202 0.763417 6.69202 0.763418 6.69202 0.763418C6.69202 0.763418 6.69202 0.763417 6.69202 0.763417C6.69202 0.763418 6.69202 0.763418 6.69202 0.763417C6.69202 0.763418 6.69202 0.763418 6.69202 0.763418C6.69202 0.763417 6.69202 0.763418 6.69202 0.763418C6.69202 0.763418 6.69202 0.763418 6.69202 0.763418C6.69202 0.763418 6.69202 0.763418 6.69202 0.763418C6.69202 0.763418 6.69202 0.763418 6.69202 0.763418C6.69202 0.763418 6.69202 0.763418 6.69202 0.763418C6.69202 0.763418 6.69202 0.763418 6.69202 0.763418C6.69202 0.763418 6.69202 0.763418 6.69202 0.763418C6.69202 0.763418 6.69202 0.763418 6.69202 0.763418C6.69202 0.763418 6.69202 0.763418 6.69202 0.763418C6.69202 0.763418 6.69202 0.763418 6.69202 0.763418C6.69202 0.763418 6.69202 0.763418 6.69202 0.763418C6.69202 0.763418 6.69202 0.763418 6.69202 0.763418C6.69202 0.763418 6.69202 0.763418 6.69202 0.763418C6.69202 0.763418 6.69202 0.763418 6.69202 0.763418C6.69202 0.763418 6.69202 0.763418 6.69202 0.763418C6.69202 0.763418 6.69202 0.763418 6.69202 0.763418C6.69202 0.763418 6.69202 0.763418 6.69202 0.763418C6.69202 0.763418 6.69202 0.763418 6.69202 0.763418C6.69202 0.763418 6.69202 0.763418 6.69202 0.763418C6.69202 0.763418 6.69202 0.763418 6.69202 0.763418C6.69202 0.763418 6.69202 0.763418 6.69202 0.763418C6.69202 0.763418 6.69202 0.763418 6.69202 0.763418C6.69202 0.763418 6.69202 0.763418 6.69202 0.763418C6.69202 0.763418 6.69202 0.763418 6.69202 0.763418C6.69202 0.763418 6.69202 0.763418 6.69202 0.763418C6.69202 0.763418 6.69202 0.763418 6.69202 0.763418C6.69202 0.763418 6.69202 0.763418 6.69202 0.763418C6.69202 0.763418 6.69202 0.763418 6.69202 0.763418C6.69202 0.763418 6.69202 0.763418 6.69202 0.763418C6.69202 0.763418 6.69202 0.763418 6.69202 0.763418C6.69202 0.763418 6.69202 0.763418 6.69202 0.763418C6.69202 0.763418 6.69202 0.763418 6.69202 0.763418C6.69202 0.763418 6.69202 0.763418 6.69202 0.763418C6.69202 0.763418 6.69202 0.763418 6.69202 0.763418C6.69202 0.763418 6.69202 0.763418 6.69202 0.763418C6.69202 0.763418 6.69202 0.763418 6.69202 0.763418C6.69202 0.763418 6.69202 0.763418 6.69202 0.763418C6.69202 0.763418 6.69202 0.763418 6.69202 0.763418C6.69202 0.763418 6.69202 0.763418 6.69202 0.763418C6.69202 0.763418 6.69202 0.763418 6.69202 0.763418C6.69202 0.763418 6.69202 0.763418 6.69202 0.763418C6.69202 0.763418 6.69202 0.763418 6.69202 0.763418C6.69202 0.763418 6.69202 0.763418 6.69202 0.763418C6.69202 0.763418 6.69202 0.763418 6.69202 0.763418C6.69202 0.763418 6.69202 0.763418 6.69202 0.763418C6.69202 0.763418 6.69202 0.763418 6.69202 0.763418C6.69202 0.763418 6.69202 0.763418 6.69202 0.763418C6.69202 0.763418 6.69202 0.763418 6.69202 0.763418C6.69202 0.763418 6.69202 0.763418 6.69202 0.763418C6.69202 0.763418 6.69202 0.763418 6.69202 0.763418C6.69202 0.763418 6.69202 0.763418 6.69202 0.763418C6.69202 0.763418 6.69202 0.763418 6.69202 0.763418C6.69202 0.763418 6.69202 0.763418 6.69202 0.763418C6.69202 0.763418 6.69202 0.763418 6.69202 0.763418C6.69202 0.763418 6.69202 0.763418 6.69202 0.763418C6.69202 0.763418 6.69202 0.763418 6.69202 0.763418C6.69202 0.763418 6.69202 0.763418 6.69202 0.763418C6.69202 0.763418 6.69202 0.763418 6.69202 0.763418C6.69202 0.763418 6.69202 0.763418 6.69202 0.763418C6.69202 0.763418 6.69202 0.763418 6.69202 0.763418C6.69202 0.763418 6.69202 0.763418 6.69202 0.763418C6.69202 0.763418 6.69202 0.763418 6.69202 0.763418C6.69202 0.763418 6.69202 0.763418 6.69202 0.763418C6.69202 0.763418 6.69202 0.763418 6.69202 0.763418C6.69202 0.763418 6.69202 0.763418 6.69202 0.763418C6.69202 0.763418 6.69202 0.763418 6.69202 0.763418C6.69202 0.763418 6.69202 0.763418 6.69202 0.763418C6.69202 0.763418 6.69202 0.763418 6.69202 0.763418C6.69202 0.763418 6.69202 0.763418 6.69202 0.763418C6.69202 0.763418 6.69202 0.763418 6.69202 0.763418C6.69202 0.763418 6.69202 0.763418 6.69202 0.763418C6.69202 0.763418 6.69202 0.763418 6.69202 0.763418C6.69202 0.763418 6.69202 0.763418 6.69202 0.763418C6.69202 0.763418 6.69202 0.763418 6.69202 0.763418C6.69202 0.763418 6.69202 0.763418 6.69202 0.763418C6.69202 0.763418 6.69202 0.763418 6.69202 0.763418C6.69202 0.763418 6.69202 0.763418 6.69202 0.763418C6.69202 0.763418 6.69202 0.763418 6.69202 0.763418C6.69202 0.763418 6.69202 0.763418 6.69202 0.763418C6.69202 0.763418 6.69202 0.763418 6.69202 0.763418C6.69202 0.763418 6.69202 0.763418 6.69202 0.763418C6.69202 0.763418 6.69202 0.763418 6.69202 0.763418C6.69202 0.763418 6.69202 0.763418 6.69202 0.763418C6.69202 0.763418 6.69202 0.763418 6.69202 0.763418C6.69202 0.763418 6.69202 0.763418 6.69202 0.763418C6.69202 0.763418 6.69202 0.763418 6.69202 0.763418C6.69202 0.763418 6.69202 0.763418 6.69202 0.763418C6.69202 0.763418 6.69202 0.763418 6.69202 0.763418C6.69202 0.763418 6.69202 0.763418 6.69202 0.763418C6.69202 0.763418 6.69202 0.763418 6.69202 0.763418C6.69202 0.763418 6.69202 0.763418 6.69202 0.763418C6.69202 0.763418 6.69202 0.763418 6.69202 0.763418C6.69202 0.763418 6.69202 0.763418 6.69202 0.763418C6.69202 0.763418 6.69202 0.763418 6.69202 0.763418C6.69202 0.763418 6.69202 0.763418 6.69202 0.763418C6.69202 0.763418 6.69202 0.763418 6.69202 0.763418C6.69202 0.763418 6.69202 0.763418 6.69202 0.763418C6.69202 0.763418 6.69202 0.763418 6.69202 0.763418C6.69202 0.763418 6.69202 0.763418 6.69202 0.763418C6.69202 0.763418 6.69202 0.763418 6.69202 0.763418C6.69202 0.763418 6.69202 0.763418 6.69202 0.763418C6.69202 0.763418 6.69202 0.763418 6.69202 0.763418C6.69202 0.763418 6.69202 0.763418 6.69202 0.763418C6.69202 0.763418 6.69202 0.763418 6.69202 0.763418C6.69202 0.763418 6.69202 0.763418 6.69202 0.763418C6.69202 0.763418 6.69202 0.763418 6.69202 0.763418C6.69202 0.763418 6.69202 0.763418 6.69202 0.763418C6.69202 0.763418 6.69202 0.763418 6.69202 0.763418C6.69202 0.763418 6.69202 0.763418 6.69202 0.763418C6.69202 0.763418 6.69202 0.763418 6.69202 0.763418C6.69202 0.763418 6.69202 0.763418 6.69202 0.763418C6.69202 0.763418 6.69202 0.763418 6.69202 0.763418C6.69202 0.763418 6.69202 0.763418 6.69202 0.763418C6.69202 0.763418 6.69202 0.763418 6.69202 0.763418C6.69202 0.763418 6.69202 0.763418 6.69202 0.763418C6.69202 0.763418 6.69202 0.763418 6.69202 0.763418C6.69202 0.763418 6.69202 0.763418 6.69202 0.763418C6.69202 0.763418 6.69202 0.763418 6.69202 0.763418C6.69202 0.763418 6.69202 0.763418 6.69202 0.763418C6.69202 0.763418 6.69202 0.763418 6.69202 0.763418C6.69202 0.763418 6.69202 0.763418 6.69202 0.763418C6.69202 0.763418 6.69202 0.763418 6.69202 0.763418C6.69202 0.763418 6.69202 0.763418 6.69202 0.763418C6.69202 0.763418 6.69202 0.763418 6.69202 0.763418C6.69202 0.763418 6.69202 0.763418 6.69202 0.763418C6.69202 0.763418 6.69202 0.763418 6.69202 0.763418C6.69202 0.763418 6.69202 0.763418 6.69202 0.763418C6.69202 0.763418 6.69202 0.763418 6.69202 0.763418C6.69202 0.763418 6.69202 0.763418 6.69202 0.763418C6.69202 0.763418 6.69202 0.763418 6.69202 0.763418C6.69202 0.763418 6.69202 0.763418 6.69202 0.763418C6.69202 0.763418 6.69202 0.763418 6.69202 0.763418C6.69202 0.763418 6.69202 0.763418 6.69202 0.763418C6.69202 0.763418 6.69202 0.763418 6.69202 0.763418C6.69202 0.763418 6.69202 0.763418 6.69202 0.763418C6.69202 0.763418 6.69202 0.763418 6.69202 0.763418C6.69202 0.763418 6.69202 0.763418 6.69202 0.763418C6.69202 0.763418 6.69202 0.763418 6.69202 0.763418C6.69202 0.763418 6.69202 0.763418 6.69202 0.763418C6.69202 0.763418 6.69202 0.763418 6.69202 0.763418C6.69202 0.763418 6.69202 0.763418 6.69202 0.763418C6.69202 0.763418 6.69202 0.763418 6.69202 0.763418C6.69202 0.763418 6.69202 0.763418 6.69202 0.763418C6.69202 0.763418 6.69202 0.763418 6.69202 0.763418C6.69202 0.763418 6.69202 0.763418 6.69202 0.763418C6.69202 0.763418 6.69202 0.763418 6.69202 0.763418C6.69202 0.763418 6.69202 0.763418 6.69202 0.763418C6.69202 0.763418 6.69202 0.763418 6.69202 0.763418C6.69202 0.763418 6.69202 0.763418 6.69202 0.763418C6.69202 0.763418 6.69202 0.763418 6.69202 0.763418C6.69202 0.763418 6.69202 0.763418 6.69202 0.763418C6.69202 0.763418 6.69202 0.763418 6.69202 0.763418C6.69202 0.763418 6.69202 0.763418 6.69202 0.763418C6.69202 0.763418 6.69202 0.763418 6.69202 0.763418C6.69202 0.763418 6.69202 0.763418 6.69202 0.763418C6.69202 0.763418 6.69202 0.763418 6.69202 0.763418C6.69202 0.763418 6.69202 0.763418 6.69202 0.763418C6.69202 0.763418 6.69202 0.763418 6.69202 0.763418C6.69202 0.763418 6.69202 0.763418 6.69202 0.763418C6.69202 0.763418 6.69202 0.763418 6.69202 0.763418C6.69202 0.763418 6.69202 0.763418 6.69202 0.763418C6.69202 0.763418 6.69202 0.763418 6.69202 0.763418C6.69202 0.763418 6.69202 0.763418 6.69202 0.763418C6.69202 0.763418 6.69202 0.763418 6.69202 0.763418C6.69202 0.763418 6.69202 0.763418 6.69202 0.763418C6.69202 0.763418 6.69202 0.763418 6.69202 0.763418C6.69202 0.763418 6.69202 0.763418 6.69202 0.763418C6.69202 0.763418 6.69202 0.763418 6.69202 0.763418C6.69202 0.763418 6.69202 0.763418 6.69202 0.763418C6.69202 0.763418 6.69202 0.763418 6.69202 0.763418C6.69202 0.763418 6.69202 0.763418 6.69202 0.763418C6.69202 0.763418 6.69202 0.763418 6.69202 0.763418C6.69202 0.763418 6.69202 0.763418 6.69202 0.763418C6.69202 0.763418 6.69202 0.763418 6.69202 0.763418C6.69202 0.763418 6.69202 0.763418 6.69202 0.763418C6.69202 0.763418 6.69202 0.763418 6.69202 0.763418C6.69202 0.763418 6.69202 0.763418 6.69202 0.763418C6.69202 0.763418 6.69202 0.763418 6.69202 0.763418C6.69202 0.763418 6.69202 0.763418 6.69202 0.763418C6.69202 0.763418 6.69202 0.763418 6.69202 0.763418C6.69202 0.763418 6.69202 0.763418 6.69202 0.763418C6.69202 0.763418 6.69202 0.763418 6.69202 0.763418C6.69202 0.763418 6.69202 0.763418 6.69202 0.763418C6.69202 0.763418 6.69202 0.763418 6.69202 0.763418C6.69202 0.763418 6.69202 0.763418 6.69202 0.763418C6.69202 0.763418 6.69202 0.763418 6.69202 0.763418C6.69202 0.763418 6.69202 0.763418 6.69202 0.763418C6.69202 0.763418 6.69202 0.763418 6.69202 0.763418C6.69202 0.763418 6.69202 0.763418 6.69202 0.763418C6.69202 0.763418 6.69202 0.763418 6.69202 0.763418C6.69202 0.763418 6.69202 0.763418 6.69202 0.763418C6.69202 0.763418 6.69202 0.763418 6.69202 0.763418C6.69202 0.763418 6.69202 0.763418 6.69202 0.763418C6.69202 0.763418 6.69202 0.763418 6.69202 0.763418C6.69202 0.763418 6.69202 0.763418 6.69202 0.763418C6.69202 0.763418 6.69202 0.763418 6.69202 0.763418C6.69202 0.763418 6.69202 0.763418 6.69202 0.763418C6.69202 0.763418 6.69202 0.763418 6.69202 0.763418C6.69202 0.763418 6.69202 0.763418 6.69202 0.763418C6.69202 0.763418 6.69202 0.763418 6.69202 0.763418C6.69202 0.763418 6.69202 0.763418 6.69202 0.763418C6.69202 0.763418 6.69202 0.763418 6.69202 0.763418C6.69202 0.763418 6.69202 0.763418 6.69202 0.763418C6.69202 0.763418 6.69202 0.763418 6.69202 0.763418C6.69202 0.763418 6.69202 0.763418 6.69202 0.763418C6.69202 0.763418 6.69202 0.763418 6.69202 0.763418C6.69202 0.763418 6.69202 0.763418 6.69202 0.763418C6.69202 0.763418 6.69202 0.763418 6.69202 0.763418C6.69202 0.763418 6.69202 0.763418 6.69202 0.763418C6.69202 0.763418 6.69202 0.763418 6.69202 0.763418C6.69202 0.763418 6.69202 0.763418 6.69202 0.763418C6.69202 0.763418 6.69202 0.763418 6.69202 0.763418C6.69202 0.763418 6.69202 0.763418 6.69202 0.763418C6.69202 0.763418 6.69202 0.763418 6.69202 0.763418C6.69202 0.763418 6.69202 0.763418 6.69202 0.763418C6.69202 0.763418 6.69202 0.763418 6.69202 0.763418C6.69202 0.763418 6.69202 0.763418 6.69202 0.763419C6.69202 0.763418 6.69202 0.763418 6.69202 0.763418C6.69202 0.763419 6.69202 0.763418 6.69202 0.763418C6.69202 0.763418 6.69202 0.763419 6.69202 0.763419C6.69202 0.763418 6.69202 0.763418 6.69202 0.763419C6.69202 0.763418 6.69202 0.763418 6.69202 0.763418C6.69202 0.763419 6.69202 0.763418 6.69202 0.763418C6.69202 0.763418 6.69202 0.763419 6.69202 0.763419C6.69202 0.763418 6.69202 0.763418 6.69202 0.763419C6.69202 0.763418 6.69202 0.763418 6.69202 0.763418C6.69202 0.763419 6.69202 0.763418 6.69202 0.763418C6.69202 0.763418 6.69202 0.763419 6.69202 0.763419C6.69202 0.763418 6.69202 0.763419 6.69202 0.763419C6.69202 0.763419 6.69202 0.763418 6.69202 0.763418C6.69202 0.763419 6.69202 0.763419 6.69202 0.763418C6.69202 0.763419 6.69202 0.763419 6.69202 0.763419C6.69202 0.763418 6.69202 0.763419 6.69202 0.763419C6.69202 0.763419 6.69202 0.763418 6.69202 0.763418C6.69202 0.763419 6.69202 0.763419 6.69202 0.763418C6.69202 0.763419 6.69202 0.763419 6.69202 0.763419C6.69202 0.763418 6.69202 0.763419 6.69202 0.763419C6.69202 0.763419 6.69202 0.763418 6.69202 0.763418C6.69202 0.763419 6.69202 0.763419 6.69202 0.763418C6.69202 0.763419 6.69202 0.763419 6.69202 0.763419C6.69202 0.763419 6.69202 0.763419 6.69202 0.763419C6.69202 0.763419 6.69202 0.763419 6.69202 0.763419C6.69202 0.763419 6.69202 0.763419 6.69202 0.763419C6.69202 0.763419 6.69202 0.763419 6.69202 0.763419C6.69202 0.763419 6.69202 0.763419 6.69202 0.763419C6.69202 0.763419 6.69202 0.763419 6.69202 0.763419C6.69202 0.763419 6.69202 0.763419 6.69202 0.763419C6.69202 0.763419 6.69202 0.763419 6.69202 0.763419C6.69202 0.763419 6.69202 0.763419 6.69202 0.763419C6.69202 0.763419 6.69202 0.763419 6.69202 0.763419C6.69202 0.763419 6.69202 0.763419 6.69202 0.763419C6.69202 0.763419 6.69202 0.763419 6.69202 0.763419C6.69202 0.763419 6.69202 0.763419 6.69202 0.763419C6.69202 0.763419 6.69202 0.763419 6.69202 0.763419C6.69202 0.763419 6.69202 0.763419 6.69202 0.763419C6.69202 0.763419 6.69202 0.763419 6.69202 0.763419C6.69202 0.763419 6.69202 0.763419 6.69202 0.763419C6.69202 0.763419 6.69202 0.763419 6.69202 0.763419C6.69202 0.763419 6.69202 0.763419 6.69202 0.763419C6.69202 0.763419 6.69202 0.763419 6.69202 0.763419C6.69202 0.763419 6.69202 0.763419 6.69202 0.763419C6.69202 0.763419 6.69202 0.763419 6.69202 0.763419C6.69202 0.763419 6.69202 0.763419 6.69202 0.763419C6.69202 0.763419 6.69202 0.763419 6.69202 0.763419C6.69202 0.763419 6.69202 0.763419 6.69202 0.763419C6.69202 0.763419 6.69202 0.763419 6.69202 0.763419C6.69202 0.763419 6.69202 0.763419 6.69202 0.763419C6.69202 0.763419 6.69202 0.763419 6.69202 0.763419C6.69202 0.763419 6.69202 0.763419 6.69202 0.763419C6.69202 0.763419 6.69202 0.763419 6.69202 0.763419C6.69202 0.763419 6.69202 0.763419 6.69202 0.763419C6.69202 0.763419 6.69202 0.763419 6.69202 0.763419C6.69202 0.763419 6.69202 0.763419 6.69202 0.763419C6.69202 0.763419 6.69202 0.763419 6.69202 0.763419C6.69202 0.763419 6.69202 0.763419 6.69202 0.763419C6.69202 0.763419 6.69202 0.763419 6.69202 0.763419C6.69202 0.763419 6.69202 0.763419 6.69202 0.763419C6.69202 0.763419 6.69202 0.763419 6.69202 0.763419C6.69202 0.763419 6.69202 0.763419 6.69202 0.763419C6.69202 0.763419 6.69202 0.763419 6.69202 0.763419C6.69202 0.763419 6.69202 0.763419 6.69202 0.763419C6.69202 0.763419 6.69202 0.763419 6.69202 0.763419C6.69202 0.763419 6.69202 0.763419 6.69202 0.763419C6.69202 0.763419 6.69202 0.763419 6.69202 0.763419C6.69202 0.763419 6.69202 0.763419 6.69202 0.763419C6.69202 0.763419 6.69202 0.763419 6.69202 0.763419C6.69202 0.763419 6.69202 0.763419 6.69202 0.763419C6.69202 0.763419 6.69202 0.763419 6.69202 0.763419C6.69202 0.763419 6.69202 0.763419 6.69202 0.763419C6.69202 0.763419 6.69202 0.763419 6.69202 0.763419C6.69202 0.763419 6.69202 0.763419 6.69202 0.763419C6.69202 0.763419 6.69202 0.763419 6.69202 0.763419C6.69202 0.763419 6.69202 0.763419 6.69202 0.763419C6.69202 0.763419 6.69202 0.763419 6.69202 0.763419C6.69202 0.763419 6.69202 0.763419 6.69202 0.763419C6.69202 0.763419 6.69202 0.763419 6.69202 0.763419C6.69202 0.763419 6.69202 0.763419 6.69202 0.763419C6.69202 0.763419 6.69202 0.763419 6.69202 0.763419C6.69202 0.763419 6.69202 0.763419 6.69202 0.763419C6.69202 0.763419 6.69202 0.763419 6.69202 0.763419C6.69202 0.763419 6.69202 0.763419 6.69202 0.763419C6.69202 0.763419 6.69202 0.763419 6.69202 0.763419C6.69202 0.763419 6.69202 0.763419 6.69202 0.763419C6.69202 0.763419 6.69202 0.763419 6.69202 0.763419C6.69202 0.763419 6.69202 0.763419 6.69202 0.763419C6.69202 0.763419 6.69202 0.763419 6.69202 0.763419C6.69202 0.763419 6.69202 0.763419 6.69202 0.763419C6.69202 0.763419 6.69202 0.763419 6.69202 0.763419C6.69202 0.763419 6.69202 0.763419 6.69202 0.763419C6.69202 0.763419 6.69202 0.763419 6.69202 0.763419C6.69202 0.763419 6.69202 0.763419 6.69202 0.763419C6.69202 0.763419 6.69202 0.763419 6.69202 0.763419C6.69202 0.763419 6.69202 0.763419 6.69202 0.763419C6.69202 0.763419 6.69202 0.763419 6.69202 0.763419C6.69202 0.763419 6.69202 0.763419 6.69202 0.763419C6.69202 0.763419 6.69202 0.763419 6.69202 0.763419C6.69202 0.763419 6.69202 0.763419 6.69202 0.763419C6.69202 0.763419 6.69202 0.763419 6.69202 0.763419C6.69202 0.763419 6.69202 0.763419 6.69202 0.763419C6.69202 0.763419 6.69202 0.763419 6.69202 0.763419C6.69202 0.763419 6.69202 0.763419 6.69202 0.763419C6.69202 0.763419 6.69202 0.763419 6.69202 0.763419C6.69202 0.763419 6.69202 0.763419 6.69202 0.763419C6.69202 0.763419 6.69202 0.763419 6.69202 0.763419C6.69202 0.763419 6.69202 0.763419 6.69202 0.763419C6.69202 0.763419 6.69202 0.763419 6.69202 0.763419C6.69202 0.763419 6.69202 0.763419 6.69202 0.763419C6.69202 0.763419 6.69202 0.763419 6.69202 0.763419C6.69202 0.763419 6.69202 0.763419 6.69202 0.763419C6.69202 0.763419 6.69202 0.763419 6.69202 0.763419C6.69202 0.763419 6.69202 0.763419 6.69202 0.763419C6.69202 0.763419 6.69202 0.763419 6.69202 0.763419C6.69202 0.763419 6.69202 0.763419 6.69202 0.763419C6.69202 0.763419 6.69202 0.763419 6.69202 0.763419C6.69202 0.763419 6.69202 0.763419 6.69202 0.763419C6.69202 0.763419 6.69202 0.763419 6.69202 0.763419C6.69202 0.763419 6.69202 0.763419 6.69202 0.763419C6.69202 0.763419 6.69202 0.763419 6.69202 0.763419C6.69202 0.763419 6.69202 0.763419 6.69202 0.763419C6.69202 0.763419 6.69202 0.763419 6.69202 0.763419C6.69202 0.763419 6.69202 0.763419 6.69202 0.763419C6.69202 0.763419 6.69202 0.763419 6.69202 0.763419C6.69202 0.763419 6.69202 0.763419 6.69202 0.763419C6.69202 0.763419 6.69202 0.763419 6.69202 0.763419C6.69202 0.763419 6.69202 0.763419 6.69202 0.763419C6.69202 0.763419 6.69202 0.763419 6.69202 0.763419C6.69202 0.763419 6.69202 0.763419 6.69202 0.763419C6.69202 0.763419 6.69202 0.763419 6.69202 0.763419C6.69202 0.763419 6.69202 0.763419 6.69202 0.763419C6.69202 0.763419 6.69202 0.763419 6.69202 0.763419C6.69202 0.763419 6.69202 0.763419 6.69202 0.763419L7.62862 2.53056ZM3.66829 4.7172L7.64365 2.52243L6.67699 0.771549L2.70164 2.96632L3.66829 4.7172ZM5.8442 4.21552L3.6829 2.97455L2.68703 4.70897L4.84832 5.94995L5.8442 4.21552ZM7.5 3.08807C6.33832 3.08807 5.30556 3.61319 4.5947 4.42306L6.09782 5.7424C6.45993 5.32985 6.95934 5.08807 7.5 5.08807V3.08807ZM10.4053 4.42306C9.69445 3.61319 8.66169 3.08807 7.5 3.08807V5.08807C8.04067 5.08807 8.54008 5.32985 8.9022 5.7424L10.4053 4.42306ZM11.3171 2.97455L9.15582 4.21552L10.1517 5.94995L12.313 4.70898L11.3171 2.97455ZM7.35636 2.52243L11.3317 4.7172L12.2984 2.96632L8.32301 0.771549L7.35636 2.52243ZM7.64364 2.52243C7.55569 2.57099 7.44431 2.57099 7.35636 2.52243L8.32301 0.771546C7.80933 0.48795 7.19069 0.487948 6.67701 0.771541L7.64364 2.52243ZM10.8527 7.32032L13.145 6.00409L12.1491 4.26967L9.85678 5.58589L10.8527 7.32032ZM11.4412 7.20576C11.4412 6.86945 11.4023 6.54078 11.3284 6.22517L9.38104 6.68103C9.42017 6.84818 9.44118 7.02391 9.44118 7.20576H11.4412ZM8.49849 11.19C10.225 10.719 11.4412 9.08519 11.4412 7.20576H9.44118C9.44118 8.23185 8.78268 9.03936 7.9721 9.2605L8.49849 11.19ZM9.2353 12.912V10.2252H7.2353V12.912H9.2353ZM11.7641 9.73271L7.73736 12.0447L8.73323 13.7792L12.7599 11.4671L11.7641 9.73271ZM11.6471 9.91457C11.6471 9.86261 11.6737 9.78458 11.7641 9.73272L12.7599 11.4671C13.3248 11.1428 13.6471 10.5387 13.6471 9.91457H11.6471ZM11.6471 5.13688V9.91457H13.6471V5.13688H11.6471ZM11.7217 11.7403L12.072 12.4256L13.8529 11.5156L13.5027 10.8302L11.7217 11.7403ZM13.4604 12.8378C14.4998 12.241 15.1176 11.1107 15.1176 9.91457H13.1176C13.1176 10.4346 12.8487 10.8828 12.4645 11.1034L13.4604 12.8378ZM15.1176 9.91457V3.82826H13.1176V9.91457H15.1176ZM15.1176 3.82826C15.1176 3.19447 14.7851 2.58164 14.2053 2.26154L13.2387 4.01242C13.1452 3.96079 13.1176 3.88088 13.1176 3.82826H15.1176ZM14.2053 2.26154L9.00233 -0.611015L8.03567 1.13987L13.2387 4.01242L14.2053 2.26154ZM7.62149 -0.176565L7.28183 0.514716L9.07685 1.3967L9.41651 0.705415L7.62149 -0.176565ZM9.07686 1.39669L9.41651 0.705408L7.62148 -0.176562L7.28183 0.514721L9.07686 1.39669ZM9.00232 -0.61102C8.0629 -1.12966 6.9371 -1.12966 5.99769 -0.61102L6.96433 1.13987C7.30212 0.953378 7.69789 0.953378 8.03568 1.13987L9.00232 -0.61102ZM5.98834 -0.605794L5.98834 -0.605792L6.97367 1.13464L6.97368 1.13464L5.98834 -0.605794ZM5.99768 -0.611015L0.794664 2.26154L1.76132 4.01242L6.96433 1.13987L5.99768 -0.611015ZM0.794664 2.26154C0.214873 2.58164 -0.117645 3.19447 -0.117645 3.82826H1.88235C1.88235 3.88088 1.85484 3.96079 1.76132 4.01242L0.794664 2.26154ZM-0.117645 3.82826V9.91457H1.88235V3.82826H-0.117645ZM-0.117645 9.91457C-0.117645 11.1108 0.500307 12.241 1.53964 12.8378L2.53555 11.1034C2.15128 10.8827 1.88235 10.4346 1.88235 9.91457H-0.117645ZM1.56 12.8492L1.56001 12.8492L2.5152 11.092L2.51519 11.092L1.56 12.8492ZM1.53967 12.8378L6.65186 15.7731L7.64773 14.0387L2.53554 11.1034L1.53967 12.8378ZM6.65185 15.7731C7.17868 16.0756 7.82132 16.0756 8.34814 15.7731L7.35228 14.0387C7.44215 13.9871 7.55786 13.9871 7.64773 14.0387L6.65185 15.7731ZM8.34815 15.7731L13.4604 12.8378L12.4645 11.1034L7.35228 14.0387L8.34815 15.7731ZM13.8529 11.5156L13.5027 10.8302L11.7217 11.7403L12.0719 12.4256L13.8529 11.5156ZM5.76471 10.2252V12.912H7.76471V10.2252H5.76471ZM3.55883 7.20576C3.55883 9.08519 4.77496 10.719 6.50151 11.19L7.02791 9.2605C6.21732 9.03936 5.55883 8.23185 5.55883 7.20576H3.55883ZM3.67162 6.22516C3.59773 6.54078 3.55883 6.86946 3.55883 7.20576H5.55883C5.55883 7.02391 5.57984 6.84818 5.61897 6.68103L3.67162 6.22516ZM1.85501 6.00409L4.14735 7.32031L5.14323 5.58588L2.85088 4.26966L1.85501 6.00409ZM3.35294 9.91457V5.13688H1.35294V9.91457H3.35294ZM3.236 9.73273C3.32624 9.78455 3.35294 9.86254 3.35294 9.91457H1.35294C1.35294 10.5387 1.67526 11.1428 2.24009 11.4671L3.236 9.73273ZM7.26264 12.0447L3.23598 9.73272L2.24011 11.4671L6.26677 13.7792L7.26264 12.0447ZM7.02941 7.20576C7.02941 7.09586 7.05516 6.99992 7.09634 6.91949L5.31615 6.00794C5.13214 6.36731 5.02941 6.77531 5.02941 7.20576H7.02941ZM7.5 7.76461C7.29418 7.76461 7.02941 7.57015 7.02941 7.20576H5.02941C5.02941 8.5633 6.08139 9.76461 7.5 9.76461V7.76461ZM7.97059 7.20576C7.97059 7.57015 7.70582 7.76461 7.5 7.76461V9.76461C8.91862 9.76461 9.97059 8.5633 9.97059 7.20576H7.97059ZM7.90363 6.9194C7.94485 6.9999 7.97059 7.09588 7.97059 7.20576H9.97059C9.97059 6.7753 9.86786 6.36731 9.68387 6.00794L7.90363 6.9194ZM7.5 6.64692C7.64692 6.64692 7.80804 6.73276 7.90368 6.9195L9.68381 6.00784C9.27944 5.21825 8.46809 4.64692 7.5 4.64692V6.64692ZM7.09634 6.9195C7.19196 6.73277 7.35308 6.64692 7.5 6.64692V4.64692C6.53188 4.64692 5.7205 5.2183 5.31616 6.00793L7.09634 6.9195Z" fill="#19C2EF" fill-opacity="0.55" mask="url(#path-1-inside-1_340_110547)"/>
</g>
<defs>
<linearGradient id="paint0_linear_340_110547" x1="7.5" y1="0" x2="7.5" y2="15" gradientUnits="userSpaceOnUse">
<stop stop-color="#0974F8"/>
<stop offset="1" stop-color="#4FB2FE"/>
</linearGradient>
<clipPath id="clip0_340_110547">
<rect width="15" height="15" fill="white"/>
</clipPath>
</defs>
</svg>
