<svg width="15" height="15" viewBox="0 0 15 15" fill="none" xmlns="http://www.w3.org/2000/svg">
<g clip-path="url(#clip0_340_110535)">
<g filter="url(#filter0_d_340_110535)">
<path d="M7.5 0C9.17101 0 10.7184 0.322358 11.875 0.875503C12.4522 1.15156 12.9647 1.50066 13.343 1.92835C13.6928 2.32389 13.9534 2.81906 13.9944 3.3939L14 3.55263V11.4474C14 12.0901 13.7246 12.6402 13.343 13.0716C12.9647 13.4994 12.4522 13.8485 11.875 14.1245C10.7184 14.6777 9.17101 15 7.5 15C5.82899 15 4.28164 14.6777 3.12502 14.1245C2.54777 13.8485 2.03529 13.4994 1.65703 13.0716C1.30721 12.6761 1.04664 12.1809 1.00564 11.6061L1 11.4474V3.55263C1 2.90991 1.2754 2.35985 1.65703 1.92835C2.03529 1.50066 2.54777 1.15156 3.12502 0.875503C4.28164 0.322358 5.82899 0 7.5 0ZM12.5556 9.79508C12.3431 9.93529 12.1146 10.0625 11.875 10.1771C10.7184 10.7303 9.17101 11.0526 7.5 11.0526C5.82899 11.0526 4.28164 10.7303 3.12502 10.1771C2.88533 10.0625 2.65682 9.93529 2.44444 9.79508V11.4474C2.44444 11.5677 2.49239 11.7445 2.69551 11.9742C2.90199 12.2076 3.23565 12.4539 3.70397 12.6779C4.63849 13.1248 5.98003 13.4211 7.5 13.4211C9.01999 13.4211 10.3615 13.1248 11.296 12.6779C11.7644 12.4539 12.098 12.2076 12.3045 11.9742C12.5076 11.7445 12.5556 11.5677 12.5556 11.4474V9.79508ZM12.5556 5.84771C12.3431 5.98792 12.1146 6.11511 11.875 6.22974C10.7184 6.78292 9.17101 7.10526 7.5 7.10526C5.82899 7.10526 4.28164 6.78292 3.12502 6.22974C2.88533 6.11511 2.65682 5.98792 2.44444 5.84771V7.5C2.44444 7.62032 2.49239 7.79716 2.69551 8.02682C2.90199 8.26026 3.23565 8.50658 3.70397 8.73055C4.63849 9.17747 5.98003 9.47368 7.5 9.47368C9.01999 9.47368 10.3615 9.17747 11.296 8.73055C11.7644 8.50658 12.098 8.26026 12.3045 8.02682C12.5076 7.79716 12.5556 7.62032 12.5556 7.5V5.84771ZM7.5 1.57895C5.98003 1.57895 4.63849 1.87514 3.70397 2.32206C3.23565 2.54604 2.90199 2.79235 2.69551 3.02582C2.49239 3.25549 2.44444 3.43233 2.44444 3.55263C2.44444 3.67293 2.49239 3.84977 2.69551 4.07945C2.90199 4.31291 3.23565 4.55923 3.70397 4.7832C4.63849 5.23012 5.98003 5.52632 7.5 5.52632C9.01999 5.52632 10.3615 5.23012 11.296 4.7832C11.7644 4.55923 12.098 4.31291 12.3045 4.07945C12.5076 3.84977 12.5556 3.67293 12.5556 3.55263C12.5556 3.43233 12.5076 3.25549 12.3045 3.02582C12.098 2.79235 11.7644 2.54604 11.296 2.32206C10.3615 1.87514 9.01999 1.57895 7.5 1.57895Z" fill="#9FFF9C"/>
</g>
</g>
<defs>
<filter id="filter0_d_340_110535" x="1" y="0" width="15" height="15" filterUnits="userSpaceOnUse" color-interpolation-filters="sRGB">
<feFlood flood-opacity="0" result="BackgroundImageFix"/>
<feColorMatrix in="SourceAlpha" type="matrix" values="0 0 0 0 0 0 0 0 0 0 0 0 0 0 0 0 0 0 127 0" result="hardAlpha"/>
<feOffset dx="2"/>
<feComposite in2="hardAlpha" operator="out"/>
<feColorMatrix type="matrix" values="0 0 0 0 0.623529 0 0 0 0 1 0 0 0 0 0.611765 0 0 0 0.2 0"/>
<feBlend mode="normal" in2="BackgroundImageFix" result="effect1_dropShadow_340_110535"/>
<feBlend mode="normal" in="SourceGraphic" in2="effect1_dropShadow_340_110535" result="shape"/>
</filter>
<clipPath id="clip0_340_110535">
<rect width="15" height="15" fill="white"/>
</clipPath>
</defs>
</svg>
