<svg width="15" height="15" viewBox="0 0 15 15" fill="none" xmlns="http://www.w3.org/2000/svg">
<g filter="url(#filter0_d_340_110532)">
<path fill-rule="evenodd" clip-rule="evenodd" d="M2.0561 1H10.9587C11.2989 1 11.5824 1.05677 11.9226 1.22707C12.3195 1.39738 12.5464 1.68122 12.6598 1.9083C12.6598 1.9083 12.6598 1.96507 12.7165 1.96507C12.8866 2.24891 13 2.58952 13 2.9869C13 3.32751 12.9433 3.66812 12.7165 4.00873L7.10277 13.6594C6.98936 13.8865 6.76254 14 6.47902 14C6.25221 14 6.02539 13.8865 5.85528 13.6594L0.354976 4.00873C0.241567 3.78166 0.0147504 3.49782 0.0147504 3.04367C-0.0419537 2.64629 0.0714544 2.30568 0.241567 1.96507C0.411679 1.62445 0.6952 1.34061 1.09213 1.22707C1.43235 1 1.82928 1 2.0561 1ZM5.79857 2.36245H2.0561C1.82928 2.36245 1.71587 2.36245 1.65917 2.41921C1.54576 2.47598 1.48906 2.53275 1.43235 2.64629C1.37565 2.70306 1.37565 2.81659 1.37565 2.93013C1.37565 2.9869 1.43235 3.04367 1.54576 3.27074L5.79857 10.6507V2.36245ZM7.15947 2.36245V10.7074L11.469 3.27074C11.5257 3.15721 11.5257 3.04367 11.5257 2.93013C11.5257 2.81659 11.5257 2.70306 11.469 2.64629C11.4123 2.58952 11.4123 2.53275 11.3556 2.53275L11.2989 2.47598C11.1855 2.41921 11.0721 2.41921 10.9019 2.41921H7.15947V2.36245Z" fill="#FFD954"/>
</g>
<defs>
<filter id="filter0_d_340_110532" x="0" y="1" width="15" height="13" filterUnits="userSpaceOnUse" color-interpolation-filters="sRGB">
<feFlood flood-opacity="0" result="BackgroundImageFix"/>
<feColorMatrix in="SourceAlpha" type="matrix" values="0 0 0 0 0 0 0 0 0 0 0 0 0 0 0 0 0 0 127 0" result="hardAlpha"/>
<feOffset dx="2"/>
<feComposite in2="hardAlpha" operator="out"/>
<feColorMatrix type="matrix" values="0 0 0 0 0.992157 0 0 0 0 0.741176 0 0 0 0 0.0901961 0 0 0 0.2 0"/>
<feBlend mode="normal" in2="BackgroundImageFix" result="effect1_dropShadow_340_110532"/>
<feBlend mode="normal" in="SourceGraphic" in2="effect1_dropShadow_340_110532" result="shape"/>
</filter>
</defs>
</svg>
