<svg width="94" height="24" viewBox="0 0 94 24" fill="none" xmlns="http://www.w3.org/2000/svg">
<path opacity="0.8" d="M85.7574 23.5H21.4051C20.6632 23.5 19.9596 23.1704 19.4846 22.6005L4.48457 4.60046C3.12764 2.97214 4.28553 0.5 6.40513 0.5H91C92.3807 0.5 93.5 1.61929 93.5 3V15.7574C93.5 16.4204 93.2366 17.0563 92.7678 17.5251L87.5251 22.7678C87.0563 23.2366 86.4204 23.5 85.7574 23.5Z" fill="url(#paint0_linear_282_2)" fill-opacity="0.8" stroke="url(#paint1_linear_282_2)"/>
<g filter="url(#filter0_d_282_2)">
<path d="M32.5553 9H35.5553C36.6253 9 37.5253 9.89 37.5553 11H36.5553C36.5553 10.45 36.1053 10 35.5553 10H32.5553C32.0053 10 31.5553 10.45 31.5553 11V14C31.5553 14.55 32.0053 15 32.5553 15H35.5553C36.1053 15 36.5553 14.55 36.5553 14H37.5553C37.5553 15.06 36.6753 16 35.5553 16H32.5553C31.4853 16 30.5553 15.13 30.5553 14V11C30.5553 9.92 31.4353 9.03 32.5553 9ZM43.3506 10H40.3506C39.8006 10 39.3506 10.45 39.3506 11V13H44.3506V11C44.3506 10.45 43.9006 10 43.3506 10ZM45.3506 11V16H44.3506V14H39.3506V16H38.3506V11C38.3506 9.94 39.2306 9 40.3506 9H43.3506C44.4206 9 45.3206 9.89 45.3506 11ZM53.3486 9V16H52.3486L47.3486 10.62V16H46.3486V9H47.3486L52.3486 14.3V9H53.3486ZM56.2467 9H59.2467C60.3167 9 61.2167 9.89 61.2467 11H60.2467C60.2467 10.45 59.7967 10 59.2467 10H56.2467C55.6967 10 55.2467 10.45 55.2467 11V14C55.2467 14.55 55.6967 15 56.2467 15H59.2467C59.7967 15 60.2467 14.55 60.2467 14H61.2467C61.2467 15.06 60.3667 16 59.2467 16H56.2467C55.1767 16 54.2467 15.13 54.2467 14V11C54.2467 9.92 55.1267 9.03 56.2467 9ZM63.042 10V12H68.042V13H63.042V15H69.042V16H62.042V9H69.042V10H63.042ZM70.8447 9V15H76.8447V16H69.8447V9H70.8447Z" fill="#FF96A2"/>
</g>
<defs>
<filter id="filter0_d_282_2" x="30.5552" y="8" width="48.2896" height="8" filterUnits="userSpaceOnUse" color-interpolation-filters="sRGB">
<feFlood flood-opacity="0" result="BackgroundImageFix"/>
<feColorMatrix in="SourceAlpha" type="matrix" values="0 0 0 0 0 0 0 0 0 0 0 0 0 0 0 0 0 0 127 0" result="hardAlpha"/>
<feOffset dx="2" dy="-1"/>
<feComposite in2="hardAlpha" operator="out"/>
<feColorMatrix type="matrix" values="0 0 0 0 1 0 0 0 0 0.411765 0 0 0 0 0.482353 0 0 0 0.2 0"/>
<feBlend mode="normal" in2="BackgroundImageFix" result="effect1_dropShadow_282_2"/>
<feBlend mode="normal" in="SourceGraphic" in2="effect1_dropShadow_282_2" result="shape"/>
</filter>
<linearGradient id="paint0_linear_282_2" x1="87" y1="11.5" x2="-6.22431e-05" y2="11.5" gradientUnits="userSpaceOnUse">
<stop stop-color="#E91F38"/>
<stop offset="1" stop-color="#FF697B" stop-opacity="0"/>
</linearGradient>
<linearGradient id="paint1_linear_282_2" x1="94" y1="13" x2="19.9999" y2="13" gradientUnits="userSpaceOnUse">
<stop stop-color="#E91F38"/>
<stop offset="1" stop-color="#FF697B" stop-opacity="0"/>
</linearGradient>
</defs>
</svg>
