<svg width="91" height="24" viewBox="0 0 91 24" fill="none" xmlns="http://www.w3.org/2000/svg">
<path opacity="0.8" d="M85.7574 23.5H21.4051C20.6632 23.5 19.9596 23.1704 19.4846 22.6005L4.48457 4.60046C3.12764 2.97214 4.28553 0.5 6.40513 0.5H91C92.3807 0.5 93.5 1.61929 93.5 3V15.7574C93.5 16.4204 93.2366 17.0563 92.7678 17.5251L87.5251 22.7678C87.0563 23.2366 86.4204 23.5 85.7574 23.5Z" fill="url(#paint0_linear_505_2102)" fill-opacity="0.8" stroke="url(#paint1_linear_505_2102)"/>
<g filter="url(#filter0_d_505_2102)">
<path d="M28.7916 14V11C28.7916 10.45 28.3416 10 27.7916 10H24.7916C24.2416 10 23.7916 10.45 23.7916 11V14C23.7916 14.55 24.2416 15 24.7916 15H27.7916C28.3416 15 28.7916 14.55 28.7916 14ZM29.7916 11V14C29.7916 15.1 28.8916 16 27.7916 16H24.7916C23.6816 16 22.7916 15.11 22.7916 14V11C22.7916 9.9 23.6916 9 24.7916 9H27.7916C28.8516 9 29.7916 9.91 29.7916 11ZM36.999 10H33.999V16H32.999V10H29.999V9H36.999V10ZM41.501 15.12L38.501 10.79V16H37.501V9H38.501L41.501 13.33L44.501 9H45.501V16H44.501V10.79L41.501 15.12ZM47.5049 10V12H52.5049V13H47.5049V15H53.5049V16H46.5049V9H53.5049V10H47.5049ZM55.3076 9V12H60.3076V9H61.3076V16H60.3076V13H55.3076V16H54.3076V9H55.3076ZM62.3057 16V9H63.3057V14.55L68.3057 9H69.3057V16H68.3057V10.35L63.3057 16H62.3057ZM76.8037 10H73.8037V16H72.8037V10H69.8037V9H76.8037V10ZM83.3057 14V13.5C83.3057 12.95 82.8557 12.5 82.3057 12.5H78.3057V15H82.3057C82.8557 15 83.3057 14.55 83.3057 14ZM84.3057 13.5V14C84.3057 15.06 83.4257 16 82.3057 16H77.3057V9H78.3057V11.5H82.3057C83.3757 11.5 84.2757 12.39 84.3057 13.5Z" fill="#FF96A2"/>
</g>
<defs>
<filter id="filter0_d_505_2102" x="22.7916" y="8" width="63.514" height="8" filterUnits="userSpaceOnUse" color-interpolation-filters="sRGB">
<feFlood flood-opacity="0" result="BackgroundImageFix"/>
<feColorMatrix in="SourceAlpha" type="matrix" values="0 0 0 0 0 0 0 0 0 0 0 0 0 0 0 0 0 0 127 0" result="hardAlpha"/>
<feOffset dx="2" dy="-1"/>
<feComposite in2="hardAlpha" operator="out"/>
<feColorMatrix type="matrix" values="0 0 0 0 1 0 0 0 0 0.411765 0 0 0 0 0.482353 0 0 0 0.2 0"/>
<feBlend mode="normal" in2="BackgroundImageFix" result="effect1_dropShadow_505_2102"/>
<feBlend mode="normal" in="SourceGraphic" in2="effect1_dropShadow_505_2102" result="shape"/>
</filter>
<linearGradient id="paint0_linear_505_2102" x1="87" y1="11.5" x2="-6.22431e-05" y2="11.5" gradientUnits="userSpaceOnUse">
<stop stop-color="#E91F38"/>
<stop offset="1" stop-color="#FF697B" stop-opacity="0"/>
</linearGradient>
<linearGradient id="paint1_linear_505_2102" x1="94" y1="13" x2="19.9999" y2="13" gradientUnits="userSpaceOnUse">
<stop stop-color="#E91F38"/>
<stop offset="1" stop-color="#FF697B" stop-opacity="0"/>
</linearGradient>
</defs>
</svg>
