<svg width="120" height="28" viewBox="0 0 120 28" fill="none" xmlns="http://www.w3.org/2000/svg">
<g opacity="0.2">
<path d="M0 1H120V0H0V1Z" fill="url(#paint0_linear_196_48401)"/>
<path d="M0 4H120V3H0V4Z" fill="url(#paint1_linear_196_48401)"/>
<path d="M0 7H120V6H0V7Z" fill="url(#paint2_linear_196_48401)"/>
<path d="M0 10H120V9H0V10Z" fill="url(#paint3_linear_196_48401)"/>
<path d="M0 13H120V12H0V13Z" fill="url(#paint4_linear_196_48401)"/>
<path d="M0 16H120V15H0V16Z" fill="url(#paint5_linear_196_48401)"/>
<path d="M0 19H120V18H0V19Z" fill="url(#paint6_linear_196_48401)"/>
<path d="M0 22H120V21H0V22Z" fill="url(#paint7_linear_196_48401)"/>
<path d="M0 25H120V24H0V25Z" fill="url(#paint8_linear_196_48401)"/>
<path d="M0 28H120V27H0V28Z" fill="url(#paint9_linear_196_48401)"/>
</g>
<defs>
<linearGradient id="paint0_linear_196_48401" x1="120" y1="28" x2="1.11409" y2="39.5087" gradientUnits="userSpaceOnUse">
<stop stop-color="#FD9D17" stop-opacity="0"/>
<stop offset="1" stop-color="#FD9D17"/>
</linearGradient>
<linearGradient id="paint1_linear_196_48401" x1="120" y1="28" x2="1.11409" y2="39.5087" gradientUnits="userSpaceOnUse">
<stop stop-color="#FD9D17" stop-opacity="0"/>
<stop offset="1" stop-color="#FD9D17"/>
</linearGradient>
<linearGradient id="paint2_linear_196_48401" x1="120" y1="28" x2="1.11409" y2="39.5087" gradientUnits="userSpaceOnUse">
<stop stop-color="#FD9D17" stop-opacity="0"/>
<stop offset="1" stop-color="#FD9D17"/>
</linearGradient>
<linearGradient id="paint3_linear_196_48401" x1="120" y1="28" x2="1.11409" y2="39.5087" gradientUnits="userSpaceOnUse">
<stop stop-color="#FD9D17" stop-opacity="0"/>
<stop offset="1" stop-color="#FD9D17"/>
</linearGradient>
<linearGradient id="paint4_linear_196_48401" x1="120" y1="28" x2="1.11409" y2="39.5087" gradientUnits="userSpaceOnUse">
<stop stop-color="#FD9D17" stop-opacity="0"/>
<stop offset="1" stop-color="#FD9D17"/>
</linearGradient>
<linearGradient id="paint5_linear_196_48401" x1="120" y1="28" x2="1.11409" y2="39.5087" gradientUnits="userSpaceOnUse">
<stop stop-color="#FD9D17" stop-opacity="0"/>
<stop offset="1" stop-color="#FD9D17"/>
</linearGradient>
<linearGradient id="paint6_linear_196_48401" x1="120" y1="28" x2="1.11409" y2="39.5087" gradientUnits="userSpaceOnUse">
<stop stop-color="#FD9D17" stop-opacity="0"/>
<stop offset="1" stop-color="#FD9D17"/>
</linearGradient>
<linearGradient id="paint7_linear_196_48401" x1="120" y1="28" x2="1.11409" y2="39.5087" gradientUnits="userSpaceOnUse">
<stop stop-color="#FD9D17" stop-opacity="0"/>
<stop offset="1" stop-color="#FD9D17"/>
</linearGradient>
<linearGradient id="paint8_linear_196_48401" x1="120" y1="28" x2="1.11409" y2="39.5087" gradientUnits="userSpaceOnUse">
<stop stop-color="#FD9D17" stop-opacity="0"/>
<stop offset="1" stop-color="#FD9D17"/>
</linearGradient>
<linearGradient id="paint9_linear_196_48401" x1="120" y1="28" x2="1.11409" y2="39.5087" gradientUnits="userSpaceOnUse">
<stop stop-color="#FD9D17" stop-opacity="0"/>
<stop offset="1" stop-color="#FD9D17"/>
</linearGradient>
</defs>
</svg>
