<svg width="20" height="20" viewBox="0 0 20 20" fill="none" xmlns="http://www.w3.org/2000/svg">
<g clip-path="url(#clip0_233_58)">
<g filter="url(#filter0_dd_233_58)">
<path fill-rule="evenodd" clip-rule="evenodd" d="M2.46669 9.68786C2.46669 13.6576 5.69603 16.8876 9.66699 16.8876C11.6219 16.8876 13.4255 16.1028 14.7513 14.7718L12.3671 12.3877H17.7673V17.7875L16.023 16.0425C14.3652 17.7074 12.1106 18.6875 9.66699 18.6875C4.70328 18.6875 0.666626 14.6503 0.666626 9.68786H2.46669ZM9.66627 0.6875C14.63 0.6875 18.6666 4.72474 18.6666 9.68714H16.8666C16.8666 5.7174 13.6372 2.48743 9.66627 2.48743C7.71139 2.48743 5.90772 3.2722 4.58196 4.60324L6.96615 6.98725H1.56595V1.58747L3.31021 3.33159C4.96807 1.66757 7.22268 0.6875 9.66627 0.6875Z" fill="url(#paint0_linear_233_58)"/>
</g>
</g>
<defs>
<filter id="filter0_dd_233_58" x="-9.33337" y="-9.3125" width="38" height="38" filterUnits="userSpaceOnUse" color-interpolation-filters="sRGB">
<feFlood flood-opacity="0" result="BackgroundImageFix"/>
<feColorMatrix in="SourceAlpha" type="matrix" values="0 0 0 0 0 0 0 0 0 0 0 0 0 0 0 0 0 0 127 0" result="hardAlpha"/>
<feOffset dx="2" dy="2"/>
<feComposite in2="hardAlpha" operator="out"/>
<feColorMatrix type="matrix" values="0 0 0 0 0.0352941 0 0 0 0 0.454902 0 0 0 0 0.972549 0 0 0 0.3 0"/>
<feBlend mode="normal" in2="BackgroundImageFix" result="effect1_dropShadow_233_58"/>
<feColorMatrix in="SourceAlpha" type="matrix" values="0 0 0 0 0 0 0 0 0 0 0 0 0 0 0 0 0 0 127 0" result="hardAlpha"/>
<feOffset/>
<feGaussianBlur stdDeviation="5"/>
<feComposite in2="hardAlpha" operator="out"/>
<feColorMatrix type="matrix" values="0 0 0 0 0.0980392 0 0 0 0 0.760784 0 0 0 0 0.937255 0 0 0 0.5 0"/>
<feBlend mode="normal" in2="effect1_dropShadow_233_58" result="effect2_dropShadow_233_58"/>
<feBlend mode="normal" in="SourceGraphic" in2="effect2_dropShadow_233_58" result="shape"/>
</filter>
<linearGradient id="paint0_linear_233_58" x1="9.66663" y1="4.23295" x2="9.66663" y2="14.3239" gradientUnits="userSpaceOnUse">
<stop stop-color="#E1F0FF"/>
<stop offset="1" stop-color="#C9E9FB"/>
</linearGradient>
<clipPath id="clip0_233_58">
<rect width="20" height="20" fill="white"/>
</clipPath>
</defs>
</svg>
